<svg id="Layer_3" height="512" viewBox="0 0 64 64" width="512" xmlns="http://www.w3.org/2000/svg" data-name="Layer 3" fill="#009999"><path d="m62 1h-42a1 1 0 0 0 -1 1v5h-7a1 1 0 0 0 -1 1v21.051a10.994 10.994 0 0 0 0 21.9v11.049a1 1 0 0 0 1 1h42a1 1 0 0 0 1-1v-5h7a1 1 0 0 0 1-1v-54a1 1 0 0 0 -1-1zm-59 39a9 9 0 1 1 9 9 9.011 9.011 0 0 1 -9-9zm10 21v-10.051a10.994 10.994 0 0 0 0-21.9v-20.049h30v4h-25a1 1 0 0 0 -1 1v12a1 1 0 0 0 1 1h30a1 1 0 0 0 1-1v-7h4v42zm31-42h3v6h-28v-10h24v3a1 1 0 0 0 1 1zm1-2v-6.586l6.586 6.586zm16 38h-6v-37a1 1 0 0 0 -.293-.707l-10-10a1 1 0 0 0 -.707-.293h-23v-4h40z"/><path d="m25 17h16v2h-16z"/><path d="m21 21h20v2h-20z"/><path d="m16.293 35.293-6.293 6.293-2.293-2.293-1.414 1.414 3 3a1 1 0 0 0 1.414 0l7-7z"/><path d="m29 31h14v2h-14z"/><path d="m45 31h4v2h-4z"/><path d="m25 35h24v2h-24z"/><path d="m25 39h24v2h-24z"/><path d="m25 43h24v2h-24z"/><path d="m23 47h26v2h-26z"/><path d="m19 51h30v2h-30z"/></svg>