<svg id="Layer_1" enable-background="new 0 0 512.145 512.145" height="512" viewBox="0 0 512.145 512.145" width="512" xmlns="http://www.w3.org/2000/svg" fill="#009999"><g><g id="XMLID_2109_"><g id="XMLID_980_"><path id="XMLID_992_" d="m497.015 131.601-119.034-119.034c-16.757-16.757-44.022-16.756-60.783 0l-66.936 66.936c-3.905 3.905-3.905 10.237 0 14.143 3.906 3.905 10.237 3.905 14.143 0l66.936-66.936c8.961-8.961 23.541-8.959 32.498 0l119.034 119.034c8.96 8.959 8.96 23.538 0 32.498l-196.116 196.115c-4.34 4.341-10.111 6.731-16.249 6.731s-11.909-2.391-16.249-6.731l-8.187-8.187 45.702-45.702c15.538-15.539 15.538-40.822 0-56.361-15.539-15.539-40.822-15.541-56.361 0l-40.521 40.521-6.562.093c-1.196.017-2.385.071-3.573.136l-49.532-49.533c-8.96-8.96-8.96-23.538 0-32.498l65.54-65.54c3.905-3.905 3.905-10.237 0-14.143-3.904-3.904-10.237-3.904-14.142 0l-65.54 65.54c-16.758 16.758-16.758 44.025 0 60.783l40.043 40.042c-12.165 4.228-23.32 11.16-32.667 20.506-16.079 16.078-25.063 37.454-25.299 60.192l-.074 7.105-97.595 97.597c-3.905 3.905-3.905 10.237 0 14.143 1.953 1.952 4.512 2.929 7.071 2.929s5.119-.977 7.071-2.929l100.481-100.48c1.85-1.851 2.901-4.352 2.928-6.968l.116-11.188c.181-17.474 7.086-33.901 19.442-46.257 12.292-12.291 28.632-19.194 46.012-19.439l10.621-.149c2.603-.037 5.089-1.087 6.931-2.928l43.392-43.392c7.741-7.74 20.335-7.74 28.076 0s7.741 20.336 0 28.076l-65.086 65.087c-3.906 3.905-3.906 10.237 0 14.143 3.904 3.904 10.237 3.904 14.142 0l5.243-5.243 8.187 8.187c8.38 8.38 19.384 12.569 30.392 12.568 11.005-.001 22.014-4.19 30.392-12.568l46.457-46.457-25.873 70.065c-7.607 20.6-24.766 36.465-45.897 42.438l-79.987 22.605c-1.645.465-3.143 1.344-4.352 2.552l-15.371 15.371c-3.905 3.905-3.905 10.237 0 14.143 1.953 1.952 4.512 2.929 7.071 2.929s5.119-.977 7.071-2.929l13.528-13.528 77.479-21.896c27.267-7.707 49.404-28.176 59.22-54.756l40.913-110.794 115.858-115.858c16.753-16.759 16.753-44.026-.004-60.784z"/><path id="XMLID_1133_" d="m326.764 271.092c1.953 1.952 4.512 2.929 7.071 2.929s5.118-.977 7.071-2.929l103.787-103.787c3.905-3.905 3.905-10.237 0-14.143-3.906-3.904-10.236-3.904-14.143 0l-103.786 103.787c-3.905 3.905-3.905 10.237 0 14.143z"/><path id="XMLID_1134_" d="m217.381 189.785-33.423 33.423c-3.905 3.905-3.905 10.237 0 14.143 1.953 1.952 4.512 2.929 7.071 2.929s5.119-.977 7.071-2.929l33.423-33.423c3.905-3.905 3.905-10.237 0-14.143-3.905-3.904-10.237-3.904-14.142 0z"/><path id="XMLID_1135_" d="m225.512 128.392c2.63 0 5.21-1.07 7.07-2.931 1.86-1.859 2.93-4.43 2.93-7.069 0-2.63-1.07-5.21-2.93-7.07s-4.44-2.93-7.07-2.93-5.21 1.069-7.07 2.93-2.93 4.44-2.93 7.07c0 2.64 1.07 5.21 2.93 7.069 1.86 1.861 4.441 2.931 7.07 2.931z"/></g></g><g><path d="m349.349 143.389c-19.582 0-35.514-15.932-35.514-35.514s15.932-35.514 35.514-35.514 35.513 15.932 35.513 35.514-15.931 35.514-35.513 35.514zm0-51.028c-8.555 0-15.514 6.959-15.514 15.514s6.959 15.514 15.514 15.514c8.554 0 15.513-6.959 15.513-15.514s-6.959-15.514-15.513-15.514z"/></g></g></svg>