<svg id="Capa_1" enable-background="new 0 0 512 512" height="512" viewBox="0 0 512 512" width="512" xmlns="http://www.w3.org/2000/svg" fill="#009999"><g><path d="m389.734 212.536-39.665 94.515c-1.573 3.749.191 8.065 3.94 9.638 3.656 1.562 8.064-.152 9.638-3.94l39.665-94.515c1.573-3.749-.191-8.065-3.94-9.638-3.748-1.572-8.064.19-9.638 3.94z"/><path d="m374.153 231.347c0-15.29-11.165-27.729-24.889-27.729-13.723 0-24.889 12.439-24.889 27.729s11.165 27.729 24.889 27.729 24.889-12.439 24.889-27.729zm-24.888 13.004c-5.604 0-10.164-5.833-10.164-13.004s4.559-13.004 10.164-13.004c5.604 0 10.164 5.833 10.164 13.004-.001 7.17-4.56 13.004-10.164 13.004z"/><path d="m377.947 295.968c0 15.29 11.165 27.729 24.889 27.729 13.723 0 24.889-12.439 24.889-27.729s-11.165-27.729-24.889-27.729-24.889 12.439-24.889 27.729zm35.052 0c0 7.171-4.559 13.004-10.164 13.004-5.604 0-10.164-5.833-10.164-13.004s4.559-13.004 10.164-13.004c5.604 0 10.164 5.833 10.164 13.004z"/><path d="m389.359 418.614-3.286-3.286c44.213-38.01 69.449-92.796 69.449-151.292 0-53.294-20.754-103.399-58.439-141.084-2.875-2.875-7.536-2.876-10.413 0l-115.314 115.316 43.097-149.588c.942.314 1.884.628 2.822.958 3.835 1.346 8.039-.669 9.387-4.506 1.348-3.836-.67-8.039-4.506-9.387-21.212-7.452-43.47-11.231-66.156-11.231-25.996 0-51.119 4.874-74.515 14.307 24.964-16.994 55.092-26.94 87.502-26.94 31.222 0 61.164 9.139 86.925 26.48l-8.05 8.05c-3.324 3.324-4.308 8.278-2.509 12.621 1.799 4.342 5.998 7.146 10.698 7.146h.003l52.945-.016c8.125-.002 14.735-6.614 14.737-14.738l.016-52.945c.001-4.701-2.804-8.902-7.148-10.701-4.345-1.8-9.295-.813-12.62 2.51l-10.866 10.867c-35.661-26.565-79.585-41.155-124.13-41.155-55.496 0-107.671 21.611-146.915 60.854-39.242 39.243-60.852 91.417-60.852 146.913 0 3.861.107 7.709.317 11.541-.049.162-.1.324-.138.492-3.266 14.425-4.923 29.308-4.923 44.236 0 110.017 89.506 199.523 199.523 199.523 3.177 0 6.374-.101 9.557-.251l39.554 39.554c5.892 5.892 13.727 9.137 22.06 9.137 8.334 0 16.168-3.245 22.061-9.137l40.128-40.128h-.001c5.893-5.892 9.138-13.726 9.138-22.06s-3.246-16.168-9.138-22.06zm-85.351-85.351c-3.873-3.872-9.236-5.938-14.697-5.678l-17.796.854c-.144-3.289-.747-6.611-1.868-9.88l-4.195-12.22c-1.779-5.181-1.433-10.746.973-15.667.625-1.279 1.376-2.47 2.227-3.571l112.703 112.703c-1.871 1.726-3.775 3.423-5.726 5.08zm-5.642-67.693c-.606-1.764-1.819-3.143-3.321-3.998 1.696-2.224 5.059-2.781 7.39-1.204 2.587 1.681 3.325 5.153 1.643 7.74-1.282 1.972-3.603 2.865-5.78 2.435.578-1.545.645-3.292.068-4.973zm93.415 123.836-110.266-110.266 2.455-.843c1.246 1.448 2.7 2.732 4.346 3.801 3.411 2.216 7.245 3.275 11.038 3.275 6.656 0 13.183-3.259 17.072-9.243 0 0 0-.001.001-.001 6.103-9.397 3.424-22.006-5.97-28.109-9.396-6.105-22.005-3.426-28.11 5.969-2.052 3.159-3.142 6.743-3.254 10.414l-5.684 1.951c-1.143.393-2.257.841-3.341 1.34l-3.656-3.656 125.355-125.355c31.668 34.233 49.031 78.456 49.031 125.355 0 47.011-17.605 91.434-49.017 125.368zm-128.419-176.583v-133.436c12.525.49 24.88 2.235 36.945 5.205zm-130.877-141.557c36.462-36.461 84.94-56.541 136.503-56.541 42.595 0 84.573 14.354 118.203 40.419 4.097 3.176 9.945 2.814 13.609-.845l8.223-8.224-.028 45.362-45.348.014 6.407-6.407c2.138-2.138 3.225-5.093 2.983-8.106-.243-3.025-1.797-5.779-4.261-7.558-29.216-21.081-63.722-32.224-99.788-32.224-94.077 0-170.613 76.536-170.613 170.612 0 32.803 9.306 64.664 26.91 92.139 14.664 22.885 34.49 41.806 57.908 55.396l-7.153 1.358c-3.339.634-6.124 2.88-7.451 6.007-1.327 3.128-1.007 6.691.858 9.532l1.092 1.663c-24.359-14.455-45.342-34.168-61.4-57.834-21.715-32.004-33.193-69.44-33.193-108.262 0-51.562 20.08-100.04 56.539-136.501zm-61.094 200.89c5.982 18.373 14.548 35.906 25.564 52.14 21.51 31.702 51.239 56.816 85.97 72.625 3.713 1.703 8.104.781 10.815-2.392 2.702-3.153 2.988-7.6.712-11.066l-8.935-13.614 16.041-3.046c3.953-.751 6.938-3.937 7.427-7.928.491-3.999-1.64-7.82-5.301-9.508-55.028-25.372-90.583-80.954-90.583-141.6 0-32.615 10.075-62.917 27.267-87.972 31.269-24.857 68.473-38.937 108.271-40.41v182.212c0 3.54 1.379 6.868 3.881 9.371l5.668 5.668c-1.956 2.271-3.639 4.804-4.99 7.569-4.135 8.455-4.728 18.014-1.672 26.916l4.195 12.219c.659 1.92 1.005 3.872 1.084 5.805l-24.911 1.195c-8.192.393-14.665 6.866-15.058 15.058l-2.754 57.419c-.262 5.47 1.809 10.827 5.679 14.696l31.253 31.253c-96.898-2.581-175.43-80.116-179.623-176.61zm307.556 180.166-40.129 40.128c-3.111 3.111-7.247 4.824-11.648 4.824-4.4 0-8.537-1.713-11.648-4.824l-85.352-85.351c-.942-.942-1.446-2.247-1.382-3.579l2.754-57.419c.028-.574.481-1.028 1.055-1.055l18.536-.889c-2.194 2.303-4.944 4.138-8.155 5.24-3.846 1.321-5.893 5.508-4.573 9.355 1.049 3.054 3.906 4.973 6.963 4.973.793 0 1.6-.129 2.392-.401 9.99-3.43 17.442-10.935 21.157-20.021l21.099-1.012c.076-.003.15-.005.225-.005 1.253 0 2.465.499 3.354 1.389l85.351 85.35c3.111 3.111 4.824 7.248 4.824 11.648.001 4.401-1.712 8.538-4.823 11.649z"/><path d="m302.661 442.776 18.566-41.074c.03-.066.058-.132.086-.199 1.307-3.133.598-6.707-1.805-9.105s-5.977-3.099-9.108-1.784c-.055.023-.109.047-.163.07l-41.175 18.462c-3.71 1.664-5.369 6.02-3.706 9.73 1.664 3.711 6.024 5.369 9.73 3.706l5.624-2.522 11.06 11.06-2.527 5.59c-1.675 3.705-.029 8.067 3.676 9.741.984.445 2.014.656 3.027.656 2.805 0 5.485-1.61 6.715-4.331zm-7.573-29.162 5.763-2.584-2.599 5.749z"/><path d="m358.315 434.656-13.64 2.365 2.372-13.627c.698-4.006-1.984-7.819-5.991-8.516-4.017-.703-7.819 1.985-8.516 5.991l-3.277 18.824-22.5 3.901c-4.006.695-6.691 4.506-5.996 8.512.676 4.029 4.599 6.705 8.512 5.996l17.302-3-3.009 17.287c-1.771 9.367 12.967 11.99 14.506 2.525l3.914-22.484 18.838-3.266c4.006-.695 6.691-4.506 5.996-8.512-.694-4.007-4.508-6.689-8.511-5.996z"/><path d="m290.067 382.816c1.438 1.438 3.323 2.156 5.206 2.156s3.768-.719 5.206-2.156c2.875-2.875 2.875-7.537 0-10.412l-16.703-16.703c-2.876-2.875-7.537-2.875-10.413 0-2.875 2.875-2.875 7.537 0 10.412l3.112 3.112-25.038 25.038c-2.875 2.875-2.875 7.537 0 10.412 1.438 1.438 3.323 2.156 5.206 2.156s3.768-.719 5.206-2.156l25.037-25.038z"/><path d="m202.378 219.945c-1.73-.611-3.496-1.249-5.261-1.912v-29.416c4.127 1.202 6.55 3.272 6.726 3.427l-.067-.06.725.411c7.201 4.087 14.647-4.948 9.259-11.235-.375-.345-6.542-5.89-16.642-7.615v-5.66c0-4.066-3.296-7.362-7.362-7.362-4.067 0-7.362 3.296-7.362 7.362v6.198c-.79.187-1.587.392-2.4.637-9.671 2.913-16.896 11.181-18.855 21.577-1.791 9.505 1.271 18.684 7.992 23.956 3.394 2.662 7.582 5.101 13.262 7.66v37.94c-4.675-.45-7.845-1.748-13.086-5.177-3.653-2.39-8.642-1.115-10.643 2.92-1.674 3.376-.352 7.497 2.808 9.55 8.134 5.285 13.817 6.985 20.92 7.47v6.342c0 4.066 3.296 7.362 7.362 7.362 4.067 0 7.362-3.296 7.362-7.362v-7.002c14.148-3.188 23.232-15.094 25.206-26.837 2.519-14.98-5.31-28.001-19.944-33.174zm-19.986-8.519c-1.548-.892-2.962-1.811-4.174-2.761-2.343-1.838-3.368-5.623-2.61-9.643.643-3.41 2.754-7.455 6.784-9.472zm25.41 39.25c-.915 5.443-4.546 11.201-10.685 13.866v-30.84c.12.042.232.084.353.126 11.529 4.076 10.823 13.926 10.332 16.848z"/></g></svg>