<?xml version="1.0" encoding="UTF-8"?>
<svg xmlns="http://www.w3.org/2000/svg" id="Layer_3" data-name="Layer 3" viewBox="0 0 64 64" width="512" height="512" fill="#009999"><path d="M32,7V5A14.015,14.015,0,0,0,18,19h2A12.013,12.013,0,0,1,32,7Z"/><path d="M32,33A14.015,14.015,0,0,0,46,19H44A12.013,12.013,0,0,1,32,31Z"/><path d="M31,10.1a5,5,0,0,0,0,9.8v5.917A3,3,0,0,1,29,23H27a5.009,5.009,0,0,0,4,4.9V29h2V27.9a5,5,0,0,0,0-9.8V12.184A3,3,0,0,1,35,15h2a5.009,5.009,0,0,0-4-4.9V9H31ZM29,15a3,3,0,0,1,2-2.816v5.632A3,3,0,0,1,29,15Zm6,8a3,3,0,0,1-2,2.816V20.184A3,3,0,0,1,35,23Z"/><path d="M51.823,36a3.126,3.126,0,0,0-2.1.813l-.082.075a3.364,3.364,0,0,0-4.661-1.462.979.979,0,0,0-.183.13l-4.377,3.931A3.385,3.385,0,0,0,37.615,38a.924.924,0,0,0-.157.013l-12.615,2a1,1,0,0,0-.512.245l-8.8,7.924-.592-1.54a1,1,0,0,0-1.381-.536l-4,2a1,1,0,0,0-.487,1.254l5,13a1,1,0,0,0,.572.573A.985.985,0,0,0,15,63a1,1,0,0,0,.447-.1l4-2a1,1,0,0,0,.487-1.254l-.481-1.249L24.236,56H35.08a10.93,10.93,0,0,0,7.5-2.973L54.1,41.323a3.109,3.109,0,0,0,.9-2.2A3.142,3.142,0,0,0,51.823,36Zm-5.79,1.129A1.383,1.383,0,0,1,48,38.376L39.613,46H35.194l3.678-1.471a3.361,3.361,0,0,0,2.107-2.86ZM15.538,60.613,11.259,49.488l2.2-1.1,4.279,11.125ZM52.676,39.919,41.184,51.594A8.918,8.918,0,0,1,35.08,54H24a1,1,0,0,0-.447.1l-4.821,2.411L16.3,50.18l9.154-8.239L37.684,40a1.385,1.385,0,0,1,.445,2.67l-8.5,3.4A1,1,0,0,0,30,48H40a1,1,0,0,0,.673-.26l10.391-9.447A1.162,1.162,0,0,1,51.872,38a1.128,1.128,0,0,1,.8,1.919Z"/><path d="M32,37A18,18,0,1,0,14,19,18.021,18.021,0,0,0,32,37ZM32,3A16,16,0,1,1,16,19,16.019,16.019,0,0,1,32,3Z"/></svg>
