<svg id="Capa_1" enable-background="new 0 0 511.993 511.993" height="512" viewBox="0 0 511.993 511.993" width="512" xmlns="http://www.w3.org/2000/svg" fill="#009999"><g><path d="m147.458 195.024c-2.782-3.069-7.523-3.303-10.594-.521-3.069 2.781-3.302 7.524-.521 10.594 5.638 6.221 13.518 10.581 22.096 12.435v14.62c0 4.143 3.358 7.5 7.5 7.5s7.5-3.357 7.5-7.5v-14.128c12.636-2.24 24.472-12.75 24.016-26.338-.466-13.901-12.451-20.939-24.016-25.356v-20.718c5.414 1.667 9.157 4.652 9.297 4.765 3.17 2.638 7.879 2.219 10.536-.94 2.665-3.171 2.255-7.902-.915-10.567-.457-.384-8.022-6.62-18.918-8.7v-14.28c0-4.143-3.358-7.5-7.5-7.5s-7.5 3.357-7.5 7.5v14.553c-11.806 2.805-20.934 13.032-19.716 25.566 1.16 11.938 9.955 16.48 19.716 20.502v25.509c-4.28-1.436-8.114-3.834-10.981-6.996zm34.902-1.353c-.788 4.412-4.909 7.597-8.921 8.943 0-6.734 0-13.468 0-20.202 4.326 1.902 9.905 5.749 8.921 11.259zm-26.087-34.376c-4.89-3.689-2.481-10.58 2.166-13.014v13.953c-.722-.313-1.444-.626-2.166-.939z"/><path d="m242.84 144.537h77.722c4.143 0 7.5-3.357 7.5-7.5s-3.357-7.5-7.5-7.5h-77.722c-4.142 0-7.5 3.357-7.5 7.5s3.358 7.5 7.5 7.5z"/><path d="m242.84 181.516h88.986c4.143 0 7.5-3.357 7.5-7.5s-3.357-7.5-7.5-7.5h-88.986c-4.142 0-7.5 3.357-7.5 7.5s3.358 7.5 7.5 7.5z"/><path d="m242.84 218.496h88.986c4.143 0 7.5-3.357 7.5-7.5s-3.357-7.5-7.5-7.5h-88.986c-4.142 0-7.5 3.357-7.5 7.5s3.358 7.5 7.5 7.5z"/><path d="m130.363 290.421c0 4.143 3.358 7.5 7.5 7.5h161.376c4.143 0 7.5-3.357 7.5-7.5s-3.357-7.5-7.5-7.5h-161.376c-4.142 0-7.5 3.357-7.5 7.5z"/><path d="m497.626 121.03 11.331-19.625s0 0 0-.001c6.258-10.84 2.53-24.752-8.31-31.012l-19.314-11.151c-10.68-6.167-24.846-2.374-31.014 8.31l-64.124 111.067v-99.784c0-14.007-11.396-25.402-25.402-25.402h-54.054c.307-19.254-15.178-35.763-34.655-35.763h-237.429c-19.109 0-34.655 15.545-34.655 34.654v371.585c0 7.181 2.178 14.071 6.3 19.927 1.46 2.075 3.781 3.185 6.14 3.185 1.492 0 2.998-.444 4.31-1.367 3.388-2.385 4.201-7.063 1.817-10.45-2.334-3.317-3.567-7.222-3.567-11.295v-371.585c0-10.838 8.817-19.654 19.655-19.654h237.429c11.343 0 19.92 9.677 19.655 20.763h-228.118c-14.007 0-25.402 11.396-25.402 25.402v390.089c0 14.007 11.396 25.402 25.402 25.402h297.172c14.007 0 25.402-11.396 25.402-25.402v-104.62c0-4.143-3.357-7.5-7.5-7.5s-7.5 3.357-7.5 7.5v104.62c0 5.736-4.666 10.402-10.402 10.402h-266.336v-348.682c0-4.143-3.358-7.5-7.5-7.5s-7.5 3.357-7.5 7.5v348.682h-15.836c-5.736 0-10.402-4.666-10.402-10.402v-390.089c0-5.736 4.667-10.402 10.402-10.402h15.835v26.78c0 4.143 3.358 7.5 7.5 7.5s7.5-3.357 7.5-7.5v-26.78h266.336c5.736 0 10.402 4.666 10.402 10.402v125.766l-65.962 114.25h-167.369c-4.142 0-7.5 3.357-7.5 7.5s3.358 7.5 7.5 7.5h160.496c-2.404 8.137-2.593 16.432-1.627 24.799h-158.869c-4.142 0-7.5 3.357-7.5 7.5v61.577c0 4.143 3.358 7.5 7.5 7.5h189.925c4.143 0 7.5-3.357 7.5-7.5v-48.495c11.257-4.788 20.786-13.027 26.915-23.643l127.624-221.05c5.603 6.77 6.75 16.574 2.105 24.619l-39.339 68.138c-2.071 3.587-.842 8.174 2.745 10.245 3.583 2.067 8.21.781 10.245-2.745l39.339-68.138c8.553-14.81 5.475-34.248-7.296-45.627zm-34.316-45.98c2.1-3.638 6.884-4.92 10.522-2.819l19.314 11.151c3.679 2.124 4.943 6.844 2.82 10.522l-10.946 18.96-32.657-18.854zm-18.447 31.951 32.657 18.854-38.977 67.508-32.656-18.854zm-91.9 234.592-32.656-18.854 63.22-109.499 32.656 18.854zm78.081-135.24-7.361 12.751-32.656-18.854 7.361-12.752zm-285.681 167.296h79.963v46.577h-79.963zm174.925 46.577h-79.962v-46.577h57.941l.867 8.471-4.225 7.318h-24.527c-4.143 0-7.5 3.357-7.5 7.5s3.357 7.5 7.5 7.5h28.835c2.651 0 5.19-1.45 6.517-3.75l6.389-11.067 8.165-3.662zm10.315-55.333c-5.786 2.595-11.572 5.19-17.357 7.785-1.23-12.024-3.983-24.888.157-36.604l31.465 18.166c-3.881 4.538-8.718 8.163-14.265 10.653z"/></g></svg>