<?xml version="1.0" encoding="UTF-8"?>
<svg xmlns="http://www.w3.org/2000/svg" viewBox="0 0 48 48" width="512" height="512" fill="#009999"><g id="Hunting"><path d="M24,20a4,4,0,1,0,4,4A4,4,0,0,0,24,20Zm0,6a2,2,0,1,1,2-2A2,2,0,0,1,24,26Z"/><path d="M46,23H42.949A18.993,18.993,0,0,0,25,5.051V2a1,1,0,0,0-2,0V5.051A18.993,18.993,0,0,0,5.051,23H2a1,1,0,0,0,0,2H5.051A18.993,18.993,0,0,0,23,42.949V46a1,1,0,0,0,2,0V42.949A18.993,18.993,0,0,0,42.949,25H46a1,1,0,0,0,0-2Zm-5.051,0h-5A12.006,12.006,0,0,0,25,12.051v-5A16.994,16.994,0,0,1,40.949,23ZM32,25h1.949A10.015,10.015,0,0,1,25,33.949V32a1,1,0,0,0-2,0v1.949A10.015,10.015,0,0,1,14.051,25H16a1,1,0,0,0,0-2H14.051A10.015,10.015,0,0,1,23,14.051V16a1,1,0,0,0,2,0V14.051A10.015,10.015,0,0,1,33.949,23H32a1,1,0,0,0,0,2ZM23,7.051v5A12.006,12.006,0,0,0,12.051,23h-5A16.994,16.994,0,0,1,23,7.051ZM7.051,25h5A12.006,12.006,0,0,0,23,35.949v5A16.994,16.994,0,0,1,7.051,25ZM25,40.949v-5A12.006,12.006,0,0,0,35.949,25h5A16.994,16.994,0,0,1,25,40.949Z"/></g></svg>
