<svg height="512" viewBox="0 0 512 512" width="512" xmlns="http://www.w3.org/2000/svg" fill="#009999"><g id="OUTLINE"><path d="m253.56836 212.95605 7.90185 2.63379 5.05958-15.17968-7.90186-2.63379a7.9992 7.9992 0 0 1 -4.89793-10.56055l9.69775-24.24512-14.85546-5.9414-9.69776 24.24414a24.001 24.001 0 0 0 14.69385 31.68261z"/><path d="m256 247.95117a47.93288 47.93288 0 0 0 26.62549-8.08691l1.812-1.208-8.875-13.3125-1.812 1.208a31.91292 31.91292 0 0 1 -35.501 0l-1.812-1.208-8.875 13.3125 1.812 1.208a47.934 47.934 0 0 0 26.62551 8.08691z"/><path d="m208 160h16v16h-16z"/><path d="m280 160h16v16h-16z"/><path d="m472 240h-112a24.02718 24.02718 0 0 0 -24 24v10.584l-29.91211-11.96484a120.54521 120.54521 0 0 0 37.35059-66.74416l4.91992-4.91992a33.8145 33.8145 0 0 0 -1.56616-49.27222 102.89378 102.89378 0 0 0 13.20776-50.52759v-67.15527a8 8 0 0 0 -10.52979-7.58984l-37.47021 12.49023v-4.90039a8 8 0 0 0 -10.52979-7.58984l-37.47021 12.49023v-4.90039a7.99928 7.99928 0 0 0 -8.7959-7.96l-37.96875 3.79687a69.85752 69.85752 0 0 0 -60.53223 50.58013 63.95293 63.95293 0 0 0 0 35.166l9.96985 34.894a33.79661 33.79661 0 0 0 -3.03186 50.47705l4.91993 4.9209a120.54576 120.54576 0 0 0 37.351 66.74414l-63.42767 25.37109a87.43329 87.43329 0 0 0 -54.01661 66.627l-24.3496 140.01173 15.76368 2.74218 24.34961-140.01171a71.53379 71.53379 0 0 1 44.19531-54.51368l12.31262-4.92529 15.28406 198.69287 15.95312-1.22656-14.54736-189.11572 33.44922 27.87451a7.99964 7.99964 0 0 0 11.26758-1.02442l4.51757-5.42089a55.9961 55.9961 0 0 0 58.67286 0l4.51757 5.42089a7.99964 7.99964 0 0 0 11.26758 1.02442l34.87842-29.06543v30.91992h16v-72a8.00917 8.00917 0 0 1 8-8h89.37622a23.88129 23.88129 0 0 0 -1.37622 8v208a8.00917 8.00917 0 0 1 -8 8h-88v16h88a24.0275 24.0275 0 0 0 24-24v-184h24a8.00008 8.00008 0 0 0 8-8v-16a24.02718 24.02718 0 0 0 -24-24zm-299.91211-165.18652a53.94151 53.94151 0 0 1 46.73926-39.05664l29.17285-2.917v7.16016a8 8 0 0 0 10.52979 7.58984l37.47021-12.49023v4.90039a8 8 0 0 0 10.52979 7.58984l37.47021-12.49023v56.05566a86.9565 86.9565 0 0 1 -9.64355 39.8877l-24.69971-24.7002a8.00263 8.00263 0 0 0 -8.6294-1.7705l-.92578.37109a71.98847 71.98847 0 0 1 -66.67871-6.94236l-12.98537-8.65723a7.99955 7.99955 0 0 0 -12.43748 6.65623v8a32.05313 32.05313 0 0 1 -26.12012 31.459l-9.792-34.27246a47.9549 47.9549 0 0 1 .00001-26.37306zm11.82764 116.01852-.02295-.13867a7.99513 7.99513 0 0 0 -2.23535-4.34961l-6.70215-6.70313a17.77923 17.77923 0 0 1 3.2099-27.69091 48.08213 48.08213 0 0 0 45.377-41.30616l1.00586.66993a87.97126 87.97126 0 0 0 77.44385 9.99218l28.35156 28.35157a7.98781 7.98781 0 0 0 2.08228 1.49145l-.00318.00659a17.78649 17.78649 0 0 1 4.62207 28.48633l-6.70166 6.70215a7.99513 7.99513 0 0 0 -2.23535 4.34961l-.02148.12988a104.37414 104.37414 0 0 1 -44.89649 69.43555l-5.00146 3.335a39.89353 39.89353 0 0 1 -44.37549 0l-5.00244-3.335a104.37032 104.37032 0 0 1 -44.89452-69.42676zm31.06006 125.90039-32.84327-27.36914 38.4314-15.37256 4.37329 2.91553a56.1342 56.1342 0 0 0 16.89185 7.60254zm41.02441 3.26761a39.944 39.944 0 0 1 -18.94373-4.77148l18.94373-22.73243 18.94373 22.73243a39.94381 39.94381 0 0 1 -18.94373 4.77148zm41.02441-3.26758-26.85327-32.22363a56.13947 56.13947 0 0 0 16.89234-7.60254l4.37256-2.91553 38.43139 15.37256zm182.97559-44.73242h-16v-8a8 8 0 0 1 16 0z"/><path d="m368 280h64v16h-64z"/><path d="m368 312h64v16h-64z"/><path d="m397.86865 459.75684 24.81641 4.13574a8.00022 8.00022 0 0 0 9.31494-7.89158v-96a8.00048 8.00048 0 0 0 -6.68506-7.8916l-24.8164-4.13575a92.02026 92.02026 0 0 0 -49.29249 5.3291l-23.1538 9.26172a76.06414 76.06414 0 0 1 -62.21338-2.58789l-14.26075-7.13086a7.99979 7.99979 0 0 0 -11.57812 7.15528v96a8.00022 8.00022 0 0 0 4.42188 7.15527l14.26123 7.13086a92.07118 92.07118 0 0 0 75.31152 3.13281l23.15381-9.26172a75.96585 75.96585 0 0 1 40.72021-4.40138zm-69.8164-1.19239a76.068 76.068 0 0 1 -62.21338-2.58789l-9.83887-4.91992v-78.11133l2.68311 1.3418a92.07665 92.07665 0 0 0 75.31152 3.13281l23.15381-9.26172a75.98486 75.98486 0 0 1 40.72021-4.40136l18.13135 3.02148v79.7793l-15.50146-2.584a92.02026 92.02026 0 0 0 -49.29249 5.3291z"/><path d="m307.156 408h57.689v16h-57.689z" transform="matrix(.555 -.832 .832 .555 -196.512 464.814)"/><path d="m304 400h16v16h-16z"/><path d="m352 416h16v16h-16z"/></g></svg>