<svg xmlns="http://www.w3.org/2000/svg" width="35" height="35" viewBox="0 0 35 35"><g transform="translate(-247 -3062)"><circle cx="17.5" cy="17.5" r="17.5" transform="translate(247 3062)" fill="#099"/><g transform="translate(263.628 3069.091) rotate(45)"><path d="M13.525.055.839,3.985A1.129,1.129,0,0,0,.774,6.148L6.528,8.076a.17.17,0,0,1,.095.09L8.74,13.659a1.159,1.159,0,0,0,1.1.739h.03a1.144,1.144,0,0,0,1.084-.789L14.988,1.493a1.124,1.124,0,0,0-.26-1.129,1.174,1.174,0,0,0-1.2-.31Z" transform="translate(0)" fill="#fff"/></g></g></svg>