<?xml version="1.0" encoding="UTF-8"?>
<svg xmlns="http://www.w3.org/2000/svg" xmlns:xlink="http://www.w3.org/1999/xlink" id="Group_4553" data-name="Group 4553" width="113" height="21.771" viewBox="0 0 113 21.771">
  <defs>
    <clipPath id="clip-path">
      <rect id="Rectangle_567" data-name="Rectangle 567" width="113" height="21.771" transform="translate(0 0)" fill="none"></rect>
    </clipPath>
  </defs>
  <g id="Group_4552" data-name="Group 4552" clip-path="url(#clip-path)">
    <path id="Path_5969" data-name="Path 5969" d="M75.489,9.325c-4.07-1.3-5.84-2.456-5.536-4.35.292-1.878,2.329-1.766,4.308-1.613a20.442,20.442,0,0,1,4.711.98c.022.016.09,0,.1-.07.1-.688.478-2.512.579-3.137.016-.077-.058-.116-.1-.125A24.441,24.441,0,0,0,72.4,0C67.537.088,65.274,2.049,65,6.142c-.163,2.389,1.492,5.03,4.93,6.169s5.893,1.781,5.536,3.9c-.315,1.8-2.432,2-4.727,1.867a21.285,21.285,0,0,1-4.98-.987.123.123,0,0,0-.168.1c-.095.737-.362,2.621-.453,3.285a.183.183,0,0,0,.11.169,34.18,34.18,0,0,0,7.85.913c4.671,0,7.094-2,7.366-5.839.211-2.976-1.19-5.178-4.973-6.4"></path>
    <path id="Path_5970" data-name="Path 5970" d="M54.422,9.325c-4.072-1.3-5.837-2.456-5.535-4.35.294-1.878,2.329-1.766,4.3-1.613a20.375,20.375,0,0,1,4.709.98c.033.016.081,0,.1-.07.119-.688.483-2.512.59-3.137a.118.118,0,0,0-.1-.125A24.461,24.461,0,0,0,51.337,0c-4.868.084-7.129,2.045-7.415,6.138-.16,2.39,1.5,5.033,4.928,6.171s5.888,1.781,5.543,3.9c-.313,1.8-2.429,2-4.728,1.868a21.384,21.384,0,0,1-4.986-.987.117.117,0,0,0-.16.1c-.094.74-.363,2.623-.453,3.288a.175.175,0,0,0,.106.168,34.253,34.253,0,0,0,7.845.913c4.675,0,7.093-2,7.367-5.841.219-2.975-1.183-5.177-4.962-6.4"></path>
    <path id="Path_5971" data-name="Path 5971" d="M14.247.474H.138A.134.134,0,0,0,0,.606v20.46a.134.134,0,0,0,.138.137H4.826a.134.134,0,0,0,.132-.137V13.409a.141.141,0,0,1,.138-.136h8.13a.132.132,0,0,0,.14-.129V9.98a.141.141,0,0,0-.14-.141H5.1A.137.137,0,0,1,4.958,9.7V4.046A.139.139,0,0,1,5.1,3.909h9.27a.132.132,0,0,0,.134-.134L14.392.607a.161.161,0,0,0-.145-.133"></path>
    <path id="Path_5972" data-name="Path 5972" d="M91.938.459H87.1a.129.129,0,0,0-.137.133V21.069a.126.126,0,0,0,.137.127h4.836a.125.125,0,0,0,.131-.127V.592a.129.129,0,0,0-.131-.133"></path>
    <path id="Path_5973" data-name="Path 5973" d="M112.861,17.7h-8.019a.137.137,0,0,1-.135-.133V.625a.13.13,0,0,0-.137-.137H99.74A.134.134,0,0,0,99.6.625V21.068a.132.132,0,0,0,.138.125H112.7a.139.139,0,0,0,.144-.125l.155-3.22a.136.136,0,0,0-.139-.144"></path>
    <path id="Path_5974" data-name="Path 5974" d="M29.068.023c-6.347,0-9.809,4.163-9.809,10.876s3.464,10.872,9.809,10.872,9.8-4.166,9.8-10.872c0-6.813-3.37-10.876-9.8-10.876m0,18.318c-4.31,0-4.907-3.579-4.907-7.442s.6-7.437,4.907-7.437,4.9,3.578,4.9,7.437-.592,7.442-4.9,7.442"></path>
  </g>
</svg>
