<?xml version="1.0" encoding="UTF-8"?>
<svg xmlns="http://www.w3.org/2000/svg" xmlns:xlink="http://www.w3.org/1999/xlink" width="201.268" height="30.193" viewBox="0 0 201.268 30.193">
  <defs>
    <clipPath id="clip-path">
      <rect id="Rectangle_570" data-name="Rectangle 570" width="201.268" height="30.193" transform="translate(0 0)" fill="none"></rect>
    </clipPath>
  </defs>
  <g id="Group_4559" data-name="Group 4559" transform="translate(0 0)">
    <g id="Group_4558" data-name="Group 4558" clip-path="url(#clip-path)">
      <path id="Path_6016" data-name="Path 6016" d="M102.533,4.707A62.1,62.1,0,0,1,97.738,0H77.426C75.953,1.583,74.483,3.171,73,4.746a1.132,1.132,0,0,0-.379.844q.02,9.508.008,19.016a.863.863,0,0,0,.235.69q2.243,2.27,4.45,4.572a1,1,0,0,0,.8.316c2.773-.011,5.547-.016,8.32,0,.454,0,.6-.112.591-.578q-.03-4.7,0-9.4a1.08,1.08,0,0,0-.366-.85c-1.621-1.594-3.231-3.2-4.864-4.819,1.551-1.782,3.028-3.6,4.637-5.286.992-1.041.661-2.178.713-3.384a1.766,1.766,0,0,0-.79.624c-1.088,1.2-2.153,2.429-3.241,3.633-1.4,1.552-2.805,3.1-4.24,4.624-.319.338-.322.505.007.822,1.249,1.2,2.467,2.441,3.7,3.661a.919.919,0,0,1,.353.713c-.021,1.474-.018,2.948,0,4.421,0,.353-.081.492-.466.486q-2.151-.031-4.3,0c-.387.006-.465-.136-.465-.487q.013-9.333,0-18.665c0-.393.1-.516.509-.515q9.449.018,18.9,0c.343,0,.5.06.5.454q-.016,9.367,0,18.735c0,.369-.108.481-.478.475-1.269-.02-2.539-.03-3.807,0-.472.013-.531-.177-.526-.572.019-1.5.021-2.994,0-4.491a1.069,1.069,0,0,1,.361-.853c1.156-1.131,2.295-2.28,3.447-3.416.215-.212.378-.347.078-.666C95.114,13.2,93.592,11.5,92.034,9.84c-1.284-1.37-2.6-2.711-4.024-4.193,0,.956,0,1.78.006,2.6a.437.437,0,0,0,.129.234c.349.4.7.8,1.057,1.2l4.046,4.59c.273.309.307.573-.06.864-.473.374-.907.8-1.358,1.2-.918.82-1.822,1.656-2.757,2.456a2.668,2.668,0,0,0-1.1,2.311c.1,2.8.046,5.613.022,8.419-.005.5.094.676.645.67,2.891-.03,5.782-.018,8.673-.009a1,1,0,0,0,.808-.3q2.283-2.376,4.6-4.721a.867.867,0,0,0,.24-.688q0-9.438.009-18.876a1.06,1.06,0,0,0-.435-.888" fill="#1576bc"></path>
      <path id="Path_6017" data-name="Path 6017" d="M196.781,15.4c-.268-.326-.36-.611-.076-.967q1.57-1.974,3.127-3.958c.4-.509.778-1.034,1.23-1.636-1.175,0-2.21.031-3.241-.011a1.328,1.328,0,0,0-1.456.716,16.571,16.571,0,0,1-1.309,1.853l-1.968,2.718c0-1.693-.013-3.207.008-4.72.005-.4-.066-.589-.532-.567-.844.039-1.692.029-2.538,0-.379-.011-.473.121-.472.481q.018,5.685,0,11.368c0,.388.091.535.505.52.822-.03,1.647-.039,2.467,0,.489.024.578-.164.571-.6-.024-1.459-.009-2.919-.009-4.5a3.366,3.366,0,0,1,.343.316c1.1,1.473,2.216,2.936,3.28,4.434a.706.706,0,0,0,.679.343c1.293-.006,2.586,0,3.878,0v-.28c-1.494-1.839-2.983-3.681-4.487-5.511" fill="#1576bc"></path>
      <path id="Path_6018" data-name="Path 6018" d="M30.487,9.26c-.39.073-.576-.089-.758-.485a21.457,21.457,0,0,0-1.793-3.7,3.393,3.393,0,0,0-2.889-1.7c-.182,0-.429-.029-.358.269.148.622.331,1.235.487,1.855.071.285.282.251.492.264a2.153,2.153,0,0,1,1.212.44c1.009.786,1.355,1.986,2.027,3.067H.947a3.745,3.745,0,0,1-.424,0c-.617-.068-.614.2-.369.636a10.081,10.081,0,0,1,.587,1.171.672.672,0,0,0,.761.45c.8-.026,1.6.009,2.4-.017a.63.63,0,0,1,.689.444.613.613,0,0,1-.256.785,3.768,3.768,0,0,1-1.16.6c-1.622.561-1.636.561-1.062,2.185.52,1.478,1.274,2.8,2.943,3.191a5.655,5.655,0,0,0,3.4-.257c0,.488,0,.908,0,1.329,0,.213,0,.417.209.553.711.45,1.418.907,2.191,1.4v-.621c0-2.994,0-5.988.005-8.983,0-.262-.16-.63.381-.627,2.327.016,4.654.007,6.981.007.191,0,.389-.02.388.267,0,.635,0,1.271,0,1.992-1.418-1.242-1.546-1.291-3.212-1.277a2.646,2.646,0,0,0-2.424,1.725,3.692,3.692,0,0,0,5.64,4.08c0,.477-.006.911,0,1.345,0,.226-.082.489.153.65.713.487,1.435.964,2.242,1.506,0-1.606,0-3.074,0-4.541,0-.2-.067-.414.113-.6a5.539,5.539,0,0,1,1.8-1.4.617.617,0,0,1,.65-.005.583.583,0,0,1,.246.678,7.419,7.419,0,0,1-.875,2.292c-.681.972-.659.988.254,1.707a5.663,5.663,0,0,1,.55.416c.4.4.668.15.875-.179a5.543,5.543,0,0,0,.87-3.97,3.765,3.765,0,0,0-1.389-2.31,2.628,2.628,0,0,0-3.1-.168c0-.613.026-1.17-.009-1.725-.026-.417.142-.5.527-.5,2,.017,3.995.02,5.994,0,.434-.005.556.112.551.546-.024,1.966.133,3.944-.053,5.891a3.018,3.018,0,0,0,1.909,3.489c.022.01.038.03.059.039.14.067.281.13.421.2a4.269,4.269,0,0,0,.049-.464c0-3.018.018-6.035-.012-9.052,0-.542.154-.681.67-.646.663.045,1.331.01,2,.01-.03-.449-.359-.639-.443-.946a1.662,1.662,0,0,0-2.183-1.3M8.175,15.78a3.856,3.856,0,0,1-3.5.778c-.087-.028-.164-.083-.249-.117-.338-.14-.675-.4-.721-.7-.058-.386.454-.271.681-.438a2.75,2.75,0,0,1,.554-.282,1.992,1.992,0,0,0,1.048-3.091,3.392,3.392,0,0,1-.173-.417c.774,0,1.5.017,2.222-.007.36-.011.426.143.421.457q-.021,1.611,0,3.224a.655.655,0,0,1-.284.6m10,.153a3.83,3.83,0,0,1-2.63,1.2c-.434,0-.818-.023-1.057-.494a1.158,1.158,0,0,1,.269-1.333c.969-1.159,2.08-1.687,3.424-.238a.527.527,0,0,1-.006.866" fill="#1576bc"></path>
      <path id="Path_6019" data-name="Path 6019" d="M67.054,9.8a.8.8,0,0,0-.885-.549c-4.887.021-9.775,0-14.662.029a1.058,1.058,0,0,1-1.191-.816,13.3,13.3,0,0,0-1.653-3.53A4.122,4.122,0,0,0,45.42,3.09c-.2,0-.469-.06-.43.282A7.01,7.01,0,0,0,45.423,5.1c.156.408.581.226.869.312,1.921.58,2.675,2.126,3.306,3.8-.567.2-.845-.1-1.045-.544a3.73,3.73,0,0,0-3.766-2.476,4.453,4.453,0,0,0,.405,1.228.754.754,0,0,0,.843.61A1.919,1.919,0,0,1,47.9,9.264h-6.24c-1.809,0-1.792-.009-.952,1.6a1.073,1.073,0,0,0,1.126.66c2.091-.039,4.182-.018,6.273-.011.225,0,.555-.13.548.317-.011.663,0,1.325,0,2.126a4.812,4.812,0,0,0-3.612-1.628,3.237,3.237,0,0,0-3.3,4.186,3.972,3.972,0,0,0,4.722,2.914,7.812,7.812,0,0,0,2.193-.889c0,.431-.005.779,0,1.127.005.226-.07.482.174.639.723.467,1.449.93,2.223,1.425v-.856c0-2.923,0-5.847.006-8.769,0-.237-.165-.6.335-.6q3.524.009,7.049,0c.269,0,.376.089.37.362-.013.6,0,1.2,0,1.981a3.564,3.564,0,0,0-3.237-1.373,2.761,2.761,0,0,0-2.536,2.217,3.533,3.533,0,0,0,1.84,3.743,3.343,3.343,0,0,0,3.935-.154c0,.5,0,.938,0,1.377,0,.226-.071.486.164.645a20.468,20.468,0,0,0,2.232,1.431c0-1.551,0-3.022,0-4.493a.783.783,0,0,1,.167-.649,5.905,5.905,0,0,1,1.568-1.25c.267-.125.532-.323.839-.077s.258.54.183.88a7.685,7.685,0,0,1-1.258,2.8c-.11.158-.328.352,0,.56.465.293.9.632,1.359.94.241.164.415.224.642-.113a5.592,5.592,0,0,0,.979-4.142,3.7,3.7,0,0,0-1.4-2.3,2.656,2.656,0,0,0-3.085-.172c0-.539.034-1.032-.009-1.518-.047-.531.1-.718.68-.7,1.807.041,3.619,0,5.428.026.626.01.647-.239.351-.636a5.063,5.063,0,0,1-.6-1.084M45.331,17.718a1.52,1.52,0,0,1-2.18-1.362c-.106-.642.424-.979.828-1.38.212-.211.341-.015.429.145.389.723.749,1.465,1.157,2.179.194.339.031.331-.234.418m3.05-1.668c-.391.319-.807.6-1.208.9l-1.538-2.743a4.34,4.34,0,0,1,2.841.761c.361.25.294.763-.1,1.081M58.4,15.9a3.835,3.835,0,0,1-2.615,1.232c-.454,0-.881-.007-1.112-.519a1.211,1.211,0,0,1,.3-1.329c1.008-1.2,2.106-1.625,3.426-.2a.5.5,0,0,1,0,.814" fill="#1576bc"></path>
      <path id="Path_6020" data-name="Path 6020" d="M186.8,8.834c-.822.03-1.645.017-2.468.005-.285-.005-.423.061-.422.384.011,2.468.006,4.936.006,7.252-1.412-2.5-3.5-4.751-5.229-7.259a.809.809,0,0,0-.76-.381c-.8.023-1.6.029-2.4,0-.41-.015-.51.126-.508.517q.02,5.684,0,11.368c0,.357.087.5.469.484q1.233-.04,2.468,0c.392.013.463-.145.461-.491-.012-2.422-.006-4.843-.006-7.2a10.316,10.316,0,0,0,.7,1.275c1.173,1.619,2.388,3.206,3.569,4.819,1.158,1.584,1.148,1.592,3.17,1.592.329,0,.661-.024.987.006.384.034.47-.127.469-.482q-.017-5.685,0-11.369c0-.392-.1-.531-.509-.516" fill="#1576bc"></path>
      <path id="Path_6021" data-name="Path 6021" d="M139.135,8.586a6.453,6.453,0,1,0,6.715,6.8,6.539,6.539,0,0,0-6.715-6.8m.795,9.871a6.688,6.688,0,0,1-.759.058,3.113,3.113,0,0,1-3.22-3.035,4.389,4.389,0,0,1,.483-2.4,2.922,2.922,0,0,1,2.825-1.534,3.2,3.2,0,0,1,2.817,2.284,3.579,3.579,0,0,1-2.146,4.627" fill="#1576bc"></path>
      <path id="Path_6022" data-name="Path 6022" d="M158.744,14.535c1.035-.412,1.6-.926,1.761-1.6.543-2.309-.673-3.66-2.843-3.942a52.681,52.681,0,0,0-6.027-.155c-.328-.006-.447.09-.446.432q.015,5.746,0,11.493c0,.414.192.439.513.437,1.5-.011,3-.021,4.507,0a11.119,11.119,0,0,0,2.543-.3,3.082,3.082,0,0,0,2.45-3.3,2.857,2.857,0,0,0-2.457-3.069M155.775,11.5a3.934,3.934,0,0,1,.557.018c.473.146.912.338.932.951s-.164,1.035-.824,1.145c-.11.018-.217.057-.327.084-1.265.329-1.533.126-1.533-1.155,0-1.224,0-1.221,1.195-1.043m.836,7.012c-.561.048-1.127,0-1.69.017-.295.008-.353-.141-.344-.389.012-.3,0-.606,0-.911v-.069c0-1.217.246-1.415,1.455-1.127a3.457,3.457,0,0,0,.541.11,1.188,1.188,0,0,1,1.248,1.175,1.275,1.275,0,0,1-1.213,1.194" fill="#1576bc"></path>
      <path id="Path_6023" data-name="Path 6023" d="M120.175,9.373c.011-.446-.135-.564-.559-.539-.562.034-1.127.009-1.69.009-1.288,0-1.26,0-1.294,1.266a61.51,61.51,0,0,1-.137,6.91c-.161,1.15-.76,1.536-2.3,1.509A1.592,1.592,0,0,1,112.563,17c-.043-.856-.194-1.7-.17-2.565.046-1.682,0-3.366.023-5.048,0-.421-.093-.576-.543-.556-.82.037-1.645.038-2.465,0-.458-.022-.544.149-.535.561.06,2.772-.1,5.546.143,8.316a4.127,4.127,0,0,0,2.568,3.375,10.518,10.518,0,0,0,5.756.073,3.253,3.253,0,0,0,1.981-1.415,5.812,5.812,0,0,0,.83-2.937c.056-1.213.013-2.43.013-3.646,0-1.262-.02-2.525.011-3.786" fill="#1576bc"></path>
      <path id="Path_6024" data-name="Path 6024" d="M170.17,9.385a.683.683,0,0,0-.794-.552c-1.033.03-2.069.054-3.1-.007-.586-.034-.8.2-.977.707-.819,2.375-1.679,4.737-2.509,7.109-.526,1.5-1.024,3.008-1.548,4.553.643,0,1.206,0,1.769,0,.586-.005,1.3.177,1.719-.089.349-.218.4-.964.508-1.491.092-.444.318-.541.733-.532q1.868.033,3.735,0c.367-.007.522.068.571.471a12.368,12.368,0,0,0,.369,1.243c.064.279.188.4.469.4,1.055,0,2.109,0,3.182,0a1.286,1.286,0,0,0-.025-.247c-1.37-3.854-2.753-7.7-4.1-11.563m-3.961,7.153,1.568-5.1,1.6,5.1Z" fill="#1576bc"></path>
      <path id="Path_6025" data-name="Path 6025" d="M131.147,9.185a7.021,7.021,0,0,0-7.643,1.264,6.936,6.936,0,0,0-.013,9.218c2.082,2.12,5.081,2.232,7.67,1.24a.363.363,0,0,0,.282-.35c0-1.178,0-2.356,0-3.623-2.071,2.086-4.012,1.606-4.993.76a3.66,3.66,0,0,1-.36-4.981,2.837,2.837,0,0,1,1.9-1.038,3.662,3.662,0,0,1,3.3,1.43l.15-.106c0-1.139-.008-2.279.007-3.418,0-.245-.132-.323-.307-.4" fill="#1576bc"></path>
      <path id="Path_6026" data-name="Path 6026" d="M91.531,14.335a3.886,3.886,0,0,0-3.512-3.829,3.742,3.742,0,0,0-4.344,3.878,3.74,3.74,0,0,0,3.88,3.84,3.832,3.832,0,0,0,3.976-3.889" fill="#1576bc"></path>
      <path id="Path_6027" data-name="Path 6027" d="M13.023,23.85a5.79,5.79,0,0,0-2.872-2.163,2.813,2.813,0,0,0-2.836.787,2.765,2.765,0,0,0,.378,3.467c1.511,1.239,2.967,1.2,4.123-.047-.112-.117-.223-.237-.338-.352-.8-.808-.8-.811-1.822-.3a1.7,1.7,0,0,1-.8.172.622.622,0,0,1-.65-.837,1.45,1.45,0,0,1,.924-1.124,2.486,2.486,0,0,1,2.346.4A14.276,14.276,0,0,1,14.1,26.68c.135.152.2.592.53.214.184-.213.685-.328.241-.807-.656-.709-1.239-1.486-1.848-2.237" fill="#1576bc"></path>
      <path id="Path_6028" data-name="Path 6028" d="M50.754,6.118c.269.122.522-.446.815-.666.018-.014.03-.037.05-.048.276-.158.726-.327.507-.68a7.988,7.988,0,0,0-1.112-1.216,3.234,3.234,0,0,0-1.508,1.358.317.317,0,0,0,.072.187,4.856,4.856,0,0,0,1.176,1.065" fill="#1576bc"></path>
    </g>
  </g>
</svg>
