<?xml version="1.0" encoding="UTF-8"?>
<svg xmlns="http://www.w3.org/2000/svg" xmlns:xlink="http://www.w3.org/1999/xlink" id="Group_142" data-name="Group 142" width="84.694" height="36.285" viewBox="0 0 84.694 36.285">
  <defs>
    <clipPath id="clip-path">
      <rect id="Rectangle_90" data-name="Rectangle 90" width="84.694" height="36.285" transform="translate(0 0)" fill="none"></rect>
    </clipPath>
  </defs>
  <g id="Group_141" data-name="Group 141" clip-path="url(#clip-path)">
    <path id="Path_259" data-name="Path 259" d="M.03,2.831l-.03,0V.027l.026,0A.227.227,0,0,1,.074.21q0,1.217,0,2.432a.247.247,0,0,1-.045.189" fill="#ea6449"></path>
    <path id="Path_260" data-name="Path 260" d="M57.8,6.932c-2.39,0-4.779.007-7.169,0a.8.8,0,0,0-.621.256c-1.013,1-2.038,1.986-3.059,2.978q-2.25,2.187-4.5,4.377c-.086.084-.128.08-.212,0q-1.459-1.43-2.925-2.85-2.4-2.336-4.809-4.672a.258.258,0,0,0-.2-.082q-3.7,0-7.412,0c-.125,0-.144.038-.144.151q0,13.521,0,27.041c0,.121.037.158.147.185q3.614.872,7.224,1.751a6.583,6.583,0,0,1,.862.226h.058c.065-.085.04-.184.04-.277q0-8.554,0-17.108a.406.406,0,0,1,.02-.193c.162.163.325.3.477.453.641.628,1.289,1.25,1.934,1.874.614.595,1.23,1.187,1.841,1.785.768.751,1.546,1.492,2.311,2.247.18.178.356.359.551.522.124.105.159.11.276,0,.259-.255.523-.5.783-.757.582-.566,1.167-1.128,1.751-1.693q.978-.946,1.953-1.895c.512-.5,1.029-1,1.541-1.5.3-.294.6-.589.9-.88a.463.463,0,0,1,.194-.142.972.972,0,0,1,.008.183v17.05c0,.062,0,.124,0,.186a.207.207,0,0,0,.04.148H49.7a.319.319,0,0,1,.063-.028l1.375-.334q3.34-.81,6.683-1.617c.108-.026.137-.07.137-.18q0-13.521,0-27.041c0-.132-.037-.153-.158-.153" fill="#21275a"></path>
    <path id="Path_261" data-name="Path 261" d="M84.691,7.12a.492.492,0,0,1,0-.086c.012-.084-.027-.1-.105-.1q-3.9,0-7.8,0a.2.2,0,0,0-.15.061q-.929.894-1.862,1.784l-2.13,2.043c-.048.046-.078.075-.145.011q-1.977-1.9-3.958-3.8a.326.326,0,0,0-.248-.1q-3.835,0-7.671,0c-.156,0-.18.046-.18.188q.006,9.579,0,19.16,0,3.618,0,7.237c0,.088-.011.153.124.12q3.88-.951,7.764-1.889c.125-.03.151-.081.151-.2q0-6.879,0-13.757v-.183l4.086,3.913c1.359-1.3,2.712-2.6,4.085-3.911V29.719l2.3-.56c1.857-.452,3.712-.907,5.57-1.352.143-.035.175-.086.175-.223q0-10.231,0-20.464" fill="#21275a"></path>
    <path id="Path_262" data-name="Path 262" d="M24.114,6.932q-3.879,0-7.757,0c-.127,0-.164.027-.164.16,0,2.2,0,4.394.007,6.592,0,.133-.036.161-.164.161q-3.9-.006-7.8,0c-.124,0-.156-.026-.156-.153.005-2.2,0-4.405.007-6.607,0-.129-.035-.153-.157-.153q-3.886.006-7.771,0c-.043,0-.086,0-.129,0l-.03,0V27.772l.058,0c.037.011.073.022.11.031l2.652.647L7.9,29.689c.18.044.18.042.18-.142q0-3.89,0-7.781c0-.135.039-.159.164-.159q3.894.006,7.786,0c.138,0,.17.033.17.171q-.006,4.872-.008,9.744c0,.154.051.2.186.233q3.87.932,7.738,1.875c.127.031.148.01.148-.114q0-13.219,0-26.44c0-.124-.036-.143-.15-.143" fill="#21275a"></path>
    <path id="Path_263" data-name="Path 263" d="M.03,2.831q0-1.4,0-2.808C.078.019.13.012.182.012q18.446,0,36.892,0a.392.392,0,0,1,.3.124q2.443,2.388,4.893,4.77c.063.062.093.062.157,0Q44.088,3.3,45.758,1.7,46.6.887,47.442.078A.212.212,0,0,1,47.631,0,.419.419,0,0,0,47.7,0H84.494c.2,0,.2,0,.2.2,0,.822,0,1.644,0,2.465,0,.14-.035.17-.172.17q-17.837,0-35.673-.006a.439.439,0,0,0-.336.14q-2.073,2-4.152,3.99-.966.927-1.929,1.859c-.074.073-.11.08-.188,0Q40.486,7.1,38.723,5.39,37.45,4.153,36.175,2.914a.261.261,0,0,0-.2-.08q-1.57,0-3.14,0H.216c-.062,0-.124,0-.186,0" fill="#e52026"></path>
  </g>
</svg>
