<?xml version="1.0" encoding="UTF-8"?>
<svg xmlns="http://www.w3.org/2000/svg" xmlns:xlink="http://www.w3.org/1999/xlink" id="Group_4557" data-name="Group 4557" width="166.041" height="43.542" viewBox="0 0 166.041 43.542">
  <defs>
    <clipPath id="clip-path">
      <rect id="Rectangle_569" data-name="Rectangle 569" width="166.041" height="43.542" transform="translate(0 0)" fill="none"></rect>
    </clipPath>
  </defs>
  <g id="Group_4556" data-name="Group 4556" clip-path="url(#clip-path)">
    <path id="Path_5985" data-name="Path 5985" d="M25.351,0A28.489,28.489,0,0,1,36.26,2.141,25.009,25.009,0,0,1,44.832,7.9a20.486,20.486,0,0,1,5.289,9.359,18.555,18.555,0,0,1,.469,6.2A19.4,19.4,0,0,1,46.729,33.4a23.9,23.9,0,0,1-7.972,6.818,27.151,27.151,0,0,1-6.715,2.545,28.815,28.815,0,0,1-4.608.7,29.143,29.143,0,0,1-4.634-.029,27.994,27.994,0,0,1-9.933-2.729,24.5,24.5,0,0,1-7.69-5.781,20.026,20.026,0,0,1-4.9-9.931,18.448,18.448,0,0,1-.113-5.673A19.762,19.762,0,0,1,4.652,9.24a24.3,24.3,0,0,1,7.919-6.252A28.012,28.012,0,0,1,20.36.424,30.488,30.488,0,0,1,25.351,0" fill="#1f3c72"></path>
    <path id="Path_5986" data-name="Path 5986" d="M73.376,13.608a.575.575,0,0,1-.177.318q-2.1,2.736-4.206,5.468c-.278.362-.265.245-.03.6q2.25,3.429,4.5,6.853c.06.092.113.19.17.286a.518.518,0,0,1-.288.035c-1.66,0-3.322-.006-4.981.008a.465.465,0,0,1-.47-.292q-1.683-3.066-3.378-6.126c-.044-.08-.093-.157-.153-.261a.458.458,0,0,0-.048.326q0,2.987,0,5.972c0,.416.041.373-.36.373q-2.01,0-4.02,0c-.3,0-.3.027-.3-.3q0-8.133,0-16.267c0-.154,0-.272.2-.331,1.436-.42,2.868-.856,4.3-1.285a1.031,1.031,0,0,1,.163-.019v10.12c.147.018.167-.09.212-.154q1.782-2.5,3.55-5.013a.651.651,0,0,1,.612-.325c1.454.016,2.908.007,4.363.007Z" fill="#ea2032"></path>
    <path id="Path_5987" data-name="Path 5987" d="M119.048,8.971a.99.99,0,0,1,.031.388q0,4.719,0,9.439c0,.08,0,.16,0,.24,0,.063-.021.144.071.169a.177.177,0,0,0,.211-.07l.154-.227c1.117-1.675,2.239-3.346,3.347-5.027a.547.547,0,0,1,.526-.28c1.489.01,2.979.005,4.468.005h.295a.643.643,0,0,1-.181.3q-2.124,2.763-4.25,5.522c-.242.314-.2.255-.019.521q2.354,3.42,4.708,6.841c.075.109.144.223.218.338a.488.488,0,0,1-.288.038c-1.661,0-3.322,0-4.983.007a.439.439,0,0,1-.453-.262Q121.2,23.8,119.476,20.7c-.049-.09-.1-.179-.158-.264-.036-.055-.1-.051-.155-.042-.075.013-.079.074-.081.13,0,.091,0,.183,0,.275v5.9c0,.057,0,.115,0,.172,0,.3,0,.3-.3.3q-2.01,0-4.021,0c-.393,0-.372.054-.372-.363V11.947c0-.355,0-.709,0-1.064,0-.3,0-.305.285-.4l3.915-1.367a2.145,2.145,0,0,1,.462-.141" fill="#ea2032"></path>
    <path id="Path_5988" data-name="Path 5988" d="M87.913,19.691a6.559,6.559,0,0,0-3.628-5.507,9.143,9.143,0,0,0-7.866-.346A6.674,6.674,0,0,0,72.847,17a7.166,7.166,0,0,0-.773,4.086,6.336,6.336,0,0,0,3.305,5.186A9.129,9.129,0,0,0,80.111,27.4a9.289,9.289,0,0,0,3.119-.505,6.644,6.644,0,0,0,4.683-7.2m-5.376,2.881a2.856,2.856,0,0,1-5.074.023A4.994,4.994,0,0,1,77,19.629a4.75,4.75,0,0,1,.5-1.7,2.825,2.825,0,0,1,4.031-1.082,2.931,2.931,0,0,1,1,1.151,5.2,5.2,0,0,1,.5,2.356,4.552,4.552,0,0,1-.491,2.216" fill="#ea2032"></path>
    <path id="Path_5989" data-name="Path 5989" d="M112.707,26.9a14.974,14.974,0,0,1-.19-2.632q-.009-2.745,0-5.49a7.168,7.168,0,0,0-.149-1.533,4.6,4.6,0,0,0-2.506-3.292,7.689,7.689,0,0,0-3.173-.779,17.412,17.412,0,0,0-2.573.062,12.413,12.413,0,0,0-3.267.741.332.332,0,0,0-.265.364c.013.926,0,1.852.006,2.779,0,.063-.027.138.065.2.177-.075.364-.157.553-.234a10.087,10.087,0,0,1,4.035-.659,4.63,4.63,0,0,1,1.321.192,1.971,1.971,0,0,1,1.483,2.122,4.564,4.564,0,0,0-1.442-.207,16.647,16.647,0,0,0-3.285.2,7.634,7.634,0,0,0-2.643.91,3.771,3.771,0,0,0-1.745,2.126,4.539,4.539,0,0,0-.057,2.637,3.744,3.744,0,0,0,2.31,2.5,7.084,7.084,0,0,0,3.093.486,5.3,5.3,0,0,0,1.645-.308A4.673,4.673,0,0,0,107.9,25.6c.121-.147.24-.3.386-.475.083.611.17,1.171.233,1.734.033.293-.039.318.329.317,1.2,0,2.4,0,3.608,0a.392.392,0,0,0,.27-.04c-.006-.076-.007-.156-.021-.234m-4.642-5.624a3.37,3.37,0,0,1-1.506,2.711,2.447,2.447,0,0,1-1.476.377,2.323,2.323,0,0,1-1.273-.439,1.416,1.416,0,0,1-.59-1.56,1.308,1.308,0,0,1,.582-.736,3.338,3.338,0,0,1,1.488-.475,25.755,25.755,0,0,1,2.607-.065c.14,0,.178.058.168.187" fill="#ea2032"></path>
    <path id="Path_5990" data-name="Path 5990" d="M94.7,8.99a.647.647,0,0,1,.035.343q0,1.94,0,3.878a1.411,1.411,0,0,1,0,.172c-.025.191.073.229.243.228.882-.006,1.764,0,2.646,0,.08,0,.16,0,.24,0,.1,0,.152.038.149.141,0,.046,0,.092,0,.138q0,1.373,0,2.745c0,.242,0,.247-.24.247q-1.392,0-2.784,0c-.152,0-.26,0-.257.211.024,1.773-.033,3.546.039,5.318a3.2,3.2,0,0,0,.116.674,1.658,1.658,0,0,0,2.052,1.25c.281-.043.558-.119.838-.177.162-.034.251,0,.259.2.013.342.055.683.081,1.025.04.525.071,1.05.116,1.574.013.157-.013.229-.192.227-.529,0-1.045.119-1.57.165a9.68,9.68,0,0,1-3.474-.232,3.613,3.613,0,0,1-2.718-2.8A9.75,9.75,0,0,1,90.051,22c-.01-1.567,0-3.134,0-4.7a1.767,1.767,0,0,1,0-.206c.02-.164-.045-.218-.212-.216-.572.01-1.145,0-1.718,0-.149,0-.3-.008-.446,0s-.194-.056-.193-.2c0-.675,0-1.35,0-2.024,0-.275.01-.55,0-.824-.009-.187.069-.231.24-.229.642.007,1.283,0,1.925,0,.114,0,.229,0,.343,0,.3,0,.305,0,.307-.294,0-.389,0-.778,0-1.167,0-.458,0-.915,0-1.373,0-.126.021-.213.156-.262q2.076-.756,4.151-1.521a.308.308,0,0,1,.1,0" fill="#ea2032"></path>
    <path id="Path_5991" data-name="Path 5991" d="M98.554,33.222a8.622,8.622,0,0,1-.465,1.1q-1.18,2.626-2.367,5.251c-.048.106-.055.252-.212.286a.308.308,0,0,1-.4-.206q-1.368-3.01-2.731-6.025c-.078-.172-.124-.358-.22-.533v.226q0,3.106.01,6.213c0,.069,0,.137,0,.206a.114.114,0,0,1-.133.12c-.228-.008-.5.083-.673-.035s-.061-.385-.061-.586q-.006-3.535,0-7.071a1.392,1.392,0,0,0,0-.171c-.024-.187.063-.238.238-.228a5.08,5.08,0,0,0,.687,0c.195-.017.278.065.353.235.587,1.34,1.189,2.673,1.78,4.011.341.773.705,1.537,1,2.323.045.01.077,0,.091-.034.763-1.874,1.661-3.688,2.485-5.534.126-.282.26-.56.382-.844a.215.215,0,0,1,.23-.155c.229.008.459,0,.688,0,.256,0,.26,0,.261.269q0,1.545,0,3.089V39.46c0,.08,0,.16,0,.24,0,.114-.049.155-.163.167-.714.076-.729.068-.724-.634.012-1.956-.032-3.913.028-5.869.05-.117-.03-.242.016-.332a.3.3,0,0,1-.093.19" fill="#1f3c72"></path>
    <path id="Path_5992" data-name="Path 5992" d="M145.926,35.607a1.786,1.786,0,0,1-.182-.059c.178-.1.324-.165.455-.254a1.918,1.918,0,0,0,.855-1.93,1.71,1.71,0,0,0-1.323-1.461,2.645,2.645,0,0,0-.81-.125c-.687,0-1.374,0-2.061,0-.3,0-.3,0-.3.3,0,.034,0,.068,0,.1v7.273a2.02,2.02,0,0,1,0,.206c-.018.173.069.213.225.21.457-.006.915,0,1.373,0a9.267,9.267,0,0,0,1.268-.05,2.308,2.308,0,0,0,2.03-1.94,1.886,1.886,0,0,0-1.53-2.268m-2.477-2.819c0-.156.066-.195.206-.19.206.007.412,0,.664,0a4.647,4.647,0,0,1,.774.048c.627.128.967.431,1.027.941a1.332,1.332,0,0,1-.749,1.478,1.844,1.844,0,0,1-.731.169c-.332.008-.663.01-.995.021-.151.005-.2-.06-.2-.2q.006-1.133,0-2.265m3.007,5.276a1.337,1.337,0,0,1-1.084.9,8.678,8.678,0,0,1-1.78.074c-.156,0-.141-.115-.141-.218,0-.423,0-.847,0-1.27s0-.846,0-1.269c0-.119.024-.2.166-.195a9.532,9.532,0,0,1,1.779.083,1.364,1.364,0,0,1,1.062,1.9" fill="#1f3c72"></path>
    <path id="Path_5993" data-name="Path 5993" d="M128.039,31.466c.006-.117-.047-.164-.164-.16-.172,0-.343.007-.515,0-.145-.007-.211.043-.2.195s0,.32,0,.48v2.88c-.459-.546-.675-.716-1.112-.821a2.425,2.425,0,0,0-2.9,1.313,3.889,3.889,0,0,0-.11,3.228,2.091,2.091,0,0,0,1.872,1.4,2.176,2.176,0,0,0,2.122-.923c.023-.033.034-.086.131-.085v.391c0,.5,0,.5.512.5.4,0,.367.037.367-.37q0-3.912,0-7.823c0-.069,0-.137,0-.206m-.879,5.368a4.335,4.335,0,0,1-.081,1.094,1.736,1.736,0,0,1-2.118,1.268,1.537,1.537,0,0,1-1.042-.872,2.978,2.978,0,0,1-.249-1.639,2.57,2.57,0,0,1,.447-1.313,1.638,1.638,0,0,1,1.767-.628,1.564,1.564,0,0,1,1.238,1.24,3.929,3.929,0,0,1,.038.85" fill="#1f3c72"></path>
    <path id="Path_5994" data-name="Path 5994" d="M60.9,35.5q1.049-1.2,2.1-2.4c.331-.38.666-.756.989-1.142a.45.45,0,0,1,.41-.185c.26.015.52,0,.82,0a1.21,1.21,0,0,1-.262.344q-1.475,1.629-2.952,3.257a1.156,1.156,0,0,1-.116.126c-.133.106-.1.19,0,.3.471.516.932,1.04,1.4,1.561q.984,1.1,1.967,2.2a.626.626,0,0,1,.191.271,9.072,9.072,0,0,1-1.117.018c-.131,0-.185-.124-.257-.207q-1.086-1.263-2.167-2.529l-1-1.169c-.115.051-.064.142-.065.209q0,1.647,0,3.295c0,.08,0,.16,0,.24,0,.111-.044.173-.162.165-.012,0-.023,0-.035,0-.7.048-.7.048-.7-.661q0-3.517,0-7.036c0-.046,0-.091,0-.137.005-.247.006-.254.24-.252.2,0,.458-.085.6.04s.051.387.052.588c.006.916,0,1.831,0,2.746v.332l.066.017" fill="#1f3c72"></path>
    <path id="Path_5995" data-name="Path 5995" d="M108.281,35a2.169,2.169,0,0,1,1.312-.983,2.558,2.558,0,0,1,1.125-.008,1.583,1.583,0,0,1,1.225,1.127,2.583,2.583,0,0,1,.149.807c.006,1.236.006,2.471.014,3.707,0,.16-.046.223-.215.218-.8-.021-.643.112-.651-.607-.01-.869,0-1.739,0-2.608a3.712,3.712,0,0,0-.081-.886,1.34,1.34,0,0,0-2.172-.791,1.8,1.8,0,0,0-.741,1.513c-.01.926,0,1.853-.008,2.78,0,.189.087.426-.054.557-.125.116-.351.034-.532.037-.293,0-.3,0-.3-.3q0-3.981,0-7.963c0-.289,0-.289.306-.292.578,0,.578,0,.578.571q0,1.391,0,2.781a.64.64,0,0,0,.043.342" fill="#1f3c72"></path>
    <path id="Path_5996" data-name="Path 5996" d="M165.83,34.153c-.212.22-.423.44-.636.659q-.9.921-1.8,1.843c-.211.218-.213.221.008.446q1.226,1.249,2.452,2.5a.6.6,0,0,1,.183.232,4.124,4.124,0,0,1-.662.038.892.892,0,0,1-.854-.366c-.648-.725-1.325-1.423-1.99-2.132-.07-.074-.137-.15-.207-.227-.109.079-.067.178-.067.259,0,.732,0,1.464,0,2.195,0,.262,0,.268-.265.265-.192,0-.43.081-.563-.041s-.051-.367-.052-.557q0-3.789,0-7.579c0-.432-.038-.376.391-.379.493,0,.493,0,.492.483q0,2.264,0,4.527a.93.93,0,0,0,.021.343c.108,0,.146-.1.2-.159.689-.734,1.378-1.468,2.058-2.21a.55.55,0,0,1,.474-.206c.261.015.525,0,.787,0l.027.065" fill="#1f3c72"></path>
    <path id="Path_5997" data-name="Path 5997" d="M83.691,36.7c.133-.124.228-.2.312-.292q1-1.065,1.989-2.136a.485.485,0,0,1,.414-.186c.273.015.548,0,.824,0,.03.129-.071.17-.127.227q-1.145,1.185-2.3,2.364c-.2.2-.208.182.006.4q1.227,1.25,2.456,2.5a.714.714,0,0,1,.2.232,5.688,5.688,0,0,1-1.105.053c-.119-.033-.183-.134-.26-.216q-1.059-1.125-2.115-2.253c-.077-.082-.149-.167-.237-.268a.4.4,0,0,0-.057.287c0,.732,0,1.465,0,2.2,0,.249-.006.251-.241.256-.16,0-.321,0-.481,0-.117,0-.167-.049-.163-.163,0-.069,0-.137,0-.206q0-3.913,0-7.826v-.1c.006-.256.006-.263.268-.259.192,0,.431-.082.564.041s.05.368.051.558c0,1.465,0,2.929,0,4.394v.4" fill="#1f3c72"></path>
    <path id="Path_5998" data-name="Path 5998" d="M105.6,36.152a4.848,4.848,0,0,0-.046-.649,1.644,1.644,0,0,0-1.452-1.511,3.672,3.672,0,0,0-2.109.3c-.257.118-.408.259-.362.563a3.945,3.945,0,0,1,0,.542l.325-.219a2.662,2.662,0,0,1,1.585-.465,1.062,1.062,0,0,1,1.122.98c.017.1.021.2.041.306.033.167-.046.224-.2.238-.193.017-.386.044-.577.077a12.2,12.2,0,0,0-1.486.253,1.7,1.7,0,0,0-1.359,1.939,1.448,1.448,0,0,0,.878,1.293,2.086,2.086,0,0,0,2.582-.624c.039-.056.054-.158.18-.138,0,.092,0,.182,0,.271,0,.561,0,.561.557.556.316,0,.318,0,.319-.319,0-1.131,0-2.263,0-3.394m-.993,2.018a1.565,1.565,0,0,1-1.851,1.029.935.935,0,0,1-.765-.85.957.957,0,0,1,.618-1.064,3.188,3.188,0,0,1,.8-.176c.418-.048.835-.106,1.253-.16a.185.185,0,0,1,.048.015,2.937,2.937,0,0,1-.1,1.206" fill="#1f3c72"></path>
    <path id="Path_5999" data-name="Path 5999" d="M137.934,35.338a1.626,1.626,0,0,0-1.45-1.352,3.78,3.78,0,0,0-2.015.274c-.3.129-.506.291-.431.662a2.4,2.4,0,0,1,0,.436.826.826,0,0,0,.338-.187,2.667,2.667,0,0,1,1.725-.449.974.974,0,0,1,.882.654,2.235,2.235,0,0,1,.131.6c.017.171-.031.247-.214.265-.364.036-.726.091-1.088.147a5.65,5.65,0,0,0-1.2.259,1.733,1.733,0,0,0-1.1,2.01,1.482,1.482,0,0,0,.667,1.034,2.118,2.118,0,0,0,2.7-.419c.065-.085.132-.167.243-.307,0,.156,0,.234,0,.311,0,.6,0,.6.6.589.281-.005.285-.005.285-.28q0-1.8,0-3.6a3.039,3.039,0,0,0-.074-.646m-.9,2.778a1.575,1.575,0,0,1-1.889,1.079.926.926,0,0,1-.744-.87.938.938,0,0,1,.608-1.039,4.314,4.314,0,0,1,1-.21c.35-.052.7-.089,1.094-.138a3.519,3.519,0,0,1-.073,1.178" fill="#1f3c72"></path>
    <path id="Path_6000" data-name="Path 6000" d="M153.113,36.087a4,4,0,0,0-.064-.682,1.65,1.65,0,0,0-1.532-1.428,3.883,3.883,0,0,0-.993.011,3.332,3.332,0,0,0-1.2.4c-.086.049-.186.086-.183.22.006.246,0,.493,0,.751a.719.719,0,0,0,.32-.179,2.68,2.68,0,0,1,1.722-.461.988.988,0,0,1,.909.67,2.459,2.459,0,0,1,.127.6c.019.154-.029.229-.2.247-.352.039-.7.093-1.053.144a5.464,5.464,0,0,0-1.271.27,1.745,1.745,0,0,0-.33,3.1,2.114,2.114,0,0,0,2.659-.539c.048-.066.076-.16.2-.194,0,.115,0,.2,0,.294,0,.559,0,.559.559.555.32,0,.323,0,.323-.314,0-1.155,0-2.309,0-3.464M152.108,38.2a1.561,1.561,0,0,1-1.815,1,.952.952,0,0,1-.795-.869.968.968,0,0,1,.641-1.055,3.632,3.632,0,0,1,.837-.179c.2-.028.407-.06.612-.086s.406-.046.627-.071a2.957,2.957,0,0,1-.107,1.261" fill="#1f3c72"></path>
    <path id="Path_6001" data-name="Path 6001" d="M81.046,36.225a5.061,5.061,0,0,0-.028-.616,1.625,1.625,0,0,0-1.132-1.53,3.385,3.385,0,0,0-2.654.328.22.22,0,0,0-.141.212c.006.237,0,.475,0,.778.156-.107.247-.174.341-.234a2.654,2.654,0,0,1,1.729-.439.97.97,0,0,1,.848.6,2.014,2.014,0,0,1,.145.7c.009.13-.04.19-.168.2q-.29.031-.578.079a12.464,12.464,0,0,0-1.489.248,1.723,1.723,0,0,0-1.371,2.06,1.436,1.436,0,0,0,.666,1.07,2.121,2.121,0,0,0,2.73-.443c.058-.077.09-.183.235-.233,0,.113,0,.211,0,.308,0,.546,0,.546.538.543.326,0,.327,0,.328-.344q0-1.648,0-3.3M79.8,38.637a1.508,1.508,0,0,1-1.587.56.916.916,0,0,1-.767-.847.949.949,0,0,1,.616-1.068,4.664,4.664,0,0,1,1.039-.211c.271-.04.544-.067.816-.1.243-.031.244-.032.25.207,0,.069,0,.137,0,.235a1.813,1.813,0,0,1-.367,1.225" fill="#1f3c72"></path>
    <path id="Path_6002" data-name="Path 6002" d="M71.439,35.841a2.493,2.493,0,0,0-2.629-1.887c-.074,0-.2.007-.325.016a2.611,2.611,0,0,0-2.4,1.933,4.416,4.416,0,0,0-.137,1.493,2.637,2.637,0,0,0,2.528,2.589,2.708,2.708,0,0,0,2.888-1.747,3.475,3.475,0,0,0,.2-1,3.988,3.988,0,0,0-.129-1.393m-.86,2.027a1.718,1.718,0,0,1-1.665,1.381,1.858,1.858,0,0,1-1.906-1.18,3.036,3.036,0,0,1-.187-1.077A3.505,3.505,0,0,1,67,35.917a1.934,1.934,0,0,1,2.792-.97A1.716,1.716,0,0,1,70.559,36a3.48,3.48,0,0,1,.02,1.864" fill="#1f3c72"></path>
    <path id="Path_6003" data-name="Path 6003" d="M117.522,34.987a.5.5,0,0,0,.2-.2,2.132,2.132,0,0,1,2.268-.772,1.573,1.573,0,0,1,1.15.941,2.4,2.4,0,0,1,.237.993c.01,1.235.009,2.469.017,3.7,0,.161-.05.221-.217.216-.8-.022-.64.116-.649-.606-.01-.868,0-1.737,0-2.606a3.683,3.683,0,0,0-.1-.918,1.337,1.337,0,0,0-2.132-.787,1.79,1.79,0,0,0-.768,1.532c-.012.949,0,1.9,0,2.847,0,.091,0,.183,0,.274-.006.256-.006.263-.27.259-.192,0-.431.081-.563-.043s-.049-.367-.05-.557c0-1.59,0-3.179,0-4.767,0-.081,0-.161,0-.241-.006-.115.043-.17.159-.165.023,0,.046,0,.069,0,.2.009.459-.082.6.038s.04.387.056.588c.006.078,0,.157,0,.272" fill="#1f3c72"></path>
    <path id="Path_6004" data-name="Path 6004" d="M155.743,34.986a.467.467,0,0,0,.2-.2,2.134,2.134,0,0,1,2.3-.764,1.549,1.549,0,0,1,1.086.87,2.444,2.444,0,0,1,.265,1.02c.044,1.246.009,2.492.022,3.738,0,.159-.049.223-.217.218-.8-.023-.639.119-.648-.6-.012-.892,0-1.783,0-2.675a3.418,3.418,0,0,0-.1-.849,1.344,1.344,0,0,0-2.186-.752,1.826,1.826,0,0,0-.719,1.524c-.011.949,0,1.9-.005,2.847,0,.507,0,.507-.5.506-.409,0-.378.031-.378-.362V34.462c0-.069,0-.137,0-.206-.006-.114.045-.156.159-.169.7-.081.721-.061.724.629v.27" fill="#1f3c72"></path>
    <path id="Path_6005" data-name="Path 6005" d="M75.708,39.087v.366c0,.378-.035.423-.407.489a2.426,2.426,0,0,1-.854,0,1.271,1.271,0,0,1-1.049-1.2,5.885,5.885,0,0,1-.027-.651c0-.994,0-1.989,0-2.984,0-.263,0-.264-.264-.269-.183,0-.367-.007-.549,0-.154.007-.2-.063-.193-.205.015-.683-.09-.538.527-.552.548-.012.474.067.48-.469,0-.263,0-.526,0-.789a.2.2,0,0,1,.163-.223c.219-.063.434-.135.7-.219,0,.3,0,.565,0,.833,0,.229,0,.458,0,.686,0,.135.056.182.184.181.355,0,.71.007,1.064,0,.183-.006.237.062.233.239-.014.623.057.51-.5.52-.252,0-.5.006-.756,0-.151,0-.229.03-.227.207.008,1.052.006,2.1.01,3.156a1.916,1.916,0,0,0,.029.272.778.778,0,0,0,1.066.728c.11-.025.216-.068.375-.119" fill="#1f3c72"></path>
    <path id="Path_6006" data-name="Path 6006" d="M132.908,34.914c-.14.026-.226-.046-.323-.071a1.193,1.193,0,0,0-1.35.5,2.281,2.281,0,0,0-.382,1.015,6.6,6.6,0,0,0-.052.889q0,1.08,0,2.159c0,.549.071.451-.479.462a1.624,1.624,0,0,0-.171,0c-.189.025-.23-.072-.23-.24q.006-2.656,0-5.312c0-.189.07-.241.243-.228a4.54,4.54,0,0,0,.481,0c.118,0,.161.047.159.162,0,.3,0,.593,0,.919.144-.072.15-.21.207-.308a1.544,1.544,0,0,1,1.475-.876c.035,0,.069,0,.1.008.313.041.32.048.322.354,0,.191,0,.381,0,.568" fill="#1f3c72"></path>
    <path id="Path_6007" data-name="Path 6007" d="M114.752,37q0,1.285,0,2.572c0,.293,0,.293-.306.3-.126,0-.253-.007-.378,0-.154.01-.2-.062-.193-.2s0-.3,0-.446q0-2.4,0-4.8c0-.326,0-.326.3-.329.574-.006.574-.006.574.577V37" fill="#1f3d73"></path>
    <path id="Path_6008" data-name="Path 6008" d="M114.315,32.588a.58.58,0,1,1,.591-.588.6.6,0,0,1-.591.588" fill="#213e73"></path>
    <path id="Path_6009" data-name="Path 6009" d="M98.554,33.222c-.022-.11.05-.191.109-.354a.771.771,0,0,1-.032.5c-.031-.045-.013-.116-.077-.142" fill="#9296b4"></path>
    <path id="Path_6010" data-name="Path 6010" d="M128.439,13.1l-.023.021a.279.279,0,0,1-.024-.053s.017-.02.023-.018c.026.006.033.025.024.05" fill="#9d9fc5"></path>
    <path id="Path_6011" data-name="Path 6011" d="M22.222,31.061A10.755,10.755,0,0,1,19.3,32.828,8.321,8.321,0,0,1,11.248,32a9.377,9.377,0,0,1-2.556-2.653A13.424,13.424,0,0,1,7.1,25.946a7.366,7.366,0,0,1-.21-1.18A24.685,24.685,0,0,1,6.6,20.047a13.12,13.12,0,0,1,.721-3.9,8.078,8.078,0,0,1,4.587-4.83,10.307,10.307,0,0,1,2.589-.77,7.385,7.385,0,0,1,3.514.382,9.378,9.378,0,0,1,3.213,1.932c.376.336.762.658,1.144.986a.327.327,0,0,1,.123.3c.016,1.379-.074,2.755-.1,4.133-.1.227-.247.1-.364.034a12.392,12.392,0,0,0-2.3-.988,12.866,12.866,0,0,0-3.738-.686,8.207,8.207,0,0,0-5.541,1.766,4.7,4.7,0,0,0-.933,5.87,4.91,4.91,0,0,0,4.139,2.252,7.052,7.052,0,0,0,4.956-1.87,21.711,21.711,0,0,0,3.635-4.005c.767-1.023,1.458-2.1,2.158-3.167a23.13,23.13,0,0,1,2.181-2.851c.4-.442.852-.823,1.268-1.244.077-.079.152-.177.287-.157.423-.292.816-.624,1.246-.907A10.855,10.855,0,0,1,34.852,10.5a8.862,8.862,0,0,1,7.909,4.626,14.8,14.8,0,0,1,1.5,4.393c.009.044.012.089.017.133a.561.561,0,0,1-.338.038c-.642,0-1.283-.008-1.924.007a.555.555,0,0,1-.493-.23,6.262,6.262,0,0,0-2-1.647,4.82,4.82,0,0,0-3.8-.2,9.807,9.807,0,0,0-2.877,1.572,27.837,27.837,0,0,0-4.64,4.61,2.747,2.747,0,0,1-.578.794c-1.3,1.613-2.51,3.288-3.8,4.906A12.682,12.682,0,0,1,22.62,30.8a1,1,0,0,1-.4.26" fill="#fff"></path>
    <path id="Path_6012" data-name="Path 6012" d="M28.234,25.006c.767.382,1.527.778,2.321,1.106A16.669,16.669,0,0,0,34.7,27.291a8.207,8.207,0,0,0,3.37-.172,5.217,5.217,0,0,0,3.351-2.788c.042-.081.082-.163.12-.247a.176.176,0,0,1,.193-.106c.879.042,1.758.082,2.655.123a4.092,4.092,0,0,1-.142.989,12.874,12.874,0,0,1-1.925,4.841A7.665,7.665,0,0,1,38.471,33a7.327,7.327,0,0,1-5.14-.155,11.558,11.558,0,0,1-4.41-3.128c-.224-.245-.437-.5-.656-.749-.159-.092-.138-.254-.139-.4q-.01-1.592,0-3.183a.486.486,0,0,1,.109-.383" fill="#fff"></path>
    <path id="Path_6013" data-name="Path 6013" d="M28.234,25.006c0,1.321-.007,2.641.031,3.962-.041.49-.007.981,0,1.472q.021,3.138.051,6.274c0,.17-.007.289-.215.358-1.919.64-3.834,1.293-5.75,1.942-.041.014-.086.02-.136.032a.8.8,0,0,1-.031-.376q.029-3.583.061-7.166a1.686,1.686,0,0,0-.02-.443c.31-.3.629-.6.927-.913A30.778,30.778,0,0,0,25.2,27.58c.873-1.145,1.746-2.291,2.66-3.4a2.384,2.384,0,0,1,.341-.383q.014.608.028,1.213" fill="#ea2032"></path>
    <path id="Path_6014" data-name="Path 6014" d="M28.144,13.241a21.211,21.211,0,0,0-1.9,1.923,24.059,24.059,0,0,0-1.922,2.628c-.583.917-1.2,1.813-1.83,2.695-.046.064-.1.12-.155.18a.364.364,0,0,1-.116-.308c-.011-.567-.012-1.135,0-1.7a.373.373,0,0,1,.1-.282q.029-1.817.056-3.633c0-.3,0-.594,0-.891q.01-1.338.021-2.674c.009-1.326.02-2.652.02-3.978a.318.318,0,0,1,.26-.364c1.719-.551,3.433-1.116,5.149-1.675.075-.024.153-.034.254-.056.041,2.727,0,5.432.072,8.137" fill="#ea2032"></path>
    <path id="Path_6015" data-name="Path 6015" d="M22.314,18.375c.036.593,0,1.186.007,1.779,0,.171.007.342.011.513a10.766,10.766,0,0,1-.92,1.236,17.325,17.325,0,0,1-3.284,3.253,7.276,7.276,0,0,1-3.036,1.371,6.014,6.014,0,0,1-3.438-.329A4.6,4.6,0,0,1,9.145,20.1a4.918,4.918,0,0,1,2.489-2.586,9,9,0,0,1,5.335-.874,15.517,15.517,0,0,1,3.874,1c.508.211.985.48,1.471.735" fill="#1f3c72"></path>
  </g>
</svg>
