<?xml version="1.0" encoding="UTF-8"?>
<svg xmlns="http://www.w3.org/2000/svg" xmlns:xlink="http://www.w3.org/1999/xlink" id="Group_4562" data-name="Group 4562" width="100.792" height="56.393" viewBox="0 0 100.792 56.393">
  <defs>
    <clipPath id="clip-path">
      <rect id="Rectangle_572" data-name="Rectangle 572" width="100.792" height="56.393" transform="translate(0 0)" fill="none"></rect>
    </clipPath>
  </defs>
  <path id="Path_6029" data-name="Path 6029" d="M44.013,48.834v3.225H40.956V48.834h-.841v7.425h.841V52.748h3.057v3.511h.84V48.834Z" fill="#75be43"></path>
  <g id="Group_4561" data-name="Group 4561">
    <g id="Group_4560" data-name="Group 4560" clip-path="url(#clip-path)">
      <path id="Path_6030" data-name="Path 6030" d="M54.125,52.529c0,1.159-.168,3.141-1.713,3.141-1.563,0-1.731-1.982-1.731-3.141s.168-3.108,1.731-3.108c1.545,0,1.713,1.949,1.713,3.108m.924,0c0-1.781-.454-3.813-2.637-3.813s-2.638,2.032-2.638,3.813.471,3.83,2.638,3.83c2.167.017,2.637-2.066,2.637-3.83" fill="#75be43" fill-rule="evenodd"></path>
      <path id="Path_6031" data-name="Path 6031" d="M63.432,49.539V48.85H59.048v.689h1.763v6.719h.84V49.539Z" fill="#75be43" fill-rule="evenodd"></path>
      <path id="Path_6032" data-name="Path 6032" d="M71.462,56.259v-.706H68.622V52.714h2.621v-.688H68.622V49.54h2.755v-.706H67.783v7.425Z" fill="#75be43" fill-rule="evenodd"></path>
      <path id="Path_6033" data-name="Path 6033" d="M79.693,56.259v-.706H77.056V48.834H76.2v7.425Z" fill="#75be43" fill-rule="evenodd"></path>
      <path id="Path_6034" data-name="Path 6034" d="M87.941,54.293c0-1.109-.706-1.562-1.562-2.033l-.689-.369c-.521-.269-1.243-.639-1.243-1.311,0-.789.689-1.125,1.394-1.125a4.391,4.391,0,0,1,1.613.319v-.84a8.108,8.108,0,0,0-1.546-.2c-1.209,0-2.385.52-2.385,1.915,0,1.075.789,1.461,1.6,1.915l.655.369c.638.353,1.226.672,1.226,1.495,0,.908-.806,1.26-1.6,1.26a4.732,4.732,0,0,1-1.8-.386v.857a7.262,7.262,0,0,0,1.7.235c1.394-.017,2.637-.538,2.637-2.1" fill="#75be43" fill-rule="evenodd"></path>
      <path id="Path_6035" data-name="Path 6035" d="M57.653,25.164a5.458,5.458,0,0,0,3.511-1.226,5.643,5.643,0,0,0,1.9-4.754,4.712,4.712,0,0,0-5.409,5.98M49.085,14.951A14.9,14.9,0,0,1,51.37,6.988a5.443,5.443,0,0,0,1.646,1.629,5.619,5.619,0,0,0,5.124.336,4.683,4.683,0,0,0-5.124-4.1,14.935,14.935,0,0,1,23,1.159,6.751,6.751,0,0,0-.639.588,6.251,6.251,0,0,0-1.445,5.51,5.217,5.217,0,0,0,4.183-1.647l.135-.151a15.063,15.063,0,0,1,.722,4.637V15.3a5.125,5.125,0,0,0-1.8-.873A5.264,5.264,0,0,0,71.7,16.244,5.854,5.854,0,0,0,78.55,18.5,15.009,15.009,0,0,1,72.3,27.4a5.227,5.227,0,0,0-.874-1.545,5.645,5.645,0,0,0-4.72-1.982,4.714,4.714,0,0,0,.941,3.947,4.552,4.552,0,0,0,1.478,1.193,14.767,14.767,0,0,1-4.4.874L61.8,29.733a14.971,14.971,0,0,1-10.247-6.551,5.781,5.781,0,0,0,1.881-.622,6.183,6.183,0,0,0,3.158-4.737,5.225,5.225,0,0,0-6.6,2.285,15.566,15.566,0,0,1-.907-5.157M60.038,1.226A5.3,5.3,0,0,0,58.795,4.72a5.6,5.6,0,0,0,2.5,4.469,4.666,4.666,0,0,0,1.68-3.679,4.72,4.72,0,0,0-2.94-4.284" fill="#75be43"></path>
      <path id="Path_6036" data-name="Path 6036" d="M64.2,10.449a3.914,3.914,0,1,1,3.914,3.914A3.907,3.907,0,0,1,64.2,10.449" fill="#f6eb1f"></path>
      <path id="Path_6037" data-name="Path 6037" d="M56.847,13.2A3.159,3.159,0,1,1,60.072,16.3,3.155,3.155,0,0,1,56.847,13.2" fill="#fab52d"></path>
      <path id="Path_6038" data-name="Path 6038" d="M65.767,19.47a2.848,2.848,0,1,1,2.889,2.805,2.86,2.86,0,0,1-2.889-2.805" fill="#f6eb1f"></path>
      <path id="Path_6039" data-name="Path 6039" d="M68.656,36.369H65.447v6.182c0,1.31.32,2.251,1.848,2.251a3.776,3.776,0,0,0,1.159-.168v1.713a8.363,8.363,0,0,1-1.73.168c-2.016,0-3.477-.6-3.477-2.822V36.386H61.181v-1.7h2.066V25.114l2.184-1.361V34.689h3.208v1.68Z" fill="#75be43"></path>
      <rect id="Rectangle_571" data-name="Rectangle 571" width="2.184" height="21.737" transform="translate(0 24.324)" fill="#75be43"></rect>
      <path id="Path_6040" data-name="Path 6040" d="M11.91,37.965H7.492a1.749,1.749,0,0,1,.168-.706,2.228,2.228,0,0,1,2.134-1.327,1.98,1.98,0,0,1,2.116,2.033m2.2,1.461v-.554c0-2.671-1.344-4.637-4.183-4.637-3.326,0-4.72,2.369-4.72,5.493,0,3.814,1.629,6.6,5.728,6.6a13.011,13.011,0,0,0,2.889-.386v-1.73a6.094,6.094,0,0,1-2.183.42c-2.89,0-4.25-2.621-4.25-5.208Z" fill="#75be43" fill-rule="evenodd"></path>
      <path id="Path_6041" data-name="Path 6041" d="M31.716,46.062V38.049c0-2.049-.806-3.813-3.141-3.813A3.55,3.55,0,0,0,25.3,36.688h-.05a2.758,2.758,0,0,0-2.94-2.452,3.371,3.371,0,0,0-3.226,2.57h-.05v-2.3H16.849V46.062h2.184v-4.9c0-1.428.706-4.737,2.637-4.737,1.311,0,1.462.923,1.512,2,.017.453.017.89.017,1.327v6.316h2.184V40.518c0-1.327.873-4.1,2.553-4.1,1.344,0,1.529.856,1.579,2,.034.436.034.89.034,1.327v6.316Z" fill="#75be43" fill-rule="evenodd"></path>
      <path id="Path_6042" data-name="Path 6042" d="M42.232,40.283c0,1.831-.319,4.351-2.671,4.351-2.4,0-2.7-2.5-2.7-4.351,0-1.865.285-4.351,2.7-4.351,2.369,0,2.671,2.52,2.671,4.351m2.436,0c0-3.377-1.377-6.048-5.107-6.048-3.712,0-5.123,2.655-5.123,6.048,0,3.377,1.411,6.048,5.123,6.048,3.7,0,5.107-2.705,5.107-6.048" fill="#75be43" fill-rule="evenodd"></path>
      <path id="Path_6043" data-name="Path 6043" d="M56.41,46.062V38.049c0-2.016-.79-3.813-3.108-3.813a3.84,3.84,0,0,0-3.679,2.755H49.59V34.505h-2.2V46.062h2.2v-4.9c0-1.7.924-4.737,3.057-4.737,1.26,0,1.495.806,1.562,1.9.017.487.017.974.017,1.428v6.316Z" fill="#75be43" fill-rule="evenodd"></path>
      <path id="Path_6044" data-name="Path 6044" d="M76.619,36.621V34.236a3.679,3.679,0,0,0-3.578,2.6H72.99V34.5H70.807V46.062H72.99v-4.9c.017-2.5.84-4.536,3.629-4.536" fill="#75be43" fill-rule="evenodd"></path>
      <path id="Path_6045" data-name="Path 6045" d="M84.766,37.965H80.348a1.749,1.749,0,0,1,.168-.706,2.212,2.212,0,0,1,2.134-1.327,1.98,1.98,0,0,1,2.116,2.033m2.2,1.461v-.554c0-2.671-1.344-4.637-4.183-4.637-3.326,0-4.7,2.369-4.7,5.493,0,3.814,1.629,6.6,5.728,6.6a13.011,13.011,0,0,0,2.889-.386v-1.73a6.166,6.166,0,0,1-2.184.42c-2.889,0-4.25-2.621-4.25-5.208Z" fill="#75be43" fill-rule="evenodd"></path>
      <path id="Path_6046" data-name="Path 6046" d="M95.55,37.965H91.132a1.749,1.749,0,0,1,.168-.706,2.228,2.228,0,0,1,2.134-1.327,1.98,1.98,0,0,1,2.116,2.033m2.2,1.461v-.554c0-2.671-1.344-4.637-4.183-4.637-3.326,0-4.72,2.369-4.72,5.493,0,3.814,1.629,6.6,5.745,6.6a13.011,13.011,0,0,0,2.889-.386v-1.73a6.166,6.166,0,0,1-2.184.42c-2.889,0-4.25-2.621-4.25-5.208Z" fill="#75be43" fill-rule="evenodd"></path>
      <path id="Path_6047" data-name="Path 6047" d="M99.28,33.094a1.319,1.319,0,1,0,1.327,1.293,1.317,1.317,0,0,0-1.327-1.293m0-.185A1.5,1.5,0,1,1,97.8,34.421a1.5,1.5,0,0,1,1.478-1.512" fill="#75be43"></path>
      <path id="Path_6048" data-name="Path 6048" d="M99.7,33.648l.151.1.084.134.017.168-.051.218-.184.152.151.117.05.235v.1l.017.151.05.084v.051h-.352l-.017-.084-.017-.135V34.79l-.05-.2-.2-.051h-.336v.622h-.319V33.6h.756Zm-.689.235v.42h.37l.168-.017.1-.168-.1-.2-.168-.017h-.37Z" fill="#75be43" fill-rule="evenodd"></path>
    </g>
  </g>
</svg>
