<?xml version="1.0" encoding="UTF-8"?>
<svg xmlns="http://www.w3.org/2000/svg" xmlns:xlink="http://www.w3.org/1999/xlink" id="Group_138" data-name="Group 138" width="133.744" height="32" viewBox="0 0 133.744 32">
  <defs>
    <clipPath id="clip-path">
      <rect id="Rectangle_88" data-name="Rectangle 88" width="133.744" height="32" fill="none"></rect>
    </clipPath>
  </defs>
  <g id="Group_137" data-name="Group 137" clip-path="url(#clip-path)">
    <path id="Path_215" data-name="Path 215" d="M14.264,21.233a3.884,3.884,0,0,1-2.074.821A3.415,3.415,0,0,1,9.114,20.91c-.618-.742-.936-1.7-1.54-2.47a4.3,4.3,0,0,0-4.05-1.731,4.32,4.32,0,0,0-2.758,6.7c2.509,3.59,8.152,2.968,11.048.482a14.045,14.045,0,0,0,2.45-2.654" fill="#e31d37"></path>
    <path id="Path_216" data-name="Path 216" d="M119.481,21.233a3.86,3.86,0,0,0,2.075.821,3.41,3.41,0,0,0,3.075-1.143c.618-.743.937-1.7,1.54-2.47a4.213,4.213,0,1,1,6.807,4.965c-2.509,3.589-8.151,2.968-11.046.482a14.023,14.023,0,0,1-2.451-2.655" fill="#e31d37"></path>
    <path id="Path_217" data-name="Path 217" d="M109.141,2.088c-.078,0-7.49,0-7.558,0a1.662,1.662,0,0,0-1.522,1.55,1.665,1.665,0,0,0,1.522,1.678c.078,0,7.49,0,7.558,0a1.661,1.661,0,0,0,1.522-1.55,1.665,1.665,0,0,0-1.522-1.678" fill="#472d7f"></path>
    <path id="Path_218" data-name="Path 218" d="M61.939,18.194a7.542,7.542,0,0,1-.188-1.277c-.005-.614-.005-1.477-.005-2.271.077-2.742.589-7.565-3.13-7.565a5.5,5.5,0,0,0-4.422,2.8c-.06-1.927-1.58-3.325-3.9-3.325a3.174,3.174,0,0,0-2.361,1.18,2.453,2.453,0,0,1,1.445,2.442c.015,1.391,0,8.16,0,8.189a2.414,2.414,0,0,0,4.824,0v-6c.209-.982.761-1.983,1.594-1.983,1.08,0,1.14,1.2,1.145,1.2L56.934,17.4a3.494,3.494,0,0,0,.062.548,2.993,2.993,0,0,0,.277.843,3.761,3.761,0,0,0,3.563,1.934A3.177,3.177,0,0,0,63.2,19.542a2.305,2.305,0,0,1-1.258-1.348" fill="#472d7f"></path>
    <path id="Path_219" data-name="Path 219" d="M97.69,18.194a7.251,7.251,0,0,1-.188-1.277l0-14.384a2.533,2.533,0,1,0-5.066,0l0,12.739a7.3,7.3,0,0,0,.441,3.374,4.08,4.08,0,0,0,3.7,2.074,3.174,3.174,0,0,0,2.363-1.178,2.311,2.311,0,0,1-1.258-1.348" fill="#472d7f"></path>
    <path id="Path_220" data-name="Path 220" d="M41.084,6.955a6.882,6.882,0,1,0,6.884,6.883,6.882,6.882,0,0,0-6.884-6.883M41.135,17.8v0l-.015,0-.014,0v0c-1.3-.024-1.951-1.517-1.951-3.959s.825-3.933,1.951-3.96h.029c1.124.027,1.951,1.522,1.951,3.96s-.651,3.935-1.951,3.959" fill="#472d7f"></path>
    <path id="Path_221" data-name="Path 221" d="M77.42,18.194a7.335,7.335,0,0,1-.188-1.276l0-14.385a2.533,2.533,0,0,0-5.066,0l-.01,6.813a5.093,5.093,0,0,0-4.066-2.281c-5.818,0-6.185,10.359-2.2,12.922a5.568,5.568,0,0,0,4.1.573,3.662,3.662,0,0,0,2.507-2.141c.032.076.067.152.106.228a4.08,4.08,0,0,0,3.7,2.074,3.173,3.173,0,0,0,2.363-1.179,2.311,2.311,0,0,1-1.258-1.348m-7.549-.837v0h-.03v0c-1.3-.019-1.95-1.322-1.95-3.449s.825-3.426,1.95-3.45v0l.016,0,.014,0v0c1.127.024,1.952,1.326,1.952,3.45s-.652,3.43-1.952,3.449" fill="#472d7f"></path>
    <path id="Path_222" data-name="Path 222" d="M90.6,16.461s-.743,1.018-3.625,1.018a3.411,3.411,0,0,1-3.5-2.24c4.2,0,7.724-.281,7.724-3.682s-3.844-4.522-6.123-4.522c-3.763,0-6.512,3-6.512,6.962a6.555,6.555,0,0,0,6.552,6.723C90.349,20.72,90.6,16.461,90.6,16.461Zm-7.4-3.4c.147-1.086.408-2.454,1.384-3.087a1.294,1.294,0,0,1,1.964,1.087,1.949,1.949,0,0,1-1.639,2,7.6,7.6,0,0,1-1.709,0" fill="#472d7f"></path>
    <path id="Path_223" data-name="Path 223" d="M110.866,16.461s-.743,1.018-3.625,1.018a3.411,3.411,0,0,1-3.5-2.24c4.2,0,7.724-.281,7.724-3.682s-3.844-4.522-6.123-4.522c-3.763,0-6.512,3-6.512,6.962a6.555,6.555,0,0,0,6.552,6.723C110.615,20.72,110.866,16.461,110.866,16.461Zm-7.4-3.4c.147-1.086.408-2.454,1.384-3.087a1.294,1.294,0,0,1,1.964,1.087,1.949,1.949,0,0,1-1.639,2,7.6,7.6,0,0,1-1.709,0" fill="#472d7f"></path>
    <path id="Path_224" data-name="Path 224" d="M120.37,16.83h-2.886a29.793,29.793,0,0,0,3.055-2.4c1.854-1.574,5.189-3.844,4.217-6.785l0,.02a2.171,2.171,0,0,0-.717-1.1,1.516,1.516,0,0,1-.888.827,4.808,4.808,0,0,1-.839.136c-.231,0-8.068,0-8.068,0a1.949,1.949,0,0,0-1.962,1.857,1.86,1.86,0,0,0,1.9,1.842l4.572.029c-2.12,1.182-4.65,2.581-5.935,4.718-.734,1.227-1.52,3.118-1.221,4.569a7.774,7.774,0,0,1,5.71-1.348,7.211,7.211,0,0,1,2.225.957c3.8,2.38,6.092-2.276,4.273-4.328a5.058,5.058,0,0,1-3.438,1.01" fill="#472d7f"></path>
    <path id="Path_225" data-name="Path 225" d="M34.574,19.726c-2.334-2.56-3.064-6.816-3.208-9.645-.124-2.444.008-6.677,1.934-7.909a3.833,3.833,0,0,0-2.883-1.137c-2.172,0-3.218,1.446-3.961,2.486-.245.344-3.9,5.381-3.9,5.381S19.488,4.151,19.11,3.58A4.921,4.921,0,0,0,15.9,1.094a3.892,3.892,0,0,0-3.7,1.227c1.8,1.44,1.754,5.106,1.363,7.609-1.172,7.513-4.369,8.2-4.369,8.2,1.638,4.423,5.855,2.676,7.047-.85a29.959,29.959,0,0,0,1.385-7.6l4.628,7.1s5.241-7.078,5.241-7.071c-.863,12.516,3.435,16.065,7.194,16.065a5.526,5.526,0,0,0,5.043-3.441,7.634,7.634,0,0,1-5.152-2.612" fill="#472d7f"></path>
    <path id="Path_226" data-name="Path 226" d="M46.313,23.8a3.159,3.159,0,0,1,.081.546c0,.056,0,6.548,0,6.626a1.084,1.084,0,0,0,2.165,0c0-.074,0-5.921,0-5.921A3.113,3.113,0,0,0,48.37,23.6a1.745,1.745,0,0,0-1.583-.888,1.358,1.358,0,0,0-1.012.5.988.988,0,0,1,.538.577" fill="#472d7f"></path>
    <path id="Path_227" data-name="Path 227" d="M114.956,30.91a3.143,3.143,0,0,1-.081-.547c0-.055,0-6.547,0-6.625a1.085,1.085,0,0,0-2.166,0c0,.075,0,5.922,0,5.922A3.117,3.117,0,0,0,112.9,31.1a1.746,1.746,0,0,0,1.584.887,1.358,1.358,0,0,0,1.011-.5.988.988,0,0,1-.538-.577" fill="#472d7f"></path>
    <path id="Path_228" data-name="Path 228" d="M75.778,26.077A2.462,2.462,0,0,0,73.8,27.333l-.007,0c0-.313,0-.561,0-.573a1.088,1.088,0,0,0-2.165,0c0,.074,0,4.145,0,4.2a1.084,1.084,0,0,0,2.165,0c0-.042,0-1.371,0-2.515l.009-.006c.093-.439.34-.889.714-.889.483,0,.51.539.512.539l0,2.871a1.084,1.084,0,0,0,2.164,0l0-1.5c0-1.542.16-3.394-1.406-3.387" fill="#472d7f"></path>
    <path id="Path_229" data-name="Path 229" d="M103.452,26.077a2.462,2.462,0,0,0-1.981,1.256l-.006,0c0-.313,0-.561,0-.573a1.087,1.087,0,0,0-2.164,0c0,.074,0,4.145,0,4.2a1.084,1.084,0,0,0,2.164,0c0-.042,0-1.371,0-2.515l.009-.006c.093-.439.34-.889.714-.889.483,0,.51.539.512.539l0,2.871a1.084,1.084,0,0,0,2.165,0l0-1.5c0-1.542.162-3.394-1.4-3.387" fill="#472d7f"></path>
    <path id="Path_230" data-name="Path 230" d="M53.8,26.077a2.462,2.462,0,0,0-1.981,1.256l-.006,0c0-.313,0-.561,0-.573a1.087,1.087,0,0,0-2.164,0c0,.074,0,4.145,0,4.2a1.084,1.084,0,0,0,2.164,0c0-.042,0-1.371,0-2.515l.009-.006c.093-.439.34-.889.714-.889.484,0,.51.539.513.539l0,2.871a1.084,1.084,0,0,0,2.165,0l0-1.5c0-1.542.161-3.394-1.406-3.387" fill="#472d7f"></path>
    <path id="Path_231" data-name="Path 231" d="M95.6,25.805a3.083,3.083,0,1,0,3.083,3.083A3.083,3.083,0,0,0,95.6,25.805m.022,4.857h-.013c-.583-.011-.874-.679-.874-1.774s.369-1.762.874-1.774h.013c.5.012.873.682.873,1.774s-.291,1.763-.873,1.774" fill="#472d7f"></path>
    <path id="Path_232" data-name="Path 232" d="M84.089,26.691a1.141,1.141,0,0,0-2.277,0c0,.041-.006.13-.006.146a2.282,2.282,0,0,0-1.823-1.023c-2.606,0-2.77,4.642-.984,5.79a2.5,2.5,0,0,0,1.841.257,1.885,1.885,0,0,0,1.02-.716,1.194,1.194,0,0,0,1.05.826A1.172,1.172,0,0,0,84.089,30.9c0-.078,0-4.159,0-4.212m-3.308,3.736h-.013c-.583-.009-.874-.593-.874-1.546s.368-1.535.874-1.546h.013c.5.011.875.594.875,1.546s-.294,1.537-.875,1.546" fill="#472d7f"></path>
    <path id="Path_233" data-name="Path 233" d="M111.74,26.691a1.14,1.14,0,0,0-2.276,0c0,.041-.007.13-.007.146a2.278,2.278,0,0,0-1.821-1.023c-2.606,0-2.772,4.642-.984,5.79a2.5,2.5,0,0,0,1.839.257,1.889,1.889,0,0,0,1.022-.716,1.193,1.193,0,0,0,1.049.826A1.171,1.171,0,0,0,111.74,30.9c0-.078,0-4.159,0-4.212m-3.307,3.736h-.014c-.582-.009-.873-.593-.873-1.546s.369-1.535.873-1.546h.014c.505.011.874.594.874,1.546s-.292,1.537-.874,1.546" fill="#472d7f"></path>
    <path id="Path_234" data-name="Path 234" d="M91.841,27.271a1.062,1.062,0,0,0-.981-1c-.032,0-.061-.009-.092-.009a1.1,1.1,0,0,0-1.089.944l0,2h0c.007.623,0,1.748,0,1.76a1.063,1.063,0,0,0,.981,1,.739.739,0,0,0,.092.01,1.1,1.1,0,0,0,1.089-.944l0-1.668h0c-.007-.623,0-2.077,0-2.089" fill="#472d7f"></path>
    <path id="Path_235" data-name="Path 235" d="M91.833,24.571A1.073,1.073,0,1,1,90.76,23.5a1.073,1.073,0,0,1,1.073,1.074" fill="#472d7f"></path>
    <path id="Path_236" data-name="Path 236" d="M69.9,26c-.643.026-.961.5-1.4,1.107,0,.005,0-.278,0-.289a1.084,1.084,0,0,0-2.164,0v4.157h0a1.084,1.084,0,0,0,2.163.016h0V28.36c.033-.386.2-.869.512-.866.439,0-.015,1.066.993,1.066,1.445,0,1.6-2.628-.108-2.558" fill="#472d7f"></path>
    <path id="Path_237" data-name="Path 237" d="M65.485,30.061s-.333.456-1.626.456a1.531,1.531,0,0,1-1.571-1.005c1.885,0,3.465-.126,3.465-1.652s-1.724-2.028-2.746-2.028a3.073,3.073,0,0,0,.018,6.139A2.181,2.181,0,0,0,65.485,30.061Zm-3.319-1.528a1.894,1.894,0,0,1,.622-1.385.58.58,0,0,1,.88.488.874.874,0,0,1-.735.9,3.435,3.435,0,0,1-.767,0" fill="#472d7f"></path>
    <path id="Path_238" data-name="Path 238" d="M59.955,30.832a1.849,1.849,0,0,1-3.558-.711c0-.011-.006-1.586-.01-2.9H56.1a.425.425,0,0,1-.421-.486.441.441,0,0,1,.453-.48h.257c0-.46,0-.776,0-.8a1.088,1.088,0,0,1,2.172,0v.8h.917a.486.486,0,0,1-.032.966h-.885v2.418a1.261,1.261,0,0,0,1.4,1.195" fill="#472d7f"></path>
    <path id="Path_239" data-name="Path 239" d="M88.92,30.832a1.849,1.849,0,0,1-3.558-.711c0-.011-.006-1.586-.01-2.9h-.291a.424.424,0,0,1-.42-.486.441.441,0,0,1,.452-.48h.257c0-.46,0-.776,0-.8a1.088,1.088,0,0,1,2.172,0v.8h.917a.486.486,0,0,1-.032.966h-.885v2.418a1.261,1.261,0,0,0,1.4,1.195" fill="#472d7f"></path>
  </g>
</svg>
