<?xml version="1.0" encoding="UTF-8"?>
<svg xmlns="http://www.w3.org/2000/svg" xmlns:xlink="http://www.w3.org/1999/xlink" id="Group_140" data-name="Group 140" width="162.73" height="43.542" viewBox="0 0 162.73 43.542">
  <defs>
    <clipPath id="clip-path">
      <rect id="Rectangle_89" data-name="Rectangle 89" width="162.73" height="43.542" transform="translate(0 0)" fill="none"></rect>
    </clipPath>
  </defs>
  <g id="Group_139" data-name="Group 139" clip-path="url(#clip-path)">
    <path id="Path_240" data-name="Path 240" d="M43.528,23.123a5.538,5.538,0,0,0,.241-1.079c.011-.016.029-.031.032-.049a21.356,21.356,0,0,0,.254-6.323,11.614,11.614,0,0,0-.4-2.194h0a2.876,2.876,0,0,0-.254-.958h0a.62.62,0,0,0-.108-.368h0a6.736,6.736,0,0,0-.55-1.507v0a5.2,5.2,0,0,0-.674-1.38c-.091-.059,0-.191-.1-.246a1.02,1.02,0,0,0-.2-.351c-.052-.1-.1-.193-.157-.287a11.769,11.769,0,0,0-1.154-1.648,6.473,6.473,0,0,0-.917-1.086A5.856,5.856,0,0,0,38.57,4.7a1.24,1.24,0,0,0-.41-.379.7.7,0,0,0-.279-.233.862.862,0,0,0-.271-.228,13.849,13.849,0,0,0-2.636-1.695,1.252,1.252,0,0,0-.492-.255,3.906,3.906,0,0,0-.767-.35,6.806,6.806,0,0,0-1.279-.49.728.728,0,0,0-.362-.127A.906.906,0,0,0,31.66.836,5.681,5.681,0,0,0,30.219.47a.256.256,0,0,0-.21-.053c-.087-.076-.194-.047-.294-.055C29.662.3,29.589.313,29.521.3L27.838.07l.01-.07H24.171c-.141.139-.328.1-.5.12a17.9,17.9,0,0,0-2.523.4c-.091,0-.182,0-.273,0a1.019,1.019,0,0,0-.568.139A.316.316,0,0,1,20.2.729a.929.929,0,0,0-.164.038,1.2,1.2,0,0,0-.148.025.152.152,0,0,0-.071.054h0a.666.666,0,0,0-.228.039h-.145a4.1,4.1,0,0,0-.955.261,9.615,9.615,0,0,0-1.812.718.525.525,0,0,1-.03.063,1.337,1.337,0,0,0-.473.212.162.162,0,0,0-.033.02.4.4,0,0,0-.23.08.139.139,0,0,0-.033.01.2.2,0,0,0-.06.048,2.9,2.9,0,0,0-.574.256q-.07.014-.141.024a10.2,10.2,0,0,0-2.231,1.236.559.559,0,0,1-.069.088.934.934,0,0,0-.2.12.465.465,0,0,1-.1.013.234.234,0,0,0-.188.183v.01a.865.865,0,0,0-.3.192.217.217,0,0,0-.044.036,1.3,1.3,0,0,0-.392.272.191.191,0,0,0-.141.071.349.349,0,0,1-.033.049,1.17,1.17,0,0,0-.385.271L11,5.131a.143.143,0,0,0-.036.045.873.873,0,0,0-.264.166.657.657,0,0,0-.1.031.224.224,0,0,0-.13.151l.006.015a.144.144,0,0,0-.123.077.2.2,0,0,0-.035.011.224.224,0,0,0-.061.054l-.024.032a3.771,3.771,0,0,0-.592.486c-.069.045-.15.079-.186.163a.789.789,0,0,0-.278.228.225.225,0,0,0-.041.034l0,.013-.345.3-.077.007a.21.21,0,0,0-.129.169v0a.641.641,0,0,0-.2.2.167.167,0,0,0-.055.039l0,.01a4.087,4.087,0,0,0-.661.647.257.257,0,0,0-.148.161l0,0a.129.129,0,0,0-.112.1.1.1,0,0,1-.057,0c-.227.1-.313.324-.446.506-.007.02-.016.038-.024.056a2.326,2.326,0,0,0-.438.48c-.025.013-.051.027-.078.039a3.738,3.738,0,0,0-.822.967.289.289,0,0,1-.018.073.9.9,0,0,0-.146.207A15.445,15.445,0,0,0,4.1,12.4a.857.857,0,0,0-.188.3.261.261,0,0,0-.118.182,2.783,2.783,0,0,0-.336.555.224.224,0,0,0-.039.008,2.092,2.092,0,0,0-.458.737.305.305,0,0,1-.129.242.432.432,0,0,0-.093.116,21.962,21.962,0,0,0-1.2,2.637.41.41,0,0,0-.027.2c0,.026.008.052.01.078a4.94,4.94,0,0,0-.312.887l-.046.063a.421.421,0,0,0-.03.084c-.025.094-.049.189-.073.284a8.4,8.4,0,0,0-.339,1.27,4.429,4.429,0,0,0-.242,1.04c-.012.028-.025.055-.037.083a.43.43,0,0,0-.01.087v.006a1.357,1.357,0,0,0-.068.317q-.15,1.041-.3,2.083l-.068,0v3.672l.111.236A15.778,15.778,0,0,0,.6,30.224,9.144,9.144,0,0,0,1.2,32.16a1.651,1.651,0,0,0,.228.593,1.428,1.428,0,0,0,.244.545h0a1.294,1.294,0,0,0,.255.535,2.084,2.084,0,0,0,.311.6,1.421,1.421,0,0,0,.28.493h0a3.429,3.429,0,0,0,.547.86,1.717,1.717,0,0,0,.312.456,2.917,2.917,0,0,0,.472.611,6.622,6.622,0,0,0,.941,1.079,1.691,1.691,0,0,0,.452.479l.528.482a.673.673,0,0,0,.259.232l.17.128a2.728,2.728,0,0,0,.6.485h0A1.034,1.034,0,0,0,7.165,40a2.832,2.832,0,0,0,.661.456,2.093,2.093,0,0,0,.61.374,8.066,8.066,0,0,0,1.326.73,9.889,9.889,0,0,0,1.733.706.622.622,0,0,0,.376.127,4.59,4.59,0,0,0,1.185.356.811.811,0,0,0,.442.12l0,0a14.321,14.321,0,0,0,3.189.48c.039.007.078.012.117.017a10.421,10.421,0,0,0,1.617.076c.8-.014,1.6-.083,2.4-.161a8.935,8.935,0,0,0,1.74-.291,7.838,7.838,0,0,0,1.61-.356,2.645,2.645,0,0,0,.858-.248,15.486,15.486,0,0,0,2.694-.97,1.148,1.148,0,0,0,.511-.233h0a4.716,4.716,0,0,0,1-.471,4.129,4.129,0,0,0,.917-.491,18.555,18.555,0,0,0,2.7-1.688.954.954,0,0,0,.433-.361.071.071,0,0,0,.045-.01.541.541,0,0,0,.319-.219.209.209,0,0,0,.178-.13,5.856,5.856,0,0,0,.892-.733c.08,0,.148-.05.143-.121s-.09-.051-.146-.051-.141.006-.211.006q-9.489,0-18.978,0c-.351,0-.7-.018-1.052-.027l-.116-.045a.887.887,0,0,1-.364-.761A.369.369,0,0,0,14.031,36c.243-1.3.494-2.607.722-3.914a18.806,18.806,0,0,0,.327-1.917,1.42,1.42,0,0,0,.112-.541,3.016,3.016,0,0,0,.151-.721c.106-.644.289-1.276.334-1.931a21.118,21.118,0,0,0,.424-2.2,8.247,8.247,0,0,0,.245-1.349h0a.423.423,0,0,0,.053-.291,15.931,15.931,0,0,0,.365-1.935,1.605,1.605,0,0,0,.11-.6c.091-.436.193-.87.269-1.309.112-.646.274-1.283.339-1.937a.284.284,0,0,0,.031-.133c.212-.912.363-1.836.522-2.758a2.164,2.164,0,0,0,.113-.653c.166-.721.314-1.445.411-2.179.27-1.3.518-2.607.73-3.919a.091.091,0,0,0,.024-.07c.011-.032.021-.064.029-.1a6.39,6.39,0,0,1,.437-1.747h0a2.84,2.84,0,0,1,.6-.364l5.481-.006c.974,0,1.948,0,2.922,0a.809.809,0,0,1,.807.912c-.147.805-.315,1.606-.452,2.412a18.458,18.458,0,0,0-.319,1.854.029.029,0,0,0-.007.043,9.211,9.211,0,0,0-.264,1.283c-.108.638-.28,1.265-.339,1.912a.571.571,0,0,0-.063.369h0a3.418,3.418,0,0,0-.168.849.046.046,0,0,0-.008.049,18.366,18.366,0,0,0-.352,1.875,12.748,12.748,0,0,0-.254,1.37.265.265,0,0,0-.042.077q-.543,2.911-1.082,5.825c-.144.784-.278,1.571-.417,2.357-.18.793-.331,1.591-.446,2.4a13.111,13.111,0,0,0-.266,1.331h0c-.07.369-.142.737-.208,1.106-.01.056-.062.143.056.162a.688.688,0,0,0,.117.022q7.191,0,14.382,0c.093,0,.2.038.274-.069a2.683,2.683,0,0,0,.475-.733l.059-.11a.3.3,0,0,0,.178-.252,7.258,7.258,0,0,0,.672-1.132,3.335,3.335,0,0,0,.416-.793,2.774,2.774,0,0,0,.312-.629,1.679,1.679,0,0,0,.251-.561h0a3.159,3.159,0,0,0,.36-.846h0a10.775,10.775,0,0,0,.722-2.032.09.09,0,0,0,.012-.032,6.951,6.951,0,0,0,.352-1.309h0M.3,23.84l-.011,0,.013,0,0,.008m.3-2.048h0v0l0,0M8.741,7.345v0l0,0,0,0M6.516,39.394l0,.015L6.479,39.4l.037,0M13.321,4.215h0M27.485,18.91l0-.007h0l0,.007M21.215.848l.007,0h.006L21.21.857l.005-.009M28.933.422h0v0h0m2.153.335a.432.432,0,0,0-.045-.048l.066-.034a.2.2,0,0,1-.021.082M21.7.537V.556l-.034-.01L21.7.537M18.135,13.273l-.009.032c-.011-.034,0-.038.009-.032M17.119,18.3l.005,0-.006,0V18.3h0l0,0v0Zm-1.567,8.367h0v0m-.6,3.193,0,0,0,0v-.005m3.585-18.2a.049.049,0,0,1,.023-.036l-.023.036m.125-.844c.007-.03.014-.061.02-.091v.005a.134.134,0,0,1-.021.086M42.01,9.466l0-.008,0-.005h0l-.006.012m1.521,13.657a.309.309,0,0,0-.13.1.146.146,0,0,1,.13-.1" fill="#cf2028"></path>
    <path id="Path_241" data-name="Path 241" d="M13.321,4.214Z" fill="#cf2028"></path>
    <path id="Path_242" data-name="Path 242" d="M133.5,27.069c-.669-1.217-1.332-2.436-2.01-3.648-.121-.216-.094-.283.152-.323.314-.051.623-.142.932-.223a5.274,5.274,0,0,0,4.107-3.9,5.6,5.6,0,0,0,.055-3.283,4.527,4.527,0,0,0-2.907-2.748,13.909,13.909,0,0,0-4.8-.832q-2.482-.063-4.969.029c-.891.034-1.785.038-2.673.131a.645.645,0,0,0-.672.561c-.109.466-.193.937-.28,1.408-.331,1.8-.656,3.593-.99,5.389-.309,1.658-.63,3.316-.94,4.975-.4,2.129-.791,4.259-1.189,6.389a.468.468,0,0,0,.508.624q2.412.006,4.822,0a.7.7,0,0,0,.735-.61q.639-3.477,1.275-6.953a.231.231,0,0,1,.283-.223,5.814,5.814,0,0,0,.723,0,.52.52,0,0,1,.56.345c1.092,2.268,2.2,4.528,3.293,6.8a1.011,1.011,0,0,0,1.013.644c.773-.012,1.547,0,2.32,0v0c.824,0,1.647,0,2.471,0,.427,0,.551-.235.345-.611q-1.083-1.968-2.165-3.939m-3.3-6.782a4.561,4.561,0,0,1-2.488,1.243,8.75,8.75,0,0,1-2.391.172c-.19-.015-.2-.071-.168-.238q.606-3.239,1.192-6.479c.034-.186.1-.25.293-.239.28.016.562,0,.843,0a5.5,5.5,0,0,1,2.352.371,2.239,2.239,0,0,1,1.453,2.2,4,4,0,0,1-1.086,2.962" fill="#242122"></path>
    <path id="Path_243" data-name="Path 243" d="M91.952,12.173q-7.218,0-14.436,0a.734.734,0,0,0-.784.6c-.047.173-.083.349-.115.525q-.5,2.727-1,5.453-.343,1.857-.691,3.712-.471,2.532-.94,5.064c-.211,1.139-.429,2.277-.625,3.418-.094.544.038.672.6.672H88.608a.67.67,0,0,0,.716-.509c.131-.686.257-1.374.368-2.064.088-.546-.048-.693-.594-.693-2.933,0-5.867,0-8.8.006-.246,0-.289-.077-.248-.293.295-1.529.59-3.059.871-4.59.043-.232.126-.308.368-.307,2.491.01,4.982.006,7.474.006a.675.675,0,0,0,.775-.653q.167-.884.333-1.768c.093-.492-.045-.663-.549-.664q-3.736,0-7.474,0c-.214,0-.3-.019-.253-.275q.4-2.073.755-4.153c.047-.272.17-.316.416-.316q4.339.012,8.679,0a.687.687,0,0,0,.782-.68q.147-.857.327-1.7c.125-.589-.017-.8-.6-.8" fill="#242122"></path>
    <path id="Path_244" data-name="Path 244" d="M112.966,27.672q-1.088-4.154-2.174-8.306-.869-3.315-1.741-6.628a.673.673,0,0,0-.681-.562c-1.195-.006-2.391,0-3.586.007a.78.78,0,0,0-.708.379c-.142.229-.3.45-.438.68q-3.087,5.06-6.174,10.122-2.32,3.805-4.647,7.607a.443.443,0,0,0-.076.473c.1.183.27.179.444.179q1.551,0,3.1,0a.956.956,0,0,0,.891-.5C98,29.748,98.823,28.378,99.643,27c.074-.125.134-.221.313-.221q3.39.01,6.781,0a.214.214,0,0,1,.246.2q.474,1.992.957,3.983a.734.734,0,0,0,.846.659h2.261v0h2.26c.5,0,.645-.188.516-.68-.284-1.09-.572-2.179-.857-3.269m-7.015-3.412c-1.485-.018-2.969-.011-4.453-.008-.19,0-.265-.009-.139-.222,1.135-1.926,2.26-3.857,3.438-5.871.142.572.265,1.061.384,1.552.341,1.4.677,2.807,1.024,4.209.063.249.052.344-.254.34" fill="#242122"></path>
    <path id="Path_245" data-name="Path 245" d="M69.508,28.367l-8.257,0c-.505,0-.505,0-.412-.5q.666-3.549,1.331-7.1c.279-1.492.552-2.986.833-4.477.211-1.119.434-2.235.644-3.354.1-.537-.082-.758-.626-.76q-2.426-.008-4.851,0a.649.649,0,0,0-.661.509q-.307,1.587-.6,3.177c-.257,1.383-.5,2.768-.763,4.151-.285,1.521-.58,3.041-.865,4.562-.394,2.1-.781,4.2-1.176,6.3-.1.551.045.746.608.746H68.9a.674.674,0,0,0,.748-.55c.142-.695.273-1.391.388-2.09.073-.446-.086-.614-.533-.614" fill="#242122"></path>
    <path id="Path_246" data-name="Path 246" d="M162.289,36.907c-.237-.008-.328.065-.37.3-.259,1.445-.533,2.887-.8,4.329-.012.067.011.159-.073.181s-.105-.075-.139-.129c-.849-1.358-1.717-2.7-2.532-4.082-.26-.44-.528-.68-1.055-.6-.179.028-.264.063-.3.248q-.513,2.858-1.041,5.713c-.1.517-.1.512.429.512.154,0,.272-.01.3-.2q.21-1.194.432-2.386c.156-.843.317-1.685.475-2.527.125.019.143.106.184.172.943,1.521,1.9,3.034,2.819,4.568a.655.655,0,0,0,.72.372c.144-.015.22-.05.246-.191q.243-1.311.49-2.622c.2-1.061.386-2.124.6-3.183.1-.478.115-.461-.387-.478" fill="#242122"></path>
    <path id="Path_247" data-name="Path 247" d="M67,36.78a3.658,3.658,0,0,0-1.01.111A4.107,4.107,0,0,0,63.009,41.3a2.3,2.3,0,0,0,1.62,2.044,3.523,3.523,0,0,0,3.577-.771,4.012,4.012,0,0,0,1.432-2.779,2.95,2.95,0,0,0-.374-1.869A2.422,2.422,0,0,0,67,36.78m1.6,2.58a3.761,3.761,0,0,1-1.265,2.989,2.186,2.186,0,0,1-1.87.524,1.662,1.662,0,0,1-1.372-1.4,4.114,4.114,0,0,1,.64-2.948,2.607,2.607,0,0,1,1.509-1.128A1.769,1.769,0,0,1,68.6,39.119c0,.081,0,.161,0,.241" fill="#242122"></path>
    <path id="Path_248" data-name="Path 248" d="M99.75,36.874a3.754,3.754,0,0,0-1.785,0,4.08,4.08,0,0,0-3.047,3.969,2.84,2.84,0,0,0,.107.917,2.641,2.641,0,0,0,3.143,1.731,4.084,4.084,0,0,0,3.4-4.321,2.4,2.4,0,0,0-1.818-2.3m-.4,5.4a2.191,2.191,0,0,1-2.108.576,1.643,1.643,0,0,1-1.253-1.585,3.821,3.821,0,0,1,1.325-3.438,2.17,2.17,0,0,1,1.318-.508,1.734,1.734,0,0,1,1.893,1.743,3.828,3.828,0,0,1-1.175,3.212" fill="#242122"></path>
    <path id="Path_249" data-name="Path 249" d="M149.454,36.984a3.608,3.608,0,0,0-3.79.8,4.046,4.046,0,0,0-1.354,3.391,2.49,2.49,0,0,0,2.716,2.334,2.892,2.892,0,0,0,.51,0,4.115,4.115,0,0,0,3.385-4.661,2.217,2.217,0,0,0-1.467-1.861m.464,2.384a3.855,3.855,0,0,1-1.251,2.972,2.122,2.122,0,0,1-2.627.21,1.943,1.943,0,0,1-.692-1.687,4.274,4.274,0,0,1,.753-2.425,2.545,2.545,0,0,1,1.7-1.1,1.745,1.745,0,0,1,2.119,1.754c0,.091,0,.181,0,.271" fill="#242122"></path>
    <path id="Path_250" data-name="Path 250" d="M79.009,36.966a6.474,6.474,0,0,0-1.477-.1c-.351-.02-.771.028-1.192.041-.2.006-.295.09-.331.3-.147.854-.314,1.706-.474,2.559-.182.971-.372,1.942-.544,2.915-.128.722-.118.718.612.7.192,0,.261-.077.292-.257q.2-1.134.422-2.265c.025-.123-.013-.32.16-.344a.565.565,0,0,1,.538.113,1.07,1.07,0,0,1,.166.247c.312.6.675,1.186.924,1.813a.955.955,0,0,0,1.169.7c.328-.049.34-.022.186-.3q-.633-1.175-1.267-2.347c-.168-.311-.165-.306.168-.4a2.422,2.422,0,0,0,1.574-1.065,1.469,1.469,0,0,0-.926-2.3m.039,1.828a1.646,1.646,0,0,1-1.641,1.24c-.111.005-.221,0-.332,0-.619,0-.612,0-.492-.6s.223-1.2.327-1.8c.026-.149.056-.291.243-.275a5.894,5.894,0,0,1,1.195.082c.76.226.839.638.7,1.348" fill="#242122"></path>
    <path id="Path_251" data-name="Path 251" d="M110.193,36.9a16.01,16.01,0,0,0-2.255,0c-.2.009-.273.082-.309.279-.335,1.827-.684,3.652-1.025,5.478-.162.872-.254.687.634.716.148.005.222-.044.25-.215.13-.777.282-1.551.424-2.326a.4.4,0,0,1,.676-.236,1.257,1.257,0,0,1,.279.423,15.568,15.568,0,0,1,.866,1.709.919.919,0,0,0,1.138.65c.331-.038.338-.013.181-.308-.47-.878-.942-1.755-1.424-2.654a4.091,4.091,0,0,0,1.34-.541A1.862,1.862,0,0,0,111.745,38a1.549,1.549,0,0,0-1.552-1.1m.525,1.579a1.609,1.609,0,0,1-1.332,1.494,2.876,2.876,0,0,1-.7.063c-.637,0-.628,0-.51-.6s.219-1.216.329-1.823c.019-.106.026-.239.176-.238a3.947,3.947,0,0,1,1.423.119.893.893,0,0,1,.613.981" fill="#242122"></path>
    <path id="Path_252" data-name="Path 252" d="M121.885,42.474q-.666-2.685-1.33-5.37a.229.229,0,0,0-.133-.184.668.668,0,0,0-.749.259q-1.191,1.926-2.382,3.852c-.432.7-.866,1.393-1.291,2.1-.038.064-.185.158-.025.243a.824.824,0,0,0,.857-.263c.356-.591.716-1.181,1.071-1.773a.334.334,0,0,1,.333-.193c.672.014,1.345.016,2.017,0,.205,0,.272.07.31.256.1.489.217.975.331,1.461.122.516.125.516.647.518a2.61,2.61,0,0,1,.331,0c.209.026.238-.068.188-.24-.063-.221-.12-.444-.175-.666m-2.219-1.843h-1.112c-.092,0-.215.007-.132-.136.444-.763.9-1.522,1.347-2.282l.076.011q.175.816.35,1.63c.006.029.006.059.013.089.151.688.151.688-.542.688" fill="#242122"></path>
    <path id="Path_253" data-name="Path 253" d="M89.393,36.906a20.418,20.418,0,0,0-2.373.009.307.307,0,0,0-.338.3q-.487,2.71-.98,5.42c-.144.8-.142.8.643.744.136-.009.21-.036.236-.195.107-.639.237-1.275.349-1.913s.106-.637.727-.632a4.29,4.29,0,0,0,2.273-.55,2.077,2.077,0,0,0,1.021-1.516c.129-.889-.523-1.565-1.558-1.665m.346,2.214a1.772,1.772,0,0,1-1.573.976c-.129.016-.26.015-.39.023-.625.006-.62.006-.5-.6.122-.635.237-1.272.349-1.91.023-.133.055-.229.215-.226a7.486,7.486,0,0,1,1.079.038c1,.172,1.178.889.823,1.7" fill="#242122"></path>
    <path id="Path_254" data-name="Path 254" d="M57.448,37.081a3.653,3.653,0,0,0-3.7.416,4,4,0,0,0-1.66,2.945,2.8,2.8,0,0,0,.491,2.113,2.724,2.724,0,0,0,2.269.981,3.486,3.486,0,0,0,2.215-.758c.113-.094.28-.225.135-.4-.123-.153-.28-.053-.408.016a4.408,4.408,0,0,1-1.172.444A1.937,1.937,0,0,1,53.4,41.758a2.864,2.864,0,0,1-.169-1.851,3.077,3.077,0,0,1,1.842-2.424,1.565,1.565,0,0,1,2.141.727.455.455,0,0,0,.686.2.5.5,0,0,0,.22-.714,1.305,1.305,0,0,0-.674-.617" fill="#242122"></path>
    <path id="Path_255" data-name="Path 255" d="M131.794,36.918c-.713-.005-1.426,0-2.139,0v0h-.663c-.542,0-1.084,0-1.626,0-.312,0-.274.254-.295.431-.026.209.164.154.282.155.472.005.944.015,1.415,0,.226-.009.25.088.217.262-.311,1.647-.614,3.3-.935,4.942-.133.676-.15.673.526.676a1.07,1.07,0,0,1,.15,0c.154.021.219-.06.244-.2q.222-1.206.445-2.413c.185-1.011.373-2.022.554-3.034.034-.191.121-.246.318-.239.491.019.984-.005,1.475.011.321.011.279-.224.31-.406.041-.246-.155-.184-.278-.185" fill="#242122"></path>
    <path id="Path_256" data-name="Path 256" d="M138.122,36.913c-.253-.009-.349.061-.393.312-.334,1.875-.683,3.748-1.028,5.621-.1.528-.1.528.395.531.222-.024.513.118.571-.278.062-.434.157-.864.235-1.295.258-1.4.51-2.807.776-4.208.127-.674.138-.659-.556-.683" fill="#242122"></path>
    <path id="Path_257" data-name="Path 257" d="M139.793,28.158a1.787,1.787,0,0,0-1.817,1.762,1.8,1.8,0,0,0,3.6.023,1.768,1.768,0,0,0-1.786-1.785m-.03,3.329a1.563,1.563,0,0,1-1.541-1.556,1.562,1.562,0,0,1,3.123.006,1.58,1.58,0,0,1-1.582,1.55" fill="#242122"></path>
    <path id="Path_258" data-name="Path 258" d="M140.563,29.347a.469.469,0,0,0-.505-.38c-.27-.012-.542-.006-.812-.017-.137-.006-.2.031-.194.182q.012.8,0,1.594c0,.137.052.167.175.17s.15-.065.144-.168c0-.04,0-.08,0-.12,0-.511.127-.6.611-.446.264.086.266.323.282.542.008.106-.005.19.152.19s.145-.072.151-.184a.736.736,0,0,0-.37-.74c.4-.1.414-.359.367-.623m-.923.558c-.347.025-.266-.193-.275-.431-.029-.169-.017-.321.292-.3.448.03.61.1.61.354s-.185.344-.627.377" fill="#242122"></path>
  </g>
</svg>
