<?xml version="1.0" encoding="UTF-8"?>
<svg xmlns="http://www.w3.org/2000/svg" xmlns:xlink="http://www.w3.org/1999/xlink" id="Group_4555" data-name="Group 4555" width="122.137" height="29.028" viewBox="0 0 122.137 29.028">
  <defs>
    <clipPath id="clip-path">
      <rect id="Rectangle_568" data-name="Rectangle 568" width="122.137" height="29.028" transform="translate(0 0)" fill="none"></rect>
    </clipPath>
  </defs>
  <g id="Group_4554" data-name="Group 4554" clip-path="url(#clip-path)">
    <path id="Path_5975" data-name="Path 5975" d="M16.91,0c1.724,2.962,3.463,5.915,5.169,8.889-2.757,4.863-5.474,9.749-8.324,14.559-1.093,1.846-2.157,3.71-3.238,5.562-3.506.021-7.012.02-10.517.015.107-.24.212-.481.342-.71Q8.622,14.155,16.91,0" fill="#ad295d"></path>
    <path id="Path_5976" data-name="Path 5976" d="M93.195,7.281Q96.1,12.7,99.006,18.12c-.683.013-1.366-.021-2.048,0-.458-.8-.854-1.626-1.3-2.427-1.722-.051-3.445-.016-5.168-.02-.416.825-.868,1.629-1.309,2.438-.673-.006-1.346.014-2.018.008,1.983-3.629,3.973-7.255,6.034-10.84M91.35,14.13c1.174.016,2.35.014,3.526.024-.589-1.1-1.119-2.221-1.749-3.292q-.907,1.624-1.777,3.268" fill="#ad295d"></path>
    <path id="Path_5977" data-name="Path 5977" d="M100.135,7.239c2.926,2.543,5.852,5.087,8.742,7.672.08-2.333-.01-4.665.061-7,.626.013,1.251.023,1.877.034-.02,3.593-.01,7.187-.013,10.78-1.923-1.6-3.769-3.287-5.667-4.916-1.056-.9-2.1-1.816-3.112-2.77-.024,2.362.012,4.726-.039,7.088-.622,0-1.244-.013-1.865-.008,0-3.628-.026-7.254.016-10.882" fill="#ad295d"></path>
    <path id="Path_5978" data-name="Path 5978" d="M38.292,18.106c2.021-3.609,3.991-7.247,6.058-10.828Q47.239,12.7,50.161,18.11c-.693.016-1.384.015-2.077,0-.421-.807-.851-1.61-1.253-2.427-1.728-.023-3.455,0-5.183,0-.45.815-.857,1.656-1.343,2.451-.672-.019-1.343-.005-2.013-.025m4.2-3.966c1.181-.005,2.362.011,3.544.007-.594-1.088-1.117-2.215-1.755-3.28-.6,1.09-1.194,2.181-1.789,3.273" fill="#ad295d"></path>
    <path id="Path_5979" data-name="Path 5979" d="M67.061,8.213a5.063,5.063,0,0,1,3.213-.335,4.006,4.006,0,0,1,2.235,1.583c-.5.254-1,.511-1.492.781a2.241,2.241,0,0,0-3.21-.56.937.937,0,0,0,.107,1.545c1.294.713,2.868.866,4.015,1.853a2.8,2.8,0,0,1,.041,4.013,4.657,4.657,0,0,1-4.552.994,3.4,3.4,0,0,1-2.442-2.826c.626-.137,1.258-.25,1.891-.349a2,2,0,0,0,.887,1.6,2.286,2.286,0,0,0,2.875-.519,1.444,1.444,0,0,0-.295-1.972c-1.271-.852-2.959-.9-4.1-1.978a2.114,2.114,0,0,1-.647-2.129,2.654,2.654,0,0,1,1.474-1.7" fill="#ad295d"></path>
    <path id="Path_5980" data-name="Path 5980" d="M50.766,7.984a15.16,15.16,0,0,1,2.142-.053Q54.054,9.636,55.2,11.34c.805-1.122,1.587-2.26,2.381-3.39.733-.023,1.465-.036,2.2-.013q-1.743,2.424-3.5,4.843c1.186,1.8,2.48,3.524,3.638,5.341-.7,0-1.4,0-2.094-.009-.888-1.278-1.77-2.56-2.658-3.838-.918,1.283-1.844,2.559-2.751,3.849-.707.014-1.414,0-2.121.005,1.229-1.8,2.523-3.557,3.8-5.325-1.1-1.614-2.219-3.214-3.332-4.819" fill="#ad295d"></path>
    <path id="Path_5981" data-name="Path 5981" d="M61.5,7.94c.63-.019,1.258-.017,1.887,0q.006,5.093,0,10.185c-.639,0-1.277,0-1.917,0,.024-3.393.013-6.787.029-10.181" fill="#ad295d"></path>
    <path id="Path_5982" data-name="Path 5982" d="M79.868,7.931c1.615.069,3.357-.223,4.845.568a2.571,2.571,0,0,1,.447,4.122A2.909,2.909,0,0,1,87.039,14.5a2.663,2.663,0,0,1-1.26,2.969c-1.8.99-3.926.528-5.883.663-.061-3.4-.023-6.8-.028-10.2M81.742,9.4q.006,1.455,0,2.909a3.672,3.672,0,0,0,2.077-.42,1.444,1.444,0,0,0-.085-2.153A3.67,3.67,0,0,0,81.742,9.4m.011,4.241c-.007.989,0,1.979.015,2.968a6.443,6.443,0,0,0,2.824-.342,1.293,1.293,0,0,0,.2-2.12c-.862-.669-2.019-.485-3.035-.506" fill="#ad295d"></path>
    <path id="Path_5983" data-name="Path 5983" d="M112.99,7.931c.627-.005,1.254,0,1.882,0,0,1.341-.012,2.683.016,4.026,1.546-1.36,3.121-2.685,4.674-4.034.859.005,1.717.009,2.576.007q-2.781,2.28-5.514,4.614c1.791,1.891,3.647,3.718,5.48,5.569a24.092,24.092,0,0,1-2.55-.039q-2.187-2.232-4.351-4.485-.159.208-.313.418c-.038,1.372,0,2.743-.028,4.115-.63,0-1.261.012-1.891.009q.007-5.1.019-10.2" fill="#ad295d"></path>
    <path id="Path_5984" data-name="Path 5984" d="M16.912,18.059c3.518,0,7.036-.026,10.555.032,2.1,3.653,4.257,7.266,6.333,10.928-3.518.018-7.035,0-10.553,0-2.094-3.665-4.281-7.274-6.335-10.961" fill="#ad295d"></path>
  </g>
</svg>
