<?xml version="1.0" encoding="UTF-8"?>
<svg xmlns="http://www.w3.org/2000/svg" xmlns:xlink="http://www.w3.org/1999/xlink" id="Group_144" data-name="Group 144" width="107.951" height="36.285" viewBox="0 0 107.951 36.285">
  <defs>
    <clipPath id="clip-path">
      <rect id="Rectangle_91" data-name="Rectangle 91" width="107.951" height="36.285" transform="translate(0 0)" fill="none"></rect>
    </clipPath>
  </defs>
  <g id="Group_143" data-name="Group 143" clip-path="url(#clip-path)">
    <path id="Path_264" data-name="Path 264" d="M61.741,19.927c.114.014.229.034.344.042a6.151,6.151,0,0,0,.785.048c3.431,0,7.133-2.719,12.254-6.483l.2-.146c5.011-3.632,11.247-8.15,18.559-10.363.374-.089.748-.18,1.111-.273,1.1-.281,1.51-.394,1.661-.456l.016-.005v0c.075-.033.073-.05.07-.074a.069.069,0,0,0-.07-.059,2.932,2.932,0,0,0-.37.1c-.53.115-1.067.25-1.6.395-.471.11-.949.234-1.424.37l-.907.21-.455.106c-.4.076-.809.165-1.213.262C83.826,4.957,77.9,8.972,72.416,12.969l-.8.586C67.248,16.772,64.09,19.1,61.085,19.1c-.092,0-.186-.006-.278-.011.312.3.622.579.934.842" fill="#008ca7"></path>
    <path id="Path_265" data-name="Path 265" d="M59.842,18.129c2.182-.483,4.706-2.4,7.567-4.573,4.2-3.187,9.418-7.158,15.829-8.388.207-.038.339-.06.418-.078l.061-.011V5.074c.074-.02.072-.036.069-.07a.069.069,0,0,0-.069-.063l-.016,0h-.006l-.167.03-.314.058c-.131.023-.286.05-.463.079-.008,0-.018,0-.024,0l-.014,0,0,0-.012,0a.1.1,0,0,0-.027.005c-.121.021-.521.089-1.1.181-.459.074-.932.146-1.323.2-.34.053-.618.1-.777.122l-.014,0h-.008c-.433.064-.769.112-.937.142h0c-5.493.894-10.048,4.5-13.709,7.4a26.284,26.284,0,0,1-5.907,3.962q.48.511.948.995" fill="#b1bb36"></path>
    <path id="Path_266" data-name="Path 266" d="M17.6,30.6a13.182,13.182,0,0,0-2.4.239,5.835,5.835,0,0,0-1.651.57,2.54,2.54,0,0,0-.951.846,1.964,1.964,0,0,0-.309,1.068,1.464,1.464,0,0,0,.492,1.22,2.149,2.149,0,0,0,1.364.391,4.646,4.646,0,0,0,.937-.1,5.927,5.927,0,0,0,.906-.264,5.841,5.841,0,0,0,.848-.4,7.8,7.8,0,0,0,.762-.488Zm-6.213-3.7a4.888,4.888,0,0,1,.885-.6,7.364,7.364,0,0,1,1.076-.465,7.454,7.454,0,0,1,2.394-.4,4.194,4.194,0,0,1,2.706.809,2.72,2.72,0,0,1,1,2.248v4.682a8.383,8.383,0,0,0,.043.945,1.818,1.818,0,0,0,.147.585.634.634,0,0,0,.288.3,1.1,1.1,0,0,0,.455.083,3.815,3.815,0,0,0,.708-.069l.258.711a2.033,2.033,0,0,1-.786.408,3.679,3.679,0,0,1-1.091.156,1.341,1.341,0,0,1-1.039-.433,2.253,2.253,0,0,1-.508-1.241,7.308,7.308,0,0,1-1.9,1.222,5.418,5.418,0,0,1-2.208.452,3.908,3.908,0,0,1-1.2-.18,2.909,2.909,0,0,1-.969-.52,2.409,2.409,0,0,1-.64-.837,2.655,2.655,0,0,1-.231-1.129,3,3,0,0,1,.344-1.471,3.409,3.409,0,0,1,.907-1.061,4.834,4.834,0,0,1,1.3-.712,9.935,9.935,0,0,1,1.516-.426,12.058,12.058,0,0,1,1.563-.211q.78-.054,1.435-.054V28.6a1.841,1.841,0,0,0-.564-1.5,2.4,2.4,0,0,0-1.579-.468,4.341,4.341,0,0,0-1.07.127,5.42,5.42,0,0,0-.928.322,5.6,5.6,0,0,0-.788.428c-.24.156-.456.3-.646.446Z"></path>
    <path id="Path_267" data-name="Path 267" d="M24.156,26.95a10.73,10.73,0,0,0-.092-1.353h1.568a6.083,6.083,0,0,1,.122.933,7.985,7.985,0,0,1,1.729-.769,6.534,6.534,0,0,1,2.033-.329A3.473,3.473,0,0,1,32,26.3a3.23,3.23,0,0,1,.917,2.464v7.35H31.3V28.887a2.367,2.367,0,0,0-.522-1.572,1.809,1.809,0,0,0-1.475-.629,6.693,6.693,0,0,0-1.887.273,6.97,6.97,0,0,0-1.64.7V36.11H24.156Z"></path>
    <path id="Path_268" data-name="Path 268" d="M41.183,34.963a6.87,6.87,0,0,0,1.624-.16,4.064,4.064,0,0,0,1.411-.766V27.163a8.052,8.052,0,0,0-2.552-.389,3.1,3.1,0,0,0-2.774,1.251,5.267,5.267,0,0,0,0,5.726,2.657,2.657,0,0,0,2.291,1.212m.194-9.532a7.967,7.967,0,0,1,2.841.536V20.855h1.618V32.79a11.884,11.884,0,0,0,.122,1.963,10.637,10.637,0,0,0,.349,1.358H44.791a2.061,2.061,0,0,1-.247-.394,2.8,2.8,0,0,1-.184-.483,8.617,8.617,0,0,1-1.5.747,5.546,5.546,0,0,1-1.93.286,4.127,4.127,0,0,1-3.331-1.49,5.752,5.752,0,0,1-1.251-3.825,5.781,5.781,0,0,1,1.38-3.945,4.614,4.614,0,0,1,3.652-1.576"></path>
    <path id="Path_269" data-name="Path 269" d="M51.825,25.6a3.809,3.809,0,0,1,.122.8c.2-.1.436-.212.692-.333a7.645,7.645,0,0,1,.826-.31,8.608,8.608,0,0,1,.921-.228,5.21,5.21,0,0,1,.975-.091,3.961,3.961,0,0,1,1.48.252,2.647,2.647,0,0,1,1.111.846,8.267,8.267,0,0,1,3.9-1.1,3.443,3.443,0,0,1,1.357.245,2.6,2.6,0,0,1,.953.683,2.872,2.872,0,0,1,.561,1.023,4.25,4.25,0,0,1,.182,1.26V36.11H63.282V28.788a2.655,2.655,0,0,0-.148-.929,1.785,1.785,0,0,0-.417-.656,1.665,1.665,0,0,0-.623-.39,2.261,2.261,0,0,0-.769-.129,6.333,6.333,0,0,0-2.9.722,5.652,5.652,0,0,1,.133,1.265V36.11H56.94v-7.3a2.216,2.216,0,0,0-.509-1.6,1.971,1.971,0,0,0-1.472-.519,5.36,5.36,0,0,0-1.536.23,9.579,9.579,0,0,0-1.414.551V36.11H50.39V26.821a11.393,11.393,0,0,0-.083-1.225Z"></path>
    <path id="Path_270" data-name="Path 270" d="M75.523,30.6a13.2,13.2,0,0,0-2.4.239,5.839,5.839,0,0,0-1.65.57,2.566,2.566,0,0,0-.954.846,1.978,1.978,0,0,0-.306,1.068,1.461,1.461,0,0,0,.492,1.22,2.145,2.145,0,0,0,1.362.391,4.626,4.626,0,0,0,.938-.1,6.077,6.077,0,0,0,.91-.264,5.935,5.935,0,0,0,.843-.4,7.381,7.381,0,0,0,.764-.488Zm-6.446-3.7a4.819,4.819,0,0,1,.885-.6,7.238,7.238,0,0,1,1.077-.465,7.441,7.441,0,0,1,2.394-.4,4.191,4.191,0,0,1,2.705.809,2.729,2.729,0,0,1,1.006,2.248v4.682c0,.384.012.7.037.945a1.76,1.76,0,0,0,.15.585.636.636,0,0,0,.286.3,1.1,1.1,0,0,0,.457.083,3.8,3.8,0,0,0,.707-.069l.257.711a2.03,2.03,0,0,1-.784.408,3.7,3.7,0,0,1-1.092.156,1.346,1.346,0,0,1-1.04-.433,2.282,2.282,0,0,1-.507-1.241,7.319,7.319,0,0,1-1.9,1.222,5.425,5.425,0,0,1-2.208.452A3.93,3.93,0,0,1,70.3,36.1a2.89,2.89,0,0,1-.967-.52,2.378,2.378,0,0,1-.642-.837,2.67,2.67,0,0,1-.229-1.129,2.987,2.987,0,0,1,.345-1.471,3.38,3.38,0,0,1,.906-1.061,4.877,4.877,0,0,1,1.294-.712,10.045,10.045,0,0,1,1.517-.426,12.134,12.134,0,0,1,1.565-.211c.518-.036,1-.054,1.434-.054V28.6a1.838,1.838,0,0,0-.564-1.5,2.4,2.4,0,0,0-1.577-.468,4.368,4.368,0,0,0-1.074.127,5.768,5.768,0,0,0-1.714.75c-.239.156-.455.3-.647.446Z"></path>
    <path id="Path_271" data-name="Path 271" d="M83.54,25.6a3.792,3.792,0,0,1,.108.676c.025.284.036.651.036,1.1a6,6,0,0,1,1.85-1.421,4.916,4.916,0,0,1,2.209-.523,1.953,1.953,0,0,1,.279.019,1.317,1.317,0,0,1,.222.039l-.348,1.6a3.185,3.185,0,0,0-.778-.078,4.093,4.093,0,0,0-2.266.584,3.046,3.046,0,0,0-1.159,1.148V36.11H82.075V27.045a14.408,14.408,0,0,0-.062-1.449Z"></path>
    <path id="Path_272" data-name="Path 272" d="M92.408,29.566l4.6-3.969h1.967L94.561,29.48l4.622,6.63H97.267L93.5,30.347l-1.087.839V36.11H90.79V15.736h1.618Z"></path>
    <path id="Path_273" data-name="Path 273" d="M107.95.062A.068.068,0,0,0,107.882,0a.1.1,0,0,0-.021,0c-.03,0-.084.012-.169.028-.105.02-.211.043-.315.059s-.327.053-.458.078c-.208.037-.395.075-.5.1-.284.058-.528.105-.707.144-.325.07-.837.193-1.175.265-.287.061-.559.1-1.127.231-.482.114-.868.2-1.3.294-.358.075-1.147.291-1.572.376a19.578,19.578,0,0,0-2.091.631,17.654,17.654,0,0,0-2.161.934,108.005,108.005,0,0,0-17.78,11.195C73.1,18.294,68.822,21.421,65.2,21.421a8.8,8.8,0,0,1-1.265-.106,6.165,6.165,0,0,1-1.481-.386A30.11,30.11,0,0,1,58.094,16.8a44.856,44.856,0,0,0-5.567-5.3A17.656,17.656,0,0,0,41.689,7.2a12.791,12.791,0,0,0-8.621,3.416c-.287.231-.593.493-.884.759a.687.687,0,0,0-.075.071.076.076,0,0,0,0,.069.07.07,0,0,0,.06.035c.018.005.028,0,.051-.022l.028-.027.028-.025c.122-.109.452-.4.859-.715a12.053,12.053,0,0,1,7.922-3.044c4.332,0,8.138,2.285,10.57,4.2a47.709,47.709,0,0,1,5.051,4.584c1.983,1.991,3.7,3.709,5.593,4.5.217.142.434.273.648.389a8.749,8.749,0,0,0,2.5.979,9.354,9.354,0,0,0,1.788.242c3.825,0,8.6-3.553,14.642-8.054l.049-.036,1.981-1.474c3.227-2.39,7.886-5.624,9.17-6.413.693-.428,3.005-1.88,3.936-2.472A28.269,28.269,0,0,1,107.4.224c.206-.037.337-.059.418-.076a.222.222,0,0,0,.062-.016c.073-.022.071-.037.068-.07" fill="#9b1e5c"></path>
    <path id="Path_274" data-name="Path 274" d="M57.932,18.228l0,0A49.738,49.738,0,0,1,53.1,14.494c-.829-.694-1.69-1.41-2.6-2.143a24.571,24.571,0,0,0-7.208-4.039,10.146,10.146,0,0,0-2.211-.244,11.149,11.149,0,0,0-3.25.483,9.281,9.281,0,0,1,1.94-.2c3.7,0,6.934,2.135,9.923,4.32q.968.762,1.86,1.478a31.35,31.35,0,0,0,6.519,4.463c.164.075.327.139.488.2l-.007,0c-.2-.189-.409-.383-.615-.581" fill="#008ca7"></path>
    <path id="Path_275" data-name="Path 275" d="M54.4,16.814a50.7,50.7,0,0,1-4.915-3.455l-.705-.534c-2.591-1.8-5.807-4.017-9.532-4.1A7.924,7.924,0,0,0,35.6,9.7a9.29,9.29,0,0,1,3.042-.517c3.574,0,6.713,2.107,9.237,3.8l.167.114a32.285,32.285,0,0,0,6.427,4.065,8.865,8.865,0,0,0,.876.324c-.314-.211-.63-.438-.95-.672" fill="#b1bb36"></path>
    <path id="Path_276" data-name="Path 276" d="M0,20.87v15.2H8.112V34.7H1.7V20.87Z"></path>
    <path id="Path_277" data-name="Path 277" d="M101.538,33.8a2.338,2.338,0,1,1,2.344,2.313,2.3,2.3,0,0,1-2.344-2.313m2.344,1.929A1.923,1.923,0,1,0,102,33.8a1.863,1.863,0,0,0,1.877,1.929m-.486-.591h-.4V32.474H104c.627,0,.938.232.938.756a.691.691,0,0,1-.688.733l.756,1.172h-.452l-.7-1.155H103.4Zm.481-1.5c.341,0,.645-.023.645-.431,0-.33-.3-.391-.579-.391H103.4v.822Z"></path>
  </g>
</svg>
