<?xml version="1.0" encoding="UTF-8"?>
<svg xmlns="http://www.w3.org/2000/svg" xmlns:xlink="http://www.w3.org/1999/xlink" id="Group_136" data-name="Group 136" width="230.722" height="40" viewBox="0 0 230.722 40">
  <defs>
    <clipPath id="clip-path">
      <rect id="Rectangle_87" data-name="Rectangle 87" width="230.722" height="40" fill="none"></rect>
    </clipPath>
  </defs>
  <g id="Group_134" data-name="Group 134" clip-path="url(#clip-path)">
    <path id="Path_191" data-name="Path 191" d="M67.126,8.713a3.788,3.788,0,0,0-3.884,3.641,3.788,3.788,0,0,0,3.884,3.641h4.126a3.788,3.788,0,0,0,3.883-3.641,3.788,3.788,0,0,0-3.883-3.641Zm-2.185,3.641a2.241,2.241,0,0,1,2.427-2.185h3.884a2.4,2.4,0,0,1,2.427,2.185,2.241,2.241,0,0,1-2.427,2.185H67.368a2.241,2.241,0,0,1-2.427-2.185"></path>
    <path id="Path_192" data-name="Path 192" d="M104.02,8.713V9.927h4.854v4.611H104.02v1.214h11.165V14.538h-4.854V10.169h4.854V8.956c-.242-.243-11.165-.243-11.165-.243"></path>
    <path id="Path_193" data-name="Path 193" d="M119.554,8.713a2.184,2.184,0,1,0,0,4.369h6.554a.644.644,0,0,1,.728.728.775.775,0,0,1-.728.728h-8.5v1.214h8.738a2.184,2.184,0,1,0,0-4.369H119.8a.643.643,0,0,1-.728-.728.643.643,0,0,1,.728-.728h8.5V8.713Z"></path>
    <path id="Path_194" data-name="Path 194" d="M221.741,8.713a2.184,2.184,0,1,0,0,4.369h6.554a.644.644,0,0,1,.728.728.775.775,0,0,1-.728.728h-8.5v1.214h8.738a2.184,2.184,0,1,0,0-4.369h-6.553a.643.643,0,0,1-.728-.728.643.643,0,0,1,.728-.728h8.5V8.713Z"></path>
    <path id="Path_195" data-name="Path 195" d="M142.856,8.713a3.733,3.733,0,0,0-3.641,3.641,3.733,3.733,0,0,0,3.641,3.641H149.9a.644.644,0,0,0,.728-.728V12.354a.775.775,0,0,0-.728-.728h-7.524v1.213h6.553v1.7H143.1a2.4,2.4,0,0,1-2.428-2.184,2.242,2.242,0,0,1,2.428-2.185h7.281V8.956c0-.243-7.524-.243-7.524-.243"></path>
    <path id="Path_196" data-name="Path 196" d="M196.012,8.713a3.733,3.733,0,0,0-3.641,3.641,3.733,3.733,0,0,0,3.641,3.641h6.8a.643.643,0,0,0,.728-.728V12.354a.774.774,0,0,0-.728-.728h-7.524v1.213h6.553v1.7h-5.825a2.394,2.394,0,0,1-2.427-2.184,2.241,2.241,0,0,1,2.427-2.185h7.282V8.956c.242-.243-7.282-.243-7.282-.243"></path>
    <path id="Path_197" data-name="Path 197" d="M206.692,8.713a.644.644,0,0,0-.728.728v5.826a.776.776,0,0,0,.728.728h9.952V14.781H207.42v-1.7h9.224V11.868H207.42v-1.7h9.224V8.956c0-.243-9.952-.243-9.952-.243"></path>
    <path id="Path_198" data-name="Path 198" d="M76.835,8.713v7.282h1.456V13.082h5.1l2.67,2.913h2.185c-.243-.243-2.67-2.913-2.67-2.913h.485a2.184,2.184,0,1,0,0-4.369H76.835m1.7,2.913V10.17h7.282c.485,0,.971.242.971.728s-.486.728-.971.728Z"></path>
    <path id="Path_199" data-name="Path 199" d="M90.67,8.713v7.282h1.456V13.082h5.1l2.67,2.913h2.185c-.243-.243-2.67-2.913-2.67-2.913h.485a2.184,2.184,0,1,0,0-4.369H90.67m1.456,2.913V10.17h7.282c.485,0,.971.242.971.728s-.486.728-.971.728Z"></path>
    <path id="Path_200" data-name="Path 200" d="M166.4,8.713v7.282h1.456V13.082h5.1l2.67,2.913h2.185c-.243-.243-2.67-2.913-2.67-2.913h.485a2.176,2.176,0,0,0,2.185-2.184,2.582,2.582,0,0,0-2.428-2.185Zm1.456,2.913V10.17h7.282c.485,0,.971.242.971.728s-.486.728-.971.728Z"></path>
    <path id="Path_201" data-name="Path 201" d="M49.893,8.713V16h1.456v-5.34l4.127,2.67,4.369-2.67V16H61.3V8.713H60.087l-4.611,2.67-4.369-2.67Z"></path>
    <path id="Path_202" data-name="Path 202" d="M158.39,8.713c-.242,0-.485,0-.485.243,0,0-5.583,6.8-5.825,7.039h1.941l.729-.971h7.281l.728.971H164.7c0-.243-5.825-7.039-5.825-7.039a.848.848,0,0,0-.486-.243M156.934,12.6l1.456-1.942,1.457,1.942.971,1.214h-5.1l.243-.243Z"></path>
    <path id="Path_203" data-name="Path 203" d="M185.575,8.713c-.243,0-.485,0-.485.243,0,0-5.583,6.8-5.826,7.039h1.942l.728-.971h7.039l.728.971h1.942c0-.243-5.825-7.039-5.825-7.039a.238.238,0,0,0-.243-.243m-1.7,3.884,1.456-1.942,1.457,1.942.971,1.214h-5.1l.243-.243Z"></path>
    <path id="Path_204" data-name="Path 204" d="M120.768,28.131l-.728-.485a1.9,1.9,0,0,1-.971-.971,1.46,1.46,0,0,1-.243-.971,3.45,3.45,0,0,1,.486-1.457,3.458,3.458,0,0,1,1.456-.485,4.512,4.512,0,0,1,1.7.485v1.214a2.2,2.2,0,0,0-1.7-.728.891.891,0,0,0-.728.243c-.243.242-.243.242-.243.485s0,.485.243.485c.243.243.485.486.728.486l.728.485a2,2,0,0,1,1.214,1.942,3.45,3.45,0,0,1-.486,1.457,3.458,3.458,0,0,1-1.456.485,3.231,3.231,0,0,1-1.942-.728V28.859a2.209,2.209,0,0,0,1.942.971.859.859,0,0,0,.971-.971c-.243,0-.486-.485-.971-.728"></path>
    <path id="Path_205" data-name="Path 205" d="M123.923,24.49c.243,0,.243,0,.486.243a.849.849,0,0,1,.242.486c0,.242,0,.242-.242.485a.848.848,0,0,1-.486.243c-.243,0-.243,0-.485-.243a.848.848,0,0,1-.243-.485c0-.243,0-.243.243-.486s.242-.243.485-.243m-.485,1.942h.971v4.612h-.971Z"></path>
    <path id="Path_206" data-name="Path 206" d="M126.35,26.432v.485a2.1,2.1,0,0,1,1.456-.728.893.893,0,0,1,.729.243c.242.243.485.243.485.728a1.818,1.818,0,0,1,.243,1.214v2.67h-.971v-2.67c0-.486,0-.728-.243-.971a.891.891,0,0,0-.728-.243c-.486,0-.728.243-1.214.728v3.4h-.971V26.675h1.214Z"></path>
    <path id="Path_207" data-name="Path 207" d="M133.632,29.83V30.8a3.074,3.074,0,0,1-1.456.243,2.492,2.492,0,0,1-2.428-2.428,2.49,2.49,0,0,1,2.428-2.427h.728c.243,0,.485.243.728.243V27.4a4.092,4.092,0,0,0-1.214-.486,1.258,1.258,0,0,0-.97.486,1.851,1.851,0,0,0-.486,1.213c0,.486.243.729.486,1.214a1.462,1.462,0,0,0,2.184,0"></path>
    <path id="Path_208" data-name="Path 208" d="M138.486,28.859h-3.155a1.26,1.26,0,0,0,.485.971,1.84,1.84,0,0,0,.971.486,4.491,4.491,0,0,0,1.7-.486v.728c-.243.243-.485.243-.728.486h-.971a1.819,1.819,0,0,1-1.214-.243,3.365,3.365,0,0,1-.728-.971,1.824,1.824,0,0,1-.242-1.214,3.507,3.507,0,0,1,.485-1.7,2.1,2.1,0,0,1,1.456-.728,1.47,1.47,0,0,1,1.457.728,3.77,3.77,0,0,1,.485,1.942m-3.4-.728h2.427a1.065,1.065,0,0,0-.242-.728,1.214,1.214,0,0,0-1.457,0c-.485.243-.485.485-.728.728"></path>
    <rect id="Rectangle_86" data-name="Rectangle 86" width="0.971" height="7.039" transform="translate(143.826 24.005)"></rect>
    <path id="Path_209" data-name="Path 209" d="M148.438,31.044l-.728-.728a6.429,6.429,0,0,0,1.456-1.214,2.1,2.1,0,0,0,.728-1.456,1.815,1.815,0,0,1-1.213.243,3.45,3.45,0,0,1-1.457-.486,1.784,1.784,0,0,1-.485-1.456,2.574,2.574,0,0,1,2.184-2.185,2.2,2.2,0,0,1,1.7.728,2.756,2.756,0,0,1,.729,1.942,5.528,5.528,0,0,1-.729,2.67,8.363,8.363,0,0,1-2.184,1.942m1.7-4.369V26.19c0-.486,0-.729-.243-.971a1.259,1.259,0,0,0-.971-.486.974.974,0,1,0,0,1.942.8.8,0,0,0,1.214,0"></path>
    <path id="Path_210" data-name="Path 210" d="M154.021,30.073h2.67v.971h-4.369l.485-.486a5.726,5.726,0,0,0,1.457-2.184,2.222,2.222,0,0,0,.728-1.214c0-.242.243-.485.243-.971s0-.728-.243-.97-.486-.243-.971-.243a.891.891,0,0,0-.728.243l-.728.728V24.733a2.622,2.622,0,0,1,1.7-.728,1.468,1.468,0,0,1,1.456.728,1.785,1.785,0,0,1,.485,1.456,1.838,1.838,0,0,1-.242.971,4.1,4.1,0,0,1-.486,1.214c-.242.485-.728.971-1.213,1.7Z"></path>
    <path id="Path_211" data-name="Path 211" d="M160.817,23.763h.486v3.883h.728v.971H161.3v2.427h-.971V28.617h-3.156v-.485Zm-.728,4.126V25.7l-1.7,1.942h1.7Z"></path>
    <line id="Line_6" data-name="Line 6" x2="64.564" transform="translate(49.893 27.403)"></line>
    <line id="Line_7" data-name="Line 7" x2="64.807" transform="translate(165.914 27.403)"></line>
    <path id="Path_212" data-name="Path 212" d="M0,22.079v.143c0,1,.143,1.864.143,2.868v1a1.808,1.808,0,0,0,.144.86v.43c0,.431.286.717.43,1.147.286.287.573.717.86,1,.717.86,1.577,1.72,2.437,2.724,1.434,1.577,2.868,3.011,4.445,4.444,1,.717,2.007,1.578,3.01,2.438.431.43,1.147.43,1.721.573,1,.144,2.15.144,3.154.287h6.308c1.147-.143,2.437-.143,3.584-.287H27.67A6.007,6.007,0,0,0,29.1,39.14L29.247,39c.144,0,.144-.143.287-.143a.14.14,0,0,0,.143-.143,61.136,61.136,0,0,0,5.448-5.162c1.291-1.29,2.438-2.724,3.728-4.014.287-.287.43-.573.717-.86.43-.43.43-1.147.573-1.721.144-1.577.287-3.154.287-4.731v-5.3c0-.717-.143-1.434-.143-2.151,0-.574-.144-1.29-.144-1.864v-.287a1.991,1.991,0,0,0-.717-1.433c-.286-.287-.43-.574-.716-.86a70.111,70.111,0,0,0-6.452-6.6c-1-1-2.151-1.864-3.3-2.868A4.279,4.279,0,0,0,27.527.287C26.38.143,25.233.143,24.229,0H17.491c-1.147,0-2.151.143-3.3.143A3.951,3.951,0,0,0,12.9.287H12.76A4.276,4.276,0,0,0,11.326.86c-.143-.143-.287,0-.43,0A.14.14,0,0,0,10.753,1C8.889,2.581,7.025,4.3,5.3,6.021,4.014,7.312,2.867,8.745,1.577,10.179c-.287.287-.43.574-.717.86-.43.43-.43,1-.573,1.721C.143,14.337.143,15.914,0,17.491v4.588Zm3.154-4.588c0-.717.143-1.577.143-2.294a2.432,2.432,0,0,1,.144-1V14.05a1.822,1.822,0,0,1,.143-.86c0-.287.143-.43.287-.717A28.634,28.634,0,0,1,6.595,9.319c1.434-1.577,2.867-3.011,4.444-4.445a15.274,15.274,0,0,1,1.577-1.29,3.687,3.687,0,0,1,1.721-.717c2.007-.143,3.871-.286,6.595-.286.86,0,2.437.143,3.871.143.573,0,1.147.143,1.72.143a1.022,1.022,0,0,1,.86.43,30.1,30.1,0,0,1,3.871,3.441,55.188,55.188,0,0,1,4.015,4.3c.286.287.573.717.86,1,.143.287.287.43.43.717a1.822,1.822,0,0,1,.143.86,64.747,64.747,0,0,1,.287,7.455c0,1-.143,2.007-.143,3.011v1.147a1.071,1.071,0,0,1-.144.717c0,.287-.143.43-.286.717a31.487,31.487,0,0,1-2.868,3.3c-1.577,1.577-3.154,3.154-4.874,4.731A6.356,6.356,0,0,1,27.1,35.842a2.312,2.312,0,0,1-1.291.43,69.8,69.8,0,0,1-7.742.287,21.218,21.218,0,0,1-3.01-.143c-.574,0-1.147-.144-1.721-.144-.287,0-.573-.286-.86-.43a28.542,28.542,0,0,1-3.154-2.724,47.915,47.915,0,0,1-4.588-4.731c-.43-.43-.717-1-1.147-1.434-.143-.143-.287-.43-.43-.573a1.3,1.3,0,0,1-.143-.717c.143-2.581.143-5.448.143-8.172"></path>
    <path id="Path_213" data-name="Path 213" d="M15.2,14.91c0,.143-.143.287-.143.43-.43,1-.717,1.864-1.147,2.867-.861,2.151-1.721,4.158-2.438,6.309,0,.143-.143.143-.286.286l-.287-.286c-.717-1.434-1.577-2.868-2.294-4.3,0-.144-.143-.144-.143-.287H8.315v3.011a19.133,19.133,0,0,0,.144,2.867c.143,1.29.143,2.437.286,3.728v.143a.14.14,0,0,1-.143.143H8.459a6.2,6.2,0,0,1-.861-1c-.716-.86-1.433-1.577-2.15-2.437a.529.529,0,0,1-.143-.431c-.144-1.433-.144-2.867-.287-4.444,0-1.864,0-3.871.143-5.735,0-.573.144-1.147.144-1.864,0-.143,0-.286.143-.286.717-.861,1.434-1.577,2.15-2.438.144-.143.287-.143.431.144.573,1,1,2.007,1.577,3.011.43.716.716,1.577,1.147,2.293,0,.144.143.144.286.287,0-.143.144-.143.144-.287.717-1.72,1.433-3.584,2.007-5.3.717-2.007,1.577-4.158,2.294-6.308a.308.308,0,0,1,.286-.287c1.147,0,2.294-.144,3.441-.144.287,0,.287,0,.287.287V34.695c0,.43,0,.43-.43.43a21.231,21.231,0,0,1-3.011-.143c-.43,0-.43,0-.43-.43V15.34l-.43-.43h0"></path>
    <path id="Path_214" data-name="Path 214" d="M21.219,19.785V4.731c0-.286,0-.286.287-.286h1.433c1.147,0,2.151.143,3.3.143a1.082,1.082,0,0,1,.573.287,64.083,64.083,0,0,1,6.309,6.164,23.86,23.86,0,0,0,1.863,2.008,1.547,1.547,0,0,1,.431,1c0,.717.143,1.577.143,2.294,0,.287,0,.287-.287.287H32.545a.309.309,0,0,1-.287-.287v-1.29a.747.747,0,0,0-.286-.574c-1.864-2.15-4.015-4.157-6.022-6.165l-.287-.286a.2.2,0,0,0-.286,0l-.144.143V30.681a.525.525,0,0,0,.144.43.5.5,0,0,0,.286-.143,87.51,87.51,0,0,0,6.309-6.308.747.747,0,0,0,.286-.574V22.939c0-.287,0-.287-.286-.287H30.681c-.286,0-.286,0-.286-.286V19.642c0-.287,0-.287.286-.287h4.732c.286,0,.286,0,.286.287,0,1.863-.143,3.584-.143,5.448a1.627,1.627,0,0,1-.43,1.147,85.219,85.219,0,0,1-6.165,6.308c-.717.573-1.29,1.147-2.007,1.72a1.084,1.084,0,0,1-.574.287c-1.577.143-3.01.143-4.588.287-.286,0-.286,0-.286-.287-.287-4.875-.287-9.749-.287-14.767"></path>
  </g>
</svg>
