<?xml version="1.0" encoding="UTF-8"?>
<svg xmlns="http://www.w3.org/2000/svg" xmlns:xlink="http://www.w3.org/1999/xlink" id="Group_4537" data-name="Group 4537" width="200.33" height="21.771" viewBox="0 0 200.33 21.771">
  <defs>
    <clipPath id="clip-path">
      <rect id="Rectangle_551" data-name="Rectangle 551" width="200.33" height="21.771" transform="translate(0 0)" fill="none"></rect>
    </clipPath>
  </defs>
  <g id="Group_4536" data-name="Group 4536" clip-path="url(#clip-path)">
    <path id="Path_5865" data-name="Path 5865" d="M47.629,0c-2.689.059-5.816,2.1-5.816,5.435s1.636,4.793,5.085,5.99c4.032,1.4,4.266,2.689,4.237,4.12a2.848,2.848,0,0,1-2.689,2.835c-2.016.088-3.185-.907-3.272-2.571H41.4a6.531,6.531,0,0,0,6.692,5.96c4.207,0,6.37-2.863,6.428-5.873.059-2.746-.613-5-5.464-6.6C46.284,8.3,45.144,7.629,45.144,5.73a2.688,2.688,0,0,1,5.318-.5h3.682C54.2,2.837,52.128-.085,47.629,0M88.1,0c-2.689.059-5.815,2.1-5.815,5.435s1.636,4.793,5.084,5.99c4.032,1.4,4.266,2.689,4.237,4.12a2.848,2.848,0,0,1-2.689,2.835c-2.016.088-3.185-.907-3.271-2.571H81.873a6.531,6.531,0,0,0,6.692,5.96c4.208,0,6.37-2.863,6.428-5.873.087-2.746-.613-5-5.464-6.6C86.753,8.3,85.613,7.629,85.613,5.73a2.688,2.688,0,0,1,5.318-.5h3.682C94.671,2.837,92.6-.085,88.1,0M4.968.616C3.74.616.585.617,0,.733V21.07c.643.117,3.8.146,5.144.146,3.272,0,4.5-.38,5.785-1.52a5.33,5.33,0,0,0,1.578-4.149c0-3.038-1.4-4.412-3.214-5.084v-.087c1.372-.731,2.424-1.987,2.424-4.558A4.491,4.491,0,0,0,10.2,2.164C9,1.025,7.364.616,5.173.616Zm16.947,0V21.07h11.22V18.149H25.276L25.129,18V12.245l.147-.145h6.545V9.12H25.276l-.147-.147V3.714l.147-.146h7.859V.616Zm39.271,0V3.568l5.464-.03.147.176V21.07h3.214V3.714l.145-.176,5.464.03V.616Zm43.187,0V21.07h11.191V18.118H107.7l-.147-.145V12.245l.147-.145h6.545V9.12H107.7l-.147-.147V3.714l.147-.146h7.86V.616Zm21.709,0V21.07h11.25V18.149l-7.889-.031-.146-.145V.616Zm19.4,0V21.07h11.22V18.149h-7.861l-.145-.176V.616Zm20.132,0V21.07h11.22V18.118h-7.861l-.145-.145V12.245l.145-.145h6.547V9.12h-6.547l-.145-.147V3.714l.145-.146h7.861V.616Zm26.472,0c-1.255,0-4.354,0-4.938.117V21.07h3.214V12.392l.146-.147h1.578c1.462,0,1.987.965,2.63,2.367a46.6,46.6,0,0,1,2.1,6.458h3.507c-.321-1.081-1.52-4.646-2.543-7.422-.613-1.636-1.4-2.542-2.337-2.776v-.088a5,5,0,0,0,3.623-4.85,4.9,4.9,0,0,0-1.256-3.828C196.59.938,194.661.616,192.089.616M3.361,3.538H5.377c2.426,0,3.155,1.2,3.155,2.63,0,1.754-.7,2.922-3.009,2.922-.058.03-2.162.03-2.162.03l-.147-.177V3.685Zm187.15.03h2.046c2.367,0,3.214,1.519,3.214,2.717,0,2.4-1.578,2.863-3.185,2.835h-2.075l-.146-.147V3.714ZM3.361,12.1H5.348c2.25,0,3.8,1.081,3.8,3.155,0,1.637-.731,2.894-3.623,2.894H3.361L3.214,18V12.245Z"></path>
  </g>
</svg>
