<?xml version="1.0" encoding="UTF-8"?>
<svg xmlns="http://www.w3.org/2000/svg" xmlns:xlink="http://www.w3.org/1999/xlink" width="91.895" height="38.022" viewBox="0 0 91.895 38.022">
  <defs>
    <clipPath id="clip-path">
      <rect id="Rectangle_580" data-name="Rectangle 580" width="91.895" height="38.022" transform="translate(0 0)" fill="none"></rect>
    </clipPath>
  </defs>
  <g id="Group_4577" data-name="Group 4577" transform="translate(0 0)">
    <g id="Group_4576" data-name="Group 4576" clip-path="url(#clip-path)">
      <path id="Path_6106" data-name="Path 6106" d="M79.419,16.535a50.494,50.494,0,0,1-5.655.557l-.5,1.62a23.68,23.68,0,0,1,3.518-.026.51.51,0,0,1,.531.531,8.979,8.979,0,0,1-.039,1.2s-.04.358-.532.451c-.57.093-4.421.266-4.421.266l-.624,2.1s-.225.478.292.345a35.768,35.768,0,0,1,5.046-.8,1.454,1.454,0,0,1,1.009,1.593c-.213.836-4.249,3.412-6.692,3.24,0,0-1.288.079-2.363-1.66-1.036-1.66.358-4.78.358-4.78s-.624-1.46-.159-1.991a2.009,2.009,0,0,1,1.062-.292l1-2.045a2.313,2.313,0,0,1-1.792-.757c-.611-.8-.664-1.141-.186-1.354a32.809,32.809,0,0,1,8.391-.995s1.128-.133,2.124,1.818c0,0,.451.8-.345.983M67.311,24.4a2.132,2.132,0,0,1-2.828,1.367c-1.354-.637-3.492-4.992-3.492-4.992s-.8-1.62-.955-1.567c0,0-.173-.318-.266,1.461-.133,1.766.027,5.2-.7,5.749a1.286,1.286,0,0,1-1.911-.319c-.372-.624-.532-2.124-.319-4.74.239-2.615.836-5.4,1.593-6.266a1.015,1.015,0,0,1,1.673,0,19.372,19.372,0,0,1,2.748,3.677l.292.505a23.284,23.284,0,0,0,1.726,2.6s.133.133.239.027c.16-.04.106-.89.106-.89A44.807,44.807,0,0,0,63.461,13.4a2.365,2.365,0,0,1-.066-1.2c.132-.531.7-.266.7-.266S66.3,13,67.377,16.588a13.184,13.184,0,0,1-.053,7.807m-10.82-9.2c-.212.372-.305.889-1.221,1.036,0,0-8.9.624-9.334,1.248,0,0-.292.371.186.464.5.106,2.523.372,3.478.425,1.036,0,4.514.027,5.789,1.593a3.477,3.477,0,0,1,.7,2.43c-.027,1.726-.332,2.337-1.009,2.961-.7.584-6.732,3.292-10.622-.85A2.2,2.2,0,0,1,45.1,21s1.726-1.062,6.147.172c0,0,1.328.478,1.275.97-.08.531-1.1,1.062-2.589,1.035a5.093,5.093,0,0,1-2.283-.611c.2.067-1.554-.849-2.1-.225-.531.584-.4.929.133,1.288,1.327.77,6.545.491,8.1-1.248,0,0,.624-.7-.318-1.275a15.144,15.144,0,0,0-4.687-.9c-1-.053-4.726,0-5.284-.969,0,0-.531-.69.053-2.576.611-1.991,4.952-2.761,6.837-2.92,0,0,5.178-.213,6.148.849a.7.7,0,0,1-.027.6M41.82,26.864a2,2,0,0,1-2.337-.265c-.371-.465-.5-2.3-.438-5.178.093-2.948.133-6.559.8-7.143s1.062-.067,1.328.319a3.058,3.058,0,0,1,.663,1.752c.08.929.306,5.709.306,5.709s.292,4.355-.306,4.806M43.148,11.33a5.339,5.339,0,0,1-4.143-.039c-.464.836-.743,1.088-1.088,1.141-.531.054-1-.8-1.062-1.062A1.378,1.378,0,0,1,36.8,10a3.094,3.094,0,0,1-.93-3.014c.239-.982,1.992-4.673,7.3-5.111,0,0,2.6-.186,3.054,1.194h.08s2.522,0,2.469,2.257c0,2.257-2.788,5.072-5.629,6.041m2.363-6.465c-1.673.265-4.249,2.5-5.483,4.341,1.9.345,5.217.212,6.7-2.788,0,0,.7-1.885-1.221-1.553m-7.342,1.46c-.531.863-.558,1.381-.305,1.726a13.179,13.179,0,0,1,3.385-3.532,3.924,3.924,0,0,0-3.08,1.806M83.4,26.771a39.734,39.734,0,0,0-2.854,10.6s-.133.889-.863.6a4.217,4.217,0,0,1-2.191-3.146c-.265-2.2.717-5.922,2.722-10.2a5.887,5.887,0,0,1-.664-4.248,12.664,12.664,0,0,1,4.116-6.824s.425-.359.664-.239c.292.132.172,1.274-.067,1.858-.212.558-1.805,3.32-1.805,3.32a6.286,6.286,0,0,0-.717,3.359c1.885-2.9,6.173-8.763,8.829-6.9,1.686,1.195,1.686,5.045.425,7.275-1,1.766-3.811,5.417-7.568,4.567m5.523-9.028a25.749,25.749,0,0,0-4.116,5.815,6.8,6.8,0,0,0,3.319-1.38,5.565,5.565,0,0,0,2.071-4.541s-.159-1.168-1.274.106M29.473,28.338a21.668,21.668,0,0,1-11.551.133c-.066.982-.172,1.394-.332,1.553-.186.212-1.726,1.089-2.575-.159a7.125,7.125,0,0,1-.664-2.656A20.177,20.177,0,0,1,6.3,20.969a2.2,2.2,0,0,1-.133-3.014c1.156-1.433,4.979-2.881,8.4-3.451A22.732,22.732,0,0,1,15.44,8.33c.491-1.195,1.115-.133,1.672.664.452.6.731,3.16.757,5.2a22.167,22.167,0,0,1,6.068.531c3.266.558,5.443,2.231,5.27,4.116a3.028,3.028,0,0,1-2.522,2.682,4.622,4.622,0,0,1-1.726-.438c-.744-.345-.067-.664.8-1.036.956-.465.744-.929.744-.929-.345-1.062-4.58-1.766-8.789-1.766,0,2.323.093,6.174.159,8.417a23.72,23.72,0,0,0,5.151.438s10.754-.3,11.06-7.169c.332-6.877-10.754-13.462-18.919-15.533C7.009,1.373,2.389,2.887,1.99,3.086c-.438.212-.039.292-.039.292a8.26,8.26,0,0,1,1.234.332c.8.265.16.664.16.664C1.951,4.852.4,4.573.092,3.935s.2-1.194.8-2.031c.558-.863,1.195-.836,1.195-.836C12.174-2.451,24.494,3.856,24.494,3.856,36.018,9.671,37.983,16.508,37.771,19.164c-.186,2.615-1.195,7.036-8.3,9.187M7.3,18.845a.81.81,0,0,0-.345,1.381,18.384,18.384,0,0,0,7.3,4.647c.292-3.983.265-5.4.265-7.409A22.544,22.544,0,0,0,7.3,18.845"></path>
    </g>
  </g>
</svg>
