<?xml version="1.0" encoding="UTF-8"?>
<svg xmlns="http://www.w3.org/2000/svg" xmlns:xlink="http://www.w3.org/1999/xlink" id="Group_4541" data-name="Group 4541" width="106.264" height="50.799" viewBox="0 0 106.264 50.799">
  <defs>
    <clipPath id="clip-path">
      <rect id="Rectangle_559" data-name="Rectangle 559" width="106.264" height="50.799" transform="translate(0 0)" fill="none"></rect>
    </clipPath>
  </defs>
  <g id="Group_4540" data-name="Group 4540" clip-path="url(#clip-path)">
    <path id="Path_5889" data-name="Path 5889" d="M57.517,30.556c-1.988-.789-4.032-1.439-6.048-2.159a11.389,11.389,0,0,1-1.524-.625c-.637-.34-.633-.841,0-1.2A2.985,2.985,0,0,1,51,26.161a38.069,38.069,0,0,1,4.114-.44,40.262,40.262,0,0,1,4.483.216A3.821,3.821,0,0,1,62.625,27.2l2.836-6.646c-.46-.048-.815-.115-1.17-.118a101.977,101.977,0,0,0-13.242.453c-2.438.3-4.874.671-7.28,1.164a13.547,13.547,0,0,0-5.9,2.555c-.445.358-.856.759-1.266,1.126l2.421-5.143H21.612a1.369,1.369,0,0,1,.483,1.548A158.528,158.528,0,0,1,16.91,37.24a19.424,19.424,0,0,1-8.877,9.866,50.4,50.4,0,0,1-7.4,3.219c-.2.072-.381.181-.634.3.139.086.182.132.23.138a3.818,3.818,0,0,0,.454.031,66.823,66.823,0,0,0,11-.608,26.6,26.6,0,0,0,9.6-3.345,24.732,24.732,0,0,0,8.582-8.65C32.04,34.546,33.945,30.741,35.964,27l.3-.564a.942.942,0,0,1,.081.2.636.636,0,0,1-.023.168,4.71,4.71,0,0,0,1.765,5.157,13.782,13.782,0,0,0,4.307,2.27c1.588.566,3.2,1.068,4.786,1.639.443.159,1.05.333,1,.936-.048.622-.67.712-1.162.816a14.387,14.387,0,0,1-4.3.139,28.342,28.342,0,0,1-9.793-2.227c.082.8.165,1.607.248,2.414.148,1.431.285,2.863.46,4.291a.6.6,0,0,0,.4.408c2.32.213,4.639.464,6.964.564,2.215.1,4.438.04,6.658.029a38.071,38.071,0,0,0,7.728-.813,13.329,13.329,0,0,0,5.392-2.17,4.59,4.59,0,0,0,.98-6.64,9.352,9.352,0,0,0-4.239-3.062" fill="#18489a"></path>
    <path id="Path_5890" data-name="Path 5890" d="M106.19,20.555c-2.221-.011-4.441-.026-6.662-.012-.122,0-.285.222-.355.375a6.238,6.238,0,0,1-.4,1.041c-2.282,3.2-4.589,6.379-6.884,9.569a1.853,1.853,0,0,0-.165.415l-.2-.173a1.512,1.512,0,0,1-.011-.212c.167-1.962.256-3.935.526-5.883.24-1.723-.118-3.586,1.146-5.152h-.715c-2.716,0-5.435.072-8.147-.033a2.646,2.646,0,0,0-2.578,1.346c-2.208,3.2-4.525,6.333-6.8,9.487-.128.178-.292.331-.549.616.04-.622.057-1.054.1-1.483.176-1.923.324-3.849.549-5.766.164-1.4-.066-2.913,1.135-4.167-1.7,0-3.256,0-4.808,0q-2.565,0-5.128,0c-.255,0-.543-.065-.58.351-.179,2.018-.38,4.034-.563,6.052-.169,1.848-.321,3.7-.489,5.546-.176,1.942-.318,3.888-.558,5.822-.173,1.4.09,2.918-1.081,4.138.247.02.392.042.537.043,3.1.024,6.19.038,9.285.079a1.06,1.06,0,0,0,.988-.5q3.67-5.146,7.376-10.268c.157-.219.332-.426.5-.639a4.686,4.686,0,0,1,.05,1.383c-.178,1.98-.323,3.964-.561,5.937-.162,1.345.072,2.807-1.156,4.022H82.35c2.526-.006,5.052-.022,7.578-.009a1.089,1.089,0,0,0,.989-.516q6.864-9.549,13.746-19.085c.539-.749,1.074-1.5,1.6-2.239-.051-.061-.063-.087-.074-.087" fill="#18489a"></path>
    <path id="Path_5891" data-name="Path 5891" d="M40.142,20.452c3.01-.361,6.032-.652,9.027-1.115A92.286,92.286,0,0,0,68.02,14.3,70.294,70.294,0,0,0,91.069.381c.143-.133.3-.25.45-.375a.584.584,0,0,0-.426.1A42.66,42.66,0,0,1,69.756,6.258a44.025,44.025,0,0,1-8.613-.652,1.49,1.49,0,0,0-.986.23c-2.524,1.723-5.026,3.477-7.534,5.224-.159.111-.31.233-.465.349l.06.143A80.894,80.894,0,0,0,82.151,6.63a1.922,1.922,0,0,1-.543.322c-2.388.914-4.743,1.931-7.174,2.712a78.462,78.462,0,0,1-24.363,3.655,2.068,2.068,0,0,0-1.312.411c-.87.642-1.771,1.243-2.659,1.862L39.285,20.34c.009.039.017.077.026.116a6.977,6.977,0,0,0,.831,0" fill="#d62027"></path>
  </g>
</svg>
