<?xml version="1.0" encoding="UTF-8"?>
<svg xmlns="http://www.w3.org/2000/svg" xmlns:xlink="http://www.w3.org/1999/xlink" width="114.293" height="39.188" viewBox="0 0 114.293 39.188">
  <defs>
    <clipPath id="clip-path">
      <rect id="Rectangle_558" data-name="Rectangle 558" width="114.293" height="39.188" transform="translate(0 0)" fill="none"></rect>
    </clipPath>
  </defs>
  <g id="Group_4538" data-name="Group 4538" clip-path="url(#clip-path)">
    <path id="Path_5866" data-name="Path 5866" d="M12.8,0,2.328,23.211A2.59,2.59,0,0,1,0,24.846v.441H5.22v-.441c-.911,0-1.887-.472-1.635-1.1a6.407,6.407,0,0,0,.252-.629l8.051-18.21L20.82,23.211a2.685,2.685,0,0,1,.315.818c0,.66-.913.849-1.7.849v.44h7.926v-.44a2.463,2.463,0,0,1-2.327-1.636L13.3,0Z" fill="#a21d36"></path>
    <path id="Path_5867" data-name="Path 5867" d="M51.643,26.356,59.569,8.272a1.946,1.946,0,0,1,1.98-1.2V6.636H57.021v.441c.692,0,1.32.251,1.32.6a1.267,1.267,0,0,1-.219.6l-5.63,13.209L46.422,8.272a2.343,2.343,0,0,1-.251-.629c0-.378.723-.566,1.32-.566V6.636h-5.6s.252.6.724,1.636l8.648,18.084Z" fill="#a21d36"></path>
    <path id="Path_5868" data-name="Path 5868" d="M67.337,25.224v-.44c-.661,0-1.259-.346-1.259-.849V7.926c0-.5.535-.849,1.415-.849V6.636H61.3v.441c.786,0,1.416.346,1.416.849V23.934c0,.5-.63.85-1.416.85v.44Z" fill="#a21d36"></path>
    <path id="Path_5869" data-name="Path 5869" d="M98.756,7.737H104.2c4.152,0,6.605,3.648,6.605,8.177s-2.044,8.177-6.007,8.177H98.756Zm-3.365,16.2c0,.5-.566.849-1.195.849v.44h11.228c5.5,0,8.869-3.9,8.869-9.309s-3.931-9.309-9.5-9.309H94.227v.408c.661,0,1.195.346,1.195.85V23.934Z" fill="#a21d36"></path>
    <path id="Path_5870" data-name="Path 5870" d="M80.892,7.139c-3.837.031-5.944,2.013-5.944,5.315v11.48c0,.5.566.849,1.258.849v.409H70.324v-.378c.661,0,1.259-.346,1.259-.849V13.649c0-5.535,3.805-7.579,9.309-7.611,5.5.032,9.309,2.076,9.309,7.611V23.965c0,.5.6.849,1.259.849v.409H85.578v-.409c.661,0,1.258-.346,1.258-.849V12.454c-.031-3.3-2.138-5.284-5.944-5.315" fill="#a21d36"></path>
    <path id="Path_5871" data-name="Path 5871" d="M28.526,15.128a11.147,11.147,0,0,1,.283-3.114,8.66,8.66,0,0,1,8.146-5.975,8.975,8.975,0,0,1,.943-.032,7.952,7.952,0,0,1,.975.1l.6.062c.5.032.912-.5.975-1.163h.409v5.661h-.409c0-.723-.22-2.862-1.7-3.3-.189-.063-.346-.1-.535-.158-.22-.031-.44-.063-.692-.094a6.988,6.988,0,0,0-1.29.094c-3.459.5-4.371,3.4-4.371,6.039V23.934c0,.5.629.849,1.447.849v.409H27.268v-.44c.692,0,1.258-.346,1.258-.849Z" fill="#a21d36"></path>
    <path id="Path_5872" data-name="Path 5872" d="M0,33.747H3.963V34.6H.944v1.447h2.7v.849H.944v2.17H0Z" fill="#a21d36"></path>
    <path id="Path_5873" data-name="Path 5873" d="M8.02,36.955l-.912-2.139L6.2,36.955ZM6.668,33.684h.881l2.358,5.378H8.9l-.535-1.289H5.85l-.534,1.289H4.341Z" fill="#a21d36"></path>
    <path id="Path_5874" data-name="Path 5874" d="M10.662,38.276l.566-.66a2.431,2.431,0,0,0,1.7.691c.567,0,.944-.251.944-.66,0-.377-.22-.6-1.195-.818-1.132-.283-1.761-.6-1.761-1.6a1.625,1.625,0,0,1,1.824-1.541,3.01,3.01,0,0,1,1.918.661l-.5.723a2.5,2.5,0,0,0-1.447-.535c-.534,0-.88.283-.88.629,0,.409.251.6,1.258.85,1.132.283,1.7.691,1.7,1.572,0,1.007-.786,1.6-1.918,1.6a3.516,3.516,0,0,1-2.2-.912" fill="#a21d36"></path>
    <path id="Path_5875" data-name="Path 5875" d="M110.047,38.276l.566-.66a2.431,2.431,0,0,0,1.7.691c.567,0,.944-.251.944-.66,0-.377-.22-.6-1.195-.818-1.132-.283-1.761-.6-1.761-1.6a1.625,1.625,0,0,1,1.824-1.541,3.01,3.01,0,0,1,1.918.661l-.5.723a2.5,2.5,0,0,0-1.447-.535c-.534,0-.88.283-.88.629,0,.409.251.6,1.258.85,1.132.283,1.7.691,1.7,1.572,0,1.007-.786,1.6-1.918,1.6a3.516,3.516,0,0,1-2.2-.912" fill="#a21d36"></path>
    <path id="Path_5876" data-name="Path 5876" d="M16.134,33.747h.912v2.2h2.548v-2.2h.943v5.315h-.943V36.829H17.046v2.233h-.912Z" fill="#a21d36"></path>
    <rect id="Rectangle_552" data-name="Rectangle 552" width="0.944" height="5.315" transform="translate(22.173 33.747)" fill="#a21d36"></rect>
    <path id="Path_5877" data-name="Path 5877" d="M29.124,36.42h0A1.848,1.848,0,0,0,27.3,34.5a1.8,1.8,0,0,0-1.793,1.888,1.821,1.821,0,0,0,1.824,1.887,1.752,1.752,0,0,0,1.793-1.856m-4.592,0h0a2.74,2.74,0,0,1,2.8-2.768A2.688,2.688,0,0,1,30.1,36.389a2.739,2.739,0,0,1-2.8,2.767,2.706,2.706,0,0,1-2.768-2.736" fill="#a21d36"></path>
    <path id="Path_5878" data-name="Path 5878" d="M31.482,33.747h.849l2.862,3.68v-3.68h.944v5.315H35.35l-2.956-3.805v3.805h-.912Z" fill="#a21d36"></path>
    <rect id="Rectangle_553" data-name="Rectangle 553" width="0.944" height="5.315" transform="translate(37.773 33.747)" fill="#a21d36"></rect>
    <path id="Path_5879" data-name="Path 5879" d="M40.352,33.747h.881l2.862,3.68v-3.68h.912v5.315H44.22L41.3,35.257v3.805h-.944Z" fill="#a21d36"></path>
    <path id="Path_5880" data-name="Path 5880" d="M46.359,36.42h0A2.705,2.705,0,0,1,49.1,33.652a2.792,2.792,0,0,1,2.045.724l-.6.723a2.1,2.1,0,0,0-1.478-.566,1.908,1.908,0,0,0,.094,3.806,2.111,2.111,0,0,0,1.29-.409V36.923H49.1V36.1H51.36v2.234a3.492,3.492,0,0,1-2.233.817,2.651,2.651,0,0,1-2.768-2.736" fill="#a21d36"></path>
    <path id="Path_5881" data-name="Path 5881" d="M58.562,36.515c.723,0,1.164-.409,1.164-.944,0-.629-.441-.943-1.164-.943h-1.1v1.918Zm-2.013-2.768h2.107a1.8,1.8,0,0,1,2.013,1.793,1.894,1.894,0,0,1-2.139,1.824H57.461v1.7h-.943V33.747Z" fill="#a21d36"></path>
    <path id="Path_5882" data-name="Path 5882" d="M66.2,36.42h0A1.848,1.848,0,0,0,64.38,34.5a1.8,1.8,0,0,0-1.793,1.888,1.821,1.821,0,0,0,1.824,1.887A1.752,1.752,0,0,0,66.2,36.42m-4.592,0h0a2.74,2.74,0,0,1,2.8-2.768,2.688,2.688,0,0,1,2.768,2.737,2.739,2.739,0,0,1-2.8,2.767,2.706,2.706,0,0,1-2.768-2.736" fill="#a21d36"></path>
    <path id="Path_5883" data-name="Path 5883" d="M68.186,38.276l.566-.66a2.431,2.431,0,0,0,1.7.691c.567,0,.944-.251.944-.66,0-.377-.22-.6-1.195-.818-1.132-.283-1.761-.6-1.761-1.6a1.625,1.625,0,0,1,1.824-1.541,3.169,3.169,0,0,1,1.95.661l-.5.723a2.5,2.5,0,0,0-1.447-.535c-.535,0-.881.283-.881.629,0,.409.252.6,1.258.85,1.132.283,1.7.691,1.7,1.572,0,1.007-.787,1.6-1.919,1.6a3.6,3.6,0,0,1-2.233-.912" fill="#a21d36"></path>
    <path id="Path_5884" data-name="Path 5884" d="M73.281,38.276l.566-.66a2.431,2.431,0,0,0,1.7.691c.567,0,.944-.251.944-.66,0-.377-.22-.6-1.195-.818-1.132-.283-1.761-.6-1.761-1.6a1.625,1.625,0,0,1,1.824-1.541,3.01,3.01,0,0,1,1.918.661l-.5.723a2.5,2.5,0,0,0-1.447-.535c-.534,0-.88.283-.88.629,0,.409.251.6,1.258.85,1.132.283,1.7.691,1.7,1.572,0,1.007-.786,1.6-1.918,1.6a3.587,3.587,0,0,1-2.2-.912" fill="#a21d36"></path>
    <rect id="Rectangle_554" data-name="Rectangle 554" width="0.944" height="5.315" transform="translate(78.816 33.747)" fill="#a21d36"></rect>
    <path id="Path_5885" data-name="Path 5885" d="M83.88,38.244c.629,0,1.037-.251,1.037-.723,0-.44-.345-.723-1.1-.723H82.339v1.446H83.88M83.6,35.98c.6,0,1.006-.252,1.006-.723,0-.409-.346-.692-.944-.692H82.307V35.98Zm-2.2-2.233h2.39a1.841,1.841,0,0,1,1.384.472,1.289,1.289,0,0,1,.346.88,1.335,1.335,0,0,1-.755,1.2,1.313,1.313,0,0,1,1.07,1.289c0,.944-.787,1.447-1.982,1.447H81.395Z" fill="#a21d36"></path>
    <rect id="Rectangle_555" data-name="Rectangle 555" width="0.944" height="5.315" transform="translate(87.182 33.747)" fill="#a21d36"></rect>
    <path id="Path_5886" data-name="Path 5886" d="M89.761,33.747H90.7v4.466h2.8v.849H89.761Z" fill="#a21d36"></path>
    <rect id="Rectangle_556" data-name="Rectangle 556" width="0.944" height="5.315" transform="translate(94.762 33.747)" fill="#a21d36"></rect>
    <path id="Path_5887" data-name="Path 5887" d="M98.662,34.6h-1.7v-.849h4.34V34.6h-1.7v4.466h-.944Z" fill="#a21d36"></path>
    <rect id="Rectangle_557" data-name="Rectangle 557" width="0.944" height="5.315" transform="translate(102.562 33.747)" fill="#a21d36"></rect>
    <path id="Path_5888" data-name="Path 5888" d="M105.141,33.747H109.1v.818h-3.019v1.384h2.673V36.8h-2.673v1.415h3.05v.849h-3.994Z" fill="#a21d36"></path>
  </g>
</svg>
