<?xml version="1.0" encoding="UTF-8"?>
<svg xmlns="http://www.w3.org/2000/svg" xmlns:xlink="http://www.w3.org/1999/xlink" width="86.395" height="43.542" viewBox="0 0 86.395 43.542">
  <defs>
    <clipPath id="clip-path">
      <path id="Path_6049" data-name="Path 6049" d="M61.255,23.251c-.1-.278.183-.314.363-.381.168-.163.015-.292.2-.394a1.115,1.115,0,0,1,.809-.04c.241.036.34.173.324.306-.088.244-.164.457-.506.5a1.038,1.038,0,0,1-.246-.013,1.486,1.486,0,0,0-.266-.017c-.233.015-.441.063-.569.063a.167.167,0,0,1-.111-.027M52.278,22.5c.211-.118.409-.237.648-.079a.309.309,0,0,1,.163.454c-.066.14-.585.148-.682.213-.22.051-.214-.086-.373-.092-.389-.018-.5-.233-.32-.356a.5.5,0,0,0,.12.014.918.918,0,0,0,.444-.154m-7.215-.533c.163-.1.3-.211.48-.095.24.128-.025.241-.1.394s-.261.166-.36.232c-.321.133-.733-.191-.449-.387h.039a.706.706,0,0,0,.388-.145m13.96.211c-.173-.031-.147-.1-.229-.187-.1-.107.048-.265.2-.353.295-.087.55-.024.574.148a.25.25,0,0,1-.181.287c-.136.033-.165.11-.294.11a.557.557,0,0,1-.066-.005m4.053-.02c-.179,0-.237-.265-.221-.378.081-.233.345-.3.766,0,.422,0,.691.239.646.369-.034.189-.151.186-.266.155-.3-.018-.222-.216-.465-.219-.1.005-.2.091-.35.091a.4.4,0,0,1-.11-.015m-7.055-.527c.278-.018.556-.1.75-.09.255.01.391.079.312.317a.855.855,0,0,1-.636.2c-.255-.038-.353-.068-.5-.09a3.136,3.136,0,0,1-.806.029c-.177,0-.15-.234-.106-.321.051-.148.192-.112.446-.076a2.65,2.65,0,0,0,.4.032c.044,0,.09,0,.137,0m4.325.245c-.194-.009-.114-.195-.195-.281-.1-.106-.253-.04-.253-.239.122-.306,1.093-.165,1.111.111a.234.234,0,0,1-.242.284c-.146,0-.221.129-.373.129a.274.274,0,0,1-.048,0m-3.685-1.345c.177,0,.2.1.184.216.028.151-.189.077-.25.186-.134.241-.327.286-.63.259-.291-.06-.464-.239-.421-.368a.257.257,0,0,1,.321-.212c.3.019.261.2.409.219.129,0,.172-.362.387-.3m-3.856.258a.228.228,0,0,1-.232-.263c.078-.232.365-.311.769-.275.292.061.554.248.48.422a.248.248,0,0,1-.318.2c-.149-.034-.2-.183-.349-.2-.111,0-.13.129-.266.129a.313.313,0,0,1-.084-.013M.964,27.957A.262.262,0,0,0,1,28.3a1.868,1.868,0,0,0,1.447-.388,1.154,1.154,0,0,1,1.4-.546.438.438,0,0,1-.049.418.615.615,0,0,1-.363,0,.527.527,0,0,0-.442.042c-.22.376-.748.437-1.106.639L1.2,28.98a.6.6,0,0,0-.491-.026.773.773,0,0,0-.484.573A.371.371,0,0,0,.5,29.461c.112-.061.216-.123.314-.014-.024.192-.534.2-.512.438.03.085.13.061.232.036s.177-.042.227.006c.083.083-.135.336,0,.416a.337.337,0,0,0,.341-.015c.225-.036.279-.318.527-.39.077-.006.151,0,.224,0a1.374,1.374,0,0,0,.432-.045c-.08-.2.079-.247.106-.373.92-.008.44-.53,1.468-.867a.85.85,0,0,1,.408-.049c.279.01.555.02.652-.457.983.367,1.1-.484,1.763-.686.284.287.472.2.624.114.125-.072.227-.144.339-.007,0,.25-.159.416-.646.46a4.064,4.064,0,0,0-1.909,1.124c-.665-.01-.96.058-.855.415.539.592.914-.228,1.37-.344.551-.044.806-.659,1.25-.788.138-.024.225.076.308.176s.185.227.346.155c.381-.094.211-.363.392-.525.128-.117.453-.039.6-.24a.651.651,0,0,1,.711-.253c.157.3-.478.286-.764.9-.277.4-.894.629-.822.814.061.119.181.084.344.022a2.542,2.542,0,0,0,.916-.676c.335-.468.816-.529,1.072-.754s.279-.511.361-.522.177-.048.229.234c.013.075.1.064.2.053a.335.335,0,0,1,.226.023c.082.064.046.354-.125.563-.063.077-.217.048-.387.02a.672.672,0,0,0-.493.033c-.436.337-.5.873-1.191,1.187-.136.059-.835.515-.259.53.043,0,.074-.183.214-.239a.412.412,0,0,1,.174-.009.381.381,0,0,0,.376-.126.66.66,0,0,1,.6-.278.235.235,0,0,0,.1-.006c.134-.063-.015-.5.218-.571.27-.086.7-.505.755-.129.01.075-.254.43-.057.427.408-.006.7-.241,1.038-.214.2.018-.032-.388.177-.436a.659.659,0,0,1,.359.063.746.746,0,0,0,.371.063c.3-.053.3-.576.639-.644.156-.031.2.05.259.13a.271.271,0,0,0,.274.135c.353-.022.687-.409,1.131-.355.632.075.665-.165,1.058-.454a.293.293,0,0,1,.324-.039.431.431,0,0,0,.42-.057c.343-.209.417-.114.509-.02a.284.284,0,0,0,.306.095c.123-.026-.069-.339.142-.388a.224.224,0,0,1,.144.023c.126.045.289.092.8-.443.3-.254.358-.1.458.053a.342.342,0,0,0,.317.187c.2-.007.1-.489.348-.58.21-.075.309.038.405.152.079.094.156.189.293.172.3-.035.353-.341.628-.22.158.069.214-.051.3-.172a.349.349,0,0,1,.456-.167c.6.2.6-.29,1.018-.4.274-.073.206.288.43.3.294.017.154-.325.6-.343.2-.011.036-.171.221-.253a.522.522,0,0,1,.324.027.86.86,0,0,0,.384.037c.177-.029.26-.249.436-.333a.6.6,0,0,1,.339-.018.529.529,0,0,0,.254,0c.145-.056.15.041.163.138.01.079.024.158.125.153.265-.018.413-.557.623-.6.3-.061.027.485.312.486.217,0,.572-.505.765-.6a.365.365,0,0,1,.229.021.608.608,0,0,0,.172.034c.122,0,.2-.1.287-.054.12.062.124.166.248.164.257,0,.261-.4.479-.4s.037.5.4.515c.4.016.5-.277.844-.35.143-.03.525-.3.662-.218.12.07.09.439.207.417.226-.044.208-.58.406-.6.075-.009.32-.1.444.014s-.163.422.2.421c.466,0,.329-.509,1.3-.7a4.661,4.661,0,0,1,.8-.11c.189,0,.361.063.449.057.4-.027,1-.422,1.033-.181s-1.156.432-1,.74c.187.361.968-.447,1.36-.489a.746.746,0,0,1,.746.093.766.766,0,0,0,.58.138c.917-.089.791-.886,1.335-.974.631-.092-.026.4.453.519a1.628,1.628,0,0,0,1.289-.129,2.212,2.212,0,0,1,.959-.214,3.733,3.733,0,0,1,1.022-.305c.2.185-.2.512.345.553a2.691,2.691,0,0,0,1-.179.867.867,0,0,1,.74-.651c.6-.162.58.237.381.419-.165.155-.223.277.019.44a.349.349,0,0,0,.239-.146c.073-.079.141-.157.216-.146.13,0,.136.22.364.3.314-.033.265-.6.771-.153.087.075.173.009.267-.059a.319.319,0,0,1,.239-.09c.155.035.424-.022.538.11s-.186.436.189.479c.2.01.177-.294.332-.444.093-.092.173-.086.235-.225.041-.166-.632-.5.24-.765.779-.029.137.4.57.657a.892.892,0,0,0,.372-.048c.245-.067.454-.135.464.225.006.219-.609.151-.519.448.236.235.669-.307,1.381-.388.219-.025.39-.073.444.046.019.254-.265.213-.243.416.056.1.187.079.32.056a.916.916,0,0,1,.175-.021c.152-.016.16-.116.177-.269-.043-.11.191-.065.568-.021a5.134,5.134,0,0,0,1.055.031c.219-.019.365.138.514.148a1.84,1.84,0,0,0,.577-.066c.342-.076.671-.151.883.118.052.085.477.085.932.085.575,0,1.2,0,1.2.17.144.329-.772.231-1.127.351-.256.051-.506.136-.313.394.073.124.236.11.423.1.3-.409.94-.128,1.364-.329.162-.167.28-.473.764-.433a.432.432,0,0,1,.437.263,1.8,1.8,0,0,0,.367,0c.379-.023.8-.046.969.48.227-.061.6-.519.9.12a1.32,1.32,0,0,1,1.568.3A3.066,3.066,0,0,1,65,25.82a7.717,7.717,0,0,1,1.739.062c.51-.055.547.167.452.418.14.075.222.11.313.425a4.4,4.4,0,0,0,.869-.031,2.636,2.636,0,0,1,1.208.059c.34.166.893.272,1.019.5-.008.059-.207.028-.422,0-.268-.039-.559-.079-.515.06.029.116.629.2.893.468.316.156.2-.033.526-.061.076-.007.217.115.345.119a.744.744,0,0,0,.209-.028c.088-.021.16-.043.194-.016.1.08-.075.241.162.382.161.1.41,0,.583.133a.213.213,0,0,0,.169.027.177.177,0,0,1,.148.022c.087.072.108.259.2.287.24.143.5.067.792.132a2.793,2.793,0,0,1,1.39.734.952.952,0,0,0,.506-.032.738.738,0,0,1,.5-.017c.212.076.287.4.708.664a.629.629,0,0,0,.443.027,1.166,1.166,0,0,1,.446-.008,1.629,1.629,0,0,0,.976.035c.061-.32-.681-.437-1.1-.329-.709.306-.455-.339-.707-.388-.68-.132-1.059-.377-.886-.989.1-.136.355-.1.492.292.019.057.114.049.211.04a.355.355,0,0,1,.2.017c.157.123.183.366.361.458a.288.288,0,0,0,.256-.017.253.253,0,0,1,.233-.018c.253.161.526.17.607.088.115-.235-.23-.628-.916-.63-.294,0-.345-.5-.566-.553a8.075,8.075,0,0,0-1-.108c-.322-.164-.643-.331-.963-.5-.149-.1-.305-.137-.407.031.021.292-.238.281-.485.247a1.952,1.952,0,0,1-.879-.394c-.094-.107.2-.432-.205-.479a2.011,2.011,0,0,1-1.077-.189c-.183-.24-.036-.211.139-.182.16.026.344.052.321-.131.179-.264-3.086-.483-2.717-.983.326.051.632.078.956.129.19-.1.123-.317-.133-.392a8.231,8.231,0,0,0-1.31-.258,1.321,1.321,0,0,0-.642.166,1.368,1.368,0,0,1-.7.164c-.29-.051-.935-.28-.472-.429.255-.085.2-.325-.1-.41a.791.791,0,0,0-.17.017.489.489,0,0,1-.307-.013c-.134-.088-.086-.3-.279-.31a.416.416,0,0,0-.237.124c-.093.073-.185.147-.265.116-.154-.055-.1-.3-.236-.371a.357.357,0,0,0-.215-.013.649.649,0,0,1-.145.008,1.226,1.226,0,0,0-.555-.006c-.7.3-1.255,0-1.958-.093-.238-.075-.329-.218-.073-.325.147.014.556.076.635-.078.043-.094-.264-.419-.164-.455.031-.01.132.061.234.131s.208.145.242.13a2.029,2.029,0,0,1,.352-.19c.047-.008.117.057.188.123s.142.132.19.121c.154-.032.288-.227.419-.224.534.013.777.547,1.3.612a4.653,4.653,0,0,0,.7-.127c.491-.026,0,.343.4.472a1.705,1.705,0,0,0,.8-.021,2.012,2.012,0,0,1,.646-.052c.232.042,0,.545.307.566.256.087.389-.258.624-.284.166-.016.3.262.421.282a.353.353,0,0,0,.266-.105c.089-.067.174-.135.265-.1s.163.144.269.175.237-.017.331.063c.21.182-.157.442.309.5.175.022.382-.244.544-.261.267-.026.168.231.246.281.03.02.08-.03.137-.079.075-.065.163-.131.232-.037.124.17-.348.506-.03.658.124.058.36-.227.556-.271.132-.028.24.17.3.223s.423.057.557.1c.186.063.489.114.43.283-.021.062-.269.044-.519.028a2.369,2.369,0,0,0-.474,0c-.23.049.039.276.07.288.486,0,.933.341,1.475.028.327-.152.207.2.489.217a.762.762,0,0,0,.233.012c.162-.007.326-.014.379.14.071.187-.407.271-.261.68.127.09.2.011.275-.068.049-.056.094-.111.151-.11.136,0,.282.249.417.255.112.075.256.015.355.088s.152.292.263.369a.561.561,0,0,0,.214-.052.6.6,0,0,1,.213-.053c.143,0,.28.176.448.121.014-.018.073-.314-.065-.382a.527.527,0,0,0-.276.01.6.6,0,0,1-.354,0c-.475-.245-.988-.553-.792-.76a.461.461,0,0,1,.406-.1.52.52,0,0,1,.217.171.832.832,0,0,0,.245.2.544.544,0,0,0,.281.021.562.562,0,0,1,.258.012c.274.124.417.388.437.362.089.042.142-.008.2-.058.084-.076.176-.153.422.1.084.153.307.185.414.321.119.153.113.493.351.487.167,0-.09-.576.076-.583.13,0,.54.522.815.552a.551.551,0,0,0,.386.037.554.554,0,0,1,.385.036c.166.113.2.586.364.7A.307.307,0,0,0,82.4,29a.31.31,0,0,1,.266-.07c.212.064.537.454.75.517.233.12.748.047.986.152.366.164.105.462.4.557a.515.515,0,0,0,.292-.033.507.507,0,0,1,.29-.035c.288.069.453.587.923.436a.2.2,0,0,0-.049-.231,76.867,76.867,0,0,0-44.112-13.56A80.65,80.65,0,0,0,.964,27.957" fill="none"></path>
    </clipPath>
    <linearGradient id="linear-gradient" x1="-0.003" y1="1.923" x2="0.009" y2="1.923" gradientUnits="objectBoundingBox">
      <stop offset="0" stop-color="#059fd8"></stop>
      <stop offset="0.18" stop-color="#029bd6"></stop>
      <stop offset="0.399" stop-color="#0d8ccb"></stop>
      <stop offset="0.638" stop-color="#0e75bb"></stop>
      <stop offset="0.889" stop-color="#1e54a4"></stop>
      <stop offset="1" stop-color="#1d4597"></stop>
    </linearGradient>
    <clipPath id="clip-path-2">
      <path id="Path_6050" data-name="Path 6050" d="M61.255,23.251c-.1-.278.183-.314.363-.381.168-.163.015-.292.2-.394a1.115,1.115,0,0,1,.809-.04c.241.036.34.173.324.306-.088.244-.164.457-.506.5a1.038,1.038,0,0,1-.246-.013,1.486,1.486,0,0,0-.266-.017c-.234.015-.442.063-.569.063a.173.173,0,0,1-.111-.027M52.278,22.5c.211-.118.409-.237.648-.079a.309.309,0,0,1,.163.454c-.066.14-.585.148-.682.213-.22.051-.214-.086-.373-.092-.389-.018-.5-.233-.32-.356a.5.5,0,0,0,.12.014h0a.914.914,0,0,0,.441-.154m-7.215-.533c.163-.1.3-.211.48-.095.24.128-.025.241-.1.394s-.261.166-.36.232c-.321.133-.733-.191-.449-.387l.039,0a.707.707,0,0,0,.388-.146m13.96.211c-.173-.031-.147-.1-.229-.187-.1-.107.048-.265.2-.353.294-.087.549-.024.573.148a.25.25,0,0,1-.181.287c-.136.033-.165.11-.294.11a.542.542,0,0,1-.066-.005m4.053-.02c-.179,0-.237-.265-.221-.378.081-.233.345-.3.766,0,.422,0,.691.239.646.369-.034.189-.151.186-.266.155-.3-.018-.222-.216-.465-.219-.1.005-.2.091-.351.091a.4.4,0,0,1-.109-.015m-7.055-.527c.278-.018.556-.1.75-.09.255.01.391.079.312.317a.855.855,0,0,1-.636.2c-.255-.038-.353-.068-.5-.09a3.136,3.136,0,0,1-.806.029c-.177,0-.15-.234-.106-.321.051-.148.192-.112.446-.076a2.639,2.639,0,0,0,.4.032c.044,0,.09,0,.137,0m4.325.245c-.194-.009-.114-.195-.195-.281-.1-.106-.253-.04-.253-.239.122-.306,1.093-.165,1.111.111a.234.234,0,0,1-.242.284c-.146,0-.22.129-.372.129a.277.277,0,0,1-.049,0m-3.685-1.345c.177,0,.2.1.184.216.028.151-.189.077-.25.186-.134.241-.327.286-.63.259-.291-.06-.464-.239-.421-.368a.257.257,0,0,1,.321-.212c.3.019.261.2.409.219.129,0,.172-.362.387-.3m-3.856.258a.227.227,0,0,1-.232-.263c.078-.232.365-.311.769-.275.292.061.554.248.48.422a.248.248,0,0,1-.318.2c-.149-.034-.2-.183-.349-.2-.111,0-.131.129-.266.129a.313.313,0,0,1-.084-.013M.964,27.957A.262.262,0,0,0,1,28.3a1.868,1.868,0,0,0,1.447-.388,1.154,1.154,0,0,1,1.4-.546.438.438,0,0,1-.049.418.615.615,0,0,1-.363,0,.527.527,0,0,0-.442.042c-.22.376-.748.437-1.106.639L1.2,28.98a.6.6,0,0,0-.491-.026.773.773,0,0,0-.484.573A.371.371,0,0,0,.5,29.461c.112-.061.216-.123.314-.014-.024.192-.534.2-.512.438.03.085.13.061.232.036s.177-.042.227.006c.083.083-.135.336,0,.416a.337.337,0,0,0,.341-.015c.225-.036.279-.318.527-.39.077-.006.151,0,.224,0a1.374,1.374,0,0,0,.432-.045c-.08-.2.079-.247.106-.373.92-.008.44-.53,1.468-.867a.85.85,0,0,1,.408-.049c.279.01.555.02.652-.457.983.367,1.1-.484,1.763-.686.284.287.472.2.624.114.125-.072.227-.144.339-.007,0,.25-.159.416-.646.46a4.064,4.064,0,0,0-1.909,1.124c-.665-.01-.96.058-.855.415.539.592.914-.228,1.37-.344.551-.044.806-.659,1.25-.788.138-.024.225.076.308.176s.185.227.346.155c.381-.094.211-.363.392-.525.128-.117.453-.039.6-.24a.651.651,0,0,1,.711-.253c.157.3-.478.286-.764.9-.277.4-.894.629-.822.814.061.119.181.084.344.022a2.542,2.542,0,0,0,.916-.676c.335-.468.816-.529,1.072-.754s.279-.511.361-.522.177-.048.229.234c.013.075.1.064.2.053a.335.335,0,0,1,.226.023c.082.064.046.354-.125.563-.063.077-.217.048-.387.02a.672.672,0,0,0-.493.033c-.436.337-.5.873-1.191,1.187-.136.059-.835.515-.259.53.043,0,.074-.183.214-.239a.412.412,0,0,1,.174-.009.381.381,0,0,0,.376-.126.66.66,0,0,1,.6-.278.235.235,0,0,0,.1-.006c.134-.063-.015-.5.218-.571.27-.086.7-.505.755-.129.01.075-.254.43-.057.427.408-.006.7-.241,1.038-.214.2.018-.032-.388.177-.436a.659.659,0,0,1,.359.063.746.746,0,0,0,.371.063c.3-.053.3-.576.639-.644.156-.031.2.05.259.13a.271.271,0,0,0,.274.135c.353-.022.687-.409,1.131-.355.632.075.665-.165,1.058-.454a.293.293,0,0,1,.324-.039.431.431,0,0,0,.42-.057c.343-.209.417-.114.509-.02a.284.284,0,0,0,.306.095c.123-.026-.069-.339.142-.388a.224.224,0,0,1,.144.023c.126.045.289.092.8-.443.3-.254.358-.1.458.053a.342.342,0,0,0,.317.187c.2-.007.1-.489.348-.58.21-.075.309.038.405.152.079.094.156.189.293.172.3-.035.353-.341.628-.22.158.069.214-.051.3-.172a.349.349,0,0,1,.456-.167c.6.2.6-.29,1.018-.4.274-.073.206.288.43.3.294.017.154-.325.6-.343.2-.011.036-.171.221-.253a.522.522,0,0,1,.324.027.86.86,0,0,0,.384.037c.177-.029.26-.249.436-.333a.6.6,0,0,1,.339-.018.529.529,0,0,0,.254,0c.145-.056.15.041.163.138.01.079.024.158.125.153.265-.018.413-.557.623-.6.3-.061.027.485.312.486.217,0,.572-.505.765-.6a.365.365,0,0,1,.229.021.608.608,0,0,0,.172.034c.122,0,.2-.1.287-.054.12.062.124.166.248.164.257,0,.261-.4.479-.4s.037.5.4.515c.4.016.5-.277.844-.35.143-.03.525-.3.662-.218.12.07.09.439.207.417.226-.044.208-.58.406-.6.075-.009.32-.1.444.014s-.163.422.2.421c.466,0,.329-.509,1.3-.7a4.661,4.661,0,0,1,.8-.11c.189,0,.361.063.449.057.4-.027,1-.422,1.033-.181s-1.156.432-1,.74c.187.361.968-.447,1.36-.489a.746.746,0,0,1,.746.093.766.766,0,0,0,.58.138c.917-.089.791-.886,1.335-.974.631-.092-.026.4.453.519a1.628,1.628,0,0,0,1.289-.129,2.212,2.212,0,0,1,.959-.214,3.733,3.733,0,0,1,1.022-.305c.2.185-.2.512.345.553a2.691,2.691,0,0,0,1-.179.867.867,0,0,1,.74-.651c.6-.162.58.237.381.419-.165.155-.223.277.019.44a.349.349,0,0,0,.239-.146c.073-.079.141-.157.216-.146.13,0,.136.22.364.3.314-.033.265-.6.771-.153.087.075.173.009.267-.059a.319.319,0,0,1,.239-.09c.155.035.424-.022.538.11s-.186.436.189.479c.2.01.177-.294.332-.444.093-.092.173-.086.235-.225.041-.166-.632-.5.24-.765.779-.029.137.4.57.657a.892.892,0,0,0,.372-.048c.245-.067.454-.135.464.225.006.219-.609.151-.519.448.236.235.669-.307,1.381-.388.219-.025.39-.073.444.046.019.254-.265.213-.243.416.056.1.187.079.32.056a.916.916,0,0,1,.175-.021c.152-.016.16-.116.177-.269-.043-.11.191-.065.568-.021a5.134,5.134,0,0,0,1.055.031c.219-.019.365.138.514.148a1.84,1.84,0,0,0,.577-.066c.342-.076.671-.151.883.118.052.085.477.085.932.085.575,0,1.2,0,1.2.17.144.329-.772.231-1.127.351-.256.051-.506.136-.313.394.073.124.236.11.423.1.3-.409.94-.128,1.364-.329.162-.167.28-.473.764-.433a.432.432,0,0,1,.437.263,1.8,1.8,0,0,0,.367,0c.379-.023.8-.046.969.48.227-.061.6-.519.9.12a1.32,1.32,0,0,1,1.568.3A3.066,3.066,0,0,1,65,25.82a7.717,7.717,0,0,1,1.739.062c.51-.055.547.167.452.418.14.075.222.11.313.425a4.4,4.4,0,0,0,.869-.031,2.636,2.636,0,0,1,1.208.059c.34.166.893.272,1.019.5-.008.059-.207.028-.422,0-.268-.039-.559-.079-.515.06.029.116.629.2.893.468.316.156.2-.033.526-.061.076-.007.217.115.345.119a.744.744,0,0,0,.209-.028c.088-.021.16-.043.194-.016.1.08-.075.241.162.382.161.1.41,0,.583.133a.213.213,0,0,0,.169.027.177.177,0,0,1,.148.022c.087.072.108.259.2.287.24.143.5.067.792.132a2.793,2.793,0,0,1,1.39.734.952.952,0,0,0,.506-.032.738.738,0,0,1,.5-.017c.212.076.287.4.708.664a.629.629,0,0,0,.443.027,1.166,1.166,0,0,1,.446-.008,1.629,1.629,0,0,0,.976.035c.061-.32-.681-.437-1.1-.329-.709.306-.455-.339-.707-.388-.68-.132-1.059-.377-.886-.989.1-.136.355-.1.492.292.019.057.114.049.211.04a.355.355,0,0,1,.2.017c.157.123.183.366.361.458a.288.288,0,0,0,.256-.017.253.253,0,0,1,.233-.018c.253.161.526.17.607.088.115-.235-.23-.628-.916-.63-.294,0-.345-.5-.566-.553a8.075,8.075,0,0,0-1-.108c-.322-.164-.643-.331-.963-.5-.149-.1-.305-.137-.407.031.021.292-.238.281-.485.247a1.952,1.952,0,0,1-.879-.394c-.094-.107.2-.432-.205-.479a2.011,2.011,0,0,1-1.077-.189c-.183-.24-.036-.211.139-.182.16.026.344.052.321-.131.179-.264-3.086-.483-2.717-.983.326.051.632.078.956.129.19-.1.123-.317-.133-.392a8.231,8.231,0,0,0-1.31-.258,1.321,1.321,0,0,0-.642.166,1.368,1.368,0,0,1-.7.164c-.29-.051-.935-.28-.472-.429.255-.085.2-.325-.1-.41a.791.791,0,0,0-.17.017.489.489,0,0,1-.307-.013c-.134-.088-.086-.3-.279-.31a.416.416,0,0,0-.237.124c-.093.073-.185.147-.265.116-.154-.055-.1-.3-.236-.371a.357.357,0,0,0-.215-.013.649.649,0,0,1-.145.008,1.226,1.226,0,0,0-.555-.006c-.7.3-1.255,0-1.958-.093-.238-.075-.329-.218-.073-.325.147.014.557.076.635-.078.043-.094-.264-.419-.165-.455.032-.01.133.061.235.131s.208.145.242.13a2.029,2.029,0,0,1,.352-.19c.047-.008.117.057.188.123s.142.132.19.121c.154-.032.288-.227.419-.224.534.013.777.547,1.3.612a4.653,4.653,0,0,0,.7-.127c.491-.026,0,.343.4.472a1.705,1.705,0,0,0,.8-.021,2.012,2.012,0,0,1,.646-.052c.232.042,0,.545.307.566.256.087.389-.258.624-.284.166-.016.3.262.421.282a.353.353,0,0,0,.266-.105c.089-.067.174-.135.265-.1s.163.144.269.175.237-.017.331.063c.21.182-.157.442.309.5.175.022.382-.244.544-.261.267-.026.168.231.246.281.03.02.08-.03.137-.079.075-.065.163-.131.232-.037.124.17-.348.506-.03.658.124.058.36-.227.556-.271.132-.028.24.17.3.223s.423.057.557.1c.186.063.489.114.43.283-.021.062-.269.044-.519.028a2.369,2.369,0,0,0-.474,0c-.23.049.039.276.07.288.486,0,.933.341,1.475.028.327-.152.207.2.489.217a.762.762,0,0,0,.233.012c.162-.007.326-.014.379.14.071.187-.407.271-.261.68.127.09.2.011.275-.068.049-.056.094-.111.151-.11.136,0,.282.249.417.255.112.075.256.015.355.088s.152.292.263.369a.561.561,0,0,0,.214-.052.6.6,0,0,1,.213-.053c.143,0,.28.176.448.121.014-.018.073-.314-.065-.382a.527.527,0,0,0-.276.01.6.6,0,0,1-.354,0c-.475-.245-.988-.553-.792-.76a.461.461,0,0,1,.406-.1.52.52,0,0,1,.217.171.832.832,0,0,0,.245.2.544.544,0,0,0,.281.021.562.562,0,0,1,.258.012c.274.124.417.388.437.362.089.042.142-.008.2-.058.084-.076.176-.153.422.1.084.153.307.185.414.321.119.153.113.493.351.487.167,0-.09-.576.076-.583.13,0,.54.522.815.552a.551.551,0,0,0,.386.037.554.554,0,0,1,.385.036c.166.113.2.586.364.7A.307.307,0,0,0,82.4,29a.31.31,0,0,1,.266-.07c.212.064.537.454.75.517.233.12.748.047.986.152.366.164.105.462.4.557a.515.515,0,0,0,.292-.033.507.507,0,0,1,.29-.035c.288.069.453.587.923.436a.2.2,0,0,0-.049-.231,76.867,76.867,0,0,0-44.111-13.56A80.651,80.651,0,0,0,.964,27.957" fill="none"></path>
    </clipPath>
    <linearGradient id="linear-gradient-2" x1="-0.003" y1="1.923" x2="0.009" y2="1.923" xlink:href="#linear-gradient"></linearGradient>
    <clipPath id="clip-path-3">
      <rect id="Rectangle_575" data-name="Rectangle 575" width="86.395" height="43.542" transform="translate(0 0)" fill="none"></rect>
    </clipPath>
  </defs>
  <g id="Group_5237" data-name="Group 5237" transform="translate(-493 -2512)">
    <g id="Group_4564" data-name="Group 4564" transform="translate(493 2512)">
      <g id="Group_4563" data-name="Group 4563" clip-path="url(#clip-path)">
        <rect id="Rectangle_573" data-name="Rectangle 573" width="86.122" height="13.942" transform="translate(0.227 16.735)" fill="url(#linear-gradient)"></rect>
      </g>
    </g>
    <g id="Group_4566" data-name="Group 4566" transform="translate(493 2512)">
      <g id="Group_4565" data-name="Group 4565" clip-path="url(#clip-path-2)">
        <rect id="Rectangle_574" data-name="Rectangle 574" width="86.122" height="13.942" transform="translate(0.227 16.735)" fill="url(#linear-gradient-2)"></rect>
      </g>
    </g>
    <g id="Group_4568" data-name="Group 4568" transform="translate(493 2512)">
      <g id="Group_4567" data-name="Group 4567" clip-path="url(#clip-path-3)">
        <path id="Path_6051" data-name="Path 6051" d="M42.866,0A7.157,7.157,0,0,1,49.9,7.246a7.04,7.04,0,1,1-14.074,0A7.158,7.158,0,0,1,42.866,0" fill="#ffc113" fill-rule="evenodd"></path>
        <path id="Path_6052" data-name="Path 6052" d="M52.563,31.308c.742,0,1.346.448,1.346,1s-.6,1-1.346,1-1.344-.448-1.344-1,.6-1,1.344-1" fill="#204396" fill-rule="evenodd"></path>
        <path id="Path_6053" data-name="Path 6053" d="M18.627,32.517c1.743-.1,4.021.145,4.031,2.241-.01,2.353-2.31,2.471-4.031,2.428ZM15.9,42.869V31.915c.079-.4.157-.435.547-.525,1.6,0,3.226-.03,4.827-.03,3.091.208,4.327,1.929,4.154,3.854-.158,1.731-1.736,3.037-4.324,3.189-.909,0-1.564.057-2.474.057v4.474a.468.468,0,0,1-.457.333h-1.91c-.15-.019-.3-.094-.363-.4" fill="#204396" fill-rule="evenodd"></path>
        <path id="Path_6054" data-name="Path 6054" d="M27.139,34.565h1.885a.335.335,0,0,1,.334.335v8.053a.337.337,0,0,1-.334.335H27.139a.335.335,0,0,1-.333-.335V34.9a.333.333,0,0,1,.333-.335" fill="#204396" fill-rule="evenodd"></path>
        <path id="Path_6055" data-name="Path 6055" d="M28.081,31.308c.74,0,1.345.448,1.345,1s-.605,1-1.345,1-1.345-.448-1.345-1,.6-1,1.345-1" fill="#204396" fill-rule="evenodd"></path>
        <path id="Path_6056" data-name="Path 6056" d="M42.332,34.565h1.884a.333.333,0,0,1,.332.335v8.053a.334.334,0,0,1-.332.335H42.332A.335.335,0,0,1,42,42.953V34.9a.334.334,0,0,1,.334-.335" fill="#204396" fill-rule="evenodd"></path>
        <path id="Path_6057" data-name="Path 6057" d="M43.273,31.308c.742,0,1.347.448,1.347,1s-.6,1-1.347,1-1.346-.448-1.346-1,.606-1,1.346-1" fill="#204396" fill-rule="evenodd"></path>
        <path id="Path_6058" data-name="Path 6058" d="M51.623,34.565h1.884a.335.335,0,0,1,.333.335v8.053a.336.336,0,0,1-.333.335H51.623a.333.333,0,0,1-.333-.335V34.9a.333.333,0,0,1,.333-.335" fill="#204396" fill-rule="evenodd"></path>
        <path id="Path_6059" data-name="Path 6059" d="M46.9,31.321h1.885a.336.336,0,0,1,.334.335v11.3a.337.337,0,0,1-.334.335H46.9a.336.336,0,0,1-.333-.335v-11.3a.337.337,0,0,1,.333-.335" fill="#204396" fill-rule="evenodd"></path>
        <path id="Path_6060" data-name="Path 6060" d="M37.345,36.386c-1.494-1-3.822.085-3.834,2.557.012,3.532,3,3.849,3.834,2.768Zm.332-5.065h1.886a.336.336,0,0,1,.333.335V42.235c0,.184-.123.26-.272.366a6.054,6.054,0,0,1-2.135.813c-.148.034-6.549,1.15-6.4-4.115.323-5.377,5.833-4.654,6.257-3.612V31.656a.336.336,0,0,1,.333-.335" fill="#204396" fill-rule="evenodd"></path>
        <path id="Path_6061" data-name="Path 6061" d="M56.406,32.216l1.872-.962c.207-.109.346.1.346.275v3.036h1.717a.107.107,0,0,1,.1.11v.615a.1.1,0,0,1-.1.11l-1.717,0v5.8c.049,1.2,1.124,1.145,1.812,1.195.573.029.539.606-.173.887a3.905,3.905,0,0,1-3.375-.377,2.1,2.1,0,0,1-.816-1.812V35.4l-1.152,0a.1.1,0,0,1-.1-.1c0-.218,0-.435.008-.653a.1.1,0,0,1,.1-.1l1.146.013V32.551c0-.185.172-.25.334-.335" fill="#204396" fill-rule="evenodd"></path>
        <path id="Path_6062" data-name="Path 6062" d="M68.8,40.516c-1.668,2.017-5.209,1.466-5.322-1.524,1.893-.193,3.807-.425,5.7-.621a.621.621,0,0,0,.58-.826,3.643,3.643,0,0,0-3.93-2.891c-3.519.179-4.607,2.489-4.511,4.672.147,2.78,1.85,4.082,4.554,4.214a4.144,4.144,0,0,0,3.909-2.44c.317-.822-.55-1.329-.98-.584m-3.577-4.592a1.6,1.6,0,0,1,1.946,1.695c-1.152.111-2.6.3-3.749.411a1.969,1.969,0,0,1,1.8-2.106" fill="#204396" fill-rule="evenodd"></path>
      </g>
    </g>
  </g>
</svg>
