<?xml version="1.0" encoding="UTF-8"?>
<svg xmlns="http://www.w3.org/2000/svg" xmlns:xlink="http://www.w3.org/1999/xlink" id="Group_133" data-name="Group 133" width="108.217" height="32" viewBox="0 0 108.217 32">
  <defs>
    <clipPath id="clip-path">
      <rect id="Rectangle_85" data-name="Rectangle 85" width="108.217" height="32" fill="none"></rect>
    </clipPath>
  </defs>
  <g id="Group_132" data-name="Group 132" clip-path="url(#clip-path)">
    <path id="Path_185" data-name="Path 185" d="M16.237,32A16.468,16.468,0,0,1,7.4,29.7,14.844,14.844,0,0,1,.354,19.52,17.442,17.442,0,0,1,.791,10.8,14.878,14.878,0,0,1,7.863,2.236,16.357,16.357,0,0,1,17.012.023,17.3,17.3,0,0,1,29.6,6.154c.039.044.076.09.115.135.393.463.393.462-.056.888Q27.429,9.286,25.208,11.4c-.165.157-.244.15-.392-.013a13.523,13.523,0,0,0-3.87-3.137,9.326,9.326,0,0,0-8.938-.173A8.453,8.453,0,0,0,7.291,16.2,8.788,8.788,0,0,0,9.18,21.756a8.583,8.583,0,0,0,5.585,3.114,9.588,9.588,0,0,0,5.938-.891A14.39,14.39,0,0,0,24.01,21.5c.294-.279.587-.56.866-.852.122-.127.192-.147.325-.007q2.308,2.424,4.63,4.837c.1.1.162.172.025.307a27.138,27.138,0,0,1-5.1,4.087,15.426,15.426,0,0,1-6.36,2.017A19.029,19.029,0,0,1,16.237,32" fill="#0455a4"></path>
    <path id="Path_186" data-name="Path 186" d="M73.022,11.658c-.3.727-.562,1.381-.826,2.036q-3.543,8.784-7.079,17.572a.439.439,0,0,1-.494.323c-2.442-.015-4.884-.015-7.325-.019-.328,0-.33,0-.2-.319q5.962-14.9,11.923-29.79c.091-.229.182-.459.252-.695a.221.221,0,0,1,.255-.181Q73.039.6,76.554.6a.235.235,0,0,1,.26.177C78.2,4.449,79.692,8.08,81.14,11.73q3.88,9.781,7.772,19.559c.125.314.125.315-.207.315-2.461,0-4.923-.012-7.385-.007a.368.368,0,0,1-.408-.273q-2.754-6.9-5.522-13.8-1.124-2.8-2.252-5.6c-.025-.064-.054-.126-.116-.269" fill="#0455a4"></path>
    <path id="Path_187" data-name="Path 187" d="M96.062.6q3.351,0,6.7,0c1.72,0,3.44.014,5.16.008.24,0,.293.073.292.3q-.017,3.392-.009,6.783c0,.255-.052.33-.321.328-2.58-.015-5.16-.013-7.74-.024-.249,0-.36.031-.359.329.007,3.821,0,7.642-.006,11.463q-.006,5.688,0,11.375c0,.27-.076.321-.329.32q-3.4-.015-6.792,0c-.254,0-.3-.074-.3-.313.008-3.525,0-7.05.006-10.575q0-6.132.016-12.264c0-.28-.083-.337-.347-.337-2.59.006-5.18-.007-7.77,0-.281,0-.337-.081-.336-.344q.015-3.348,0-6.7c0-.286.05-.378.363-.377,3.925.013,7.85.009,11.775.009Z" fill="#0955a4"></path>
    <path id="Path_188" data-name="Path 188" d="M43.963,7.51q-5.384,0-10.767.006c-.264,0-.349-.057-.347-.337q.018-3.169,0-6.34c0-.225.047-.3.291-.3q5.889.012,11.776.006c3.283,0,6.565.013,9.847.01.263,0,.351.055.348.337q-.022,3.17-.01,6.34c0,.251-.073.306-.314.3q-5.412-.012-10.826,0Z" fill="#f37a21"></path>
    <path id="Path_189" data-name="Path 189" d="M43.949,19.373q-5.382,0-10.764.005c-.261,0-.352-.052-.35-.335q.02-3.154,0-6.309c0-.26.064-.331.327-.33,3.074.009,6.149,0,9.223.006q6.168.006,12.335.013c.283,0,.388.048.385.368-.021,2.1-.021,4.2-.014,6.308,0,.254-.082.308-.32.307Q49.36,19.4,43.949,19.4v-.028" fill="#f37a21"></path>
    <path id="Path_190" data-name="Path 190" d="M43.955,24.584q5.412,0,10.824,0c.242,0,.315.058.313.308-.01,1.837,0,3.673-.007,5.509,0,.316-.022.631-.019.947,0,.153-.048.211-.2.206-.375-.012-.751-.014-1.126-.014H42.2c-3.015,0-6.03-.009-9.045,0-.275,0-.343-.075-.342-.345q.017-3.155,0-6.308c0-.281.085-.339.349-.339q5.4.013,10.793.006v.038" fill="#f37a21"></path>
  </g>
</svg>
