<?xml version="1.0" encoding="UTF-8"?>
<svg xmlns="http://www.w3.org/2000/svg" xmlns:xlink="http://www.w3.org/1999/xlink" id="Group_4535" data-name="Group 4535" width="113.887" height="43.542" viewBox="0 0 113.887 43.542">
  <defs>
    <clipPath id="clip-path">
      <rect id="Rectangle_550" data-name="Rectangle 550" width="113.887" height="43.542" transform="translate(0 0)" fill="none"></rect>
    </clipPath>
  </defs>
  <g id="Group_4534" data-name="Group 4534" clip-path="url(#clip-path)">
    <path id="Path_5856" data-name="Path 5856" d="M25.638,15.377a6.194,6.194,0,0,0-3.347.755c-2.719,1.53-2.918,4.792-.671,6.949A7.961,7.961,0,0,0,24.136,24.6a3.027,3.027,0,0,1,1.9,3.559,3.117,3.117,0,0,1-3.265,2.4c-3.117-.1-4.818,1.028-6.013,3.974A3.025,3.025,0,0,1,13.341,36.5a3.107,3.107,0,0,1-.458-6.028,3.3,3.3,0,0,1,1.426-.116c2.29.306,5.038-1.135,5.548-3.356.429-1.872-.389-3.281-1.64-4.535a6.248,6.248,0,0,0-2.2-1.285,3.054,3.054,0,0,1-1.339-4.9,2.989,2.989,0,0,1,2.756-1.08,6.01,6.01,0,0,0,3.893-.942A3.992,3.992,0,0,0,22.451,8.4a6.088,6.088,0,0,0-3.037-2.309,3.108,3.108,0,0,1,1.3-6.061,3.192,3.192,0,0,1,2.665,3.452,5.723,5.723,0,0,0,.366,2.645,5.181,5.181,0,0,0,2.982,2.988,4,4,0,0,1,2.254,1.707,3.066,3.066,0,0,1-2.548,4.557c-.262.013-.526,0-.79,0" fill="#1f3f75"></path>
    <path id="Path_5857" data-name="Path 5857" d="M6.931,12.976a5.5,5.5,0,0,0,5.628-3.9,3.082,3.082,0,1,1,5.7,2.31,3.126,3.126,0,0,1-3.3,1.762c-2.369-.328-4.968,1.229-5.5,3.343-.483,1.94.394,3.416,1.763,4.664a5.282,5.282,0,0,0,1.922,1.1,3.127,3.127,0,0,1,2.164,3.609,3.208,3.208,0,0,1-3.489,2.45,5.863,5.863,0,0,0-3.6.791,4.139,4.139,0,0,0-.9,6.624,6.242,6.242,0,0,0,2.548,1.69,3.107,3.107,0,0,1,2.156,3.885,3.265,3.265,0,0,1-3.613,2.184,3.148,3.148,0,0,1-2.458-2.889,9.029,9.029,0,0,0-.209-2.677,5.544,5.544,0,0,0-3.563-3.691A3.017,3.017,0,0,1,.015,31.531a3.083,3.083,0,0,1,3.471-3.4,5.886,5.886,0,0,0,3.876-.971,4.128,4.128,0,0,0,.4-6.669A8.2,8.2,0,0,0,5.33,18.964a3.052,3.052,0,0,1-2.072-3.526,3.166,3.166,0,0,1,3.409-2.474c.088.005.176.008.264.012" fill="#1f3f75"></path>
    <path id="Path_5858" data-name="Path 5858" d="M46.728,15.125a4.653,4.653,0,0,0-3.9-1.73c-2.53-.076-5.062-.017-7.593-.027-.357,0-.535.072-.619.48q-1.693,8.241-3.442,16.472c-.093.434-.007.52.42.515,2.178-.03,4.357-.022,6.535-.04a14.815,14.815,0,0,0,3.722-.4,5.35,5.35,0,0,0,4.2-3.772,3.489,3.489,0,0,0-1.22-4,7.809,7.809,0,0,0-1.813-.768A9.571,9.571,0,0,0,45.01,21.2a4.133,4.133,0,0,0,1.718-6.073M41.119,26.5a3.327,3.327,0,0,1-2.172.97c-.581.1-1.178.1-1.768.141-.827,0-.826,0-.657-.8.209-.984.422-1.968.616-2.955.054-.273.149-.441.461-.437a11.657,11.657,0,0,1,2.624.165,1.74,1.74,0,0,1,.9,2.917m.946-6.9a3.754,3.754,0,0,1-2.519.649c-1.627,0-1.627,0-1.36-1.409.033-.172.07-.344.11-.513.124-.531.086-1.249.42-1.541.4-.354,1.135-.108,1.723-.108a4.711,4.711,0,0,1,1.171.149,1.3,1.3,0,0,1,1.081,1.026,1.617,1.617,0,0,1-.626,1.747" fill="#69a7d4"></path>
    <path id="Path_5859" data-name="Path 5859" d="M66.685,18.068a9.824,9.824,0,0,0-6.015-.182,7.221,7.221,0,0,0-5.556,7.191c0,3.065,1.436,5.081,4.256,5.8a11.475,11.475,0,0,0,4.833.075,7.492,7.492,0,0,0,4.03-1.944,7.15,7.15,0,0,0,2.043-4.662c.279-2.7-.8-5.254-3.591-6.281m-1.956,8.686a2.8,2.8,0,0,1-4.191.555,2.74,2.74,0,0,1-.746-1.785,4.8,4.8,0,0,1,1.682-4.237,2.653,2.653,0,0,1,2.968-.4,2.521,2.521,0,0,1,1.246,2.5,5.809,5.809,0,0,1-.959,3.366" fill="#69a7d4"></path>
    <path id="Path_5860" data-name="Path 5860" d="M94.379,18.01a9.866,9.866,0,0,0-5.7-.156,7.142,7.142,0,0,0-5.715,7.227c-.022,3.064,1.463,5.131,4.3,5.805a11.049,11.049,0,0,0,5.785-.156,6.615,6.615,0,0,0,4.247-3.4,8.745,8.745,0,0,0,.809-3.162,5.54,5.54,0,0,0-3.731-6.161m-1.988,8.934a3.045,3.045,0,0,1-3.287.9,2.593,2.593,0,0,1-1.495-2.5,4.835,4.835,0,0,1,1.424-3.828,2.994,2.994,0,0,1,2.358-.876,2.111,2.111,0,0,1,2.047,2.084,5.517,5.517,0,0,1-1.047,4.22" fill="#69a7d4"></path>
    <path id="Path_5861" data-name="Path 5861" d="M104.948,19.873a6.941,6.941,0,0,1,.577-.7,5.735,5.735,0,0,1,5.139-1.594,3.844,3.844,0,0,1,3.141,3.353,13.8,13.8,0,0,1-.44,4.688c-.274,1.555-.614,3.1-.9,4.651-.072.392-.216.564-.64.556q-1.815-.036-3.633,0c-.449.008-.488-.13-.4-.542.477-2.252.952-4.506,1.358-6.772.323-1.8-.714-2.678-2.5-2.133-1.59.485-2.192,1.786-2.513,3.268-.4,1.864-.8,3.73-1.174,5.6a.62.62,0,0,1-.748.6c-1.078-.032-2.159-.039-3.236,0-.52.02-.642-.122-.532-.622.518-2.356,1.01-4.718,1.515-7.077a45.847,45.847,0,0,0,.868-4.722c.045-.423.2-.615.662-.6,1.012.032,2.026.027,3.039,0,.463-.012.568.122.445.575a9.98,9.98,0,0,0-.182,1.345l.153.121" fill="#69a7d4"></path>
    <path id="Path_5862" data-name="Path 5862" d="M81.786,27.279c-.229,1.145-.431,2.126-.617,3.111a.405.405,0,0,1-.319.369c-2.46.515-4.932.871-7.191-.627a5.742,5.742,0,0,1-2.495-5.785,7.824,7.824,0,0,1,7.488-6.794,12.312,12.312,0,0,1,4.514.663c.375.115.46.293.322.669-.24.658-.451,1.33-.63,2.007-.121.461-.266.59-.763.381a5.382,5.382,0,0,0-3.92-.207c-2.458.829-3.156,4.534-1.579,5.945a3.336,3.336,0,0,0,2.612.853,7.289,7.289,0,0,0,2.578-.585" fill="#69a7d4"></path>
    <path id="Path_5863" data-name="Path 5863" d="M49.6,30.839a14.772,14.772,0,0,0-1.518.011c-.6.062-.755-.112-.619-.71.38-1.667.71-3.345,1.061-5.019.469-2.23.953-4.457,1.4-6.691.084-.423.212-.609.667-.6,1.166.025,2.333.017,3.5,0,.366,0,.487.05.4.478-.708,3.323-1.382,6.652-2.069,9.979-.147.708-.328,1.41-.444,2.123-.057.342-.206.436-.521.429-.616-.014-1.233,0-1.849,0" fill="#69a8d4"></path>
    <path id="Path_5864" data-name="Path 5864" d="M52.8,15.646c-.637,0-1.274-.005-1.911,0-.251,0-.358-.057-.293-.342q.291-1.279.54-2.569c.057-.3.247-.316.479-.316,1.231,0,2.461.009,3.691-.005.319,0,.431.068.35.41q-.288,1.214-.516,2.439c-.057.31-.212.389-.495.384-.615-.012-1.23,0-1.845,0" fill="#69a8d4"></path>
  </g>
</svg>
