<?xml version="1.0" encoding="UTF-8"?>
<svg xmlns="http://www.w3.org/2000/svg" xmlns:xlink="http://www.w3.org/1999/xlink" id="Group_4580" data-name="Group 4580" width="164.705" height="40" viewBox="0 0 164.705 40">
  <defs>
    <clipPath id="clip-path">
      <rect id="Rectangle_582" data-name="Rectangle 582" width="164.705" height="40" fill="none"></rect>
    </clipPath>
  </defs>
  <path id="Path_6107" data-name="Path 6107" d="M.493.494H24.076V39.507H.493ZM0,40H24.568V0H0Z" fill="#00ac4c"></path>
  <g id="Group_4579" data-name="Group 4579">
    <g id="Group_4578" data-name="Group 4578" clip-path="url(#clip-path)">
      <path id="Path_6108" data-name="Path 6108" d="M12.467,32.429h-.222l-1.317-2.188a3.484,3.484,0,0,1-.62-1.663,1.283,1.283,0,0,1,.53-1.083,2.356,2.356,0,0,1,1.449-.4,2.623,2.623,0,0,1,1.516.392,1.216,1.216,0,0,1,.56,1.055,2.248,2.248,0,0,1-.239.935c-.16.342-.709,1.325-1.657,2.949" fill="#00ac4c" fill-rule="evenodd"></path>
      <path id="Path_6109" data-name="Path 6109" d="M12.467,33.509h-.222L10.928,35.7a3.484,3.484,0,0,0-.62,1.663,1.286,1.286,0,0,0,.53,1.083,2.356,2.356,0,0,0,1.449.4,2.623,2.623,0,0,0,1.516-.392,1.217,1.217,0,0,0,.56-1.055,2.248,2.248,0,0,0-.239-.935c-.16-.342-.709-1.325-1.657-2.949" fill="#00ac4c" fill-rule="evenodd"></path>
      <path id="Path_6110" data-name="Path 6110" d="M12.648,33.133l-.111.191c.813.952,1.923,2.831,2.921,3.438a1.144,1.144,0,0,0,1.129.069,2.11,2.11,0,0,0,1.011-.958,2.8,2.8,0,0,0,.452-1.5,1.146,1.146,0,0,0-.56-1,1.95,1.95,0,0,0-.863-.247c-.353-.029-2.21-.031-3.979,0" fill="#00ac4c" fill-rule="evenodd"></path>
      <path id="Path_6111" data-name="Path 6111" d="M12.648,32.773l-.111-.191c.813-.952,1.923-2.831,2.921-3.438a1.144,1.144,0,0,1,1.129-.069,2.11,2.11,0,0,1,1.011.958,2.8,2.8,0,0,1,.452,1.5,1.146,1.146,0,0,1-.56,1,1.95,1.95,0,0,1-.863.247c-.353.029-2.21.031-3.979,0" fill="#00ac4c" fill-rule="evenodd"></path>
      <path id="Path_6112" data-name="Path 6112" d="M11.992,33.133l.111.191c-.813.952-1.923,2.831-2.921,3.438a1.142,1.142,0,0,1-1.128.069,2.116,2.116,0,0,1-1.012-.958,2.8,2.8,0,0,1-.452-1.5,1.146,1.146,0,0,1,.56-1,1.951,1.951,0,0,1,.864-.247c.353-.029,2.209-.031,3.978,0" fill="#00ac4c" fill-rule="evenodd"></path>
      <path id="Path_6113" data-name="Path 6113" d="M11.992,32.773l.111-.191c-.813-.952-1.923-2.831-2.921-3.438a1.142,1.142,0,0,0-1.128-.069,2.116,2.116,0,0,0-1.012.958,2.8,2.8,0,0,0-.452,1.5,1.146,1.146,0,0,0,.56,1,1.951,1.951,0,0,0,.864.247c.353.029,2.209.031,3.978,0" fill="#00ac4c" fill-rule="evenodd"></path>
      <path id="Path_6114" data-name="Path 6114" d="M19.828,25.834H19.69l-.819-1.361a2.162,2.162,0,0,1-.386-1.033.8.8,0,0,1,.33-.674,1.467,1.467,0,0,1,.9-.246,1.627,1.627,0,0,1,.941.243.758.758,0,0,1,.349.657,1.4,1.4,0,0,1-.148.581q-.148.318-1.031,1.833" fill="#00ac4c" fill-rule="evenodd"></path>
      <path id="Path_6115" data-name="Path 6115" d="M19.828,26.5H19.69l-.819,1.361a2.162,2.162,0,0,0-.386,1.033.8.8,0,0,0,.33.674,1.474,1.474,0,0,0,.9.246,1.619,1.619,0,0,0,.941-.243.758.758,0,0,0,.349-.657,1.408,1.408,0,0,0-.148-.581q-.148-.318-1.031-1.833" fill="#00ac4c" fill-rule="evenodd"></path>
      <path id="Path_6116" data-name="Path 6116" d="M19.94,26.27l-.07.119a11.635,11.635,0,0,0,1.817,2.137.716.716,0,0,0,.7.043,1.322,1.322,0,0,0,.629-.6,1.732,1.732,0,0,0,.28-.93.713.713,0,0,0-.346-.62,1.23,1.23,0,0,0-.538-.153c-.219-.017-1.373-.018-2.473,0" fill="#00ac4c" fill-rule="evenodd"></path>
      <path id="Path_6117" data-name="Path 6117" d="M19.94,26.047l-.07-.119a11.635,11.635,0,0,1,1.817-2.137.716.716,0,0,1,.7-.043,1.322,1.322,0,0,1,.629.6,1.729,1.729,0,0,1,.28.93.713.713,0,0,1-.346.62,1.23,1.23,0,0,1-.538.153c-.219.017-1.373.018-2.473,0" fill="#00ac4c" fill-rule="evenodd"></path>
      <path id="Path_6118" data-name="Path 6118" d="M19.533,26.27l.069.119a11.635,11.635,0,0,1-1.817,2.137.715.715,0,0,1-.7.043,1.322,1.322,0,0,1-.629-.6,1.732,1.732,0,0,1-.28-.93.713.713,0,0,1,.346-.62,1.23,1.23,0,0,1,.538-.153c.22-.017,1.373-.018,2.474,0" fill="#00ac4c" fill-rule="evenodd"></path>
      <path id="Path_6119" data-name="Path 6119" d="M19.533,26.047l.069-.119a11.635,11.635,0,0,0-1.817-2.137.715.715,0,0,0-.7-.043,1.322,1.322,0,0,0-.629.6,1.729,1.729,0,0,0-.28.93.713.713,0,0,0,.346.62,1.23,1.23,0,0,0,.538.153c.22.017,1.373.018,2.474,0" fill="#00ac4c" fill-rule="evenodd"></path>
      <path id="Path_6120" data-name="Path 6120" d="M5.011,25.834H4.873l-.819-1.361a2.151,2.151,0,0,1-.386-1.033A.8.8,0,0,1,4,22.766a1.467,1.467,0,0,1,.9-.246,1.627,1.627,0,0,1,.941.243.758.758,0,0,1,.349.657A1.4,1.4,0,0,1,6.042,24q-.148.318-1.031,1.833" fill="#00ac4c" fill-rule="evenodd"></path>
      <path id="Path_6121" data-name="Path 6121" d="M5.011,26.5H4.873l-.819,1.361A2.151,2.151,0,0,0,3.668,28.9a.8.8,0,0,0,.33.674,1.474,1.474,0,0,0,.9.246,1.619,1.619,0,0,0,.941-.243.758.758,0,0,0,.349-.657,1.408,1.408,0,0,0-.148-.581Q5.893,28.02,5.011,26.5" fill="#00ac4c" fill-rule="evenodd"></path>
      <path id="Path_6122" data-name="Path 6122" d="M5.123,26.27l-.07.119A11.635,11.635,0,0,0,6.87,28.526a.716.716,0,0,0,.7.043,1.322,1.322,0,0,0,.629-.6,1.732,1.732,0,0,0,.28-.93.713.713,0,0,0-.346-.62A1.23,1.23,0,0,0,7.6,26.27c-.219-.017-1.373-.018-2.473,0" fill="#00ac4c" fill-rule="evenodd"></path>
      <path id="Path_6123" data-name="Path 6123" d="M5.123,26.047l-.07-.119A11.635,11.635,0,0,1,6.87,23.791a.716.716,0,0,1,.7-.043,1.322,1.322,0,0,1,.629.6,1.729,1.729,0,0,1,.28.93.713.713,0,0,1-.346.62,1.23,1.23,0,0,1-.538.153c-.219.017-1.373.018-2.473,0" fill="#00ac4c" fill-rule="evenodd"></path>
      <path id="Path_6124" data-name="Path 6124" d="M4.716,26.27l.07.119a11.635,11.635,0,0,1-1.817,2.137.716.716,0,0,1-.7.043,1.322,1.322,0,0,1-.629-.6,1.732,1.732,0,0,1-.28-.93.713.713,0,0,1,.346-.62,1.23,1.23,0,0,1,.538-.153c.219-.017,1.373-.018,2.473,0" fill="#00ac4c" fill-rule="evenodd"></path>
      <path id="Path_6125" data-name="Path 6125" d="M4.716,26.047l.07-.119a11.635,11.635,0,0,0-1.817-2.137.716.716,0,0,0-.7-.043,1.322,1.322,0,0,0-.629.6,1.729,1.729,0,0,0-.28.93.713.713,0,0,0,.346.62,1.23,1.23,0,0,0,.538.153c.219.017,1.373.018,2.473,0" fill="#00ac4c" fill-rule="evenodd"></path>
      <path id="Path_6126" data-name="Path 6126" d="M12.305,21.156a1.069,1.069,0,0,0-.578.266c-.557.676-1.618,1.247-2.35.777a1.215,1.215,0,0,1-.416-.409.83.83,0,0,1,.075-.975c.131-.175.2-.264.2-.27a5.3,5.3,0,0,0-.334-.487l-.092-.214c-.174-.89,1.1-1.615,1.817-1.245a3.281,3.281,0,0,1,.625.362c.4.336.69.751,1.157.785.427.028.975-.9,1.635-1.184.779-.333,1.957.3,1.8,1.244l-.093.215a5.177,5.177,0,0,0-.333.488s.066.094.2.27a.833.833,0,0,1,.075.974,1.239,1.239,0,0,1-.415.409,1.963,1.963,0,0,1-2.389-.722.68.68,0,0,0-.581-.284" fill="#00ac4c" fill-rule="evenodd"></path>
      <path id="Path_6127" data-name="Path 6127" d="M12.305,16.882a1.069,1.069,0,0,0-.578.266c-.557.676-1.618,1.249-2.35.777a1.215,1.215,0,0,1-.416-.409.83.83,0,0,1,.075-.975c.131-.175.2-.264.2-.27a5.305,5.305,0,0,0-.334-.487l-.092-.215c-.174-.889,1.1-1.614,1.817-1.244a3.281,3.281,0,0,1,.625.362c.4.336.69.752,1.157.785.427.028.975-.9,1.635-1.184.779-.333,1.957.3,1.8,1.244l-.093.215a5.177,5.177,0,0,0-.333.488s.066.094.2.27a.833.833,0,0,1,.075.974,1.239,1.239,0,0,1-.415.409,1.963,1.963,0,0,1-2.389-.722.68.68,0,0,0-.581-.284" fill="#00ac4c" fill-rule="evenodd"></path>
      <path id="Path_6128" data-name="Path 6128" d="M12.305,12.5a1.069,1.069,0,0,0-.578.266c-.557.676-1.618,1.247-2.35.777a1.215,1.215,0,0,1-.416-.409.83.83,0,0,1,.075-.975c.131-.175.2-.264.2-.27A5.3,5.3,0,0,0,8.9,11.4l-.092-.215c-.174-.889,1.1-1.614,1.817-1.245a3.34,3.34,0,0,1,.625.363c.4.336.69.751,1.157.784.427.028.975-.9,1.635-1.183.779-.333,1.957.3,1.8,1.244l-.093.215a5.177,5.177,0,0,0-.333.488c0,.005.066.094.2.27a.833.833,0,0,1,.075.974,1.239,1.239,0,0,1-.415.409,1.965,1.965,0,0,1-2.389-.722.68.68,0,0,0-.581-.284" fill="#00ac4c" fill-rule="evenodd"></path>
      <path id="Path_6129" data-name="Path 6129" d="M12.305,8.171a1.069,1.069,0,0,0-.578.266c-.557.676-1.618,1.247-2.35.777a1.215,1.215,0,0,1-.416-.409.829.829,0,0,1,.075-.974c.131-.176.2-.265.2-.271A5.3,5.3,0,0,0,8.9,7.073l-.092-.215c-.174-.889,1.1-1.614,1.817-1.244a3.281,3.281,0,0,1,.625.362c.4.336.69.752,1.157.784.427.028.975-.9,1.635-1.183.779-.333,1.957.3,1.8,1.244l-.093.215a5.177,5.177,0,0,0-.333.488s.066.094.2.27a.833.833,0,0,1,.075.974,1.239,1.239,0,0,1-.415.409,1.965,1.965,0,0,1-2.389-.722.68.68,0,0,0-.581-.284" fill="#00ac4c" fill-rule="evenodd"></path>
      <path id="Path_6130" data-name="Path 6130" d="M12.31,4.232a.767.767,0,0,0-.42.194c-.407.492-1.18.909-1.715.567a.891.891,0,0,1-.3-.3.6.6,0,0,1,.054-.709c.1-.129.144-.195.144-.2,0-.024-.1-.143-.242-.356l-.067-.156c-.127-.648.8-1.176,1.323-.906a2.342,2.342,0,0,1,.457.264c.288.243.5.547.843.57.311.022.71-.654,1.193-.862.566-.242,1.425.219,1.311.907l-.067.157a3.71,3.71,0,0,0-.244.355s.049.069.144.2a.607.607,0,0,1,.056.711.909.909,0,0,1-.3.3,1.431,1.431,0,0,1-1.741-.525.491.491,0,0,0-.423-.208" fill="#00ac4c" fill-rule="evenodd"></path>
      <path id="Path_6131" data-name="Path 6131" d="M12.305,25.538a1.069,1.069,0,0,0-.578.266c-.557.676-1.618,1.247-2.35.777a1.215,1.215,0,0,1-.416-.409.83.83,0,0,1,.075-.975c.131-.175.2-.264.2-.27A5.3,5.3,0,0,0,8.9,24.44l-.092-.215c-.174-.889,1.1-1.614,1.817-1.245a3.34,3.34,0,0,1,.625.363c.4.336.69.752,1.157.784.427.028.975-.9,1.635-1.183.779-.333,1.957.3,1.8,1.244l-.093.215a5.177,5.177,0,0,0-.333.488s.066.094.2.27a.833.833,0,0,1,.075.974,1.239,1.239,0,0,1-.415.409,1.963,1.963,0,0,1-2.389-.722.68.68,0,0,0-.581-.284" fill="#00ac4c" fill-rule="evenodd"></path>
      <line id="Line_27" data-name="Line 27" x2="0.077" y2="25.654" transform="translate(12.331 1.425)" fill="none" stroke="#00ac4c" stroke-width="2.661"></line>
      <path id="Path_6132" data-name="Path 6132" d="M136.135,34.5V5h10.1l9.1,13.207V5h9.371V34.5l-9.248-.123L147.077,22.7l-.245,11.8" fill="#00ac4c" fill-rule="evenodd"></path>
      <rect id="Rectangle_581" data-name="Rectangle 581" width="9.987" height="29.499" transform="translate(121.505 5.001)" fill="#00ac4c"></rect>
      <path id="Path_6133" data-name="Path 6133" d="M58.808,5H69.474v14.67c0,1.752-1,6.9,3.133,7.021,3.093.092,2.8-4.839,2.8-7.021V5H85.967V21.68q0,6.9-3.3,10.11T72.248,35q-7.074,0-10.255-3.167T58.808,21.68" fill="#00ac4c" fill-rule="evenodd"></path>
      <path id="Path_6134" data-name="Path 6134" d="M57.344,26.915v7.622H34.576V5H45.064V26.915" fill="#00ac4c" fill-rule="evenodd"></path>
      <path id="Path_6135" data-name="Path 6135" d="M101.6,12.951v4.323h3.087c2.262,0,2.872-1.366,2.872-2.1a2.1,2.1,0,0,0-2.24-2.224ZM91.361,34.5V5h14.664q5.367,0,7.794,2.13c4.741,4.161,5.462,10.528.9,15.179a8.223,8.223,0,0,1-5.83,2.6h-7.33V34.5" fill="#00ac4c" fill-rule="evenodd"></path>
    </g>
  </g>
</svg>
