<?xml version="1.0" encoding="UTF-8"?>
<svg xmlns="http://www.w3.org/2000/svg" xmlns:xlink="http://www.w3.org/1999/xlink" id="Group_111" data-name="Group 111" width="441.764" height="466.677" viewBox="0 0 441.764 466.677">
  <defs>
    <clipPath id="clip-path">
      <rect id="Rectangle_78" data-name="Rectangle 78" width="441.764" height="466.677" fill="none"></rect>
    </clipPath>
    <clipPath id="clip-path-2">
      <rect id="Rectangle_70" data-name="Rectangle 70" width="441.765" height="466.676" fill="none"></rect>
    </clipPath>
    <clipPath id="clip-path-3">
      <rect id="Rectangle_68" data-name="Rectangle 68" width="247.27" height="150.523" fill="none"></rect>
    </clipPath>
    <clipPath id="clip-path-4">
      <rect id="Rectangle_69" data-name="Rectangle 69" width="150.838" height="154.449" fill="none"></rect>
    </clipPath>
    <clipPath id="clip-path-6">
      <rect id="Rectangle_71" data-name="Rectangle 71" width="3.763" height="4.739" fill="none"></rect>
    </clipPath>
    <clipPath id="clip-path-7">
      <rect id="Rectangle_75" data-name="Rectangle 75" width="16.188" height="5.011" fill="none"></rect>
    </clipPath>
    <clipPath id="clip-path-8">
      <rect id="Rectangle_76" data-name="Rectangle 76" width="33.631" height="29.385" fill="none"></rect>
    </clipPath>
  </defs>
  <g id="Group_110" data-name="Group 110" clip-path="url(#clip-path)">
    <path id="Path_89" data-name="Path 89" d="M149.313,1311.048,125.54,1343.38l-51.357,15.978-37.662,33.1L0,1465.5l82.343-.422,359.421-1.86-1.118-1.644L400.9,1402.887l-.879-1.3-37-34.717-63.329-20.543-42.33-35.277Z" transform="translate(0 -998.82)" fill="#099"></path>
    <g id="Group_98" data-name="Group 98" transform="translate(0 0.001)">
      <g id="Group_97" data-name="Group 97" clip-path="url(#clip-path-2)">
        <g id="Group_93" data-name="Group 93" transform="translate(193.377 312.228)" opacity="0.1">
          <g id="Group_92" data-name="Group 92">
            <g id="Group_91" data-name="Group 91" clip-path="url(#clip-path-3)">
              <path id="Path_90" data-name="Path 90" d="M1059.262,1461.571l-27.5-2.922-64.676-42.6-80.836-12.177-25.108-34.809-3.618-25.3-32.824-8.289-12.7-24.42h63.98l42.33,35.277,63.329,20.543,37,34.718.879,1.3Z" transform="translate(-811.993 -1311.049)" fill="#dee6f8"></path>
            </g>
          </g>
        </g>
        <g id="Group_96" data-name="Group 96" transform="translate(0 312.228)" opacity="0.1">
          <g id="Group_95" data-name="Group 95">
            <g id="Group_94" data-name="Group 94" clip-path="url(#clip-path-4)">
              <path id="Path_91" data-name="Path 91" d="M150.838,1365.065,97.579,1396.26l-15.236,68.815L0,1465.5l36.521-73.042,37.662-33.1,51.357-15.978,23.773-32.333Z" transform="translate(0 -1311.049)" fill="#dee6f8"></path>
            </g>
          </g>
        </g>
      </g>
    </g>
    <path id="Path_92" data-name="Path 92" d="M1151.894,259.441l-16.859,10.22-.755-5.927,12.709-7.7Z" transform="translate(-864.149 -195.057)" fill="#6f3428"></path>
    <path id="Path_93" data-name="Path 93" d="M1123.381,216.016l-4.323,2.621L1108.8,204.049l6.4-3.878Z" transform="translate(-844.735 -152.5)" fill="#bb9132"></path>
    <g id="Group_109" data-name="Group 109" transform="translate(0 0.001)">
      <g id="Group_108" data-name="Group 108" clip-path="url(#clip-path-2)">
        <path id="Path_94" data-name="Path 94" d="M1052.179,118.108l-8.121,4.923a4.286,4.286,0,0,1-5.524-.934l-13.588-16.432,20.677-12.535,8.284,19.648a4.286,4.286,0,0,1-1.727,5.33" transform="translate(-780.854 -70.952)" fill="#fbc343"></path>
        <path id="Path_95" data-name="Path 95" d="M1114.894,100.493l-1.12-.466c3.12-7.512,2.576-13.615.284-14.96-1.194-.7-2.844.126-4.532,2.265l-.953-.752c2.99-3.787,5.261-3.052,6.1-2.56,2.792,1.639,3.638,8.249.221,16.473" transform="translate(-844.565 -63.703)" fill="#fbc343"></path>
        <path id="Path_96" data-name="Path 96" d="M1020.783,157.21c-8.872-.775-14.341-4.582-14.5-7.815-.048-.971.35-3.325,5.09-4.223l.226,1.192c-2.677.507-4.173,1.59-4.1,2.971.133,2.655,5.292,5.959,13.4,6.668Z" transform="translate(-766.631 -110.6)" fill="#fbc343"></path>
        <g id="Group_101" data-name="Group 101" transform="translate(261.174 29.659)" opacity="0.6">
          <g id="Group_100" data-name="Group 100">
            <g id="Group_99" data-name="Group 99" clip-path="url(#clip-path-6)">
              <path id="Path_97" data-name="Path 97" d="M1097.177,127.7c-.712-1.233-.676-2.587.081-3.024s1.947.209,2.66,1.442.676,2.587-.081,3.024-1.948-.209-2.66-1.442" transform="translate(-1096.667 -124.537)" fill="#fff"></path>
            </g>
          </g>
        </g>
        <rect id="Rectangle_72" data-name="Rectangle 72" width="1.905" height="15.477" transform="matrix(0.301, -0.954, 0.954, 0.301, 225.787, 21.152)" fill="#fbc343"></rect>
        <rect id="Rectangle_73" data-name="Rectangle 73" width="15.476" height="1.904" transform="translate(255.266 15.24) rotate(-79.983)" fill="#fbc343"></rect>
        <rect id="Rectangle_74" data-name="Rectangle 74" width="1.904" height="15.476" transform="translate(237.781 5.04) rotate(-32.625)" fill="#fbc343"></rect>
        <path id="Path_98" data-name="Path 98" d="M950.673,1231.837l.1-8.881-12.865.91-.371,7.339a44.671,44.671,0,0,0,13.136.632" transform="translate(-714.261 -931.708)" fill="#f9b284"></path>
        <path id="Path_99" data-name="Path 99" d="M962.551,1270.273c-3.488-5.712-8.258-7.618-13.952-8.341l.027-3.706a44.672,44.672,0,0,1-13.136-.632l-.641,12.679Z" transform="translate(-712.213 -958.097)" fill="#032849"></path>
        <path id="Path_100" data-name="Path 100" d="M671.3,1263.882l-1.176,2.689c-5.694.723-10.791,3.788-15.469,8.493h26.994l2.872-11.149a38.028,38.028,0,0,1-13.221-.032" transform="translate(-498.752 -962.887)" fill="#032849"></path>
        <path id="Path_101" data-name="Path 101" d="M737.773,1233.7l2.284-8.869-11.374-.606-4.132,9.443a38.027,38.027,0,0,0,13.221.032" transform="translate(-551.999 -932.678)" fill="#f9b284"></path>
        <path id="Path_102" data-name="Path 102" d="M792.527,642.233c6.774,44.081,4.853,87.959-4.55,132.242H771.8c1.932-28.742,3.407-62.908-1.112-85.532l-30.862,85.911H722.16l29.117-122.308,10.009-19.614,23.456-2.831Z" transform="translate(-550.177 -480.042)" fill="#032849"></path>
        <path id="Path_103" data-name="Path 103" d="M1108.057,244.511l4.347-13.042,11.769,2.749c.886,4.367-4.4,10.993-8.331,15.955Z" transform="translate(-844.172 -176.345)" fill="#f9b384"></path>
        <path id="Path_104" data-name="Path 104" d="M893.256,418.246,879.7,418.4l-1.347-17.749-.158-2.123,13.612-.121.485,6.734Z" transform="translate(-669.055 -303.529)" fill="#f9b384"></path>
        <path id="Path_105" data-name="Path 105" d="M892.222,403.921c-4.436,3.166-10.237,1.194-13.864-3.267l-.158-2.123,13.612-.121Z" transform="translate(-669.055 -303.529)" fill="#032849"></path>
        <path id="Path_106" data-name="Path 106" d="M866.227,336.382c-6.878,1.572-14.556-2.839-17.585-8.7l-.41-10.517,3.849-5.458,16.375,1.41c-.076.019-.067.248,0,.638.19,1.019.819,3.191,1.4,5.811,1.429,6.373,2.572,15.394-3.629,16.814" transform="translate(-646.224 -237.476)" fill="#f9b384"></path>
        <path id="Path_107" data-name="Path 107" d="M865.712,442.5s10.11,8.088,18.906-3.437l16.682,55.4c-10.214,7.217-23.127,9.709-38.621,7.684Z" transform="translate(-657.231 -334.5)" fill="#fff"></path>
        <g id="Group_104" data-name="Group 104" transform="translate(210.649 111.861)" opacity="0.3">
          <g id="Group_103" data-name="Group 103">
            <g id="Group_102" data-name="Group 102" clip-path="url(#clip-path-7)">
              <path id="Path_108" data-name="Path 108" d="M884.517,472.721a18.417,18.417,0,0,0,4.26.969,14.148,14.148,0,0,0,4.257-.171,13.7,13.7,0,0,0,4.014-1.4,18.254,18.254,0,0,0,1.867-1.106c.62-.39,1.161-.887,1.789-1.3a21.6,21.6,0,0,1-1.477,1.689,12.164,12.164,0,0,1-1.78,1.4,11.281,11.281,0,0,1-4.228,1.716,11.652,11.652,0,0,1-8.7-1.793" transform="translate(-884.517 -469.707)" fill="#1f3c88"></path>
            </g>
          </g>
        </g>
        <path id="Path_109" data-name="Path 109" d="M978.069,276.044c-9.147,15.446-18.068,29.019-26.133,35.487a6.256,6.256,0,0,1-4.255,1.31,33.906,33.906,0,0,0-9.649,1.041c.731,27.716,3.361,53.389,12.789,69.128,5.679-1.638,12.57-4.271,16.378-7.482-3.1-10.532-6.773-25.631-9.5-38.823l30.229-53.988Z" transform="translate(-714.639 -210.304)" fill="#099"></path>
        <path id="Path_110" data-name="Path 110" d="M878.054,326.12c-10.409,5.925-19.062-4.871-19.062-4.871l17.661-.94c.19,1.019.819,3.191,1.4,5.811" transform="translate(-654.422 -244.028)" fill="#e28b6d"></path>
        <path id="Path_111" data-name="Path 111" d="M831.527,301.529c1.276-1.651,1.859-4.424.708-10.009,3.792,4.289,9.429,5.291,17.693,1.618,0,0,5.375-2.1,4.145-7.582-1.112-4.954-5.257-7.582-8.492-3.539-7.341-2.142-14.559-2.528-17.794,4.145,0,0-10.312,5.358-1.517,14.053Z" transform="translate(-626.787 -213.344)" fill="#032849"></path>
        <path id="Path_112" data-name="Path 112" d="M746.738,806.508l-1.776-.4,1.853-8.3-12.252-2.98-1.624,7.578-1.779-.382,2.016-9.407,15.8,3.844Z" transform="translate(-557.033 -603.856)" fill="#099"></path>
        <path id="Path_113" data-name="Path 113" d="M752.914,741.017c-.3.422-1.415,8.973-1.415,8.973s-4.954,4.645-1.618,7.495,7.381,2.744,9.3.633a12.5,12.5,0,0,0-.1-7.389l1.921-9.5Z" transform="translate(-570.416 -564.544)" fill="#f9b284"></path>
        <path id="Path_114" data-name="Path 114" d="M711.417,819.749l-4.889,20.71-1.881,7.995L672.9,836.528l4.186-17.458,1.99-8.323Z" transform="translate(-512.646 -617.667)" fill="#60d6d6"></path>
        <path id="Path_115" data-name="Path 115" d="M1147.981,222.616c.295,2.1-1.033,3.979-3.837,3.979-1.751,0-4.2-2.4-4.721-5.255-.426-2.353.477-3.895,2.139-4.58,1.7-.7,5.862,1.89,6.419,5.856" transform="translate(-867.988 -165.052)" fill="#f9b384"></path>
        <path id="Path_116" data-name="Path 116" d="M771.09,481.2l-2.427,36.6a62.544,62.544,0,0,0,22.647-5.055c1.176-21.844-1.629-46.287-10.274-68.269-21.959,8.16-28.153,35.2-31.411,75.376l12.864,1.492Z" transform="translate(-571.101 -338.624)" fill="#099"></path>
        <path id="Path_117" data-name="Path 117" d="M838.175,365.789c-4.131,1.473-6.772,1.14-6.991-2.808a3.119,3.119,0,0,1,4.266-3.114,6.984,6.984,0,0,1,2.523,2.282Z" transform="translate(-633.232 -273.965)" fill="#f9b384"></path>
        <g id="Group_107" data-name="Group 107" transform="translate(160.252 201.402)" opacity="0.15">
          <g id="Group_106" data-name="Group 106">
            <g id="Group_105" data-name="Group 105" clip-path="url(#clip-path-8)">
              <path id="Path_118" data-name="Path 118" d="M706.529,867.083l-1.881,8L672.9,863.152l4.185-17.458c3.907,8.08,12.169,18.1,29.445,21.389" transform="translate(-672.898 -845.693)" fill="#102148"></path>
            </g>
          </g>
        </g>
        <path id="Path_119" data-name="Path 119" d="M1007.572,478.323c.546,1.737,1.022,3.49,1.481,5.247s.888,3.521,1.3,5.287.8,3.542,1.142,5.324.679,3.568.927,5.373l-.462.106c-.561-1.734-1.032-3.487-1.5-5.243s-.883-3.521-1.285-5.291-.788-3.543-1.124-5.328-.682-3.567-.945-5.369Z" transform="translate(-767.265 -364.41)" fill="#032849"></path>
        <path id="Path_120" data-name="Path 120" d="M837.515,546.868c.061,1.759.05,3.515.022,5.271s-.087,3.509-.161,5.262-.182,3.5-.326,5.254-.3,3.5-.545,5.243l-.474-.023c-.076-1.76-.061-3.516-.04-5.271s.092-3.509.179-5.261.19-3.5.344-5.253.3-3.5.528-5.244Z" transform="translate(-636.885 -416.614)" fill="#032849"></path>
        <path id="Path_121" data-name="Path 121" d="M913.532,834.078c.545-2,1.159-3.981,1.788-5.955s1.312-3.928,1.964-5.893q1.032-2.929,2.114-5.84c.742-1.934,1.49-3.866,2.324-5.768l.448.156c-.531,2.007-1.148,3.985-1.771,5.96q-.962,2.953-1.98,5.888c-.713,1.944-1.382,3.9-2.131,5.835s-1.487,3.866-2.307,5.773Z" transform="translate(-695.973 -617.572)" fill="#708ed5"></path>
        <path id="Path_122" data-name="Path 122" d="M840.682,368.171c-.212-.3-.41-.6-.618-.885a4.431,4.431,0,0,0-.656-.755.73.73,0,0,0-.675-.252c-.25.032-.5.3-.78.525l-.234-.148a1.632,1.632,0,0,1,.808-.961,1.285,1.285,0,0,1,1.344.308,3.824,3.824,0,0,1,1.07,2.07Z" transform="translate(-638.216 -278.54)" fill="#032849"></path>
        <path id="Path_123" data-name="Path 123" d="M1128.532,233.467c.442-1.673.214-3.184-.508-3.375s-1.834.591-2.276,2.264-.95,4.082.19,4.62c2.019.954,2.153-1.837,2.594-3.51" transform="translate(-857.266 -175.275)" fill="#f9b384"></path>
      </g>
    </g>
  </g>
</svg>
