<?xml version="1.0" encoding="UTF-8"?>
<svg xmlns="http://www.w3.org/2000/svg" xmlns:xlink="http://www.w3.org/1999/xlink" id="Group_862" data-name="Group 862" width="264" height="216.969" viewBox="0 0 264 216.969">
  <defs>
    <clipPath id="clip-path">
      <rect id="Rectangle_340" data-name="Rectangle 340" width="264" height="216.969" fill="none"></rect>
    </clipPath>
  </defs>
  <g id="Group_861" data-name="Group 861" clip-path="url(#clip-path)">
    <path id="Path_599" data-name="Path 599" d="M155.83,31.233a15.413,15.413,0,1,0-30.81.438,15.413,15.413,0,1,0,30.81-.438" fill="#099"></path>
    <path id="Path_600" data-name="Path 600" d="M145.844,35.412c-.037-2.636-1.556-4.156-4.541-5.358-2.521-1.03-3.6-1.785-3.619-3.327-.018-1.184.8-2.559,3.017-2.59a6.814,6.814,0,0,1,3.643.955l.692-1.965a7.524,7.524,0,0,0-3.759-.984l-.041-2.873-1.786.025.043,2.992a4.807,4.807,0,0,0-4.281,4.831c.037,2.578,1.871,3.915,4.825,5.058,2.144.858,3.281,1.85,3.3,3.48.023,1.688-1.342,2.923-3.386,2.952a7.539,7.539,0,0,1-4.166-1.215l-.663,1.994a8.214,8.214,0,0,0,4.425,1.242l.042,2.991,1.815-.025-.044-3.081a5.1,5.1,0,0,0,4.479-5.1" fill="#fff"></path>
    <path id="Path_601" data-name="Path 601" d="M235.427,30.482l2.794-.037-.046-3.455-2.793.037a6.511,6.511,0,0,0-.479-1.192l2.21-1.88-2.241-2.631-2.326,1.981a6.439,6.439,0,0,0-1.279-.607l-.038-2.945-3.456.046.035,2.682a6.476,6.476,0,0,0-2.007.787l-2.225-1.8-2.17,2.689,2.007,1.619a6.406,6.406,0,0,0-.552,1.411l-2.437.032.046,3.455,2.436-.033a6.458,6.458,0,0,0,.589,1.4l-1.963,1.673,2.24,2.63,2.177-1.854a6.421,6.421,0,0,0,2.028.734l.035,2.682,3.455-.044-.039-2.946a6.587,6.587,0,0,0,1.262-.639l2.379,1.919,2.17-2.689-2.258-1.823a6.538,6.538,0,0,0,.446-1.2m-6.239,1.75a3.4,3.4,0,1,1,3.352-3.44,3.4,3.4,0,0,1-3.352,3.44" fill="#3cb4e6"></path>
    <path id="Path_602" data-name="Path 602" d="M259.935,61.437a12.329,12.329,0,0,0-.251-1.547,13.114,13.114,0,0,0-.482-1.623,12.843,12.843,0,0,0-.69-1.541,12.329,12.329,0,0,0-.853-1.386,12.156,12.156,0,0,0-2.287-2.429,11.458,11.458,0,0,0-1.12-.8,11.737,11.737,0,0,0-3.005-1.359,11.059,11.059,0,0,0-1.2-.284,11.484,11.484,0,0,0-3.274-.122,11.053,11.053,0,0,0-1.594.282,11.768,11.768,0,0,0-3.051,1.233,11.592,11.592,0,0,0-1.359.912,12.114,12.114,0,0,0-2.326,2.387,11.846,11.846,0,0,0-.685,1.033,12.654,12.654,0,0,0-1.324,3.108,13.057,13.057,0,0,0-.294,1.327h0a12.747,12.747,0,0,0-.1,3.389,12.511,12.511,0,0,0,.258,1.555,12.813,12.813,0,0,0,1.181,3.16,12.083,12.083,0,0,0,4.117,4.5,11.866,11.866,0,0,0,2.991,1.4,11.584,11.584,0,0,0,4.449.463,11.625,11.625,0,0,0,3.246-.778,11.355,11.355,0,0,0,1.42-.676,11.542,11.542,0,0,0,1.394-.909,12.255,12.255,0,0,0,3.067-3.42,12.641,12.641,0,0,0,1.345-3.1,12.487,12.487,0,0,0,.314-1.387,12.752,12.752,0,0,0,.112-3.39m-8.67,10.129a8.8,8.8,0,0,1-11.482-5.3A9.3,9.3,0,0,1,244.9,54.386a8.8,8.8,0,0,1,11.482,5.3,9.3,9.3,0,0,1-5.121,11.881" fill="#3cb4e6"></path>
    <path id="Path_603" data-name="Path 603" d="M263.138,58.521l-1.172-3.165L257.6,57.088l1.171,3.165Z" fill="#3cb4e6"></path>
    <path id="Path_604" data-name="Path 604" d="M263.768,65.116l.232-3.38-4.668-.343-.232,3.38Z" fill="#3cb4e6"></path>
    <path id="Path_605" data-name="Path 605" d="M261.669,71.189l1.507-3.009-4.155-2.227-1.507,3.009Z" fill="#3cb4e6"></path>
    <path id="Path_606" data-name="Path 606" d="M257.836,75.605l2.334-2.378-3.284-3.449-2.334,2.378Z" fill="#3cb4e6"></path>
    <path id="Path_607" data-name="Path 607" d="M240.846,48.39l3.059-1.212,1.674,4.521-3.059,1.212Z" fill="#3cb4e6"></path>
    <path id="Path_608" data-name="Path 608" d="M251.9,78.228l3.059-1.212L253.28,72.5l-3.059,1.212Z" fill="#3cb4e6"></path>
    <path id="Path_609" data-name="Path 609" d="M258.148,49.938l2.356,2.355-3.252,3.482L254.9,53.42Z" fill="#3cb4e6"></path>
    <path id="Path_610" data-name="Path 610" d="M252.665,46.871l3.064,1.2L254.076,52.6l-3.064-1.2Z" fill="#3cb4e6"></path>
    <path id="Path_611" data-name="Path 611" d="M246.961,46.234l3.272.156-.216,4.836-3.272-.156Z" fill="#3cb4e6"></path>
    <path id="Path_612" data-name="Path 612" d="M233.876,70.163,232.7,67l4.37-1.732,1.172,3.165Z" fill="#3cb4e6"></path>
    <path id="Path_613" data-name="Path 613" d="M237.666,75.505,235.31,73.15l3.252-3.481,2.355,2.354Z" fill="#3cb4e6"></path>
    <path id="Path_614" data-name="Path 614" d="M243.15,78.573l-3.064-1.2,1.653-4.529,3.064,1.2Z" fill="#3cb4e6"></path>
    <path id="Path_615" data-name="Path 615" d="M248.853,79.209l-3.272-.156.216-4.836,3.272.156Z" fill="#3cb4e6"></path>
    <path id="Path_616" data-name="Path 616" d="M232.046,60.327l-.232,3.38,4.667.343.233-3.38Z" fill="#3cb4e6"></path>
    <path id="Path_617" data-name="Path 617" d="M234.145,54.254l-1.507,3.009,4.155,2.227,1.507-3.009Z" fill="#3cb4e6"></path>
    <path id="Path_618" data-name="Path 618" d="M237.978,49.838l-2.334,2.378,3.284,3.449,2.334-2.378Z" fill="#3cb4e6"></path>
    <path id="Path_619" data-name="Path 619" d="M244.621,97.806a19.6,19.6,0,1,0-9.243,26.136,19.6,19.6,0,0,0,9.243-26.136" fill="#099"></path>
    <path id="Path_620" data-name="Path 620" d="M240.907,99.579a15.488,15.488,0,1,0-7.3,20.65,15.488,15.488,0,0,0,7.3-20.65" fill="#ecf3ff"></path>
    <path id="Path_621" data-name="Path 621" d="M237.813,101.057a12.059,12.059,0,1,0-5.686,16.078,12.059,12.059,0,0,0,5.686-16.078" fill="#099"></path>
    <path id="Path_622" data-name="Path 622" d="M234.512,102.633a8.4,8.4,0,1,0-3.961,11.2,8.4,8.4,0,0,0,3.961-11.2" fill="#ecf3ff"></path>
    <path id="Path_623" data-name="Path 623" d="M231.469,104.086a5.029,5.029,0,1,0-2.371,6.706,5.028,5.028,0,0,0,2.371-6.706" fill="#099"></path>
    <path id="Path_624" data-name="Path 624" d="M179.357,196.96a50.74,50.74,0,0,1,8.658-2.738c6.239-1.4,12.066-1.579,16.205-.736-1.683-6.661-4.245-17.193-3.967-18.543.41-1.995-.694-26.8-2.705-32.655-1.554-4.524-13.019-11.612-13.76-12.588s-12.765,20.717-12.765,20.717-5.828,12.4-7.565,14.573c-3.609,4.507,9.091,16.15,13.015,19.078Z" fill="#ffa089"></path>
    <path id="Path_625" data-name="Path 625" d="M79.855,161.823c0,.32-.006.65-.018.992,0,.173-.01.353-.019.533,0,.078-.006.156-.01.237,0,.1-.01.2-.016.3-.012.207-.024.421-.038.637q-.051.753-.13,1.57-.066.69-.151,1.431c-.677,5.793-8.106,13.325-12.025,16.21-.341-.147-.867,1.934-1.521,5.556-.612,3.388-1.337,8.124-2.129,13.647-.616,4.292-1.271,9.06-1.944,14.036h-28.1c1.841-6.43,3.638-12.711,5.258-18.38,1.44-5.042,2.737-9.6,3.8-13.341,1.8-6.341,2.923-10.348,2.909-10.429-.277-1.824,1.872-24.214,3.962-29.42a11.978,11.978,0,0,1,3.406-3.949c1.958-1.65,8.973-7.176,13.434-10.69l1.342-1.057c.126-.1.252-.2.371-.295.318-.25.6-.477.86-.677.764-.606,1.226-.975,1.246-1,.056-.066,0,3.925-.047,8.392-.034,3.152-.063,6.542-.048,8.908a21.019,21.019,0,0,0,.12,3.053c.579,1.144,1.11,2.2,1.555,3.1.511,1.022.909,1.83,1.145,2.309.019.037.036.075.052.106l.187.38a4.99,4.99,0,0,1,2.7-.8,2.855,2.855,0,0,1,1.346.4,3.237,3.237,0,0,1,.345.239,3.454,3.454,0,0,1,.394.377,4.877,4.877,0,0,1,.791,1.253,10.659,10.659,0,0,1,.773,2.946c.022.156.041.313.058.478a25.134,25.134,0,0,1,.14,2.949" fill="#ffa089"></path>
    <path id="Path_626" data-name="Path 626" d="M177.107,169.651,70.1,165.741a4.85,4.85,0,0,1-4.669-5.024l2.7-73.925a4.851,4.851,0,0,1,5.024-4.67l107.011,3.911a4.848,4.848,0,0,1,4.668,5.023l-2.7,73.925a4.849,4.849,0,0,1-5.023,4.67" fill="#0b006b"></path>
    <path id="Path_627" data-name="Path 627" d="M178.97,157.883,69.643,153.888l2.311-63.224a4.215,4.215,0,0,1,4.366-4.059l100.9,3.687a4.216,4.216,0,0,1,4.059,4.367Z" fill="#dae6ff"></path>
    <path id="Path_628" data-name="Path 628" d="M61.2,175.679l-.08-.212A5.7,5.7,0,0,0,63.68,172.9c1.028-1.849,1.974-5.338.648-11.459l.221-.048c.742,3.424,1.227,8.223-.681,11.636a5.8,5.8,0,0,1-2.67,2.649" fill="#e87765"></path>
    <path id="Path_629" data-name="Path 629" d="M67.784,189.622a10.626,10.626,0,0,0-1.857-.336,19.4,19.4,0,0,0-6.154.53c-7.612,1.76-10.27-3.356-16.778-4.536l-.186-.033a14.519,14.519,0,0,0-1.556-.177c-5.8-.352-7.145,17.059-10.539,31.9H66.725c1.973-9.32,4.247-18.392,4.918-21.216.719-3.016-.755-5.254-3.859-6.131" fill="#099"></path>
    <path id="Path_630" data-name="Path 630" d="M205.765,186.663a14.654,14.654,0,0,0-1.741.21c-.473.085-.928.193-1.362.316-5.561,1.572-8.359,5.853-15.417,4.22a16.608,16.608,0,0,0-8.01-.194,7.848,7.848,0,0,0-1.075.388,4.648,4.648,0,0,0-2.785,5.743c.633,2.663,2.691,10.88,4.579,19.623h36c-3.141-14.462-4.587-30.645-10.186-30.306" fill="#099"></path>
    <path id="Path_631" data-name="Path 631" d="M194.657,148.935s-11.081-4.782-17.838-7.98a21.376,21.376,0,0,0-4.1-.473c-5.212-.263-9.314-.16-9.349.283-.422,5.3,8.429,5.963,9.862,6.763,5.379,3.011,13.467,9.827,12.117,12.8-.5,1.09-1.281,2.171-1.665,3.07-3.4,7.98-1.9,8.823,6.818,11.986,7.437,2.7,9.149-6.469,9.149-6.469l-2.535-7.9Z" fill="#ffa089"></path>
    <path id="Path_632" data-name="Path 632" d="M182.374,176.837a5.471,5.471,0,0,1-1.541-2.928c-.4-1.816-.337-4.92,2.271-9.394l.216.126c-1.413,2.425-2.95,5.988-2.247,9.195a5.341,5.341,0,0,0,1.462,2.809Z" fill="#e87765"></path>
    <path id="Path_633" data-name="Path 633" d="M167.2,142.964l-3.7-.579c-.4-.064-.768-.469-.621-.853.232-.606.365-1.094,1.168-1.121l3.952-.072c.406.063.312.351.248.757l-.2,1.246a.748.748,0,0,1-.852.622" fill="#ff6760"></path>
    <path id="Path_634" data-name="Path 634" d="M52.017,151.622s10.247-3.814,16.509-6.393a19.353,19.353,0,0,1,3.732-.239c4.728,0,8.434.287,8.446.69.136,4.812-7.9,5-9.236,5.662-5.007,2.475-12.64,8.267-11.557,11.018.4,1.009,1.059,2.024,1.365,2.855,2.711,7.378,1.305,8.07-6.724,10.528-6.854,2.1-7.978-6.276-7.978-6.276l2.66-7.027Z" fill="#ffa089"></path>
    <path id="Path_635" data-name="Path 635" d="M76.78,147.61l3.658-.8c.4-.088.738-.515.568-.888-.268-.592-.431-1.071-1.233-1.049l-3.95.168c-.4.088-.29.37-.2.771l.27,1.232a.748.748,0,0,0,.889.569" fill="#ff6760"></path>
    <path id="Path_636" data-name="Path 636" d="M154.887,109.6l6.172-2.331-1.7,6.1Z" fill="#099"></path>
    <path id="Path_637" data-name="Path 637" d="M136.624,123.5l-2.094-1.94,5.775-6.232,11.369-.434,5.959-5.956,2.018,2.019-6.75,6.747-11.306.432Z" fill="#099"></path>
    <rect id="Rectangle_327" data-name="Rectangle 327" width="8.984" height="2.351" transform="matrix(0.043, -0.999, 0.999, 0.043, 138.099, 137.9)" fill="#9cc"></rect>
    <rect id="Rectangle_328" data-name="Rectangle 328" width="14.498" height="2.351" transform="matrix(0.043, -0.999, 0.999, 0.043, 142.517, 138.088)" fill="#9cc"></rect>
    <rect id="Rectangle_329" data-name="Rectangle 329" width="10.831" height="2.351" transform="matrix(0.043, -0.999, 0.999, 0.043, 146.934, 138.276)" fill="#9cc"></rect>
    <rect id="Rectangle_330" data-name="Rectangle 330" width="17.345" height="2.351" transform="matrix(0.043, -0.999, 0.999, 0.043, 151.352, 138.464)" fill="#9cc"></rect>
    <rect id="Rectangle_331" data-name="Rectangle 331" width="20.838" height="2.351" transform="matrix(0.043, -0.999, 0.999, 0.043, 155.769, 138.652)" fill="#099"></rect>
    <path id="Path_638" data-name="Path 638" d="M37.539,81.6c-.056-.131-.113-.262-.172-.392a18.9,18.9,0,0,0-1.136-2.161A19.506,19.506,0,0,0,19.64,69.67h-.2A19.572,19.572,0,0,0,3.044,78.728a19.11,19.11,0,0,0-1.179,2.137c-.114.242-.225.488-.329.736a19.595,19.595,0,0,0,0,15.21c.125.3.257.59.4.876a19.039,19.039,0,0,0,1.194,2.129,19.512,19.512,0,0,0,16.309,8.927h.2A19.572,19.572,0,0,0,36.149,99.5,19.636,19.636,0,0,0,37.3,97.348c.082-.177.16-.356.236-.537a19.595,19.595,0,0,0,0-15.21M26.194,73.45a17.194,17.194,0,0,1,7.744,6.529,34.077,34.077,0,0,1-5.023,1.288A25.23,25.23,0,0,0,27,75.716a16.261,16.261,0,0,0-1.543-2.556q.368.136.732.29m1.138,15.757a34.864,34.864,0,0,1-.4,5.343,55.92,55.92,0,0,0-14.771.113,35.914,35.914,0,0,1-.026-10.742,54.146,54.146,0,0,0,7.823.551,54.955,54.955,0,0,0,7-.438,35.091,35.091,0,0,1,.374,5.173M16.823,73.251a4.176,4.176,0,0,1,2.714-1.144,4.172,4.172,0,0,1,2.714,1.144,11.231,11.231,0,0,1,2.567,3.54A22.766,22.766,0,0,1,26.5,81.636a52.505,52.505,0,0,1-6.545.4,51.936,51.936,0,0,1-7.359-.507,22.746,22.746,0,0,1,1.659-4.736,11.261,11.261,0,0,1,2.566-3.54M7.446,77.115a17.031,17.031,0,0,1,5.436-3.665q.363-.153.73-.29a16.333,16.333,0,0,0-1.541,2.556,25.188,25.188,0,0,0-1.877,5.4,31.76,31.76,0,0,1-4.9-1.38,17.053,17.053,0,0,1,2.148-2.618M4.153,96.682c-.131-.269-.256-.542-.372-.82a17.16,17.16,0,0,1,0-13.31c.1-.228.2-.453.3-.673.029.01.058.022.086.033A34.082,34.082,0,0,0,9.734,83.5a38.078,38.078,0,0,0,.027,11.575,33.935,33.935,0,0,0-5.592,1.6l-.016.006m8.729,8.282A17.228,17.228,0,0,1,5.39,98.819a32.035,32.035,0,0,1,4.844-1.351,24.965,24.965,0,0,0,1.837,5.23,16.264,16.264,0,0,0,1.541,2.554c-.245-.09-.488-.187-.73-.288m9.369.2a4.169,4.169,0,0,1-2.714,1.145,4.173,4.173,0,0,1-2.714-1.145,11.261,11.261,0,0,1-2.566-3.54,22.526,22.526,0,0,1-1.618-4.568,52.164,52.164,0,0,1,7.318-.5,52.892,52.892,0,0,1,6.506.393,22.585,22.585,0,0,1-1.645,4.676,11.231,11.231,0,0,1-2.567,3.54m9.378-3.864a17.068,17.068,0,0,1-5.435,3.666c-.243.1-.487.2-.732.288A16.193,16.193,0,0,0,27,102.7a25.215,25.215,0,0,0,1.872-5.384,33.989,33.989,0,0,1,4.97,1.264,17.318,17.318,0,0,1-2.218,2.72m3.665-5.436c-.078.187-.16.37-.245.554a36.188,36.188,0,0,0-5.709-1.493,37.513,37.513,0,0,0,.43-5.716,37.442,37.442,0,0,0-.405-5.546,36.257,36.257,0,0,0,5.751-1.513c.062.133.121.267.178.4a17.16,17.16,0,0,1,0,13.31" fill="#3cb4e6"></path>
    <path id="Path_639" data-name="Path 639" d="M183.632,36.22l19.032,1.9a1.5,1.5,0,0,1,1.152.749l9.463,16.622-.5.764-6.689,10.29a1.5,1.5,0,0,1-2.07.439l-27.137-17.64a1.5,1.5,0,0,1-.439-2.07l6.688-10.29.5-.764" fill="#3cb4e6"></path>
    <rect id="Rectangle_332" data-name="Rectangle 332" width="26.516" height="30.502" transform="translate(175.886 54.244) rotate(-56.975)" fill="#dae6ff"></rect>
    <path id="Path_640" data-name="Path 640" d="M198.1,56.485l-10.866-7.063a.064.064,0,0,1-.019-.089l.106-.162a.063.063,0,0,1,.088-.019l10.866,7.063a.065.065,0,0,1,.019.089l-.1.162a.064.064,0,0,1-.089.019" fill="#099"></path>
    <path id="Path_641" data-name="Path 641" d="M196.693,58.642l-10.866-7.063a.064.064,0,0,1-.019-.089l.106-.162a.063.063,0,0,1,.088-.019l10.866,7.063a.065.065,0,0,1,.019.089l-.1.162a.064.064,0,0,1-.089.019" fill="#099"></path>
    <path id="Path_642" data-name="Path 642" d="M201.579,60.284,186.528,50.5a.064.064,0,0,1-.019-.088l.106-.162a.063.063,0,0,1,.088-.019l15.051,9.783a.065.065,0,0,1,.019.089l-.1.162a.064.064,0,0,1-.089.019" fill="#099"></path>
    <path id="Path_643" data-name="Path 643" d="M200.2,53.754l-8.584-5.58a.058.058,0,0,1-.017-.079l.113-.174a.058.058,0,0,1,.079-.017l8.584,5.58a.057.057,0,0,1,.017.079l-.113.174a.057.057,0,0,1-.079.017" fill="#099"></path>
    <path id="Path_644" data-name="Path 644" d="M203.987,52.634l-12.881-8.373a.05.05,0,0,1-.015-.068l.122-.188a.05.05,0,0,1,.068-.014l12.881,8.373a.05.05,0,0,1,.015.068l-.123.188a.048.048,0,0,1-.067.014" fill="#099"></path>
    <path id="Path_645" data-name="Path 645" d="M203.169,53.892l-12.881-8.373a.05.05,0,0,1-.015-.068l.122-.188a.05.05,0,0,1,.068-.014l12.881,8.373a.05.05,0,0,1,.015.068l-.123.188a.048.048,0,0,1-.067.014" fill="#099"></path>
    <path id="Path_646" data-name="Path 646" d="M213.278,55.492,202.053,72.76,172.407,53.489l11.224-17.268,7.689,18.211,2.431,1.58Z" fill="#0b006b"></path>
    <path id="Path_647" data-name="Path 647" d="M176.6,56.214l1.524-2.345,14.718.621,6.438,12.768-1.643,2.528Z" fill="#0b006b"></path>
    <path id="Path_648" data-name="Path 648" d="M172.36,53.614l.093-.251c.477.177,11.016.635,19.9.974a.982.982,0,0,1,.839.539L202.173,72.7l-.24.121L192.947,55a.712.712,0,0,0-.609-.392c-4.526-.173-19.342-.754-19.978-.991" fill="#080435"></path>
    <path id="Path_649" data-name="Path 649" d="M127.758,129.325a19.356,19.356,0,0,1-.205,3.087c-1.406,9.452-9.787,16.428-20.016,16.073-11.318-.393-20.612-9.607-20.76-20.583s8.906-19.553,20.224-19.16a21.5,21.5,0,0,1,6.785,1.348,21.717,21.717,0,0,1,2.776,1.258,21.94,21.94,0,0,1,5.18,3.893,21.6,21.6,0,0,1,2.3,2.757,20.59,20.59,0,0,1,3.212,7.151,19.914,19.914,0,0,1,.449,2.923q.048.621.057,1.253" fill="#9cc"></path>
    <path id="Path_650" data-name="Path 650" d="M125.15,119.756l-17.881,8.858s6.564-12.5,9.292-17.267a21.979,21.979,0,0,1,5.181,3.893,21.614,21.614,0,0,1,2.3,2.758,20.3,20.3,0,0,1,1.11,1.758" fill="#fff"></path>
    <path id="Path_651" data-name="Path 651" d="M126.877,117.414,110.544,125.5s6-11.419,8.488-15.772a20.093,20.093,0,0,1,4.732,3.556,19.718,19.718,0,0,1,2.1,2.519,18.609,18.609,0,0,1,1.014,1.606" fill="#099"></path>
    <path id="Path_652" data-name="Path 652" d="M115.79,95.018l-23.3-.809-.026-1.88,23.3.809Z" fill="#099"></path>
    <path id="Path_653" data-name="Path 653" d="M109.12,98.86l-16.574-.575-.025-1.88,16.574.575Z" fill="#9cc"></path>
    <path id="Path_654" data-name="Path 654" d="M128.087,99.518l-16.574-.575-.025-1.88,16.574.575Z" fill="#9cc"></path>
    <path id="Path_655" data-name="Path 655" d="M133.626,95.637l-15.311-.532-.026-1.879,15.312.531Z" fill="#099"></path>
    <path id="Path_656" data-name="Path 656" d="M151.25,96.249l-15.311-.532-.026-1.879,15.312.531Z" fill="#099"></path>
    <path id="Path_657" data-name="Path 657" d="M142.67,146.293l-12.031-.406,0-1.436,12.031.406Z" fill="#099"></path>
    <path id="Path_658" data-name="Path 658" d="M139.189,149.289,130.63,149l0-1.436,8.559.289Z" fill="#9cc"></path>
    <path id="Path_659" data-name="Path 659" d="M148.984,149.619l-8.559-.289,0-1.436,8.559.289Z" fill="#9cc"></path>
    <path id="Path_660" data-name="Path 660" d="M151.881,146.6l-7.907-.267,0-1.435,7.907.266Z" fill="#099"></path>
    <path id="Path_661" data-name="Path 661" d="M160.982,146.91l-7.907-.267,0-1.436,7.907.267Z" fill="#099"></path>
    <path id="Path_662" data-name="Path 662" d="M74.45,6.852l-2.66.826L70.31,2.9,61.17,5.738l1.48,4.774-2.659.825L58.426,6.29a2.4,2.4,0,0,1,1.432-3.06L69.972.094A2.4,2.4,0,0,1,72.885,1.8Z" fill="#3cb4e6"></path>
    <path id="Path_663" data-name="Path 663" d="M87.192,2.384,48.374,14.423a.293.293,0,0,0-.193.367l7.852,25.32a.293.293,0,0,0,.367.193L95.219,28.264a.293.293,0,0,0,.193-.366L87.559,2.577a.293.293,0,0,0-.367-.193" fill="#0b006b"></path>
    <path id="Path_664" data-name="Path 664" d="M73.252,22.089a.208.208,0,0,1-.07.01l-22.733-.116a.232.232,0,0,1,0-.464l22.655.116L89.423,9.379a.232.232,0,0,1,.278.371l-16.379,12.3a.233.233,0,0,1-.07.036" fill="#060633"></path>
    <rect id="Rectangle_333" data-name="Rectangle 333" width="2.468" height="4.47" transform="translate(71.345 19.977) rotate(-17.231)" fill="#3cb4e6"></rect>
    <path id="Path_665" data-name="Path 665" d="M126.7,54.995,95.946,49.548a2.869,2.869,0,0,0-3.252,2.419L90.139,66.394a2.869,2.869,0,0,0,2.223,3.39l3.009.533-.992,5.6,4.244-5.023,24.49,4.338a2.868,2.868,0,0,0,3.252-2.419l2.556-14.428a2.868,2.868,0,0,0-2.223-3.389" fill="#3cb4e6"></path>
    <rect id="Rectangle_334" data-name="Rectangle 334" width="1.077" height="17.879" transform="translate(96.947 57.492) rotate(-79.956)" fill="#dae6ff"></rect>
    <rect id="Rectangle_335" data-name="Rectangle 335" width="1.077" height="20.091" transform="matrix(0.174, -0.985, 0.985, 0.174, 96.47, 60.184)" fill="#dae6ff"></rect>
    <rect id="Rectangle_336" data-name="Rectangle 336" width="1.077" height="11.086" transform="matrix(0.174, -0.985, 0.985, 0.174, 95.994, 62.875)" fill="#dae6ff"></rect>
    <path id="Path_666" data-name="Path 666" d="M48.368,53.744,73.611,49.3a2.281,2.281,0,0,1,2.643,1.851L78.22,62.309a2.281,2.281,0,0,1-1.851,2.643l-2.47.435.763,4.332-3.433-3.861L51.126,69.4a2.282,2.282,0,0,1-2.643-1.851L46.517,56.387a2.282,2.282,0,0,1,1.851-2.643" fill="#099"></path>
    <rect id="Rectangle_337" data-name="Rectangle 337" width="17.082" height="0.97" transform="translate(53.42 58.018) rotate(-9.992)" fill="#dae6ff"></rect>
    <rect id="Rectangle_338" data-name="Rectangle 338" width="19.196" height="0.97" transform="translate(53.846 60.442) rotate(-9.99)" fill="#dae6ff"></rect>
    <rect id="Rectangle_339" data-name="Rectangle 339" width="10.593" height="0.97" transform="translate(54.273 62.867) rotate(-9.992)" fill="#dae6ff"></rect>
  </g>
</svg>
