<svg xmlns="http://www.w3.org/2000/svg" width="31.123" height="31.122" viewBox="0 0 31.123 31.122">
  <path id="_01_puzzle" data-name="01 puzzle" d="M28,14.366l-.1-.1,2.947-2.947a.912.912,0,0,0,0-1.289L27.907,7.086l.1-.1a3.425,3.425,0,0,0,1.941-5.813,3.425,3.425,0,0,0-5.813,1.941l-.1.1L21.089.267a.912.912,0,0,0-1.289,0L7.085,12.981l-.1-.1a3.425,3.425,0,1,0-3.872,3.871l.1.1L.266,19.8a.912.912,0,0,0,0,1.289l9.766,9.766a.912.912,0,0,0,1.289,0l3.592-3.592a.912.912,0,0,0,0-1.289L13.94,25a.912.912,0,0,0-.619-.267,1.6,1.6,0,1,1,1.645-1.645.912.912,0,0,0,.267.62l.975.975a.912.912,0,0,0,1.289,0l6.54-6.54.1.1A3.425,3.425,0,1,0,28,14.366ZM16.852,22.747l-.1-.1a3.425,3.425,0,1,0-3.872,3.872l.1.1-2.3,2.3L2.2,20.445,5.148,17.5a.912.912,0,0,0,0-1.289l-.975-.975a.912.912,0,0,0-.619-.267A1.6,1.6,0,1,1,5.2,13.321a.912.912,0,0,0,.267.619l.975.975a.912.912,0,0,0,1.289,0l2.947-2.947,2.947,2.947a.912.912,0,0,0,1.289,0l.975-.975a.912.912,0,0,0,.267-.62A1.6,1.6,0,1,1,17.8,14.966a.912.912,0,0,0-.619.267l-.975.975a.912.912,0,0,0,0,1.289l2.947,2.947Zm11.8-3.858A1.6,1.6,0,0,1,25.922,17.8a.911.911,0,0,0-.267-.619l-.975-.975a.912.912,0,0,0-1.289,0l-2.947,2.947-2.3-2.3.1-.1a3.425,3.425,0,1,0-3.871-3.871l-.1.1-2.3-2.3L20.444,2.2l2.947,2.947a.912.912,0,0,0,1.289,0l.975-.975a.912.912,0,0,0,.267-.619A1.6,1.6,0,1,1,27.567,5.2a.912.912,0,0,0-.62.267l-.975.975a.912.912,0,0,0,0,1.289l2.947,2.947-2.947,2.947a.912.912,0,0,0,0,1.289l.975.975a.912.912,0,0,0,.619.267,1.6,1.6,0,0,1,1.087,2.733Z" transform="translate(0.001 0)" fill="#099"/>
</svg>
