<svg xmlns="http://www.w3.org/2000/svg" width="22.816" height="31.824" viewBox="0 0 22.816 31.824">
  <g id="_03_touch" data-name="03 touch" transform="translate(0.35 0.351)">
    <path id="Path_5775" data-name="Path 5775" d="M5.539,19.6a2.312,2.312,0,0,0-2.647-3.713,9.254,9.254,0,0,1-1.676-5.341,9.349,9.349,0,0,1,8.8-9.33A.608.608,0,0,0,9.944,0,10.567,10.567,0,0,0,0,10.546a10.46,10.46,0,0,0,1.974,6.149A2.311,2.311,0,0,0,5.538,19.6ZM3.13,17.191a1.095,1.095,0,1,1,0,1.548,1.092,1.092,0,0,1,0-1.548Zm0,0" transform="translate(0.001 0)" fill="#099" stroke="#099" stroke-width="0.7"/>
    <path id="Path_5776" data-name="Path 5776" d="M72.773,33.678a2.161,2.161,0,0,0-1.059.276A2.175,2.175,0,0,0,68.07,33.1a2.2,2.2,0,0,0-.364-.3,10.565,10.565,0,0,0,6.252-9.644A10.465,10.465,0,0,0,71.983,17a2.313,2.313,0,1,0-.919.807A9.35,9.35,0,0,1,65.543,32.25V28.976a6.208,6.208,0,1,0-8.355-5.825,6.157,6.157,0,0,0,1.234,3.714,6.272,6.272,0,0,0,2.77,2.089V37.9l-.764-1.253a2.24,2.24,0,0,0-3.051-.779,2.264,2.264,0,0,0-.9,2.937l2.269,4.583a.608.608,0,0,0,1.09-.539l-2.266-4.578a1.037,1.037,0,0,1,1.82-.991l1.891,3.1a.608.608,0,0,0,1.128-.317V26.113a.96.96,0,0,1,1.919,0v2.406s0,.009,0,.013v9.133a.608.608,0,0,0,1.216,0V34.607a.959.959,0,1,1,1.919,0v3.278a.608.608,0,1,0,1.216,0V34.607a.959.959,0,1,1,1.919,0v3.319a.608.608,0,1,0,1.216,0V35.854a.96.96,0,0,1,1.919,0v7.265a.608.608,0,1,0,1.216,0V35.854a2.178,2.178,0,0,0-2.176-2.176ZM69.278,16.506a1.095,1.095,0,1,1,1.548,0,1.1,1.1,0,0,1-1.548,0ZM58.4,23.151a4.991,4.991,0,1,1,7.139,4.506V26.112a2.161,2.161,0,0,0-.22-.953,2.785,2.785,0,1,0-3.893-.036,2.162,2.162,0,0,0-.239.989v1.519A4.965,4.965,0,0,1,58.4,23.151Zm3.859,1.087a1.554,1.554,0,0,1-.438-1.087,1.569,1.569,0,1,1,2.68,1.108,2.17,2.17,0,0,0-2.242-.021Zm0,0" transform="translate(-52.832 -12.605)" fill="#099" stroke="#099" stroke-width="0.7"/>
    <path id="Path_5777" data-name="Path 5777" d="M199.8,4.783a.609.609,0,1,0-.43-.178A.612.612,0,0,0,199.8,4.783Zm0,0" transform="translate(-187.087 -3.35)" fill="#099" stroke="#099" stroke-width="0.7"/>
  </g>
</svg>
