<svg xmlns="http://www.w3.org/2000/svg" width="28.865" height="31.722" viewBox="0 0 28.865 31.722">
  <g id="_06_security" data-name="06 security" transform="translate(0.3 0.3)" opacity="0.8">
    <path id="Path_5794" data-name="Path 5794" d="M26.6,5.041a5.43,5.43,0,0,1-3.351-3.37A2.462,2.462,0,0,0,20.922,0H7.345a2.462,2.462,0,0,0-2.33,1.672,5.43,5.43,0,0,1-3.351,3.37A2.469,2.469,0,0,0,0,7.378v3.435A21.9,21.9,0,0,0,13.149,30.919a2.483,2.483,0,0,0,1.968,0,21.767,21.767,0,0,0,9.265-7.626,21.88,21.88,0,0,0,3.884-12.48V7.378A2.469,2.469,0,0,0,26.6,5.041Zm-.16,5.772a20.064,20.064,0,0,1-3.562,11.445,19.946,19.946,0,0,1-8.489,6.988.652.652,0,0,1-.517,0A20.081,20.081,0,0,1,1.824,10.813V7.378a.645.645,0,0,1,.432-.612A7.266,7.266,0,0,0,6.741,2.259a.639.639,0,0,1,.6-.435H20.922a.639.639,0,0,1,.6.435A7.266,7.266,0,0,0,26.01,6.766a.645.645,0,0,1,.432.612Zm0,0" transform="translate(-0.001 0)" fill="#099" stroke="#099" stroke-width="0.6"/>
    <path id="Path_5795" data-name="Path 5795" d="M142.585,95.456h-.062v-2.6a3.812,3.812,0,1,0-7.625,0v2.6h-.062a2.2,2.2,0,0,0-2.2,2.2V102.9a4.094,4.094,0,0,0,4.089,4.09h3.962a4.094,4.094,0,0,0,4.089-4.09V97.651A2.2,2.2,0,0,0,142.585,95.456Zm-5.863-2.6a1.989,1.989,0,1,1,3.978,0v2.6h-3.978Zm6.235,10.04a2.268,2.268,0,0,1-2.265,2.266h-3.962a2.268,2.268,0,0,1-2.265-2.266V97.651a.373.373,0,0,1,.372-.372h7.749a.373.373,0,0,1,.372.372Zm0,0" transform="translate(-124.578 -83.634)" fill="#099" stroke="#099" stroke-width="0.6"/>
    <path id="Path_5796" data-name="Path 5796" d="M218.412,260.18a.912.912,0,0,0-.912.912v1.723a.912.912,0,0,0,1.824,0v-1.723A.912.912,0,0,0,218.412,260.18Zm0,0" transform="translate(-204.279 -244.365)" fill="#099" stroke="#099" stroke-width="0.6"/>
  </g>
</svg>
