<svg xmlns="http://www.w3.org/2000/svg" width="37.94" height="31.122" viewBox="0 0 37.94 31.122">
  <path id="_07_process" data-name="07 process" d="M32.305,22.451l-1.328,1.782,1.787,1.332H28.833a4.454,4.454,0,0,0-4.305-3.335H13.412a4.454,4.454,0,0,0-4.305,3.335H6.669a4.446,4.446,0,0,1,0-8.892H9.107a4.454,4.454,0,0,0,4.305,3.335H24.527a4.454,4.454,0,0,0,4.305-3.335H31.2a6.738,6.738,0,0,0,4.746-1.946,6.582,6.582,0,0,0,0-9.446A6.738,6.738,0,0,0,31.2,3.335H28.833A4.454,4.454,0,0,0,24.527,0H13.412A4.454,4.454,0,0,0,9.107,3.335H8.225L4.076.223,2.742,2,4.52,3.335H0V5.558H4.52L2.742,6.892,4.076,8.67l4.15-3.112h.882a4.454,4.454,0,0,0,4.305,3.335H24.527a4.454,4.454,0,0,0,4.305-3.335H31.2a4.447,4.447,0,1,1,0,8.892H28.833a4.454,4.454,0,0,0-4.305-3.335H13.412A4.454,4.454,0,0,0,9.107,14.45H6.669a6.669,6.669,0,1,0,0,13.338H9.107a4.454,4.454,0,0,0,4.305,3.335H24.527a4.454,4.454,0,0,0,4.305-3.335h3.932L30.977,29.12,32.305,30.9l5.635-4.226ZM24.527,6.669H13.412a2.223,2.223,0,0,1,0-4.446H24.527a2.223,2.223,0,1,1,0,4.446ZM13.412,13.338H24.527a2.223,2.223,0,1,1,0,4.446H13.412a2.223,2.223,0,1,1,0-4.446ZM24.527,28.9H13.412a2.223,2.223,0,0,1,0-4.446H24.527a2.223,2.223,0,1,1,0,4.446Zm0,0" transform="translate(0 0)" fill="#099"/>
</svg>
