<svg xmlns="http://www.w3.org/2000/svg" width="41.663" height="41.725" viewBox="0 0 41.663 41.725">
  <g id="Group_9076" data-name="Group 9076" transform="translate(-11666.337 92)">
    <path id="Path_5864" data-name="Path 5864" d="M9.969,44.637A6.129,6.129,0,0,1,3.035,37.7V9.969A6.129,6.129,0,0,1,9.969,3.035h18.49a6.129,6.129,0,0,1,6.934,6.934V40.014a4.622,4.622,0,0,0,4.622,4.622Z" transform="translate(11663.363 -94.973)" fill="#30cece"/>
    <path id="Path_5865" data-name="Path 5865" d="M17,10h5.778a3.467,3.467,0,0,1,3.467,3.467V30.8A4.622,4.622,0,1,1,17,30.8Z" transform="translate(11681.755 -85.76)" fill="#099"/>
    <g id="Group_9075" data-name="Group 9075" transform="translate(40.576 87.523)">
      <g id="Group_9072" data-name="Group 9072" transform="translate(11642.475 -168.121)">
        <path id="Path_5860" data-name="Path 5860" d="M279,50.65l1.524,1.287a.452.452,0,0,0,.624-.039l1.117-1.21a.452.452,0,0,0-.041-.653l-1.506-1.268a.452.452,0,0,0-.619.034l-1.135,1.191A.452.452,0,0,0,279,50.65Z" transform="translate(-278.839 -48.661)" fill="#fff"/>
      </g>
      <g id="Group_9074" data-name="Group 9074" transform="translate(11631.406 -164.001)">
        <path id="Path_5862" data-name="Path 5862" d="M20.279,154.871c-.172-1.121-.874-2.423-3.207-2.423-3.286,0-5.469,2.947-6.2,4.113a.265.265,0,0,1-.471-.044c-.212-.541-.522-1.3-.837-1.956a.45.45,0,0,0-.75-.093l-1.1,1.312a.45.45,0,0,0-.074.452l1.289,3.313a.452.452,0,0,1-.021.374,4.046,4.046,0,0,1-3.786,2.062c-2.908,0-3.835-2.134-2.78-4.937a.451.451,0,0,0-.185-.544l-.294-.18a.45.45,0,0,0-.618.149A8,8,0,0,0,0,160.386c0,2.256,1.321,4.4,4.953,4.4,3.416,0,5.428-2.063,5.838-3.985a.455.455,0,0,1,.444-.362h3.9a5.364,5.364,0,0,0,4.711-3.074A4.032,4.032,0,0,0,20.279,154.871Zm-1.956,1.355c-.2.283-.942,1.1-3.064,1.572a8.445,8.445,0,0,1-2.588.279.185.185,0,0,1-.147-.263c.315-.67,1.395-2.658,3.174-2.805a2.585,2.585,0,0,1,2.633,1.014A.185.185,0,0,1,18.323,156.227Z" transform="translate(0 -152.448)" fill="#fff"/>
      </g>
    </g>
  </g>
</svg>
