<svg id="billing" xmlns="http://www.w3.org/2000/svg" width="41.718" height="41.718" viewBox="0 0 41.718 41.718">
  <path id="Path_5866" data-name="Path 5866" d="M183.6,402.926a1.222,1.222,0,0,0-1.186-.926h-8.148a1.222,1.222,0,0,0-1.186.926l-1.63,6.518h13.779Z" transform="translate(-157.478 -369.245)" fill="#f8b695"/>
  <path id="Path_5868" data-name="Path 5868" d="M158.518,484.444h-16.3a1.222,1.222,0,1,1,0-2.444h16.3a1.222,1.222,0,1,1,0,2.444Z" transform="translate(-129.511 -442.726)" fill="#db5c1e"/>
  <path id="Path_5870" data-name="Path 5870" d="M38.052,62H3.667A3.671,3.671,0,0,0,0,65.667V88.481a3.671,3.671,0,0,0,3.667,3.667H38.052a3.671,3.671,0,0,0,3.667-3.667V65.667A3.671,3.671,0,0,0,38.052,62Z" transform="translate(0 -56.948)" fill="#db5c1e"/>
  <path id="Path_5872" data-name="Path 5872" d="M65.607,92H31.222A1.224,1.224,0,0,0,30,93.222v20.37h5.785l12.63-2.281,12.63,2.281h5.785V93.222A1.224,1.224,0,0,0,65.607,92Z" transform="translate(-27.556 -84.504)" fill="#f8b695"/>
  <path id="Path_5873" data-name="Path 5873" d="M273.193,92H256v19.311l12.63,2.281h5.785V93.222A1.224,1.224,0,0,0,273.193,92Z" transform="translate(-235.141 -84.504)" fill="#f8b695"/>
  <path id="Path_5874" data-name="Path 5874" d="M126.188,7.333,121.37,4.889,118.926.071A1.22,1.22,0,0,0,118.518,0h-16.3A1.222,1.222,0,0,0,101,1.222V29.089h25.259V7.741A1.22,1.22,0,0,0,126.188,7.333Z" transform="translate(-92.77)" fill="#fffbf4"/>
  <path id="Path_5876" data-name="Path 5876" d="M322.222,8.139h6.04a1.221,1.221,0,0,0-.287-.457l-6.519-6.518A1.22,1.22,0,0,0,321,.877v6.04A1.222,1.222,0,0,0,322.222,8.139Z" transform="translate(-294.845 -0.806)" fill="#f8b695"/>
  <path id="Path_5877" data-name="Path 5877" d="M276.3,214.444h-4.074a1.222,1.222,0,0,1,0-2.444H276.3a1.222,1.222,0,1,1,0,2.444Z" transform="translate(-248.919 -194.726)" fill="#db5c1e"/>
  <path id="Path_5878" data-name="Path 5878" d="M276.3,154.444h-4.074a1.222,1.222,0,0,1,0-2.444H276.3a1.222,1.222,0,1,1,0,2.444Z" transform="translate(-248.919 -139.615)" fill="#db5c1e"/>
  <path id="Path_5879" data-name="Path 5879" d="M175.259,274.444H162.222a1.222,1.222,0,1,1,0-2.444h13.037a1.222,1.222,0,1,1,0,2.444Z" transform="translate(-147.882 -249.837)" fill="#db5c1e"/>
  <path id="Path_5881" data-name="Path 5881" d="M169.64,79.1c-.165-.058-.333-.119-.5-.181V75.978a1.3,1.3,0,0,1,.526.294.815.815,0,0,0,1.225-1.075,2.983,2.983,0,0,0-1.751-.886v-.5a.815.815,0,0,0-1.63,0V74.4c-.067.017-.135.036-.2.056a2.883,2.883,0,0,0-1.976,2.26,2.555,2.555,0,0,0,.842,2.516,6.454,6.454,0,0,0,1.339.778V83.8a2.67,2.67,0,0,1-1.252-.514.815.815,0,0,0-.892,1.364,4.17,4.17,0,0,0,2.144.788v.6a.815.815,0,1,0,1.63,0v-.671a3.489,3.489,0,0,0,2.587-2.792A3.032,3.032,0,0,0,169.64,79.1Zm-2.463-1.149a.961.961,0,0,1-.246-.932,1.331,1.331,0,0,1,.579-.882v2.042A3.391,3.391,0,0,1,167.177,77.954Zm2.942,4.349a1.855,1.855,0,0,1-.979,1.34V80.656A1.432,1.432,0,0,1,170.119,82.3Z" transform="translate(-151.553 -67.052)" fill="#f8b695"/>
</svg>
