<svg xmlns="http://www.w3.org/2000/svg" width="41.562" height="41.725" viewBox="0 0 41.562 41.725">
  <g id="Group_9068" data-name="Group 9068" transform="translate(-11766.668 92)">
    <path id="Path_5835" data-name="Path 5835" d="M10.372,402H5.482A4.482,4.482,0,0,0,1,406.482v3.26a1.222,1.222,0,0,0,1.222,1.222H14.854v-4.482A4.482,4.482,0,0,0,10.372,402Z" transform="translate(11765.668 -461.24)" fill="#099"/>
    <path id="Path_5837" data-name="Path 5837" d="M30.89,311.779a4.89,4.89,0,1,1,4.89-4.89A4.9,4.9,0,0,1,30.89,311.779Z" transform="translate(11742.705 -369.389)" fill="#30cece"/>
    <path id="Path_5839" data-name="Path 5839" d="M180.372,402h-4.89A4.482,4.482,0,0,0,171,406.482v4.482h13.854v-4.482A4.482,4.482,0,0,0,180.372,402Z" transform="translate(11609.521 -461.24)" fill="#30cece"/>
    <path id="Path_5841" data-name="Path 5841" d="M200.89,311.779a4.89,4.89,0,1,1,4.89-4.89A4.9,4.9,0,0,1,200.89,311.779Z" transform="translate(11586.559 -369.389)" fill="#099"/>
    <path id="Path_5843" data-name="Path 5843" d="M350.372,402h-4.89A4.482,4.482,0,0,0,341,406.482v4.482h12.631a1.222,1.222,0,0,0,1.222-1.222v-3.26A4.482,4.482,0,0,0,350.372,402Z" transform="translate(11453.376 -461.24)" fill="#099"/>
    <path id="Path_5845" data-name="Path 5845" d="M370.89,311.779a4.89,4.89,0,1,1,4.89-4.89A4.9,4.9,0,0,1,370.89,311.779Z" transform="translate(11430.413 -369.389)" fill="#30cece"/>
    <path id="Path_5847" data-name="Path 5847" d="M155.418,16.46a1.878,1.878,0,0,1-1.846-2.193l.622-3.627-2.635-2.569a1.874,1.874,0,0,1,1.039-3.2l3.642-.529,1.629-3.3a1.874,1.874,0,0,1,3.361,0l1.629,3.3,3.642.529a1.874,1.874,0,0,1,1.039,3.2L164.9,10.64l.622,3.627a1.874,1.874,0,0,1-2.719,1.976l-3.258-1.712-3.258,1.713a1.875,1.875,0,0,1-.874.217Z" transform="translate(11627.899 -92)" fill="#30cece"/>
    <path id="Path_5849" data-name="Path 5849" d="M11.141,93.346a1.73,1.73,0,0,1-.806-.2L7.928,91.88,5.52,93.145a1.729,1.729,0,0,1-2.509-1.823l.46-2.681-1.948-1.9a1.729,1.729,0,0,1,.958-2.95L5.173,83.4l1.2-2.439a1.729,1.729,0,0,1,3.1,0l1.2,2.439,2.691.391a1.729,1.729,0,0,1,.958,2.95l-1.947,1.9.46,2.68a1.733,1.733,0,0,1-1.7,2.024Z" transform="translate(11765.668 -165.481)" fill="#099"/>
    <path id="Path_5850" data-name="Path 5850" d="M351.124,93.346a1.73,1.73,0,0,1-.806-.2L347.91,91.88,345.5,93.145a1.729,1.729,0,0,1-2.509-1.823l.46-2.681-1.947-1.9a1.729,1.729,0,0,1,.958-2.95l2.691-.391,1.2-2.439a1.729,1.729,0,0,1,3.1,0l1.2,2.439,2.691.391a1.729,1.729,0,0,1,.958,2.95l-1.947,1.9.46,2.68a1.733,1.733,0,0,1-1.7,2.024Z" transform="translate(11453.392 -165.481)" fill="#ffcb00"/>
    <path id="Path_5851" data-name="Path 5851" d="M351.124,93.346a1.73,1.73,0,0,1-.806-.2L347.91,91.88,345.5,93.145a1.729,1.729,0,0,1-2.509-1.823l.46-2.681-1.947-1.9a1.729,1.729,0,0,1,.958-2.95l2.691-.391,1.2-2.439a1.729,1.729,0,0,1,3.1,0l1.2,2.439,2.691.391a1.729,1.729,0,0,1,.958,2.95l-1.947,1.9.46,2.68a1.733,1.733,0,0,1-1.7,2.024Z" transform="translate(11453.392 -165.481)" fill="#099"/>
  </g>
</svg>
