<svg xmlns="http://www.w3.org/2000/svg" width="41.725" height="41.725" viewBox="0 0 41.725 41.725">
  <g id="Group_9066" data-name="Group 9066" transform="translate(-11776.06 92)">
    <path id="Path_5819" data-name="Path 5819" d="M75,452H87.305v2.445H75Zm0,0" transform="translate(11707.172 -507.165)" fill="#f8b695"/>
    <path id="Path_5820" data-name="Path 5820" d="M286,452h12.305v2.445H286Zm0,0" transform="translate(11513.366 -507.165)" fill="#f8b695"/>
    <path id="Path_5821" data-name="Path 5821" d="M241,345h2.445v7.5H241Zm0,0" transform="translate(11554.699 -408.885)" fill="#f8b695"/>
    <path id="Path_5823" data-name="Path 5823" d="M214.667,422a3.667,3.667,0,1,0,3.667,3.667A3.662,3.662,0,0,0,214.667,422Zm0,0" transform="translate(11582.255 -479.61)" fill="#db5c1e"/>
    <path id="Path_5825" data-name="Path 5825" d="M425.667,429.334a3.667,3.667,0,1,1,3.667-3.667A3.671,3.671,0,0,1,425.667,429.334Zm0,0" transform="translate(11388.45 -479.61)" fill="#db5c1e"/>
    <path id="Path_5826" data-name="Path 5826" d="M3.667,429.334a3.667,3.667,0,1,1,3.667-3.667A3.671,3.671,0,0,1,3.667,429.334Zm0,0" transform="translate(11776.06 -479.61)" fill="#db5c1e"/>
    <path id="Path_5827" data-name="Path 5827" d="M117.893,240v7.334c0,3.349-6.968,4.89-13.446,4.89S91,250.684,91,247.334V240Zm0,0" transform="translate(11692.476 -312.442)" fill="#db5c1e"/>
    <path id="Path_5829" data-name="Path 5829" d="M117.893,150v7.334c0,3.35-6.968,4.89-13.446,4.89S91,160.684,91,157.334V150Zm0,0" transform="translate(11692.476 -229.776)" fill="#f8b695"/>
    <path id="Path_5831" data-name="Path 5831" d="M117.893,60v7.334c0,3.35-6.968,4.89-13.446,4.89S91,70.684,91,67.334V60Zm0,0" transform="translate(11692.476 -147.11)" fill="#db5c1e"/>
    <path id="Path_5833" data-name="Path 5833" d="M104.446,0C97.968,0,91,1.54,91,4.89s6.968,4.89,13.446,4.89,13.446-1.54,13.446-4.89S110.925,0,104.446,0Zm0,0" transform="translate(11692.476 -92)" fill="#f8b695"/>
  </g>
</svg>
