<svg id="scan" xmlns="http://www.w3.org/2000/svg" width="27.354" height="31.122" viewBox="0 0 27.354 31.122">
  <path id="Path_5811" data-name="Path 5811" d="M32.824,1.824h3.647V0H31V5.471h1.824Z" transform="translate(-31)" fill="#099"/>
  <path id="Path_5812" data-name="Path 5812" d="M32.824,422H31v5.471h5.471v-1.824H32.824Z" transform="translate(-31 -396.348)" fill="#099"/>
  <path id="Path_5813" data-name="Path 5813" d="M391,0V1.824h3.647V5.471h1.824V0Z" transform="translate(-369.117)" fill="#099"/>
  <path id="Path_5814" data-name="Path 5814" d="M394.647,425.647H391v1.824h5.471V422h-1.824Z" transform="translate(-369.117 -396.348)" fill="#099"/>
  <path id="Path_5815" data-name="Path 5815" d="M52.883,67l-6-6H36.471V75.589H31v1.824h5.471v7.294H52.883V77.412h5.471V75.589H52.883Zm-5.471-2.892,2.358,2.358H47.412Zm-9.118-1.289h7.294v5.471h5.471v7.294H38.294ZM51.059,82.883H38.294V77.412H51.059Z" transform="translate(-31 -57.292)" fill="#099"/>
  <path id="Path_5816" data-name="Path 5816" d="M181,181h3.647v1.824H181Z" transform="translate(-171.882 -169.998)" fill="#099"/>
  <path id="Path_5817" data-name="Path 5817" d="M181,241h9.118v1.824H181Z" transform="translate(-171.882 -226.351)" fill="#099"/>
  <path id="Path_5818" data-name="Path 5818" d="M181,361h9.118v1.824H181Z" transform="translate(-171.882 -339.056)" fill="#099"/>
</svg>
