<svg xmlns="http://www.w3.org/2000/svg" width="28.436" height="33.393" viewBox="0 0 28.436 33.393">
  <g id="surface1" transform="translate(0)">
    <path id="Path_5686" data-name="Path 5686" d="M28.4,9.06V9.034c-.015-.321-.024-.66-.03-1.038A3.539,3.539,0,0,0,25.04,4.529,13.733,13.733,0,0,1,15.693.589L15.671.568a2.137,2.137,0,0,0-2.9,0l-.022.021A13.735,13.735,0,0,1,3.4,4.529,3.539,3.539,0,0,0,.065,8C.06,8.371.05,8.71.035,9.034l0,.06C-.041,13.009-.134,17.882,1.5,22.3A16.816,16.816,0,0,0,5.53,28.588a21.1,21.1,0,0,0,7.895,4.67,2.445,2.445,0,0,0,.324.088,2.39,2.39,0,0,0,.94,0,2.453,2.453,0,0,0,.325-.089A21.118,21.118,0,0,0,22.9,28.585,16.84,16.84,0,0,0,26.934,22.3C28.57,17.864,28.478,12.982,28.4,9.06ZM25.1,21.622c-1.719,4.661-5.229,7.863-10.729,9.786a.492.492,0,0,1-.062.017.44.44,0,0,1-.172,0,.488.488,0,0,1-.062-.017c-5.506-1.92-9.018-5.119-10.736-9.781-1.5-4.077-1.417-8.549-1.342-12.5V9.109c.015-.339.025-.694.031-1.085a1.573,1.573,0,0,1,1.483-1.54A17.192,17.192,0,0,0,9.342,5.2,15.267,15.267,0,0,0,14.1,2.007a.181.181,0,0,1,.242,0A15.272,15.272,0,0,0,19.1,5.2a17.193,17.193,0,0,0,5.836,1.284,1.573,1.573,0,0,1,1.482,1.54c.006.392.016.748.031,1.084C26.519,13.06,26.6,17.536,25.1,21.622Zm0,0" transform="translate(0 0.001)" fill="#099"/>
    <path id="Path_5687" data-name="Path 5687" d="M98.72,128.41a8.322,8.322,0,1,0,8.322,8.322A8.332,8.332,0,0,0,98.72,128.41Zm0,14.685a6.363,6.363,0,1,1,6.362-6.363A6.37,6.37,0,0,1,98.72,143.095Zm0,0" transform="translate(-84.503 -120.035)" fill="#099"/>
    <path id="Path_5688" data-name="Path 5688" d="M160.26,212.278l-3.865,3.865-1.049-1.049a.98.98,0,0,0-1.386,1.385l1.742,1.742a.98.98,0,0,0,1.385,0l4.558-4.558a.98.98,0,0,0-1.386-1.385Zm0,0" transform="translate(-143.65 -198.165)" fill="#099"/>
  </g>
</svg>
