<svg xmlns="http://www.w3.org/2000/svg" width="33.393" height="33.843" viewBox="0 0 33.393 33.843">
  <g id="team" transform="translate(0 0.45)">
    <g id="Group_4402" data-name="Group 4402" transform="translate(0 15.357)">
      <g id="Group_4394" data-name="Group 4394" transform="translate(23.26)">
        <path id="Path_5691" data-name="Path 5691" d="M330.01,223.294a4.037,4.037,0,1,1,4.031-4.037A4.038,4.038,0,0,1,330.01,223.294Zm0-5.933a1.9,1.9,0,1,0,1.89,1.9A1.9,1.9,0,0,0,330.01,217.361Z" transform="translate(-325.979 -215.22)" fill="#099"/>
      </g>
      <g id="Group_4395" data-name="Group 4395" transform="translate(2.072)">
        <path id="Path_5692" data-name="Path 5692" d="M33.073,223.294a4.037,4.037,0,1,1,4.031-4.037A4.038,4.038,0,0,1,33.073,223.294Zm0-5.933a1.9,1.9,0,1,0,1.89,1.9A1.9,1.9,0,0,0,33.073,217.361Z" transform="translate(-29.042 -215.22)" fill="#099"/>
      </g>
      <g id="Group_4401" data-name="Group 4401" transform="translate(0 0.424)">
        <path id="Path_5693" data-name="Path 5693" d="M176.5,225.953a4.786,4.786,0,1,0-5.856,4.671v3.607h2.141v-3.608A4.8,4.8,0,0,0,176.5,225.953Zm-4.786,2.653a2.653,2.653,0,1,1,2.645-2.653A2.652,2.652,0,0,1,171.717,228.606Z" transform="translate(-155.02 -221.16)" fill="#099"/>
        <g id="Group_4396" data-name="Group 4396" transform="translate(9.31 8.348)">
          <path id="Path_5694" data-name="Path 5694" d="M142.908,347.424h-10.08a2.349,2.349,0,0,1-2.346-2.346V343.2a7.36,7.36,0,0,1,1.987-5.04l1.565,1.461a5.226,5.226,0,0,0-1.411,3.579v1.878a.206.206,0,0,0,.206.206h10.08a.206.206,0,0,0,.206-.206V343.2a5.227,5.227,0,0,0-1.411-3.579l1.564-1.461a7.36,7.36,0,0,1,1.987,5.041v1.878A2.349,2.349,0,0,1,142.908,347.424Z" transform="translate(-130.482 -338.159)" fill="#099"/>
        </g>
        <g id="Group_4397" data-name="Group 4397" transform="translate(28.717 7.054)">
          <path id="Path_5695" data-name="Path 5695" d="M405.058,327.01h-2.589V324.87H405v-1.442a3.941,3.941,0,0,0-.674-2.211l1.775-1.2a6.073,6.073,0,0,1,1.04,3.408v1.5A2.089,2.089,0,0,1,405.058,327.01Z" transform="translate(-402.469 -320.019)" fill="#099"/>
        </g>
        <g id="Group_4398" data-name="Group 4398" transform="translate(25.415 11.905)">
          <path id="Path_5696" data-name="Path 5696" d="M356.186,388h1.875v2.141h-1.875Z" transform="translate(-356.186 -388)" fill="#099"/>
        </g>
        <g id="Group_4399" data-name="Group 4399" transform="translate(6.103 11.905)">
          <path id="Path_5697" data-name="Path 5697" d="M85.532,388h1.875v2.141H85.532Z" transform="translate(-85.532 -388)" fill="#099"/>
        </g>
        <g id="Group_4400" data-name="Group 4400" transform="translate(0 7.368)">
          <path id="Path_5698" data-name="Path 5698" d="M4.676,331.1H2.087A2.089,2.089,0,0,1,0,329.017v-1.5a6.1,6.1,0,0,1,.841-3.094l1.844,1.087a3.956,3.956,0,0,0-.545,2.007v1.442H4.676Z" transform="translate(0 -324.427)" fill="#099"/>
        </g>
      </g>
    </g>
    <g id="warning" transform="translate(-20 -14.882)">
      <g id="Group_9012" data-name="Group 9012" transform="translate(29 14.882)">
        <path id="Path_5768" data-name="Path 5768" d="M218.985,333.382a.76.76,0,1,0,0,1.521.761.761,0,0,0,0-1.521Z" transform="translate(-211.587 -323.876)" fill="#099" stroke="#099" stroke-width="0.9"/>
        <path id="Path_5769" data-name="Path 5769" d="M14.437,33.083a2.6,2.6,0,0,0,.006-2.628L9.679,22.205a2.625,2.625,0,0,0-4.557,0L.353,30.461a2.634,2.634,0,0,0,2.281,3.948h9.515A2.62,2.62,0,0,0,14.437,33.083Zm-1.034-.6a1.437,1.437,0,0,1-1.256.727H2.631A1.418,1.418,0,0,1,1.39,32.5a1.439,1.439,0,0,1,0-1.451L6.157,22.8a1.432,1.432,0,0,1,2.488,0l4.767,8.255A1.42,1.42,0,0,1,13.4,32.487Z" transform="translate(0 -20.882)" fill="#099" stroke="#099" stroke-width="0.9"/>
        <path id="Path_5770" data-name="Path 5770" d="M218.312,157.2a.827.827,0,0,0-.587.83c.018.24.033.484.052.724.052.916.1,1.813.155,2.729a.557.557,0,0,0,.569.535.569.569,0,0,0,.569-.554c0-.189,0-.362.018-.554.033-.587.07-1.174.1-1.761.018-.38.052-.76.07-1.141a.939.939,0,0,0-.07-.38A.762.762,0,0,0,218.312,157.2Z" transform="translate(-211.102 -153.89)" fill="#099" stroke="#099" stroke-width="0.9"/>
      </g>
    </g>
  </g>
</svg>
