<svg xmlns="http://www.w3.org/2000/svg" width="34.423" height="33.394" viewBox="0 0 34.423 33.394">
  <g id="time" transform="translate(0)">
    <g id="Group_4405" data-name="Group 4405" transform="translate(10.777 20.205)">
      <g id="Group_4403" data-name="Group 4403" transform="translate(3.897)">
        <path id="Path_5699" data-name="Path 5699" d="M202.289,294.887a16.773,16.773,0,0,1-2.784-.282l.415-2.218a14.5,14.5,0,0,0,2.408.244Zm2.79-.183-.335-2.231a14.333,14.333,0,0,0,2.352-.56l.706,2.143A16.589,16.589,0,0,1,205.079,294.7Zm5.3-1.747-1.057-1.994a14.465,14.465,0,0,0,2.035-1.31l1.375,1.789A16.731,16.731,0,0,1,210.377,292.958Zm4.421-3.4-1.653-1.535a14.554,14.554,0,0,0,1.493-1.906l1.885,1.239A16.812,16.812,0,0,1,214.8,289.558Zm3.06-4.663-2.066-.905a14.4,14.4,0,0,0,.78-2.29l2.189.545A16.657,16.657,0,0,1,217.857,284.895Z" transform="translate(-199.505 -281.699)" fill="#099"/>
      </g>
      <g id="Group_4404" data-name="Group 4404" transform="translate(0 9.613)">
        <path id="Path_5700" data-name="Path 5700" d="M147.717,414.932c-.4-.149-.8-.316-1.192-.5l.946-2.048c.336.155.682.3,1.029.428Z" transform="translate(-146.525 -412.388)" fill="#099"/>
      </g>
    </g>
    <g id="Group_4406" data-name="Group 4406" transform="translate(0 0)">
      <path id="Path_5701" data-name="Path 5701" d="M95.993,75.887A11.573,11.573,0,1,0,107.559,87.46,11.583,11.583,0,0,0,95.993,75.887Zm1.245,20.806.006-2-2.255-.007-.006,2.031a9.332,9.332,0,0,1-8.226-8.077l2.083.007.007-2.256-2.1-.007a9.332,9.332,0,0,1,8.126-8.177l-.006,2.011,2.255.007.006-2.017a9.333,9.333,0,0,1,8.1,8.063l-1.96-.006-.007,2.256,1.98.006A9.332,9.332,0,0,1,97.238,96.693Z" transform="translate(-78.217 -70.82)" fill="#099"/>
      <path id="Path_5702" data-name="Path 5702" d="M219.506,165.617v-3.756h-2.255v3.756a1.882,1.882,0,1,0,2.633,2.635h3.74v-2.257h-3.741A1.892,1.892,0,0,0,219.506,165.617Z" transform="translate(-200.575 -150.47)" fill="#099"/>
      <path id="Path_5703" data-name="Path 5703" d="M29.543,11.891A16.668,16.668,0,0,0,1.089,23.7a16.764,16.764,0,0,0,1.048,5.834l-1.4-.483L0,31.182l3.929,1.354A1.137,1.137,0,0,0,5.337,31.9l1.58-3.8-2.082-.867-.6,1.451A14.419,14.419,0,1,1,32.169,23.7c0,.372-.014.748-.042,1.117l2.249.172a16.8,16.8,0,0,0-4.832-13.095Z" transform="translate(0 -7)" fill="#099"/>
    </g>
  </g>
</svg>
