<svg height="512pt" viewBox="-24 0 512 512.00132" width="512pt" xmlns="http://www.w3.org/2000/svg"><path d="m392.558594 141.367188c1.730468 0 3.785156-1.136719 3.785156-2.78125v-3.449219c11.195312-1.730469 21.035156-8.816407 21.035156-23.597657 0-13.53125-8.519531-19.265624-21.035156-23.820312v-19.585938c9.078125.730469 13.601562 8.058594 17.640625 1.214844 5.597656-9.515625-6.664063-13.515625-17.640625-13.515625v-2.921875c0-1.65625-2.050781-2.8125-3.785156-2.8125-1.878906 0-3.785156 1.144532-3.785156 2.785156v3.113282c-12.867188 1.699218-21.589844 8.617187-21.589844 21.707031 0 13.488281 9.867187 17.890625 21.589844 22.371094v22.148437c-11.984376-1.449218-15.9375-13.773437-21.757813-5.617187-7.074219 9.953125 8.464844 18.804687 21.757813 18.804687v3.148438c0 1.683594 1.941406 2.808594 3.785156 2.808594zm2.894531-38.621094c6.925781 3.035156 8.347656 6.335937 8.347656 10.238281 0 5.195313-3.390625 8.078125-8.347656 9.128906zm-12.1875-20.925782c-3.5625-2.691406-4.988281-11.558593 6.398437-13.355468v16.808594c-2.597656-1.039063-4.730468-2.191407-6.398437-3.453126zm0 0"/><path d="m99.40625 429.511719c0-13.53125-8.523438-19.265625-21.039062-23.816407v-19.589843c9.078124.734375 13.605468 8.0625 17.644531 1.214843 5.597656-9.515624-6.664063-13.511718-17.644531-13.511718v-2.921875c0-1.660157-2.046876-2.8125-3.78125-2.8125-1.882813 0-3.785157 1.140625-3.785157 2.78125v3.117187c-12.871093 1.695313-21.59375 8.617188-21.59375 21.703125 0 13.492188 9.867188 17.894531 21.59375 22.371094v22.148437c-12.59375-1.519531-15.800781-13.964843-21.757812-5.613281-7.183594 10.105469 8.804687 18.804688 21.757812 18.804688v3.144531c0 1.6875 1.941407 2.808594 3.785157 2.808594 1.730468 0 3.78125-1.136719 3.78125-2.78125v-3.449219c11.195312-1.730469 21.039062-8.8125 21.039062-23.597656zm-27.714844-26.265625c-2.601562-1.039063-4.730468-2.1875-6.402344-3.449219-3.5625-2.691406-4.988281-11.5625 6.402344-13.355469zm5.785156 36.839844v-19.363282c6.925782 3.03125 8.347657 6.332032 8.347657 10.238282 0 5.195312-3.390625 8.078124-8.347657 9.125zm0 0"/><path d="m17.40625 321.835938c4-1.078126 6.367188-5.195313 5.285156-9.191407-39.203125-145.320312 76.703125-284.390625 225.246094-273.617187l-2.234375 14.609375c-1.132813 7.386719 5.90625 13.363281 13.003906 11.078125l48.558594-15.648438c7.871094-2.539062 9.46875-12.976562 2.71875-17.753906l-41.652344-29.460938c-6.101562-4.3125-14.597656-.6875-15.722656 6.679688l-2.390625 15.613281c-158.667969-12.332031-284.066406 136.515625-242.007812 292.40625 1.082031 4.011719 5.210937 6.363281 9.195312 5.285157zm248.816406-303.101563 27.003906 19.097656-31.480468 10.144531zm0 0"/><path d="m447.625 189.800781c-4 1.078125-6.367188 5.195313-5.289062 9.195313 39.28125 145.59375-76.507813 282.941406-223.148438 273.75l2.203125-14.382813c1.132813-7.382812-5.90625-13.367187-13.003906-11.078125l-48.558594 15.648438c-7.871094 2.535156-9.472656 12.976562-2.71875 17.753906l41.648437 29.460938c6.097657 4.3125 14.597657.695312 15.726563-6.679688l2.425781-15.832031c157.746094 10.804687 281.785156-137.328125 239.910156-292.546875-1.082031-4-5.199218-6.367188-9.195312-5.289063zm-246.753906 303.464844-27.003906-19.097656 31.480468-10.144531zm0 0"/><path d="m232.515625 111.730469c-79.472656 0-144.089844 64.648437-144.089844 144.089843 0 79.585938 64.710938 144.085938 144.089844 144.085938 79.621094 0 144.085937-64.792969 144.085937-144.085938 0-79.480468-64.535156-144.089843-144.085937-144.089843zm-53.925781 26.84375c-9.722656 10.925781-17.363282 23.996093-23.128906 37.644531-4.878907-3.628906-9.523438-7.605469-13.878907-11.925781 10.125-10.128907 22.699219-19.136719 37.007813-25.71875zm-47.027344 36.894531c5.757812 5.648438 11.953125 10.773438 18.503906 15.339844-5.695312 17.726562-9.023437 37.234375-9.675781 57.511718h-36.738281c1.570312-27 11.402344-52.15625 27.910156-72.851562zm-27.910156 87.851562h36.734375c.65625 20.277344 3.980469 39.78125 9.679687 57.511719-6.550781 4.566407-12.746094 9.691407-18.503906 15.339844-16.441406-20.605469-26.335938-45.824219-27.910156-72.851563zm37.925781 84.027344c4.359375-4.320312 9-8.300781 13.882813-11.925781 5.769531 13.652344 13.40625 26.71875 23.128906 37.644531-13.894532-6.394531-26.585938-15.292968-37.011719-25.71875zm83.4375 36.945313c-27.195313-4.46875-46.429687-31.492188-56.78125-57.238281 17.246094-9.898438 36.683594-15.777344 56.78125-16.953126zm0-89.222657c-21.792969 1.140626-42.914063 7.246094-61.796875 17.601563-4.550781-15.289063-7.21875-31.988281-7.816406-49.351563h69.613281zm0-46.75h-69.613281c.597656-17.363281 3.265625-34.0625 7.816406-49.351562 18.882812 10.355469 40.003906 16.457031 61.796875 17.597656zm0-46.78125c-20.097656-1.175781-39.535156-7.054687-56.78125-16.953124 10.335937-25.707032 29.5625-52.765626 56.78125-57.238282zm15-74.191406c27.1875 4.46875 46.421875 31.480469 56.78125 57.234375-17.25 9.902344-36.6875 15.777344-56.78125 16.953125zm0 89.21875c21.792969-1.140625 42.910156-7.242187 61.792969-17.597656 4.550781 15.289062 7.222656 31.988281 7.816406 49.351562h-69.609375zm0 46.753906h69.609375c-.597656 17.363282-3.265625 34.0625-7.816406 49.351563-18.882813-10.355469-40-16.460937-61.792969-17.601563zm0 120.972657v-74.191407c20.09375 1.175782 39.53125 7.054688 56.78125 16.953126-10.339844 25.707031-29.566406 52.765624-56.78125 57.238281zm46.425781-11.230469c9.722656-10.925781 17.359375-23.992188 23.128906-37.640625 4.878907 3.628906 9.523438 7.605469 13.878907 11.925781-10.691407 10.625-23.058594 19.300782-37.007813 25.714844zm47.023438-36.890625c-5.757813-5.648437-11.953125-10.773437-18.503906-15.339844 5.699218-17.730469 9.023437-37.234375 9.679687-57.511719h36.738281c-1.515625 26.199219-10.925781 51.542969-27.914062 72.851563zm27.914062-87.851563h-36.738281c-.65625-20.277343-3.980469-39.785156-9.679687-57.511718 6.554687-4.566406 12.746093-9.691406 18.507812-15.339844 16.136719 20.234375 26.328125 45.40625 27.910156 72.851562zm-51.808594-72.101562c-5.769531-13.652344-13.410156-26.71875-23.132812-37.644531 13.371094 6.152343 25.835938 14.613281 37.011719 25.714843-4.355469 4.320313-9 8.300782-13.878907 11.929688zm0 0"/><path d="m73.527344 341.519531c-40.410156 0-73.285156 32.878907-73.285156 73.289063 0 32.871094 22.117187 61.921875 53.792968 70.644531 3.992188 1.101563 8.125-1.246094 9.222656-5.238281 1.101563-3.996094-1.246093-8.125-5.238281-9.222656-25.1875-6.9375-42.777343-30.042969-42.777343-56.183594 0-32.140625 26.148437-58.289063 58.285156-58.289063 32.140625 0 58.289062 26.148438 58.289062 58.289063 0 26.140625-17.59375 49.246094-42.777344 56.183594-3.996093 1.097656-6.339843 5.226562-5.242187 9.222656 1.101563 3.992187 5.230469 6.339844 9.222656 5.238281 31.675781-8.722656 53.796875-37.773437 53.796875-70.644531-.003906-40.410156-32.878906-73.289063-73.289062-73.289063zm0 0"/><path d="m447.6875 81.324219c1.097656 3.988281 5.222656 6.339843 9.21875 5.238281s6.34375-5.230469 5.242188-9.222656c-8.722657-31.675782-37.773438-53.796875-70.648438-53.796875-40.410156 0-73.285156 32.878906-73.285156 73.289062 0 40.410157 32.875 73.285157 73.285156 73.285157 32.875 0 61.925781-22.121094 70.648438-53.792969 1.101562-3.996094-1.246094-8.125-5.242188-9.222657-3.992188-1.101562-8.121094 1.246094-9.21875 5.238282-6.9375 25.1875-30.042969 42.777344-56.1875 42.777344-32.136719 0-58.285156-26.148438-58.285156-58.289063 0-32.136719 26.148437-58.285156 58.285156-58.285156 26.144531.003906 49.25 17.59375 56.1875 42.78125zm0 0"/></svg>