<svg height="496pt" viewBox="-24 0 496 496" width="496pt" xmlns="http://www.w3.org/2000/svg"><path d="m204.601562 364.609375c-3.464843 0-7.113281-1.441406-9.851562-4.015625-2.933594-2.753906-4.652344-6.632812-4.710938-10.632812l-.207031-16.777344c-.191406-.085938-.390625-.167969-.578125-.246094-.007812 0-.015625-.007812-.023437-.007812l-11.933594 11.964843c-5.890625 5.90625-15.21875 6.015625-21.25.257813l-29.285156-27.929688c-2.96875-2.832031-4.632813-6.589844-4.691407-10.566406-.046874-3.992188 1.523438-7.800781 4.425782-10.703125l11.769531-11.792969c-.050781-.105468-.089844-.214844-.128906-.320312l-17.394531.207031c-3.550782.152344-7.558594-1.277344-10.46875-4.007813-2.929688-2.75-4.648438-6.625-4.707032-10.625l-.503906-39.910156c-.183594-3.601562 1.203125-7.34375 3.929688-10.246094 2.808593-2.984374 6.769531-4.714843 10.871093-4.769531l17.046875-.410156c.058594-.125.113282-.253906.167969-.382813l-12.070313-11.511718c-2.902343-2.769532-4.535156-6.664063-4.496093-10.679688.054687-4.015625 1.808593-7.878906 4.808593-10.609375l28.28125-28.351562c5.894532-5.894531 15.214844-6 21.246094-.253907l12.214844 11.648438c.203125-.082031.410156-.160156.609375-.226562l-.207031-16.78125c-.183594-3.601563 1.199218-7.34375 3.925781-10.25 2.808594-2.984376 6.769531-4.710938 10.875-4.769532l40.8125-.496094c3.632813-.175781 7.570313 1.28125 10.480469 4.011719 2.9375 2.757813 4.648437 6.636719 4.695312 10.636719l.210938 16.792969c.183594.066406.375.136719.558594.214843.015624.007813.023437.007813.039062.019532l11.9375-11.96875c5.894531-5.898438 15.222656-6 21.246094-.257813l29.152344 27.792969c2.976562 2.839844 4.640624 6.601562 4.6875 10.574219.050781 3.992187-1.519532 7.792969-4.421876 10.699219l-11.769531 11.789062c.042969.113281.089844.21875.128907.328125l17.390624-.207031c3.648438-.128906 7.554688 1.273437 10.464844 4 2.9375 2.753906 4.65625 6.632812 4.714844 10.632812l.359375 39.800782c.183594 3.566406-1.203125 7.320312-3.929687 10.222656-2.808594 2.984375-6.769532 4.710937-10.871094 4.769531l-17.382813.207031c-.042969.101563-.082031.207032-.121093.3125l12.070312 11.511719c5.632812 5.359375 6.191406 14.039063 1.335938 20.640625-.238282.328125-.503907.621094-.78125.910156l-28.578126 28.632813c-5.886718 5.910156-15.214843 6.007812-21.246093.253906l-12.210938-11.644531c-.207031.078125-.414062.15625-.613281.222656l.207031 16.785156c.183594 3.597656-1.199219 7.34375-3.929687 10.246094-2.804688 2.984375-6.765625 4.710938-10.871094 4.769531l-40.816406.496094c-.207032-.007813-.40625 0-.613282 0zm40.238282-15.144531v.128906zm-40.03125-.863282c-.03125 0-.058594 0-.082032 0h.113282c-.007813 0-.023438 0-.03125 0zm-17.304688-33.273437c.910156 0 1.832032.160156 2.71875.480469 1.410156.503906 2.695313 1.136718 3.921875 1.742187.496094.242188.960938.488281 1.4375.6875.640625.28125 2.546875 1.097657 3.859375 1.386719 3.644532.78125 6.269532 3.992188 6.320313 7.71875l.261719 21.25 38.800781-.480469-.273438-21.234375c-.046875-3.734375 2.503907-7.007812 6.144531-7.878906.847657-.199219 1.648438-.574219 2.472657-.929688l1.777343-.726562c1.152344-.398438 2.351563-1 3.621094-1.777344 3.089844-1.855468 7.050782-1.429687 9.664063 1.058594l15.707031 14.976562 27.207031-27.257812-15.738281-15c-2.328125-2.222656-3.101562-5.625-1.949219-8.640625.527344-1.382813 1.167969-2.65625 1.808594-3.855469.191406-.367187.390625-.734375.558594-1.09375.230469-.664062.511719-1.355468.800781-2.050781.261719-.632813.566406-1.269531.71875-1.917969.808594-3.625 4-6.210937 7.710938-6.257812l21.914062-.261719-.351562-37.425781-21.914063.273437c-3.785156-.183593-6.953125-2.457031-7.847656-6.050781-.199219-.816406-.574219-1.566406-.925781-2.359375l-.746094-1.742187c-.265625-.703126-.679688-1.746094-1.792969-3.488282-2-3.160156-1.542969-7.289062 1.097656-9.9375l15.0625-15.09375-27.75-26.464844-15.320312 15.351563c-2.199219 2.191406-5.472657 2.917969-8.382813 1.871094-1.410156-.503907-2.699218-1.136719-3.921875-1.742188-.390625-.191406-.777343-.386719-1.160156-.5625-.679687-.230469-1.382813-.503906-2.097656-.78125-.671875-.265625-1.351563-.578125-2.046875-.730469-3.648438-.78125-6.269532-3.992187-6.320313-7.71875l-.261719-21.25-38.800781.480469.273438 21.234375c.046875 3.734375-2.507813 7.007813-6.144531 7.878906-.847657.199219-1.648438.578126-2.472657.929688l-1.777343.726562c-1.136719.390626-2.34375 1-3.640626 1.785157-3.078124 1.855469-7.023437 1.421875-9.648437-1.066407l-15.703125-14.976562-27.207031 27.265625 15.167969 14.457031c2.320312 2.214844 3.097656 5.597656 1.960937 8.605469-.519531 1.402344-1.167969 2.671875-1.808594 3.898437-.25.472657-.496093.917969-.695312 1.375-.304688.671876-1.113281 2.464844-1.386719 3.679688-.796875 3.585938-3.933594 6.167969-7.605469 6.25l-21.730469.527344.480469 37.574218 21.921875-.269531h.09375c3.664063 0 6.859375 2.488281 7.761719 6.046875.199219.808594.574219 1.558594.917969 2.34375l.761718 1.769532c.257813.703124.671876 1.726562 1.785157 3.476562 2 3.160156 1.542969 7.289062-1.097657 9.9375l-15.0625 15.097656 27.886719 26.597656 15.320313-15.351562c1.527344-1.535156 3.574218-2.359375 5.664062-2.359375zm124.175782-10.464844c0 .007813 0 .007813 0 0zm-191.351563-36.816406c-.023437 0-.046875 0-.074219 0h.113282c-.015626 0-.023438 0-.039063 0zm206.632813-1.445313v.140626zm-205.90625-37.609374v.128906c0-.050782 0-.089844 0-.128906zm206.746093-1.167969h.109375zm-84.335937-80.425781c.007812 0 .070312-.007813.109375 0zm-40-.992188v.128906c0-.039062 0-.078125 0-.128906zm0 0"/><path d="m224.390625 296.03125c-13.046875 0-25.261719-4.824219-34.480469-13.605469-9.414062-8.976562-14.6875-21.128906-14.855468-34.234375-.167969-13.09375 4.808593-25.382812 13.992187-34.589844 9.136719-9.160156 21.488281-14.296874 34.777344-14.457031 13.496093-.167969 25.742187 4.671875 35.121093 13.609375 9.414063 8.980469 14.6875 21.132813 14.855469 34.230469v.113281c-.023437 13.207032-4.992187 25.453125-13.992187 34.476563-9.144532 9.160156-21.496094 14.296875-34.777344 14.457031-.207031 0-.429688 0-.640625 0zm.066406-80.886719c-.152343 0-.296875 0-.449219 0-9.078124.113281-17.472656 3.574219-23.632812 9.75-6.128906 6.136719-9.429688 14.335938-9.320312 23.089844.113281 8.757813 3.625 16.871094 9.898437 22.847656 6.222656 5.9375 14.527344 9.191407 23.445313 9.191407h.449218c9.070313-.113282 17.464844-3.574219 23.632813-9.757813 5.984375-5.992187 9.289062-14.210937 9.320312-23.136719-.128906-8.738281-3.640625-16.832031-9.90625-22.808594-6.222656-5.929687-14.535156-9.175781-23.4375-9.175781zm0 0"/><path d="m217.3125 42.945312h16v52.847657h-16zm0 0"/><path d="m225.023438 57.847656c-16.207032 0-29.40625-12.976562-29.40625-28.925781 0-15.953125 13.199218-28.921875 29.40625-28.921875 16.207031 0 29.410156 12.976562 29.410156 28.929688 0 15.949218-13.203125 28.917968-29.410156 28.917968zm0-41.847656c-7.390626 0-13.40625 5.800781-13.40625 12.929688 0 7.125 6.015624 12.925781 13.40625 12.925781 7.390624 0 13.410156-5.800781 13.410156-12.925781 0-7.128907-6.019532-12.929688-13.410156-12.929688zm0 0"/><path d="m38.707031 151.113281 8.621094-13.480469 47.800781 30.570313-8.621094 13.480469zm0 0"/><path d="m30.367188 166.511719c-4.960938 0-9.976563-1.230469-14.566407-3.824219-6.871093-3.878906-11.777343-10.167969-13.800781-17.710938-2-7.457031-.9375-15.234374 3-21.90625 8.105469-13.726562 26.097656-18.445312 40.0625-10.558593 6.882812 3.878906 11.785156 10.167969 13.808594 17.71875 2 7.457031.929687 15.234375-3.007813 21.90625-5.4375 9.214843-15.34375 14.375-25.496093 14.375zm.066406-41.839844c-4.65625 0-9.167969 2.34375-11.648438 6.535156-1.738281 2.9375-2.203125 6.351563-1.328125 9.632813.894531 3.351562 3.101563 6.167968 6.199219 7.921875 6.457031 3.613281 14.710938 1.519531 18.421875-4.761719 1.738281-2.945312 2.210937-6.359375 1.335937-9.632812-.894531-3.359376-3.109374-6.167969-6.207031-7.917969 0 0 0 0-.007812 0-2.136719-1.203125-4.472657-1.777344-6.765625-1.777344zm0 0"/><path d="m37.367188 342.671875 47.792968-30.570313 8.625 13.488282-47.792968 30.566406zm0 0"/><path d="m29.488281 385.59375c-10.160156 0-20.054687-5.167969-25.496093-14.386719-3.9375005-6.664062-5.007813-14.4375-3.007813-21.894531 2.015625-7.542969 6.917969-13.839844 13.808594-17.71875 13.957031-7.882812 31.941406-3.160156 40.0625 10.550781 3.9375 6.671875 5 14.449219 3 21.902344-2.023438 7.546875-6.917969 13.832031-13.800781 17.714844-4.582032 2.597656-9.605469 3.832031-14.566407 3.832031zm-.0625-41.851562c-2.304687 0-4.632812.578124-6.777343 1.777343-3.105469 1.761719-5.3125 4.570313-6.207032 7.929688-.875 3.269531-.402344 6.6875 1.335938 9.621093 3.703125 6.273438 11.941406 8.410157 18.421875 4.769532 3.105469-1.75 5.304687-4.566406 6.199219-7.929688.875-3.269531.410156-6.6875-1.328126-9.628906-2.476562-4.191406-7-6.539062-11.644531-6.539062zm-10.707031-5.191407h.082031zm0 0"/><path d="m214.703125 400.199219h16v52.847656h-16zm0 0"/><path d="m222.992188 496c-16.207032 0-29.410157-12.976562-29.410157-28.929688 0-15.949218 13.195313-28.925781 29.410157-28.925781 16.214843 0 29.40625 12.976563 29.40625 28.925781 0 15.953126-13.199219 28.929688-29.40625 28.929688zm0-41.847656c-7.390626 0-13.410157 5.800781-13.410157 12.925781 0 7.128906 6.019531 12.921875 13.410157 12.921875 7.390624 0 13.40625-5.800781 13.40625-12.929688 0-7.125-6.015626-12.917968-13.40625-12.917968zm0 0"/><path d="m352.96875 327.792969 8.621094-13.480469 47.796875 30.570312-8.617188 13.476563zm0 0"/><path d="m417.511719 387.304688c-4.960938 0-9.976563-1.234376-14.558594-3.824219-6.882813-3.878907-11.785156-10.167969-13.808594-17.71875-2-7.457031-.929687-15.234375 3.007813-21.90625 8.09375-13.71875 26.070312-18.457031 40.0625-10.550781 6.871094 3.878906 11.777344 10.167968 13.800781 17.710937 2 7.457031.9375 15.230469-3 21.90625-5.449219 9.222656-15.351563 14.382813-25.503906 14.382813zm.0625-41.839844c-4.644531 0-9.167969 2.335937-11.636719 6.535156-1.738281 2.945312-2.210938 6.359375-1.335938 9.632812.894532 3.359376 3.109376 6.167969 6.207032 7.917969h.007812c6.472656 3.648438 14.71875 1.503907 18.414063-4.757812 1.738281-2.9375 2.203125-6.351563 1.328125-9.632813-.894532-3.351562-3.101563-6.167968-6.199219-7.921875-2.144531-1.207031-4.480469-1.773437-6.785156-1.773437zm0 0"/><path d="m354.195312 170.417969 47.792969-30.570313 8.625 13.488282-47.792969 30.566406zm0 0"/><path d="m418.664062 168.230469c-10.152343 0-20.046874-5.167969-25.503906-14.375-3.9375-6.671875-5-14.449219-3-21.902344 2.023438-7.546875 6.917969-13.832031 13.800782-17.714844 13.96875-7.902343 31.96875-3.167969 40.0625 10.5625 3.9375 6.664063 5.007812 14.4375 3.007812 21.894531-2.015625 7.542969-6.917969 13.839844-13.808594 17.71875-4.582031 2.585938-9.597656 3.816407-14.558594 3.816407zm-.070312-41.847657c-2.296875 0-4.632812.578126-6.777344 1.777344-3.105468 1.75-5.304687 4.566406-6.199218 7.929688-.875 3.269531-.410157 6.6875 1.328124 9.628906 3.703126 6.265625 11.957032 8.386719 18.421876 4.761719 3.105468-1.761719 5.3125-4.570313 6.207031-7.929688.875-3.269531.402343-6.6875-1.335938-9.621093-2.46875-4.203126-6.992187-6.546876-11.644531-6.546876zm0 0"/></svg>