<?xml version="1.0"?>
<svg xmlns="http://www.w3.org/2000/svg" xmlns:xlink="http://www.w3.org/1999/xlink" xmlns:svgjs="http://svgjs.com/svgjs" version="1.1" width="512" height="512" x="0" y="0" viewBox="0 0 64 64" style="enable-background:new 0 0 512 512" xml:space="preserve" class=""><g><path xmlns="http://www.w3.org/2000/svg" d="m55 13h-5v-7c0-2.757-2.243-5-5-5h-34c-2.757 0-5 2.243-5 5v5h8v2h-5c-2.757 0-5 2.243-5 5v30c0 2.757 2.243 5 5 5h14.382l-2 4h-3.382c-1.654 0-3 1.346-3 3s1.346 3 3 3h28c1.654 0 3-1.346 3-3s-1.346-3-3-3h-3.382l-2-4h4.382 6 4c2.757 0 5-2.243 5-5v-30c0-2.757-2.243-5-5-5zm-7 27.305v2.695h-2.695c1.047-.736 1.959-1.648 2.695-2.695zm-9 2.695c-4.962 0-9-4.038-9-9s4.038-9 9-9 9 4.038 9 9-4.038 9-9 9zm11-24h4v24h-4zm-2-13v21.695c-1.992-2.834-5.28-4.695-9-4.695-6.065 0-11 4.935-11 11 0 3.72 1.861 7.008 4.695 9h-16.695v-37c0-1.13-.391-2.162-1.026-3h30.026c1.654 0 3 1.346 3 3zm-34 37h-4v-24h4zm-6-34v-3c0-1.654 1.346-3 3-3s3 1.346 3 3v3zm39 51c0 .551-.449 1-1 1h-28c-.551 0-1-.449-1-1s.449-1 1-1h28c.551 0 1 .449 1 1zm-6.618-3h-16.764l2-4h12.764zm4.618-6c-.551 0-1-.449-1-1s.449-1 1-1h6c.551 0 1 .449 1 1s-.449 1-1 1zm13-3c0 1.654-1.346 3-3 3h-1.184c.112-.314.184-.648.184-1 0-1.654-1.346-3-3-3h-6c-1.654 0-3 1.346-3 3 0 .352.072.686.184 1h-33.184c-1.654 0-3-1.346-3-3v-30c0-1.654 1.346-3 3-3h5v2h-4c-1.103 0-2 .897-2 2v24c0 1.103.897 2 2 2h44c1.103 0 2-.897 2-2v-24c0-1.103-.897-2-2-2h-4v-2h5c1.654 0 3 1.346 3 3z" fill="#ffffff" data-original="#000000"/><path xmlns="http://www.w3.org/2000/svg" d="m10 47h2v2h-2z" fill="#ffffff" data-original="#000000"/><path xmlns="http://www.w3.org/2000/svg" d="m14 47h2v2h-2z" fill="#ffffff" data-original="#000000"/><path xmlns="http://www.w3.org/2000/svg" d="m18 47h2v2h-2z" fill="#ffffff" data-original="#000000"/><path xmlns="http://www.w3.org/2000/svg" d="m39 31c.551 0 1 .449 1 1h2c0-1.302-.839-2.402-2-2.816v-2.184h-2v2h-2v3c0 1.654 1.346 3 3 3 .551 0 1 .449 1 1v1h-1c-.551 0-1-.449-1-1h-2c0 1.302.839 2.402 2 2.816v2.184h2v-2h2v-3c0-1.654-1.346-3-3-3-.551 0-1-.449-1-1v-1z" fill="#ffffff" data-original="#000000"/><circle xmlns="http://www.w3.org/2000/svg" cx="33" cy="34" r="1" fill="#ffffff" data-original="#000000"/><circle xmlns="http://www.w3.org/2000/svg" cx="45" cy="34" r="1" fill="#ffffff" data-original="#000000"/><path xmlns="http://www.w3.org/2000/svg" d="m46 5h-6v14h-2v-10h-6v10h-2v-6h-6v8h22zm-18 14h-2v-4h2zm6-8h2v8h-2zm10 8h-2v-12h2z" fill="#ffffff" data-original="#000000"/><path xmlns="http://www.w3.org/2000/svg" d="m18 39h8v2h-8z" fill="#ffffff" data-original="#000000"/><path xmlns="http://www.w3.org/2000/svg" d="m18 35h8v2h-8z" fill="#ffffff" data-original="#000000"/><path xmlns="http://www.w3.org/2000/svg" d="m18 31h8v2h-8z" fill="#ffffff" data-original="#000000"/><path xmlns="http://www.w3.org/2000/svg" d="m18 27h8v2h-8z" fill="#ffffff" data-original="#000000"/><path xmlns="http://www.w3.org/2000/svg" d="m18 23h8v2h-8z" fill="#ffffff" data-original="#000000"/><path xmlns="http://www.w3.org/2000/svg" d="m18 5h2v2h-2z" fill="#ffffff" data-original="#000000"/><path xmlns="http://www.w3.org/2000/svg" d="m18 9h2v2h-2z" fill="#ffffff" data-original="#000000"/><path xmlns="http://www.w3.org/2000/svg" d="m18 13h2v2h-2z" fill="#ffffff" data-original="#000000"/></g></svg>
