<svg xmlns="http://www.w3.org/2000/svg" width="20.098" height="25.123" viewBox="0 0 20.098 25.123"><path d="M22.591,15.227A1.256,1.256,0,0,0,24.1,14V9.537a2.515,2.515,0,0,0-2.512-2.512H18.4a4.549,4.549,0,0,0,.045-.628,4.4,4.4,0,1,0-8.793,0,4.549,4.549,0,0,0,.045.628H6.512A2.515,2.515,0,0,0,4,9.537V23.354a3.773,3.773,0,0,0,3.768,3.768H21.586A2.515,2.515,0,0,0,24.1,24.61V20.15a1.256,1.256,0,0,0-1.507-1.23,1.885,1.885,0,1,1,0-3.693Zm-1.006,6.2,0,3.186H7.768a1.257,1.257,0,0,1-1.256-1.256V9.537h5.04a1.256,1.256,0,0,0,1-2.014A1.866,1.866,0,0,1,12.165,6.4a1.884,1.884,0,1,1,3.768,0,1.866,1.866,0,0,1-.389,1.127,1.256,1.256,0,0,0,1,2.014h5.04v3.184a4.4,4.4,0,0,0,0,8.7Z" transform="translate(-4 -2)" fill="#8dffff"/></svg>