<?xml version="1.0"?>
<svg xmlns="http://www.w3.org/2000/svg" xmlns:xlink="http://www.w3.org/1999/xlink" xmlns:svgjs="http://svgjs.com/svgjs" version="1.1" width="512" height="512" x="0" y="0" viewBox="0 0 64 64" style="enable-background:new 0 0 512 512" xml:space="preserve" class=""><g><g xmlns="http://www.w3.org/2000/svg"><path d="m53 33h6v2h-6z" fill="#0f3764" data-original="#000000" class=""/><path d="m53 29h6v2h-6z" fill="#0f3764" data-original="#000000" class=""/><path d="m53 49h6v2h-6z" fill="#0f3764" data-original="#000000" class=""/><path d="m53 45h6v2h-6z" fill="#0f3764" data-original="#000000" class=""/><path d="m61 23c1.103 0 2-.897 2-2v-10c0-1.103-.897-2-2-2h-4v-3c0-1.654-1.346-3-3-3h-17.184c-.414-1.161-1.514-2-2.816-2s-2.402.839-2.816 2h-17.184c-1.654 0-3 1.346-3 3v5.017c-6.281.175-10 2.008-10 4.983v32c0 2.975 3.719 4.808 10 4.983v5.017c0 1.654 1.346 3 3 3h17.184c.414 1.161 1.514 2 2.816 2s2.402-.839 2.816-2h17.184c1.654 0 3-1.346 3-3v-3h4c1.103 0 2-.897 2-2v-10c0-1.103-.897-2-2-2h-4v-2h4c1.103 0 2-.897 2-2v-10c0-1.103-.897-2-2-2h-4v-2zm.001-2h-10.001v-10h10zm-27.001-18c.552 0 1 .449 1 1s-.448 1-1 1-1-.449-1-1 .448-1 1-1zm-23 10.016v3.984h2v-3.984c5.255.16 8 1.58 8 2.984 0 1.491-3.092 3-9 3s-9-1.509-9-3c0-1.404 2.745-2.823 8-2.984zm21.325 15.564c.48 1.162 1.468 1.999 2.675 2.299v2.235c-1.191.295-2.193 1.141-2.688 2.337-.488 1.168-.384 2.465.259 3.534l-1.581 1.581c-1.053-.635-2.366-.743-3.57-.241-1.162.48-1.999 1.468-2.299 2.675h-2.121v-4.085c.331.048.663.085 1 .085 3.859 0 7-3.141 7-7 0-3.86-3.141-7-7-7-.337 0-.67.037-1 .085v-4.085h2.114c.295 1.191 1.141 2.193 2.337 2.688 1.169.488 2.465.384 3.534-.259l1.581 1.581c-.635 1.054-.743 2.367-.241 3.57zm-9.325 6.236c.314.112.648.184 1 .184 1.654 0 3-1.346 3-3s-1.346-3-3-3c-.352 0-.686.072-1 .184v-2.073c.328-.067.661-.111 1-.111 2.757 0 5 2.243 5 5s-2.243 5-5 5c-.339 0-.672-.044-1-.111zm1-3.816c.552 0 1 .449 1 1s-.448 1-1 1-1-.449-1-1 .448-1 1-1zm-21-11.826c1.858 1.173 4.942 1.826 9 1.826s7.142-.653 9-1.826v4.826c0 1.491-3.092 3-9 3s-9-1.509-9-3zm0 8c1.858 1.173 4.942 1.826 9 1.826s7.142-.653 9-1.826v4.826c0 1.491-3.092 3-9 3s-9-1.509-9-3zm0 8c1.858 1.173 4.942 1.826 9 1.826s7.142-.653 9-1.826v4.826c0 1.491-3.092 3-9 3s-9-1.509-9-3zm0 12.826v-4.826c1.858 1.173 4.942 1.826 9 1.826s7.142-.653 9-1.826v4.826c0 1.491-3.092 3-9 3s-9-1.509-9-3zm31 13c-.552 0-1-.448-1-1s.448-1 1-1 1 .448 1 1-.448 1-1 1zm27.002-8h-10.002v-10h10zm0-16h-10.002v-10h10zm-6.002-12h-4c-1.103 0-2 .897-2 2v10c0 1.103.897 2 2 2h4v2h-4c-1.103 0-2 .897-2 2v10c0 1.103.897 2 2 2h4v3c0 .552-.448 1-1 1h-17.184c-.414-1.161-1.514-2-2.816-2s-2.402.839-2.816 2h-17.184c-.552 0-1-.448-1-1v-5.017c6.281-.175 10-2.007 10-4.983v-3h3l1-.057v-1c0-.778.465-1.473 1.223-1.785.728-.305 1.551-.143 2.142.448l.707.707 3.535-3.535.667-.747-.707-.707c-.552-.552-.712-1.376-.392-2.141.296-.718.99-1.183 1.825-1.183h1v-5l-.057-1h-1c-.778 0-1.473-.464-1.785-1.223-.304-.725-.144-1.55.452-2.146l.699-.707-3.531-3.531-.747-.667-.707.707c-.552.551-1.374.712-2.141.393-.718-.297-1.183-.992-1.183-1.826v-1h-4v-3c0-2.975-3.719-4.808-10-4.983v-5.017c0-.551.448-1 1-1h17.184c.414 1.161 1.514 2 2.816 2s2.402-.839 2.816-2h17.184c.552 0 1 .449 1 1v3h-4c-1.103 0-2 .897-2 2v10c0 1.103.897 2 2 2h4z" fill="#0f3764" data-original="#000000" class=""/><path d="m53 17h6v2h-6z" fill="#0f3764" data-original="#000000" class=""/><path d="m53 13h6v2h-6z" fill="#0f3764" data-original="#000000" class=""/></g></g></svg>
