<svg xmlns="http://www.w3.org/2000/svg" width="31.148" height="40.892" viewBox="0 0 31.148 40.892"><path d="M82.963,111.564h-2V110.1a2,2,0,0,1,.948-1.692,9.983,9.983,0,1,0-10.681,0,2,2,0,0,1,.948,1.692v1.462h-2A9.2,9.2,0,0,0,61,120.749v1.757a1.2,1.2,0,0,0,1.2,1.2H90.95a1.2,1.2,0,0,0,1.2-1.2v-1.757A9.2,9.2,0,0,0,82.963,111.564ZM68.987,99.983a7.587,7.587,0,1,1,11.645,6.4,4.4,4.4,0,0,0-1.958,2.782h-.9v-6.292l2.045-2.045a1.2,1.2,0,0,0-1.694-1.694l-1.549,1.549-1.549-1.549a1.2,1.2,0,0,0-1.694,1.694l2.045,2.045v6.292h-.9a4.4,4.4,0,0,0-1.958-2.782A7.548,7.548,0,0,1,68.987,99.983Zm9.584,11.581v1.2a2,2,0,1,1-3.993,0v-1.2Zm11.181,9.744H63.4v-.559a6.8,6.8,0,0,1,6.789-6.789h2.164a4.391,4.391,0,0,0,8.451,0h2.164a6.8,6.8,0,0,1,6.789,6.789Z" transform="translate(-61 -82.812)" fill="#099"/><path d="M242.2,4.792a1.2,1.2,0,0,0,1.2-1.2V1.2a1.2,1.2,0,1,0-2.4,0v2.4A1.2,1.2,0,0,0,242.2,4.792Z" transform="translate(-226.624)" fill="#099"/><path d="M142.357,30.665a1.2,1.2,0,1,0,2.075-1.2l-1.2-2.075a1.2,1.2,0,0,0-2.075,1.2Z" transform="translate(-134.609 -24.653)" fill="#099"/><path d="M68.392,102.234l2.075,1.2a1.2,1.2,0,0,0,1.2-2.075l-2.075-1.2a1.2,1.2,0,1,0-1.2,2.075Z" transform="translate(-67.25 -92.011)" fill="#099"/><path d="M388.383,102.993a1.2,1.2,0,0,0,1.636.438l2.075-1.2a1.2,1.2,0,1,0-1.2-2.075l-2.075,1.2A1.2,1.2,0,0,0,388.383,102.993Z" transform="translate(-362.088 -92.011)" fill="#099"/><path d="M326.6,31.1a1.2,1.2,0,0,0,1.636-.438l1.2-2.075a1.2,1.2,0,0,0-2.075-1.2l-1.2,2.075A1.2,1.2,0,0,0,326.6,31.1Z" transform="translate(-304.833 -24.653)" fill="#099"/></svg>