<?xml version="1.0"?>
<svg xmlns="http://www.w3.org/2000/svg" xmlns:xlink="http://www.w3.org/1999/xlink" xmlns:svgjs="http://svgjs.com/svgjs" version="1.1" width="512" height="512" x="0" y="0" viewBox="0 0 511.997 511.997" style="enable-background:new 0 0 512 512" xml:space="preserve" class=""><g><g xmlns="http://www.w3.org/2000/svg"><g><g><g><path d="m494.497 42.523h-125.485c-4.143 0-7.5 3.357-7.5 7.5s3.357 7.5 7.5 7.5h125.485c1.379 0 2.5 1.121 2.5 2.5v251.035h-481.997v-251.035c0-1.379 1.121-2.5 2.5-2.5h316.116c4.143 0 7.5-3.357 7.5-7.5s-3.357-7.5-7.5-7.5h-316.116c-9.649 0-17.5 7.851-17.5 17.5v300.339c0 9.649 7.851 17.5 17.5 17.5h55.177c4.143 0 7.5-3.357 7.5-7.5s-3.357-7.5-7.5-7.5h-55.177c-1.379 0-2.5-1.121-2.5-2.5v-34.304h481.997v34.304c0 1.379-1.121 2.5-2.5 2.5h-386.425c-4.143 0-7.5 3.357-7.5 7.5s3.357 7.5 7.5 7.5h61.104v45.108h-14.229c-9.649 0-17.5 7.851-17.5 17.5v11.503c0 9.649 7.851 17.5 17.5 17.5h202.103c9.649 0 17.5-7.851 17.5-17.5v-11.503c0-9.649-7.851-17.5-17.5-17.5h-14.23v-45.108h151.677c9.649 0 17.5-7.851 17.5-17.5v-300.339c0-9.649-7.851-17.5-17.5-17.5zm-134.947 397.948v11.503c0 1.379-1.121 2.5-2.5 2.5h-202.103c-1.379 0-2.5-1.121-2.5-2.5v-11.503c0-1.379 1.121-2.5 2.5-2.5h202.103c1.379 0 2.5 1.121 2.5 2.5zm-31.73-17.5h-143.643v-45.108h143.643z" fill="#0f3764" data-original="#000000" class=""/><path d="m290.302 131.591c-4.886 2.023-8.043 6.749-8.043 12.038v6.899h-15.73c-7.185 0-13.029 5.846-13.029 13.03v40.249c0 7.185 5.845 13.03 13.029 13.03h15.73v6.89c0 5.292 3.159 10.02 8.048 12.045 1.623.672 3.32.999 5.001.998 3.382 0 6.698-1.322 9.194-3.819l40.048-40.059c2.463-2.461 3.818-5.733 3.818-9.214s-1.355-6.752-3.816-9.214l-40.05-40.049c-3.738-3.739-9.312-4.846-14.2-2.824zm6.957 87.389v-9.643c0-4.143-3.357-7.5-7.5-7.5h-21.26v-36.31h21.26c4.143 0 7.5-3.357 7.5-7.5v-9.643l35.293 35.293z" fill="#0f3764" data-original="#000000" class=""/><path d="m364.547 205.599v39.18c0 9.649 7.851 17.5 17.5 17.5h69.37c9.649 0 17.5-7.851 17.5-17.5v-39.18c0-13.939-5.429-27.045-15.286-36.903-2.652-2.652-5.56-4.978-8.681-6.986 5.144-6.502 8.226-14.706 8.226-23.621 0-21.036-17.114-38.15-38.15-38.15s-38.149 17.114-38.149 38.15c0 9.601 3.573 18.378 9.448 25.09-13.609 9.702-21.778 25.293-21.778 42.42zm86.87 41.679h-69.37c-1.379 0-2.5-1.121-2.5-2.5v-26.067h74.37v26.067c0 1.379-1.121 2.5-2.5 2.5zm2.452-43.567h-74.257c.649-13.095 8.012-24.707 19.629-30.905 4.814 2.197 10.156 3.432 15.784 3.432 6.321 0 12.282-1.554 17.536-4.286 3.892 1.834 7.409 4.298 10.462 7.351 6.579 6.577 10.388 15.184 10.846 24.408zm-38.844-88.773c12.766 0 23.15 10.385 23.15 23.15s-10.385 23.149-23.15 23.149-23.149-10.385-23.149-23.149c0-12.765 10.385-23.15 23.149-23.15z" fill="#0f3764" data-original="#000000" class=""/><path d="m205.737 135.209c4.143 0 7.5-3.357 7.5-7.5v-29.521c0-9.55-7.774-17.319-17.33-17.319h-112.08c-9.551 0-17.32 7.77-17.32 17.319v99.126h-9.41c-9.382 0-17.014 7.632-17.014 17.014v55.157c0 9.382 7.632 17.014 17.014 17.014h165.544c9.382 0 17.014-7.632 17.014-17.014v-55.157c0-9.382-7.632-17.014-17.014-17.014h-9.403v-34.206c0-4.143-3.357-7.5-7.5-7.5s-7.5 3.357-7.5 7.5v34.206h-116.731v-99.126c0-1.279 1.041-2.319 2.32-2.319h33.792v26.439c0 6.255 5.089 11.344 11.344 11.344h21.815c6.255 0 11.343-5.089 11.343-11.344v-26.439h33.786c1.285 0 2.33 1.04 2.33 2.319v29.521c0 4.143 3.358 7.5 7.5 7.5zm18.917 79.119v55.157c0 1.11-.903 2.014-2.014 2.014h-165.543c-1.11 0-2.014-.903-2.014-2.014v-55.157c0-1.11.903-2.014 2.014-2.014h165.544c1.11 0 2.013.904 2.013 2.014zm-77.533-95.676h-14.502v-22.783h14.502z" fill="#0f3764" data-original="#000000" class=""/><path d="m156.274 170.282c-4.143 0-7.5 3.357-7.5 7.5s3.357 7.5 7.5 7.5h27.847c4.143 0 7.5-3.357 7.5-7.5s-3.357-7.5-7.5-7.5z" fill="#0f3764" data-original="#000000" class=""/><path d="m79.859 254.24c1.465 1.464 3.385 2.196 5.304 2.196s3.839-.732 5.304-2.196l2.549-2.549 2.549 2.549c1.465 1.464 3.385 2.196 5.304 2.196s3.839-.732 5.304-2.196c2.929-2.93 2.929-7.678 0-10.607l-2.549-2.549 2.549-2.549c2.929-2.93 2.929-7.678 0-10.607-2.93-2.928-7.678-2.928-10.607 0l-2.549 2.549-2.549-2.549c-2.93-2.928-7.678-2.928-10.607 0-2.929 2.93-2.929 7.678 0 10.607l2.549 2.549-2.549 2.549c-2.93 2.93-2.93 7.678-.002 10.607z" fill="#0f3764" data-original="#000000" class=""/><path d="m126.713 254.24c1.465 1.464 3.385 2.196 5.304 2.196s3.839-.732 5.304-2.196l2.549-2.549 2.549 2.549c1.465 1.464 3.385 2.196 5.304 2.196s3.839-.732 5.304-2.196c2.929-2.93 2.929-7.678 0-10.607l-2.549-2.549 2.549-2.549c2.929-2.93 2.929-7.678 0-10.607-2.93-2.928-7.678-2.928-10.607 0l-2.549 2.549-2.549-2.549c-2.93-2.928-7.678-2.928-10.607 0-2.929 2.93-2.929 7.678 0 10.607l2.549 2.549-2.549 2.549c-2.931 2.93-2.931 7.678-.002 10.607z" fill="#0f3764" data-original="#000000" class=""/><path d="m173.566 254.24c1.465 1.464 3.385 2.196 5.304 2.196s3.839-.732 5.304-2.196l2.549-2.549 2.549 2.549c1.465 1.464 3.385 2.196 5.304 2.196s3.839-.732 5.304-2.196c2.929-2.93 2.929-7.678 0-10.607l-2.549-2.549 2.549-2.549c2.929-2.93 2.929-7.678 0-10.607-2.93-2.928-7.678-2.928-10.607 0l-2.549 2.549-2.549-2.549c-2.93-2.928-7.678-2.928-10.607 0-2.929 2.93-2.929 7.678 0 10.607l2.549 2.549-2.549 2.549c-2.93 2.93-2.93 7.678-.002 10.607z" fill="#0f3764" data-original="#000000" class=""/></g></g></g></g></g></svg>
