<?xml version="1.0"?>
<svg xmlns="http://www.w3.org/2000/svg" xmlns:xlink="http://www.w3.org/1999/xlink" xmlns:svgjs="http://svgjs.com/svgjs" version="1.1" width="512" height="512" x="0" y="0" viewBox="0 0 512 512" style="enable-background:new 0 0 512 512" xml:space="preserve"><g><g xmlns="http://www.w3.org/2000/svg"><g><path d="m105.614 244.522h77.963c4.142 0 7.5-3.357 7.5-7.5s-3.358-7.5-7.5-7.5h-77.963c-4.142 0-7.5 3.357-7.5 7.5s3.358 7.5 7.5 7.5z" fill="#ffffff" data-original="#000000"/><path d="m294.197 181.531c0-4.143-3.357-7.5-7.5-7.5h-20.944v-28.51c0-4.143-3.357-7.5-7.5-7.5-4.142 0-7.5 3.357-7.5 7.5v36.01c0 4.143 3.358 7.5 7.5 7.5h28.444c4.143 0 7.5-3.357 7.5-7.5z" fill="#ffffff" data-original="#000000"/><path d="m471.509 440.138c-7.903 0-15.213 2.57-21.152 6.911l-70.702-65.533 17.094-33.199c1.896-3.683.448-8.205-3.234-10.102-3.682-1.896-8.205-.448-10.102 3.234l-32.773 63.649-59.755-116.048c-10.816-21.006-9.93-45.591 2.373-65.763 12.303-20.173 33.754-32.216 57.382-32.216s45.078 12.043 57.381 32.216c12.303 20.172 13.189 44.757 2.373 65.763l-10.955 21.276c-1.896 3.683-.448 8.205 3.234 10.102 3.683 1.896 8.206.448 10.102-3.234l10.955-21.276c13.23-25.694 12.146-55.766-2.902-80.44-13.067-21.425-34.573-35.346-58.931-38.643v-66.835c0-4.143-3.357-7.5-7.5-7.5s-7.5 3.357-7.5 7.5v66.164c-8.319.368-16.38 1.959-23.979 4.658-.383-35.34-29.236-63.975-64.666-63.975-5.958 0-11.723.826-17.206 2.341v-27.74c0-7.125-5.796-12.921-12.921-12.921h-117.09c-7.125 0-12.921 5.796-12.921 12.921v94.968c0 7.125 5.796 12.921 12.921 12.921h31.965c4.142 0 7.5-3.357 7.5-7.5s-3.358-7.5-7.5-7.5h-29.886v-90.81h30.97v30.236c0 5.929 4.824 10.753 10.752 10.753h29.489c5.929 0 10.752-4.824 10.752-10.753v-30.235h30.969v31.943c-19.388 11.182-32.477 32.114-32.477 56.06 0 .941.031 1.875.071 2.807h-15.64c-4.142 0-7.5 3.357-7.5 7.5s3.358 7.5 7.5 7.5h18.083c7.755 27.031 32.68 46.876 62.17 46.876 3.8 0 7.521-.341 11.143-.973-.903 5.56-1.217 11.189-.953 16.807h-162.829c-4.142 0-7.5 3.357-7.5 7.5s3.358 7.5 7.5 7.5h164.948c1.42 5.976 3.526 11.851 6.322 17.525h-171.27c-4.142 0-7.5 3.357-7.5 7.5s3.358 7.5 7.5 7.5h178.967l25.459 49.444h-115.035c-3.517-16.148-17.916-28.28-35.103-28.28s-31.586 12.132-35.103 28.28h-50.898c-1.473 0-2.672-1.198-2.672-2.672v-294.974h275.668v13.629c0 4.143 3.357 7.5 7.5 7.5s7.5-3.357 7.5-7.5v-57.328c0-9.744-7.928-17.672-17.672-17.672h-270.324c-9.744 0-17.672 7.928-17.672 17.672v338.674c0 9.744 7.928 17.672 17.672 17.672h50.828c.8 3.833 2.218 7.441 4.136 10.722l-67.223 62.308c-5.939-4.34-13.249-6.91-21.151-6.91-19.812 0-35.931 16.118-35.931 35.931s16.118 35.931 35.931 35.931 35.931-16.119 35.931-35.932c0-6.494-1.74-12.585-4.766-17.848l67.304-62.383c5.901 4.249 13.132 6.762 20.943 6.762 8.654 0 16.603-3.076 22.813-8.191l40.39 37.437c-1.947 4.42-3.036 9.3-3.036 14.431 0 19.812 16.119 35.931 35.931 35.931s35.932-16.118 35.932-35.931c0-5.132-1.089-10.011-3.036-14.432l39.698-36.796 10.559 20.507c2.226 4.32 6.628 7.005 11.487 7.005 4.86 0 9.263-2.685 11.488-7.006l10.398-20.194 67.818 62.86c-3.026 5.263-4.766 11.354-4.766 17.848 0 19.812 16.119 35.932 35.932 35.932s35.932-16.119 35.932-35.932-16.122-35.93-35.934-35.93zm-291.431-320.62h-20.994v-25.99h20.994zm93.848 109.154c-4.929 1.646-10.198 2.542-15.674 2.542-27.395 0-49.683-22.287-49.683-49.683s22.288-49.684 49.683-49.684c27.396 0 49.684 22.288 49.684 49.684 0 2.27-.16 4.502-.458 6.691-10.82 6.675-20.108 15.91-27.027 27.254-2.593 4.254-4.762 8.671-6.525 13.196zm-202.697-211c0-1.474 1.199-2.672 2.672-2.672h270.324c1.474 0 2.672 1.198 2.672 2.672v28.699h-275.668zm-30.738 479.328c-11.542 0-20.931-9.39-20.931-20.932 0-11.541 9.39-20.931 20.931-20.931s20.931 9.39 20.931 20.931c0 11.542-9.39 20.932-20.931 20.932zm119.411-109.4c-11.542 0-20.931-9.39-20.931-20.931 0-11.542 9.39-20.932 20.931-20.932s20.931 9.39 20.931 20.932c0 11.541-9.389 20.931-20.931 20.931zm96.098 79.607c-11.542 0-20.931-9.39-20.931-20.931 0-11.542 9.39-20.932 20.931-20.932 11.542 0 20.932 9.39 20.932 20.932-.001 11.541-9.39 20.931-20.932 20.931zm24.041-47.609c-6.372-5.748-14.804-9.254-24.041-9.254s-17.669 3.506-24.041 9.254l-39.88-36.964c1.345-2.699 2.364-5.587 2.996-8.617h122.689l3.7 7.186zm191.468 77.402c-11.542 0-20.932-9.39-20.932-20.932 0-11.541 9.39-20.931 20.932-20.931s20.932 9.39 20.932 20.931c-.001 11.542-9.39 20.932-20.932 20.932z" fill="#ffffff" data-original="#000000"/><path d="m350.639 209.325c-28.794 0-52.219 23.425-52.219 52.219s23.425 52.22 52.219 52.22 52.22-23.426 52.22-52.22-23.426-52.219-52.22-52.219zm0 89.439c-20.522 0-37.219-16.696-37.219-37.22 0-20.522 16.696-37.219 37.219-37.219s37.22 16.696 37.22 37.219-16.696 37.22-37.22 37.22z" fill="#ffffff" data-original="#000000"/><path d="m350.639 232.42c-16.059 0-29.124 13.065-29.124 29.124 0 16.06 13.065 29.125 29.124 29.125 16.06 0 29.125-13.065 29.125-29.125 0-16.059-13.065-29.124-29.125-29.124zm0 43.249c-7.788 0-14.124-6.337-14.124-14.125s6.336-14.124 14.124-14.124 14.125 6.336 14.125 14.124-6.337 14.125-14.125 14.125z" fill="#ffffff" data-original="#000000"/></g></g></g></svg>
