<svg id="Capa_1" enable-background="new 0 0 512 512" height="512" viewBox="0 0 512 512" width="512" xmlns="http://www.w3.org/2000/svg"><g><g id="Page-1_39_"><g id="_x30_40---Sync-Mobile-To-Computer"><path id="Shape_620_" d="m486.4 221.867h-42.667v-187.734c0-18.851-15.282-34.133-34.133-34.133h-375.467c-18.851 0-34.133 15.282-34.133 34.133v298.667c0 18.851 15.282 34.133 34.133 34.133h115.397l-10.24 25.6h-28.356c-14.138 0-25.6 11.462-25.6 25.6s11.462 25.6 25.6 25.6h204.8c2.914-.028 5.801-.559 8.533-1.57v44.237c0 14.138 11.462 25.6 25.6 25.6h136.533c14.138 0 25.6-11.461 25.6-25.6v-238.933c0-14.139-11.461-25.6-25.6-25.6zm8.533 25.6v204.8c0 4.713-3.82 8.533-8.533 8.533h-136.533c-4.713 0-8.533-3.82-8.533-8.533v-204.8c0-4.713 3.821-8.533 8.533-8.533h18.935l3.686 14.746c2.851 11.397 13.093 19.39 24.841 19.388h41.609c11.748.003 21.99-7.991 24.841-19.388l3.686-14.746h18.935c4.713-.001 8.533 3.82 8.533 8.533zm-207.556 145.066-10.24-25.6h47.13v27.17c-2.733-1.011-5.62-1.542-8.533-1.57zm159.846-143.001c-.949 3.803-4.366 6.471-8.286 6.468h-41.609c-3.92.003-7.337-2.665-8.286-6.468l-2.654-10.598h63.488zm-413.09-232.465h375.467c9.426 0 17.067 7.641 17.067 17.067v187.733h-76.8c-14.138 0-25.6 11.462-25.6 25.6v59.733h-307.2v-273.067c0-9.425 7.641-17.066 17.066-17.066zm-17.066 315.733v-8.533h307.2v25.6h-290.134c-9.425 0-17.066-7.641-17.066-17.067zm150.843 34.133h90.846l10.24 25.6h-111.326zm147.823 59.734h-204.8c-4.713 0-8.533-3.82-8.533-8.533s3.821-8.533 8.533-8.533h204.8c4.713 0 8.533 3.82 8.533 8.533s-3.82 8.533-8.533 8.533zm170.667 68.266h-136.533c-4.713 0-8.533-3.82-8.533-8.533v-10.103c2.733 1.011 5.62 1.542 8.533 1.57h136.533c2.914-.028 5.8-.559 8.533-1.57v10.103c0 4.713-3.82 8.533-8.533 8.533z"/><path id="Shape_619_" d="m125.193 127.223c2.06.952 4.414 1.044 6.542.256s3.855-2.391 4.798-4.455c17.363-37.865 57.614-59.747 98.833-53.728s73.533 38.497 79.343 79.746l-1.476-1.476c-3.348-3.234-8.671-3.188-11.962.104-3.292 3.292-3.338 8.614-.104 11.962l17.067 17.067c3.332 3.331 8.734 3.331 12.066 0l17.067-17.067c3.234-3.348 3.188-8.671-.104-11.962-3.292-3.292-8.614-3.338-11.962-.104l-3.098 3.098c-5.151-49.76-42.969-89.916-92.331-98.039s-98.053 17.797-118.878 63.282c-.944 2.057-1.032 4.405-.245 6.527.788 2.124 2.386 3.846 4.444 4.789z"/><path id="Shape_618_" d="m108.433 176.7 3.098-3.098c5.151 49.76 42.969 89.916 92.331 98.039s98.053-17.797 118.878-63.282c1.965-4.291.08-9.363-4.211-11.328s-9.363-.08-11.328 4.211c-17.363 37.865-57.614 59.747-98.833 53.728s-73.533-38.497-79.343-79.746l1.476 1.476c3.348 3.234 8.671 3.188 11.962-.104 3.292-3.292 3.338-8.614.104-11.962l-17.067-17.067c-3.332-3.331-8.734-3.331-12.066 0l-17.067 17.067c-3.234 3.348-3.188 8.671.104 11.962s8.614 3.338 11.962.104z"/><path id="Shape_617_" d="m438.613 394.24c-9.126 6.853-21.08 8.676-31.833 4.853-10.754-3.823-18.875-12.781-21.628-23.857 1.838-.195 3.558-.997 4.89-2.278 3.331-3.332 3.331-8.734 0-12.066l-8.533-8.533c-3.332-3.331-8.734-3.331-12.066 0l-8.533 8.533c-3.331 3.332-3.331 8.734 0 12.066 1.805 1.772 4.313 2.637 6.827 2.355 2.925 17.619 14.827 32.437 31.4 39.094s35.418 4.188 49.718-6.513c2.439-1.829 3.717-4.821 3.352-7.847-.365-3.027-2.316-5.629-5.12-6.827s-6.035-.809-8.474 1.02z"/><path id="Shape_616_" d="m468.582 358.545c-4.099-24.679-25.432-42.783-50.449-42.812-11.084-.037-21.875 3.56-30.72 10.24-2.439 1.829-3.717 4.821-3.352 7.847.365 3.027 2.316 5.629 5.12 6.827s6.033.808 8.472-1.021c9.126-6.853 21.08-8.676 31.833-4.853 10.754 3.823 18.875 12.781 21.628 23.857-1.838.195-3.558.997-4.89 2.278-3.331 3.332-3.331 8.734 0 12.066l8.533 8.533c3.332 3.331 8.734 3.331 12.066 0l8.533-8.533c3.331-3.332 3.331-8.734 0-12.066-1.79-1.76-4.275-2.627-6.774-2.363z"/></g></g></g></svg>