<svg id="Layer_1" height="512" viewBox="0 0 64 64" width="512" xmlns="http://www.w3.org/2000/svg" data-name="Layer 1"><path d="m50.99316 22.11523a.99953.99953 0 0 0 -.61914-1.04248l-7.208-2.90722a24.85076 24.85076 0 0 1 -7.44141-4.63623l-3.05273-2.77a1.00016 1.00016 0 0 0 -1.34376 0l-3.05273 2.77a24.85076 24.85076 0 0 1 -7.44139 4.63623l-7.208 2.90722a.99953.99953 0 0 0 -.61914 1.04248l.67578 5.82422c1.24121 10.69532 7.59765 20.24414 17.43847 26.19776l.36036.21826a1.0025 1.0025 0 0 0 1.0371 0l.35938-.21826c9.8418-5.95362 16.19824-15.50244 17.43945-26.19776zm-2.66211 5.59377c-1.16305 10.01952-7.11132 18.98387-16.33105 24.62157-9.21973-5.63721-15.168-14.60157-16.331-24.62157l-.5879-5.06689 6.5009-2.62211a26.84217 26.84217 0 0 0 8.03711-5.00928l2.38089-2.16062 2.38086 2.16064a26.84217 26.84217 0 0 0 8.03714 5.00926l6.501 2.62207z"/><path d="m32 63a31.07249 31.07249 0 0 0 14.46777-3.57617l-.93554-1.76856a29.00669 29.00669 0 0 1 -38.06836-41.12109l-1.69141-1.06836a31.00617 31.00617 0 0 0 26.22754 47.53418z"/><path d="m32 3a29.00535 29.00535 0 0 1 24.53613 44.46582l1.69141 1.06836a31.00886 31.00886 0 0 0 -40.69531-43.958l.93554 1.76856a29.0567 29.0567 0 0 1 13.53223-3.34474z"/><path d="m39 22h-14a3.00328 3.00328 0 0 0 -3 3v2a2.97711 2.97711 0 0 0 .78027 2 2.97711 2.97711 0 0 0 -.78027 2v2a2.97711 2.97711 0 0 0 .78027 2 2.97711 2.97711 0 0 0 -.78027 2v2a3.00328 3.00328 0 0 0 3 3h14a3.00328 3.00328 0 0 0 3-3v-2a2.97711 2.97711 0 0 0 -.78027-2 2.97711 2.97711 0 0 0 .78027-2v-2a2.97711 2.97711 0 0 0 -.78027-2 2.97711 2.97711 0 0 0 .78027-2v-2a3.00328 3.00328 0 0 0 -3-3zm1 17a1.001 1.001 0 0 1 -1 1h-14a1.001 1.001 0 0 1 -1-1v-2a1.001 1.001 0 0 1 1-1h14a1.001 1.001 0 0 1 1 1zm0-6a1.001 1.001 0 0 1 -1 1h-14a1.001 1.001 0 0 1 -1-1v-2a1.001 1.001 0 0 1 1-1h14a1.001 1.001 0 0 1 1 1zm0-6a1.001 1.001 0 0 1 -1 1h-14a1.001 1.001 0 0 1 -1-1v-2a1.001 1.001 0 0 1 1-1h14a1.001 1.001 0 0 1 1 1z"/><path d="m25 25h2v2h-2z"/><path d="m31 25h8v2h-8z"/><path d="m25 31h2v2h-2z"/><path d="m31 31h8v2h-8z"/><path d="m25 37h2v2h-2z"/><path d="m31 37h8v2h-8z"/><path d="m49 58h6a.99974.99974 0 0 0 1-1v-6a.99974.99974 0 0 0 -1-1h-6a.99974.99974 0 0 0 -1 1v6a.99974.99974 0 0 0 1 1zm1-6h4v4h-4z"/><path d="m9 14h6a.99974.99974 0 0 0 1-1v-6a.99974.99974 0 0 0 -1-1h-6a.99974.99974 0 0 0 -1 1v6a.99974.99974 0 0 0 1 1zm1-6h4v4h-4z"/></svg>