<?xml version="1.0"?>
<svg xmlns="http://www.w3.org/2000/svg" xmlns:xlink="http://www.w3.org/1999/xlink" xmlns:svgjs="http://svgjs.com/svgjs" version="1.1" width="512" height="512" x="0" y="0" viewBox="0 0 512 512" style="enable-background:new 0 0 512 512" xml:space="preserve" class=""><g><g xmlns="http://www.w3.org/2000/svg"><path d="m491.969 459.5c0-19.025-14.245-34.775-32.627-37.173-4.77-9.99-12.885-27.662-18.191-45.378-6.541-21.84-6.585-37.149-.12-42.004 18.431-13.841 29.001-34.05 29.001-55.445 0-34.683-26.298-63.328-60-67.072v-137.428h60v-7.5c0-37.22-30.28-67.5-67.5-67.5h-315c-37.22 0-67.5 30.28-67.5 67.5v444.5h360v-15h-36.938v-15h118.875v15h-36.938v15h51.938v-30h15zm-36.938-180c0 16.633-8.386 32.47-23.008 43.451-17.309 12.996-13.847 45.444 10.633 99.049h-80.25c24.479-53.604 27.942-86.052 10.635-99.049-14.623-10.98-23.01-26.818-23.01-43.451 0-28.948 23.552-52.499 52.5-52.499s52.5 23.551 52.5 52.499zm-52.5-264.5c26.402 0 48.315 19.592 51.966 45h-299.881c-2.013-18.123-11.238-34.097-24.723-45zm-74.437 482h-293.063v-429.5c0-28.948 23.552-52.5 52.5-52.5s52.499 23.552 52.499 52.5v7.5h255.001v137.428c-33.702 3.744-60 32.39-60 67.072 0 21.396 10.571 41.604 29.002 55.445 6.465 4.854 6.42 20.164-.121 42.004-5.306 17.716-13.421 35.388-18.191 45.378-18.382 2.397-32.627 18.147-32.627 37.173v22.5h15zm148.875-30h-148.875v-7.5c0-12.406 10.094-22.5 22.5-22.5h103.875c12.406 0 22.5 10.094 22.5 22.5z" fill="#0f3764" data-original="#000000" class=""/><path d="m395.031 497h15v15h-15z" fill="#0f3764" data-original="#000000" class=""/><path d="m125.03 398.499h120v15h-120z" fill="#0f3764" data-original="#000000" class=""/><path d="m125.03 360.999h120v15h-120z" fill="#0f3764" data-original="#000000" class=""/><path d="m125.03 323.5h120v15h-120z" fill="#0f3764" data-original="#000000" class=""/><path d="m245.03 136h-120c-12.406 0-22.5 10.094-22.5 22.5v52.501h15v-52.501c0-4.136 3.364-7.5 7.5-7.5h120c4.136 0 7.5 3.364 7.5 7.5v120.001c0 4.135-3.364 7.499-7.5 7.499h-120c-4.136 0-7.5-3.364-7.5-7.499v-52.501h-15v52.501c0 12.406 10.094 22.499 22.5 22.499h120c12.406 0 22.5-10.093 22.5-22.499v-120.001c0-12.406-10.093-22.5-22.5-22.5z" fill="#0f3764" data-original="#000000" class=""/><path d="m395.031 264.501h15v15h-15z" fill="#0f3764" data-original="#000000" class=""/><path d="m365.032 120h15v15h-15z" fill="#0f3764" data-original="#000000" class=""/><path d="m365.032 90h15v15h-15z" fill="#0f3764" data-original="#000000" class=""/><path d="m211.546 191.984-37.122 37.123-15.909-15.91-10.608 10.606 26.517 26.517 47.729-47.73z" fill="#0f3764" data-original="#000000" class=""/></g></g></svg>
