<svg xmlns="http://www.w3.org/2000/svg" width="33.897" height="33.897" viewBox="0 0 33.897 33.897">
  <path id="data-storage" d="M30.918,27.938a2.984,2.984,0,0,0-2.809,1.986H19.757a2.993,2.993,0,0,0-1.815-1.815V25.872a25.265,25.265,0,0,0,6.314-.9c1.6-.481,3.616-1.386,3.616-3.058V3.972c0-1.671-2.015-2.577-3.616-3.058A26.5,26.5,0,0,0,16.949,0,26.5,26.5,0,0,0,9.641.914C8.04,1.395,6.025,2.3,6.025,3.972V21.914a2.411,2.411,0,0,0,1.2,1.97,8.393,8.393,0,0,0,2.418,1.088,25.267,25.267,0,0,0,6.314.9v2.238a2.993,2.993,0,0,0-1.815,1.815H5.788a2.979,2.979,0,1,0,0,1.986H14.14a2.979,2.979,0,0,0,5.617,0H28.11a2.979,2.979,0,1,0,2.809-3.972ZM8.011,12.363a10.48,10.48,0,0,0,1.63.625,26.5,26.5,0,0,0,7.307.914,26.5,26.5,0,0,0,7.307-.914,10.479,10.479,0,0,0,1.63-.626v3.516c-.045.136-.574.717-2.46,1.241a25.241,25.241,0,0,1-6.477.756,25.241,25.241,0,0,1-6.477-.756c-1.886-.523-2.415-1.1-2.46-1.241Zm0-5.958a10.48,10.48,0,0,0,1.63.625,26.5,26.5,0,0,0,7.307.914,26.5,26.5,0,0,0,7.307-.914,10.479,10.479,0,0,0,1.63-.626V9.92c-.045.136-.574.717-2.46,1.241a25.241,25.241,0,0,1-6.477.756,25.241,25.241,0,0,1-6.477-.756c-1.886-.523-2.415-1.1-2.46-1.241Zm2.46-3.663a25.241,25.241,0,0,1,6.477-.756,25.241,25.241,0,0,1,6.477.756c1.839.511,2.389,1.076,2.456,1.23-.068.154-.618.72-2.456,1.23a25.241,25.241,0,0,1-6.477.756A25.241,25.241,0,0,1,10.471,5.2c-1.839-.511-2.389-1.076-2.456-1.23.068-.154.617-.72,2.456-1.23ZM8.011,21.9V18.322a10.48,10.48,0,0,0,1.63.625,26.5,26.5,0,0,0,7.307.914,26.5,26.5,0,0,0,7.307-.914,10.479,10.479,0,0,0,1.63-.626V21.9c-.045.136-.574.717-2.46,1.241a25.241,25.241,0,0,1-6.477.756,25.241,25.241,0,0,1-6.477-.756C8.586,22.621,8.056,22.039,8.011,21.9ZM2.98,31.911a.993.993,0,1,1,.993-.993A.994.994,0,0,1,2.98,31.911Zm13.969,0a.993.993,0,1,1,.993-.993A.994.994,0,0,1,16.949,31.911Zm13.969,0a.993.993,0,1,1,.993-.993A.994.994,0,0,1,30.918,31.911Zm0,0" transform="translate(0 0)" fill="#099"/>
</svg>
