<?xml version="1.0"?>
<svg xmlns="http://www.w3.org/2000/svg" xmlns:xlink="http://www.w3.org/1999/xlink" xmlns:svgjs="http://svgjs.com/svgjs" version="1.1" width="512" height="512" x="0" y="0" viewBox="0 0 512 512" style="enable-background:new 0 0 512 512" xml:space="preserve" class=""><g><g xmlns="http://www.w3.org/2000/svg"><g><path d="m459.745 73.307h-56.241v-63.307c0-5.522-4.478-10-10-10h-275.005c-5.522 0-10 4.478-10 10v63.307h-56.244c-16.663 0-30.22 13.552-30.22 30.21v81.088c0 5.522 4.478 10 10 10s10-4.478 10-10v-81.088c0-5.63 4.585-10.21 10.22-10.21h56.242v250.61h-66.462v-71.338c0-5.522-4.478-10-10-10s-10 4.478-10 10v122.774.004c0 16.664 13.557 30.221 30.22 30.221h143.729l-5.497 47.176c-1.249 10.958-10.501 19.214-21.527 19.214-.009 0-.018 0-.025 0-.148-.006-.273.003-.411.008-.094.004-12.628.024-12.628.024-5.522 0-10 4.478-10 10s4.478 10 10 10h200.868c5.522 0 10-4.478 10-10s-4.478-10-10-10c0 0-12.533-.021-12.627-.024-.133-.005-.265-.008-.397-.008-.013.001-.025.001-.039 0-11.025 0-20.278-8.256-21.528-19.214-.001-.009-.002-.017-.003-.024l-5.494-47.151h143.07c16.663 0 30.22-13.557 30.22-30.221v-.004-291.837c-.001-16.659-13.558-30.21-30.221-30.21zm0 20c5.635 0 10.22 4.58 10.22 10.21v240.4h-66.461v-250.61zm-76.241-73.307-.001 323.913h-255.004v-323.913zm86.461 343.917v31.437c0 5.636-4.585 10.221-10.22 10.221h-407.49c-5.635 0-10.22-4.585-10.22-10.221v-31.437zm-167.662 111.124c.71 6.192 2.748 11.937 5.812 16.959h-103.566c3.064-5.023 5.102-10.766 5.807-16.956l5.764-49.466h80.421z" fill="#0f3764" data-original="#000000" class=""/><path d="m201.002 94.635c4.513 3.184 10.753 2.105 13.935-2.409 9.725-13.789 25.588-22.021 42.435-22.021 21.94 0 40.729 13.696 48.303 32.982l-1.449-.798c-4.838-2.667-10.918-.905-13.584 3.932s-.905 10.919 3.932 13.584l19.855 10.942c4.055 2.212 9.246 1.339 12.316-2.133l15.532-17.56c3.659-4.137 3.271-10.456-.865-14.115s-10.457-3.271-14.115.865l-1.619 1.83c-9.424-28.722-36.474-49.529-68.307-49.529-23.34 0-45.312 11.4-58.778 30.496-3.184 4.512-2.105 10.751 2.409 13.934z" fill="#0f3764" data-original="#000000" class=""/><path d="m173.169 147.137c4.084 3.61 10.506 3.215 14.116-.864l1.735-1.961c9.384 28.79 36.47 49.66 68.351 49.66 24.083 0 46.45-11.974 59.832-32.03 3.065-4.594 1.826-10.803-2.769-13.868-4.591-3.063-10.802-1.827-13.868 2.769-9.664 14.483-25.812 23.13-43.195 23.13-21.897 0-40.656-13.643-48.259-32.87l1.245.686c4.837 2.666 10.919.905 13.584-3.932 2.666-4.837.905-10.919-3.932-13.584l-18.708-10.31c-4.132-2.963-10.094-2.311-13.465 1.499l-15.532 17.559c-3.658 4.136-3.272 10.457.865 14.116z" fill="#0f3764" data-original="#000000" class=""/><path d="m181.382 247.984h149.896c5.522 0 10-4.478 10-10s-4.478-10-10-10h-149.896c-5.522 0-10 4.478-10 10s4.477 10 10 10z" fill="#0f3764" data-original="#000000" class=""/><path d="m286.914 282.951h-105.532c-5.522 0-10 4.478-10 10s4.478 10 10 10h105.532c5.522 0 10-4.478 10-10s-4.477-10-10-10z" fill="#0f3764" data-original="#000000" class=""/><path d="m340.51 289.13c-2.063-5.037-8.04-7.5-13.06-5.41-5.03 2.094-7.491 8.01-5.41 13.05s8.024 7.499 13.06 5.42c5.025-2.076 7.504-8.038 5.41-13.06z" fill="#0f3764" data-original="#000000" class=""/><path d="m22.8 232.42c2.095 5.024 8.02 7.501 13.06 5.41 5.033-2.088 7.489-8.028 5.41-13.061s-8.032-7.502-13.06-5.41c-5.048 2.101-7.479 8.009-5.41 13.061z" fill="#0f3764" data-original="#000000" class=""/></g></g></g></svg>
