<svg xmlns="http://www.w3.org/2000/svg" width="39.703" height="34.274" viewBox="0 0 39.703 34.274"><g transform="translate(8.898 8.418)"><path d="M104.884,131.227h6.065v2.547h-6.065Z" transform="translate(-104.884 -131.227)" fill="#3cb4e6"/><g transform="translate(0 5.791)"><path d="M104.884,199.484h6.065v2.547h-6.065Z" transform="translate(-104.884 -199.484)" fill="#3cb4e6"/></g><g transform="translate(0 11.581)"><path d="M104.884,267.74h6.065v2.547h-6.065Z" transform="translate(-104.884 -267.74)" fill="#3cb4e6"/></g><g transform="translate(0 17.372)"><path d="M104.884,336h6.065v2.547h-6.065Z" transform="translate(-104.884 -335.997)" fill="#3cb4e6"/></g></g><g transform="translate(0 0)"><path d="M21.163,63.727V42.92l13.3-.016V56.941h2.545V41.63a1.286,1.286,0,0,0-1.274-1.273l-15.842.018a1.273,1.273,0,0,0-1.271,1.273V63.727H5.243v-25.2l13.375-3.6v2.891h2.545V33.272a1.285,1.285,0,0,0-1.6-1.23L3.64,36.326a1.273,1.273,0,0,0-.942,1.23V63.727H0v2.547H39.7V63.727Z" transform="translate(0 -32)" fill="#3cb4e6"/><g transform="translate(34.461 27.233)"><path d="M406.2,353.008h2.545v2.372H406.2Z" transform="translate(-406.2 -353.008)" fill="#3cb4e6"/></g><g transform="translate(24.74 14.209)"><g transform="translate(0 0)"><path d="M291.624,199.484h6.065v2.547h-6.065Z" transform="translate(-291.624 -199.484)" fill="#3cb4e6"/></g><g transform="translate(0 5.791)"><path d="M291.624,267.74h6.065v2.547h-6.065Z" transform="translate(-291.624 -267.74)" fill="#3cb4e6"/></g><g transform="translate(0 11.581)"><path d="M291.624,336h6.065v2.547h-6.065Z" transform="translate(-291.624 -335.997)" fill="#3cb4e6"/></g></g></g></svg>