<svg xmlns="http://www.w3.org/2000/svg" width="26.334" height="31.123" viewBox="0 0 26.334 31.123"><g transform="translate(0)"><path d="M57.244,14.431a7.98,7.98,0,1,0-9.384,0,13.189,13.189,0,0,0-8.475,12.3,4.394,4.394,0,0,0,4.389,4.389H61.33a4.394,4.394,0,0,0,4.389-4.389A13.189,13.189,0,0,0,57.244,14.431ZM46.966,7.98a5.586,5.586,0,1,1,5.586,5.586A5.592,5.592,0,0,1,46.966,7.98ZM61.33,28.728H43.774a2,2,0,0,1-1.995-2,10.773,10.773,0,0,1,21.546,0A2,2,0,0,1,61.33,28.728Z" transform="translate(-39.385)" fill="#0f3764"/></g></svg>