<svg id="Layer_3" enable-background="new 0 0 64 64" height="512" viewBox="0 0 64 64" width="512" xmlns="http://www.w3.org/2000/svg"><g><path d="m62 33h-8c-.552 0-1 .447-1 1v1h-2v-33c0-.553-.448-1-1-1h-48c-.552 0-1 .447-1 1v60c0 .553.448 1 1 1h48c.552 0 1-.447 1-1v-5h2v1c0 .553.448 1 1 1h8c.552 0 1-.447 1-1v-24c0-.553-.448-1-1-1zm-13 28h-46v-58h46v32h-1.586l-1.414-1.414v-11.586c0-.553-.448-1-1-1h-1.618c-1.851 0-3.514 1.028-4.342 2.684-.68 1.361-1.04 2.884-1.04 4.406v4.91h-15c-2.206 0-4 1.794-4 4 0 1.201.542 2.266 1.382 3-.84.734-1.382 1.799-1.382 3s.542 2.266 1.382 3c-.84.734-1.382 1.799-1.382 3 0 1.744 1.128 3.214 2.687 3.761-.433.639-.687 1.41-.687 2.239 0 2.206 1.794 4 4 4h19c.155 0 .309-.036.447-.105l3.789-1.895h.764zm-1-6c-.155 0-.309.036-.447.105l-3.789 1.895h-18.764c-1.103 0-2-.897-2-2s.897-2 2-2h4v-2h-4-2c-1.103 0-2-.897-2-2s.897-2 2-2h6v-2h-6c-1.103 0-2-.897-2-2s.897-2 2-2h6v-2h-6c-1.103 0-2-.897-2-2s.897-2 2-2h16c.552 0 1-.447 1-1v-5.91c0-1.213.287-2.427.829-3.512.487-.974 1.465-1.578 2.553-1.578h.618v11c0 .266.105.52.293.707l2 2c.187.188.442.293.707.293h6v18zm13 2h-6v-22h6z"/><path d="m13 21c4.411 0 8-3.589 8-8s-3.589-8-8-8-8 3.589-8 8 3.589 8 8 8zm0-14c3.309 0 6 2.691 6 6s-2.691 6-6 6-6-2.691-6-6 2.691-6 6-6z"/><path d="m6 23h14v2h-14z"/><path d="m25 9h22v2h-22z"/><path d="m25 13h22v2h-22z"/><path d="m25 17h22v2h-22z"/><path d="m12 47h-6c-.552 0-1 .447-1 1v6c0 .553.448 1 1 1h6c.552 0 1-.447 1-1v-6c0-.553-.448-1-1-1zm-1 6h-4v-4h4z"/><path d="m15.293 31.293-3.707 3.707h-5.586c-.552 0-1 .447-1 1v6c0 .553.448 1 1 1h6c.552 0 1-.447 1-1v-5.586l3.707-3.707zm-4.293 9.707h-4v-4h2.586l-1.293 1.293 1.414 1.414 1.293-1.293z"/></g></svg>