<?xml version="1.0"?>
<svg xmlns="http://www.w3.org/2000/svg" xmlns:xlink="http://www.w3.org/1999/xlink" xmlns:svgjs="http://svgjs.com/svgjs" version="1.1" width="512" height="512" x="0" y="0" viewBox="0 0 512 512" style="enable-background:new 0 0 512 512" xml:space="preserve" class=""><g><path xmlns="http://www.w3.org/2000/svg" d="m466.564 184.041a23.264 23.264 0 0 0 -29.27-14.945l-31.716 10.275v-62.917a8 8 0 0 0 -2.343-5.657l-92.911-92.91a8 8 0 0 0 -5.657-2.343h-176.973a21.3 21.3 0 0 0 -21.272 21.272v142.555l-31.716-10.271a23.265 23.265 0 0 0 -29.269 14.946l-44.306 136.754a23.267 23.267 0 0 0 14.945 29.27l52.941 17.151a23.221 23.221 0 0 0 7.165 1.139 22.952 22.952 0 0 0 4.692-.5 43.171 43.171 0 0 0 10.126 13.255 29.344 29.344 0 0 0 -2.83 3.586l-11.921 17.785a29.4 29.4 0 0 0 24.387 45.78c.148 0 .3-.011.445-.013a29.438 29.438 0 0 0 12.832 27.779 29.131 29.131 0 0 0 16.279 4.968 29.865 29.865 0 0 0 5.787-.569 29.273 29.273 0 0 0 14.389-7.341 29.317 29.317 0 0 0 27.332 18.727 29.476 29.476 0 0 0 21.1-8.87 25.542 25.542 0 0 0 43.746 2.206l2.1-3.136 19.425 10.331a28.187 28.187 0 0 0 41.432-25.683 31.719 31.719 0 0 0 5.1.426 32.476 32.476 0 0 0 9.5-1.43 32.114 32.114 0 0 0 22.681-33.561 32.18 32.18 0 0 0 38.687-33.717 31.769 31.769 0 0 0 8.392 1.141 32.476 32.476 0 0 0 9.5-1.43 31.99 31.99 0 0 0 19.037-15.652 30.265 30.265 0 0 0 3.243-18.946 23.143 23.143 0 0 0 21.339 3.725l52.941-17.151a23.267 23.267 0 0 0 14.945-29.27zm-153.897-141.184 65.6 65.6h-65.6zm-190.245-6.041a5.278 5.278 0 0 1 5.272-5.272h168.973v84.91a8 8 0 0 0 8 8h84.911v60.1l-5.224 1.693a23.265 23.265 0 0 0 -14.946 29.27l3.915 12.085c-10.352 3.688-18.986 4.693-25.7 2.988-20.944-13.59-40.292-19.151-57.523-16.511a7.938 7.938 0 0 0 -.854.178 244.773 244.773 0 0 0 -30.392 10.294 8.016 8.016 0 0 0 -1.624-.98 244.42 244.42 0 0 0 -36.551-12.956 7.768 7.768 0 0 0 -.855-.178c-17.237-2.639-36.584 2.917-57.526 16.51-6.074 1.543-13.7.871-22.758-2l3.057-9.435a23.265 23.265 0 0 0 -14.946-29.27l-5.224-1.693zm170.509 193.017c13.391-1.9 29.178 3.078 46.932 14.8a7.987 7.987 0 0 0 2.079.978c10.087 3.07 22.292 2.13 36.314-2.785l32.6 100.634a42.863 42.863 0 0 0 -4.9-4.053c-49.3-34.978-78.587-45.224-109.116-54.165a8 8 0 0 0 -4.761.083l-83.589 27.653c-7.983 2.641-14.8.421-23.338-18.059a226.8 226.8 0 0 1 107.779-65.086zm-218.983 122.167-52.94-17.15a7.269 7.269 0 0 1 -4.656-9.119l44.3-136.758a7.236 7.236 0 0 1 9.117-4.656l52.941 17.15a7.248 7.248 0 0 1 4.656 9.119l-44.301 136.759a7.267 7.267 0 0 1 -9.117 4.655zm19.264 78a13.474 13.474 0 0 1 -3.673-18.6l11.923-17.785a13.315 13.315 0 0 1 8.549-5.665 13.7 13.7 0 0 1 2.656-.261 13.423 13.423 0 0 1 11.077 20.862l-5.956 8.884-.006.009-5.967 8.9a13.429 13.429 0 0 1 -18.603 3.656zm39.67 34.732a13.387 13.387 0 0 1 -13.734-20.6l5.957-8.886v-.007l5.965-8.9a13.311 13.311 0 0 1 8.545-5.66 13.641 13.641 0 0 1 2.656-.262 13.423 13.423 0 0 1 11.078 20.862l-11.919 17.791a13.315 13.315 0 0 1 -8.548 5.665zm37.4 8.82a13.475 13.475 0 0 1 -3.673-18.608l11.923-17.786a13.413 13.413 0 0 1 22.28 14.942l-11.923 17.785a13.43 13.43 0 0 1 -18.61 3.67zm52.9 6.716a9.541 9.541 0 0 1 -9.769-14.652l9.768-14.571a9.542 9.542 0 0 1 15.851 10.626l-9.767 14.57a9.473 9.473 0 0 1 -6.09 4.03zm181.1-105.342a16.285 16.285 0 0 1 -21.932 6.7l-17.861-9.5-.009-.006-42.77-22.737a8 8 0 0 0 -7.514 14.126l17.866 9.5 24.9 13.241a16.217 16.217 0 0 1 -15.235 28.634l-15.892-8.453-26.866-14.289a8 8 0 0 0 -7.514 14.126l26.869 14.291a16.217 16.217 0 0 1 -15.235 28.641l-39.078-20.784a8 8 0 1 0 -7.514 14.126l26.548 14.12.01.006a12.209 12.209 0 1 1 -11.467 21.558l-18.078-9.615a25.549 25.549 0 0 0 -36.132-33.782 29.128 29.128 0 0 0 -11.331-14.629 29.455 29.455 0 0 0 -36.448 2.94 29.321 29.321 0 0 0 -27.786-18.716 29.371 29.371 0 0 0 -35.763-32 8.069 8.069 0 0 0 -.832-.6 27.076 27.076 0 0 1 -10.66-12.524 23.14 23.14 0 0 0 3.728-7.027l36.321-112.112a69.629 69.629 0 0 0 20.847 3.571 42.85 42.85 0 0 0 12.518-1.765 8.016 8.016 0 0 0 2.079-.977c17.752-11.722 33.532-16.7 46.932-14.8a228.057 228.057 0 0 1 22.541 7.358 242.946 242.946 0 0 0 -69.769 54.538 8 8 0 0 0 -1.39 8.394c4.074 9.728 14.007 33.451 34.9 33.448a32.56 32.56 0 0 0 10.255-1.761l81.212-26.867c28.278 8.378 55.98 18.531 101.968 51.157 7.057 5.007 12.136 13.897 7.574 22.472zm90.924-43.68a7.191 7.191 0 0 1 -4.206 3.6l-52.948 17.154a7.25 7.25 0 0 1 -9.117-4.655l-44.306-136.76a7.247 7.247 0 0 1 4.656-9.118l52.941-17.15a7.237 7.237 0 0 1 9.118 4.655l44.3 136.759a7.184 7.184 0 0 1 -.444 5.518zm-402.29-114.846a7.98 7.98 0 0 1 7.976-8h.047a8 8 0 1 1 -8.023 8zm325.761-1.143a8.012 8.012 0 1 1 -8.047-8h.047a8 8 0 0 1 8 8.002zm-195.777-53.924a8 8 0 0 0 -16 0 35.137 35.137 0 0 0 27.084 34.152v3.867a8 8 0 0 0 16 0v-3.867a35.075 35.075 0 0 0 0-68.305v-37.318a19.09 19.09 0 0 1 11.084 17.3 8 8 0 1 0 16 0 35.138 35.138 0 0 0 -27.084-34.153v-3.864a8 8 0 0 0 -16 0v3.867a35.075 35.075 0 0 0 0 68.305v37.318a19.091 19.091 0 0 1 -11.084-17.302zm38.168 0a19.09 19.09 0 0 1 -11.084 17.3v-34.6a19.09 19.09 0 0 1 11.085 17.3zm-38.168-54.168a19.092 19.092 0 0 1 11.084-17.3v34.605a19.091 19.091 0 0 1 -11.084-17.305z" fill="#ffffff" data-original="#000000"/></g></svg>
