<svg xmlns="http://www.w3.org/2000/svg" width="33.393" height="33.393" viewBox="0 0 33.393 33.393"><path d="M30.459,27.523a2.94,2.94,0,0,0-2.767,1.957H19.464a2.949,2.949,0,0,0-1.788-1.788v-2.2A24.89,24.89,0,0,0,23.9,24.6c1.578-.473,3.563-1.366,3.563-3.012V3.913c0-1.647-1.985-2.539-3.563-3.012A26.105,26.105,0,0,0,16.7,0,26.105,26.105,0,0,0,9.5.9C7.92,1.374,5.936,2.267,5.936,3.913V21.588a2.376,2.376,0,0,0,1.181,1.94A8.268,8.268,0,0,0,9.5,24.6a24.892,24.892,0,0,0,6.22.887v2.2A2.949,2.949,0,0,0,13.93,29.48H5.7a2.935,2.935,0,1,0,0,1.957H13.93a2.935,2.935,0,0,0,5.534,0h8.228a2.935,2.935,0,1,0,2.767-3.913ZM7.892,12.179A10.324,10.324,0,0,0,9.5,12.8a26.105,26.105,0,0,0,7.2.9,26.105,26.105,0,0,0,7.2-.9,10.324,10.324,0,0,0,1.606-.616v3.463c-.044.134-.566.707-2.424,1.222a24.866,24.866,0,0,1-6.381.745,24.866,24.866,0,0,1-6.381-.745c-1.858-.516-2.38-1.088-2.424-1.222Zm0-5.87A10.324,10.324,0,0,0,9.5,6.926a26.105,26.105,0,0,0,7.2.9,26.105,26.105,0,0,0,7.2-.9A10.324,10.324,0,0,0,25.5,6.309V9.773c-.044.134-.566.707-2.424,1.222a24.866,24.866,0,0,1-6.381.745A24.865,24.865,0,0,1,10.316,11c-1.858-.516-2.38-1.088-2.424-1.222ZM10.316,2.7A24.866,24.866,0,0,1,16.7,1.957a24.865,24.865,0,0,1,6.381.745c1.812.5,2.353,1.06,2.42,1.212-.067.152-.608.709-2.42,1.212A24.866,24.866,0,0,1,16.7,5.87a24.866,24.866,0,0,1-6.381-.745C8.5,4.622,7.963,4.065,7.9,3.913,7.963,3.761,8.5,3.2,10.316,2.7ZM7.892,21.578V18.049a10.324,10.324,0,0,0,1.606.616,26.105,26.105,0,0,0,7.2.9,26.105,26.105,0,0,0,7.2-.9,10.323,10.323,0,0,0,1.606-.616v3.529c-.044.134-.566.707-2.424,1.222a24.866,24.866,0,0,1-6.381.745,24.866,24.866,0,0,1-6.381-.745C8.458,22.285,7.936,21.712,7.892,21.578ZM2.935,31.437a.978.978,0,1,1,.978-.978A.98.98,0,0,1,2.935,31.437Zm13.762,0a.978.978,0,1,1,.978-.978A.98.98,0,0,1,16.7,31.437Zm13.762,0a.978.978,0,1,1,.978-.978A.98.98,0,0,1,30.459,31.437Zm0,0" transform="translate(0)" fill="#099"/></svg>