<svg xmlns="http://www.w3.org/2000/svg" width="33.393" height="33.394" viewBox="0 0 33.393 33.394"><g transform="translate(0)"><g transform="translate(9.094 0)"><path d="M136.62,15.2h-3.148a1.07,1.07,0,0,1-1.065-.962l-.133-1.311q-.264-.134-.513-.293l-1.239.55a1.07,1.07,0,0,1-1.358-.437l-1.574-2.684a1.07,1.07,0,0,1,.3-1.415l1.091-.772q-.013-.278,0-.556l-1.091-.772a1.07,1.07,0,0,1-.3-1.415l1.574-2.684a1.07,1.07,0,0,1,1.358-.437l1.239.55q.249-.159.513-.293l.133-1.312A1.07,1.07,0,0,1,133.472,0h3.148a1.07,1.07,0,0,1,1.065.962l.133,1.311q.264.134.513.293l1.239-.55a1.07,1.07,0,0,1,1.358.437L142.5,5.136a1.07,1.07,0,0,1-.3,1.415l-1.091.772q.013.278,0,.556l1.091.772a1.07,1.07,0,0,1,.3,1.415l-1.574,2.684a1.07,1.07,0,0,1-1.358.437l-1.239-.55q-.249.159-.513.293l-.133,1.311A1.07,1.07,0,0,1,136.62,15.2Zm-2.181-2.141h1.214l.1-.969a1.07,1.07,0,0,1,.691-.895,3.929,3.929,0,0,0,1.094-.622,1.07,1.07,0,0,1,1.106-.144l.924.41.593-1.011-.8-.565a1.07,1.07,0,0,1-.438-1.047,3.814,3.814,0,0,0,0-1.235,1.07,1.07,0,0,1,.438-1.047l.8-.565-.593-1.011-.924.41a1.07,1.07,0,0,1-1.106-.144A3.931,3.931,0,0,0,136.442,4a1.07,1.07,0,0,1-.691-.895l-.1-.969h-1.214l-.1.969A1.07,1.07,0,0,1,133.65,4a3.933,3.933,0,0,0-1.094.623,1.071,1.071,0,0,1-1.106.144l-.924-.41-.593,1.011.8.565a1.07,1.07,0,0,1,.438,1.047,3.813,3.813,0,0,0,0,1.235,1.07,1.07,0,0,1-.438,1.047l-.8.565.593,1.011.924-.41a1.07,1.07,0,0,1,1.106.144,3.933,3.933,0,0,0,1.094.623,1.07,1.07,0,0,1,.691.895Z" transform="translate(-127.443 0)" fill="#099"/><g transform="translate(4.703 5.13)"><path d="M195.156,76.182l-1.8-1.595,1.419-1.6,1.022.9,1.869-2,1.563,1.463-2.58,2.756A1.06,1.06,0,0,1,195.156,76.182Z" transform="translate(-193.354 -71.893)" fill="#099"/></g></g><g transform="translate(0 15.357)"><g transform="translate(23.26)"><path d="M330.01,223.294a4.037,4.037,0,1,1,4.031-4.037A4.038,4.038,0,0,1,330.01,223.294Zm0-5.933a1.9,1.9,0,1,0,1.89,1.9A1.9,1.9,0,0,0,330.01,217.361Z" transform="translate(-325.979 -215.22)" fill="#099"/></g><g transform="translate(2.072)"><path d="M33.073,223.294a4.037,4.037,0,1,1,4.031-4.037A4.038,4.038,0,0,1,33.073,223.294Zm0-5.933a1.9,1.9,0,1,0,1.89,1.9A1.9,1.9,0,0,0,33.073,217.361Z" transform="translate(-29.042 -215.22)" fill="#099"/></g><g transform="translate(0 0.424)"><path d="M176.5,225.953a4.786,4.786,0,1,0-5.856,4.671v3.607h2.141v-3.608A4.8,4.8,0,0,0,176.5,225.953Zm-4.786,2.653a2.653,2.653,0,1,1,2.645-2.653A2.652,2.652,0,0,1,171.717,228.606Z" transform="translate(-155.02 -221.16)" fill="#099"/><g transform="translate(9.31 8.348)"><path d="M142.908,347.424h-10.08a2.349,2.349,0,0,1-2.346-2.346V343.2a7.36,7.36,0,0,1,1.987-5.04l1.565,1.461a5.226,5.226,0,0,0-1.411,3.579v1.878a.206.206,0,0,0,.206.206h10.08a.206.206,0,0,0,.206-.206V343.2a5.227,5.227,0,0,0-1.411-3.579l1.564-1.461a7.36,7.36,0,0,1,1.987,5.041v1.878A2.349,2.349,0,0,1,142.908,347.424Z" transform="translate(-130.482 -338.159)" fill="#099"/></g><g transform="translate(28.717 7.054)"><path d="M405.058,327.01h-2.589V324.87H405v-1.442a3.941,3.941,0,0,0-.674-2.211l1.775-1.2a6.073,6.073,0,0,1,1.04,3.408v1.5A2.089,2.089,0,0,1,405.058,327.01Z" transform="translate(-402.469 -320.019)" fill="#099"/></g><g transform="translate(25.415 11.905)"><path d="M356.186,388h1.875v2.141h-1.875Z" transform="translate(-356.186 -388)" fill="#099"/></g><g transform="translate(6.103 11.905)"><path d="M85.532,388h1.875v2.141H85.532Z" transform="translate(-85.532 -388)" fill="#099"/></g><g transform="translate(0 7.368)"><path d="M4.676,331.1H2.087A2.089,2.089,0,0,1,0,329.017v-1.5a6.1,6.1,0,0,1,.841-3.094l1.844,1.087a3.956,3.956,0,0,0-.545,2.007v1.442H4.676Z" transform="translate(0 -324.427)" fill="#099"/></g></g></g></g></svg>