<svg xmlns="http://www.w3.org/2000/svg" width="25.123" height="25.123" viewBox="0 0 25.123 25.123"><g transform="translate(0 0)"><path d="M12.072,21.144a9.072,9.072,0,1,1,9.072-9.072A9.054,9.054,0,0,1,12.072,21.144Zm0-15.353a6.281,6.281,0,1,0,6.281,6.281A6.255,6.255,0,0,0,12.072,5.791Z" transform="translate(-3 -3)" fill="#8dffff"/></g><g transform="translate(6.979 6.979)"><path d="M17.072,26.144a9.072,9.072,0,1,1,9.072-9.072A9.054,9.054,0,0,1,17.072,26.144Zm0-15.353a6.281,6.281,0,1,0,6.281,6.281A6.255,6.255,0,0,0,17.072,10.791Z" transform="translate(-8 -8)" fill="#8dffff"/></g></svg>