<svg id="Layer_1" enable-background="new 0 0 512.048 512.048" height="512" viewBox="0 0 512.048 512.048" width="512" xmlns="http://www.w3.org/2000/svg"><g><path d="m256.024 80.741c9.697 0 9.697-15 0-15-21.173 0-39.763 11.244-50.131 28.071h-58.367c-4.143 0-7.5 3.358-7.5 7.5v46.552c0 4.142 3.357 7.5 7.5 7.5h58.367c10.367 16.827 28.958 28.071 50.131 28.071s39.763-11.244 50.131-28.071h58.367c4.143 0 7.5-3.358 7.5-7.5v-46.552c0-4.142-3.357-7.5-7.5-7.5h-58.308c-2.612-4.237-5.784-8.175-9.486-11.722-7.002-6.708-17.38 4.122-10.377 10.831 8.717 8.352 13.518 19.598 13.518 31.667 0 24.177-19.669 43.847-43.845 43.847s-43.845-19.669-43.845-43.847 19.669-43.847 43.845-43.847zm100.998 28.071v31.552h-44.318c1.4-5.024 2.165-10.311 2.165-15.776 0-5.419-.737-10.708-2.135-15.776zm-201.996 31.552v-31.552h44.318c-1.4 5.024-2.165 10.311-2.165 15.776s.765 10.751 2.165 15.776z"/><path d="m368.042 223.855h-47.692c-9.697 0-9.697 15 0 15h47.691c9.698 0 9.698-15 .001-15z"/><path d="m136.506 231.355c0 4.142 3.357 7.5 7.5 7.5h124.158c9.697 0 9.697-15 0-15h-124.158c-4.142 0-7.5 3.358-7.5 7.5z"/><path d="m368.042 268.522h-47.692c-9.697 0-9.697 15 0 15h47.691c9.698 0 9.698-15 .001-15z"/><path d="m144.006 283.522h124.158c9.697 0 9.697-15 0-15h-124.158c-9.697 0-9.697 15 0 15z"/><path d="m368.042 313.189h-47.692c-9.697 0-9.697 15 0 15h47.691c9.698 0 9.698-15 .001-15z"/><path d="m368.042 357.856h-47.692c-9.697 0-9.697 15 0 15h47.691c9.698 0 9.698-15 .001-15z"/><path d="m144.006 328.189h124.158c9.697 0 9.697-15 0-15h-124.158c-9.697 0-9.697 15 0 15z"/><path d="m492.418 414.18c-1.941-3.658-6.483-5.05-10.141-3.107l-20.394 10.827-20.394-10.827c-3.149-1.671-7.851-.053-10.634 1.912v-372.242c0-22.952-16.108-40.26-37.459-40.26 0 0-336.13-.484-337.173-.482-20.661 0-37.47 16.809-37.47 37.471v55.728c0 5.561 6.115 9.227 11.018 6.624l20.389-10.826 20.388 10.826c3.15 1.673 7.859.05 10.644-1.916v300.092c0 9.697 15 9.697 15 0v-312.569-48.481c0-7.992-2.522-15.595-7.186-21.905l304.38.437c13.02 0 22.47 10.624 22.47 25.26v380.207l-1.79.951-20.388-10.827c-2.199-1.168-4.836-1.168-7.035 0l-20.389 10.827-20.388-10.827c-2.199-1.168-4.836-1.168-7.035 0l-20.385 10.826-20.385-10.826c-2.199-1.169-4.835-1.169-7.036 0l-20.381 10.826-20.387-10.826c-2.199-1.168-4.836-1.168-7.035 0l-20.386 10.826-20.385-10.826c-2.199-1.169-4.836-1.169-7.035 0l-20.385 10.826-20.386-10.826c-3.657-1.941-8.198-.551-10.142 3.106-.69 1.3-.952 2.71-.848 4.076-.013.181-.028.362-.028.546v55.728c0 29.921-47.438 29.329-47.438-.482v-38.047c0-9.697-15-9.697-15 0v38.047c0 21.707 18.54 38.782 39.968 37.953h331.676c21.389 1.061 40.458-15.61 40.458-37.471v-55.728c-.049-1.571-.341-3.111-.873-4.621zm-417.664-392.759c4.151 4.147 6.438 9.662 6.438 15.529v43.972l-7.126 3.785-20.388-10.827c-1.1-.584-2.309-.876-3.518-.876s-2.418.292-3.518.876l-12.889 6.844v-43.253c.001-12.391 10.082-22.471 22.471-22.471h1.238l1.834.003c5.839.014 11.327 2.29 15.458 6.418zm381.07 475.579c-.996 0-304.699 0-304.699 0 4.71-6.265 7.505-14.047 7.505-22.471v-44.357l12.886 6.843c2.199 1.168 4.836 1.168 7.035 0l20.385-10.826 20.385 10.826c2.199 1.169 4.836 1.168 7.035 0l20.386-10.826 20.387 10.826c2.199 1.168 4.835 1.168 7.036 0l20.381-10.826 20.385 10.826c2.199 1.169 4.836 1.169 7.035 0l20.385-10.826 20.388 10.826c1.1.584 2.309.876 3.518.876s2.418-.292 3.518-.876l20.389-10.827 20.388 10.827c2.199 1.168 4.836 1.168 7.035 0l20.39-10.827 20.394 10.827c2.199 1.167 4.834 1.167 7.033 0l12.894-6.845v44.359c-.004 12.39-10.085 22.471-22.474 22.471z"/></g></svg>