<svg xmlns="http://www.w3.org/2000/svg" width="25.855" height="25.854" viewBox="0 0 25.855 25.854"><path d="M2.108,25.645h.774a.441.441,0,0,1,.441.441A11,11,0,0,0,8.7,35.55a2.709,2.709,0,0,1,.871-1.409l.083-.072a9.214,9.214,0,0,1-4.569-7.983.441.441,0,0,1,.441-.441H6.3a.1.1,0,0,0,.1-.062.1.1,0,0,0-.016-.11l-2.1-2.436a.109.109,0,0,0-.164,0l-2.1,2.436a.1.1,0,0,0-.016.11.1.1,0,0,0,.1.062Z" transform="translate(-1.417 -13.159)" fill="#8dffff"/><path d="M3.787,22a.692.692,0,0,1,.519.235l0,0L6.4,24.669a.687.687,0,0,1-.525,1.142H5.252a8.66,8.66,0,0,0,4.279,7.338l.7.41-.7.608a2.114,2.114,0,0,0-.684,1.106l-.189.761-.674-.4a11.579,11.579,0,0,1-5.663-9.822H1.7a.687.687,0,0,1-.525-1.142l2.095-2.434A.692.692,0,0,1,3.787,22Zm1.081,2.674L3.787,23.418,2.706,24.674a1.025,1.025,0,0,1,.782.995A10.465,10.465,0,0,0,8,34.256a3.256,3.256,0,0,1,.322-.5,9.8,9.8,0,0,1-4.233-8.09A1.025,1.025,0,0,1,4.868,24.674Z" transform="translate(-0.999 -12.742)" fill="#8dffff"/><path d="M9.947,9.568l.072.084A9.2,9.2,0,0,1,18,5.086a.441.441,0,0,1,.441.441V6.3a.1.1,0,0,0,.062.1.1.1,0,0,0,.11-.016l2.435-2.1a.109.109,0,0,0,0-.164l-2.435-2.1a.1.1,0,0,0-.11-.016.1.1,0,0,0-.062.1v.774A.441.441,0,0,1,18,3.323,11,11,0,0,0,8.535,8.7a2.733,2.733,0,0,1,1.411.869Z" transform="translate(-5.071 -1.417)" fill="#8dffff"/><path d="M9.465,10.236l-.306-.357-.3-.346a2.139,2.139,0,0,0-1.11-.684l-.76-.189.4-.674a11.578,11.578,0,0,1,9.822-5.663V1.7A.691.691,0,0,1,17.9,1a.678.678,0,0,1,.453.172l2.433,2.094a.692.692,0,0,1,0,1.042l0,0L18.353,6.4a.679.679,0,0,1-.74.11.686.686,0,0,1-.4-.635V5.252A8.648,8.648,0,0,0,9.877,9.528ZM8.765,8a3.283,3.283,0,0,1,.458.289l.047-.063.034.04a9.783,9.783,0,0,1,8.017-4.177h.033a1.025,1.025,0,0,1,.993.782L19.6,3.787,18.348,2.706a1.025,1.025,0,0,1-.995.782h-.011A10.465,10.465,0,0,0,8.765,8Z" transform="translate(-4.426 -1)" fill="#8dffff"/><path d="M25.584,43.9a.111.111,0,0,0-.044-.01.1.1,0,0,0-.065.026l-2.436,2.1a.109.109,0,0,0,0,.164l2.436,2.1a.1.1,0,0,0,.11.016.1.1,0,0,0,.061-.1v-.774a.441.441,0,0,1,.441-.441,11,11,0,0,0,9.464-5.379,2.754,2.754,0,0,1-1.411-.873h0l-.068-.079a9.214,9.214,0,0,1-7.985,4.567.441.441,0,0,1-.441-.441v-.774A.1.1,0,0,0,25.584,43.9Z" transform="translate(-13.16 -23.022)" fill="#8dffff"/><path d="M33.562,38.93l.6.694a2.162,2.162,0,0,0,1.113.69l.757.192-.4.671a11.579,11.579,0,0,1-9.823,5.663v.625a.69.69,0,0,1-.687.7.678.678,0,0,1-.452-.172l-2.436-2.1a.692.692,0,0,1,0-1.038l.005,0,2.431-2.092a.68.68,0,0,1,.436-.172h.026a.691.691,0,0,1,.677.7v.624a8.662,8.662,0,0,0,7.34-4.277Zm.7,2.234a3.3,3.3,0,0,1-.5-.32A9.8,9.8,0,0,1,25.7,45.077h-.03a1.025,1.025,0,0,1-.993-.781l-1.255,1.08,1.255,1.08a1.025,1.025,0,0,1,.995-.781h.011A10.466,10.466,0,0,0,34.259,41.164Z" transform="translate(-12.743 -22.309)" fill="#8dffff"/><path d="M45.207,18a.441.441,0,0,1-.441.441h-.774a.1.1,0,0,0-.1.062.1.1,0,0,0,.016.11l2.1,2.435a.1.1,0,0,0,.164,0l2.1-2.436a.1.1,0,0,0,.016-.11.1.1,0,0,0-.1-.062h-.774A.441.441,0,0,1,46.97,18a11,11,0,0,0-5.379-9.464,2.751,2.751,0,0,1-.873,1.411l-.08.069A9.214,9.214,0,0,1,45.207,18Z" transform="translate(-23.021 -5.071)" fill="#8dffff"/><path d="M45.373,21.031a.682.682,0,0,1-.541-.269l-2.073-2.409a.687.687,0,0,1,.525-1.142h.624A8.66,8.66,0,0,0,39.63,9.872l-.7-.412.7-.6a2.157,2.157,0,0,0,.688-1.112L40.5,6.99l.671.4a11.579,11.579,0,0,1,5.663,9.823h.625a.687.687,0,0,1,.525,1.141l-2.073,2.409A.682.682,0,0,1,45.373,21.031Zm-1.081-2.683L45.373,19.6l1.081-1.256a1.025,1.025,0,0,1-.781-.995,10.464,10.464,0,0,0-4.51-8.589,3.3,3.3,0,0,1-.321.5,9.8,9.8,0,0,1,4.233,8.093A1.025,1.025,0,0,1,44.293,18.348Z" transform="translate(-22.306 -4.426)" fill="#8dffff"/></svg>