<?xml version="1.0"?>
<svg xmlns="http://www.w3.org/2000/svg" id="Icons" viewBox="0 0 60 60" width="512" height="512"><path d="M33,20a1,1,0,0,0-1,1v9a1,1,0,0,0,2,0V21A1,1,0,0,0,33,20Z"/><path d="M33,32.837a1,1,0,0,0-1,1V34a1,1,0,0,0,2,0v-.163A1,1,0,0,0,33,32.837Z"/><path d="M59,54H47.446A3.958,3.958,0,0,0,48,52a2,2,0,0,0-2-2H43.125a4.606,4.606,0,0,1-2.634-2H49a4,4,0,0,0,4-4V33.8L59.438,27.3l0,0A1.939,1.939,0,0,0,58.068,24H56V2a2,2,0,0,0-2-2H48a2,2,0,0,0-2,2V12H17a4,4,0,0,0-4,4v3H9a9.01,9.01,0,0,0-9,9v5.107H0V35a3.971,3.971,0,0,0,1.173,2.827,3.911,3.911,0,0,0,1.889,1.049c.175,1.491,1.03,5.614,4.938,7.34v2.905a9.279,9.279,0,0,0-8,9.061A1.834,1.834,0,0,0,1.846,60H22.154A1.834,1.834,0,0,0,24,58.182,8.889,8.889,0,0,0,23.719,56H59a1,1,0,0,0,0-2ZM39.465,50H26.535a6.09,6.09,0,0,0,1.2-2H38.262A6.09,6.09,0,0,0,39.465,50ZM20,50a2,2,0,0,0-.831.183A9.574,9.574,0,0,0,16,49.121V47.857A3.992,3.992,0,0,0,17,48h8.509a4.606,4.606,0,0,1-2.634,2Zm29-4H17a1.977,1.977,0,0,1-.435-.054A7.8,7.8,0,0,0,19.59,43H51v1A2,2,0,0,1,49,46ZM24,35V28a5.006,5.006,0,0,0-5-5l.6-.8a1.991,1.991,0,0,0-.6-2.926V18H46v6H43.93a1.939,1.939,0,0,0-1.37,3.3L47,31.782V37H23.459A4,4,0,0,0,24,35Zm-3.041,4H47a2,2,0,0,0,2-2V33.8l.643.648A1.932,1.932,0,0,0,50.994,35H51v6H20.471A14.772,14.772,0,0,0,20.959,39ZM48,25V2h6V24H51a1,1,0,0,0,0,2h4l2.956-.041L51,32.976,44.083,26H47A1,1,0,0,0,48,25ZM15,16a2,2,0,0,1,2-2H46v2H19a2,2,0,0,0-2,2v1H15ZM9,21h9l-1.5,2H14a1,1,0,0,0,0,2h5a3,3,0,0,1,3,3v2.175a2.8,2.8,0,0,0-.518-.135A3,3,0,0,0,18,33a3.269,3.269,0,0,1-1.584,2.876A7.458,7.458,0,0,1,12.4,36.9C9.256,36.9,6,35.435,6,32.982A3,3,0,0,0,2.52,30.04a2.814,2.814,0,0,0-.52.134V28A7.008,7.008,0,0,1,9,21ZM5.048,38.643a2.01,2.01,0,0,0-1.539-1.7A2,2,0,0,1,2,35V33.11a1.086,1.086,0,0,1,.833-1.095A1.128,1.128,0,0,1,3.005,32a.982.982,0,0,1,.64.232A1.009,1.009,0,0,1,4,32.99C4,36.826,8.33,38.9,12.4,38.9a9.451,9.451,0,0,0,5.105-1.345A5.227,5.227,0,0,0,20,33a1,1,0,0,1,1.167-.985,1.09,1.09,0,0,1,.833,1.1V35a2,2,0,0,1-1.506,1.939,2.011,2.011,0,0,0-1.543,1.7,8.971,8.971,0,0,1-.846,2.91C16.962,43.84,14.907,45,12,45a8.381,8.381,0,0,1-2.608-.38l-.016,0C6.16,43.561,5.276,40.571,5.048,38.643ZM12,47a11.231,11.231,0,0,0,2-.177V49H10V46.814A11.114,11.114,0,0,0,12,47ZM2,58a7.344,7.344,0,0,1,7.46-7h5.076A7.344,7.344,0,0,1,22,58Zm19.512-6H46a2,2,0,0,1-2,2H22.951A9.18,9.18,0,0,0,21.514,52Z"/></svg>
