<svg xmlns="http://www.w3.org/2000/svg" width="30.706" height="25.123" viewBox="0 0 30.706 25.123"><path d="M27.518,3H5.187A4.187,4.187,0,0,0,1,7.187V23.936a4.187,4.187,0,0,0,4.187,4.187H27.518a4.187,4.187,0,0,0,4.187-4.187V7.187A4.187,4.187,0,0,0,27.518,3Zm1.4,20.936a1.4,1.4,0,0,1-1.4,1.4H5.187a1.4,1.4,0,0,1-1.4-1.4V7.187a1.4,1.4,0,0,1,1.4-1.4H27.518a1.4,1.4,0,0,1,1.4,1.4Z" transform="translate(-1 -3)" fill="#8dffff"/><path d="M8.4,11A1.4,1.4,0,0,0,7,12.4v5.583a1.4,1.4,0,1,0,2.791,0V12.4A1.4,1.4,0,0,0,8.4,11Z" transform="translate(1.374 0.166)" fill="#8dffff"/><path d="M12.4,9A1.4,1.4,0,0,0,11,10.4V18.77a1.4,1.4,0,1,0,2.791,0V10.4A1.4,1.4,0,0,0,12.4,9Z" transform="translate(2.957 -0.626)" fill="#8dffff"/><path d="M16.4,7A1.4,1.4,0,0,0,15,8.4V19.561a1.4,1.4,0,1,0,2.791,0V8.4A1.4,1.4,0,0,0,16.4,7Z" transform="translate(4.54 -1.417)" fill="#8dffff"/></svg>