<svg xmlns="http://www.w3.org/2000/svg" width="31.135" height="31.123" viewBox="0 0 31.135 31.123"><path d="M6,16.578a5.959,5.959,0,0,0,4.848-2.5,5.784,5.784,0,0,0,9.51.012,5.946,5.946,0,0,0,10.6-4.914L29.139,1.958A2.464,2.464,0,0,0,26.746.094H4.374A2.464,2.464,0,0,0,1.981,1.958L.174,9.137a6.3,6.3,0,0,0,1.359,5.456V28.751a2.461,2.461,0,0,0,2.458,2.465H27.138A2.462,2.462,0,0,0,29.6,28.751V19.569a1.1,1.1,0,0,0-2.195,0v9.183c0,.17-.094.337-.264.337H20.353V20.665a1.086,1.086,0,0,0-1.08-1.086H11.857a1.086,1.086,0,0,0-1.08,1.086v8.423H3.991c-.17,0-.263-.167-.263-.337V16.125A5.7,5.7,0,0,0,6,16.578ZM21.417,2.222h5.329a.321.321,0,0,1,.3.247L28.864,9.7A3.829,3.829,0,0,1,25.2,14.417a3.783,3.783,0,0,1-3.781-3.786Zm-9.443,0h7.315v8.409a3.661,3.661,0,1,1-7.315-.034Zm1,19.551h5.187v7.315H12.971ZM2.266,9.663,4.074,2.47a.322.322,0,0,1,.3-.247H9.779V10.6a3.819,3.819,0,0,1-3.811,3.824,3.858,3.858,0,0,1-3.7-4.758Z" transform="translate(0.001 -0.094)" fill="#db5c1e"/></svg>