<svg xmlns="http://www.w3.org/2000/svg" width="22.947" height="22.947" viewBox="0 0 22.947 22.947"><g transform="translate(0 0)"><path d="M20.225,15.891A9.311,9.311,0,0,0,7.057,2.723a9.13,9.13,0,0,0-1.4,11.238.392.392,0,0,1-.054.467L.852,19.177A2.17,2.17,0,0,0,.52,22.284l.144.144A2.169,2.169,0,0,0,3.77,22.1l4.741-4.741a.4.4,0,0,1,.477-.064A9.13,9.13,0,0,0,20.225,15.891ZM8.776,14.172a6.88,6.88,0,1,1,9.73,0A6.888,6.888,0,0,1,8.776,14.172Z" transform="translate(-0.001 0)" fill="#8dffff"/><g transform="translate(8.409 3.726)"><path d="M114.713,55.437a.961.961,0,0,1-.885-1.336,6.057,6.057,0,0,1,7.929-3.214.961.961,0,1,1-.749,1.77,4.132,4.132,0,0,0-5.41,2.193A.961.961,0,0,1,114.713,55.437Z" transform="translate(-113.752 -50.409)" fill="#8dffff"/></g></g></svg>