<svg xmlns="http://www.w3.org/2000/svg" width="25.123" height="22.61" viewBox="0 0 25.123 22.61"><g transform="translate(0 0)"><path d="M22.1,15.561H7.025A5.039,5.039,0,0,1,2,10.537V8.025A5.039,5.039,0,0,1,7.025,3H22.1a5.039,5.039,0,0,1,5.025,5.025v2.512A5.039,5.039,0,0,1,22.1,15.561ZM7.025,5.512A2.52,2.52,0,0,0,4.512,8.025v2.512a2.52,2.52,0,0,0,2.512,2.512H22.1a2.52,2.52,0,0,0,2.512-2.512V8.025A2.52,2.52,0,0,0,22.1,5.512Z" transform="translate(-2 -3)" fill="#8dffff"/></g><g transform="translate(0 10.049)"><path d="M22.1,23.561H7.025A5.039,5.039,0,0,1,2,18.537V16.025A5.039,5.039,0,0,1,7.025,11H22.1a5.039,5.039,0,0,1,5.025,5.025v2.512A5.039,5.039,0,0,1,22.1,23.561ZM7.025,13.512a2.52,2.52,0,0,0-2.512,2.512v2.512a2.52,2.52,0,0,0,2.512,2.512H22.1a2.52,2.52,0,0,0,2.512-2.512V16.025A2.52,2.52,0,0,0,22.1,13.512Z" transform="translate(-2 -11)" fill="#8dffff"/></g><g transform="translate(5.025 5.025)"><path d="M7.256,9.512A1.187,1.187,0,0,1,6,8.256,1.187,1.187,0,0,1,7.256,7,1.187,1.187,0,0,1,8.512,8.256,1.187,1.187,0,0,1,7.256,9.512Z" transform="translate(-6 -7)" fill="#8dffff"/></g><g transform="translate(5.025 15.074)"><path d="M7.256,17.512a1.256,1.256,0,0,1,0-2.512,1.256,1.256,0,0,1,0,2.512Z" transform="translate(-6 -15)" fill="#8dffff"/></g></svg>