<svg id="Capa_1" enable-background="new 0 0 510 510" height="512" viewBox="0 0 510 510" width="512" xmlns="http://www.w3.org/2000/svg"><g><path d="m315 317.865c0 24.814 20.187 45 45 45h75v-30h-75c-8.271 0-15-6.728-15-15 0-8.271 6.729-15 15-15h60v-30h-30c-8.271 0-15-6.728-15-15 0-8.271 6.729-15 15-15h30v-30h-30c-24.813 0-45 20.187-45 45 0 5.856 1.137 11.449 3.181 16.586-19.096 5.205-33.181 22.69-33.181 43.414z"/><path d="m143 92.865c-33.084 0-60 26.916-60 60v90h30v-45h60v45h30v-90c0-33.084-26.916-60-60-60zm-30 75v-15c0-16.542 13.458-30 30-30s30 13.458 30 30v15z"/><path d="m285 152.865v-120h-285v270h75v54.271l108.541-54.271h41.459v120h101.459l108.541 54.27v-54.271h75v-270h-225zm-108.541 120-71.459 35.729v-35.729h-75v-210h225v210zm303.541 120h-75v35.729l-71.459-35.729h-78.541v-90h30v-120h195z"/></g></svg>