<svg id="Icon" enable-background="new 0 0 96 96" height="512" viewBox="0 0 96 96" width="512" xmlns="http://www.w3.org/2000/svg"><path id="Exclusive" d="m83.844 47.137c1.479-1.71 3.156-3.65 3.156-6.137s-1.677-4.426-3.155-6.136c-.888-1.026-1.805-2.087-2.029-2.926-.243-.911.026-2.335.286-3.713.412-2.181.88-4.652-.323-6.731-1.219-2.106-3.614-2.939-5.728-3.675-1.307-.454-2.658-.925-3.302-1.567-.643-.644-1.113-1.995-1.567-3.302-.735-2.114-1.568-4.509-3.676-5.729-2.079-1.203-4.552-.735-6.731-.323-1.378.26-2.803.528-3.713.285-.839-.224-1.899-1.141-2.925-2.027-1.71-1.479-3.65-3.156-6.137-3.156s-4.426 1.677-6.136 3.155c-1.026.888-2.087 1.805-2.926 2.029-.912.239-2.335-.025-3.713-.286-2.18-.414-4.652-.88-6.731.323-2.106 1.219-2.939 3.614-3.675 5.728-.454 1.307-.925 2.658-1.567 3.302-.644.643-1.995 1.113-3.302 1.567-2.114.735-4.509 1.568-5.729 3.676-1.202 2.078-.735 4.551-.323 6.731.261 1.378.529 2.802.285 3.713-.224.839-1.141 1.899-2.027 2.925-1.479 1.71-3.156 3.65-3.156 6.137s1.677 4.426 3.155 6.136c.888 1.026 1.805 2.087 2.029 2.926.243.911-.026 2.335-.286 3.713-.412 2.181-.88 4.652.323 6.731 1.219 2.106 3.614 2.939 5.728 3.675 1.307.454 2.658.925 3.302 1.567.078.078.153.167.226.265l-7.384 23.385c-.191.608-.083 1.271.294 1.785.377.513.975.817 1.613.817h18c.872 0 1.645-.565 1.907-1.397l4.262-13.496c1.636 1.408 3.49 2.893 5.831 2.893 2.342 0 4.195-1.486 5.831-2.894l4.262 13.496c.262.833 1.034 1.398 1.907 1.398h18c.638 0 1.236-.304 1.613-.817.377-.515.485-1.177.294-1.785l-7.384-23.385c.073-.097.148-.186.225-.264.644-.643 1.995-1.113 3.302-1.567 2.114-.735 4.509-1.568 5.729-3.676 1.202-2.078.735-4.551.323-6.731-.261-1.378-.529-2.802-.285-3.713.223-.839 1.14-1.9 2.027-2.925zm-49.31 40.863h-13.805l5.143-16.286c.596 1.229 1.388 2.35 2.622 3.065 2.079 1.203 4.552.734 6.731.323 1.274-.241 2.569-.471 3.481-.314zm26.932 0-4.172-13.213c.911-.155 2.206.073 3.481.314 2.18.413 4.652.88 6.731-.323 1.235-.714 2.026-1.836 2.622-3.066l5.143 16.288zm19.352-43.479c-1.183 1.367-2.405 2.781-2.866 4.508-.479 1.791-.124 3.671.219 5.488.297 1.57.604 3.194.145 3.986-.475.82-2.053 1.37-3.579 1.9-1.733.603-3.525 1.226-4.816 2.518-1.292 1.291-1.915 3.083-2.518 4.816-.531 1.526-1.08 3.104-1.9 3.579-.792.458-2.416.152-3.984-.145-1.82-.345-3.699-.699-5.489-.221-1.728.462-3.142 1.685-4.509 2.868-1.242 1.074-2.523 2.182-3.521 2.182s-2.28-1.109-3.521-2.182c-1.367-1.183-2.781-2.405-4.508-2.866-.625-.168-1.261-.233-1.9-.233-1.194 0-2.404.229-3.588.452-1.572.297-3.195.603-3.986.145-.82-.475-1.37-2.053-1.9-3.579-.603-1.733-1.226-3.525-2.518-4.816-1.291-1.292-3.083-1.915-4.816-2.518-1.526-.531-3.104-1.08-3.579-1.9-.459-.792-.151-2.415.145-3.984.344-1.818.699-3.698.221-5.489-.462-1.728-1.685-3.142-2.868-4.509-1.074-1.242-2.182-2.523-2.182-3.521s1.109-2.28 2.182-3.521c1.183-1.367 2.405-2.781 2.866-4.508.479-1.791.124-3.671-.219-5.488-.297-1.57-.604-3.194-.145-3.986.475-.82 2.053-1.37 3.579-1.9 1.733-.603 3.525-1.226 4.816-2.518 1.292-1.291 1.915-3.083 2.518-4.816.531-1.526 1.08-3.104 1.9-3.579.79-.459 2.415-.152 3.984.145 1.819.345 3.699.699 5.489.221 1.728-.462 3.142-1.685 4.509-2.868 1.242-1.074 2.523-2.182 3.521-2.182s2.28 1.109 3.521 2.182c1.367 1.183 2.781 2.405 4.508 2.866 1.792.48 3.671.125 5.488-.219 1.57-.298 3.194-.604 3.986-.145.82.475 1.37 2.053 1.9 3.579.603 1.733 1.226 3.525 2.518 4.816 1.291 1.292 3.083 1.915 4.816 2.518 1.526.531 3.104 1.08 3.579 1.9.459.792.151 2.415-.145 3.984-.344 1.818-.699 3.698-.221 5.489.462 1.728 1.685 3.142 2.868 4.509 1.074 1.242 2.182 2.523 2.182 3.521s-1.109 2.28-2.182 3.521zm-32.818-28.521c-13.785 0-25 11.215-25 25s11.215 25 25 25 25-11.215 25-25-11.215-25-25-25zm0 46c-11.579 0-21-9.421-21-21s9.421-21 21-21 21 9.421 21 21-9.421 21-21 21zm12.302-26.811-7.236-1.104-3.255-6.935c-.33-.702-1.036-1.15-1.811-1.15s-1.481.448-1.811 1.15l-3.255 6.935-7.236 1.104c-.741.113-1.356.632-1.595 1.343s-.059 1.495.465 2.031l5.237 5.368-1.755 7.619c-.175.759.106 1.549.72 2.027.614.479 1.449.556 2.142.202l7.088-3.632 7.088 3.633c.288.148.6.22.912.22.437 0 .871-.143 1.229-.422.613-.479.895-1.269.72-2.027l-1.755-7.619 5.237-5.368c.523-.536.703-1.32.465-2.031s-.853-1.23-1.594-1.344zm-7.734 6.731c-.476.487-.67 1.183-.518 1.846l1.035 4.494-4.174-2.14c-.286-.146-.6-.22-.912-.22-.313 0-.626.073-.912.22l-4.174 2.14 1.035-4.494c.152-.663-.042-1.358-.518-1.846l-3.282-3.363 4.444-.679c.659-.102 1.226-.524 1.509-1.128l1.899-4.043 1.897 4.043c.283.604.85 1.026 1.509 1.128l4.444.679z"/></svg>