<svg xmlns="http://www.w3.org/2000/svg" width="36.403" height="41.775" viewBox="0 0 36.403 41.775"><g transform="translate(0)"><g transform="translate(9.859 12.586)"><path d="M153.753,161.454v2.2a.659.659,0,0,0,.658.66h.76a7.04,7.04,0,0,0,.772,1.861l-.538.539a.663.663,0,0,0,0,.932l1.558,1.558a.663.663,0,0,0,.932,0l.538-.539a7.038,7.038,0,0,0,1.861.772v.76a.663.663,0,0,0,.66.66h2.2a.663.663,0,0,0,.66-.66v-.76a7.072,7.072,0,0,0,1.861-.772l.538.539a.663.663,0,0,0,.932,0l1.558-1.558a.663.663,0,0,0,0-.932l-.538-.539a7.037,7.037,0,0,0,.772-1.861h.76a.659.659,0,0,0,.658-.66v-2.2a.661.661,0,0,0-.658-.66h-.76a7.073,7.073,0,0,0-.772-1.861l.538-.539a.663.663,0,0,0,0-.932l-1.558-1.556a.659.659,0,0,0-.932,0l-.538.536a7.071,7.071,0,0,0-1.861-.772v-.76a.661.661,0,0,0-.66-.658h-2.2a.661.661,0,0,0-.66.658v.76a7.041,7.041,0,0,0-1.861.772l-.538-.536a.659.659,0,0,0-.932,0l-1.558,1.556a.663.663,0,0,0,0,.932l.538.539a7.071,7.071,0,0,0-.772,1.861h-.76A.661.661,0,0,0,153.753,161.454Z" transform="translate(-153.753 -154.254)" fill="#099" fill-rule="evenodd"/></g><g transform="translate(14.485 17.898)"><path d="M213.173,225.338a.63.63,0,0,1-.42-.16l-2.1-1.878a.63.63,0,0,1,.84-.94l1.616,1.445,3.57-4.225a.63.63,0,1,1,.963.814l-3.988,4.72a.631.631,0,0,1-.438.222Z" transform="translate(-210.443 -219.357)" fill="#fff"/></g><g transform="translate(0 1.647)"><path d="M36.306,39.43a14.815,14.815,0,0,1,12.959-14.7v2.273a.94.94,0,0,0,1.48.855l3.209-2.355-1.366-3.194L49.264,20.19v1.125A18.21,18.21,0,0,0,32.92,38.8v1.253a18.18,18.18,0,0,0,7.3,13.962c2.535,1.9,4.441-1.215,2-2.745A14.787,14.787,0,0,1,36.306,39.43Z" transform="translate(-32.92 -20.19)" fill="#30cece" fill-rule="evenodd"/></g><g transform="translate(12.908 32.284)"><path d="M196.782,395.842l-3.857,2.831-1.268.932a.885.885,0,0,0,0,1.625l1.248.917.948.7,2.928,2.149a.941.941,0,0,0,1.48-.855V402.39a18.121,18.121,0,0,0,3.341-.658l1.452-2.072-.32-1.989a14.7,14.7,0,0,1-4.472,1.3V396.7A.941.941,0,0,0,196.782,395.842Z" transform="translate(-191.123 -395.671)" fill="#30cece" fill-rule="evenodd"/></g><g transform="translate(16.344 0)"><path d="M233.238,1.648a16.365,16.365,0,0,1,4.689,5.318l.648-.476,1.268-.932a.885.885,0,0,0,0-1.625l-1.248-.915-.365-.269L234.718.173a.94.94,0,0,0-1.48.855Z" transform="translate(-233.238 0)" fill="#30cece" fill-rule="evenodd"/></g><g transform="translate(23.437 5.871)"><path d="M323.793,75.112a14.815,14.815,0,0,1-2.542,25.261,36.98,36.98,0,0,1-1.082,4.046A18.212,18.212,0,0,0,326.1,72.6C323.81,70.68,321.7,73.534,323.793,75.112Z" transform="translate(-320.169 -71.959)" fill="#30cece" fill-rule="evenodd"/></g></g></svg>