<svg xmlns="http://www.w3.org/2000/svg" width="47.53" height="41.725" viewBox="0 0 47.53 41.725"><g transform="translate(0)"><path d="M132.476,137.394V123.836a2.774,2.774,0,0,0-2.774-2.774h-9.848a2.774,2.774,0,0,0-2.774,2.774v13.558h-4.445a1.283,1.283,0,0,0-.91,2.186l10.924,11.006a3,3,0,0,0,4.26,0l10.924-11.006a1.283,1.283,0,0,0-.911-2.186Zm0,0" transform="translate(-101.013 -109.748)" fill="#f8b695"/><path d="M389.376,123.889v-6.2a1.268,1.268,0,0,0-1.268-1.268h-4.5a1.268,1.268,0,0,0-1.268,1.268v6.2H380.3a.586.586,0,0,0-.416,1l4.995,5.033a1.373,1.373,0,0,0,1.948,0l4.995-5.033a.586.586,0,0,0-.416-1Zm0,0" transform="translate(-344.466 -105.538)" fill="#f8b695"/><path d="M2.622,123.889v-6.2a1.268,1.268,0,0,1,1.268-1.268h4.5a1.268,1.268,0,0,1,1.268,1.268v6.2h2.033a.586.586,0,0,1,.416,1l-5,5.033a1.372,1.372,0,0,1-1.948,0L.173,124.889a.586.586,0,0,1,.416-1Zm0,0" transform="translate(-0.001 -105.538)" fill="#f8b695"/><path d="M155.255,11.485A11.485,11.485,0,1,1,143.77,0,11.485,11.485,0,0,1,155.255,11.485Zm0,0" transform="translate(-119.628 0)" fill="#db5c1e"/><path d="M9.743-40.2H3.6V-39h1.01c1.065,0,1.688.36,1.9.982H3.6v.844H6.56c-.138.761-.83,1.273-2.145,1.273H3.6v1.162C4.789-33.46,5.841-32.2,6.768-31.08h1.84C7.5-32.45,6.353-33.82,5.356-34.858a2.714,2.714,0,0,0,2.823-2.311H9.743v-.844H8.179a2.181,2.181,0,0,0-.664-1.342H9.743Z" transform="translate(17.797 46.752)" fill="#fff"/></g></svg>