<svg xmlns="http://www.w3.org/2000/svg" width="36.815" height="41.775" viewBox="0 0 36.815 41.775"><g transform="translate(0)"><g transform="translate(0)"><path d="M48.806,0l2.448,16.959L48.806,28.28,30.4,33.959Z" transform="translate(-30.399)" fill="#3cb4e6"/><g transform="translate(17.183 31.903)"><path d="M241,391h2.448v9.873H241Z" transform="translate(-241 -391)" fill="#95e0ff"/></g><g transform="translate(12.288 31.903)"><path d="M181,391h2.448v7.343H181Z" transform="translate(-181 -391)" fill="#95e0ff"/></g><g transform="translate(22.079 31.903)"><path d="M301,391h2.448v7.343H301Z" transform="translate(-301 -391)" fill="#95e0ff"/></g></g><path d="M256,0V28.28l18.407,5.679Z" transform="translate(-237.593)" fill="#3cb4e6"/></g><g transform="translate(14.273 15.7)"><g transform="translate(0)"><path d="M34.534,0l.55,3.81-.55,2.543L30.4,7.629Z" transform="translate(-30.399)" fill="#fff"/></g><path d="M256,0V6.353l4.135,1.276Z" transform="translate(-251.865)" fill="#fff"/></g></svg>