<svg id="Layer_1_1_" enable-background="new 0 0 64 64" height="512" viewBox="0 0 64 64" width="512" xmlns="http://www.w3.org/2000/svg"><path d="m3 38h3.08c-.047.328-.08.66-.08 1 0 1.997.845 3.797 2.191 5.073-1.02.162-1.966.628-2.715 1.371-.952.944-1.476 2.202-1.476 3.543v12.013c0 .552.448 1 1 1h16c.552 0 1-.448 1-1v-11.378c-.074-2.908-1.833-5.083-4.273-5.474 1.393-1.28 2.273-3.111 2.273-5.148 0-.34-.033-.672-.08-1h3.08c.552 0 1-.448 1-1v-16c0-.364-.197-.698-.515-.875-.319-.177-.707-.167-1.015.026l-6.47 4.045v-3.196c0-.364-.197-.698-.515-.875-.319-.177-.708-.167-1.015.026l-6.47 4.045v-11.196c0-.552-.448-1-1-1h-4c-.552 0-1 .448-1 1v24c0 .552.448 1 1 1zm17 11.647v10.353h-14v-11.013c0-.803.314-1.557.884-2.123.569-.564 1.337-.852 2.122-.864l1.839.015-.835 5.843c-.025.173-.004.351.061.513l2 5c.153.38.52.629.929.629s.776-.249.929-.628l2-5c.065-.163.086-.34.061-.513l-.83-5.808 1.811.015c1.73.013 2.975 1.496 3.029 3.581zm-7.972 2.23.835-5.845.275.002.834 5.843-.972 2.431zm.972-7.877c-2.425 0-4.449-1.736-4.902-4.03.148.01.293.03.442.03 1.622 0 3.2-.582 4.46-1.622 1.26 1.04 2.838 1.622 4.46 1.622.149 0 .294-.02.442-.03-.453 2.294-2.477 4.03-4.902 4.03zm-4.891-6.029c.476-2.264 2.487-3.971 4.891-3.971s4.415 1.707 4.891 3.971c-.143.013-.285.029-.431.029-1.396 0-2.752-.61-3.721-1.673-.379-.416-1.1-.416-1.479 0-.968 1.063-2.324 1.673-3.72 1.673-.146 0-.288-.016-.431-.029zm-4.109-23.971h2v12c0 .364.197.698.515.875.317.176.706.167 1.015-.026l6.47-4.045v3.196c0 .364.197.698.515.875.318.176.706.167 1.015-.026l6.47-4.045v13.196h-2.685c-1.126-2.361-3.53-4-6.315-4s-5.189 1.639-6.315 4h-2.685z"/><path d="m4 10h2c0-1.654 1.346-3 3-3h7v-2h-7c-2.757 0-5 2.243-5 5z"/><path d="m18 5h4v2h-4z"/><path d="m53 22c-4.962 0-9 4.038-9 9s4.038 9 9 9 9-4.038 9-9-4.038-9-9-9zm3 15.315c-.911.435-1.925.685-3 .685s-2.089-.25-3-.685v-2.315c0-.551.449-1 1-1h4c.551 0 1 .449 1 1zm-5-7.315c0-1.103.897-2 2-2s2 .897 2 2-.897 2-2 2-2-.897-2-2zm7 5.89v-.89c0-1.199-.712-2.228-1.731-2.708.457-.651.731-1.438.731-2.292 0-2.206-1.794-4-4-4s-4 1.794-4 4c0 .854.274 1.641.731 2.292-1.019.479-1.731 1.509-1.731 2.708v.89c-1.235-1.263-2-2.988-2-4.89 0-3.86 3.14-7 7-7s7 3.14 7 7c0 1.902-.765 3.627-2 4.89z"/><path d="m62 51c0-4.962-4.038-9-9-9s-9 4.038-9 9 4.038 9 9 9 9-4.038 9-9zm-6 6.315c-.911.435-1.925.685-3 .685s-2.089-.25-3-.685v-2.315c0-.551.449-1 1-1h4c.551 0 1 .449 1 1zm-5-7.315c0-1.103.897-2 2-2s2 .897 2 2-.897 2-2 2-2-.897-2-2zm5.269 2.292c.457-.651.731-1.438.731-2.292 0-2.206-1.794-4-4-4s-4 1.794-4 4c0 .854.274 1.641.731 2.292-1.019.479-1.731 1.509-1.731 2.708v.89c-1.235-1.263-2-2.988-2-4.89 0-3.86 3.14-7 7-7s7 3.14 7 7c0 1.902-.765 3.627-2 4.89v-.89c0-1.199-.712-2.228-1.731-2.708z"/><path d="m53 2c-4.962 0-9 4.038-9 9s4.038 9 9 9 9-4.038 9-9-4.038-9-9-9zm3 15.315c-.911.435-1.925.685-3 .685s-2.089-.25-3-.685v-2.315c0-.551.449-1 1-1h4c.551 0 1 .449 1 1zm-5-7.315c0-1.103.897-2 2-2s2 .897 2 2-.897 2-2 2-2-.897-2-2zm7 5.89v-.89c0-1.199-.712-2.228-1.731-2.708.457-.651.731-1.438.731-2.292 0-2.206-1.794-4-4-4s-4 1.794-4 4c0 .854.274 1.641.731 2.292-1.019.479-1.731 1.509-1.731 2.708v.89c-1.235-1.263-2-2.988-2-4.89 0-3.86 3.14-7 7-7s7 3.14 7 7c0 1.902-.765 3.627-2 4.89z"/><path d="m27 55v6c0 .552.448 1 1 1h6c.552 0 1-.448 1-1v-6c0-.552-.448-1-1-1h-6c-.552 0-1 .448-1 1zm2 1h4v4h-4z"/><path d="m30 13v34h1 1 6.586l-1.293 1.293 1.414 1.414 3-3c.391-.391.391-1.023 0-1.414l-3-3-1.414 1.414 1.293 1.293h-6.586v-15h6.586l-1.293 1.293 1.414 1.414 3-3c.391-.391.391-1.023 0-1.414l-3-3-1.414 1.414 1.293 1.293h-6.586v-14h6.586l-1.293 1.293 1.414 1.414 3-3c.391-.391.391-1.023 0-1.414l-3-3-1.414 1.414 1.293 1.293h-7.586c-.552 0-1 .448-1 1z"/><path d="m30 49h2v3h-2z"/></svg>