<?xml version="1.0" standalone="no"?><!DOCTYPE svg PUBLIC "-//W3C//DTD SVG 1.1//EN" "http://www.w3.org/Graphics/SVG/1.1/DTD/svg11.dtd"><svg xmlns="http://www.w3.org/2000/svg" version="1.1" width="644px" height="225.8px" viewBox="0 -13 644 225.8" style="top:-13px"><desc>Consult with your Cygnet TaxTech Architect to unlock business value</desc><defs/><g id="Polygon9791"><path d="m43 149.8l0 7.7l6.4 0l0 5l-6.4 0c0 0-.01 11.85 0 11.9c0 3.2.9 4.9 3.5 4.9c1.1 0 2-.2 2.6-.3c0 0 .1 5.1.1 5.1c-1 .4-2.7.7-4.9.7c-2.5 0-4.6-.8-5.8-2.2c-1.5-1.5-2.1-4-2.1-7.5c-.01.02 0-12.6 0-12.6l-3.9 0l0-5l3.9 0l0-6.1l6.6-1.6zm36.7 20.8c0 9.9-7 14.3-13.8 14.3c-7.6 0-13.4-5.3-13.4-13.8c0-8.8 5.8-14.2 13.9-14.2c7.9 0 13.3 5.6 13.3 13.7zm-20.2.3c0 5.2 2.5 9.1 6.6 9.1c3.9 0 6.6-3.8 6.6-9.2c0-4.2-1.9-9-6.5-9c-4.8 0-6.7 4.6-6.7 9.1zm61.1 5.3c0 3.2.1 5.8.2 8.1c.01-.05-5.9 0-5.9 0l-.4-4.1c0 0-.07-.02-.1 0c-1.1 1.9-3.8 4.7-8.5 4.7c-4.9 0-9.4-3-9.4-11.7c0-.01 0-15.7 0-15.7l6.8 0c0 0-.03 14.54 0 14.5c0 4.5 1.4 7.4 5 7.4c2.7 0 4.4-2 5.1-3.7c.3-.6.4-1.3.4-2.1c.03.04 0-16.1 0-16.1l6.8 0c0 0-.01 18.72 0 18.7zm7.3-10.8c0-3 0-5.6-.2-7.9c-.01-.03 5.9 0 5.9 0l.4 4c0 0 .12-.02.1 0c1.2-2.1 4.1-4.6 8.5-4.6c4.7 0 9.6 3 9.6 11.5c-.04-.04 0 15.9 0 15.9l-6.8 0c0 0 0-15.17 0-15.2c0-3.8-1.4-6.7-5.1-6.7c-2.7 0-4.6 1.9-5.3 3.9c-.2.6-.3 1.5-.3 2.2c.03.02 0 15.8 0 15.8l-6.8 0c0 0 .01-18.86 0-18.9zm31.5-20.2l6.8 0l0 39.1l-6.8 0l0-39.1zm39.6 25.4c0 9.9-7 14.3-13.8 14.3c-7.6 0-13.4-5.3-13.4-13.8c0-8.8 5.8-14.2 13.9-14.2c7.9 0 13.3 5.6 13.3 13.7zm-20.2.3c0 5.2 2.5 9.1 6.6 9.1c3.9 0 6.6-3.8 6.6-9.2c0-4.2-1.9-9-6.5-9c-4.8 0-6.7 4.6-6.7 9.1zm45.4 12.5c-1.4.7-4.2 1.4-7.6 1.4c-8.3 0-13.8-5.3-13.8-13.6c0-8.1 5.5-14.3 14.9-14.3c2.5 0 5 .5 6.6 1.2c0 0-1.2 5.1-1.2 5.1c-1.1-.5-2.7-1.1-5.2-1.1c-5.1 0-8.2 3.8-8.2 8.7c0 5.5 3.6 8.7 8.2 8.7c2.4 0 4.1-.5 5.4-1.1c0 0 .9 5 .9 5zm11.8-14.2c0 0 .09.03.1 0c.6-1 1.4-2.2 2.1-3.1c.03 0 6.5-8.6 6.5-8.6l8.2 0l-9.9 10.9l11.3 15.9l-8.3 0l-7.7-11.9l-2.3 2.7l0 9.2l-6.8 0l0-39.1l6.8 0l0 24zm32.4 15.1c.1-1.9.2-4.8.2-7.6c-.01.02 0-31.5 0-31.5l6.8 0l0 15.9c0 0 .07.05.1 0c1.6-2.5 4.5-4.2 8.5-4.2c6.6 0 11.3 5.4 11.2 13.5c0 9.7-6.1 14.5-12.1 14.5c-3.5 0-6.6-1.4-8.5-4.7c-.01.04-.1 0-.1 0l-.4 4.1c0 0-5.73-.05-5.7 0zm7-11.1c0 .5 0 1.1.1 1.6c.7 2.7 3.1 4.7 6 4.7c4.3 0 6.8-3.4 6.8-8.8c0-4.7-2.2-8.6-6.7-8.6c-2.8 0-5.3 2-6 5c-.1.5-.2 1.1-.2 1.8c0 0 0 4.3 0 4.3zm49.3 3c0 3.2.2 5.8.3 8.1c-.03-.05-6 0-6 0l-.3-4.1c0 0-.11-.02-.1 0c-1.2 1.9-3.8 4.7-8.6 4.7c-4.9 0-9.3-3-9.3-11.7c-.04-.01 0-15.7 0-15.7l6.7 0c0 0 .02 14.54 0 14.5c0 4.5 1.5 7.4 5 7.4c2.7 0 4.5-2 5.2-3.7c.2-.6.4-1.3.4-2.1c-.02.04 0-16.1 0-16.1l6.7 0c0 0 .05 18.72 0 18.7zm7 1.8c1.6 1 4.5 2 6.9 2c3 0 4.3-1.2 4.3-3c0-1.8-1.1-2.8-4.4-3.9c-5.2-1.8-7.4-4.7-7.4-7.8c0-4.8 3.9-8.4 10.1-8.4c3 0 5.6.7 7.1 1.6c0 0-1.3 4.7-1.3 4.7c-1.1-.6-3.3-1.5-5.6-1.5c-2.5 0-3.8 1.2-3.8 2.8c0 1.7 1.3 2.5 4.7 3.7c4.8 1.8 7.1 4.3 7.1 8.2c0 4.9-3.8 8.4-10.8 8.4c-3.3 0-6.2-.8-8.2-1.9c0 0 1.3-4.9 1.3-4.9zm23.3 6.3l0-26.8l6.8 0l0 26.8l-6.8 0zm7.2-34.3c0 2-1.5 3.6-3.8 3.6c-2.3 0-3.8-1.6-3.8-3.6c0-2.1 1.6-3.7 3.8-3.7c2.3 0 3.7 1.6 3.8 3.7zm6.9 15.4c0-3-.1-5.6-.2-7.9c-.04-.03 5.9 0 5.9 0l.3 4c0 0 .19-.02.2 0c1.1-2.1 4.1-4.6 8.5-4.6c4.7 0 9.5 3 9.5 11.5c.03-.04 0 15.9 0 15.9l-6.7 0c0 0-.03-15.17 0-15.2c0-3.8-1.5-6.7-5.1-6.7c-2.7 0-4.6 1.9-5.3 3.9c-.2.6-.3 1.5-.3 2.2c0 .02 0 15.8 0 15.8l-6.8 0c0 0-.02-18.86 0-18.9zm36.2 7.4c.2 4.8 4 6.9 8.3 6.9c3.1 0 5.4-.5 7.4-1.2c0 0 1 4.6 1 4.6c-2.3 1-5.5 1.7-9.4 1.7c-8.7 0-13.8-5.3-13.8-13.5c0-7.5 4.5-14.4 13.1-14.4c8.7 0 11.6 7.1 11.6 13c0 1.3-.1 2.2-.2 2.9c0 0-18 0-18 0zm11.8-4.8c0-2.5-1.1-6.5-5.6-6.5c-4.1 0-5.9 3.8-6.2 6.5c0 0 11.8 0 11.8 0zm11.5 10c1.5 1 4.4 2 6.9 2c2.9 0 4.3-1.2 4.3-3c0-1.8-1.1-2.8-4.4-3.9c-5.3-1.8-7.5-4.7-7.4-7.8c0-4.8 3.9-8.4 10.1-8.4c3 0 5.6.7 7.1 1.6c0 0-1.3 4.7-1.3 4.7c-1.2-.6-3.3-1.5-5.7-1.5c-2.4 0-3.7 1.2-3.7 2.8c0 1.7 1.2 2.5 4.6 3.7c4.9 1.8 7.1 4.3 7.2 8.2c0 4.9-3.8 8.4-10.9 8.4c-3.2 0-6.2-.8-8.1-1.9c0 0 1.3-4.9 1.3-4.9zm22.9 0c1.6 1 4.5 2 6.9 2c3 0 4.3-1.2 4.3-3c0-1.8-1.1-2.8-4.4-3.9c-5.2-1.8-7.4-4.7-7.4-7.8c0-4.8 3.9-8.4 10.1-8.4c3 0 5.6.7 7.1 1.6c0 0-1.3 4.7-1.3 4.7c-1.1-.6-3.3-1.5-5.7-1.5c-2.4 0-3.7 1.2-3.7 2.8c0 1.7 1.3 2.5 4.7 3.7c4.8 1.8 7.1 4.3 7.1 8.2c0 4.9-3.8 8.4-10.9 8.4c-3.2 0-6.1-.8-8.1-1.9c0 0 1.3-4.9 1.3-4.9zm39-20.5c0 0 4.3 13.55 4.3 13.6c.8 2.3 1.3 4.5 1.8 6.7c0 0 .2 0 .2 0c.5-2.2 1.1-4.3 1.8-6.7c0-.05 4.2-13.6 4.2-13.6l7.2 0l-10.2 26.8l-6.7 0l-10-26.8l7.4 0zm38.3 26.8l-.4-3c0 0-.16-.02-.2 0c-1.6 2.1-4.4 3.6-7.9 3.6c-5.4 0-8.4-3.9-8.4-8c0-6.8 6-10.2 15.9-10.1c0 0 0-.5 0-.5c0-1.7-.7-4.7-5.4-4.7c-2.7 0-5.4.9-7.2 2c0 0-1.4-4.4-1.4-4.4c2-1.2 5.5-2.3 9.7-2.3c8.6 0 11.1 5.4 11.1 11.2c0 0 0 9.7 0 9.7c0 2.4.1 4.8.4 6.5c-.05-.05-6.2 0-6.2 0zm-.8-13.1c-4.8-.1-9.4.9-9.4 5c0 2.6 1.7 3.8 3.9 3.8c2.7 0 4.6-1.7 5.2-3.7c.2-.5.3-1 .3-1.5c0 0 0-3.6 0-3.6zm13.7-26l6.8 0l0 39.1l-6.8 0l0-39.1zm38.1 31c0 3.2.1 5.8.3 8.1c-.05-.05-6 0-6 0l-.3-4.1c0 0-.13-.02-.1 0c-1.2 1.9-3.8 4.7-8.6 4.7c-4.9 0-9.4-3-9.4-11.7c.04-.01 0-15.7 0-15.7l6.8 0c0 0 .01 14.54 0 14.5c0 4.5 1.4 7.4 5 7.4c2.7 0 4.5-2 5.2-3.7c.2-.6.4-1.3.4-2.1c-.03.04 0-16.1 0-16.1l6.7 0c0 0 .03 18.72 0 18.7zm12.1-3.4c.2 4.8 4 6.9 8.3 6.9c3.1 0 5.4-.5 7.4-1.2c0 0 1 4.6 1 4.6c-2.3 1-5.5 1.7-9.4 1.7c-8.6 0-13.8-5.3-13.8-13.5c0-7.5 4.6-14.4 13.1-14.4c8.7 0 11.6 7.1 11.6 13c0 1.3-.1 2.2-.2 2.9c0 0-18 0-18 0zm11.8-4.8c.1-2.5-1-6.5-5.6-6.5c-4.1 0-5.9 3.8-6.2 6.5c0 0 11.8 0 11.8 0z" stroke="none" fill="#fff"/></g><g id="Polygon9790"><path d="m47.6 111.7c-1.5.8-5 1.6-9.5 1.6c-12.8 0-19.4-8-19.4-18.5c0-12.7 9-19.7 20.2-19.7c4.4 0 7.7.9 9.1 1.6c0 0-1.7 6.7-1.7 6.7c-1.7-.7-4-1.4-7-1.4c-6.7 0-11.8 4-11.8 12.3c0 7.4 4.4 12.1 11.9 12.1c2.5 0 5.3-.6 6.9-1.2c0 0 1.3 6.5 1.3 6.5zm9.7-25.8c0 0 4 13.16 4 13.2c.4 1.5 1 3.5 1.3 5c0 0 .2 0 .2 0c.4-1.5.8-3.5 1.2-5c0-.04 3.3-13.2 3.3-13.2l9 0c0 0-6.31 17.66-6.3 17.7c-3.9 10.6-6.4 14.9-9.5 17.6c-2.9 2.6-6 3.4-8.1 3.7c0 0-1.7-7.1-1.7-7.1c1-.2 2.4-.6 3.6-1.4c1.3-.7 2.7-2 3.5-3.4c.3-.4.4-.8.4-1.2c0-.3 0-.7-.4-1.4c.04.04-9.8-24.5-9.8-24.5l9.3 0zm47.4 0c-.1 1.7-.2 3.9-.2 7.9c0 0 0 15 0 15c0 5.2-1.1 9.5-4.1 12.1c-3 2.6-7 3.3-10.9 3.3c-3.6 0-7.3-.7-9.7-2c0 0 1.6-6.4 1.6-6.4c1.7 1 4.7 2.1 7.8 2.1c4 0 7-2.2 7-7.1c.03-.03 0-1.8 0-1.8c0 0-.08.01-.1 0c-1.6 2.3-4.2 3.5-7.2 3.5c-6.7 0-11.4-5.4-11.4-13.1c0-8.6 5.6-14.1 12.2-14.1c3.7 0 6 1.5 7.4 3.7c-.05.05.1 0 .1 0l.2-3.1c0 0 7.3-.05 7.3 0zm-8.6 10.9c0-.5 0-1.1-.1-1.5c-.7-2.2-2.2-3.7-4.6-3.7c-3 0-5.5 2.7-5.5 7.6c0 4 2 7.2 5.5 7.2c2.2 0 3.9-1.5 4.4-3.4c.3-.6.3-1.5.3-2.2c0 0 0-4 0-4zm15.1-2.4c0-3.3-.1-6.2-.2-8.5c-.04-.05 7.2 0 7.2 0l.4 3.6c0 0 .17.04.2 0c1.1-1.7 3.8-4.2 8.3-4.2c5.5 0 9.6 3.6 9.6 11.5c0 0 0 16 0 16l-8.4 0c0 0 .04-14.95 0-15c0-3.4-1.2-5.8-4.2-5.8c-2.3 0-3.7 1.6-4.2 3.1c-.2.5-.4 1.4-.4 2.1c.04.04 0 15.6 0 15.6l-8.3 0c0 0-.02-18.37 0-18.4zm38.6 7.6c.3 3.4 3.7 5.1 7.6 5.1c2.9 0 5.2-.4 7.5-1.1c0 0 1.1 5.6 1.1 5.6c-2.8 1.2-6.1 1.7-9.8 1.7c-9.1 0-14.3-5.3-14.3-13.7c0-6.8 4.2-14.3 13.6-14.3c8.6 0 11.9 6.7 11.9 13.4c0 1.4-.1 2.7-.2 3.3c0 0-17.4 0-17.4 0zm9.9-5.7c0-2.1-.9-5.5-4.7-5.5c-3.6 0-5 3.2-5.2 5.5c0 0 9.9 0 9.9 0zm22.1-18.1l0 7.7l6 0l0 6.1l-6 0c0 0 0 9.75 0 9.8c0 3.2.8 4.7 3.3 4.7c1 0 1.9-.1 2.5-.2c0 0 0 6.3 0 6.3c-1.1.4-3 .7-5.4.7c-2.7 0-5-.9-6.3-2.3c-1.5-1.6-2.3-4.2-2.3-8c.01.02 0-11 0-11l-3.6 0l0-6.1l3.6 0l0-5.9l8.2-1.8zm27.2 4.5l-9.9 0l0-7l28.5 0l0 7l-10.2 0l0 30.1l-8.4 0l0-30.1zm34.4 30.1l-.5-2.7c0 0-.16-.04-.2 0c-1.7 2.1-4.5 3.3-7.7 3.3c-5.4 0-8.6-4-8.6-8.3c0-7 6.2-10.3 15.7-10.3c0 0 0-.4 0-.4c0-1.4-.7-3.4-4.9-3.4c-2.7 0-5.6.9-7.4 2c0 0-1.5-5.4-1.5-5.4c1.8-1 5.5-2.3 10.4-2.3c9 0 11.9 5.2 11.9 11.6c0 0 0 9.3 0 9.3c0 2.6.1 5.1.3 6.6c.04-.05-7.5 0-7.5 0zm-1-12.8c-4.4 0-7.8 1-7.8 4.3c0 2.1 1.4 3.2 3.3 3.2c2.1 0 3.8-1.4 4.3-3.1c.2-.5.2-.9.2-1.4c0 0 0-3 0-3zm21.1-14.1c0 0 2.67 4.41 2.7 4.4c.7 1.4 1.5 2.8 2.2 4c0 0 .1 0 .1 0c.7-1.4 1.4-2.8 2.1-4.1c-.03 0 2.3-4.3 2.3-4.3l9.1 0l-8.8 12.8l8.9 14.1l-9.4 0c0 0-2.73-4.89-2.7-4.9c-.8-1.3-1.5-2.7-2.1-4.1c0 0-.2 0-.2 0c-.6 1.5-1.4 2.8-2 4.1c-.02.01-2.6 4.9-2.6 4.9l-9.1 0l9.1-13.7l-8.9-13.2l9.3 0zm28-3.2l-9.9 0l0-7l28.5 0l0 7l-10.2 0l0 30.1l-8.4 0l0-30.1zm24.7 19.3c.3 3.4 3.7 5.1 7.6 5.1c2.9 0 5.2-.4 7.4-1.1c0 0 1.1 5.6 1.1 5.6c-2.7 1.2-6.1 1.7-9.7 1.7c-9.1 0-14.4-5.3-14.4-13.7c0-6.8 4.3-14.3 13.6-14.3c8.7 0 12 6.7 12 13.4c0 1.4-.1 2.7-.3 3.3c0 0-17.3 0-17.3 0zm9.9-5.7c0-2.1-.9-5.5-4.8-5.5c-3.5 0-4.9 3.2-5.1 5.5c0 0 9.9 0 9.9 0zm32.9 15.8c-1.5.7-4.3 1.2-7.5 1.2c-8.7 0-14.2-5.3-14.2-13.7c0-7.9 5.4-14.3 15.4-14.3c2.2 0 4.6.3 6.4 1c0 0-1.4 6.2-1.4 6.2c-.9-.4-2.4-.8-4.6-.8c-4.4 0-7.3 3.1-7.2 7.5c0 5 3.3 7.6 7.3 7.6c2 0 3.6-.4 4.8-.9c0 0 1 6.2 1 6.2zm4.6-38.4l8.4 0l0 15.3c0 0 .1.05.1 0c.9-1.1 2-2 3.3-2.7c1.2-.7 2.8-1 4.3-1c5.4 0 9.5 3.6 9.5 11.7c-.05.02 0 15.8 0 15.8l-8.4 0c0 0-.01-14.85 0-14.8c0-3.6-1.2-6-4.4-6c-2.2 0-3.5 1.4-4.1 2.9c-.3.6-.3 1.3-.3 1.9c-.01 0 0 16 0 16l-8.4 0l0-39.1zm52.3 29.5l-2.7 9.6l-8.6 0l11.3-37.1l11 0l11.5 37.1l-9 0l-2.9-9.6l-10.6 0zm9.4-6.2c0 0-2.32-7.9-2.3-7.9c-.7-2.2-1.3-5-1.9-7.1c0 0-.1 0-.1 0c-.6 2.1-1.1 5-1.7 7.1c-.01 0-2.2 7.9-2.2 7.9l8.2 0zm17.4-2.3c0-3.9-.1-6.5-.2-8.8c0-.05 7.2 0 7.2 0l.3 4.9c0 0 .2.01.2 0c1.4-3.9 4.7-5.5 7.3-5.5c.7 0 1.1 0 1.7.1c0 0 0 7.8 0 7.8c-.6-.1-1.3-.2-2.2-.2c-3.1 0-5.2 1.7-5.8 4.2c-.1.6-.1 1.2-.1 1.9c-.02.01 0 13.7 0 13.7l-8.4 0c0 0 .02-18.09 0-18.1zm40.7 17.4c-1.5.7-4.3 1.2-7.5 1.2c-8.7 0-14.3-5.3-14.3-13.7c0-7.9 5.4-14.3 15.4-14.3c2.2 0 4.7.3 6.4 1c0 0-1.3 6.2-1.3 6.2c-1-.4-2.5-.8-4.7-.8c-4.4 0-7.2 3.1-7.2 7.5c0 5 3.3 7.6 7.4 7.6c2 0 3.5-.4 4.8-.9c0 0 1 6.2 1 6.2zm4.6-38.4l8.3 0l0 15.3c0 0 .16.05.2 0c.8-1.1 1.9-2 3.3-2.7c1.2-.7 2.8-1 4.3-1c5.3 0 9.4 3.6 9.4 11.7c.01.02 0 15.8 0 15.8l-8.4 0c0 0 .05-14.85 0-14.8c0-3.6-1.2-6-4.3-6c-2.2 0-3.6 1.4-4.2 2.9c-.2.6-.3 1.3-.3 1.9c.05 0 0 16 0 16l-8.3 0l0-39.1zm32.2 39.1l0-26.9l8.4 0l0 26.9l-8.4 0zm8.7-34.4c0 2.3-1.8 4.2-4.6 4.2c-2.6 0-4.4-1.9-4.3-4.2c-.1-2.4 1.7-4.3 4.4-4.3c2.7 0 4.4 1.9 4.5 4.3zm15.7-.2l0 7.7l6 0l0 6.1l-6 0c0 0 .04 9.75 0 9.8c0 3.2.8 4.7 3.3 4.7c1.1 0 1.9-.1 2.5-.2c0 0 .1 6.3.1 6.3c-1.1.4-3.1.7-5.5.7c-2.7 0-4.9-.9-6.2-2.3c-1.6-1.6-2.4-4.2-2.4-8c.04.02 0-11 0-11l-3.5 0l0-6.1l3.5 0l0-5.9l8.2-1.8zm17 23.8c.3 3.4 3.7 5.1 7.6 5.1c2.9 0 5.2-.4 7.4-1.1c0 0 1.1 5.6 1.1 5.6c-2.7 1.2-6.1 1.7-9.7 1.7c-9.1 0-14.3-5.3-14.3-13.7c0-6.8 4.2-14.3 13.5-14.3c8.7 0 12 6.7 12 13.4c0 1.4-.1 2.7-.2 3.3c0 0-17.4 0-17.4 0zm9.9-5.7c0-2.1-.9-5.5-4.8-5.5c-3.5 0-4.9 3.2-5.1 5.5c0 0 9.9 0 9.9 0zm32.9 15.8c-1.5.7-4.3 1.2-7.5 1.2c-8.6 0-14.2-5.3-14.2-13.7c0-7.9 5.4-14.3 15.4-14.3c2.2 0 4.6.3 6.4 1c0 0-1.3 6.2-1.3 6.2c-1-.4-2.5-.8-4.7-.8c-4.4 0-7.3 3.1-7.2 7.5c0 5 3.3 7.6 7.3 7.6c2 0 3.6-.4 4.8-.9c0 0 1 6.2 1 6.2zm14.9-33.9l0 7.7l6 0l0 6.1l-6 0c0 0-.03 9.75 0 9.8c0 3.2.7 4.7 3.3 4.7c1 0 1.8-.1 2.4-.2c0 0 .1 6.3.1 6.3c-1.1.4-3.1.7-5.4.7c-2.7 0-5-.9-6.3-2.3c-1.6-1.6-2.3-4.2-2.3-8c-.02.02 0-11 0-11l-3.6 0l0-6.1l3.6 0l0-5.9l8.2-1.8z" stroke="none" fill="#fff"/></g><g id="Polygon9789"><path d="m142.7 40.1c-1.6.9-5.1 1.7-9.6 1.7c-11.8 0-18.9-7.4-18.9-18.6c0-12.3 8.5-19.6 19.8-19.6c4.4 0 7.6.9 9 1.6c0 0-1.5 5.4-1.5 5.4c-1.7-.8-4.2-1.4-7.2-1.4c-7.6 0-13 4.7-13 13.6c0 8.2 4.8 13.4 12.9 13.4c2.8 0 5.6-.6 7.4-1.4c0 0 1.1 5.3 1.1 5.3zm30.1-12.5c0 9.9-7 14.3-13.8 14.3c-7.6 0-13.4-5.3-13.4-13.8c0-8.8 5.8-14.2 13.8-14.2c8 0 13.4 5.6 13.4 13.7zm-20.2.3c0 5.2 2.5 9.1 6.6 9.1c3.9 0 6.6-3.8 6.6-9.2c0-4.2-1.9-9-6.5-9c-4.8 0-6.7 4.6-6.7 9.1zm25.7-5.5c0-3 0-5.6-.2-7.9c-.01-.03 5.9 0 5.9 0l.4 4c0 0 .13-.02.1 0c1.2-2.1 4.1-4.6 8.6-4.6c4.6 0 9.5 3 9.5 11.5c-.03-.04 0 15.9 0 15.9l-6.8 0c0 0 0-15.17 0-15.2c0-3.8-1.4-6.7-5.1-6.7c-2.7 0-4.6 1.9-5.3 3.9c-.2.6-.3 1.5-.3 2.2c.03.02 0 15.8 0 15.8l-6.8 0c0 0 .01-18.86 0-18.9zm31.1 12.6c1.6 1 4.5 2 6.9 2c3 0 4.3-1.2 4.3-3c0-1.8-1.1-2.8-4.4-3.9c-5.2-1.8-7.4-4.7-7.4-7.8c0-4.8 3.9-8.4 10.2-8.4c2.9 0 5.5.7 7.1 1.6c0 0-1.4 4.7-1.4 4.7c-1.1-.6-3.3-1.5-5.6-1.5c-2.5 0-3.8 1.2-3.8 2.8c0 1.7 1.3 2.5 4.7 3.7c4.8 1.8 7.1 4.3 7.2 8.2c0 4.9-3.8 8.4-10.9 8.4c-3.3 0-6.2-.8-8.2-1.9c0 0 1.3-4.9 1.3-4.9zm47.3-1.8c0 3.2.1 5.8.2 8.1c.01-.05-5.9 0-5.9 0l-.4-4.1c0 0-.07-.02-.1 0c-1.1 1.9-3.8 4.7-8.6 4.7c-4.8 0-9.3-3-9.3-11.7c0-.01 0-15.7 0-15.7l6.8 0c0 0-.04 14.54 0 14.5c0 4.5 1.4 7.4 5 7.4c2.7 0 4.4-2 5.1-3.7c.3-.6.4-1.3.4-2.1c.02.04 0-16.1 0-16.1l6.8 0c0 0-.01 18.72 0 18.7zm7.3-31l6.8 0l0 39.1l-6.8 0l0-39.1zm21.9 4.6l0 7.7l6.4 0l0 5l-6.4 0c0 0-.01 11.85 0 11.9c0 3.2.9 4.9 3.5 4.9c1.1 0 2-.2 2.6-.3c0 0 .1 5.1.1 5.1c-1 .4-2.7.7-4.9.7c-2.5 0-4.6-.8-5.8-2.2c-1.4-1.5-2.1-4-2.1-7.5c-.01.02 0-12.6 0-12.6l-3.9 0l0-5l3.9 0l0-6.1l6.6-1.6zm27 7.7c0 0 2.8 12.12 2.8 12.1c.6 2.9 1.2 5.8 1.7 8.7c0 0 .1 0 .1 0c.6-2.9 1.4-5.9 2.2-8.6c.01-.02 3.5-12.2 3.5-12.2l5.5 0c0 0 3.33 11.85 3.3 11.8c.9 3.2 1.6 6.1 2.2 9c0 0 .1 0 .1 0c.4-2.9 1-5.8 1.7-9c.05.05 3-11.8 3-11.8l6.7 0l-8.4 26.8l-6.3 0c0 0-3.2-10.94-3.2-10.9c-.8-2.8-1.4-5.4-2-8.6c0 0-.1 0-.1 0c-.6 3.3-1.3 5.9-2.1 8.6c.02-.04-3.4 10.9-3.4 10.9l-6.3 0l-7.9-26.8l6.9 0zm37.1 26.8l0-26.8l6.8 0l0 26.8l-6.8 0zm7.2-34.3c0 2-1.5 3.6-3.8 3.6c-2.3 0-3.8-1.6-3.8-3.6c0-2.1 1.6-3.7 3.8-3.7c2.3 0 3.8 1.6 3.8 3.7zm14.7-.2l0 7.7l6.4 0l0 5l-6.4 0c0 0-.05 11.85 0 11.9c0 3.2.8 4.9 3.4 4.9c1.2 0 2.1-.2 2.7-.3c0 0 .1 5.1.1 5.1c-1 .4-2.8.7-4.9.7c-2.5 0-4.6-.8-5.9-2.2c-1.4-1.5-2-4-2-7.5c-.05.02 0-12.6 0-12.6l-3.9 0l0-5l3.9 0l0-6.1l6.6-1.6zm11.5-4.6l6.8 0l0 15.9c0 0 .13.05.1 0c.9-1.2 2-2.3 3.4-3c1.3-.8 2.9-1.2 4.6-1.2c4.6 0 9.4 3 9.4 11.6c-.04-.03 0 15.8 0 15.8l-6.8 0c0 0-.01-15.07 0-15.1c0-3.9-1.4-6.8-5.2-6.8c-2.6 0-4.5 1.8-5.2 3.8c-.2.6-.3 1.3-.3 2c.02.05 0 16.1 0 16.1l-6.8 0l0-39.1zm47.1 12.3c0 0 4.82 14.32 4.8 14.3c.6 1.7 1.1 3.7 1.5 5.2c0 0 .2 0 .2 0c.4-1.5.9-3.5 1.4-5.2c0-.03 4.2-14.3 4.2-14.3l7.2 0c0 0-6.67 18.23-6.7 18.2c-3.7 10-6.1 14.5-9.3 17.2c-2.7 2.4-5.4 3.3-7.1 3.5c0 0-1.6-5.7-1.6-5.7c1.2-.3 2.6-.9 4-1.9c1.3-.8 2.8-2.4 3.7-4.2c.3-.5.4-.9.4-1.2c0-.3 0-.7-.4-1.4c.05.05-9.7-24.5-9.7-24.5l7.4 0zm48 13.1c0 9.9-6.9 14.3-13.8 14.3c-7.5 0-13.4-5.3-13.4-13.8c0-8.8 5.8-14.2 13.9-14.2c8 0 13.3 5.6 13.3 13.7zm-20.2.3c0 5.2 2.5 9.1 6.7 9.1c3.8 0 6.5-3.8 6.5-9.2c0-4.2-1.9-9-6.5-9c-4.8 0-6.7 4.6-6.7 9.1zm49.7 5.3c0 3.2.1 5.8.3 8.1c-.05-.05-6 0-6 0l-.3-4.1c0 0-.13-.02-.1 0c-1.2 1.9-3.8 4.7-8.6 4.7c-4.9 0-9.4-3-9.4-11.7c.04-.01 0-15.7 0-15.7l6.8 0c0 0 .01 14.54 0 14.5c0 4.5 1.4 7.4 5 7.4c2.7 0 4.5-2 5.2-3.7c.2-.6.4-1.3.4-2.1c-.03.04 0-16.1 0-16.1l6.7 0c0 0 .03 18.72 0 18.7zm7.3-10.1c0-3.6 0-6.2-.2-8.6c.03-.03 5.9 0 5.9 0l.2 5.1c0 0 .25-.02.3 0c1.3-3.8 4.4-5.7 7.3-5.7c.6 0 1 0 1.6.1c0 0 0 6.4 0 6.4c-.6-.1-1.2-.2-2-.2c-3.3 0-5.5 2.1-6.1 5.1c-.1.6-.2 1.3-.2 2.1c.01-.01 0 13.9 0 13.9l-6.8 0c0 0 .05-18.2 0-18.2z" stroke="none" fill="#fff"/></g></svg>