<?xml version="1.0" standalone="no"?><!DOCTYPE svg PUBLIC "-//W3C//DTD SVG 1.1//EN" "http://www.w3.org/Graphics/SVG/1.1/DTD/svg11.dtd"><svg xmlns="http://www.w3.org/2000/svg" version="1.1" width="479px" height="302px" viewBox="0 -9 479 302" style="top:-9px"><desc>Based on our study, we estimate the efficient management of ITC can result in saving in cost of financing to the exte...</desc><defs/><g id="Polygon5731"><path d="m13.4 275.4c-.8.4-2.4.9-4.5.9c-4.6 0-7.7-3.1-7.7-7.9c0-4.8 3.3-8.2 8.3-8.2c1.7 0 3.2.4 3.9.8c0 0-.6 2.2-.6 2.2c-.7-.4-1.7-.8-3.3-.8c-3.5 0-5.4 2.7-5.4 5.9c0 3.6 2.3 5.8 5.3 5.8c1.6 0 2.7-.4 3.5-.8c0 0 .5 2.1.5 2.1zm17.1-7.3c0 5.8-4 8.3-7.7 8.3c-4.2 0-7.4-3.1-7.4-8c0-5.2 3.4-8.2 7.6-8.2c4.5 0 7.5 3.2 7.5 7.9zm-12.3.2c0 3.4 2 5.9 4.7 5.9c2.7 0 4.7-2.5 4.7-6c0-2.6-1.3-5.9-4.6-5.9c-3.4 0-4.8 3-4.8 6zm15.8-3.6c0-1.6 0-2.9-.1-4.2c.02.01 2.5 0 2.5 0l.1 2.5c0 0 .11.01.1 0c.9-1.5 2.3-2.8 4.9-2.8c2.1 0 3.7 1.2 4.4 3.1c0 0 0 0 0 0c.5-.9 1.1-1.6 1.7-2.1c1-.7 2-1 3.5-1c2 0 5.1 1.3 5.1 6.7c-.04-.02 0 9.1 0 9.1l-2.8 0c0 0 .01-8.77 0-8.8c0-2.9-1.1-4.7-3.4-4.7c-1.6 0-2.8 1.1-3.3 2.5c-.1.4-.2.9-.2 1.4c0 .03 0 9.6 0 9.6l-2.8 0c0 0 .04-9.28 0-9.3c0-2.4-1-4.2-3.2-4.2c-1.7 0-3 1.4-3.5 2.8c-.1.4-.2.9-.2 1.4c0-.04 0 9.3 0 9.3l-2.8 0c0 0 .05-11.3 0-11.3zm26.7.9c0-2 0-3.6-.1-5.1c.01.01 2.5 0 2.5 0l.2 2.7c0 0 .03-.03 0 0c1.2-1.9 3-3 5.5-3c3.8 0 6.6 3.1 6.6 7.8c0 5.6-3.4 8.4-7 8.4c-2.1 0-3.9-.9-4.8-2.5c-.02.02-.1 0-.1 0l0 8.4l-2.8 0c0 0 .04-16.73 0-16.7zm2.8 4.1c0 .4.1.8.1 1.1c.6 2 2.3 3.3 4.3 3.3c2.9 0 4.7-2.4 4.7-5.9c0-3.1-1.7-5.8-4.6-5.8c-2 0-3.7 1.4-4.3 3.5c-.1.3-.2.8-.2 1.1c0 0 0 2.7 0 2.7zm24 6.3l-.2-2c0 0-.1.05-.1 0c-.9 1.3-2.5 2.4-4.7 2.4c-3.2 0-4.8-2.3-4.8-4.5c0-3.7 3.4-5.8 9.3-5.8c0 0 0-.3 0-.3c0-1.3-.3-3.6-3.5-3.6c-1.4 0-2.9.5-4 1.2c0 0-.7-1.9-.7-1.9c1.3-.8 3.2-1.3 5.1-1.3c4.8 0 5.9 3.2 5.9 6.3c0 0 0 5.8 0 5.8c0 1.3.1 2.6.3 3.7c-.02 0-2.6 0-2.6 0zm-.4-7.9c-3.1-.1-6.6.5-6.6 3.5c0 1.8 1.3 2.7 2.7 2.7c2 0 3.3-1.3 3.7-2.6c.1-.3.2-.6.2-.9c0 0 0-2.7 0-2.7zm7.3-3.4c0-1.6-.1-2.9-.2-4.2c.04.01 2.5 0 2.5 0l.2 2.6c0 0 .06-.03.1 0c.7-1.5 2.5-2.9 5.1-2.9c2.1 0 5.5 1.2 5.5 6.6c-.05-.05 0 9.2 0 9.2l-2.9 0c0 0 .04-8.93 0-8.9c0-2.5-.9-4.6-3.5-4.6c-1.9 0-3.3 1.3-3.8 2.9c-.2.3-.2.8-.2 1.3c-.02-.01 0 9.3 0 9.3l-2.8 0c0 0-.03-11.3 0-11.3zm18.3-4.2c0 0 3.43 9.16 3.4 9.2c.4 1 .8 2.2 1 3.1c0 0 .1 0 .1 0c.3-.9.6-2.1 1-3.2c-.02 0 3-9.1 3-9.1l3 0c0 0-4.2 11.05-4.2 11.1c-2 5.3-3.4 8-5.3 9.6c-1.4 1.3-2.8 1.7-3.5 1.9c0 0-.7-2.4-.7-2.4c.7-.2 1.7-.7 2.5-1.4c.8-.6 1.7-1.7 2.4-3.1c.1-.3.2-.5.2-.7c0-.1-.1-.4-.2-.7c-.01-.02-5.7-14.3-5.7-14.3l3 0zm12.2 13.8c0-1.1.8-2 1.9-2c1.1 0 1.9.9 1.9 2c0 1.2-.8 2.1-1.9 2.1c-1.2 0-1.9-.9-1.9-2.1z" stroke="none" fill="#0f3863"/></g><g id="Polygon5730"><path d="m2.3 234l0-15.5l2.9 0l0 15.5l-2.9 0zm3.2-19.8c0 .9-.7 1.7-1.8 1.7c-1 0-1.7-.8-1.7-1.7c0-1 .7-1.8 1.7-1.8c1.1 0 1.8.8 1.8 1.8zm4.3 8.5c0-1.6 0-2.9-.1-4.2c0 .01 2.5 0 2.5 0l.2 2.6c0 0 .02-.03 0 0c.8-1.5 2.6-2.9 5.1-2.9c2.2 0 5.5 1.2 5.5 6.6c.01-.05 0 9.2 0 9.2l-2.8 0c0 0-.01-8.93 0-8.9c0-2.5-.9-4.6-3.6-4.6c-1.8 0-3.3 1.3-3.8 2.9c-.1.3-.2.8-.2 1.3c.04-.01 0 9.3 0 9.3l-2.8 0c0 0 .02-11.3 0-11.3zm28.8 10.7c-.7.4-2.3.9-4.4.9c-4.7 0-7.7-3.1-7.7-7.9c0-4.8 3.2-8.2 8.3-8.2c1.6 0 3.1.4 3.9.8c0 0-.7 2.2-.7 2.2c-.6-.4-1.7-.8-3.2-.8c-3.6 0-5.5 2.7-5.5 5.9c0 3.6 2.3 5.8 5.4 5.8c1.6 0 2.6-.4 3.4-.8c0 0 .5 2.1.5 2.1zm3.3-10.1c0-1.8 0-3.3-.1-4.8c-.01.01 2.5 0 2.5 0l.1 3.1c0 0 .08-.05.1 0c.7-2.1 2.4-3.4 4.3-3.4c.3 0 .5 0 .8.1c0 0 0 2.6 0 2.6c-.3-.1-.6-.1-1-.1c-2 0-3.4 1.5-3.8 3.6c0 .4-.1.9-.1 1.3c0 .04 0 8.3 0 8.3l-2.8 0c0 0 .02-10.66 0-10.7zm11.7 3.5c.1 3.8 2.5 5.3 5.3 5.3c2.1 0 3.3-.3 4.3-.8c0 0 .5 2.1.5 2.1c-1 .4-2.7.9-5.1.9c-4.8 0-7.7-3.1-7.7-7.8c0-4.7 2.8-8.3 7.3-8.3c5.1 0 6.4 4.4 6.4 7.3c0 .5-.1 1-.1 1.3c0 0-10.9 0-10.9 0zm8.3-2c0-1.8-.7-4.6-3.9-4.6c-2.9 0-4.1 2.6-4.3 4.6c0 0 8.2 0 8.2 0zm14.8 9.2l-.3-2c0 0-.05.05 0 0c-.9 1.3-2.6 2.4-4.8 2.4c-3.1 0-4.7-2.3-4.7-4.5c0-3.7 3.3-5.8 9.3-5.8c0 0 0-.3 0-.3c0-1.3-.4-3.6-3.5-3.6c-1.5 0-3 .5-4.1 1.2c0 0-.6-1.9-.6-1.9c1.3-.8 3.1-1.3 5.1-1.3c4.7 0 5.9 3.2 5.9 6.3c0 0 0 5.8 0 5.8c0 1.3 0 2.6.2 3.7c.03 0-2.5 0-2.5 0zm-.4-7.9c-3.1-.1-6.6.5-6.6 3.5c0 1.8 1.2 2.7 2.7 2.7c2 0 3.2-1.3 3.7-2.6c.1-.3.2-.6.2-.9c0 0 0-2.7 0-2.7zm6.8 5c.9.6 2.3 1.1 3.7 1.1c2.1 0 3.1-1 3.1-2.3c0-1.3-.8-2-2.9-2.8c-2.8-1-4.1-2.5-4.1-4.4c0-2.5 2-4.5 5.3-4.5c1.6 0 3 .4 3.8.9c0 0-.7 2.1-.7 2.1c-.6-.4-1.7-.9-3.1-.9c-1.7 0-2.6.9-2.6 2.1c0 1.3.9 1.8 2.9 2.6c2.7 1 4.1 2.4 4.1 4.7c0 2.7-2.1 4.6-5.8 4.6c-1.7 0-3.3-.4-4.4-1c0 0 .7-2.2.7-2.2zm13.1 2.9l0-15.5l2.8 0l0 15.5l-2.8 0zm3.1-19.8c.1.9-.6 1.7-1.8 1.7c-1 0-1.7-.8-1.7-1.7c0-1 .8-1.8 1.8-1.8c1.1 0 1.7.8 1.7 1.8zm4.4 8.5c0-1.6-.1-2.9-.1-4.2c-.05.01 2.4 0 2.4 0l.2 2.6c0 0 .07-.03.1 0c.7-1.5 2.5-2.9 5.1-2.9c2.1 0 5.5 1.2 5.5 6.6c-.04-.05 0 9.2 0 9.2l-2.9 0c0 0 .05-8.93 0-8.9c0-2.5-.9-4.6-3.5-4.6c-1.9 0-3.3 1.3-3.8 2.9c-.1.3-.2.8-.2 1.3c-.01-.01 0 9.3 0 9.3l-2.8 0c0 0-.02-11.3 0-11.3zm31.1-4.2c-.1 1.1-.1 2.4-.1 4.3c0 0 0 9 0 9c0 3.5-.7 5.7-2.3 7c-1.5 1.4-3.6 1.9-5.6 1.9c-1.8 0-3.9-.5-5.1-1.3c0 0 .7-2.1.7-2.1c1 .6 2.6 1.2 4.5 1.2c2.9 0 5-1.5 5-5.4c0-.03 0-1.8 0-1.8c0 0-.06.04-.1 0c-.8 1.5-2.5 2.6-4.9 2.6c-3.8 0-6.6-3.2-6.6-7.5c0-5.3 3.4-8.2 7-8.2c2.7 0 4.2 1.4 4.8 2.6c.03.05.1 0 .1 0l.1-2.3c0 0 2.48.01 2.5 0zm-2.9 6.1c0-.5-.1-.9-.2-1.3c-.5-1.6-1.9-2.9-3.9-2.9c-2.7 0-4.6 2.2-4.6 5.8c0 3.1 1.5 5.6 4.5 5.6c1.8 0 3.3-1.1 3.9-2.9c.2-.5.3-1 .3-1.5c0 0 0-2.8 0-2.8zm17.6-10.5l0 4.4l4 0l0 2.2l-4 0c0 0 0 8.31 0 8.3c0 1.9.5 3 2.1 3c.7 0 1.3-.1 1.6-.2c0 0 .2 2.1.2 2.1c-.6.3-1.4.4-2.5.4c-1.3 0-2.4-.4-3.1-1.2c-.8-.8-1.1-2.2-1.1-4c.05 0 0-8.4 0-8.4l-2.4 0l0-2.2l2.4 0l0-3.7l2.8-.7zm7.2-2.8l2.8 0l0 9.6c0 0 .08.04.1 0c.4-.8 1.1-1.5 2-1.9c.8-.5 1.8-.8 2.9-.8c2.1 0 5.4 1.2 5.4 6.6c-.01-.02 0 9.2 0 9.2l-2.8 0c0 0-.03-8.9 0-8.9c0-2.5-1-4.6-3.6-4.6c-1.8 0-3.3 1.3-3.8 2.8c-.2.4-.2.8-.2 1.4c.02-.04 0 9.3 0 9.3l-2.8 0l0-22.7zm19.3 15.5c.1 3.8 2.5 5.3 5.3 5.3c2.1 0 3.3-.3 4.3-.8c0 0 .5 2.1.5 2.1c-1 .4-2.7.9-5.1.9c-4.8 0-7.7-3.1-7.7-7.8c0-4.7 2.8-8.3 7.3-8.3c5.1 0 6.4 4.4 6.4 7.3c0 .5-.1 1-.1 1.3c0 0-10.9 0-10.9 0zm8.3-2c0-1.8-.8-4.6-3.9-4.6c-2.9 0-4.1 2.6-4.3 4.6c0 0 8.2 0 8.2 0zm12.8 9.2c.1-1.1.2-2.6.2-4c-.02 0 0-18.7 0-18.7l2.8 0l0 9.7c0 0 .02.01 0 0c1-1.7 2.8-2.8 5.3-2.8c3.8 0 6.6 3.2 6.5 7.9c0 5.5-3.5 8.3-6.9 8.3c-2.3 0-4-.9-5.2-3c0 .04-.1 0-.1 0l-.1 2.6c0 0-2.45 0-2.5 0zm3-6.2c0 .3 0 .7.1 1c.5 2 2.2 3.3 4.2 3.3c3 0 4.7-2.4 4.7-5.9c0-3.1-1.6-5.8-4.6-5.8c-1.9 0-3.7 1.3-4.3 3.5c0 .3-.1.7-.1 1.1c0 0 0 2.8 0 2.8zm29.4-1.7c0 5.8-4 8.3-7.7 8.3c-4.2 0-7.4-3.1-7.4-8c0-5.2 3.4-8.2 7.6-8.2c4.5 0 7.5 3.2 7.5 7.9zm-12.3.2c0 3.4 2 5.9 4.7 5.9c2.7 0 4.7-2.5 4.7-6c0-2.6-1.3-5.9-4.6-5.9c-3.3 0-4.8 3-4.8 6zm19.2-12.2l0 4.4l4.1 0l0 2.2l-4.1 0c0 0 .04 8.31 0 8.3c0 1.9.6 3 2.2 3c.7 0 1.2-.1 1.6-.2c0 0 .1 2.1.1 2.1c-.5.3-1.4.4-2.5.4c-1.3 0-2.3-.4-3-1.2c-.8-.8-1.1-2.2-1.1-4c-.01 0 0-8.4 0-8.4l-2.4 0l0-2.2l2.4 0l0-3.7l2.7-.7zm10.6 0l0 4.4l4.1 0l0 2.2l-4.1 0c0 0 .04 8.31 0 8.3c0 1.9.6 3 2.1 3c.8 0 1.3-.1 1.7-.2c0 0 .1 2.1.1 2.1c-.5.3-1.4.4-2.5.4c-1.3 0-2.4-.4-3-1.2c-.8-.8-1.1-2.2-1.1-4c-.02 0 0-8.4 0-8.4l-2.4 0l0-2.2l2.4 0l0-3.7l2.7-.7zm21.1 12c0 5.8-4 8.3-7.8 8.3c-4.1 0-7.4-3.1-7.4-8c0-5.2 3.4-8.2 7.7-8.2c4.5 0 7.5 3.2 7.5 7.9zm-12.3.2c0 3.4 1.9 5.9 4.7 5.9c2.7 0 4.7-2.5 4.7-6c0-2.6-1.3-5.9-4.7-5.9c-3.3 0-4.7 3-4.7 6zm15.8-3.6c0-1.6 0-2.9-.1-4.2c-.02.01 2.4 0 2.4 0l.2 2.5c0 0 .07.01.1 0c.8-1.5 2.3-2.8 4.8-2.8c2.1 0 3.7 1.2 4.4 3.1c0 0 .1 0 .1 0c.5-.9 1.1-1.6 1.7-2.1c.9-.7 2-1 3.4-1c2.1 0 5.1 1.3 5.1 6.7c.02-.02 0 9.1 0 9.1l-2.7 0c0 0-.03-8.77 0-8.8c0-2.9-1.1-4.7-3.4-4.7c-1.6 0-2.8 1.1-3.3 2.5c-.1.4-.2.9-.2 1.4c-.04.03 0 9.6 0 9.6l-2.8 0c0 0 .01-9.28 0-9.3c0-2.4-1.1-4.2-3.2-4.2c-1.8 0-3.1 1.4-3.5 2.8c-.2.4-.2.9-.2 1.4c-.04-.04 0 9.3 0 9.3l-2.8 0c0 0 .01-11.3 0-11.3zm33.5-11.4l2.8 0l0 22.7l-2.8 0l0-22.7zm7.5 22.7l0-15.5l2.9 0l0 15.5l-2.9 0zm3.2-19.8c0 .9-.7 1.7-1.8 1.7c-1 0-1.7-.8-1.7-1.7c0-1 .7-1.8 1.7-1.8c1.1 0 1.8.8 1.8 1.8zm4.3 8.5c0-1.6 0-2.9-.1-4.2c0 .01 2.5 0 2.5 0l.2 2.6c0 0 .02-.03 0 0c.8-1.5 2.6-2.9 5.1-2.9c2.2 0 5.5 1.2 5.5 6.6c.01-.05 0 9.2 0 9.2l-2.8 0c0 0-.01-8.93 0-8.9c0-2.5-.9-4.6-3.6-4.6c-1.8 0-3.3 1.3-3.8 2.9c-.1.3-.2.8-.2 1.3c.04-.01 0 9.3 0 9.3l-2.8 0c0 0 .02-11.3 0-11.3zm19.4 4.1c0 3.8 2.4 5.3 5.3 5.3c2 0 3.2-.3 4.3-.8c0 0 .4 2.1.4 2.1c-1 .4-2.7.9-5.1.9c-4.8 0-7.6-3.1-7.6-7.8c0-4.7 2.7-8.3 7.2-8.3c5.1 0 6.4 4.4 6.4 7.3c0 .5 0 1-.1 1.3c0 0-10.8 0-10.8 0zm8.2-2c0-1.8-.7-4.6-3.9-4.6c-2.8 0-4.1 2.6-4.3 4.6c0 0 8.2 0 8.2 0zm13.3 9.2l0-13.3l-2.2 0l0-2.2l2.2 0c0 0-.01-.72 0-.7c0-2.2.5-4.2 1.8-5.4c1-1.1 2.4-1.5 3.8-1.5c.9 0 1.8.3 2.4.5c0 0-.4 2.2-.4 2.2c-.4-.2-1-.4-1.8-.4c-2.4 0-3 2.1-3 4.5c-.03-.02 0 .8 0 .8l3.7 0l0 2.2l-3.7 0l0 13.3l-2.8 0zm22.6-7.9c0 5.8-3.9 8.3-7.7 8.3c-4.2 0-7.4-3.1-7.4-8c0-5.2 3.4-8.2 7.7-8.2c4.4 0 7.4 3.2 7.4 7.9zm-12.2.2c0 3.4 1.9 5.9 4.7 5.9c2.6 0 4.7-2.5 4.7-6c0-2.6-1.3-5.9-4.7-5.9c-3.3 0-4.7 3-4.7 6zm15.8-3c0-1.8 0-3.3-.1-4.8c-.03.01 2.4 0 2.4 0l.1 3.1c0 0 .15-.05.2 0c.7-2.1 2.4-3.4 4.2-3.4c.4 0 .6 0 .8.1c0 0 0 2.6 0 2.6c-.2-.1-.5-.1-.9-.1c-2 0-3.4 1.5-3.8 3.6c-.1.4-.1.9-.1 1.3c-.02.04 0 8.3 0 8.3l-2.8 0c0 0-.01-10.66 0-10.7zm20.6-9.2l0 4.4l4.1 0l0 2.2l-4.1 0c0 0 .03 8.31 0 8.3c0 1.9.6 3 2.1 3c.8 0 1.3-.1 1.7-.2c0 0 .1 2.1.1 2.1c-.5.3-1.4.4-2.5.4c-1.3 0-2.4-.4-3-1.2c-.8-.8-1.1-2.2-1.1-4c-.02 0 0-8.4 0-8.4l-2.4 0l0-2.2l2.4 0l0-3.7l2.7-.7zm7.2-2.8l2.8 0l0 9.6c0 0 .11.04.1 0c.5-.8 1.2-1.5 2-1.9c.9-.5 1.9-.8 2.9-.8c2.1 0 5.4 1.2 5.4 6.6c.02-.02 0 9.2 0 9.2l-2.8 0c0 0 0-8.9 0-8.9c0-2.5-.9-4.6-3.6-4.6c-1.8 0-3.2 1.3-3.8 2.8c-.1.4-.2.8-.2 1.4c.05-.04 0 9.3 0 9.3l-2.8 0l0-22.7zm19.4 15.5c0 3.8 2.5 5.3 5.3 5.3c2 0 3.2-.3 4.3-.8c0 0 .4 2.1.4 2.1c-1 .4-2.6.9-5.1.9c-4.8 0-7.6-3.1-7.6-7.8c0-4.7 2.7-8.3 7.2-8.3c5.1 0 6.4 4.4 6.4 7.3c0 .5 0 1-.1 1.3c0 0-10.8 0-10.8 0zm8.2-2c0-1.8-.7-4.6-3.9-4.6c-2.8 0-4.1 2.6-4.3 4.6c0 0 8.2 0 8.2 0z" stroke="none" fill="#0f3863"/></g><g id="Polygon5729"><path d="m10.9 192l-.2-2c0 0-.11.05-.1 0c-.9 1.3-2.5 2.4-4.7 2.4c-3.2 0-4.8-2.3-4.8-4.5c0-3.7 3.3-5.8 9.3-5.8c0 0 0-.3 0-.3c0-1.3-.3-3.6-3.5-3.6c-1.4 0-2.9.5-4 1.2c0 0-.7-1.9-.7-1.9c1.3-.8 3.2-1.3 5.1-1.3c4.8 0 5.9 3.2 5.9 6.3c0 0 0 5.8 0 5.8c0 1.3.1 2.6.3 3.7c-.03 0-2.6 0-2.6 0zm-.4-7.9c-3.1-.1-6.6.5-6.6 3.5c0 1.8 1.3 2.7 2.7 2.7c2 0 3.3-1.3 3.7-2.6c.1-.3.2-.6.2-.9c0 0 0-2.7 0-2.7zm7.3-3.4c0-1.6-.1-2.9-.2-4.2c.03.01 2.5 0 2.5 0l.2 2.6c0 0 .05-.03.1 0c.7-1.5 2.5-2.9 5.1-2.9c2.1 0 5.4 1.2 5.4 6.6c.04-.05 0 9.2 0 9.2l-2.8 0c0 0 .03-8.93 0-8.9c0-2.5-.9-4.6-3.6-4.6c-1.8 0-3.3 1.3-3.7 2.9c-.2.3-.2.8-.2 1.3c-.02-.01 0 9.3 0 9.3l-2.8 0c0 0-.04-11.3 0-11.3zm31.1-11.4c0 0 0 18.7 0 18.7c0 1.4 0 2.9.1 4c.02 0-2.5 0-2.5 0l-.1-2.7c0 0-.1.01-.1 0c-.9 1.7-2.7 3.1-5.3 3.1c-3.7 0-6.6-3.2-6.6-7.9c0-5.2 3.2-8.3 6.9-8.3c2.4 0 4 1.1 4.7 2.3c.02.03.1 0 .1 0l0-9.2l2.8 0zm-2.8 13.5c0-.3-.1-.8-.1-1.2c-.5-1.8-2-3.2-4.1-3.2c-2.9 0-4.7 2.5-4.7 6c0 3.1 1.6 5.7 4.6 5.7c1.9 0 3.6-1.3 4.2-3.4c0-.4.1-.7.1-1.2c0 0 0-2.7 0-2.7zm14.3-1.5c0-1.8-.1-3.3-.2-4.8c.02.01 2.5 0 2.5 0l.1 3.1c0 0 .11-.05.1 0c.7-2.1 2.4-3.4 4.3-3.4c.3 0 .5 0 .8.1c0 0 0 2.6 0 2.6c-.3-.1-.6-.1-1-.1c-1.9 0-3.4 1.5-3.7 3.6c-.1.4-.2.9-.2 1.3c.04.04 0 8.3 0 8.3l-2.7 0c0 0-.05-10.66 0-10.7zm11.7 3.5c0 3.8 2.5 5.3 5.3 5.3c2 0 3.2-.3 4.3-.8c0 0 .4 2.1.4 2.1c-.9.4-2.6.9-5.1.9c-4.8 0-7.6-3.1-7.6-7.8c0-4.7 2.7-8.3 7.2-8.3c5.1 0 6.4 4.4 6.4 7.3c0 .5 0 1-.1 1.3c0 0-10.8 0-10.8 0zm8.2-2c.1-1.8-.7-4.6-3.9-4.6c-2.8 0-4.1 2.6-4.3 4.6c0 0 8.2 0 8.2 0zm19.6-13.5c0 0 0 18.7 0 18.7c0 1.4 0 2.9.1 4c.03 0-2.5 0-2.5 0l-.1-2.7c0 0-.09.01-.1 0c-.9 1.7-2.7 3.1-5.3 3.1c-3.7 0-6.6-3.2-6.6-7.9c0-5.2 3.2-8.3 7-8.3c2.3 0 3.9 1.1 4.6 2.3c.02.03.1 0 .1 0l0-9.2l2.8 0zm-2.8 13.5c0-.3 0-.8-.1-1.2c-.5-1.8-2-3.2-4.1-3.2c-2.9 0-4.6 2.5-4.6 6c0 3.1 1.5 5.7 4.5 5.7c1.9 0 3.6-1.3 4.2-3.4c.1-.4.1-.7.1-1.2c0 0 0-2.7 0-2.7zm20.4 5c0 1.6.1 3 .2 4.2c-.04 0-2.5 0-2.5 0l-.2-2.5c0 0-.06-.03-.1 0c-.7 1.2-2.3 2.9-5.1 2.9c-2.4 0-5.3-1.4-5.3-6.8c-.02-.03 0-9.1 0-9.1l2.8 0c0 0-.01 8.59 0 8.6c0 2.9.9 4.9 3.5 4.9c1.8 0 3.2-1.3 3.7-2.5c.1-.5.2-1 .2-1.5c.02.02 0-9.5 0-9.5l2.8 0c0 0 .03 11.28 0 11.3zm15.7 3.6c-.7.4-2.3.9-4.4.9c-4.7 0-7.7-3.1-7.7-7.9c0-4.8 3.3-8.2 8.3-8.2c1.7 0 3.1.4 3.9.8c0 0-.6 2.2-.6 2.2c-.7-.4-1.8-.8-3.3-.8c-3.5 0-5.5 2.7-5.5 5.9c0 3.6 2.3 5.8 5.4 5.8c1.6 0 2.7-.4 3.5-.8c0 0 .4 2.1.4 2.1zm4.7-6.6c.1 3.8 2.5 5.3 5.3 5.3c2 0 3.3-.3 4.3-.8c0 0 .5 2.1.5 2.1c-1 .4-2.7.9-5.2.9c-4.7 0-7.6-3.1-7.6-7.8c0-4.7 2.8-8.3 7.3-8.3c5.1 0 6.4 4.4 6.4 7.3c0 .5-.1 1-.1 1.3c0 0-10.9 0-10.9 0zm8.3-2c0-1.8-.8-4.6-3.9-4.6c-2.9 0-4.1 2.6-4.3 4.6c0 0 8.2 0 8.2 0zm16.4-10.7l0 4.4l4 0l0 2.2l-4 0c0 0-.04 8.31 0 8.3c0 1.9.5 3 2.1 3c.7 0 1.3-.1 1.6-.2c0 0 .1 2.1.1 2.1c-.5.3-1.4.4-2.5.4c-1.3 0-2.3-.4-3-1.2c-.8-.8-1.1-2.2-1.1-4c.01 0 0-8.4 0-8.4l-2.4 0l0-2.2l2.4 0l0-3.7l2.8-.7zm7.2-2.8l2.8 0l0 9.6c0 0 .04.04 0 0c.5-.8 1.2-1.5 2.1-1.9c.8-.5 1.8-.8 2.8-.8c2.1 0 5.4 1.2 5.4 6.6c.04-.02 0 9.2 0 9.2l-2.8 0c0 0 .03-8.9 0-8.9c0-2.5-.9-4.6-3.6-4.6c-1.8 0-3.2 1.3-3.7 2.8c-.2.4-.2.8-.2 1.4c-.03-.04 0 9.3 0 9.3l-2.8 0l0-22.7zm19.3 15.5c0 3.8 2.5 5.3 5.3 5.3c2 0 3.2-.3 4.3-.8c0 0 .5 2.1.5 2.1c-1 .4-2.7.9-5.2.9c-4.8 0-7.6-3.1-7.6-7.8c0-4.7 2.7-8.3 7.3-8.3c5 0 6.4 4.4 6.4 7.3c0 .5-.1 1-.1 1.3c0 0-10.9 0-10.9 0zm8.2-2c.1-1.8-.7-4.6-3.9-4.6c-2.8 0-4.1 2.6-4.3 4.6c0 0 8.2 0 8.2 0zm27 1.3c0 5.8-3.9 8.3-7.7 8.3c-4.2 0-7.4-3.1-7.4-8c0-5.2 3.4-8.2 7.7-8.2c4.4 0 7.4 3.2 7.4 7.9zm-12.2.2c0 3.4 1.9 5.9 4.7 5.9c2.7 0 4.7-2.5 4.7-6c0-2.6-1.3-5.9-4.7-5.9c-3.3 0-4.7 3-4.7 6zm16.7-7.8c0 0 3.01 8.72 3 8.7c.5 1.4.9 2.7 1.3 4c0 0 0 0 0 0c.4-1.3.8-2.6 1.4-4c-.04.02 3-8.7 3-8.7l2.9 0l-6.1 15.5l-2.7 0l-5.8-15.5l3 0zm15.5 8.3c.1 3.8 2.5 5.3 5.3 5.3c2 0 3.3-.3 4.3-.8c0 0 .5 2.1.5 2.1c-1 .4-2.7.9-5.2.9c-4.7 0-7.6-3.1-7.6-7.8c0-4.7 2.8-8.3 7.3-8.3c5 0 6.4 4.4 6.4 7.3c0 .5-.1 1-.1 1.3c0 0-10.9 0-10.9 0zm8.3-2c0-1.8-.8-4.6-3.9-4.6c-2.9 0-4.1 2.6-4.4 4.6c0 0 8.3 0 8.3 0zm6.2-1.5c0-1.8-.1-3.3-.1-4.8c-.05.01 2.4 0 2.4 0l.1 3.1c0 0 .14-.05.1 0c.7-2.1 2.4-3.4 4.3-3.4c.3 0 .6 0 .8.1c0 0 0 2.6 0 2.6c-.3-.1-.5-.1-.9-.1c-2 0-3.4 1.5-3.8 3.6c-.1.4-.1.9-.1 1.3c-.04.04 0 8.3 0 8.3l-2.8 0c0 0-.02-10.66 0-10.7zm10.6-12l2.8 0l0 9.6c0 0 .05.04.1 0c.4-.8 1.1-1.5 2-1.9c.8-.5 1.8-.8 2.8-.8c2.1 0 5.5 1.2 5.5 6.6c-.04-.02 0 9.2 0 9.2l-2.9 0c0 0 .04-8.9 0-8.9c0-2.5-.9-4.6-3.5-4.6c-1.9 0-3.3 1.3-3.8 2.8c-.2.4-.2.8-.2 1.4c-.01-.04 0 9.3 0 9.3l-2.8 0l0-22.7zm19.3 15.5c.1 3.8 2.5 5.3 5.3 5.3c2 0 3.2-.3 4.3-.8c0 0 .5 2.1.5 2.1c-1 .4-2.7.9-5.2.9c-4.7 0-7.6-3.1-7.6-7.8c0-4.7 2.8-8.3 7.3-8.3c5 0 6.4 4.4 6.4 7.3c0 .5-.1 1-.1 1.3c0 0-10.9 0-10.9 0zm8.3-2c0-1.8-.8-4.6-3.9-4.6c-2.9 0-4.1 2.6-4.4 4.6c0 0 8.3 0 8.3 0zm14.7 9.2l-.2-2c0 0-.08.05-.1 0c-.8 1.3-2.5 2.4-4.7 2.4c-3.2 0-4.8-2.3-4.8-4.5c0-3.7 3.4-5.8 9.4-5.8c0 0 0-.3 0-.3c0-1.3-.4-3.6-3.6-3.6c-1.4 0-2.9.5-4 1.2c0 0-.6-1.9-.6-1.9c1.2-.8 3.1-1.3 5.1-1.3c4.7 0 5.8 3.2 5.8 6.3c0 0 0 5.8 0 5.8c0 1.3.1 2.6.3 3.7c0 0-2.6 0-2.6 0zm-.4-7.9c-3-.1-6.5.5-6.5 3.5c0 1.8 1.2 2.7 2.6 2.7c2 0 3.3-1.3 3.8-2.6c.1-.3.1-.6.1-.9c0 0 0-2.7 0-2.7zm20.7-14.8c0 0-.04 18.7 0 18.7c0 1.4 0 2.9.1 4c-.01 0-2.5 0-2.5 0l-.2-2.7c0 0-.03.01 0 0c-.9 1.7-2.8 3.1-5.3 3.1c-3.8 0-6.6-3.2-6.6-7.9c-.1-5.2 3.1-8.3 6.9-8.3c2.4 0 4 1.1 4.7 2.3c-.02.03 0 0 0 0l0-9.2l2.9 0zm-2.9 13.5c0-.3 0-.8-.1-1.2c-.4-1.8-1.9-3.2-4-3.2c-3 0-4.7 2.5-4.7 6c0 3.1 1.6 5.7 4.6 5.7c1.9 0 3.6-1.3 4.1-3.4c.1-.4.1-.7.1-1.2c0 0 0-2.7 0-2.7zm7.2 6.3c.8.6 2.3 1.1 3.7 1.1c2 0 3-1 3-2.3c0-1.3-.8-2-2.9-2.8c-2.8-1-4.1-2.5-4.1-4.4c0-2.5 2-4.5 5.3-4.5c1.6 0 3 .4 3.8.9c0 0-.7 2.1-.7 2.1c-.6-.4-1.7-.9-3.1-.9c-1.7 0-2.6.9-2.6 2.1c0 1.3.9 1.8 2.9 2.6c2.7 1 4.1 2.4 4.1 4.7c0 2.7-2.1 4.6-5.8 4.6c-1.7 0-3.3-.4-4.4-1c0 0 .8-2.2.8-2.2zm10.8 6.8c.7-1.9 1.6-5.3 2-7.6c0 0 3.1-.3 3.1-.3c-.7 2.7-2.2 6.2-3.1 7.7c0 0-2 .2-2 .2zm18.7-23.8l0 4.4l4 0l0 2.2l-4 0c0 0-.04 8.31 0 8.3c0 1.9.5 3 2.1 3c.7 0 1.2-.1 1.6-.2c0 0 .1 2.1.1 2.1c-.5.3-1.4.4-2.5.4c-1.3 0-2.3-.4-3-1.2c-.8-.8-1.1-2.2-1.1-4c0 0 0-8.4 0-8.4l-2.4 0l0-2.2l2.4 0l0-3.7l2.8-.7zm7.2-2.8l2.8 0l0 9.6c0 0 .04.04 0 0c.5-.8 1.2-1.5 2.1-1.9c.8-.5 1.8-.8 2.8-.8c2.1 0 5.4 1.2 5.4 6.6c.04-.02 0 9.2 0 9.2l-2.8 0c0 0 .02-8.9 0-8.9c0-2.5-.9-4.6-3.6-4.6c-1.8 0-3.2 1.3-3.7 2.8c-.2.4-.2.8-.2 1.4c-.03-.04 0 9.3 0 9.3l-2.8 0l0-22.7zm19.3 15.5c0 3.8 2.5 5.3 5.3 5.3c2 0 3.2-.3 4.3-.8c0 0 .5 2.1.5 2.1c-1 .4-2.7.9-5.2.9c-4.8 0-7.6-3.1-7.6-7.8c0-4.7 2.7-8.3 7.3-8.3c5 0 6.4 4.4 6.4 7.3c0 .5-.1 1-.1 1.3c0 0-10.9 0-10.9 0zm8.2-2c.1-1.8-.7-4.6-3.9-4.6c-2.8 0-4.1 2.6-4.3 4.6c0 0 8.2 0 8.2 0zm6.2-1.5c0-1.8 0-3.3-.1-4.8c.02.01 2.5 0 2.5 0l.1 3.1c0 0 .11-.05.1 0c.7-2.1 2.4-3.4 4.3-3.4c.3 0 .5 0 .8.1c0 0 0 2.6 0 2.6c-.3-.1-.6-.1-1-.1c-1.9 0-3.4 1.5-3.7 3.6c-.1.4-.2.9-.2 1.3c.03.04 0 8.3 0 8.3l-2.8 0c0 0 .05-10.66 0-10.7zm11.8 3.5c0 3.8 2.5 5.3 5.3 5.3c2 0 3.2-.3 4.3-.8c0 0 .4 2.1.4 2.1c-1 .4-2.6.9-5.1.9c-4.8 0-7.6-3.1-7.6-7.8c0-4.7 2.7-8.3 7.2-8.3c5.1 0 6.4 4.4 6.4 7.3c0 .5 0 1-.1 1.3c0 0-10.8 0-10.8 0zm8.2-2c0-1.8-.7-4.6-3.9-4.6c-2.8 0-4.1 2.6-4.3 4.6c0 0 8.2 0 8.2 0zm6.1 9.2c.1-1.1.1-2.6.1-4c.02 0 0-18.7 0-18.7l2.8 0l0 9.7c0 0 .07.01.1 0c1-1.7 2.8-2.8 5.3-2.8c3.8 0 6.5 3.2 6.5 7.9c0 5.5-3.5 8.3-7 8.3c-2.2 0-4-.9-5.1-3c-.05.04-.1 0-.1 0l-.2 2.6c0 0-2.41 0-2.4 0zm2.9-6.2c0 .3.1.7.1 1c.6 2 2.2 3.3 4.3 3.3c2.9 0 4.7-2.4 4.7-5.9c0-3.1-1.6-5.8-4.6-5.8c-2 0-3.8 1.3-4.3 3.5c-.1.3-.2.7-.2 1.1c0 0 0 2.8 0 2.8zm16.2-9.3c0 0 3.42 9.16 3.4 9.2c.4 1 .8 2.2 1 3.1c0 0 .1 0 .1 0c.3-.9.6-2.1 1-3.2c-.03 0 3-9.1 3-9.1l3 0c0 0-4.21 11.05-4.2 11.1c-2 5.3-3.4 8-5.3 9.6c-1.4 1.3-2.8 1.7-3.5 1.9c0 0-.7-2.4-.7-2.4c.7-.2 1.7-.7 2.5-1.4c.8-.6 1.7-1.7 2.4-3.1c.1-.3.2-.5.2-.7c0-.1-.1-.4-.2-.7c-.01-.02-5.7-14.3-5.7-14.3l3 0z" stroke="none" fill="#0f3863"/></g><g id="Polygon5728"><path d="m2.5 150l0-12.1l-2.1 0l0-3.5l2.1 0c0 0 0-.72 0-.7c0-4.3 3.4-6.8 8.2-6.8c1.7 0 3.6.4 4.6 1c0 0-.9 3.7-.9 3.7c-.8-.4-2-.8-3.6-.8c-2.5 0-3.4 1.3-3.4 3c-.04.01 0 .6 0 .6l9.5 0l0 15.6l-4.9 0l0-12.1l-4.6 0l0 12.1l-4.9 0zm18.3-10.7c0-1.9-.1-3.6-.2-4.9c.04-.05 4.3 0 4.3 0l.2 2.1c0 0 .08 0 .1 0c.6-1 2.2-2.5 4.8-2.5c3.2 0 5.6 2.1 5.6 6.7c.02.02 0 9.3 0 9.3l-4.8 0c0 0-.05-8.67 0-8.7c0-2-.8-3.4-2.5-3.4c-1.4 0-2.2 1-2.5 1.9c-.1.2-.2.7-.2 1.2c.03-.02 0 9 0 9l-4.8 0c0 0-.03-10.66 0-10.7zm27.6 10.7l-.3-1.6c0 0-.07.03-.1 0c-1 1.3-2.6 2-4.4 2c-3.2 0-5.1-2.4-5.1-4.8c0-4.1 3.6-6.1 9.2-6c0 0 0-.3 0-.3c0-.8-.5-2-2.9-2c-1.6 0-3.3.6-4.3 1.2c0 0-.9-3.1-.9-3.1c1.1-.6 3.2-1.4 6.1-1.4c5.2 0 6.9 3.1 6.9 6.8c0 0 0 5.4 0 5.4c0 1.5 0 2.9.2 3.8c0 0-4.4 0-4.4 0zm-.6-7.4c-2.5 0-4.5.6-4.5 2.5c0 1.2.8 1.8 1.9 1.8c1.2 0 2.2-.8 2.5-1.8c.1-.2.1-.5.1-.8c0 0 0-1.7 0-1.7zm8.6-3.3c0-1.9 0-3.6-.1-4.9c-.01-.05 4.2 0 4.2 0l.2 2.1c0 0 .13 0 .1 0c.7-1 2.3-2.5 4.9-2.5c3.2 0 5.6 2.1 5.6 6.7c-.04.02 0 9.3 0 9.3l-4.9 0c0 0 0-8.67 0-8.7c0-2-.7-3.4-2.5-3.4c-1.3 0-2.1 1-2.4 1.9c-.2.2-.2.7-.2 1.2c-.02-.02 0 9 0 9l-4.9 0c0 0 .02-10.66 0-10.7zm30.5 10.3c-.9.4-2.5.7-4.3.7c-5.1 0-8.3-3.1-8.3-8c0-4.6 3.1-8.3 8.9-8.3c1.3 0 2.7.2 3.7.6c0 0-.7 3.6-.7 3.6c-.6-.2-1.5-.5-2.7-.5c-2.6 0-4.3 1.9-4.2 4.4c0 2.9 1.9 4.4 4.3 4.4c1.1 0 2-.2 2.7-.5c0 0 .6 3.6.6 3.6zm2.7.4l0-15.6l4.9 0l0 15.6l-4.9 0zm5-20c0 1.3-1 2.4-2.6 2.4c-1.5 0-2.6-1.1-2.5-2.4c-.1-1.4 1-2.5 2.5-2.5c1.6 0 2.6 1.1 2.6 2.5zm3.8 9.3c0-1.9-.1-3.6-.2-4.9c.04-.05 4.3 0 4.3 0l.2 2.1c0 0 .08 0 .1 0c.6-1 2.2-2.5 4.8-2.5c3.2 0 5.6 2.1 5.6 6.7c.02.02 0 9.3 0 9.3l-4.8 0c0 0-.05-8.67 0-8.7c0-2-.8-3.4-2.5-3.4c-1.4 0-2.2 1-2.5 1.9c-.1.2-.2.7-.2 1.2c.03-.02 0 9 0 9l-4.8 0c0 0-.03-10.66 0-10.7zm33.7-4.9c-.1.9-.2 2.3-.2 4.6c0 0 0 8.7 0 8.7c0 3-.6 5.5-2.3 7.1c-1.8 1.4-4.1 1.9-6.4 1.9c-2 0-4.2-.4-5.6-1.2c0 0 .9-3.7.9-3.7c1 .6 2.7 1.2 4.6 1.2c2.3 0 4-1.3 4-4.2c.03.05 0-1 0-1c0 0-.03.02 0 0c-1 1.3-2.5 2.1-4.3 2.1c-3.8 0-6.6-3.2-6.6-7.7c0-5 3.3-8.2 7.1-8.2c2.2 0 3.5.9 4.3 2.2c.01.01.1 0 .1 0l.1-1.8c0 0 4.26-.05 4.3 0zm-5 6.3c0-.3-.1-.6-.1-.9c-.4-1.3-1.3-2.1-2.6-2.1c-1.8 0-3.2 1.6-3.2 4.4c0 2.4 1.1 4.2 3.2 4.2c1.2 0 2.2-.8 2.5-2c.1-.3.2-.9.2-1.3c0 0 0-2.3 0-2.3zm20.6-10.8l0 4.5l3.5 0l0 3.5l-3.5 0c0 0 .04 5.7 0 5.7c0 1.9.5 2.8 2 2.8c.6 0 1.1-.1 1.4-.2c0 0 0 3.7 0 3.7c-.6.3-1.8.4-3.1.4c-1.6 0-2.9-.5-3.7-1.3c-.9-1-1.3-2.5-1.3-4.7c-.03.04 0-6.4 0-6.4l-2.1 0l0-3.5l2.1 0l0-3.4l4.7-1.1zm21.6 12.1c0 5.7-4 8.4-8.2 8.4c-4.6 0-8.1-3.1-8.1-8.1c0-5.1 3.3-8.3 8.3-8.3c4.8 0 8 3.3 8 8zm-11.3.2c0 2.6 1.1 4.7 3.2 4.7c1.9 0 3.1-1.9 3.1-4.7c0-2.4-.9-4.7-3.1-4.7c-2.3 0-3.2 2.4-3.2 4.7zm26.3-12.3l0 4.5l3.4 0l0 3.5l-3.4 0c0 0-.05 5.7 0 5.7c0 1.9.4 2.8 1.9 2.8c.6 0 1.1-.1 1.4-.2c0 0 0 3.7 0 3.7c-.6.3-1.7.4-3.1.4c-1.6 0-2.9-.5-3.7-1.3c-.9-1-1.3-2.5-1.3-4.7c-.01.04 0-6.4 0-6.4l-2.1 0l0-3.5l2.1 0l0-3.4l4.8-1.1zm6.3-2.6l4.8 0l0 8.9c0 0 .09.01.1 0c.5-.7 1.1-1.2 1.9-1.6c.7-.4 1.6-.6 2.5-.6c3.1 0 5.5 2.1 5.5 6.8c.01.05 0 9.2 0 9.2l-4.9 0c0 0 .04-8.61 0-8.6c0-2.1-.7-3.5-2.5-3.5c-1.3 0-2.1.9-2.4 1.7c-.1.4-.2.8-.2 1.1c.02.02 0 9.3 0 9.3l-4.8 0l0-22.7zm22.5 16.4c.1 2 2.1 3 4.4 3c1.6 0 3-.2 4.3-.6c0 0 .6 3.3.6 3.3c-1.6.6-3.5.9-5.6.9c-5.3 0-8.4-3.1-8.4-7.9c0-4 2.5-8.4 7.9-8.4c5.1 0 7 3.9 7 7.8c0 .8-.1 1.6-.2 1.9c0 0-10 0-10 0zm5.7-3.3c0-1.2-.5-3.2-2.8-3.2c-2 0-2.9 1.9-3 3.2c0 0 5.8 0 5.8 0zm17.6 3.3c.2 2 2.2 3 4.4 3c1.7 0 3-.2 4.3-.6c0 0 .7 3.3.7 3.3c-1.6.6-3.6.9-5.7.9c-5.3 0-8.3-3.1-8.3-7.9c0-4 2.4-8.4 7.9-8.4c5 0 7 3.9 7 7.8c0 .8-.1 1.6-.2 1.9c0 0-10.1 0-10.1 0zm5.7-3.3c0-1.2-.5-3.2-2.7-3.2c-2.1 0-2.9 1.9-3 3.2c0 0 5.7 0 5.7 0zm10.8-6c0 0 1.53 2.54 1.5 2.5c.5.8.9 1.6 1.3 2.4c0 0 .1 0 .1 0c.4-.9.8-1.7 1.2-2.4c-.01-.02 1.4-2.5 1.4-2.5l5.2 0l-5.1 7.4l5.2 8.2l-5.5 0c0 0-1.56-2.82-1.6-2.8c-.4-.8-.8-1.6-1.2-2.4c0 0-.1 0-.1 0c-.4.8-.8 1.6-1.2 2.4c.04-.02-1.4 2.8-1.4 2.8l-5.4 0l5.3-8l-5.1-7.6l5.4 0zm18.7-4.5l0 4.5l3.5 0l0 3.5l-3.5 0c0 0 .05 5.7 0 5.7c0 1.9.5 2.8 2 2.8c.6 0 1.1-.1 1.4-.2c0 0 0 3.7 0 3.7c-.6.3-1.8.4-3.1.4c-1.6 0-2.9-.5-3.7-1.3c-.9-1-1.3-2.5-1.3-4.7c-.02.04 0-6.4 0-6.4l-2.1 0l0-3.5l2.1 0l0-3.4l4.7-1.1zm9.9 13.8c.2 2 2.2 3 4.4 3c1.7 0 3.1-.2 4.4-.6c0 0 .6 3.3.6 3.3c-1.6.6-3.5.9-5.7.9c-5.3 0-8.3-3.1-8.3-7.9c0-4 2.5-8.4 7.9-8.4c5.1 0 7 3.9 7 7.8c0 .8-.1 1.6-.2 1.9c0 0-10.1 0-10.1 0zm5.8-3.3c0-1.2-.6-3.2-2.8-3.2c-2 0-2.9 1.9-3 3.2c0 0 5.8 0 5.8 0zm7.4-1.1c0-1.9-.1-3.6-.1-4.9c-.04-.05 4.2 0 4.2 0l.2 2.1c0 0 .1 0 .1 0c.6-1 2.2-2.5 4.8-2.5c3.2 0 5.6 2.1 5.6 6.7c.03.02 0 9.3 0 9.3l-4.8 0c0 0-.03-8.67 0-8.7c0-2-.7-3.4-2.5-3.4c-1.3 0-2.1 1-2.5 1.9c-.1.2-.2.7-.2 1.2c.05-.02 0 9 0 9l-4.8 0c0 0-.01-10.66 0-10.7zm24-9.4l0 4.5l3.5 0l0 3.5l-3.5 0c0 0-.01 5.7 0 5.7c0 1.9.4 2.8 1.9 2.8c.6 0 1.1-.1 1.4-.2c0 0 .1 3.7.1 3.7c-.7.3-1.8.4-3.2.4c-1.6 0-2.9-.5-3.6-1.3c-.9-1-1.4-2.5-1.4-4.7c.02.04 0-6.4 0-6.4l-2.1 0l0-3.5l2.1 0l0-3.4l4.8-1.1zm28.2 12.1c0 5.7-4.1 8.4-8.2 8.4c-4.6 0-8.1-3.1-8.1-8.1c0-5.1 3.3-8.3 8.3-8.3c4.8 0 8 3.3 8 8zm-11.3.2c0 2.6 1.1 4.7 3.2 4.7c1.9 0 3.1-1.9 3.1-4.7c0-2.4-.9-4.7-3.1-4.7c-2.4 0-3.2 2.4-3.2 4.7zm14.9 7.8l0-12.1l-2.1 0l0-3.5l2.1 0c0 0-.04-.66 0-.7c0-1.8.5-3.9 1.9-5.2c1.3-1.2 3-1.6 4.4-1.6c1.1 0 1.9.2 2.6.3c0 0-.2 3.8-.2 3.8c-.5-.1-1-.2-1.6-.2c-1.6 0-2.3 1.2-2.3 2.8c.02-.05 0 .8 0 .8l3.2 0l0 3.5l-3.1 0l0 12.1l-4.9 0zm24.8 0l0-5l-9.2 0l0-3.1l7.8-12.7l6 0l0 12.2l2.5 0l0 3.6l-2.5 0l0 5l-4.6 0zm0-8.6c0 0-.01-4.62 0-4.6c0-1.3.1-2.5.2-3.9c0 0-.2 0-.2 0c-.6 1.4-1.2 2.6-1.9 3.9c0-.02-2.8 4.5-2.8 4.5l0 .1l4.7 0zm17.1-1.4l0 3.2l-8.3 0l0-3.2l8.3 0zm17.3-10.8l0 3.1l-8.6 17.7l-5.2 0l8.6-16.7l0-.1l-9.5 0l0-4l14.7 0zm13.8 5.8c0 4.4-2.8 6.6-5.8 6.6c-3.2 0-5.7-2.3-5.7-6.2c0-3.7 2.3-6.6 5.9-6.6c3.5 0 5.6 2.7 5.6 6.2zm-7.9.2c0 2.2.8 3.8 2.2 3.8c1.4 0 2-1.4 2-3.8c0-2.1-.5-3.7-2-3.7c-1.5 0-2.2 1.7-2.2 3.7zm2.3 15.2l12-21.6l2.6 0l-12 21.6l-2.6 0zm20.5-6.7c0 4.3-2.7 6.6-5.7 6.6c-3.2 0-5.7-2.4-5.7-6.3c0-3.7 2.3-6.5 5.8-6.5c3.6 0 5.6 2.6 5.6 6.2zm-7.7.2c-.1 2.2.7 3.7 2.1 3.7c1.3 0 2-1.4 2-3.7c0-2.1-.5-3.8-2-3.8c-1.5 0-2.1 1.7-2.1 3.8z" stroke="none" fill="#15345e"/></g><g id="Polygon5727"><path d="m13.7 107.6c-.9.4-2.5.7-4.4.7c-5 0-8.2-3.1-8.2-8c0-4.6 3.1-8.3 8.9-8.3c1.3 0 2.7.2 3.7.6c0 0-.7 3.6-.7 3.6c-.6-.2-1.5-.5-2.8-.5c-2.5 0-4.2 1.9-4.2 4.4c0 2.9 2 4.4 4.3 4.4c1.2 0 2.1-.2 2.8-.5c0 0 .6 3.6.6 3.6zm11.7.4l-.3-1.6c0 0-.08.03-.1 0c-1 1.3-2.6 2-4.5 2c-3.1 0-5-2.4-5-4.8c0-4.1 3.6-6.1 9.2-6c0 0 0-.3 0-.3c0-.8-.5-2-2.9-2c-1.6 0-3.3.6-4.3 1.2c0 0-.9-3.1-.9-3.1c1.1-.6 3.2-1.4 6.1-1.4c5.2 0 6.9 3.1 6.9 6.8c0 0 0 5.4 0 5.4c0 1.5 0 2.9.2 3.8c-.01 0-4.4 0-4.4 0zm-.6-7.4c-2.5 0-4.5.6-4.5 2.5c0 1.2.8 1.8 1.9 1.8c1.2 0 2.2-.8 2.5-1.8c.1-.2.1-.5.1-.8c0 0 0-1.7 0-1.7zm8.6-3.3c0-1.9-.1-3.6-.1-4.9c-.02-.05 4.2 0 4.2 0l.2 2.1c0 0 .12 0 .1 0c.7-1 2.3-2.5 4.9-2.5c3.2 0 5.6 2.1 5.6 6.7c-.04.02 0 9.3 0 9.3l-4.9 0c0 0-.01-8.67 0-8.7c0-2-.7-3.4-2.5-3.4c-1.3 0-2.1 1-2.4 1.9c-.2.2-.2.7-.2 1.2c-.03-.02 0 9 0 9l-4.9 0c0 0 .01-10.66 0-10.7zm25.2.2c0-2.3 0-3.8-.1-5.1c0-.05 4.2 0 4.2 0l.1 2.8c0 0 .18.03.2 0c.8-2.2 2.7-3.2 4.2-3.2c.4 0 .7 0 1 .1c0 0 0 4.5 0 4.5c-.3 0-.7-.1-1.3-.1c-1.8 0-3 1-3.3 2.5c-.1.3-.1.7-.1 1.1c-.01-.04 0 7.9 0 7.9l-4.9 0c0 0 .02-10.5 0-10.5zm15.7 4.2c.1 2 2.1 3 4.4 3c1.7 0 3-.2 4.3-.6c0 0 .6 3.3.6 3.3c-1.6.6-3.5.9-5.6.9c-5.3 0-8.4-3.1-8.4-7.9c0-4 2.5-8.4 7.9-8.4c5.1 0 7 3.9 7 7.8c0 .8-.1 1.6-.1 1.9c0 0-10.1 0-10.1 0zm5.7-3.3c0-1.2-.5-3.2-2.8-3.2c-2 0-2.8 1.9-3 3.2c0 0 5.8 0 5.8 0zm7.4 5.3c.9.6 2.7 1.2 4.2 1.2c1.5 0 2.1-.5 2.1-1.3c0-.8-.5-1.2-2.3-1.8c-3.3-1.1-4.5-2.8-4.5-4.7c0-2.9 2.5-5.1 6.4-5.1c1.8 0 3.4.4 4.4.9c0 0-.9 3.4-.9 3.4c-.7-.4-2-.9-3.4-.9c-1.1 0-1.8.4-1.8 1.2c0 .8.6 1.2 2.5 1.8c3 1.1 4.2 2.6 4.3 4.9c0 2.9-2.3 5-6.8 5c-2.1 0-3.9-.4-5.1-1.1c0 0 .9-3.5.9-3.5zm28.7-.7c0 2 0 3.7.1 5c-.01 0-4.2 0-4.2 0l-.3-2.2c0 0-.05-.01-.1 0c-.6 1-2 2.6-4.8 2.6c-3.2 0-5.6-2-5.6-6.9c.05.04 0-9.1 0-9.1l4.9 0c0 0 .04 8.37 0 8.4c0 2.2.8 3.6 2.5 3.6c1.3 0 2.1-.9 2.4-1.7c.1-.3.2-.7.2-1c-.03-.04 0-9.3 0-9.3l4.9 0c0 0-.04 10.58 0 10.6zm3.9-17.7l4.8 0l0 22.7l-4.8 0l0-22.7zm14.2 2.6l0 4.5l3.5 0l0 3.5l-3.5 0c0 0 .01 5.7 0 5.7c0 1.9.5 2.8 1.9 2.8c.6 0 1.1-.1 1.5-.2c0 0 0 3.7 0 3.7c-.6.3-1.8.4-3.2.4c-1.5 0-2.8-.5-3.6-1.3c-.9-1-1.4-2.5-1.4-4.7c.04.04 0-6.4 0-6.4l-2 0l0-3.5l2 0l0-3.4l4.8-1.1zm12.8 20.1l0-15.6l4.8 0l0 15.6l-4.8 0zm5-20c0 1.3-1 2.4-2.6 2.4c-1.6 0-2.6-1.1-2.6-2.4c0-1.4 1-2.5 2.6-2.5c1.6 0 2.6 1.1 2.6 2.5zm3.7 9.3c0-1.9 0-3.6-.1-4.9c.01-.05 4.2 0 4.2 0l.3 2.1c0 0 .06 0 .1 0c.6-1 2.2-2.5 4.8-2.5c3.2 0 5.6 2.1 5.6 6.7c-.01.02 0 9.3 0 9.3l-4.9 0c0 0 .03-8.67 0-8.7c0-2-.7-3.4-2.4-3.4c-1.4 0-2.2 1-2.5 1.9c-.1.2-.2.7-.2 1.2c.01-.02 0 9 0 9l-4.9 0c0 0 .04-10.66 0-10.7zm25.2 6.4c.9.6 2.8 1.2 4.2 1.2c1.5 0 2.1-.5 2.1-1.3c0-.8-.5-1.2-2.3-1.8c-3.2-1.1-4.5-2.8-4.5-4.7c0-2.9 2.5-5.1 6.4-5.1c1.8 0 3.5.4 4.4.9c0 0-.8 3.4-.8 3.4c-.7-.4-2.1-.9-3.4-.9c-1.2 0-1.9.4-1.9 1.2c0 .8.6 1.2 2.5 1.8c3 1.1 4.3 2.6 4.3 4.9c0 2.9-2.3 5-6.8 5c-2 0-3.9-.4-5-1.1c0 0 .8-3.5.8-3.5zm22.8 4.3l-.2-1.6c0 0-.14.03-.1 0c-1.1 1.3-2.7 2-4.5 2c-3.2 0-5.1-2.4-5.1-4.8c0-4.1 3.7-6.1 9.2-6c0 0 0-.3 0-.3c0-.8-.4-2-2.8-2c-1.6 0-3.3.6-4.4 1.2c0 0-.9-3.1-.9-3.1c1.1-.6 3.3-1.4 6.1-1.4c5.2 0 6.9 3.1 6.9 6.8c0 0 0 5.4 0 5.4c0 1.5.1 2.9.2 3.8c.03 0-4.4 0-4.4 0zm-.5-7.4c-2.6 0-4.6.6-4.6 2.5c0 1.2.9 1.8 1.9 1.8c1.3 0 2.2-.8 2.6-1.8c0-.2.1-.5.1-.8c0 0 0-1.7 0-1.7zm11.8-8.2c0 0 2.09 7.22 2.1 7.2c.4 1.3.7 2.6.9 3.8c0 0 .1 0 .1 0c.2-1.3.5-2.4.8-3.8c.04.02 2.1-7.2 2.1-7.2l5.1 0l-5.8 15.6l-4.9 0l-5.7-15.6l5.3 0zm13.3 15.6l0-15.6l4.9 0l0 15.6l-4.9 0zm5-20c0 1.3-1 2.4-2.6 2.4c-1.5 0-2.5-1.1-2.5-2.4c0-1.4 1-2.5 2.5-2.5c1.6 0 2.6 1.1 2.6 2.5zm3.8 9.3c0-1.9-.1-3.6-.1-4.9c-.04-.05 4.2 0 4.2 0l.2 2.1c0 0 .1 0 .1 0c.6-1 2.2-2.5 4.8-2.5c3.2 0 5.6 2.1 5.6 6.7c.03.02 0 9.3 0 9.3l-4.8 0c0 0-.03-8.67 0-8.7c0-2-.7-3.4-2.5-3.4c-1.3 0-2.1 1-2.5 1.9c-.1.2-.2.7-.2 1.2c.05-.02 0 9 0 9l-4.8 0c0 0-.02-10.66 0-10.7zm33.7-4.9c-.1.9-.1 2.3-.1 4.6c0 0 0 8.7 0 8.7c0 3-.7 5.5-2.4 7.1c-1.7 1.4-4.1 1.9-6.4 1.9c-2 0-4.2-.4-5.6-1.2c0 0 .9-3.7.9-3.7c1 .6 2.8 1.2 4.6 1.2c2.3 0 4.1-1.3 4.1-4.2c-.05.05 0-1 0-1c0 0-.11.02-.1 0c-.9 1.3-2.4 2.1-4.2 2.1c-3.9 0-6.7-3.2-6.7-7.7c0-5 3.3-8.2 7.1-8.2c2.2 0 3.5.9 4.3 2.2c.03.01.1 0 .1 0l.2-1.8c0 0 4.18-.05 4.2 0zm-5 6.3c0-.3 0-.6-.1-.9c-.4-1.3-1.3-2.1-2.6-2.1c-1.8 0-3.2 1.6-3.2 4.4c0 2.4 1.1 4.2 3.2 4.2c1.2 0 2.2-.8 2.5-2c.2-.3.2-.9.2-1.3c0 0 0-2.3 0-2.3zm15.2 9.3l0-15.6l4.9 0l0 15.6l-4.9 0zm5-20c0 1.3-1 2.4-2.6 2.4c-1.5 0-2.5-1.1-2.5-2.4c0-1.4 1-2.5 2.6-2.5c1.5 0 2.5 1.1 2.5 2.5zm3.8 9.3c0-1.9-.1-3.6-.1-4.9c-.04-.05 4.2 0 4.2 0l.2 2.1c0 0 .1 0 .1 0c.6-1 2.2-2.5 4.8-2.5c3.2 0 5.6 2.1 5.6 6.7c.04.02 0 9.3 0 9.3l-4.8 0c0 0-.03-8.67 0-8.7c0-2-.7-3.4-2.5-3.4c-1.3 0-2.1 1-2.5 1.9c-.1.2-.1.7-.1 1.2c-.05-.02 0 9 0 9l-4.9 0c0 0-.01-10.66 0-10.7zm36.9 10.3c-.8.4-2.4.7-4.3.7c-5.1 0-8.3-3.1-8.3-8c0-4.6 3.1-8.3 9-8.3c1.2 0 2.7.2 3.7.6c0 0-.8 3.6-.8 3.6c-.6-.2-1.4-.5-2.7-.5c-2.6 0-4.2 1.9-4.2 4.4c0 2.9 1.9 4.4 4.3 4.4c1.1 0 2-.2 2.8-.5c0 0 .5 3.6.5 3.6zm17.8-7.6c0 5.7-4 8.4-8.2 8.4c-4.6 0-8.1-3.1-8.1-8.1c0-5.1 3.3-8.3 8.3-8.3c4.8 0 8 3.3 8 8zm-11.3.2c0 2.6 1.1 4.7 3.2 4.7c1.9 0 3.1-1.9 3.1-4.7c0-2.4-.9-4.7-3.1-4.7c-2.3 0-3.2 2.4-3.2 4.7zm14.3 3.5c.9.6 2.8 1.2 4.2 1.2c1.5 0 2.1-.5 2.1-1.3c0-.8-.5-1.2-2.3-1.8c-3.2-1.1-4.5-2.8-4.5-4.7c0-2.9 2.5-5.1 6.4-5.1c1.8 0 3.5.4 4.4.9c0 0-.8 3.4-.8 3.4c-.7-.4-2.1-.9-3.4-.9c-1.2 0-1.9.4-1.9 1.2c0 .8.6 1.2 2.5 1.8c3 1.1 4.3 2.6 4.3 4.9c0 2.9-2.3 5-6.8 5c-2 0-3.9-.4-5-1.1c0 0 .8-3.5.8-3.5zm19.4-15.8l0 4.5l3.5 0l0 3.5l-3.5 0c0 0-.02 5.7 0 5.7c0 1.9.4 2.8 1.9 2.8c.6 0 1.1-.1 1.4-.2c0 0 .1 3.7.1 3.7c-.7.3-1.8.4-3.2.4c-1.6 0-2.9-.5-3.6-1.3c-.9-1-1.4-2.5-1.4-4.7c.01.04 0-6.4 0-6.4l-2.1 0l0-3.5l2.1 0l0-3.4l4.8-1.1zm28.2 12.1c0 5.7-4.1 8.4-8.3 8.4c-4.5 0-8.1-3.1-8.1-8.1c0-5.1 3.4-8.3 8.4-8.3c4.8 0 8 3.3 8 8zm-11.3.2c0 2.6 1.1 4.7 3.2 4.7c1.9 0 3.1-1.9 3.1-4.7c0-2.4-.9-4.7-3.1-4.7c-2.4 0-3.2 2.4-3.2 4.7zm14.9 7.8l0-12.1l-2.1 0l0-3.5l2.1 0c0 0-.05-.66 0-.7c0-1.8.5-3.9 1.9-5.2c1.3-1.2 2.9-1.6 4.4-1.6c1 0 1.9.2 2.5.3c0 0-.1 3.8-.1 3.8c-.5-.1-1-.2-1.6-.2c-1.6 0-2.3 1.2-2.3 2.8c.01-.05 0 .8 0 .8l3.2 0l0 3.5l-3.2 0l0 12.1l-4.8 0z" stroke="none" fill="#15345e"/></g><g id="Polygon5726"><path d="m7.4 45.9l0 4.5l3.5 0l0 3.5l-3.5 0c0 0-.01 5.7 0 5.7c0 1.9.4 2.8 1.9 2.8c.6 0 1.1-.1 1.5-.2c0 0 0 3.7 0 3.7c-.7.3-1.8.4-3.2.4c-1.6 0-2.9-.5-3.6-1.3c-.9-1-1.4-2.5-1.4-4.7c.02.04 0-6.4 0-6.4l-2.1 0l0-3.5l2.1 0l0-3.4l4.8-1.1zm6.3-2.6l4.9 0l0 8.9c0 0 .02.01 0 0c.5-.7 1.2-1.2 1.9-1.6c.7-.4 1.7-.6 2.6-.6c3.1 0 5.4 2.1 5.4 6.8c.04.05 0 9.2 0 9.2l-4.8 0c0 0-.02-8.61 0-8.6c0-2.1-.7-3.5-2.5-3.5c-1.3 0-2.1.9-2.5 1.7c-.1.4-.1.8-.1 1.1c-.04.02 0 9.3 0 9.3l-4.9 0l0-22.7zm22.5 16.4c.2 2 2.1 3 4.4 3c1.7 0 3-.2 4.3-.6c0 0 .7 3.3.7 3.3c-1.6.6-3.6.9-5.7.9c-5.3 0-8.3-3.1-8.3-7.9c0-4 2.4-8.4 7.9-8.4c5 0 6.9 3.9 6.9 7.8c0 .8-.1 1.6-.1 1.9c0 0-10.1 0-10.1 0zm5.7-3.3c0-1.2-.5-3.2-2.7-3.2c-2.1 0-2.9 1.9-3 3.2c0 0 5.7 0 5.7 0zm17.7 3.3c.1 2 2.1 3 4.4 3c1.6 0 3-.2 4.3-.6c0 0 .6 3.3.6 3.3c-1.6.6-3.5.9-5.6.9c-5.3 0-8.4-3.1-8.4-7.9c0-4 2.5-8.4 7.9-8.4c5.1 0 7 3.9 7 7.8c0 .8-.1 1.6-.2 1.9c0 0-10 0-10 0zm5.7-3.3c0-1.2-.5-3.2-2.8-3.2c-2 0-2.9 1.9-3 3.2c0 0 5.8 0 5.8 0zm29.4-9c-.7-.3-1.9-.6-3.2-.6c-2.5 0-3.4 1.3-3.4 3c-.04.01 0 .6 0 .6l9.5 0l0 15.6l-4.9 0l0-12.1l-4.6 0l0 12.1l-4.9 0l0-12.1l-5.1 0l0 12.1l-4.9 0l0-12.1l-2 0l0-3.5l2 0c0 0 .05-.4 0-.4c0-1.9.7-3.7 2.1-5.1c1-.9 2.6-1.6 4.7-1.6c1.1 0 2.1.3 2.7.5c0 0-1.1 3.5-1.1 3.5c-.4-.1-.9-.3-1.4-.3c-.6 0-1.1.2-1.4.5c-.5.6-.7 1.5-.7 2.3c.01.01 0 .6 0 .6l5.1 0c0 0 .03-.72 0-.7c0-4.3 3.4-6.8 8.2-6.8c1.5 0 3.3.3 4.4.9c0 0-1.1 3.6-1.1 3.6zm18.5 18.2c-.8.4-2.5.7-4.3.7c-5.1 0-8.3-3.1-8.3-8c0-4.6 3.1-8.3 8.9-8.3c1.3 0 2.7.2 3.7.6c0 0-.7 3.6-.7 3.6c-.6-.2-1.5-.5-2.7-.5c-2.6 0-4.3 1.9-4.2 4.4c0 2.9 1.9 4.4 4.3 4.4c1.1 0 2-.2 2.7-.5c0 0 .6 3.6.6 3.6zm2.7.4l0-15.6l4.9 0l0 15.6l-4.9 0zm5-20c0 1.3-1 2.4-2.6 2.4c-1.5 0-2.6-1.1-2.5-2.4c-.1-1.4 1-2.5 2.5-2.5c1.6 0 2.6 1.1 2.6 2.5zm7.5 13.7c.2 2 2.2 3 4.4 3c1.7 0 3-.2 4.4-.6c0 0 .6 3.3.6 3.3c-1.6.6-3.6.9-5.7.9c-5.3 0-8.3-3.1-8.3-7.9c0-4 2.4-8.4 7.9-8.4c5 0 7 3.9 7 7.8c0 .8-.1 1.6-.2 1.9c0 0-10.1 0-10.1 0zm5.7-3.3c0-1.2-.5-3.2-2.7-3.2c-2.1 0-2.9 1.9-3 3.2c0 0 5.7 0 5.7 0zm7.5-1.1c0-1.9-.1-3.6-.2-4.9c.04-.05 4.3 0 4.3 0l.2 2.1c0 0 .08 0 .1 0c.6-1 2.2-2.5 4.8-2.5c3.2 0 5.6 2.1 5.6 6.7c.01.02 0 9.3 0 9.3l-4.8 0c0 0-.05-8.67 0-8.7c0-2-.8-3.4-2.5-3.4c-1.4 0-2.2 1-2.5 1.9c-.1.2-.2.7-.2 1.2c.03-.02 0 9 0 9l-4.8 0c0 0-.03-10.66 0-10.7zm24-9.4l0 4.5l3.5 0l0 3.5l-3.5 0c0 0-.03 5.7 0 5.7c0 1.9.4 2.8 1.9 2.8c.6 0 1.1-.1 1.4-.2c0 0 .1 3.7.1 3.7c-.7.3-1.8.4-3.2.4c-1.6 0-2.9-.5-3.7-1.3c-.9-1-1.3-2.5-1.3-4.7c0 .04 0-6.4 0-6.4l-2.1 0l0-3.5l2.1 0l0-3.4l4.8-1.1zm12.7 9.4c0-1.9 0-3.6-.1-4.9c.01-.05 4.1 0 4.1 0l.2 2.1c0 0 .12-.04.1 0c.7-1 2.1-2.5 4.8-2.5c2 0 3.6 1 4.2 2.7c0 0 .1 0 .1 0c.6-.8 1.3-1.5 2-1.9c.9-.5 1.8-.8 3-.8c3 0 5.3 2.1 5.3 6.8c-.02-.02 0 9.2 0 9.2l-4.8 0c0 0 .05-8.51 0-8.5c0-2.3-.7-3.6-2.3-3.6c-1.1 0-1.9.8-2.2 1.7c-.1.4-.2.9-.2 1.2c.01.05 0 9.2 0 9.2l-4.7 0c0 0-.03-8.77 0-8.8c0-2-.7-3.3-2.3-3.3c-1.2 0-2 1-2.2 1.8c-.2.3-.2.8-.2 1.2c-.03-.02 0 9.1 0 9.1l-4.8 0c0 0 .03-10.66 0-10.7zm36.4 10.7l-.2-1.6c0 0-.13.03-.1 0c-1.1 1.3-2.7 2-4.5 2c-3.2 0-5.1-2.4-5.1-4.8c0-4.1 3.7-6.1 9.2-6c0 0 0-.3 0-.3c0-.8-.4-2-2.8-2c-1.6 0-3.3.6-4.4 1.2c0 0-.9-3.1-.9-3.1c1.1-.6 3.3-1.4 6.1-1.4c5.2 0 6.9 3.1 6.9 6.8c0 0 0 5.4 0 5.4c0 1.5.1 2.9.2 3.8c.03 0-4.4 0-4.4 0zm-.5-7.4c-2.6 0-4.6.6-4.6 2.5c0 1.2.9 1.8 1.9 1.8c1.3 0 2.3-.8 2.6-1.8c0-.2.1-.5.1-.8c0 0 0-1.7 0-1.7zm8.5-3.3c0-1.9 0-3.6-.1-4.9c.02-.05 4.2 0 4.2 0l.3 2.1c0 0 .07 0 .1 0c.6-1 2.2-2.5 4.8-2.5c3.2 0 5.6 2.1 5.6 6.7c0 .02 0 9.3 0 9.3l-4.9 0c0 0 .03-8.67 0-8.7c0-2-.7-3.4-2.4-3.4c-1.4 0-2.2 1-2.5 1.9c-.1.2-.2.7-.2 1.2c.01-.02 0 9 0 9l-4.9 0c0 0 .05-10.66 0-10.7zm27.7 10.7l-.3-1.6c0 0-.09.03-.1 0c-1 1.3-2.6 2-4.5 2c-3.1 0-5-2.4-5-4.8c0-4.1 3.6-6.1 9.2-6c0 0 0-.3 0-.3c0-.8-.5-2-2.9-2c-1.6 0-3.3.6-4.3 1.2c0 0-.9-3.1-.9-3.1c1.1-.6 3.2-1.4 6.1-1.4c5.2 0 6.9 3.1 6.9 6.8c0 0 0 5.4 0 5.4c0 1.5 0 2.9.2 3.8c-.02 0-4.4 0-4.4 0zm-.6-7.4c-2.5 0-4.5.6-4.5 2.5c0 1.2.8 1.8 1.9 1.8c1.2 0 2.2-.8 2.5-1.8c.1-.2.1-.5.1-.8c0 0 0-1.7 0-1.7zm23.5-8.2c0 .9-.1 2.3-.1 4.6c0 0 0 8.7 0 8.7c0 3-.6 5.5-2.4 7.1c-1.7 1.4-4 1.9-6.3 1.9c-2.1 0-4.2-.4-5.7-1.2c0 0 1-3.7 1-3.7c1 .6 2.7 1.2 4.5 1.2c2.4 0 4.1-1.3 4.1-4.2c.01.05 0-1 0-1c0 0-.05.02-.1 0c-.9 1.3-2.4 2.1-4.2 2.1c-3.8 0-6.6-3.2-6.6-7.7c0-5 3.3-8.2 7.1-8.2c2.1 0 3.5.9 4.3 2.2c-.01.01.1 0 .1 0l.1-1.8c0 0 4.24-.05 4.2 0zm-5 6.3c0-.3 0-.6 0-.9c-.4-1.3-1.3-2.1-2.7-2.1c-1.7 0-3.2 1.6-3.2 4.4c0 2.4 1.2 4.2 3.2 4.2c1.3 0 2.3-.8 2.6-2c.1-.3.1-.9.1-1.3c0 0 0-2.3 0-2.3zm12.6 3c.1 2 2.1 3 4.4 3c1.6 0 3-.2 4.3-.6c0 0 .6 3.3.6 3.3c-1.6.6-3.5.9-5.6.9c-5.3 0-8.4-3.1-8.4-7.9c0-4 2.5-8.4 7.9-8.4c5.1 0 7 3.9 7 7.8c0 .8-.1 1.6-.2 1.9c0 0-10 0-10 0zm5.7-3.3c0-1.2-.5-3.2-2.8-3.2c-2 0-2.8 1.9-3 3.2c0 0 5.8 0 5.8 0zm7.4-1.1c0-1.9-.1-3.6-.1-4.9c-.01-.05 4.1 0 4.1 0l.2 2.1c0 0 .1-.04.1 0c.7-1 2-2.5 4.7-2.5c2.1 0 3.7 1 4.3 2.7c0 0 .1 0 .1 0c.6-.8 1.3-1.5 2-1.9c.9-.5 1.8-.8 3-.8c3 0 5.3 2.1 5.3 6.8c-.04-.02 0 9.2 0 9.2l-4.8 0c0 0 .03-8.51 0-8.5c0-2.3-.7-3.6-2.3-3.6c-1.1 0-1.9.8-2.2 1.7c-.1.4-.2.9-.2 1.2c-.01.05 0 9.2 0 9.2l-4.7 0c0 0-.05-8.77 0-8.8c0-2-.8-3.3-2.3-3.3c-1.2 0-2 1-2.3 1.8c-.1.3-.2.8-.2 1.2c.05-.02 0 9.1 0 9.1l-4.7 0c0 0 .01-10.66 0-10.7zm31.3 4.4c.1 2 2.1 3 4.4 3c1.7 0 3-.2 4.3-.6c0 0 .7 3.3.7 3.3c-1.6.6-3.6.9-5.7.9c-5.3 0-8.4-3.1-8.4-7.9c0-4 2.5-8.4 7.9-8.4c5.1 0 7 3.9 7 7.8c0 .8-.1 1.6-.1 1.9c0 0-10.1 0-10.1 0zm5.7-3.3c0-1.2-.5-3.2-2.7-3.2c-2.1 0-2.9 1.9-3.1 3.2c0 0 5.8 0 5.8 0zm7.4-1.1c0-1.9 0-3.6-.1-4.9c0-.05 4.2 0 4.2 0l.2 2.1c0 0 .14 0 .1 0c.7-1 2.3-2.5 4.9-2.5c3.2 0 5.6 2.1 5.6 6.7c-.02.02 0 9.3 0 9.3l-4.9 0c0 0 .01-8.67 0-8.7c0-2-.7-3.4-2.5-3.4c-1.3 0-2.1 1-2.4 1.9c-.1.2-.2.7-.2 1.2c-.01-.02 0 9 0 9l-4.9 0c0 0 .03-10.66 0-10.7zm24-9.4l0 4.5l3.5 0l0 3.5l-3.5 0c0 0 .03 5.7 0 5.7c0 1.9.5 2.8 1.9 2.8c.7 0 1.1-.1 1.5-.2c0 0 0 3.7 0 3.7c-.6.3-1.8.4-3.1.4c-1.6 0-2.9-.5-3.7-1.3c-.9-1-1.3-2.5-1.3-4.7c-.04.04 0-6.4 0-6.4l-2.1 0l0-3.5l2.1 0l0-3.4l4.7-1.1zm28.3 12.1c0 5.7-4.1 8.4-8.3 8.4c-4.6 0-8.1-3.1-8.1-8.1c0-5.1 3.3-8.3 8.4-8.3c4.8 0 8 3.3 8 8zm-11.4.2c0 2.6 1.1 4.7 3.2 4.7c1.9 0 3.1-1.9 3.1-4.7c0-2.4-.9-4.7-3.1-4.7c-2.3 0-3.2 2.4-3.2 4.7zm14.9 7.8l0-12.1l-2 0l0-3.5l2 0c0 0 0-.66 0-.7c0-1.8.6-3.9 2-5.2c1.2-1.2 2.9-1.6 4.3-1.6c1.1 0 1.9.2 2.6.3c0 0-.2 3.8-.2 3.8c-.4-.1-.9-.2-1.6-.2c-1.6 0-2.2 1.2-2.2 2.8c-.03-.05 0 .8 0 .8l3.1 0l0 3.5l-3.1 0l0 12.1l-4.9 0zm21.9-21.6l0 21.6l-4.9 0l0-21.6l4.9 0zm8.4 4.1l-5.8 0l0-4.1l16.6 0l0 4.1l-5.9 0l0 17.5l-4.9 0l0-17.5zm28.3 16.9c-.9.4-2.9.9-5.6.9c-7.4 0-11.3-4.6-11.3-10.8c0-7.3 5.3-11.4 11.8-11.4c2.5 0 4.5.5 5.3.9c0 0-1 3.9-1 3.9c-1-.4-2.3-.8-4.1-.8c-3.8 0-6.8 2.3-6.8 7.1c0 4.4 2.5 7.1 6.9 7.1c1.4 0 3.1-.3 4-.7c0 0 .8 3.8.8 3.8z" stroke="none" fill="#15345e"/></g><g id="Polygon5725"><path d="m272.3 8.4c0 0 1.3 6.35 1.3 6.4c.3 1.6.6 3.3.9 5.1c0 0 .1 0 .1 0c.3-1.8.7-3.6 1.1-5.1c.01-.02 1.7-6.4 1.7-6.4l3.8 0c0 0 1.58 6.19 1.6 6.2c.4 1.8.8 3.5 1.1 5.3c0 0 .1 0 .1 0c.2-1.8.5-3.5.9-5.3c-.01-.04 1.3-6.2 1.3-6.2l4.8 0l-4.8 15.6l-4.6 0c0 0-1.44-5.5-1.4-5.5c-.4-1.5-.7-2.9-1-4.9c0 0-.1 0-.1 0c-.3 2-.6 3.4-1 4.9c-.02 0-1.6 5.5-1.6 5.5l-4.6 0l-4.5-15.6l4.9 0zm24.2 9.3c.2 2 2.2 3 4.5 3c1.6 0 3-.2 4.3-.6c0 0 .6 3.3.6 3.3c-1.6.6-3.5.9-5.6.9c-5.4 0-8.4-3.1-8.4-7.9c0-4 2.5-8.4 7.9-8.4c5.1 0 7 3.9 7 7.8c0 .8-.1 1.6-.2 1.9c0 0-10.1 0-10.1 0zm5.8-3.3c0-1.2-.5-3.2-2.8-3.2c-2 0-2.9 1.9-3 3.2c0 0 5.8 0 5.8 0zm17.6 3.3c.2 2 2.1 3 4.4 3c1.7 0 3-.2 4.3-.6c0 0 .7 3.3.7 3.3c-1.6.6-3.6.9-5.7.9c-5.3 0-8.3-3.1-8.3-7.9c0-4 2.4-8.4 7.9-8.4c5 0 6.9 3.9 6.9 7.8c0 .8-.1 1.6-.1 1.9c0 0-10.1 0-10.1 0zm5.7-3.3c0-1.2-.5-3.2-2.7-3.2c-2.1 0-2.9 1.9-3 3.2c0 0 5.7 0 5.7 0zm7.4 5.3c.9.6 2.8 1.2 4.2 1.2c1.5 0 2.1-.5 2.1-1.3c0-.8-.5-1.2-2.3-1.8c-3.2-1.1-4.5-2.8-4.5-4.7c0-2.9 2.5-5.1 6.4-5.1c1.8 0 3.5.4 4.4.9c0 0-.8 3.4-.8 3.4c-.7-.4-2.1-.9-3.4-.9c-1.2 0-1.9.4-1.9 1.2c0 .8.6 1.2 2.5 1.8c3 1.1 4.3 2.6 4.3 4.9c0 2.9-2.3 5-6.8 5c-2 0-3.9-.4-5-1.1c0 0 .8-3.5.8-3.5zm19.4-15.8l0 4.5l3.5 0l0 3.5l-3.5 0c0 0-.02 5.7 0 5.7c0 1.9.4 2.8 1.9 2.8c.6 0 1.1-.1 1.4-.2c0 0 .1 3.7.1 3.7c-.7.3-1.8.4-3.2.4c-1.6 0-2.9-.5-3.6-1.3c-.9-1-1.4-2.5-1.4-4.7c.01.04 0-6.4 0-6.4l-2.1 0l0-3.5l2.1 0l0-3.4l4.8-1.1zm6.3 20.1l0-15.6l4.8 0l0 15.6l-4.8 0zm5-20c0 1.3-1 2.4-2.6 2.4c-1.6 0-2.6-1.1-2.5-2.4c-.1-1.4.9-2.5 2.5-2.5c1.6 0 2.6 1.1 2.6 2.5zm3.8 9.3c0-1.9-.1-3.6-.2-4.9c.02-.05 4.1 0 4.1 0l.2 2.1c0 0 .14-.04.1 0c.7-1 2.1-2.5 4.8-2.5c2 0 3.6 1 4.3 2.7c0 0 0 0 0 0c.6-.8 1.3-1.5 2-1.9c.9-.5 1.9-.8 3-.8c3 0 5.3 2.1 5.3 6.8c0-.02 0 9.2 0 9.2l-4.7 0c0 0-.04-8.51 0-8.5c0-2.3-.8-3.6-2.3-3.6c-1.2 0-2 .8-2.3 1.7c-.1.4-.2.9-.2 1.2c.03.05 0 9.2 0 9.2l-4.7 0c0 0-.01-8.77 0-8.8c0-2-.7-3.3-2.2-3.3c-1.3 0-2 1-2.3 1.8c-.2.3-.2.8-.2 1.2c-.01-.02 0 9.1 0 9.1l-4.7 0c0 0-.05-10.66 0-10.7zm36.4 10.7l-.3-1.6c0 0-.12.03-.1 0c-1 1.3-2.6 2-4.5 2c-3.2 0-5.1-2.4-5.1-4.8c0-4.1 3.7-6.1 9.2-6c0 0 0-.3 0-.3c0-.8-.4-2-2.8-2c-1.6 0-3.3.6-4.3 1.2c0 0-.9-3.1-.9-3.1c1.1-.6 3.2-1.4 6-1.4c5.3 0 6.9 3.1 6.9 6.8c0 0 0 5.4 0 5.4c0 1.5.1 2.9.3 3.8c-.05 0-4.4 0-4.4 0zm-.6-7.4c-2.6 0-4.6.6-4.6 2.5c0 1.2.9 1.8 2 1.8c1.2 0 2.2-.8 2.5-1.8c.1-.2.1-.5.1-.8c0 0 0-1.7 0-1.7zm13.8-12.7l0 4.5l3.4 0l0 3.5l-3.4 0c0 0-.05 5.7 0 5.7c0 1.9.4 2.8 1.9 2.8c.6 0 1.1-.1 1.4-.2c0 0 0 3.7 0 3.7c-.6.3-1.7.4-3.1.4c-1.6 0-2.9-.5-3.7-1.3c-.9-1-1.3-2.5-1.3-4.7c-.02.04 0-6.4 0-6.4l-2.1 0l0-3.5l2.1 0l0-3.4l4.8-1.1zm9.8 13.8c.2 2 2.2 3 4.5 3c1.6 0 3-.2 4.3-.6c0 0 .6 3.3.6 3.3c-1.6.6-3.5.9-5.6.9c-5.4 0-8.4-3.1-8.4-7.9c0-4 2.5-8.4 7.9-8.4c5.1 0 7 3.9 7 7.8c0 .8-.1 1.6-.2 1.9c0 0-10.1 0-10.1 0zm5.8-3.3c0-1.2-.5-3.2-2.8-3.2c-2 0-2.9 1.9-3 3.2c0 0 5.8 0 5.8 0z" stroke="none" fill="#15345e"/></g><g id="Polygon5724"><path d="m2.4 2.7c1.2-.2 3.2-.4 5.1-.4c2.8 0 4.6.5 5.9 1.5c1.2.9 1.8 2.2 1.8 3.8c0 2.1-1.3 4-3.6 4.8c0 0 0 0 0 0c2 .6 4.4 2.3 4.4 5.5c0 1.8-.7 3.2-1.8 4.3c-1.5 1.4-3.9 2-7.4 2c-2 0-3.4-.1-4.4-.3c0 0 0-21.2 0-21.2zm2.8 8.9c0 0 2.54-.05 2.5 0c3 0 4.7-1.6 4.7-3.7c0-2.5-1.9-3.5-4.7-3.5c-1.3 0-2 .1-2.5.2c.02.01 0 7 0 7zm0 10.3c.6.1 1.4.1 2.4.1c2.8 0 5.5-1 5.5-4.2c0-2.9-2.5-4.1-5.6-4.1c.02-.04-2.3 0-2.3 0c0 0 .02 8.19 0 8.2zm23.1 2.1l-.3-2c0 0-.06.05-.1 0c-.8 1.3-2.5 2.4-4.7 2.4c-3.1 0-4.7-2.3-4.7-4.5c0-3.7 3.3-5.8 9.3-5.8c0 0 0-.3 0-.3c0-1.3-.4-3.6-3.5-3.6c-1.5 0-3 .5-4.1 1.2c0 0-.6-1.9-.6-1.9c1.3-.8 3.1-1.3 5.1-1.3c4.7 0 5.9 3.2 5.9 6.3c0 0 0 5.8 0 5.8c0 1.3 0 2.6.2 3.7c.02 0-2.5 0-2.5 0zm-.5-7.9c-3-.1-6.5.5-6.5 3.5c0 1.8 1.2 2.7 2.6 2.7c2.1 0 3.3-1.3 3.8-2.6c.1-.3.1-.6.1-.9c0 0 0-2.7 0-2.7zm6.9 5c.9.6 2.3 1.1 3.7 1.1c2.1 0 3-1 3-2.3c0-1.3-.8-2-2.8-2.8c-2.8-1-4.1-2.5-4.1-4.4c0-2.5 2-4.5 5.3-4.5c1.6 0 3 .4 3.8.9c0 0-.7 2.1-.7 2.1c-.6-.4-1.7-.9-3.2-.9c-1.6 0-2.5.9-2.5 2.1c0 1.3.9 1.8 2.9 2.6c2.7 1 4.1 2.4 4.1 4.7c0 2.7-2.2 4.6-5.8 4.6c-1.7 0-3.3-.4-4.4-1c0 0 .7-2.2.7-2.2zm14.6-4.3c.1 3.8 2.5 5.3 5.4 5.3c2 0 3.2-.3 4.2-.8c0 0 .5 2.1.5 2.1c-1 .4-2.7.9-5.1.9c-4.8 0-7.6-3.1-7.6-7.8c0-4.7 2.7-8.3 7.2-8.3c5.1 0 6.4 4.4 6.4 7.3c0 .5 0 1-.1 1.3c0 0-10.9 0-10.9 0zm8.3-2c0-1.8-.7-4.6-3.9-4.6c-2.9 0-4.1 2.6-4.3 4.6c0 0 8.2 0 8.2 0zm19.6-13.5c0 0-.02 18.7 0 18.7c0 1.4 0 2.9.1 4c.01 0-2.5 0-2.5 0l-.1-2.7c0 0-.11.01-.1 0c-.9 1.7-2.8 3.1-5.3 3.1c-3.7 0-6.6-3.2-6.6-7.9c0-5.2 3.2-8.3 6.9-8.3c2.4 0 4 1.1 4.7 2.3c0 .03.1 0 .1 0l0-9.2l2.8 0zm-2.8 13.5c0-.3-.1-.8-.2-1.2c-.4-1.8-1.9-3.2-4-3.2c-2.9 0-4.7 2.5-4.7 6c0 3.1 1.6 5.7 4.6 5.7c1.9 0 3.6-1.3 4.1-3.4c.1-.4.2-.7.2-1.2c0 0 0-2.7 0-2.7zm28.3 1.3c0 5.8-4 8.3-7.8 8.3c-4.1 0-7.4-3.1-7.4-8c0-5.2 3.4-8.2 7.7-8.2c4.4 0 7.5 3.2 7.5 7.9zm-12.3.2c0 3.4 1.9 5.9 4.7 5.9c2.7 0 4.7-2.5 4.7-6c0-2.6-1.3-5.9-4.7-5.9c-3.3 0-4.7 3-4.7 6zm15.8-3.6c0-1.6 0-2.9-.1-4.2c-.02.01 2.5 0 2.5 0l.1 2.6c0 0 .1-.03.1 0c.8-1.5 2.6-2.9 5.1-2.9c2.2 0 5.5 1.2 5.5 6.6c-.01-.05 0 9.2 0 9.2l-2.8 0c0 0-.03-8.93 0-8.9c0-2.5-1-4.6-3.6-4.6c-1.9 0-3.3 1.3-3.8 2.9c-.1.3-.2.8-.2 1.3c.02-.01 0 9.3 0 9.3l-2.8 0c0 0 .01-11.3 0-11.3zm38.6 3.4c0 5.8-4 8.3-7.7 8.3c-4.2 0-7.5-3.1-7.5-8c0-5.2 3.4-8.2 7.7-8.2c4.5 0 7.5 3.2 7.5 7.9zm-12.3.2c0 3.4 1.9 5.9 4.7 5.9c2.7 0 4.7-2.5 4.7-6c0-2.6-1.3-5.9-4.7-5.9c-3.3 0-4.7 3-4.7 6zm28.8 3.5c0 1.6 0 3 .1 4.2c.01 0-2.5 0-2.5 0l-.2-2.5c0 0-.01-.03 0 0c-.8 1.2-2.4 2.9-5.1 2.9c-2.5 0-5.4-1.4-5.4-6.8c.02-.03 0-9.1 0-9.1l2.8 0c0 0 .04 8.59 0 8.6c0 2.9.9 4.9 3.5 4.9c1.9 0 3.2-1.3 3.7-2.5c.2-.5.3-1 .3-1.5c-.04.02 0-9.5 0-9.5l2.8 0c0 0-.02 11.28 0 11.3zm4.6-6.5c0-1.8 0-3.3-.1-4.8c.02.01 2.5 0 2.5 0l.1 3.1c0 0 .11-.05.1 0c.7-2.1 2.4-3.4 4.3-3.4c.3 0 .5 0 .8.1c0 0 0 2.6 0 2.6c-.3-.1-.6-.1-1-.1c-1.9 0-3.4 1.5-3.7 3.6c-.1.4-.2.9-.2 1.3c.03.04 0 8.3 0 8.3l-2.8 0c0 0 .05-10.66 0-10.7zm16.9 7.8c.8.6 2.3 1.1 3.7 1.1c2.1 0 3-1 3-2.3c0-1.3-.8-2-2.8-2.8c-2.8-1-4.1-2.5-4.1-4.4c0-2.5 2-4.5 5.3-4.5c1.6 0 2.9.4 3.8.9c0 0-.7 2.1-.7 2.1c-.6-.4-1.7-.9-3.2-.9c-1.6 0-2.6.9-2.6 2.1c0 1.3 1 1.8 3 2.6c2.7 1 4.1 2.4 4.1 4.7c0 2.7-2.2 4.6-5.8 4.6c-1.7 0-3.3-.4-4.4-1c0 0 .7-2.2.7-2.2zm16.5-17l0 4.4l4 0l0 2.2l-4 0c0 0-.04 8.31 0 8.3c0 1.9.5 3 2.1 3c.7 0 1.3-.1 1.6-.2c0 0 .1 2.1.1 2.1c-.5.3-1.4.4-2.5.4c-1.3 0-2.3-.4-3-1.2c-.8-.8-1.1-2.2-1.1-4c.01 0 0-8.4 0-8.4l-2.4 0l0-2.2l2.4 0l0-3.7l2.8-.7zm20.1 15.7c0 1.6.1 3 .1 4.2c.05 0-2.4 0-2.4 0l-.2-2.5c0 0-.07-.03-.1 0c-.7 1.2-2.3 2.9-5.1 2.9c-2.4 0-5.3-1.4-5.3-6.8c-.03-.03 0-9.1 0-9.1l2.8 0c0 0-.02 8.59 0 8.6c0 2.9.9 4.9 3.4 4.9c1.9 0 3.2-1.3 3.7-2.5c.2-.5.3-1 .3-1.5c0 .02 0-9.5 0-9.5l2.8 0c0 0 .02 11.28 0 11.3zm18.1-18.5c0 0-.03 18.7 0 18.7c0 1.4 0 2.9.1 4c0 0-2.5 0-2.5 0l-.2-2.7c0 0-.02.01 0 0c-.9 1.7-2.8 3.1-5.3 3.1c-3.7 0-6.6-3.2-6.6-7.9c-.1-5.2 3.1-8.3 6.9-8.3c2.4 0 4 1.1 4.7 2.3c-.01.03.1 0 .1 0l0-9.2l2.8 0zm-2.8 13.5c0-.3-.1-.8-.2-1.2c-.4-1.8-1.9-3.2-4-3.2c-3 0-4.7 2.5-4.7 6c0 3.1 1.6 5.7 4.6 5.7c1.9 0 3.6-1.3 4.1-3.4c.1-.4.2-.7.2-1.2c0 0 0-2.7 0-2.7zm8.5-6.3c0 0 3.36 9.16 3.4 9.2c.3 1 .7 2.2.9 3.1c0 0 .1 0 .1 0c.3-.9.6-2.1 1-3.2c0 0 3.1-9.1 3.1-9.1l3 0c0 0-4.27 11.05-4.3 11.1c-2 5.3-3.4 8-5.3 9.6c-1.4 1.3-2.7 1.7-3.4 1.9c0 0-.7-2.4-.7-2.4c.7-.2 1.6-.7 2.4-1.4c.8-.6 1.7-1.7 2.4-3.1c.1-.3.2-.5.2-.7c0-.1-.1-.4-.2-.7c.02-.02-5.7-14.3-5.7-14.3l3.1 0zm10.9 19.4c.7-1.9 1.6-5.3 2-7.6c0 0 3.1-.3 3.1-.3c-.7 2.7-2.1 6.2-3 7.7c0 0-2.1.2-2.1.2z" stroke="none" fill="#0f3863"/></g></svg>