<?xml version="1.0" standalone="no"?><!DOCTYPE svg PUBLIC "-//W3C//DTD SVG 1.1//EN" "http://www.w3.org/Graphics/SVG/1.1/DTD/svg11.dtd"><svg xmlns="http://www.w3.org/2000/svg" version="1.1" width="584.3px" height="118px" viewBox="0 -7 584.3 118" style="top:-7px"><desc>ITC setoffs to minimize cashflows Intelligent ITC setoff mechanism goes beyond the set rules to save on the cashflows...</desc><defs/><g id="Polygon6383"><path d="m4.3 83l0 3.4l3 0l0 1.6l-3 0c0 0 0 6.26 0 6.3c0 1.4.4 2.2 1.6 2.2c.5 0 .9-.1 1.2-.1c0 0 .1 1.6.1 1.6c-.4.1-1.1.2-1.9.2c-1 0-1.7-.3-2.3-.8c-.6-.7-.8-1.7-.8-3.1c.03.03 0-6.3 0-6.3l-1.8 0l0-1.6l1.8 0l0-2.8l2.1-.6zm15.8 9.1c0 4.3-3 6.2-5.8 6.2c-3.2 0-5.6-2.3-5.6-6c0-3.9 2.6-6.2 5.8-6.2c3.3 0 5.6 2.4 5.6 6zm-9.3.1c0 2.6 1.5 4.5 3.6 4.5c2 0 3.5-1.9 3.5-4.5c0-2-1-4.5-3.5-4.5c-2.5 0-3.6 2.3-3.6 4.5zm16.7 3.6c.7.4 1.8.9 2.8.9c1.5 0 2.3-.8 2.3-1.7c0-1.1-.6-1.6-2.2-2.2c-2.1-.7-3.1-1.9-3.1-3.3c0-1.8 1.5-3.4 4-3.4c1.2 0 2.3.4 2.9.7c0 0-.5 1.6-.5 1.6c-.5-.3-1.3-.7-2.4-.7c-1.3 0-1.9.7-1.9 1.6c0 .9.6 1.4 2.2 2c2 .7 3 1.7 3 3.5c0 2-1.6 3.4-4.3 3.4c-1.3 0-2.5-.3-3.3-.8c0 0 .5-1.6.5-1.6zm16.3 2.2l-.2-1.5c0 0-.09.04-.1 0c-.6.9-1.9 1.8-3.5 1.8c-2.4 0-3.6-1.7-3.6-3.4c0-2.8 2.5-4.3 7-4.3c0 0 0-.2 0-.2c0-1-.3-2.7-2.6-2.7c-1.1 0-2.3.3-3.1.8c0 0-.5-1.3-.5-1.3c1-.7 2.4-1.1 3.9-1.1c3.5 0 4.4 2.4 4.4 4.8c0 0 0 4.3 0 4.3c0 1 0 2 .2 2.8c-.03 0-1.9 0-1.9 0zm-.4-5.9c-2.3-.1-4.9.3-4.9 2.6c0 1.4.9 2 2 2c1.5 0 2.5-1 2.8-1.9c.1-.3.1-.5.1-.7c0 0 0-2 0-2zm6.1-5.7c0 0 2.29 6.51 2.3 6.5c.4 1.1.7 2 .9 3c0 0 .1 0 .1 0c.3-1 .6-1.9 1-3c-.02.01 2.2-6.5 2.2-6.5l2.2 0l-4.5 11.6l-2 0l-4.4-11.6l2.2 0zm11.7 6.2c0 2.8 1.8 4 4 4c1.5 0 2.4-.3 3.2-.6c0 0 .3 1.5.3 1.5c-.7.4-2 .7-3.8.7c-3.6 0-5.7-2.3-5.7-5.8c0-3.5 2-6.3 5.4-6.3c3.8 0 4.8 3.4 4.8 5.5c0 .4 0 .8-.1 1c0 0-8.1 0-8.1 0zm6.2-1.5c0-1.4-.6-3.5-3-3.5c-2.1 0-3 2-3.2 3.5c0 0 6.2 0 6.2 0zm20.2 1c0 4.3-3 6.2-5.8 6.2c-3.1 0-5.5-2.3-5.5-6c0-3.9 2.5-6.2 5.7-6.2c3.4 0 5.6 2.4 5.6 6zm-9.2.1c0 2.6 1.5 4.5 3.5 4.5c2.1 0 3.6-1.9 3.6-4.5c0-2-1-4.5-3.5-4.5c-2.5 0-3.6 2.3-3.6 4.5zm11.9-2.7c0-1.2 0-2.2-.1-3.1c-.01-.02 1.9 0 1.9 0l.1 1.9c0 0 .03 0 0 0c.6-1.1 2-2.2 3.9-2.2c1.6 0 4.1 1 4.1 5c-.03-.04 0 6.9 0 6.9l-2.1 0c0 0-.04-6.7 0-6.7c0-1.9-.7-3.4-2.7-3.4c-1.4 0-2.5 1-2.9 2.1c-.1.3-.1.7-.1 1c0 .02 0 7 0 7l-2.1 0c0 0-.01-8.47 0-8.5zm20.9-6.5l0 3.4l3.1 0l0 1.6l-3.1 0c0 0 .04 6.26 0 6.3c0 1.4.4 2.2 1.6 2.2c.6 0 1-.1 1.2-.1c0 0 .1 1.6.1 1.6c-.4.1-1 .2-1.8.2c-1 0-1.8-.3-2.3-.8c-.6-.7-.8-1.7-.8-3.1c-.03.03 0-6.3 0-6.3l-1.8 0l0-1.6l1.8 0l0-2.8l2-.6zm5.4-2l2.2 0l0 7.2c0 0 0 .01 0 0c.3-.6.9-1.1 1.5-1.5c.6-.3 1.4-.6 2.2-.6c1.5 0 4 1 4 5c.03-.01 0 6.9 0 6.9l-2.1 0c0 0 .01-6.67 0-6.7c0-1.8-.7-3.4-2.7-3.4c-1.3 0-2.4.9-2.8 2.1c-.1.3-.1.6-.1 1c-.05-.01 0 7 0 7l-2.2 0l0-17zm14.5 11.6c.1 2.8 1.9 4 4 4c1.5 0 2.4-.3 3.2-.6c0 0 .4 1.5.4 1.5c-.7.4-2 .7-3.9.7c-3.5 0-5.7-2.3-5.7-5.8c0-3.5 2.1-6.3 5.5-6.3c3.8 0 4.8 3.4 4.8 5.5c0 .4-.1.8-.1 1c0 0-8.2 0-8.2 0zm6.2-1.5c.1-1.4-.5-3.5-2.9-3.5c-2.1 0-3.1 2-3.2 3.5c0 0 6.1 0 6.1 0zm18 6.5c-.5.3-1.7.6-3.3.6c-3.5 0-5.8-2.3-5.8-5.9c0-3.6 2.5-6.2 6.3-6.2c1.2 0 2.3.4 2.9.6c0 0-.5 1.7-.5 1.7c-.5-.3-1.3-.6-2.4-.6c-2.7 0-4.1 2-4.1 4.4c0 2.7 1.7 4.4 4 4.4c1.2 0 2-.4 2.6-.6c0 0 .3 1.6.3 1.6zm9 .4l-.2-1.5c0 0-.09.04-.1 0c-.6.9-1.9 1.8-3.5 1.8c-2.4 0-3.6-1.7-3.6-3.4c0-2.8 2.5-4.3 7-4.3c0 0 0-.2 0-.2c0-1-.3-2.7-2.6-2.7c-1.1 0-2.3.3-3.1.8c0 0-.5-1.3-.5-1.3c1-.7 2.4-1.1 3.9-1.1c3.5 0 4.4 2.4 4.4 4.8c0 0 0 4.3 0 4.3c0 1 0 2 .2 2.8c-.03 0-1.9 0-1.9 0zm-.4-5.9c-2.3-.1-4.9.3-4.9 2.6c0 1.4.9 2 2 2c1.5 0 2.5-1 2.8-1.9c.1-.3.1-.5.1-.7c0 0 0-2 0-2zm5.2 3.7c.6.4 1.7.9 2.8.9c1.5 0 2.2-.8 2.2-1.7c0-1.1-.6-1.6-2.1-2.2c-2.1-.7-3.1-1.9-3.1-3.3c0-1.8 1.5-3.4 4-3.4c1.2 0 2.2.4 2.9.7c0 0-.6 1.6-.6 1.6c-.4-.3-1.3-.7-2.3-.7c-1.3 0-2 .7-2 1.6c0 .9.7 1.4 2.2 2c2 .7 3.1 1.7 3.1 3.5c0 2-1.6 3.4-4.4 3.4c-1.2 0-2.4-.3-3.2-.8c0 0 .5-1.6.5-1.6zm9.8-14.8l2.1 0l0 7.2c0 0 .05.01.1 0c.3-.6.8-1.1 1.5-1.5c.6-.3 1.3-.6 2.1-.6c1.6 0 4.1 1 4.1 5c-.02-.01 0 6.9 0 6.9l-2.1 0c0 0-.03-6.67 0-6.7c0-1.8-.7-3.4-2.7-3.4c-1.4 0-2.5.9-2.9 2.1c-.1.3-.1.6-.1 1c.01-.01 0 7 0 7l-2.1 0l0-17zm13.5 17l0-10l-1.6 0l0-1.6l1.6 0c0 0 .03-.52 0-.5c0-1.6.6-3.1 1.7-4c.9-.8 2.1-1.2 3.7-1.2c1.3 0 2.6.3 3.5.8c-.04-.04 0 16.5 0 16.5l-2.1 0c0 0-.03-15.36 0-15.4c-.4-.2-.9-.3-1.8-.3c-2.2 0-2.9 1.6-2.9 3.5c.02.01 0 .6 0 .6l2.7 0l0 1.6l-2.7 0l0 10l-2.1 0zm22.9-5.9c0 4.3-3 6.2-5.8 6.2c-3.2 0-5.6-2.3-5.6-6c0-3.9 2.6-6.2 5.8-6.2c3.3 0 5.6 2.4 5.6 6zm-9.2.1c0 2.6 1.4 4.5 3.5 4.5c2 0 3.5-1.9 3.5-4.5c0-2-1-4.5-3.5-4.5c-2.5 0-3.5 2.3-3.5 4.5zm12.5-5.8c0 0 1.55 5.89 1.5 5.9c.4 1.3.7 2.5.9 3.7c0 0 .1 0 .1 0c.2-1.2.6-2.4 1-3.7c.02.01 1.9-5.9 1.9-5.9l1.8 0c0 0 1.79 5.79 1.8 5.8c.4 1.4.8 2.6 1 3.8c0 0 .1 0 .1 0c.2-1.2.5-2.4.9-3.8c-.02.02 1.6-5.8 1.6-5.8l2.1 0l-3.7 11.6l-1.9 0c0 0-1.81-5.54-1.8-5.5c-.4-1.3-.8-2.5-1-3.9c0 0-.1 0-.1 0c-.3 1.4-.6 2.6-1.1 3.9c.05-.02-1.8 5.5-1.8 5.5l-1.9 0l-3.5-11.6l2.1 0zm16.4 9.4c.6.4 1.7.9 2.8.9c1.5 0 2.2-.8 2.2-1.7c0-1.1-.6-1.6-2.1-2.2c-2.1-.7-3.1-1.9-3.1-3.3c0-1.8 1.5-3.4 4-3.4c1.2 0 2.2.4 2.9.7c0 0-.6 1.6-.6 1.6c-.4-.3-1.2-.7-2.3-.7c-1.3 0-2 .7-2 1.6c0 .9.7 1.4 2.2 2c2.1.7 3.1 1.7 3.1 3.5c0 2-1.6 3.4-4.4 3.4c-1.2 0-2.4-.3-3.2-.8c0 0 .5-1.6.5-1.6zm15.1 2.2l0-10l-1.6 0l0-1.6l1.6 0c0 0 0-.57 0-.6c0-1.6.4-3.1 1.3-4c.8-.8 1.9-1.1 2.9-1.1c.7 0 1.4.2 1.8.3c0 0-.3 1.7-.3 1.7c-.3-.2-.8-.3-1.4-.3c-1.8 0-2.2 1.6-2.2 3.4c-.01-.04 0 .6 0 .6l2.8 0l0 1.6l-2.8 0l0 10l-2.1 0zm17-5.9c0 4.3-3 6.2-5.8 6.2c-3.1 0-5.6-2.3-5.6-6c0-3.9 2.6-6.2 5.8-6.2c3.3 0 5.6 2.4 5.6 6zm-9.2.1c0 2.6 1.4 4.5 3.5 4.5c2 0 3.5-1.9 3.5-4.5c0-2-1-4.5-3.4-4.5c-2.5 0-3.6 2.3-3.6 4.5zm11.9-2.2c0-1.4-.1-2.5-.1-3.6c-.04-.02 1.8 0 1.8 0l.1 2.3c0 0 .08-.04.1 0c.5-1.6 1.8-2.6 3.2-2.6c.2 0 .4 0 .6.1c0 0 0 2 0 2c-.2-.1-.4-.1-.7-.1c-1.5 0-2.6 1.1-2.9 2.7c0 .3-.1.6-.1 1c.04.01 0 6.2 0 6.2l-2 0c0 0-.04-7.99 0-8zm15.4-7l0 3.4l3.1 0l0 1.6l-3.1 0c0 0 .04 6.26 0 6.3c0 1.4.4 2.2 1.6 2.2c.6 0 1-.1 1.2-.1c0 0 .1 1.6.1 1.6c-.4.1-1 .2-1.8.2c-1 0-1.8-.3-2.3-.8c-.6-.7-.8-1.7-.8-3.1c-.03.03 0-6.3 0-6.3l-1.8 0l0-1.6l1.8 0l0-2.8l2-.6zm5.4-2l2.1 0l0 7.2c0 0 .1.01.1 0c.3-.6.9-1.1 1.5-1.5c.6-.3 1.4-.6 2.2-.6c1.5 0 4 1 4 5c.02-.01 0 6.9 0 6.9l-2.1 0c0 0 .01-6.67 0-6.7c0-1.8-.7-3.4-2.7-3.4c-1.3 0-2.4.9-2.8 2.1c-.1.3-.2.6-.2 1c.05-.01 0 7 0 7l-2.1 0l0-17zm14.5 11.6c.1 2.8 1.9 4 4 4c1.5 0 2.4-.3 3.2-.6c0 0 .4 1.5.4 1.5c-.8.4-2 .7-3.9.7c-3.5 0-5.7-2.3-5.7-5.8c0-3.5 2.1-6.3 5.5-6.3c3.8 0 4.8 3.4 4.8 5.5c0 .4-.1.8-.1 1c0 0-8.2 0-8.2 0zm6.2-1.5c0-1.4-.5-3.5-2.9-3.5c-2.1 0-3.1 2-3.2 3.5c0 0 6.1 0 6.1 0zm9.7 6.9c0-.8.1-2 .1-3c-.03 0 0-14 0-14l2.1 0l0 7.3c0 0 0-.04 0 0c.7-1.3 2.1-2.2 4-2.2c2.8 0 4.9 2.4 4.9 5.9c0 4.2-2.7 6.3-5.2 6.3c-1.7 0-3.1-.7-3.9-2.2c-.04-.02-.1 0-.1 0l-.1 1.9c0 0-1.83 0-1.8 0zm2.2-4.7c0 .3 0 .6.1.8c.4 1.5 1.6 2.5 3.1 2.5c2.2 0 3.5-1.8 3.5-4.5c0-2.3-1.2-4.3-3.4-4.3c-1.4 0-2.8 1-3.2 2.6c-.1.2-.1.5-.1.9c0 0 0 2 0 2zm21.2 1.5c0 1.2.1 2.3.1 3.2c.04 0-1.8 0-1.8 0l-.2-1.9c0 0 0 0 0 0c-.6.9-1.8 2.2-3.8 2.2c-1.9 0-4-1-4-5.1c-.05-.02 0-6.8 0-6.8l2.1 0c0 0-.04 6.42 0 6.4c0 2.2.6 3.7 2.6 3.7c1.4 0 2.4-1 2.7-1.9c.2-.3.2-.7.2-1.1c.03.01 0-7.1 0-7.1l2.1 0c0 0 .04 8.43 0 8.4zm3.3 1c.6.4 1.7.9 2.7.9c1.6 0 2.3-.8 2.3-1.7c0-1.1-.6-1.6-2.2-2.2c-2-.7-3-1.9-3-3.3c0-1.8 1.5-3.4 4-3.4c1.2 0 2.2.4 2.8.7c0 0-.5 1.6-.5 1.6c-.5-.3-1.3-.7-2.4-.7c-1.2 0-1.9.7-1.9 1.6c0 .9.7 1.4 2.2 2c2 .7 3 1.7 3 3.5c0 2-1.5 3.4-4.3 3.4c-1.3 0-2.5-.3-3.3-.8c0 0 .6-1.6.6-1.6zm9.8 2.2l0-11.6l2.1 0l0 11.6l-2.1 0zm2.3-14.9c0 .7-.5 1.3-1.3 1.3c-.8 0-1.3-.6-1.3-1.3c0-.7.5-1.3 1.3-1.3c.8 0 1.3.6 1.3 1.3zm3.3 6.4c0-1.2-.1-2.2-.1-3.1c-.03-.02 1.8 0 1.8 0l.2 1.9c0 0 .01 0 0 0c.6-1.1 1.9-2.2 3.9-2.2c1.6 0 4.1 1 4.1 5c-.04-.04 0 6.9 0 6.9l-2.2 0c0 0 .04-6.7 0-6.7c0-1.9-.7-3.4-2.6-3.4c-1.4 0-2.5 1-2.9 2.1c-.1.3-.1.7-.1 1c-.02.02 0 7 0 7l-2.1 0c0 0-.03-8.47 0-8.5zm14.5 3.1c0 2.8 1.8 4 3.9 4c1.6 0 2.5-.3 3.3-.6c0 0 .3 1.5.3 1.5c-.7.4-2 .7-3.8.7c-3.6 0-5.8-2.3-5.8-5.8c0-3.5 2.1-6.3 5.5-6.3c3.8 0 4.8 3.4 4.8 5.5c0 .4-.1.8-.1 1c0 0-8.1 0-8.1 0zm6.2-1.5c0-1.4-.6-3.5-3-3.5c-2.1 0-3 2-3.2 3.5c0 0 6.2 0 6.2 0zm4.3 4.7c.6.4 1.8.9 2.8.9c1.5 0 2.3-.8 2.3-1.7c0-1.1-.6-1.6-2.2-2.2c-2.1-.7-3.1-1.9-3.1-3.3c0-1.8 1.5-3.4 4-3.4c1.2 0 2.2.4 2.9.7c0 0-.5 1.6-.5 1.6c-.5-.3-1.3-.7-2.4-.7c-1.3 0-2 .7-2 1.6c0 .9.7 1.4 2.3 2c2 .7 3 1.7 3 3.5c0 2-1.6 3.4-4.3 3.4c-1.3 0-2.5-.3-3.3-.8c0 0 .5-1.6.5-1.6zm9.5 0c.7.4 1.8.9 2.8.9c1.5 0 2.3-.8 2.3-1.7c0-1.1-.6-1.6-2.2-2.2c-2.1-.7-3.1-1.9-3.1-3.3c0-1.8 1.5-3.4 4-3.4c1.2 0 2.3.4 2.9.7c0 0-.5 1.6-.5 1.6c-.5-.3-1.3-.7-2.4-.7c-1.3 0-1.9.7-1.9 1.6c0 .9.6 1.4 2.2 2c2 .7 3 1.7 3 3.5c0 2-1.6 3.4-4.3 3.4c-1.3 0-2.5-.3-3.3-.8c0 0 .5-1.6.5-1.6zm9.1 1c0-.9.6-1.6 1.4-1.6c.8 0 1.4.7 1.4 1.6c0 .8-.5 1.5-1.4 1.5c-.9 0-1.4-.7-1.4-1.5z" stroke="none" fill="#3c3c3b"/></g><g id="Polygon6382"><path d="m3.9 46.8l0 16.2l-2.1 0l0-16.2l2.1 0zm3.8 7.7c0-1.2 0-2.2-.1-3.1c.03-.02 1.9 0 1.9 0l.1 1.9c0 0 .07 0 .1 0c.5-1.1 1.9-2.2 3.8-2.2c1.6 0 4.1 1 4.1 5c.02-.04 0 6.9 0 6.9l-2.1 0c0 0 0-6.7 0-6.7c0-1.9-.7-3.4-2.7-3.4c-1.4 0-2.5 1-2.8 2.1c-.1.3-.2.7-.2 1c.04.02 0 7 0 7l-2.1 0c0 0 .03-8.47 0-8.5zm15.8-6.5l0 3.4l3 0l0 1.6l-3 0c0 0 0 6.26 0 6.3c0 1.4.4 2.2 1.6 2.2c.5 0 .9-.1 1.2-.1c0 0 .1 1.6.1 1.6c-.4.1-1.1.2-1.9.2c-1 0-1.7-.3-2.3-.8c-.6-.7-.8-1.7-.8-3.1c.03.03 0-6.3 0-6.3l-1.8 0l0-1.6l1.8 0l0-2.8l2.1-.6zm6.4 9.6c.1 2.8 1.9 4 4 4c1.5 0 2.4-.3 3.2-.6c0 0 .4 1.5.4 1.5c-.8.4-2 .7-3.9.7c-3.6 0-5.7-2.3-5.7-5.8c0-3.5 2.1-6.3 5.5-6.3c3.8 0 4.8 3.4 4.8 5.5c0 .4-.1.8-.1 1c0 0-8.2 0-8.2 0zm6.2-1.5c0-1.4-.5-3.5-2.9-3.5c-2.1 0-3.1 2-3.2 3.5c0 0 6.1 0 6.1 0zm4.7-10.1l2.1 0l0 17l-2.1 0l0-17zm5.6 0l2.2 0l0 17l-2.2 0l0-17zm5.7 17l0-11.6l2.1 0l0 11.6l-2.1 0zm2.4-14.9c0 .7-.5 1.3-1.4 1.3c-.7 0-1.3-.6-1.3-1.3c0-.7.6-1.3 1.4-1.3c.8 0 1.3.6 1.3 1.3zm13.2 3.3c0 .8-.1 1.8-.1 3.2c0 0 0 6.7 0 6.7c0 2.7-.5 4.3-1.6 5.3c-1.2 1.1-2.8 1.4-4.2 1.4c-1.4 0-3-.3-3.9-.9c0 0 .5-1.7.5-1.7c.8.5 2 1 3.4 1c2.2 0 3.8-1.2 3.8-4.1c-.03 0 0-1.3 0-1.3c0 0-.08.01-.1 0c-.6 1.1-1.9 2-3.7 2c-2.9 0-4.9-2.5-4.9-5.7c0-3.9 2.5-6.2 5.2-6.2c2 0 3.1 1.1 3.6 2c.03.04.1 0 .1 0l.1-1.7c0 0 1.83-.02 1.8 0zm-2.2 4.6c0-.4 0-.7-.1-1c-.4-1.2-1.4-2.2-2.9-2.2c-2 0-3.5 1.7-3.5 4.4c0 2.2 1.2 4.1 3.4 4.1c1.3 0 2.5-.8 3-2.1c.1-.4.1-.8.1-1.1c0 0 0-2.1 0-2.1zm6.8 1.6c.1 2.8 1.9 4 4 4c1.5 0 2.4-.3 3.2-.6c0 0 .4 1.5.4 1.5c-.8.4-2 .7-3.9.7c-3.6 0-5.7-2.3-5.7-5.8c0-3.5 2.1-6.3 5.4-6.3c3.8 0 4.8 3.4 4.8 5.5c0 .4 0 .8 0 1c0 0-8.2 0-8.2 0zm6.2-1.5c0-1.4-.5-3.5-2.9-3.5c-2.2 0-3.1 2-3.3 3.5c0 0 6.2 0 6.2 0zm4.7-1.6c0-1.2-.1-2.2-.1-3.1c-.04-.02 1.8 0 1.8 0l.2 1.9c0 0 0 0 0 0c.6-1.1 1.9-2.2 3.8-2.2c1.7 0 4.1 1 4.1 5c.05-.04 0 6.9 0 6.9l-2.1 0c0 0 .03-6.7 0-6.7c0-1.9-.7-3.4-2.7-3.4c-1.3 0-2.4 1-2.8 2.1c-.1.3-.1.7-.1 1c-.03.02 0 7 0 7l-2.1 0c0 0-.04-8.47 0-8.5zm15.7-6.5l0 3.4l3.1 0l0 1.6l-3.1 0c0 0 .03 6.26 0 6.3c0 1.4.4 2.2 1.6 2.2c.6 0 1-.1 1.2-.1c0 0 .1 1.6.1 1.6c-.4.1-1 .2-1.8.2c-1 0-1.8-.3-2.3-.8c-.6-.7-.8-1.7-.8-3.1c-.04.03 0-6.3 0-6.3l-1.8 0l0-1.6l1.8 0l0-2.8l2-.6zm12.7-1.2l0 16.2l-2.1 0l0-16.2l2.1 0zm6.7 1.8l-4.9 0l0-1.8l11.9 0l0 1.8l-4.9 0l0 14.4l-2.1 0l0-14.4zm19.5 13.9c-.8.4-2.3.7-4.3.7c-4.5 0-8-2.8-8-8.1c0-5.1 3.5-8.5 8.5-8.5c2 0 3.3.4 3.8.7c0 0-.5 1.7-.5 1.7c-.8-.4-1.9-.7-3.2-.7c-3.8 0-6.4 2.4-6.4 6.7c0 3.9 2.3 6.5 6.3 6.5c1.2 0 2.5-.3 3.4-.7c0 0 .4 1.7.4 1.7zm7.3-1.7c.7.4 1.8.9 2.8.9c1.6 0 2.3-.8 2.3-1.7c0-1.1-.6-1.6-2.2-2.2c-2.1-.7-3-1.9-3-3.3c0-1.8 1.5-3.4 4-3.4c1.1 0 2.2.4 2.8.7c0 0-.5 1.6-.5 1.6c-.5-.3-1.3-.7-2.4-.7c-1.2 0-1.9.7-1.9 1.6c0 .9.7 1.4 2.2 2c2 .7 3 1.7 3 3.5c0 2-1.6 3.4-4.3 3.4c-1.3 0-2.5-.3-3.3-.8c0 0 .5-1.6.5-1.6zm11-3.2c.1 2.8 1.9 4 4 4c1.5 0 2.4-.3 3.2-.6c0 0 .4 1.5.4 1.5c-.8.4-2 .7-3.9.7c-3.6 0-5.7-2.3-5.7-5.8c0-3.5 2.1-6.3 5.4-6.3c3.8 0 4.8 3.4 4.8 5.5c0 .4 0 .8 0 1c0 0-8.2 0-8.2 0zm6.2-1.5c0-1.4-.5-3.5-2.9-3.5c-2.2 0-3.1 2-3.3 3.5c0 0 6.2 0 6.2 0zm7.2-8.1l0 3.4l3 0l0 1.6l-3 0c0 0 .01 6.26 0 6.3c0 1.4.4 2.2 1.6 2.2c.5 0 1-.1 1.2-.1c0 0 .1 1.6.1 1.6c-.4.1-1 .2-1.9.2c-.9 0-1.7-.3-2.2-.8c-.6-.7-.9-1.7-.9-3.1c.05.03 0-6.3 0-6.3l-1.8 0l0-1.6l1.8 0l0-2.8l2.1-.6zm15.8 9.1c0 4.3-3 6.2-5.8 6.2c-3.2 0-5.6-2.3-5.6-6c0-3.9 2.6-6.2 5.8-6.2c3.3 0 5.6 2.4 5.6 6zm-9.2.1c0 2.6 1.4 4.5 3.5 4.5c2 0 3.5-1.9 3.5-4.5c0-2-1-4.5-3.5-4.5c-2.5 0-3.5 2.3-3.5 4.5zm19 5.8l0-10l-4.9 0l0 10l-2 0l0-10l-1.7 0l0-1.6l1.7 0c0 0-.04-.4 0-.4c0-1.6.3-3 1.3-4c.6-.6 1.6-1 2.9-1c.7 0 1.3.2 1.6.4c0 0-.4 1.5-.4 1.5c-.3-.1-.8-.3-1.2-.3c-1.7 0-2.2 1.5-2.2 3.3c.04-.02 0 .5 0 .5l4.9 0c0 0 .02-.57 0-.6c0-1.6.4-3.1 1.4-4c.8-.8 1.8-1.1 2.8-1.1c.8 0 1.4.2 1.8.3c0 0-.3 1.7-.3 1.7c-.3-.2-.7-.3-1.3-.3c-1.8 0-2.3 1.6-2.3 3.4c0-.04 0 .6 0 .6l2.8 0l0 1.6l-2.8 0l0 10l-2.1 0zm11.9-8.5c0-1.2 0-2.2-.1-3.1c.02-.02 1.9 0 1.9 0l.1 1.9c0 0 .04-.04 0 0c.7-1.1 1.8-2.2 3.7-2.2c1.6 0 2.8 1 3.3 2.3c0 0 0 0 0 0c.4-.6.8-1.1 1.3-1.5c.7-.5 1.5-.8 2.6-.8c1.5 0 3.8 1 3.8 5.1c0-.04 0 6.8 0 6.8l-2.1 0c0 0 .04-6.58 0-6.6c0-2.2-.8-3.6-2.5-3.6c-1.2 0-2.1.9-2.5 2c-.1.3-.1.6-.1 1c-.04.02 0 7.2 0 7.2l-2.1 0c0 0-.01-6.96 0-7c0-1.8-.8-3.2-2.4-3.2c-1.4 0-2.3 1.1-2.6 2.2c-.2.3-.2.6-.2 1c-.02-.01 0 7 0 7l-2.1 0c0 0 .02-8.47 0-8.5zm21.2 3.1c.1 2.8 1.9 4 4 4c1.5 0 2.4-.3 3.2-.6c0 0 .4 1.5.4 1.5c-.8.4-2 .7-3.9.7c-3.6 0-5.7-2.3-5.7-5.8c0-3.5 2.1-6.3 5.4-6.3c3.8 0 4.8 3.4 4.8 5.5c0 .4 0 .8 0 1c0 0-8.2 0-8.2 0zm6.2-1.5c0-1.4-.5-3.5-2.9-3.5c-2.2 0-3.1 2-3.3 3.5c0 0 6.2 0 6.2 0zm12.9 6.5c-.5.3-1.7.6-3.3.6c-3.5 0-5.8-2.3-5.8-5.9c0-3.6 2.5-6.2 6.3-6.2c1.2 0 2.3.4 2.9.6c0 0-.5 1.7-.5 1.7c-.5-.3-1.3-.6-2.4-.6c-2.7 0-4.1 2-4.1 4.4c0 2.7 1.7 4.4 4 4.4c1.2 0 2-.4 2.6-.6c0 0 .3 1.6.3 1.6zm2.5-16.6l2.1 0l0 7.2c0 0 .07.01.1 0c.3-.6.8-1.1 1.5-1.5c.6-.3 1.4-.6 2.1-.6c1.6 0 4.1 1 4.1 5c0-.01 0 6.9 0 6.9l-2.1 0c0 0-.01-6.67 0-6.7c0-1.8-.7-3.4-2.7-3.4c-1.4 0-2.4.9-2.8 2.1c-.2.3-.2.6-.2 1c.02-.01 0 7 0 7l-2.1 0l0-17zm19.8 17l-.2-1.5c0 0-.08.04-.1 0c-.6.9-1.9 1.8-3.5 1.8c-2.4 0-3.6-1.7-3.6-3.4c0-2.8 2.5-4.3 7-4.3c0 0 0-.2 0-.2c0-1-.3-2.7-2.6-2.7c-1.1 0-2.2.3-3.1.8c0 0-.4-1.3-.4-1.3c.9-.7 2.3-1.1 3.8-1.1c3.5 0 4.4 2.4 4.4 4.8c0 0 0 4.3 0 4.3c0 1 0 2 .2 2.8c-.02 0-1.9 0-1.9 0zm-.3-5.9c-2.4-.1-5 .3-5 2.6c0 1.4.9 2 2 2c1.5 0 2.5-1 2.8-1.9c.1-.3.2-.5.2-.7c0 0 0-2 0-2zm5.4-2.6c0-1.2 0-2.2-.1-3.1c0-.02 1.9 0 1.9 0l.1 1.9c0 0 .04 0 0 0c.6-1.1 2-2.2 3.9-2.2c1.6 0 4.1 1 4.1 5c-.01-.04 0 6.9 0 6.9l-2.1 0c0 0-.02-6.7 0-6.7c0-1.9-.7-3.4-2.7-3.4c-1.4 0-2.5 1-2.8 2.1c-.1.3-.2.7-.2 1c.01.02 0 7 0 7l-2.1 0c0 0 0-8.47 0-8.5zm13.3 8.5l0-11.6l2.1 0l0 11.6l-2.1 0zm2.4-14.9c0 .7-.5 1.3-1.4 1.3c-.7 0-1.2-.6-1.2-1.3c0-.7.5-1.3 1.3-1.3c.8 0 1.3.6 1.3 1.3zm2.9 12.7c.7.4 1.8.9 2.8.9c1.6 0 2.3-.8 2.3-1.7c0-1.1-.6-1.6-2.2-2.2c-2.1-.7-3-1.9-3-3.3c0-1.8 1.5-3.4 4-3.4c1.1 0 2.2.4 2.8.7c0 0-.5 1.6-.5 1.6c-.5-.3-1.3-.7-2.4-.7c-1.2 0-1.9.7-1.9 1.6c0 .9.7 1.4 2.2 2c2 .7 3 1.7 3 3.5c0 2-1.6 3.4-4.3 3.4c-1.3 0-2.5-.3-3.3-.8c0 0 .5-1.6.5-1.6zm9.8-6.3c0-1.2 0-2.2-.1-3.1c.04-.02 1.9 0 1.9 0l.1 1.9c0 0 .06-.04.1 0c.6-1.1 1.7-2.2 3.6-2.2c1.6 0 2.8 1 3.3 2.3c0 0 0 0 0 0c.4-.6.9-1.1 1.3-1.5c.7-.5 1.5-.8 2.6-.8c1.5 0 3.8 1 3.8 5.1c.02-.04 0 6.8 0 6.8l-2 0c0 0-.04-6.58 0-6.6c0-2.2-.9-3.6-2.6-3.6c-1.2 0-2.1.9-2.5 2c-.1.3-.1.6-.1 1c-.02.02 0 7.2 0 7.2l-2.1 0c0 0 .01-6.96 0-7c0-1.8-.8-3.2-2.4-3.2c-1.3 0-2.3 1.1-2.6 2.2c-.1.3-.2.6-.2 1c0-.01 0 7 0 7l-2.1 0c0 0 .04-8.47 0-8.5zm35.2-3.1c-.1.8-.1 1.8-.1 3.2c0 0 0 6.7 0 6.7c0 2.7-.6 4.3-1.7 5.3c-1.1 1.1-2.8 1.4-4.2 1.4c-1.4 0-3-.3-3.9-.9c0 0 .5-1.7.5-1.7c.8.5 2 1 3.4 1c2.2 0 3.8-1.2 3.8-4.1c-.01 0 0-1.3 0-1.3c0 0-.06.01-.1 0c-.6 1.1-1.9 2-3.7 2c-2.8 0-4.9-2.5-4.9-5.7c0-3.9 2.6-6.2 5.2-6.2c2.1 0 3.2 1.1 3.7 2c-.04.04 0 0 0 0l.1-1.7c0 0 1.85-.02 1.9 0zm-2.2 4.6c0-.4-.1-.7-.2-1c-.3-1.2-1.4-2.2-2.9-2.2c-2 0-3.5 1.7-3.5 4.4c0 2.2 1.2 4.1 3.5 4.1c1.3 0 2.4-.8 2.9-2.1c.1-.4.2-.8.2-1.1c0 0 0-2.1 0-2.1zm16.1 1.1c0 4.3-3 6.2-5.8 6.2c-3.2 0-5.6-2.3-5.6-6c0-3.9 2.6-6.2 5.8-6.2c3.3 0 5.6 2.4 5.6 6zm-9.2.1c0 2.6 1.4 4.5 3.5 4.5c2 0 3.5-1.9 3.5-4.5c0-2-1-4.5-3.5-4.5c-2.5 0-3.5 2.3-3.5 4.5zm13 .4c.1 2.8 1.9 4 4 4c1.5 0 2.4-.3 3.2-.6c0 0 .4 1.5.4 1.5c-.8.4-2 .7-3.9.7c-3.6 0-5.7-2.3-5.7-5.8c0-3.5 2.1-6.3 5.4-6.3c3.8 0 4.8 3.4 4.8 5.5c0 .4 0 .8 0 1c0 0-8.2 0-8.2 0zm6.2-1.5c0-1.4-.5-3.5-2.9-3.5c-2.2 0-3.1 2-3.3 3.5c0 0 6.2 0 6.2 0zm4.4 4.7c.6.4 1.7.9 2.8.9c1.5 0 2.2-.8 2.2-1.7c0-1.1-.6-1.6-2.1-2.2c-2.1-.7-3.1-1.9-3.1-3.3c0-1.8 1.5-3.4 4-3.4c1.2 0 2.2.4 2.8.7c0 0-.5 1.6-.5 1.6c-.4-.3-1.3-.7-2.4-.7c-1.2 0-1.9.7-1.9 1.6c0 .9.7 1.4 2.2 2c2 .7 3.1 1.7 3.1 3.5c0 2-1.6 3.4-4.4 3.4c-1.3 0-2.4-.3-3.3-.8c0 0 .6-1.6.6-1.6zm14.8 2.2c0-.8.1-2 .1-3c-.05 0 0-14 0-14l2 0l0 7.3c0 0 .09-.04.1 0c.7-1.3 2.1-2.2 3.9-2.2c2.9 0 5 2.4 4.9 5.9c0 4.2-2.6 6.3-5.2 6.3c-1.6 0-3-.7-3.9-2.2c.05-.02 0 0 0 0l-.1 1.9c0 0-1.85 0-1.8 0zm2.1-4.7c0 .3.1.6.1.8c.4 1.5 1.7 2.5 3.2 2.5c2.2 0 3.5-1.8 3.5-4.5c0-2.3-1.2-4.3-3.4-4.3c-1.5 0-2.8 1-3.2 2.6c-.1.2-.2.5-.2.9c0 0 0 2 0 2zm12.8-.7c0 2.8 1.9 4 4 4c1.5 0 2.4-.3 3.2-.6c0 0 .3 1.5.3 1.5c-.7.4-2 .7-3.8.7c-3.6 0-5.7-2.3-5.7-5.8c0-3.5 2-6.3 5.4-6.3c3.8 0 4.8 3.4 4.8 5.5c0 .4 0 .8-.1 1c0 0-8.1 0-8.1 0zm6.2-1.5c0-1.4-.6-3.5-3-3.5c-2.1 0-3 2-3.2 3.5c0 0 6.2 0 6.2 0zm5.4-4.7c0 0 2.54 6.85 2.5 6.8c.3.8.6 1.7.8 2.4c0 0 0 0 0 0c.2-.7.5-1.6.8-2.4c-.02 0 2.3-6.8 2.3-6.8l2.2 0c0 0-3.15 8.26-3.2 8.3c-1.5 3.9-2.5 6-3.9 7.2c-1.1.9-2.1 1.3-2.6 1.4c0 0-.6-1.8-.6-1.8c.6-.1 1.3-.5 1.9-1c.6-.5 1.3-1.3 1.8-2.4c.1-.2.1-.3.1-.5c0-.1 0-.2-.1-.5c-.01-.01-4.3-10.7-4.3-10.7l2.3 0zm20.8 5.7c0 4.3-3 6.2-5.8 6.2c-3.1 0-5.5-2.3-5.5-6c0-3.9 2.5-6.2 5.7-6.2c3.3 0 5.6 2.4 5.6 6zm-9.2.1c0 2.6 1.5 4.5 3.5 4.5c2 0 3.5-1.9 3.5-4.5c0-2-.9-4.5-3.4-4.5c-2.5 0-3.6 2.3-3.6 4.5zm11.9-2.7c0-1.2-.1-2.2-.1-3.1c-.03-.02 1.8 0 1.8 0l.2 1.9c0 0 .01 0 0 0c.6-1.1 1.9-2.2 3.9-2.2c1.6 0 4.1 1 4.1 5c-.04-.04 0 6.9 0 6.9l-2.2 0c0 0 .05-6.7 0-6.7c0-1.9-.7-3.4-2.6-3.4c-1.4 0-2.5 1-2.9 2.1c-.1.3-.1.7-.1 1c-.02.02 0 7 0 7l-2.1 0c0 0-.03-8.47 0-8.5zm23.3-8.5c0 0 .02 14 0 14c0 1 0 2.2.1 3c.02 0-1.9 0-1.9 0l-.1-2c0 0-.02-.02 0 0c-.7 1.3-2.1 2.3-4 2.3c-2.8 0-5-2.4-5-5.9c0-3.9 2.4-6.3 5.3-6.3c1.7 0 2.9.9 3.5 1.8c-.04 0 0 0 0 0l0-6.9l2.1 0zm-2.1 10.1c0-.3 0-.6-.1-.9c-.3-1.3-1.5-2.4-3-2.4c-2.2 0-3.5 1.9-3.5 4.5c0 2.3 1.1 4.3 3.4 4.3c1.4 0 2.7-1 3.1-2.6c.1-.2.1-.5.1-.9c0 0 0-2 0-2zm13.3-8.1l0 3.4l3 0l0 1.6l-3 0c0 0-.04 6.26 0 6.3c0 1.4.4 2.2 1.5 2.2c.6 0 1-.1 1.3-.1c0 0 .1 1.6.1 1.6c-.4.1-1.1.2-1.9.2c-1 0-1.8-.3-2.3-.8c-.6-.7-.8-1.7-.8-3.1c-.01.03 0-6.3 0-6.3l-1.8 0l0-1.6l1.8 0l0-2.8l2.1-.6zm5.4-2l2.1 0l0 7.2c0 0 .02.01 0 0c.4-.6.9-1.1 1.5-1.5c.7-.3 1.4-.6 2.2-.6c1.5 0 4 1 4 5c.05-.01 0 6.9 0 6.9l-2.1 0c0 0 .03-6.67 0-6.7c0-1.8-.7-3.4-2.7-3.4c-1.3 0-2.4.9-2.8 2.1c-.1.3-.1.6-.1 1c-.03-.01 0 7 0 7l-2.1 0l0-17zm14.5 11.6c0 2.8 1.8 4 3.9 4c1.5 0 2.5-.3 3.3-.6c0 0 .3 1.5.3 1.5c-.7.4-2 .7-3.9.7c-3.5 0-5.7-2.3-5.7-5.8c0-3.5 2.1-6.3 5.5-6.3c3.8 0 4.8 3.4 4.8 5.5c0 .4-.1.8-.1 1c0 0-8.1 0-8.1 0zm6.1-1.5c.1-1.4-.5-3.5-2.9-3.5c-2.1 0-3.1 2-3.2 3.5c0 0 6.1 0 6.1 0zm9.5 4.7c.6.4 1.7.9 2.8.9c1.5 0 2.2-.8 2.2-1.7c0-1.1-.6-1.6-2.1-2.2c-2.1-.7-3.1-1.9-3.1-3.3c0-1.8 1.5-3.4 4-3.4c1.2 0 2.2.4 2.9.7c0 0-.6 1.6-.6 1.6c-.4-.3-1.3-.7-2.3-.7c-1.3 0-2 .7-2 1.6c0 .9.7 1.4 2.2 2c2 .7 3.1 1.7 3.1 3.5c0 2-1.6 3.4-4.4 3.4c-1.2 0-2.4-.3-3.2-.8c0 0 .5-1.6.5-1.6zm11-3.2c0 2.8 1.8 4 4 4c1.5 0 2.4-.3 3.2-.6c0 0 .3 1.5.3 1.5c-.7.4-2 .7-3.8.7c-3.6 0-5.7-2.3-5.7-5.8c0-3.5 2-6.3 5.4-6.3c3.8 0 4.8 3.4 4.8 5.5c0 .4 0 .8-.1 1c0 0-8.1 0-8.1 0zm6.2-1.5c0-1.4-.6-3.5-3-3.5c-2.1 0-3 2-3.2 3.5c0 0 6.2 0 6.2 0zm7.2-8.1l0 3.4l3 0l0 1.6l-3 0c0 0-.04 6.26 0 6.3c0 1.4.4 2.2 1.5 2.2c.6 0 1-.1 1.3-.1c0 0 .1 1.6.1 1.6c-.4.1-1.1.2-1.9.2c-1 0-1.8-.3-2.3-.8c-.6-.7-.8-1.7-.8-3.1c0 .03 0-6.3 0-6.3l-1.8 0l0-1.6l1.8 0l0-2.8l2.1-.6zm10.4 7c0-1.4 0-2.5 0-3.6c-.05-.02 1.8 0 1.8 0l.1 2.3c0 0 .07-.04.1 0c.5-1.6 1.8-2.6 3.2-2.6c.2 0 .4 0 .6.1c0 0 0 2 0 2c-.2-.1-.4-.1-.7-.1c-1.5 0-2.6 1.1-2.9 2.7c0 .3-.1.6-.1 1c.04.01 0 6.2 0 6.2l-2.1 0c0 0 .05-7.99 0-8zm17.6 4.8c0 1.2 0 2.3.1 3.2c.01 0-1.9 0-1.9 0l-.1-1.9c0 0-.03 0 0 0c-.6.9-1.8 2.2-3.9 2.2c-1.8 0-4-1-4-5.1c.02-.02 0-6.8 0-6.8l2.1 0c0 0 .04 6.42 0 6.4c0 2.2.7 3.7 2.6 3.7c1.4 0 2.4-1 2.8-1.9c.1-.3.2-.7.2-1.1c0 .01 0-7.1 0-7.1l2.1 0c0 0 .02 8.43 0 8.4zm3.5-13.8l2.1 0l0 17l-2.1 0l0-17zm6.9 11.6c0 2.8 1.8 4 3.9 4c1.6 0 2.5-.3 3.3-.6c0 0 .3 1.5.3 1.5c-.7.4-2 .7-3.8.7c-3.6 0-5.8-2.3-5.8-5.8c0-3.5 2.1-6.3 5.5-6.3c3.8 0 4.8 3.4 4.8 5.5c0 .4-.1.8-.1 1c0 0-8.1 0-8.1 0zm6.2-1.5c0-1.4-.6-3.5-3-3.5c-2.1 0-3 2-3.2 3.5c0 0 6.2 0 6.2 0zm4.3 4.7c.6.4 1.7.9 2.8.9c1.5 0 2.3-.8 2.3-1.7c0-1.1-.6-1.6-2.2-2.2c-2.1-.7-3.1-1.9-3.1-3.3c0-1.8 1.5-3.4 4-3.4c1.2 0 2.2.4 2.9.7c0 0-.5 1.6-.5 1.6c-.5-.3-1.3-.7-2.4-.7c-1.3 0-2 .7-2 1.6c0 .9.7 1.4 2.3 2c2 .7 3 1.7 3 3.5c0 2-1.6 3.4-4.3 3.4c-1.3 0-2.5-.3-3.3-.8c0 0 .5-1.6.5-1.6z" stroke="none" fill="#3c3c3b"/></g><g id="Polygon6381"><path d="m5.3 1.8l0 16.2l-3.7 0l0-16.2l3.7 0zm6.2 3.1l-4.3 0l0-3.1l12.4 0l0 3.1l-4.4 0l0 13.1l-3.7 0l0-13.1zm21.3 12.6c-.7.4-2.2.7-4.2.7c-5.6 0-8.5-3.4-8.5-8c0-5.6 4-8.6 8.9-8.6c1.9 0 3.3.3 4 .7c0 0-.8 2.9-.8 2.9c-.7-.3-1.8-.6-3.1-.6c-2.9 0-5.1 1.7-5.1 5.3c0 3.3 1.9 5.3 5.2 5.3c1.1 0 2.3-.2 3-.5c0 0 .6 2.8.6 2.8zm7.1-2.7c.6.4 2 .9 3.1.9c1.1 0 1.6-.4 1.6-1c0-.6-.4-.9-1.8-1.3c-2.4-.8-3.3-2.2-3.3-3.6c0-2.1 1.9-3.8 4.8-3.8c1.3 0 2.6.3 3.3.7c0 0-.7 2.5-.7 2.5c-.5-.3-1.5-.7-2.5-.7c-.9 0-1.4.4-1.4 1c0 .5.5.8 1.9 1.3c2.2.8 3.2 1.9 3.2 3.6c0 2.2-1.7 3.8-5.1 3.8c-1.5 0-2.9-.3-3.8-.8c0 0 .7-2.6.7-2.6zm13.2-1.5c.1 1.5 1.6 2.2 3.3 2.2c1.3 0 2.3-.1 3.3-.5c0 0 .4 2.5.4 2.5c-1.2.5-2.6.7-4.2.7c-4 0-6.3-2.3-6.3-5.9c0-3 1.9-6.3 6-6.3c3.8 0 5.2 3 5.2 5.9c0 .6-.1 1.1-.1 1.4c0 0-7.6 0-7.6 0zm4.3-2.5c0-.9-.4-2.4-2.1-2.4c-1.5 0-2.1 1.4-2.2 2.4c0 0 4.3 0 4.3 0zm9.7-7.9l0 3.4l2.6 0l0 2.7l-2.6 0c0 0-.05 4.2 0 4.2c0 1.4.3 2.1 1.4 2.1c.5 0 .8-.1 1.1-.1c0 0 0 2.7 0 2.7c-.5.2-1.3.3-2.4.3c-1.2 0-2.1-.4-2.7-1c-.7-.7-1-1.8-1-3.4c-.02-.05 0-4.8 0-4.8l-1.6 0l0-2.7l1.6 0l0-2.6l3.6-.8zm16.2 9.1c0 4.3-3.1 6.3-6.2 6.3c-3.5 0-6.1-2.3-6.1-6.1c0-3.8 2.5-6.2 6.3-6.2c3.6 0 6 2.5 6 6zm-8.5.1c0 2 .8 3.5 2.4 3.5c1.4 0 2.3-1.4 2.3-3.5c0-1.7-.7-3.5-2.3-3.5c-1.8 0-2.4 1.8-2.4 3.5zm18.5 5.9l0-9l-3.7 0l0 9l-3.7 0l0-9l-1.5 0l0-2.7l1.5 0c0 0 .02-.28 0-.3c0-1.4.4-2.8 1.4-3.7c.8-.8 1.9-1.3 3.6-1.3c.6 0 1.2.1 1.5.2c0 0-.5 2.7-.5 2.7c-.3-.1-.6-.1-.9-.1c-1.1 0-1.4.9-1.4 2c-.03.03 0 .5 0 .5l3.7 0c0 0 .03-.49 0-.5c0-1.4.5-3 1.5-3.9c.9-.9 2.2-1.2 3.3-1.2c.8 0 1.4.1 1.9.2c0 0-.1 2.8-.1 2.8c-.4-.1-.7-.1-1.2-.1c-1.2 0-1.7.9-1.7 2.1c-.04-.04 0 .6 0 .6l2.3 0l0 2.7l-2.3 0l0 9l-3.7 0zm7.6-3.2c.7.4 2.1.9 3.2.9c1.1 0 1.5-.4 1.5-1c0-.6-.3-.9-1.7-1.3c-2.4-.8-3.3-2.2-3.3-3.6c0-2.1 1.9-3.8 4.8-3.8c1.3 0 2.6.3 3.3.7c0 0-.7 2.5-.7 2.5c-.5-.3-1.5-.7-2.5-.7c-.9 0-1.4.4-1.4 1c0 .5.4.8 1.9 1.3c2.2.8 3.2 1.9 3.2 3.6c0 2.2-1.8 3.8-5.1 3.8c-1.5 0-2.9-.3-3.8-.8c0 0 .6-2.6.6-2.6zm19.4-11.9l0 3.4l2.6 0l0 2.7l-2.6 0c0 0 .01 4.2 0 4.2c0 1.4.3 2.1 1.5 2.1c.4 0 .8-.1 1-.1c0 0 .1 2.7.1 2.7c-.5.2-1.4.3-2.4.3c-1.2 0-2.2-.4-2.8-1c-.6-.7-1-1.8-1-3.4c.03-.05 0-4.8 0-4.8l-1.5 0l0-2.7l1.5 0l0-2.6l3.6-.8zm16.2 9.1c0 4.3-3 6.3-6.2 6.3c-3.4 0-6.1-2.3-6.1-6.1c0-3.8 2.5-6.2 6.3-6.2c3.6 0 6 2.5 6 6zm-8.5.1c0 2 .9 3.5 2.4 3.5c1.4 0 2.3-1.4 2.3-3.5c0-1.7-.6-3.5-2.3-3.5c-1.7 0-2.4 1.8-2.4 3.5zm15.6-2.1c0-1.5 0-2.7-.1-3.7c.02-.04 3.1 0 3.1 0l.2 1.5c0 0 .03.05 0 0c.5-.7 1.6-1.8 3.6-1.8c1.5 0 2.7.8 3.2 2c0 0 0 0 0 0c.5-.6 1-1.1 1.6-1.4c.6-.4 1.3-.6 2.2-.6c2.2 0 4 1.6 4 5.1c-.05-.01 0 6.9 0 6.9l-3.6 0c0 0 0-6.38 0-6.4c0-1.7-.6-2.7-1.7-2.7c-.9 0-1.5.6-1.7 1.3c-.1.3-.2.6-.2.9c.05.04 0 6.9 0 6.9l-3.5 0c0 0-.01-6.58 0-6.6c0-1.5-.5-2.5-1.7-2.5c-.9 0-1.5.7-1.7 1.3c-.1.3-.1.7-.1 1c-.03-.04 0 6.8 0 6.8l-3.6 0c0 0 .01-7.99 0-8zm20.7 8l0-11.7l3.6 0l0 11.7l-3.6 0zm3.7-15c0 1-.7 1.8-1.9 1.8c-1.2 0-2-.8-1.9-1.8c-.1-1.1.7-1.8 1.9-1.8c1.2 0 1.9.7 1.9 1.8zm2.8 7c0-1.5 0-2.7-.1-3.7c.03-.04 3.2 0 3.2 0l.2 1.6c0 0 .04-.03 0 0c.5-.8 1.7-1.9 3.7-1.9c2.4 0 4.2 1.6 4.2 5c-.03.04 0 7 0 7l-3.7 0c0 0 .02-6.5 0-6.5c0-1.5-.5-2.5-1.8-2.5c-1 0-1.6.6-1.9 1.3c-.1.2-.1.6-.1.9c-.02.03 0 6.8 0 6.8l-3.7 0c0 0 .03-7.99 0-8zm14.1 8l0-11.7l3.6 0l0 11.7l-3.6 0zm3.8-15c0 1-.8 1.8-2 1.8c-1.2 0-1.9-.8-1.9-1.8c0-1.1.7-1.8 1.9-1.8c1.2 0 1.9.7 2 1.8zm2.8 7c0-1.5-.1-2.7-.1-3.7c-.03-.04 3 0 3 0l.2 1.5c0 0 .09.05.1 0c.5-.7 1.5-1.8 3.5-1.8c1.5 0 2.7.8 3.3 2c0 0 0 0 0 0c.4-.6 1-1.1 1.5-1.4c.7-.4 1.4-.6 2.2-.6c2.3 0 4 1.6 4 5.1c.01-.01 0 6.9 0 6.9l-3.5 0c0 0-.05-6.38 0-6.4c0-1.7-.6-2.7-1.8-2.7c-.8 0-1.4.6-1.7 1.3c-.1.3-.1.6-.1.9c0 .04 0 6.9 0 6.9l-3.6 0c0 0 .05-6.58 0-6.6c0-1.5-.5-2.5-1.6-2.5c-1 0-1.5.7-1.7 1.3c-.2.3-.2.7-.2 1c.02-.04 0 6.8 0 6.8l-3.5 0c0 0-.03-7.99 0-8zm20.6 8l0-11.7l3.7 0l0 11.7l-3.7 0zm3.8-15c0 1-.8 1.8-2 1.8c-1.1 0-1.9-.8-1.9-1.8c0-1.1.8-1.8 1.9-1.8c1.2 0 2 .7 2 1.8zm1.8 12.9c0 0 3.74-4.62 3.7-4.6c.7-.8 1.2-1.4 1.9-2.1c.02-.01 0-.1 0-.1l-5.1 0l0-2.8l9.6 0l0 2.1c0 0-3.57 4.49-3.6 4.5c-.6.8-1.2 1.5-1.9 2.1c.01.05 0 .1 0 .1l5.6 0l0 2.9l-10.2 0l0-2.1zm14.9-2.6c.1 1.5 1.6 2.2 3.3 2.2c1.2 0 2.2-.1 3.2-.5c0 0 .5 2.5.5 2.5c-1.2.5-2.7.7-4.2.7c-4 0-6.3-2.3-6.3-5.9c0-3 1.8-6.3 5.9-6.3c3.8 0 5.3 3 5.3 5.9c0 .6-.1 1.1-.2 1.4c0 0-7.5 0-7.5 0zm4.3-2.5c0-.9-.4-2.4-2.1-2.4c-1.5 0-2.1 1.4-2.2 2.4c0 0 4.3 0 4.3 0zm19.2 6.9c-.6.3-1.9.5-3.3.5c-3.8 0-6.2-2.3-6.2-6c0-3.4 2.4-6.2 6.7-6.2c1 0 2.1.2 2.8.5c0 0-.6 2.7-.6 2.7c-.4-.2-1-.4-2-.4c-1.9 0-3.2 1.4-3.1 3.3c0 2.2 1.4 3.3 3.2 3.3c.8 0 1.5-.2 2.1-.4c0 0 .4 2.7.4 2.7zm8.8.3l-.2-1.2c0 0-.1.02-.1 0c-.8 1-2 1.5-3.4 1.5c-2.3 0-3.8-1.8-3.8-3.6c0-3.1 2.8-4.5 6.9-4.5c0 0 0-.2 0-.2c0-.6-.3-1.5-2.1-1.5c-1.2 0-2.5.4-3.2.9c0 0-.7-2.4-.7-2.4c.8-.4 2.4-1 4.5-1c4 0 5.2 2.3 5.2 5.1c0 0 0 4 0 4c0 1.2.1 2.3.2 2.9c-.03 0-3.3 0-3.3 0zm-.4-5.5c-2-.1-3.5.4-3.5 1.8c0 .9.7 1.4 1.5 1.4c.9 0 1.6-.6 1.9-1.3c0-.2.1-.5.1-.7c0 0 0-1.2 0-1.2zm6.4 2.3c.6.4 2 .9 3.1.9c1.1 0 1.6-.4 1.6-1c0-.6-.4-.9-1.8-1.3c-2.4-.8-3.3-2.2-3.3-3.6c0-2.1 1.9-3.8 4.8-3.8c1.3 0 2.6.3 3.3.7c0 0-.7 2.5-.7 2.5c-.5-.3-1.5-.7-2.5-.7c-.9 0-1.4.4-1.4 1c0 .5.5.8 1.9 1.3c2.2.8 3.2 1.9 3.2 3.6c0 2.2-1.7 3.8-5.1 3.8c-1.5 0-2.9-.3-3.8-.8c0 0 .7-2.6.7-2.6zm10.4-13.8l3.6 0l0 6.7c0 0 .1-.04.1 0c.4-.5.9-.9 1.4-1.2c.6-.3 1.3-.5 1.9-.5c2.4 0 4.1 1.6 4.1 5.1c.04.04 0 6.9 0 6.9l-3.6 0c0 0-.01-6.46 0-6.5c0-1.5-.5-2.5-1.9-2.5c-1 0-1.6.6-1.8 1.2c-.1.3-.2.6-.2.8c.05.04 0 7 0 7l-3.6 0l0-17zm14.5 17l0-9l-1.6 0l0-2.7l1.6 0c0 0-.03-.56 0-.6c0-1.3.6-2.8 1.8-3.7c1.1-.9 2.6-1.3 4.4-1.3c1.8 0 3.4.3 4.5 1c.05-.02 0 16.3 0 16.3l-3.6 0c0 0 0-14.35 0-14.4c-.3-.1-.7-.2-1.4-.2c-1.5 0-2.1 1.1-2.1 2.4c.02-.02 0 .5 0 .5l2.1 0l0 2.7l-2.1 0l0 9l-3.6 0zm25.3-6c0 4.3-3.1 6.3-6.2 6.3c-3.5 0-6.1-2.3-6.1-6.1c0-3.8 2.5-6.2 6.3-6.2c3.6 0 6 2.5 6 6zm-8.5.1c0 2 .8 3.5 2.4 3.5c1.4 0 2.3-1.4 2.3-3.5c0-1.7-.7-3.5-2.3-3.5c-1.8 0-2.4 1.8-2.4 3.5zm13-5.8c0 0 .96 4.76 1 4.8c.2 1.2.4 2.5.6 3.8c0 0 .1 0 .1 0c.2-1.3.6-2.7.8-3.8c.05-.01 1.3-4.8 1.3-4.8l2.9 0c0 0 1.15 4.64 1.2 4.6c.3 1.4.6 2.7.8 4c0 0 .1 0 .1 0c.1-1.3.4-2.6.6-4c.04.02 1-4.6 1-4.6l3.6 0l-3.6 11.7l-3.4 0c0 0-1.12-4.13-1.1-4.1c-.3-1.2-.5-2.2-.8-3.7c0 0 0 0 0 0c-.2 1.5-.5 2.6-.8 3.7c.02-.03-1.2 4.1-1.2 4.1l-3.4 0l-3.4-11.7l3.7 0zm15.3 8.5c.7.4 2.1.9 3.2.9c1.1 0 1.5-.4 1.5-1c0-.6-.3-.9-1.7-1.3c-2.4-.8-3.4-2.2-3.3-3.6c0-2.1 1.8-3.8 4.7-3.8c1.4 0 2.6.3 3.3.7c0 0-.6 2.5-.6 2.5c-.5-.3-1.5-.7-2.5-.7c-.9 0-1.4.4-1.4 1c0 .5.4.8 1.9 1.3c2.2.8 3.1 1.9 3.1 3.6c0 2.2-1.7 3.8-5 3.8c-1.6 0-2.9-.3-3.8-.8c0 0 .6-2.6.6-2.6z" stroke="none" fill="#3c3c3b"/></g></svg>