<?xml version="1.0" standalone="no"?><!DOCTYPE svg PUBLIC "-//W3C//DTD SVG 1.1//EN" "http://www.w3.org/Graphics/SVG/1.1/DTD/svg11.dtd"><svg xmlns="http://www.w3.org/2000/svg" version="1.1" width="401px" height="49px" viewBox="0 -9 401 49" style="top:-9px"><desc>Interventions to reclaim ITC</desc><defs/><g id="Polygon8591"><path d="m12.4 2.4l0 21.5l-4.9 0l0-21.5l4.9 0zm4.1 10.9c0-2 0-3.6-.1-5c.01.01 4.2 0 4.2 0l.2 2.1c0 0 .13.05.1 0c.7-.9 2.3-2.4 4.8-2.4c3.2 0 5.6 2.1 5.6 6.6c.02.05 0 9.3 0 9.3l-4.8 0c0 0-.03-8.65 0-8.6c0-2.1-.7-3.4-2.5-3.4c-1.3 0-2.1.9-2.4 1.8c-.2.3-.2.8-.2 1.2c-.02 0 0 9 0 9l-4.9 0c0 0 .04-10.62 0-10.6zm23.9-9.4l0 4.4l3.5 0l0 3.6l-3.5 0c0 0 .02 5.62 0 5.6c0 1.9.5 2.8 1.9 2.8c.6 0 1.1-.1 1.5-.2c0 0 0 3.7 0 3.7c-.6.2-1.8.4-3.2.4c-1.5 0-2.8-.5-3.6-1.3c-.9-1-1.3-2.5-1.3-4.7c-.02.05 0-6.3 0-6.3l-2.1 0l0-3.6l2.1 0l0-3.4l4.7-1zm9.9 13.7c.1 2 2.1 3 4.4 3c1.6 0 3-.2 4.3-.6c0 0 .6 3.2.6 3.2c-1.6.7-3.5 1-5.6 1c-5.3 0-8.4-3.1-8.4-7.9c0-4 2.5-8.3 7.9-8.3c5 0 7 3.9 7 7.7c0 .9-.1 1.6-.2 1.9c0 0-10 0-10 0zm5.7-3.3c0-1.1-.5-3.1-2.8-3.1c-2 0-2.8 1.8-3 3.1c0 0 5.8 0 5.8 0zm7.4-.9c0-2.3-.1-3.8-.2-5.1c.02.01 4.2 0 4.2 0l.2 2.9c0 0 .08-.02.1 0c.8-2.3 2.7-3.2 4.2-3.2c.4 0 .7 0 1 0c0 0 0 4.6 0 4.6c-.3-.1-.8-.1-1.3-.1c-1.8 0-3 .9-3.3 2.4c-.1.3-.1.7-.1 1.1c-.01-.01 0 7.9 0 7.9l-4.8 0c0 0-.05-10.46 0-10.5zm16.2-5.1c0 0 2.13 7.24 2.1 7.2c.4 1.3.7 2.6.9 3.8c0 0 .1 0 .1 0c.3-1.2.5-2.4.9-3.8c-.03.04 2-7.2 2-7.2l5.1 0l-5.8 15.6l-4.9 0l-5.6-15.6l5.2 0zm16.6 9.3c.1 2 2.1 3 4.3 3c1.7 0 3-.2 4.3-.6c0 0 .7 3.2.7 3.2c-1.6.7-3.6 1-5.7 1c-5.2 0-8.3-3.1-8.3-7.9c0-4 2.5-8.3 7.9-8.3c5 0 6.9 3.9 6.9 7.7c0 .9-.1 1.6-.1 1.9c0 0-10 0-10 0zm5.7-3.3c0-1.1-.6-3.1-2.8-3.1c-2 0-2.9 1.8-3 3.1c0 0 5.8 0 5.8 0zm7.3-1c0-2 0-3.6-.1-5c.01.01 4.2 0 4.2 0l.2 2.1c0 0 .14.05.1 0c.7-.9 2.3-2.4 4.8-2.4c3.2 0 5.6 2.1 5.6 6.6c.02.05 0 9.3 0 9.3l-4.8 0c0 0-.02-8.65 0-8.6c0-2.1-.7-3.4-2.5-3.4c-1.3 0-2.1.9-2.4 1.8c-.2.3-.2.8-.2 1.2c-.02 0 0 9 0 9l-4.9 0c0 0 .04-10.62 0-10.6zm23.9-9.4l0 4.4l3.5 0l0 3.6l-3.5 0c0 0 .03 5.62 0 5.6c0 1.9.5 2.8 1.9 2.8c.6 0 1.1-.1 1.5-.2c0 0 0 3.7 0 3.7c-.6.2-1.8.4-3.2.4c-1.5 0-2.8-.5-3.6-1.3c-.9-1-1.3-2.5-1.3-4.7c-.02.05 0-6.3 0-6.3l-2.1 0l0-3.6l2.1 0l0-3.4l4.7-1zm6.3 20l0-15.6l4.8 0l0 15.6l-4.8 0zm5-19.9c0 1.3-1 2.4-2.6 2.4c-1.5 0-2.6-1.1-2.5-2.4c-.1-1.4 1-2.5 2.5-2.5c1.6 0 2.6 1.1 2.6 2.5zm19.1 11.9c0 5.7-4 8.3-8.2 8.3c-4.6 0-8.1-3-8.1-8c0-5 3.3-8.2 8.3-8.2c4.8 0 8 3.2 8 7.9zm-11.3.2c0 2.7 1.1 4.7 3.2 4.7c1.9 0 3.1-1.9 3.1-4.7c0-2.3-.9-4.7-3.1-4.7c-2.3 0-3.2 2.4-3.2 4.7zm14.3-2.8c0-2-.1-3.6-.1-5c-.03.01 4.2 0 4.2 0l.2 2.1c0 0 .09.05.1 0c.6-.9 2.2-2.4 4.8-2.4c3.2 0 5.6 2.1 5.6 6.6c-.03.05 0 9.3 0 9.3l-4.9 0c0 0 .03-8.65 0-8.6c0-2.1-.7-3.4-2.4-3.4c-1.4 0-2.2.9-2.5 1.8c-.1.3-.2.8-.2 1.2c.04 0 0 9 0 9l-4.8 0c0 0 0-10.62 0-10.6zm18.6 6.3c.9.6 2.8 1.2 4.2 1.2c1.5 0 2.1-.5 2.1-1.3c0-.8-.5-1.2-2.3-1.8c-3.2-1-4.5-2.8-4.4-4.6c0-2.9 2.4-5.1 6.3-5.1c1.8 0 3.4.4 4.4.9c0 0-.9 3.3-.9 3.3c-.7-.4-2-.9-3.4-.9c-1.1 0-1.8.5-1.8 1.3c0 .7.6 1.1 2.5 1.8c3 1 4.2 2.5 4.3 4.8c0 2.9-2.3 5-6.8 5c-2 0-3.9-.4-5-1.1c0 0 .8-3.5.8-3.5zm25.7-15.7l0 4.4l3.5 0l0 3.6l-3.5 0c0 0 .03 5.62 0 5.6c0 1.9.5 2.8 1.9 2.8c.6 0 1.1-.1 1.5-.2c0 0 0 3.7 0 3.7c-.6.2-1.8.4-3.2.4c-1.5 0-2.8-.5-3.6-1.3c-.9-1-1.3-2.5-1.3-4.7c-.02.05 0-6.3 0-6.3l-2.1 0l0-3.6l2.1 0l0-3.4l4.7-1zm21.5 12c0 5.7-4 8.3-8.2 8.3c-4.5 0-8.1-3-8.1-8c0-5 3.4-8.2 8.4-8.2c4.7 0 7.9 3.2 7.9 7.9zm-11.3.2c0 2.7 1.2 4.7 3.2 4.7c1.9 0 3.1-1.9 3.1-4.7c0-2.3-.9-4.7-3.1-4.7c-2.3 0-3.2 2.4-3.2 4.7zm20.7-2.7c0-2.3 0-3.8-.1-5.1c.02.01 4.2 0 4.2 0l.2 2.9c0 0 .08-.02.1 0c.8-2.3 2.7-3.2 4.2-3.2c.4 0 .7 0 1 0c0 0 0 4.6 0 4.6c-.3-.1-.8-.1-1.3-.1c-1.8 0-3 .9-3.3 2.4c-.1.3-.1.7-.1 1.1c-.01-.01 0 7.9 0 7.9l-4.9 0c0 0 .05-10.46 0-10.5zm15.6 4.2c.2 2 2.2 3 4.4 3c1.7 0 3-.2 4.3-.6c0 0 .7 3.2.7 3.2c-1.6.7-3.6 1-5.7 1c-5.3 0-8.3-3.1-8.3-7.9c0-4 2.5-8.3 7.9-8.3c5 0 6.9 3.9 6.9 7.7c0 .9-.1 1.6-.1 1.9c0 0-10.1 0-10.1 0zm5.7-3.3c0-1.1-.5-3.1-2.7-3.1c-2.1 0-2.9 1.8-3 3.1c0 0 5.7 0 5.7 0zm19.1 9.2c-.9.4-2.5.7-4.3.7c-5.1 0-8.3-3.1-8.3-8c0-4.5 3.1-8.2 8.9-8.2c1.3 0 2.7.2 3.7.6c0 0-.7 3.6-.7 3.6c-.6-.3-1.5-.5-2.7-.5c-2.6 0-4.2 1.8-4.2 4.4c0 2.8 1.9 4.3 4.3 4.3c1.1 0 2-.2 2.7-.5c0 0 .6 3.6.6 3.6zm2.7-22.2l4.8 0l0 22.6l-4.8 0l0-22.6zm17.6 22.6l-.3-1.6c0 0-.1.02-.1 0c-1 1.3-2.6 1.9-4.5 1.9c-3.1 0-5-2.3-5-4.7c0-4.1 3.6-6 9.1-6c0 0 0-.2 0-.2c0-.8-.4-2-2.8-2c-1.6 0-3.3.5-4.3 1.2c0 0-.9-3.2-.9-3.2c1.1-.6 3.2-1.3 6.1-1.3c5.2 0 6.8 3 6.8 6.7c0 0 0 5.4 0 5.4c0 1.5.1 2.9.2 3.8c.04-.02-4.3 0-4.3 0zm-.6-7.4c-2.5 0-4.5.6-4.5 2.5c0 1.2.8 1.8 1.9 1.8c1.2 0 2.2-.8 2.5-1.8c.1-.2.1-.5.1-.8c0 0 0-1.7 0-1.7zm8.5 7.4l0-15.6l4.9 0l0 15.6l-4.9 0zm5-19.9c0 1.3-1 2.4-2.6 2.4c-1.5 0-2.5-1.1-2.5-2.4c0-1.4 1-2.5 2.6-2.5c1.5 0 2.5 1.1 2.5 2.5zm3.8 9.3c0-2-.1-3.6-.2-5c.04.01 4.1 0 4.1 0l.2 2.1c0 0 .14.01.1 0c.7-1 2.1-2.4 4.7-2.4c2.1 0 3.6 1 4.3 2.6c0 0 .1 0 .1 0c.6-.8 1.3-1.4 2-1.9c.8-.5 1.8-.7 2.9-.7c3 0 5.3 2.1 5.3 6.7c0 .01 0 9.2 0 9.2l-4.7 0c0 0-.01-8.49 0-8.5c0-2.2-.7-3.6-2.3-3.6c-1.1 0-1.9.8-2.2 1.7c-.2.4-.2.9-.2 1.3c-.02-.02 0 9.1 0 9.1l-4.7 0c0 0-.04-8.74 0-8.7c0-2-.7-3.4-2.3-3.4c-1.2 0-1.9 1-2.2 1.8c-.2.4-.2.8-.2 1.2c-.02.01 0 9.1 0 9.1l-4.7 0c0 0-.03-10.62 0-10.6zm38.8-10.9l0 21.5l-4.9 0l0-21.5l4.9 0zm8.4 4.1l-5.8 0l0-4.1l16.5 0l0 4.1l-5.9 0l0 17.4l-4.8 0l0-17.4zm28.1 16.8c-.9.4-2.9.9-5.5.9c-7.4 0-11.2-4.6-11.2-10.7c0-7.4 5.2-11.4 11.7-11.4c2.5 0 4.4.5 5.3.9c0 0-1 3.9-1 3.9c-1-.4-2.4-.8-4.1-.8c-3.8 0-6.8 2.3-6.8 7.1c0 4.3 2.5 7 6.8 7c1.5 0 3.1-.3 4.1-.7c0 0 .7 3.8.7 3.8z" stroke="none" fill="#15345e"/></g></svg>