<?xml version="1.0" standalone="no"?><!DOCTYPE svg PUBLIC "-//W3C//DTD SVG 1.1//EN" "http://www.w3.org/Graphics/SVG/1.1/DTD/svg11.dtd"><svg xmlns="http://www.w3.org/2000/svg" version="1.1" width="231px" height="85.5px" viewBox="0 -7 231 85.5" style="top:-7px"><desc>Here’s what makes it different</desc><defs/><g id="Polygon6661"><path d="m2.2 62.5l0-14.5l2.6 0l0 14.5l-2.6 0zm2.9-18.6c.1.9-.6 1.6-1.7 1.6c-.9 0-1.5-.7-1.5-1.6c0-.9.6-1.6 1.6-1.6c1 0 1.6.7 1.6 1.6zm7.3-.1l0 4.2l3.8 0l0 2l-3.8 0c0 0-.01 7.82 0 7.8c0 1.8.5 2.8 2 2.8c.7 0 1.2 0 1.5-.1c0 0 .1 1.9.1 1.9c-.5.2-1.3.4-2.3.4c-1.3 0-2.2-.4-2.9-1.1c-.7-.8-1-2.1-1-3.8c.01.01 0-7.9 0-7.9l-2.2 0l0-2l2.2 0l0-3.5l2.6-.7zm25.6-2.6c0 0 .04 17.55 0 17.6c0 1.2.1 2.7.2 3.7c-.04 0-2.4 0-2.4 0l-.1-2.5c0 0-.09-.02-.1 0c-.8 1.6-2.6 2.8-4.9 2.8c-3.6 0-6.3-2.9-6.3-7.3c0-4.9 3-7.8 6.6-7.8c2.2 0 3.7 1 4.3 2.2c.04-.03.1 0 .1 0l0-8.7l2.6 0zm-2.6 12.7c0-.3 0-.8-.1-1.1c-.4-1.7-1.9-3.1-3.8-3.1c-2.8 0-4.4 2.4-4.4 5.6c0 3 1.5 5.4 4.3 5.4c1.8 0 3.4-1.2 3.9-3.1c.1-.4.1-.8.1-1.2c0 0 0-2.5 0-2.5zm7 8.6l0-14.5l2.7 0l0 14.5l-2.7 0zm3-18.6c0 .9-.7 1.6-1.7 1.6c-1 0-1.6-.7-1.6-1.6c0-.9.7-1.6 1.6-1.6c1 0 1.7.7 1.7 1.6zm13 18.6l0-12.5l-6.1 0l0 12.5l-2.6 0l0-12.5l-2 0l0-2l2 0c0 0 .01-.5 0-.5c0-2 .5-3.8 1.6-4.9c.9-.9 2.1-1.4 3.7-1.4c.8 0 1.6.3 2.1.5c0 0-.6 2-.6 2c-.4-.2-.9-.4-1.5-.4c-2.1 0-2.7 1.8-2.7 4.1c.02-.05 0 .6 0 .6l6.1 0c0 0 .01-.71 0-.7c0-2 .5-3.9 1.7-5.1c1-.9 2.3-1.3 3.5-1.3c1 0 1.8.2 2.3.4c0 0-.4 2-.4 2c-.4-.2-.9-.3-1.7-.3c-2.2 0-2.8 2-2.8 4.2c.02 0 0 .8 0 .8l3.5 0l0 2l-3.5 0l0 12.5l-2.6 0zm9.6-6.8c.1 3.6 2.3 5.1 5 5.1c1.9 0 3-.4 4-.8c0 0 .5 1.9.5 1.9c-1 .4-2.6.9-4.9.9c-4.4 0-7.1-2.9-7.1-7.3c0-4.4 2.6-7.8 6.8-7.8c4.7 0 6 4.1 6 6.8c0 .5-.1 1-.1 1.2c0 0-10.2 0-10.2 0zm7.7-1.9c.1-1.6-.6-4.3-3.6-4.3c-2.7 0-3.9 2.5-4.1 4.3c0 0 7.7 0 7.7 0zm5.9-1.3c0-1.7-.1-3.2-.2-4.5c.05-.02 2.4 0 2.4 0l0 2.8c0 0 .17.03.2 0c.6-1.9 2.2-3.1 4-3.1c.3 0 .5 0 .7 0c0 0 0 2.5 0 2.5c-.2 0-.5-.1-.9-.1c-1.8 0-3.1 1.5-3.5 3.4c-.1.4-.1.8-.1 1.3c-.02-.04 0 7.7 0 7.7l-2.6 0c0 0-.03-9.99 0-10zm10.9 3.2c.1 3.6 2.4 5.1 5 5.1c1.9 0 3.1-.4 4-.8c0 0 .5 1.9.5 1.9c-.9.4-2.5.9-4.8.9c-4.5 0-7.2-2.9-7.2-7.3c0-4.4 2.6-7.8 6.8-7.8c4.8 0 6 4.1 6 6.8c0 .5 0 1-.1 1.2c0 0-10.2 0-10.2 0zm7.8-1.9c0-1.6-.7-4.3-3.7-4.3c-2.6 0-3.8 2.5-4 4.3c0 0 7.7 0 7.7 0zm5.8-1.9c0-1.5 0-2.7-.1-3.9c-.01-.02 2.3 0 2.3 0l.2 2.4c0 0 .04-.02 0 0c.8-1.4 2.4-2.7 4.8-2.7c2 0 5.2 1.2 5.2 6.1c-.03.03 0 8.7 0 8.7l-2.7 0c0 0 .03-8.37 0-8.4c0-2.3-.8-4.3-3.3-4.3c-1.8 0-3.1 1.3-3.6 2.7c-.1.4-.2.8-.2 1.3c.05-.03 0 8.7 0 8.7l-2.6 0c0 0 .01-10.59 0-10.6zm19.7-8.1l0 4.2l3.8 0l0 2l-3.8 0c0 0 .02 7.82 0 7.8c0 1.8.5 2.8 2 2.8c.7 0 1.2 0 1.5-.1c0 0 .1 1.9.1 1.9c-.5.2-1.3.4-2.3.4c-1.2 0-2.2-.4-2.8-1.1c-.8-.8-1.1-2.1-1.1-3.8c.04.01 0-7.9 0-7.9l-2.2 0l0-2l2.2 0l0-3.5l2.6-.7z" stroke="none" fill="#3c3c3b"/></g><g id="Polygon6660"><path d="m4.9 2.3l0 8.4l9.8 0l0-8.4l2.6 0l0 20.2l-2.6 0l0-9.5l-9.8 0l0 9.5l-2.6 0l0-20.2l2.6 0zm18.3 13.4c.1 3.6 2.4 5.1 5 5.1c1.9 0 3-.4 4-.8c0 0 .5 1.9.5 1.9c-1 .4-2.6.9-4.9.9c-4.4 0-7.1-2.9-7.1-7.3c0-4.4 2.6-7.8 6.8-7.8c4.7 0 6 4.1 6 6.8c0 .5-.1 1-.1 1.2c0 0-10.2 0-10.2 0zm7.8-1.9c0-1.6-.7-4.3-3.7-4.3c-2.7 0-3.8 2.5-4.1 4.3c0 0 7.8 0 7.8 0zm5.8-1.3c0-1.7-.1-3.2-.1-4.5c-.04-.02 2.3 0 2.3 0l.1 2.8c0 0 .08.03.1 0c.6-1.9 2.2-3.1 4-3.1c.3 0 .5 0 .7 0c0 0 0 2.5 0 2.5c-.2 0-.5-.1-.9-.1c-1.8 0-3.1 1.5-3.5 3.4c-.1.4-.1.8-.1 1.3c-.01-.04 0 7.7 0 7.7l-2.6 0c0 0-.02-9.99 0-10zm11 3.2c0 3.6 2.3 5.1 4.9 5.1c1.9 0 3.1-.4 4.1-.8c0 0 .4 1.9.4 1.9c-.9.4-2.5.9-4.8.9c-4.5 0-7.2-2.9-7.2-7.3c0-4.4 2.6-7.8 6.8-7.8c4.8 0 6 4.1 6 6.8c0 .5 0 1 0 1.2c0 0-10.2 0-10.2 0zm7.7-1.9c0-1.6-.7-4.3-3.7-4.3c-2.6 0-3.8 2.5-4 4.3c0 0 7.7 0 7.7 0zm8.4-11.8c-.7 2.5-2 5.7-2.8 7.1c0 0-1.7.2-1.7.2c.7-1.8 1.4-4.9 1.8-7.1c0 0 2.7-.2 2.7-.2zm.4 17.8c.7.5 2.1 1.1 3.4 1.1c2 0 2.9-1 2.9-2.2c0-1.3-.8-2-2.7-2.7c-2.7-.9-3.9-2.3-3.9-4.1c0-2.3 1.9-4.2 5-4.2c1.5 0 2.8.4 3.6.9c0 0-.7 1.9-.7 1.9c-.5-.4-1.6-.9-2.9-.9c-1.6 0-2.5.9-2.5 2c0 1.2.9 1.8 2.8 2.5c2.5.9 3.8 2.2 3.8 4.4c0 2.5-2 4.3-5.4 4.3c-1.6 0-3.1-.4-4.1-1c0 0 .7-2 .7-2zm19.6-11.8c0 0 1.93 7.36 1.9 7.4c.4 1.6.8 3.1 1.1 4.6c0 0 .1 0 .1 0c.3-1.5.8-3 1.3-4.6c-.01-.01 2.4-7.4 2.4-7.4l2.2 0c0 0 2.23 7.24 2.2 7.2c.6 1.8 1 3.3 1.3 4.8c0 0 .1 0 .1 0c.2-1.5.6-3 1.1-4.7c.02-.03 2.1-7.3 2.1-7.3l2.6 0l-4.7 14.5l-2.4 0c0 0-2.2-6.93-2.2-6.9c-.5-1.7-.9-3.1-1.3-4.8c0 0-.1 0-.1 0c-.3 1.7-.8 3.2-1.3 4.8c.03 0-2.3 6.9-2.3 6.9l-2.4 0l-4.4-14.5l2.7 0zm21-6.8l2.7 0l0 9.1c0 0 .04-.04 0 0c.5-.8 1.1-1.4 1.9-1.9c.8-.4 1.7-.7 2.7-.7c2 0 5.1 1.2 5.1 6.2c0-.04 0 8.6 0 8.6l-2.6 0c0 0-.04-8.34 0-8.3c0-2.4-.9-4.4-3.4-4.4c-1.7 0-3.1 1.2-3.5 2.7c-.2.3-.2.7-.2 1.2c-.02.04 0 8.8 0 8.8l-2.7 0l0-21.3zm24.7 21.3l-.2-1.8c0 0-.07-.03-.1 0c-.8 1.1-2.3 2.1-4.4 2.1c-3 0-4.5-2-4.5-4.1c0-3.5 3.2-5.5 8.8-5.4c0 0 0-.3 0-.3c0-1.2-.4-3.4-3.3-3.4c-1.4 0-2.8.4-3.8 1.1c0 0-.6-1.8-.6-1.8c1.2-.7 2.9-1.2 4.8-1.2c4.4 0 5.5 3 5.5 5.9c0 0 0 5.4 0 5.4c0 1.3 0 2.5.2 3.5c.03 0-2.4 0-2.4 0zm-.4-7.4c-2.8-.1-6.1.4-6.1 3.3c0 1.7 1.1 2.5 2.5 2.5c1.9 0 3.1-1.2 3.5-2.4c.1-.3.1-.6.1-.9c0 0 0-2.5 0-2.5zm9.9-11.3l0 4.2l3.8 0l0 2l-3.8 0c0 0 .01 7.82 0 7.8c0 1.8.5 2.8 2 2.8c.7 0 1.2 0 1.5-.1c0 0 .1 1.9.1 1.9c-.5.2-1.3.4-2.3.4c-1.2 0-2.2-.4-2.9-1.1c-.7-.8-1-2.1-1-3.8c.03.01 0-7.9 0-7.9l-2.2 0l0-2l2.2 0l0-3.5l2.6-.7zm13.1 8.1c0-1.5 0-2.7-.1-3.9c0-.02 2.3 0 2.3 0l.1 2.3c0 0 .12.02.1 0c.8-1.4 2.2-2.6 4.6-2.6c2 0 3.5 1.2 4.1 2.9c0 0 0 0 0 0c.5-.8 1.1-1.5 1.7-1.9c.8-.7 1.8-1 3.2-1c1.9 0 4.7 1.2 4.7 6.2c.05.05 0 8.6 0 8.6l-2.5 0c0 0-.03-8.22 0-8.2c0-2.8-1.1-4.5-3.2-4.5c-1.5 0-2.7 1.1-3.1 2.4c-.1.4-.2.9-.2 1.3c-.01.03 0 9 0 9l-2.6 0c0 0 .01-8.7 0-8.7c0-2.3-1-4-3-4c-1.7 0-2.9 1.3-3.3 2.6c-.1.4-.2.9-.2 1.3c0 .04 0 8.8 0 8.8l-2.6 0c0 0 .02-10.59 0-10.6zm33.1 10.6l-.2-1.8c0 0-.12-.03-.1 0c-.8 1.1-2.4 2.1-4.5 2.1c-2.9 0-4.4-2-4.4-4.1c0-3.5 3.1-5.5 8.7-5.4c0 0 0-.3 0-.3c0-1.2-.3-3.4-3.3-3.4c-1.3 0-2.7.4-3.8 1.1c0 0-.6-1.8-.6-1.8c1.2-.7 3-1.2 4.8-1.2c4.5 0 5.5 3 5.5 5.9c0 0 0 5.4 0 5.4c0 1.3.1 2.5.3 3.5c-.02 0-2.4 0-2.4 0zm-.4-7.4c-2.9-.1-6.2.4-6.2 3.3c0 1.7 1.2 2.5 2.5 2.5c1.9 0 3.1-1.2 3.5-2.4c.1-.3.2-.6.2-.9c0 0 0-2.5 0-2.5zm9.4-.5c0 0 .07.04.1 0c.3-.5.8-1.1 1.3-1.6c-.04-.01 4.2-5 4.2-5l3.2 0l-5.6 5.9l6.4 8.6l-3.2 0l-5-7l-1.4 1.5l0 5.5l-2.6 0l0-21.3l2.6 0l0 13.4zm12.9 1.1c.1 3.6 2.4 5.1 5 5.1c1.9 0 3-.4 4-.8c0 0 .5 1.9.5 1.9c-.9.4-2.5.9-4.8.9c-4.5 0-7.2-2.9-7.2-7.3c0-4.4 2.6-7.8 6.8-7.8c4.8 0 6 4.1 6 6.8c0 .5 0 1-.1 1.2c0 0-10.2 0-10.2 0zm7.8-1.9c0-1.6-.7-4.3-3.7-4.3c-2.7 0-3.8 2.5-4 4.3c0 0 7.7 0 7.7 0zm5.4 6c.8.5 2.2 1.1 3.5 1.1c1.9 0 2.8-1 2.8-2.2c0-1.3-.7-2-2.7-2.7c-2.6-.9-3.8-2.3-3.8-4.1c0-2.3 1.9-4.2 5-4.2c1.5 0 2.8.4 3.6.9c0 0-.7 1.9-.7 1.9c-.6-.4-1.6-.9-3-.9c-1.5 0-2.4.9-2.4 2c0 1.2.9 1.8 2.8 2.5c2.5.9 3.8 2.2 3.8 4.4c0 2.5-2 4.3-5.4 4.3c-1.6 0-3.1-.4-4.1-1c0 0 .6-2 .6-2z" stroke="none" fill="#3c3c3b"/></g></svg>