<?xml version="1.0" standalone="no"?><!DOCTYPE svg PUBLIC "-//W3C//DTD SVG 1.1//EN" "http://www.w3.org/Graphics/SVG/1.1/DTD/svg11.dtd"><svg xmlns="http://www.w3.org/2000/svg" version="1.1" width="418px" height="291.5px" viewBox="0 -8 418 291.5" style="top:-8px"><desc>Unblock ITC is more than just reconciliation! Experience the synergy between the integration experts, account managem...</desc><defs/><g id="Polygon7185"><path d="m75 257c0-1.5-.1-2.8-.1-4c-.04.04 2.3 0 2.3 0l.1 2.4c0 0 .08-.02.1 0c.8-1.4 2.1-2.7 4.5-2.7c2 0 3.5 1.2 4.1 2.9c0 0 .1 0 .1 0c.5-.8 1-1.4 1.6-1.9c.9-.6 1.9-1 3.2-1c2 0 4.8 1.3 4.8 6.3c.01.01 0 8.6 0 8.6l-2.6 0c0 0 .03-8.26 0-8.3c0-2.7-1-4.4-3.1-4.4c-1.5 0-2.7 1.1-3.1 2.4c-.2.3-.3.8-.3 1.3c.05-.01 0 9 0 9l-2.5 0c0 0-.03-8.74 0-8.7c0-2.3-1.1-4-3.1-4c-1.6 0-2.8 1.3-3.2 2.6c-.2.4-.2.9-.2 1.3c-.04 0 0 8.8 0 8.8l-2.6 0c0 0-.02-10.63 0-10.6zm33 10.6l-.2-1.9c0 0-.06.03-.1 0c-.8 1.2-2.3 2.2-4.4 2.2c-2.9 0-4.4-2.1-4.4-4.2c0-3.5 3.1-5.4 8.7-5.4c0 0 0-.3 0-.3c0-1.2-.3-3.3-3.3-3.3c-1.4 0-2.8.4-3.8 1c0 0-.6-1.7-.6-1.7c1.2-.8 2.9-1.3 4.8-1.3c4.4 0 5.5 3 5.5 6c0 0 0 5.4 0 5.4c0 1.2.1 2.5.2 3.5c.04-.04-2.4 0-2.4 0zm-.4-7.4c-2.8-.1-6.1.4-6.1 3.2c0 1.7 1.1 2.5 2.5 2.5c1.9 0 3.1-1.2 3.5-2.4c.1-.3.1-.6.1-.8c0 0 0-2.5 0-2.5zm8.1-7.2c0 0 2.06 3.16 2.1 3.2c.5.8.9 1.5 1.4 2.3c0 0 .1 0 .1 0c.5-.8 1-1.6 1.5-2.4c-.04.03 2-3.1 2-3.1l2.8 0l-4.9 7.1l5.1 7.5l-3 0c0 0-2.13-3.31-2.1-3.3c-.6-.8-1.1-1.7-1.6-2.5c0 0-.1 0-.1 0c-.4.8-.9 1.6-1.5 2.5c.02-.01-2.1 3.3-2.1 3.3l-2.9 0l5.2-7.4l-5-7.2l3 0zm12.6 14.6l0-14.6l2.7 0l0 14.6l-2.7 0zm3-18.6c0 .9-.6 1.6-1.7 1.6c-.9 0-1.6-.7-1.6-1.6c0-1 .7-1.7 1.7-1.7c1 0 1.6.7 1.6 1.7zm4.1 8c0-1.5-.1-2.8-.2-4c.05.04 2.4 0 2.4 0l.1 2.4c0 0 .07-.02.1 0c.8-1.4 2.1-2.7 4.5-2.7c2 0 3.5 1.2 4.1 2.9c0 0 .1 0 .1 0c.4-.8 1-1.4 1.6-1.9c.9-.6 1.8-1 3.2-1c1.9 0 4.8 1.3 4.8 6.3c0 .01 0 8.6 0 8.6l-2.6 0c0 0 .02-8.26 0-8.3c0-2.7-1-4.4-3.1-4.4c-1.5 0-2.7 1.1-3.2 2.4c-.1.3-.2.8-.2 1.3c.04-.01 0 9 0 9l-2.5 0c0 0-.04-8.74 0-8.7c0-2.3-1.1-4-3.1-4c-1.6 0-2.8 1.3-3.2 2.6c-.2.4-.3.9-.3 1.3c.05 0 0 8.8 0 8.8l-2.5 0c0 0-.03-10.63 0-10.6zm37.1 6.6c0 1.5.1 2.8.2 4c-.04-.04-2.4 0-2.4 0l-.1-2.4c0 0-.09-.01-.1 0c-.7 1.2-2.2 2.7-4.8 2.7c-2.3 0-5-1.3-5-6.4c0 .03 0-8.5 0-8.5l2.6 0c0 0 .04 8.08 0 8.1c0 2.7.9 4.6 3.3 4.6c1.7 0 3-1.2 3.5-2.4c.1-.4.2-.9.2-1.3c0-.05 0-9 0-9l2.6 0c0 0 .04 10.6 0 10.6zm4.4-6.6c0-1.5 0-2.8-.1-4c0 .04 2.3 0 2.3 0l.1 2.4c0 0 .12-.02.1 0c.8-1.4 2.2-2.7 4.6-2.7c2 0 3.5 1.2 4.1 2.9c0 0 0 0 0 0c.5-.8 1.1-1.4 1.7-1.9c.8-.6 1.8-1 3.2-1c1.9 0 4.7 1.3 4.7 6.3c.05.01 0 8.6 0 8.6l-2.5 0c0 0-.03-8.26 0-8.3c0-2.7-1.1-4.4-3.2-4.4c-1.5 0-2.7 1.1-3.1 2.4c-.1.3-.2.8-.2 1.3c-.01-.01 0 9 0 9l-2.6 0c0 0 .01-8.74 0-8.7c0-2.3-1-4-3-4c-1.7 0-2.9 1.3-3.3 2.6c-.1.4-.2.9-.2 1.3c0 0 0 8.8 0 8.8l-2.6 0c0 0 .02-10.63 0-10.6zm34.1-9.7l0 20.3l-2.6 0l0-20.3l2.6 0zm8.4 2.3l-6.2 0l0-2.3l15 0l0 2.3l-6.2 0l0 18l-2.6 0l0-18zm24.4 17.3c-1 .5-2.9 1-5.4 1c-5.7 0-9.9-3.6-9.9-10.3c0-6.3 4.2-10.6 10.5-10.6c2.5 0 4.1.6 4.8.9c0 0-.6 2.1-.6 2.1c-1-.4-2.4-.8-4.1-.8c-4.7 0-7.9 3-7.9 8.3c0 5 2.9 8.2 7.8 8.2c1.6 0 3.2-.4 4.2-.9c0 0 .6 2.1.6 2.1zm9.8.7l0-12.5l-2 0l0-2.1l2 0c0 0-.01-.65 0-.6c0-2.1.4-3.9 1.7-5.1c1-1 2.3-1.4 3.5-1.4c.9 0 1.8.2 2.3.5c0 0-.4 2-.4 2c-.4-.2-.9-.3-1.7-.3c-2.2 0-2.8 1.9-2.8 4.2c0-.04 0 .7 0 .7l3.5 0l0 2.1l-3.5 0l0 12.5l-2.6 0zm21.2-7.4c0 5.4-3.7 7.7-7.2 7.7c-3.9 0-7-2.9-7-7.5c0-4.8 3.2-7.7 7.2-7.7c4.2 0 7 3 7 7.5zm-11.5.1c0 3.2 1.8 5.6 4.4 5.6c2.5 0 4.4-2.4 4.4-5.6c0-2.5-1.2-5.6-4.3-5.6c-3.1 0-4.5 2.9-4.5 5.6zm14.9-2.7c0-1.7-.1-3.2-.2-4.6c.04.04 2.4 0 2.4 0l0 2.9c0 0 .16-.01.2 0c.6-2 2.2-3.2 4-3.2c.3 0 .5 0 .7.1c0 0 0 2.5 0 2.5c-.2-.1-.5-.1-.9-.1c-1.8 0-3.1 1.4-3.5 3.4c-.1.4-.1.8-.1 1.2c-.03.02 0 7.8 0 7.8l-2.6 0c0 0-.04-10.03 0-10zm17.1-4.6c0 0 3.17 8.62 3.2 8.6c.3 1 .7 2.1.9 3c0 0 .1 0 .1 0c.2-.9.5-2 .9-3c-.01-.04 2.9-8.6 2.9-8.6l2.8 0c0 0-4 10.39-4 10.4c-1.9 5-3.2 7.5-5 9.1c-1.3 1.1-2.6 1.6-3.2 1.7c0 0-.7-2.2-.7-2.2c.7-.2 1.6-.7 2.3-1.3c.8-.6 1.7-1.6 2.3-3c.1-.2.2-.4.2-.6c0-.1-.1-.3-.2-.7c-.02.02-5.4-13.4-5.4-13.4l2.9 0zm26 7.2c0 5.4-3.7 7.7-7.2 7.7c-4 0-7-2.9-7-7.5c0-4.8 3.2-7.7 7.2-7.7c4.2 0 7 3 7 7.5zm-11.5.1c0 3.2 1.8 5.6 4.4 5.6c2.5 0 4.4-2.4 4.4-5.6c0-2.5-1.2-5.6-4.3-5.6c-3.2 0-4.5 2.9-4.5 5.6zm27 3.3c0 1.5 0 2.8.1 4c0-.04-2.3 0-2.3 0l-.2-2.4c0 0-.05-.01 0 0c-.7 1.2-2.3 2.7-4.8 2.7c-2.3 0-5.1-1.3-5.1-6.4c.04.03 0-8.5 0-8.5l2.7 0c0 0-.02 8.08 0 8.1c0 2.7.8 4.6 3.2 4.6c1.8 0 3-1.2 3.5-2.4c.2-.4.2-.9.2-1.3c.04-.05 0-9 0-9l2.7 0c0 0-.02 10.6 0 10.6zm3.5 2.4c0-1.1.7-1.9 1.8-1.9c1 0 1.8.8 1.8 1.9c0 1.1-.7 1.9-1.8 1.9c-1.1 0-1.8-.8-1.8-1.9z" stroke="none" fill="#fff"/></g><g id="Polygon7184"><path d="m55.8 227.6l-.2-1.9c0 0-.08.03-.1 0c-.8 1.2-2.3 2.2-4.4 2.2c-3 0-4.5-2.1-4.5-4.2c0-3.5 3.2-5.4 8.8-5.4c0 0 0-.3 0-.3c0-1.2-.4-3.3-3.3-3.3c-1.4 0-2.8.4-3.8 1c0 0-.6-1.7-.6-1.7c1.2-.8 2.9-1.3 4.8-1.3c4.4 0 5.5 3 5.5 6c0 0 0 5.4 0 5.4c0 1.2 0 2.5.2 3.5c.02-.04-2.4 0-2.4 0zm-.4-7.4c-2.8-.1-6.1.4-6.1 3.2c0 1.7 1.1 2.5 2.5 2.5c1.9 0 3.1-1.2 3.5-2.4c.1-.3.1-.6.1-.8c0 0 0-2.5 0-2.5zm6.8-3.2c0-1.5 0-2.8-.1-4c.02.04 2.4 0 2.4 0l.1 2.4c0 0 .07.04.1 0c.7-1.3 2.4-2.7 4.8-2.7c2 0 5.1 1.2 5.1 6.2c0-.01 0 8.7 0 8.7l-2.6 0c0 0-.04-8.41 0-8.4c0-2.3-.9-4.3-3.4-4.3c-1.7 0-3.1 1.2-3.5 2.7c-.2.3-.2.8-.2 1.2c-.02.03 0 8.8 0 8.8l-2.7 0c0 0 .04-10.63 0-10.6zm29.2-10.7c0 0 .03 17.51 0 17.5c0 1.3.1 2.8.2 3.8c-.05-.04-2.4 0-2.4 0l-.1-2.6c0 0-.1.04-.1 0c-.8 1.7-2.6 2.9-4.9 2.9c-3.6 0-6.3-3-6.3-7.4c0-4.8 3-7.8 6.6-7.8c2.2 0 3.7 1.1 4.3 2.2c.03.03.1 0 .1 0l0-8.6l2.6 0zm-2.6 12.7c0-.4 0-.8-.1-1.2c-.4-1.6-1.9-3-3.8-3c-2.8 0-4.4 2.4-4.4 5.6c0 2.9 1.5 5.4 4.3 5.4c1.8 0 3.4-1.2 3.9-3.2c.1-.3.1-.7.1-1.1c0 0 0-2.5 0-2.5zm13.6 8.6l0-12.5l-2 0l0-2.1l2 0c0 0 .04-.65 0-.6c0-2.1.5-3.9 1.7-5.1c1-1 2.3-1.4 3.6-1.4c.9 0 1.7.2 2.2.5c0 0-.3 2-.3 2c-.4-.2-1-.3-1.7-.3c-2.3 0-2.8 1.9-2.8 4.2c-.05-.04 0 .7 0 .7l3.5 0l0 2.1l-3.5 0l0 12.5l-2.7 0zm21.3-7.4c0 5.4-3.7 7.7-7.2 7.7c-4 0-7-2.9-7-7.5c0-4.8 3.2-7.7 7.2-7.7c4.2 0 7 3 7 7.5zm-11.5.1c0 3.2 1.8 5.6 4.4 5.6c2.5 0 4.4-2.4 4.4-5.6c0-2.5-1.2-5.6-4.4-5.6c-3.1 0-4.4 2.9-4.4 5.6zm14.8-14l2.7 0l0 21.3l-2.7 0l0-21.3zm7.1 0l2.6 0l0 21.3l-2.6 0l0-21.3zm20.2 13.9c0 5.4-3.7 7.7-7.2 7.7c-3.9 0-7-2.9-7-7.5c0-4.8 3.2-7.7 7.2-7.7c4.2 0 7 3 7 7.5zm-11.5.1c0 3.2 1.8 5.6 4.4 5.6c2.5 0 4.4-2.4 4.4-5.6c0-2.5-1.2-5.6-4.3-5.6c-3.2 0-4.5 2.9-4.5 5.6zm15.7-7.3c0 0 1.9 7.42 1.9 7.4c.4 1.6.8 3.1 1.1 4.6c0 0 .1 0 .1 0c.3-1.4.8-3 1.3-4.5c-.04-.05 2.3-7.5 2.3-7.5l2.3 0c0 0 2.2 7.3 2.2 7.3c.5 1.7 1 3.3 1.3 4.7c0 0 .1 0 .1 0c.2-1.4.6-3 1.1-4.7c-.01.03 2.1-7.3 2.1-7.3l2.6 0l-4.7 14.6l-2.4 0c0 0-2.23-6.97-2.2-7c-.5-1.6-1-3-1.3-4.7c0 0-.1 0-.1 0c-.3 1.7-.8 3.2-1.3 4.8c0-.04-2.3 6.9-2.3 6.9l-2.4 0l-4.4-14.6l2.7 0zm27 5.5l0 1.9l-7.4 0l0-1.9l7.4 0zm15.3 5.1c0 1.5 0 2.8.1 4c-.03-.04-2.4 0-2.4 0l-.1-2.4c0 0-.08-.01-.1 0c-.7 1.2-2.2 2.7-4.8 2.7c-2.3 0-5-1.3-5-6.4c.01.03 0-8.5 0-8.5l2.7 0c0 0-.05 8.08 0 8.1c0 2.7.8 4.6 3.2 4.6c1.8 0 3-1.2 3.5-2.4c.1-.4.2-.9.2-1.3c.01-.05 0-9 0-9l2.7 0c0 0-.05 10.6 0 10.6zm4.3-5.8c0-1.9 0-3.4-.1-4.8c.01.04 2.4 0 2.4 0l.1 2.5c0 0 .06.03.1 0c1-1.7 2.8-2.8 5.1-2.8c3.5 0 6.2 3 6.2 7.4c0 5.2-3.2 7.8-6.6 7.8c-1.9 0-3.6-.8-4.5-2.3c0 .01-.1 0-.1 0l0 7.9l-2.6 0c0 0 .03-15.72 0-15.7zm2.6 3.9c0 .3.1.7.2 1c.4 1.9 2 3.1 3.9 3.1c2.8 0 4.4-2.3 4.4-5.6c0-2.9-1.5-5.4-4.3-5.4c-1.8 0-3.5 1.3-4 3.3c-.1.3-.2.7-.2 1.1c0 0 0 2.5 0 2.5zm14.1 3.2c.8.5 2.2 1 3.5 1c1.9 0 2.8-.9 2.8-2.1c0-1.3-.7-2-2.7-2.7c-2.6-.9-3.8-2.4-3.8-4.1c0-2.4 1.9-4.3 5-4.3c1.5 0 2.8.4 3.6.9c0 0-.7 1.9-.7 1.9c-.6-.3-1.6-.8-3-.8c-1.5 0-2.4.9-2.4 2c0 1.2.9 1.7 2.8 2.4c2.5 1 3.8 2.3 3.8 4.4c0 2.6-2 4.4-5.4 4.4c-1.6 0-3.1-.4-4.1-1c0 0 .6-2 .6-2zm21.8-16l0 4.1l3.8 0l0 2.1l-3.8 0c0 0 .02 7.78 0 7.8c0 1.8.5 2.8 2 2.8c.7 0 1.2-.1 1.5-.2c0 0 .1 2 .1 2c-.5.2-1.3.4-2.3.4c-1.2 0-2.2-.4-2.8-1.1c-.8-.8-1.1-2.1-1.1-3.8c.04-.03 0-7.9 0-7.9l-2.2 0l0-2.1l2.2 0l0-3.4l2.6-.7zm19.7 11.3c0 5.4-3.7 7.7-7.2 7.7c-3.9 0-7-2.9-7-7.5c0-4.8 3.2-7.7 7.2-7.7c4.2 0 7 3 7 7.5zm-11.5.1c0 3.2 1.8 5.6 4.4 5.6c2.5 0 4.4-2.4 4.4-5.6c0-2.5-1.2-5.6-4.3-5.6c-3.1 0-4.5 2.9-4.5 5.6zm33.4 3.3c0 1.5 0 2.8.1 4c-.01-.04-2.4 0-2.4 0l-.1-2.4c0 0-.06-.01-.1 0c-.7 1.2-2.2 2.7-4.8 2.7c-2.2 0-5-1.3-5-6.4c.03.03 0-8.5 0-8.5l2.7 0c0 0-.03 8.08 0 8.1c0 2.7.8 4.6 3.2 4.6c1.8 0 3-1.2 3.5-2.4c.1-.4.2-.9.2-1.3c.03-.05 0-9 0-9l2.7 0c0 0-.03 10.6 0 10.6zm4.3-6.6c0-1.5 0-2.8-.1-4c.03.04 2.4 0 2.4 0l.1 2.4c0 0 .08.04.1 0c.7-1.3 2.4-2.7 4.8-2.7c2 0 5.1 1.2 5.1 6.2c.01-.01 0 8.7 0 8.7l-2.6 0c0 0-.03-8.41 0-8.4c0-2.3-.9-4.3-3.4-4.3c-1.7 0-3.1 1.2-3.5 2.7c-.2.3-.2.8-.2 1.2c-.01.03 0 8.8 0 8.8l-2.7 0c0 0 .05-10.63 0-10.6zm16.6 10.6c0-1 .1-2.5.1-3.8c0 .01 0-17.5 0-17.5l2.6 0l0 9.1c0 0 .07-.02.1 0c.9-1.6 2.6-2.7 4.9-2.7c3.6 0 6.2 3 6.1 7.4c0 5.2-3.2 7.8-6.5 7.8c-2.1 0-3.8-.8-4.8-2.7c-.03-.04-.1 0-.1 0l-.1 2.4c0 0-2.32-.04-2.3 0zm2.7-5.9c0 .4.1.7.1 1c.5 1.8 2.1 3.1 4 3.1c2.7 0 4.4-2.3 4.4-5.6c0-2.9-1.5-5.4-4.3-5.4c-1.8 0-3.5 1.2-4 3.3c-.1.3-.2.6-.2 1c0 0 0 2.6 0 2.6zm14.5-15.4l2.6 0l0 21.3l-2.6 0l0-21.3zm20.2 13.9c0 5.4-3.7 7.7-7.2 7.7c-4 0-7-2.9-7-7.5c0-4.8 3.2-7.7 7.2-7.7c4.2 0 7 3 7 7.5zm-11.5.1c0 3.2 1.8 5.6 4.4 5.6c2.5 0 4.4-2.4 4.4-5.6c0-2.5-1.2-5.6-4.4-5.6c-3.1 0-4.4 2.9-4.4 5.6zm25.2 6.7c-.7.4-2.3.9-4.2.9c-4.4 0-7.2-3-7.2-7.4c0-4.5 3-7.8 7.8-7.8c1.5 0 2.9.4 3.6.8c0 0-.6 2-.6 2c-.6-.3-1.6-.7-3-.7c-3.4 0-5.2 2.5-5.2 5.5c0 3.4 2.2 5.5 5.1 5.5c1.5 0 2.5-.4 3.2-.8c0 0 .5 2 .5 2zm5.7-7.3c0 0 .03 0 0 0c.4-.5.9-1.1 1.3-1.6c.02-.05 4.3-5.1 4.3-5.1l3.2 0l-5.7 6l6.4 8.6l-3.2 0l-5-7l-1.3 1.5l0 5.5l-2.6 0l0-21.3l2.6 0l0 13.4z" stroke="none" fill="#fff"/></g><g id="Polygon7183"><path d="m2.2 177c0-1.5 0-2.8-.1-4c-.03.04 2.3 0 2.3 0l.1 2.4c0 0 .09-.02.1 0c.8-1.4 2.2-2.7 4.5-2.7c2 0 3.5 1.2 4.2 2.9c0 0 0 0 0 0c.5-.8 1-1.4 1.6-1.9c.9-.6 1.9-1 3.2-1c2 0 4.8 1.3 4.8 6.3c.02.01 0 8.6 0 8.6l-2.6 0c0 0 .04-8.26 0-8.3c0-2.7-1-4.4-3.1-4.4c-1.5 0-2.7 1.1-3.1 2.4c-.2.3-.2.8-.2 1.3c-.04-.01 0 9 0 9l-2.6 0c0 0-.02-8.74 0-8.7c0-2.3-1-4-3-4c-1.7 0-2.9 1.3-3.3 2.6c-.2.4-.2.9-.2 1.3c-.03 0 0 8.8 0 8.8l-2.6 0c0 0-.01-10.63 0-10.6zm33 10.6l-.2-1.9c0 0-.05.03-.1 0c-.8 1.2-2.3 2.2-4.4 2.2c-2.9 0-4.4-2.1-4.4-4.2c0-3.5 3.1-5.4 8.7-5.4c0 0 0-.3 0-.3c0-1.2-.3-3.3-3.3-3.3c-1.4 0-2.8.4-3.8 1c0 0-.6-1.7-.6-1.7c1.2-.8 3-1.3 4.8-1.3c4.4 0 5.5 3 5.5 6c0 0 0 5.4 0 5.4c0 1.2.1 2.5.2 3.5c.05-.04-2.4 0-2.4 0zm-.3-7.4c-2.9-.1-6.2.4-6.2 3.2c0 1.7 1.1 2.5 2.5 2.5c1.9 0 3.1-1.2 3.5-2.4c.1-.3.2-.6.2-.8c0 0 0-2.5 0-2.5zm6.8-3.2c0-1.5-.1-2.8-.2-4c.05.04 2.4 0 2.4 0l.1 2.4c0 0 .1.04.1 0c.7-1.3 2.4-2.7 4.8-2.7c2 0 5.1 1.2 5.1 6.2c.03-.01 0 8.7 0 8.7l-2.6 0c0 0-.01-8.41 0-8.4c0-2.3-.9-4.3-3.4-4.3c-1.7 0-3.1 1.2-3.5 2.7c-.1.3-.2.8-.2 1.2c.01.03 0 8.8 0 8.8l-2.6 0c0 0-.03-10.63 0-10.6zm24.7 10.6l-.3-1.9c0 0-.04.03 0 0c-.9 1.2-2.4 2.2-4.5 2.2c-2.9 0-4.4-2.1-4.4-4.2c0-3.5 3.1-5.4 8.7-5.4c0 0 0-.3 0-.3c0-1.2-.3-3.3-3.3-3.3c-1.3 0-2.8.4-3.8 1c0 0-.6-1.7-.6-1.7c1.2-.8 3-1.3 4.8-1.3c4.4 0 5.5 3 5.5 6c0 0 0 5.4 0 5.4c0 1.2.1 2.5.3 3.5c-.04-.04-2.4 0-2.4 0zm-.4-7.4c-2.9-.1-6.2.4-6.2 3.2c0 1.7 1.2 2.5 2.5 2.5c1.9 0 3.1-1.2 3.5-2.4c.1-.3.2-.6.2-.8c0 0 0-2.5 0-2.5zm19.3-7.2c-.1 1.1-.1 2.3-.1 4c0 0 0 8.5 0 8.5c0 3.3-.7 5.3-2.1 6.6c-1.4 1.3-3.5 1.7-5.3 1.7c-1.7 0-3.6-.4-4.8-1.2c0 0 .6-2 .6-2c1 .6 2.5 1.2 4.3 1.2c2.7 0 4.7-1.4 4.7-5.1c-.01-.01 0-1.6 0-1.6c0 0-.07-.03-.1 0c-.8 1.3-2.3 2.4-4.6 2.4c-3.6 0-6.2-3.1-6.2-7.1c0-4.9 3.2-7.7 6.6-7.7c2.5 0 3.9 1.3 4.5 2.5c0 .03.1 0 .1 0l.1-2.2c0 0 2.29.04 2.3 0zm-2.7 5.8c0-.5-.1-.9-.2-1.2c-.5-1.6-1.8-2.8-3.7-2.8c-2.5 0-4.3 2.1-4.3 5.5c0 2.8 1.4 5.2 4.3 5.2c1.6 0 3.1-1 3.6-2.7c.2-.5.3-1 .3-1.4c0 0 0-2.6 0-2.6zm8.4 2c.1 3.6 2.4 5 5 5c1.9 0 3-.3 4-.7c0 0 .5 1.9.5 1.9c-1 .4-2.6.9-4.9.9c-4.4 0-7.1-3-7.1-7.4c0-4.3 2.6-7.8 6.8-7.8c4.7 0 6 4.2 6 6.9c0 .5-.1.9-.1 1.2c0 0-10.2 0-10.2 0zm7.8-1.9c0-1.7-.7-4.3-3.7-4.3c-2.7 0-3.8 2.5-4.1 4.3c0 0 7.8 0 7.8 0zm5.8-1.9c0-1.5-.1-2.8-.1-4c-.04.04 2.3 0 2.3 0l.1 2.4c0 0 .08-.02.1 0c.8-1.4 2.1-2.7 4.5-2.7c2 0 3.5 1.2 4.1 2.9c0 0 .1 0 .1 0c.5-.8 1-1.4 1.6-1.9c.9-.6 1.9-1 3.2-1c2 0 4.8 1.3 4.8 6.3c.01.01 0 8.6 0 8.6l-2.6 0c0 0 .03-8.26 0-8.3c0-2.7-1-4.4-3.1-4.4c-1.5 0-2.7 1.1-3.1 2.4c-.2.3-.3.8-.3 1.3c.05-.01 0 9 0 9l-2.5 0c0 0-.03-8.74 0-8.7c0-2.3-1.1-4-3.1-4c-1.6 0-2.8 1.3-3.2 2.6c-.2.4-.2.9-.2 1.3c-.04 0 0 8.8 0 8.8l-2.6 0c0 0-.02-10.63 0-10.6zm26.5 3.8c0 3.6 2.3 5 4.9 5c1.9 0 3.1-.3 4.1-.7c0 0 .4 1.9.4 1.9c-.9.4-2.5.9-4.8.9c-4.5 0-7.2-3-7.2-7.4c0-4.3 2.6-7.8 6.9-7.8c4.7 0 6 4.2 6 6.9c0 .5-.1.9-.1 1.2c0 0-10.2 0-10.2 0zm7.7-1.9c0-1.7-.7-4.3-3.7-4.3c-2.6 0-3.8 2.5-4 4.3c0 0 7.7 0 7.7 0zm5.8-1.9c0-1.5 0-2.8-.1-4c.01.04 2.3 0 2.3 0l.2 2.4c0 0 .06.04.1 0c.7-1.3 2.4-2.7 4.8-2.7c2 0 5.1 1.2 5.1 6.2c-.01-.01 0 8.7 0 8.7l-2.7 0c0 0 .05-8.41 0-8.4c0-2.3-.8-4.3-3.3-4.3c-1.8 0-3.1 1.2-3.6 2.7c-.1.3-.1.8-.1 1.2c-.03.03 0 8.8 0 8.8l-2.7 0c0 0 .03-10.63 0-10.6zm19.7-8.1l0 4.1l3.8 0l0 2.1l-3.8 0c0 0 .04 7.78 0 7.8c0 1.8.5 2.8 2 2.8c.7 0 1.2-.1 1.5-.2c0 0 .2 2 .2 2c-.5.2-1.4.4-2.4.4c-1.2 0-2.2-.4-2.8-1.1c-.8-.8-1-2.1-1-3.8c-.04-.03 0-7.9 0-7.9l-2.3 0l0-2.1l2.3 0l0-3.4l2.5-.7zm6.4 16c.8.5 2.2 1 3.5 1c1.9 0 2.8-.9 2.8-2.1c0-1.3-.7-2-2.7-2.7c-2.6-.9-3.8-2.4-3.8-4.1c0-2.4 1.9-4.3 5-4.3c1.5 0 2.8.4 3.6.9c0 0-.7 1.9-.7 1.9c-.6-.3-1.6-.8-3-.8c-1.5 0-2.4.9-2.4 2c0 1.2.9 1.7 2.8 2.4c2.5 1 3.8 2.3 3.8 4.4c0 2.6-2 4.4-5.5 4.4c-1.5 0-3-.4-4-1c0 0 .6-2 .6-2zm10.2 6.4c.7-1.8 1.5-5 1.8-7.2c0 0 3-.3 3-.3c-.7 2.5-2 5.9-2.9 7.3c0 0-1.9.2-1.9.2zm14.3-14.3c0-1.5 0-2.8-.1-4c-.04.04 2.3 0 2.3 0l.1 2.4c0 0 .08-.02.1 0c.8-1.4 2.1-2.7 4.5-2.7c2 0 3.5 1.2 4.2 2.9c0 0 0 0 0 0c.5-.8 1-1.4 1.6-1.9c.9-.6 1.9-1 3.2-1c2 0 4.8 1.3 4.8 6.3c.01.01 0 8.6 0 8.6l-2.6 0c0 0 .03-8.26 0-8.3c0-2.7-1-4.4-3.1-4.4c-1.5 0-2.7 1.1-3.1 2.4c-.2.3-.2.8-.2 1.3c-.05-.01 0 9 0 9l-2.6 0c0 0-.03-8.74 0-8.7c0-2.3-1-4-3.1-4c-1.6 0-2.8 1.3-3.2 2.6c-.2.4-.2.9-.2 1.3c-.04 0 0 8.8 0 8.8l-2.6 0c0 0-.02-10.63 0-10.6zm33 10.6l-.2-1.9c0 0-.06.03-.1 0c-.8 1.2-2.3 2.2-4.4 2.2c-2.9 0-4.4-2.1-4.4-4.2c0-3.5 3.1-5.4 8.7-5.4c0 0 0-.3 0-.3c0-1.2-.3-3.3-3.3-3.3c-1.4 0-2.8.4-3.8 1c0 0-.6-1.7-.6-1.7c1.2-.8 3-1.3 4.8-1.3c4.4 0 5.5 3 5.5 6c0 0 0 5.4 0 5.4c0 1.2.1 2.5.2 3.5c.04-.04-2.4 0-2.4 0zm-.3-7.4c-2.9-.1-6.2.4-6.2 3.2c0 1.7 1.1 2.5 2.5 2.5c1.9 0 3.1-1.2 3.5-2.4c.1-.3.2-.6.2-.8c0 0 0-2.5 0-2.5zm6.8-3.2c0-1.5-.1-2.8-.2-4c.04.04 2.4 0 2.4 0l.1 2.4c0 0 .09.04.1 0c.7-1.3 2.4-2.7 4.8-2.7c2 0 5.1 1.2 5.1 6.2c.02-.01 0 8.7 0 8.7l-2.6 0c0 0-.02-8.41 0-8.4c0-2.3-.9-4.3-3.4-4.3c-1.7 0-3.1 1.2-3.5 2.7c-.1.3-.2.8-.2 1.2c0 .03 0 8.8 0 8.8l-2.6 0c0 0-.04-10.63 0-10.6zm24.7 10.6l-.3-1.9c0 0-.05.03 0 0c-.9 1.2-2.4 2.2-4.5 2.2c-2.9 0-4.4-2.1-4.4-4.2c0-3.5 3.1-5.4 8.7-5.4c0 0 0-.3 0-.3c0-1.2-.3-3.3-3.3-3.3c-1.3 0-2.8.4-3.8 1c0 0-.6-1.7-.6-1.7c1.2-.8 3-1.3 4.8-1.3c4.4 0 5.5 3 5.5 6c0 0 0 5.4 0 5.4c0 1.2.1 2.5.3 3.5c-.05-.04-2.4 0-2.4 0zm-.4-7.4c-2.9-.1-6.2.4-6.2 3.2c0 1.7 1.2 2.5 2.5 2.5c1.9 0 3.1-1.2 3.5-2.4c.1-.3.2-.6.2-.8c0 0 0-2.5 0-2.5zm19.3-7.2c-.1 1.1-.1 2.3-.1 4c0 0 0 8.5 0 8.5c0 3.3-.7 5.3-2.1 6.6c-1.4 1.3-3.5 1.7-5.3 1.7c-1.7 0-3.6-.4-4.8-1.2c0 0 .6-2 .6-2c1 .6 2.5 1.2 4.3 1.2c2.7 0 4.7-1.4 4.7-5.1c-.02-.01 0-1.6 0-1.6c0 0-.08-.03-.1 0c-.8 1.3-2.3 2.4-4.6 2.4c-3.6 0-6.2-3.1-6.2-7.1c0-4.9 3.2-7.7 6.6-7.7c2.5 0 3.9 1.3 4.5 2.5c-.01.03.1 0 .1 0l.1-2.2c0 0 2.28.04 2.3 0zm-2.7 5.8c0-.5-.1-.9-.2-1.2c-.5-1.6-1.8-2.8-3.7-2.8c-2.5 0-4.3 2.1-4.3 5.5c0 2.8 1.4 5.2 4.3 5.2c1.6 0 3.1-1 3.6-2.7c.2-.5.3-1 .3-1.4c0 0 0-2.6 0-2.6zm8.4 2c.1 3.6 2.4 5 5 5c1.9 0 3-.3 4-.7c0 0 .5 1.9.5 1.9c-1 .4-2.6.9-4.9.9c-4.4 0-7.1-3-7.1-7.4c0-4.3 2.6-7.8 6.8-7.8c4.7 0 6 4.2 6 6.9c0 .5-.1.9-.1 1.2c0 0-10.2 0-10.2 0zm7.8-1.9c0-1.7-.7-4.3-3.7-4.3c-2.7 0-3.8 2.5-4.1 4.3c0 0 7.8 0 7.8 0zm18.3-12.6c0 0 .01 17.51 0 17.5c0 1.3 0 2.8.1 3.8c.03-.04-2.3 0-2.3 0l-.2-2.6c0 0-.02.04 0 0c-.8 1.7-2.6 2.9-5 2.9c-3.5 0-6.2-3-6.2-7.4c0-4.8 3-7.8 6.5-7.8c2.3 0 3.8 1.1 4.4 2.2c.01.03.1 0 .1 0l0-8.6l2.6 0zm-2.6 12.7c0-.4-.1-.8-.1-1.2c-.4-1.6-1.9-3-3.9-3c-2.7 0-4.3 2.4-4.3 5.6c0 2.9 1.4 5.4 4.3 5.4c1.8 0 3.4-1.2 3.9-3.2c0-.3.1-.7.1-1.1c0 0 0-2.5 0-2.5zm13 5.9c.8.5 2.1 1 3.5 1c1.9 0 2.8-.9 2.8-2.1c0-1.3-.8-2-2.7-2.7c-2.6-.9-3.9-2.4-3.9-4.1c0-2.4 1.9-4.3 5-4.3c1.5 0 2.8.4 3.6.9c0 0-.6 1.9-.6 1.9c-.6-.3-1.7-.8-3-.8c-1.6 0-2.4.9-2.4 2c0 1.2.8 1.7 2.7 2.4c2.5 1 3.8 2.3 3.8 4.4c0 2.6-2 4.4-5.4 4.4c-1.6 0-3.1-.4-4.1-1c0 0 .7-2 .7-2zm13.7-4.1c0 3.6 2.3 5 5 5c1.9 0 3-.3 4-.7c0 0 .4 1.9.4 1.9c-.9.4-2.5.9-4.8.9c-4.5 0-7.1-3-7.1-7.4c0-4.3 2.5-7.8 6.8-7.8c4.7 0 6 4.2 6 6.9c0 .5-.1.9-.1 1.2c0 0-10.2 0-10.2 0zm7.7-1.9c.1-1.7-.7-4.3-3.6-4.3c-2.7 0-3.9 2.5-4.1 4.3c0 0 7.7 0 7.7 0zm5.8-1.3c0-1.7 0-3.2-.1-4.6c.02.04 2.3 0 2.3 0l.1 2.9c0 0 .14-.01.1 0c.7-2 2.3-3.2 4.1-3.2c.3 0 .5 0 .7.1c0 0 0 2.5 0 2.5c-.3-.1-.5-.1-.9-.1c-1.8 0-3.2 1.4-3.5 3.4c-.1.4-.1.8-.1 1.2c-.05.02 0 7.8 0 7.8l-2.7 0c0 0 .04-10.03 0-10zm11.6-4.6c0 0 2.87 8.2 2.9 8.2c.4 1.3.8 2.5 1.1 3.7c0 0 .1 0 .1 0c.4-1.2.8-2.4 1.3-3.7c-.04 0 2.8-8.2 2.8-8.2l2.7 0l-5.7 14.6l-2.5 0l-5.5-14.6l2.8 0zm13.4 14.6l0-14.6l2.7 0l0 14.6l-2.7 0zm3-18.6c0 .9-.7 1.6-1.7 1.6c-.9 0-1.6-.7-1.6-1.6c0-1 .7-1.7 1.6-1.7c1 0 1.7.7 1.7 1.7zm14.4 18c-.7.4-2.2.9-4.2.9c-4.4 0-7.2-3-7.2-7.4c0-4.5 3.1-7.8 7.8-7.8c1.6 0 2.9.4 3.7.8c0 0-.6 2-.6 2c-.7-.3-1.7-.7-3.1-.7c-3.3 0-5.1 2.5-5.1 5.5c0 3.4 2.1 5.5 5 5.5c1.5 0 2.5-.4 3.2-.8c0 0 .5 2 .5 2zm4.4-6.2c0 3.6 2.3 5 5 5c1.8 0 3-.3 4-.7c0 0 .4 1.9.4 1.9c-.9.4-2.5.9-4.8.9c-4.5 0-7.1-3-7.1-7.4c0-4.3 2.5-7.8 6.8-7.8c4.7 0 6 4.2 6 6.9c0 .5-.1.9-.1 1.2c0 0-10.2 0-10.2 0zm7.7-1.9c0-1.7-.7-4.3-3.6-4.3c-2.7 0-3.9 2.5-4.1 4.3c0 0 7.7 0 7.7 0zm5.5 6c.8.5 2.1 1 3.5 1c1.9 0 2.8-.9 2.8-2.1c0-1.3-.8-2-2.7-2.7c-2.6-.9-3.9-2.4-3.9-4.1c0-2.4 1.9-4.3 5-4.3c1.5 0 2.8.4 3.6.9c0 0-.6 1.9-.6 1.9c-.6-.3-1.7-.8-3-.8c-1.6 0-2.4.9-2.4 2c0 1.2.8 1.7 2.7 2.4c2.5 1 3.8 2.3 3.8 4.4c0 2.6-2 4.4-5.4 4.4c-1.6 0-3.1-.4-4.1-1c0 0 .7-2 .7-2z" stroke="none" fill="#fff"/></g><g id="Polygon7182"><path d="m14.6 128.9l0 4.1l3.8 0l0 2.1l-3.8 0c0 0 0 7.78 0 7.8c0 1.8.5 2.8 2 2.8c.7 0 1.2-.1 1.5-.2c0 0 .1 2 .1 2c-.5.2-1.3.4-2.3.4c-1.2 0-2.2-.4-2.9-1.1c-.7-.8-1-2.1-1-3.8c.02-.03 0-7.9 0-7.9l-2.2 0l0-2.1l2.2 0l0-3.4l2.6-.7zm6.8-2.6l2.6 0l0 9c0 0 .05.02.1 0c.4-.7 1-1.4 1.8-1.8c.8-.5 1.8-.8 2.7-.8c2 0 5.1 1.2 5.1 6.2c.01.02 0 8.7 0 8.7l-2.6 0c0 0-.03-8.38 0-8.4c0-2.3-.9-4.3-3.4-4.3c-1.7 0-3 1.2-3.5 2.6c-.2.4-.2.8-.2 1.3c-.01 0 0 8.8 0 8.8l-2.6 0l0-21.3zm18.1 14.5c0 3.6 2.3 5 5 5c1.8 0 3-.3 4-.7c0 0 .4 1.9.4 1.9c-.9.4-2.5.9-4.8.9c-4.5 0-7.1-3-7.1-7.4c0-4.3 2.5-7.8 6.8-7.8c4.7 0 6 4.2 6 6.9c0 .5-.1.9-.1 1.2c0 0-10.2 0-10.2 0zm7.7-1.9c0-1.7-.7-4.3-3.6-4.3c-2.7 0-3.9 2.5-4.1 4.3c0 0 7.7 0 7.7 0zm12.2 8.7l0-14.6l2.6 0l0 14.6l-2.6 0zm2.9-18.6c.1.9-.6 1.6-1.6 1.6c-1 0-1.6-.7-1.6-1.6c0-1 .7-1.7 1.6-1.7c1 0 1.6.7 1.6 1.7zm4.1 8c0-1.5 0-2.8-.1-4c-.01.04 2.3 0 2.3 0l.2 2.4c0 0 .04.04 0 0c.8-1.3 2.4-2.7 4.8-2.7c2.1 0 5.2 1.2 5.2 6.2c-.03-.01 0 8.7 0 8.7l-2.7 0c0 0 .03-8.41 0-8.4c0-2.3-.8-4.3-3.3-4.3c-1.8 0-3.1 1.2-3.6 2.7c-.1.3-.1.8-.1 1.2c-.05.03 0 8.8 0 8.8l-2.7 0c0 0 .01-10.63 0-10.6zm19.7-8.1l0 4.1l3.8 0l0 2.1l-3.8 0c0 0 .02 7.78 0 7.8c0 1.8.5 2.8 2 2.8c.7 0 1.2-.1 1.5-.2c0 0 .2 2 .2 2c-.6.2-1.4.4-2.4.4c-1.2 0-2.2-.4-2.8-1.1c-.8-.8-1.1-2.1-1.1-3.8c.04-.03 0-7.9 0-7.9l-2.2 0l0-2.1l2.2 0l0-3.4l2.6-.7zm8.1 11.9c0 3.6 2.3 5 4.9 5c1.9 0 3.1-.3 4.1-.7c0 0 .4 1.9.4 1.9c-.9.4-2.5.9-4.8.9c-4.5 0-7.2-3-7.2-7.4c0-4.3 2.6-7.8 6.9-7.8c4.7 0 6 4.2 6 6.9c0 .5-.1.9-.1 1.2c0 0-10.2 0-10.2 0zm7.7-1.9c0-1.7-.7-4.3-3.7-4.3c-2.6 0-3.8 2.5-4 4.3c0 0 7.7 0 7.7 0zm18.3-5.9c0 1.1-.1 2.3-.1 4c0 0 0 8.5 0 8.5c0 3.3-.6 5.3-2.1 6.6c-1.4 1.3-3.4 1.7-5.2 1.7c-1.8 0-3.7-.4-4.9-1.2c0 0 .7-2 .7-2c1 .6 2.5 1.2 4.3 1.2c2.7 0 4.6-1.4 4.6-5.1c.03-.01 0-1.6 0-1.6c0 0-.03-.03 0 0c-.8 1.3-2.4 2.4-4.6 2.4c-3.6 0-6.2-3.1-6.2-7.1c0-4.9 3.2-7.7 6.5-7.7c2.5 0 3.9 1.3 4.5 2.5c.04.03.1 0 .1 0l.1-2.2c0 0 2.33.04 2.3 0zm-2.7 5.8c0-.5 0-.9-.1-1.2c-.5-1.6-1.8-2.8-3.7-2.8c-2.6 0-4.4 2.1-4.4 5.5c0 2.8 1.5 5.2 4.3 5.2c1.7 0 3.1-1 3.7-2.7c.1-.5.2-1 .2-1.4c0 0 0-2.6 0-2.6zm6.8-1.2c0-1.7 0-3.2-.1-4.6c-.01.04 2.3 0 2.3 0l.1 2.9c0 0 .11-.01.1 0c.7-2 2.3-3.2 4-3.2c.3 0 .5 0 .8.1c0 0 0 2.5 0 2.5c-.3-.1-.6-.1-.9-.1c-1.9 0-3.2 1.4-3.6 3.4c0 .4-.1.8-.1 1.2c.02.02 0 7.8 0 7.8l-2.6 0c0 0 .01-10.03 0-10zm17.7 10l-.2-1.9c0 0-.09.03-.1 0c-.8 1.2-2.4 2.2-4.4 2.2c-3 0-4.5-2.1-4.5-4.2c0-3.5 3.2-5.4 8.8-5.4c0 0 0-.3 0-.3c0-1.2-.4-3.3-3.3-3.3c-1.4 0-2.8.4-3.8 1c0 0-.6-1.7-.6-1.7c1.2-.8 2.9-1.3 4.8-1.3c4.4 0 5.5 3 5.5 6c0 0 0 5.4 0 5.4c0 1.2 0 2.5.2 3.5c.01-.04-2.4 0-2.4 0zm-.4-7.4c-2.9-.1-6.1.4-6.1 3.2c0 1.7 1.1 2.5 2.5 2.5c1.9 0 3.1-1.2 3.5-2.4c.1-.3.1-.6.1-.8c0 0 0-2.5 0-2.5zm9.9-11.3l0 4.1l3.8 0l0 2.1l-3.8 0c0 0-.01 7.78 0 7.8c0 1.8.5 2.8 2 2.8c.7 0 1.2-.1 1.5-.2c0 0 .1 2 .1 2c-.5.2-1.3.4-2.3.4c-1.2 0-2.2-.4-2.9-1.1c-.7-.8-1-2.1-1-3.8c.01-.03 0-7.9 0-7.9l-2.2 0l0-2.1l2.2 0l0-3.4l2.6-.7zm6.7 18.7l0-14.6l2.7 0l0 14.6l-2.7 0zm3-18.6c0 .9-.6 1.6-1.7 1.6c-.9 0-1.6-.7-1.6-1.6c0-1 .7-1.7 1.7-1.7c1 0 1.6.7 1.6 1.7zm17.2 11.2c0 5.4-3.7 7.7-7.2 7.7c-4 0-7-2.9-7-7.5c0-4.8 3.2-7.7 7.2-7.7c4.2 0 7 3 7 7.5zm-11.5.1c0 3.2 1.8 5.6 4.4 5.6c2.5 0 4.4-2.4 4.4-5.6c0-2.5-1.2-5.6-4.3-5.6c-3.2 0-4.5 2.9-4.5 5.6zm14.8-3.3c0-1.5 0-2.8-.1-4c.01.04 2.3 0 2.3 0l.2 2.4c0 0 .06.04.1 0c.7-1.3 2.4-2.7 4.8-2.7c2 0 5.1 1.2 5.1 6.2c-.01-.01 0 8.7 0 8.7l-2.7 0c0 0 .05-8.41 0-8.4c0-2.3-.8-4.3-3.3-4.3c-1.8 0-3.1 1.2-3.6 2.7c-.1.3-.1.8-.1 1.2c-.03.03 0 8.8 0 8.8l-2.7 0c0 0 .03-10.63 0-10.6zm24.5 3.8c.1 3.6 2.3 5 5 5c1.9 0 3-.3 4-.7c0 0 .5 1.9.5 1.9c-1 .4-2.6.9-4.9.9c-4.4 0-7.1-3-7.1-7.4c0-4.3 2.6-7.8 6.8-7.8c4.7 0 6 4.2 6 6.9c0 .5-.1.9-.1 1.2c0 0-10.2 0-10.2 0zm7.7-1.9c.1-1.7-.6-4.3-3.6-4.3c-2.7 0-3.9 2.5-4.1 4.3c0 0 7.7 0 7.7 0zm7-5.9c0 0 2.08 3.16 2.1 3.2c.5.8 1 1.5 1.4 2.3c0 0 .1 0 .1 0c.5-.8 1-1.6 1.5-2.4c-.02.03 2-3.1 2-3.1l2.9 0l-5 7.1l5.1 7.5l-3 0c0 0-2.11-3.31-2.1-3.3c-.6-.8-1.1-1.7-1.6-2.5c0 0 0 0 0 0c-.5.8-1 1.6-1.6 2.5c.04-.01-2.1 3.3-2.1 3.3l-2.9 0l5.2-7.4l-4.9-7.2l2.9 0zm12.7 4.8c0-1.9-.1-3.4-.2-4.8c.05.04 2.4 0 2.4 0l.1 2.5c0 0 .1.03.1 0c1.1-1.7 2.8-2.8 5.2-2.8c3.5 0 6.1 3 6.1 7.4c0 5.2-3.2 7.8-6.6 7.8c-1.9 0-3.6-.8-4.5-2.3c.04.01 0 0 0 0l0 7.9l-2.6 0c0 0-.03-15.72 0-15.7zm2.6 3.9c0 .3 0 .7.1 1c.5 1.9 2.1 3.1 4 3.1c2.7 0 4.4-2.3 4.4-5.6c0-2.9-1.6-5.4-4.4-5.4c-1.8 0-3.4 1.3-3.9 3.3c-.1.3-.2.7-.2 1.1c0 0 0 2.5 0 2.5zm15.9-.9c.1 3.6 2.3 5 5 5c1.9 0 3-.3 4-.7c0 0 .5 1.9.5 1.9c-1 .4-2.6.9-4.9.9c-4.4 0-7.1-3-7.1-7.4c0-4.3 2.6-7.8 6.8-7.8c4.7 0 6 4.2 6 6.9c0 .5-.1.9-.1 1.2c0 0-10.2 0-10.2 0zm7.7-1.9c.1-1.7-.6-4.3-3.6-4.3c-2.7 0-3.9 2.5-4.1 4.3c0 0 7.7 0 7.7 0zm5.9-1.3c0-1.7-.1-3.2-.2-4.6c.05.04 2.4 0 2.4 0l0 2.9c0 0 .17-.01.2 0c.6-2 2.2-3.2 4-3.2c.3 0 .5 0 .7.1c0 0 0 2.5 0 2.5c-.2-.1-.5-.1-.9-.1c-1.8 0-3.1 1.4-3.5 3.4c-.1.4-.1.8-.1 1.2c-.02.02 0 7.8 0 7.8l-2.6 0c0 0-.03-10.03 0-10zm13.7-8.7l0 4.1l3.8 0l0 2.1l-3.8 0c0 0-.02 7.78 0 7.8c0 1.8.5 2.8 2 2.8c.6 0 1.2-.1 1.5-.2c0 0 .1 2 .1 2c-.5.2-1.3.4-2.3.4c-1.3 0-2.3-.4-2.9-1.1c-.7-.8-1-2.1-1-3.8c0-.03 0-7.9 0-7.9l-2.3 0l0-2.1l2.3 0l0-3.4l2.6-.7zm6.4 16c.7.5 2.1 1 3.4 1c2 0 2.9-.9 2.9-2.1c0-1.3-.8-2-2.7-2.7c-2.6-.9-3.9-2.4-3.9-4.1c0-2.4 1.9-4.3 5-4.3c1.5 0 2.8.4 3.6.9c0 0-.7 1.9-.7 1.9c-.5-.3-1.6-.8-2.9-.8c-1.6 0-2.5.9-2.5 2c0 1.2.9 1.7 2.8 2.4c2.5 1 3.8 2.3 3.8 4.4c0 2.6-2 4.4-5.4 4.4c-1.6 0-3.1-.4-4.1-1c0 0 .7-2 .7-2zm10.2 6.4c.6-1.8 1.4-5 1.8-7.2c0 0 2.9-.3 2.9-.3c-.7 2.5-2 5.9-2.8 7.3c0 0-1.9.2-1.9.2zm22.3-3.7l-.2-1.9c0 0-.11.03-.1 0c-.8 1.2-2.4 2.2-4.5 2.2c-2.9 0-4.4-2.1-4.4-4.2c0-3.5 3.1-5.4 8.7-5.4c0 0 0-.3 0-.3c0-1.2-.3-3.3-3.3-3.3c-1.3 0-2.7.4-3.7 1c0 0-.6-1.7-.6-1.7c1.2-.8 2.9-1.3 4.7-1.3c4.5 0 5.5 3 5.5 6c0 0 0 5.4 0 5.4c0 1.2.1 2.5.3 3.5c-.01-.04-2.4 0-2.4 0zm-.4-7.4c-2.9-.1-6.2.4-6.2 3.2c0 1.7 1.2 2.5 2.5 2.5c1.9 0 3.1-1.2 3.5-2.4c.1-.3.2-.6.2-.8c0 0 0-2.5 0-2.5zm17.2 6.8c-.7.4-2.3.9-4.2.9c-4.4 0-7.2-3-7.2-7.4c0-4.5 3-7.8 7.8-7.8c1.5 0 2.9.4 3.6.8c0 0-.6 2-.6 2c-.6-.3-1.6-.7-3-.7c-3.4 0-5.2 2.5-5.2 5.5c0 3.4 2.2 5.5 5.1 5.5c1.5 0 2.5-.4 3.2-.8c0 0 .5 2 .5 2zm13.2 0c-.7.4-2.2.9-4.2.9c-4.3 0-7.2-3-7.2-7.4c0-4.5 3.1-7.8 7.8-7.8c1.6 0 3 .4 3.7.8c0 0-.6 2-.6 2c-.7-.3-1.6-.7-3.1-.7c-3.3 0-5.1 2.5-5.1 5.5c0 3.4 2.1 5.5 5 5.5c1.5 0 2.5-.4 3.3-.8c0 0 .4 2 .4 2zm16.1-6.8c0 5.4-3.8 7.7-7.3 7.7c-3.9 0-6.9-2.9-6.9-7.5c0-4.8 3.2-7.7 7.2-7.7c4.1 0 7 3 7 7.5zm-11.6.1c0 3.2 1.9 5.6 4.5 5.6c2.5 0 4.4-2.4 4.4-5.6c0-2.5-1.3-5.6-4.4-5.6c-3.1 0-4.5 2.9-4.5 5.6zm27 3.3c0 1.5.1 2.8.2 4c-.03-.04-2.4 0-2.4 0l-.1-2.4c0 0-.08-.01-.1 0c-.7 1.2-2.2 2.7-4.8 2.7c-2.3 0-5-1.3-5-6.4c.01.03 0-8.5 0-8.5l2.6 0c0 0 .05 8.08 0 8.1c0 2.7.9 4.6 3.3 4.6c1.8 0 3-1.2 3.5-2.4c.1-.4.2-.9.2-1.3c.01-.05 0-9 0-9l2.6 0c0 0 .05 10.6 0 10.6zm4.4-6.6c0-1.5 0-2.8-.1-4c.01.04 2.3 0 2.3 0l.2 2.4c0 0 .06.04.1 0c.7-1.3 2.4-2.7 4.8-2.7c2 0 5.1 1.2 5.1 6.2c-.01-.01 0 8.7 0 8.7l-2.7 0c0 0 .05-8.41 0-8.4c0-2.3-.8-4.3-3.3-4.3c-1.8 0-3.1 1.2-3.6 2.7c-.1.3-.1.8-.1 1.2c-.03.03 0 8.8 0 8.8l-2.7 0c0 0 .03-10.63 0-10.6zm19.7-8.1l0 4.1l3.8 0l0 2.1l-3.8 0c0 0 .04 7.78 0 7.8c0 1.8.5 2.8 2 2.8c.7 0 1.2-.1 1.5-.2c0 0 .2 2 .2 2c-.5.2-1.4.4-2.4.4c-1.2 0-2.2-.4-2.8-1.1c-.8-.8-1-2.1-1-3.8c-.04-.03 0-7.9 0-7.9l-2.3 0l0-2.1l2.3 0l0-3.4l2.5-.7z" stroke="none" fill="#fff"/></g><g id="Polygon7181"><path d="m18 98.1l-7.9 0l0 7.3l8.8 0l0 2.2l-11.4 0l0-20.3l10.9 0l0 2.2l-8.3 0l0 6.4l7.9 0l0 2.2zm5.4-5.1c0 0 2.06 3.16 2.1 3.2c.5.8 1 1.5 1.4 2.3c0 0 .1 0 .1 0c.5-.8 1-1.6 1.5-2.4c-.04.03 2-3.1 2-3.1l2.9 0l-5 7.1l5.1 7.5l-3 0c0 0-2.13-3.31-2.1-3.3c-.6-.8-1.1-1.7-1.6-2.5c0 0 0 0 0 0c-.5.8-1 1.6-1.6 2.5c.02-.01-2.1 3.3-2.1 3.3l-2.9 0l5.2-7.4l-4.9-7.2l2.9 0zm12.7 4.8c0-1.9-.1-3.4-.2-4.8c.03.04 2.4 0 2.4 0l.1 2.5c0 0 .08.03.1 0c1.1-1.7 2.8-2.8 5.1-2.8c3.6 0 6.2 3 6.2 7.4c0 5.2-3.2 7.8-6.6 7.8c-1.9 0-3.6-.8-4.5-2.3c.02.01 0 0 0 0l0 7.9l-2.6 0c0 0-.05-15.72 0-15.7zm2.6 3.9c0 .3 0 .7.1 1c.5 1.9 2.1 3.1 3.9 3.1c2.8 0 4.5-2.3 4.5-5.6c0-2.9-1.6-5.4-4.4-5.4c-1.8 0-3.4 1.3-4 3.3c0 .3-.1.7-.1 1.1c0 0 0 2.5 0 2.5zm15.9-.9c.1 3.6 2.3 5 5 5c1.9 0 3-.3 4-.7c0 0 .4 1.9.4 1.9c-.9.4-2.5.9-4.8.9c-4.5 0-7.1-3-7.1-7.4c0-4.3 2.6-7.8 6.8-7.8c4.7 0 6 4.2 6 6.9c0 .5-.1.9-.1 1.2c0 0-10.2 0-10.2 0zm7.7-1.9c.1-1.7-.7-4.3-3.6-4.3c-2.7 0-3.9 2.5-4.1 4.3c0 0 7.7 0 7.7 0zm5.9-1.3c0-1.7-.1-3.2-.2-4.6c.03.04 2.3 0 2.3 0l.1 2.9c0 0 .15-.01.2 0c.6-2 2.2-3.2 4-3.2c.3 0 .5 0 .7.1c0 0 0 2.5 0 2.5c-.2-.1-.5-.1-.9-.1c-1.8 0-3.2 1.4-3.5 3.4c-.1.4-.1.8-.1 1.2c-.04.02 0 7.8 0 7.8l-2.6 0c0 0-.05-10.03 0-10zm9.9 10l0-14.6l2.6 0l0 14.6l-2.6 0zm2.9-18.6c.1.9-.6 1.6-1.7 1.6c-.9 0-1.5-.7-1.5-1.6c0-1 .6-1.7 1.6-1.7c1 0 1.6.7 1.6 1.7zm5.6 11.8c0 3.6 2.3 5 5 5c1.8 0 3-.3 4-.7c0 0 .4 1.9.4 1.9c-.9.4-2.5.9-4.8.9c-4.5 0-7.1-3-7.1-7.4c0-4.3 2.5-7.8 6.8-7.8c4.7 0 6 4.2 6 6.9c0 .5-.1.9-.1 1.2c0 0-10.2 0-10.2 0zm7.7-1.9c0-1.7-.7-4.3-3.6-4.3c-2.7 0-3.9 2.5-4.1 4.3c0 0 7.7 0 7.7 0zm5.8-1.9c0-1.5 0-2.8-.1-4c.01.04 2.4 0 2.4 0l.1 2.4c0 0 .06.04.1 0c.7-1.3 2.4-2.7 4.8-2.7c2 0 5.1 1.2 5.1 6.2c-.01-.01 0 8.7 0 8.7l-2.6 0c0 0-.05-8.41 0-8.4c0-2.3-.9-4.3-3.4-4.3c-1.7 0-3.1 1.2-3.5 2.7c-.2.3-.2.8-.2 1.2c-.03.03 0 8.8 0 8.8l-2.7 0c0 0 .03-10.63 0-10.6zm27 10c-.7.4-2.2.9-4.1.9c-4.4 0-7.3-3-7.3-7.4c0-4.5 3.1-7.8 7.8-7.8c1.6 0 3 .4 3.7.8c0 0-.6 2-.6 2c-.6-.3-1.6-.7-3.1-.7c-3.3 0-5.1 2.5-5.1 5.5c0 3.4 2.2 5.5 5 5.5c1.5 0 2.5-.4 3.3-.8c0 0 .4 2 .4 2zm4.4-6.2c.1 3.6 2.4 5 5 5c1.9 0 3-.3 4-.7c0 0 .5 1.9.5 1.9c-1 .4-2.6.9-4.9.9c-4.4 0-7.1-3-7.1-7.4c0-4.3 2.6-7.8 6.8-7.8c4.7 0 6 4.2 6 6.9c0 .5-.1.9-.1 1.2c0 0-10.2 0-10.2 0zm7.8-1.9c0-1.7-.7-4.3-3.7-4.3c-2.7 0-3.8 2.5-4.1 4.3c0 0 7.8 0 7.8 0zm15.3-10l0 4.1l3.8 0l0 2.1l-3.8 0c0 0 .01 7.78 0 7.8c0 1.8.5 2.8 2 2.8c.7 0 1.2-.1 1.5-.2c0 0 .1 2 .1 2c-.5.2-1.3.4-2.3.4c-1.2 0-2.2-.4-2.8-1.1c-.8-.8-1.1-2.1-1.1-3.8c.03-.03 0-7.9 0-7.9l-2.2 0l0-2.1l2.2 0l0-3.4l2.6-.7zm6.8-2.6l2.6 0l0 9c0 0 .06.02.1 0c.4-.7 1-1.4 1.9-1.8c.7-.5 1.7-.8 2.7-.8c1.9 0 5 1.2 5 6.2c.02.02 0 8.7 0 8.7l-2.6 0c0 0-.02-8.38 0-8.4c0-2.3-.9-4.3-3.4-4.3c-1.7 0-3 1.2-3.5 2.6c-.2.4-.2.8-.2 1.3c0 0 0 8.8 0 8.8l-2.6 0l0-21.3zm18.1 14.5c0 3.6 2.3 5 5 5c1.9 0 3-.3 4-.7c0 0 .4 1.9.4 1.9c-.9.4-2.5.9-4.8.9c-4.5 0-7.1-3-7.1-7.4c0-4.3 2.5-7.8 6.8-7.8c4.7 0 6 4.2 6 6.9c0 .5-.1.9-.1 1.2c0 0-10.2 0-10.2 0zm7.7-1.9c.1-1.7-.7-4.3-3.6-4.3c-2.7 0-3.9 2.5-4.1 4.3c0 0 7.7 0 7.7 0zm11.8 6c.8.5 2.2 1 3.5 1c1.9 0 2.8-.9 2.8-2.1c0-1.3-.7-2-2.7-2.7c-2.6-.9-3.8-2.4-3.8-4.1c0-2.4 1.9-4.3 5-4.3c1.5 0 2.8.4 3.6.9c0 0-.7 1.9-.7 1.9c-.6-.3-1.6-.8-3-.8c-1.5 0-2.4.9-2.4 2c0 1.2.9 1.7 2.8 2.4c2.5 1 3.8 2.3 3.8 4.4c0 2.6-2 4.4-5.4 4.4c-1.6 0-3.1-.4-4.1-1c0 0 .6-2 .6-2zm13.2-11.9c0 0 3.22 8.62 3.2 8.6c.3 1 .7 2.1.9 3c0 0 .1 0 .1 0c.3-.9.6-2 .9-3c.04-.04 2.9-8.6 2.9-8.6l2.8 0c0 0-3.95 10.39-4 10.4c-1.8 5-3.1 7.5-4.9 9.1c-1.3 1.1-2.6 1.6-3.3 1.7c0 0-.6-2.2-.6-2.2c.6-.2 1.5-.7 2.3-1.3c.7-.6 1.6-1.6 2.2-3c.1-.2.2-.4.2-.6c0-.1-.1-.3-.2-.7c.03.02-5.3-13.4-5.3-13.4l2.8 0zm13.2 4c0-1.5 0-2.8-.1-4c-.01.04 2.3 0 2.3 0l.2 2.4c0 0 .04.04 0 0c.8-1.3 2.4-2.7 4.8-2.7c2 0 5.2 1.2 5.2 6.2c-.03-.01 0 8.7 0 8.7l-2.7 0c0 0 .03-8.41 0-8.4c0-2.3-.8-4.3-3.3-4.3c-1.8 0-3.1 1.2-3.6 2.7c-.1.3-.2.8-.2 1.2c.05.03 0 8.8 0 8.8l-2.6 0c0 0 .01-10.63 0-10.6zm18.1 3.8c.1 3.6 2.4 5 5 5c1.9 0 3-.3 4-.7c0 0 .5 1.9.5 1.9c-1 .4-2.5.9-4.9.9c-4.4 0-7.1-3-7.1-7.4c0-4.3 2.6-7.8 6.8-7.8c4.8 0 6 4.2 6 6.9c0 .5 0 .9-.1 1.2c0 0-10.2 0-10.2 0zm7.8-1.9c0-1.7-.7-4.3-3.7-4.3c-2.7 0-3.8 2.5-4 4.3c0 0 7.7 0 7.7 0zm5.8-1.3c0-1.7 0-3.2-.1-4.6c-.03.04 2.3 0 2.3 0l.1 2.9c0 0 .09-.01.1 0c.6-2 2.2-3.2 4-3.2c.3 0 .5 0 .8.1c0 0 0 2.5 0 2.5c-.3-.1-.6-.1-.9-.1c-1.9 0-3.2 1.4-3.6 3.4c0 .4-.1.8-.1 1.2c0 .02 0 7.8 0 7.8l-2.6 0c0 0-.01-10.03 0-10zm22.1-4.6c-.1 1.1-.2 2.3-.2 4c0 0 0 8.5 0 8.5c0 3.3-.6 5.3-2 6.6c-1.4 1.3-3.5 1.7-5.3 1.7c-1.7 0-3.7-.4-4.8-1.2c0 0 .6-2 .6-2c1 .6 2.5 1.2 4.3 1.2c2.7 0 4.7-1.4 4.7-5.1c-.03-.01 0-1.6 0-1.6c0 0-.09-.03-.1 0c-.8 1.3-2.4 2.4-4.6 2.4c-3.6 0-6.2-3.1-6.2-7.1c0-4.9 3.2-7.7 6.5-7.7c2.6 0 3.9 1.3 4.6 2.5c-.02.03 0 0 0 0l.2-2.2c0 0 2.27.04 2.3 0zm-2.8 5.8c0-.5 0-.9-.1-1.2c-.5-1.6-1.8-2.8-3.7-2.8c-2.5 0-4.3 2.1-4.3 5.5c0 2.8 1.4 5.2 4.3 5.2c1.6 0 3.1-1 3.6-2.7c.2-.5.2-1 .2-1.4c0 0 0-2.6 0-2.6zm8-5.8c0 0 3.17 8.62 3.2 8.6c.3 1 .7 2.1.9 3c0 0 .1 0 .1 0c.2-.9.5-2 .9-3c-.01-.04 2.9-8.6 2.9-8.6l2.8 0c0 0-4 10.39-4 10.4c-1.9 5-3.2 7.5-5 9.1c-1.3 1.1-2.6 1.6-3.2 1.7c0 0-.7-2.2-.7-2.2c.7-.2 1.5-.7 2.3-1.3c.7-.6 1.6-1.6 2.2-3c.2-.2.3-.4.3-.6c0-.1-.1-.3-.2-.7c-.02.02-5.4-13.4-5.4-13.4l2.9 0zm19.4 14.6c.1-1 .1-2.5.1-3.8c.02.01 0-17.5 0-17.5l2.6 0l0 9.1c0 0 .09-.02.1 0c.9-1.6 2.6-2.7 4.9-2.7c3.6 0 6.2 3 6.2 7.4c0 5.2-3.3 7.8-6.6 7.8c-2.1 0-3.7-.8-4.8-2.7c-.01-.04-.1 0-.1 0l-.1 2.4c0 0-2.3-.04-2.3 0zm2.7-5.9c0 .4.1.7.1 1c.6 1.8 2.1 3.1 4 3.1c2.8 0 4.4-2.3 4.4-5.6c0-2.9-1.5-5.4-4.3-5.4c-1.8 0-3.5 1.2-4 3.3c-.1.3-.2.6-.2 1c0 0 0 2.6 0 2.6zm16-.9c0 3.6 2.3 5 4.9 5c1.9 0 3.1-.3 4.1-.7c0 0 .4 1.9.4 1.9c-.9.4-2.5.9-4.8.9c-4.5 0-7.2-3-7.2-7.4c0-4.3 2.6-7.8 6.8-7.8c4.8 0 6 4.2 6 6.9c0 .5 0 .9 0 1.2c0 0-10.2 0-10.2 0zm7.7-1.9c0-1.7-.7-4.3-3.7-4.3c-2.6 0-3.8 2.5-4 4.3c0 0 7.7 0 7.7 0zm9-10l0 4.1l3.8 0l0 2.1l-3.8 0c0 0 0 7.78 0 7.8c0 1.8.5 2.8 2 2.8c.7 0 1.2-.1 1.5-.2c0 0 .1 2 .1 2c-.5.2-1.3.4-2.3.4c-1.2 0-2.2-.4-2.9-1.1c-.7-.8-1-2.1-1-3.8c.02-.03 0-7.9 0-7.9l-2.2 0l0-2.1l2.2 0l0-3.4l2.6-.7zm8.1 4.1c0 0 1.89 7.42 1.9 7.4c.4 1.6.8 3.1 1.1 4.6c0 0 .1 0 .1 0c.3-1.4.8-3 1.2-4.5c.05-.05 2.4-7.5 2.4-7.5l2.2 0c0 0 2.29 7.3 2.3 7.3c.5 1.7.9 3.3 1.3 4.7c0 0 .1 0 .1 0c.2-1.4.6-3 1.1-4.7c-.02.03 2-7.3 2-7.3l2.7 0l-4.7 14.6l-2.4 0c0 0-2.24-6.97-2.2-7c-.6-1.6-1-3-1.3-4.7c0 0-.1 0-.1 0c-.4 1.7-.8 3.2-1.3 4.8c-.01-.04-2.4 6.9-2.4 6.9l-2.4 0l-4.3-14.6l2.7 0zm22.2 7.8c0 3.6 2.3 5 4.9 5c1.9 0 3.1-.3 4.1-.7c0 0 .4 1.9.4 1.9c-.9.4-2.5.9-4.8.9c-4.5 0-7.2-3-7.2-7.4c0-4.3 2.6-7.8 6.9-7.8c4.7 0 6 4.2 6 6.9c0 .5-.1.9-.1 1.2c0 0-10.2 0-10.2 0zm7.7-1.9c0-1.7-.7-4.3-3.7-4.3c-2.6 0-3.8 2.5-4 4.3c0 0 7.7 0 7.7 0zm7.3 1.9c.1 3.6 2.3 5 5 5c1.9 0 3-.3 4-.7c0 0 .4 1.9.4 1.9c-.9.4-2.5.9-4.8.9c-4.5 0-7.1-3-7.1-7.4c0-4.3 2.6-7.8 6.8-7.8c4.7 0 6 4.2 6 6.9c0 .5-.1.9-.1 1.2c0 0-10.2 0-10.2 0zm7.7-1.9c.1-1.7-.7-4.3-3.6-4.3c-2.7 0-3.9 2.5-4.1 4.3c0 0 7.7 0 7.7 0zm5.9-1.9c0-1.5-.1-2.8-.2-4c.04.04 2.4 0 2.4 0l.1 2.4c0 0 .09.04.1 0c.7-1.3 2.4-2.7 4.8-2.7c2 0 5.1 1.2 5.1 6.2c.02-.01 0 8.7 0 8.7l-2.6 0c0 0-.02-8.41 0-8.4c0-2.3-.9-4.3-3.4-4.3c-1.7 0-3.1 1.2-3.5 2.7c-.1.3-.2.8-.2 1.2c0 .03 0 8.8 0 8.8l-2.6 0c0 0-.04-10.63 0-10.6z" stroke="none" fill="#fff"/></g><g id="Polygon7180"><path d="m92.3 63.5c1.1-.1 2-.3 2.5-.9c.6-.6.9-1.7.9-4.4c-.04-.03 0-10.9 0-10.9l4.2 0c0 0 .05 11.88 0 11.9c0 3-.6 4.8-1.9 6c-1.2 1.1-3.2 1.7-5.3 1.7c0 0-.4-3.4-.4-3.4zm7.8-20c0 1.2-.9 2.1-2.3 2.1c-1.4 0-2.2-.9-2.2-2.1c0-1.2.8-2.2 2.2-2.2c1.4 0 2.2 1 2.3 2.2zm16.1 13.1c0 1.8 0 3.3.1 4.4c0 0-3.7 0-3.7 0l-.2-1.9c0 0-.08-.03-.1 0c-.5.8-1.8 2.2-4.3 2.2c-2.7 0-4.8-1.7-4.8-6c.02.04 0-8 0-8l4.3 0c0 0 .01 7.37 0 7.4c0 2 .6 3.2 2.1 3.2c1.2 0 1.9-.8 2.2-1.5c.1-.3.1-.6.1-.9c0-.04 0-8.2 0-8.2l4.3 0c0 0-.01 9.3 0 9.3zm3.4.7c.8.5 2.4 1 3.6 1c1.3 0 1.9-.4 1.9-1.1c0-.7-.5-1.1-2.1-1.6c-2.8-1-3.9-2.5-3.8-4.1c0-2.6 2.1-4.5 5.5-4.5c1.6 0 3 .4 3.9.8c0 0-.8 2.9-.8 2.9c-.6-.3-1.8-.8-2.9-.8c-1.1 0-1.7.5-1.7 1.2c0 .6.6.9 2.3 1.5c2.6.9 3.6 2.2 3.7 4.3c0 2.5-2 4.4-6 4.4c-1.8 0-3.3-.4-4.4-1c0 0 .8-3 .8-3zm16.9-13.9l0 3.9l3.1 0l0 3.1l-3.1 0c0 0 .01 5 0 5c0 1.7.4 2.4 1.7 2.4c.5 0 .9 0 1.3-.1c0 0 0 3.2 0 3.2c-.6.2-1.6.4-2.8.4c-1.4 0-2.5-.5-3.2-1.2c-.8-.8-1.2-2.1-1.2-4.1c.04.04 0-5.6 0-5.6l-1.8 0l0-3.1l1.8 0l0-3l4.2-.9zm11.2 8.4c0-2-.1-3.3-.1-4.5c-.03.01 3.6 0 3.6 0l.2 2.5c0 0 .09.03.1 0c.7-2 2.4-2.8 3.7-2.8c.4 0 .6 0 .9.1c0 0 0 4 0 4c-.3-.1-.7-.2-1.2-.2c-1.5 0-2.6.9-2.9 2.2c0 .3-.1.6-.1 1c.04-.04 0 6.9 0 6.9l-4.2 0c0 0-.01-9.18 0-9.2zm13.7 3.7c.1 1.8 1.9 2.6 3.8 2.6c1.5 0 2.7-.2 3.8-.5c0 0 .6 2.8.6 2.8c-1.4.6-3.1.9-5 .9c-4.6 0-7.3-2.7-7.3-7c0-3.5 2.2-7.3 6.9-7.3c4.5 0 6.1 3.4 6.1 6.8c0 .8 0 1.4-.1 1.7c0 0-8.8 0-8.8 0zm5-2.9c0-1-.5-2.8-2.4-2.8c-1.8 0-2.5 1.7-2.7 2.8c0 0 5.1 0 5.1 0zm16.8 8.1c-.8.3-2.2.6-3.8.6c-4.5 0-7.3-2.7-7.3-7c0-4 2.7-7.3 7.8-7.3c1.2 0 2.4.2 3.3.5c0 0-.7 3.2-.7 3.2c-.5-.2-1.2-.4-2.4-.4c-2.2 0-3.7 1.6-3.6 3.8c0 2.5 1.6 3.8 3.7 3.8c1 0 1.8-.1 2.5-.4c0 0 .5 3.2.5 3.2zm15.5-6.7c0 5-3.5 7.3-7.2 7.3c-4 0-7.1-2.6-7.1-7c0-4.5 2.9-7.3 7.3-7.3c4.2 0 7 2.9 7 7zm-9.9.1c0 2.4 1 4.2 2.8 4.2c1.7 0 2.7-1.7 2.7-4.2c0-2-.8-4.1-2.7-4.1c-2 0-2.8 2.1-2.8 4.1zm12.6-2.4c0-1.7-.1-3.2-.2-4.4c.05.01 3.7 0 3.7 0l.2 1.9c0 0 .12-.02.1 0c.6-.9 2-2.2 4.3-2.2c2.8 0 4.9 1.8 4.9 5.9c-.05-.02 0 8.1 0 8.1l-4.3 0c0 0 0-7.59 0-7.6c0-1.8-.6-3-2.2-3c-1.1 0-1.8.9-2.1 1.6c-.1.3-.2.7-.2 1.1c.02 0 0 7.9 0 7.9l-4.2 0c0 0-.04-9.32 0-9.3zm26.6 9c-.7.3-2.1.6-3.8.6c-4.4 0-7.2-2.7-7.2-7c0-4 2.7-7.3 7.8-7.3c1.1 0 2.4.2 3.3.5c0 0-.7 3.2-.7 3.2c-.5-.2-1.3-.4-2.4-.4c-2.2 0-3.7 1.6-3.6 3.8c0 2.5 1.6 3.8 3.7 3.8c1 0 1.8-.1 2.4-.4c0 0 .5 3.2.5 3.2zm2.4.3l0-13.7l4.3 0l0 13.7l-4.3 0zm4.4-17.5c0 1.2-.9 2.1-2.3 2.1c-1.3 0-2.2-.9-2.2-2.1c0-1.2.9-2.2 2.2-2.2c1.4 0 2.3 1 2.3 2.2zm3.3-2.4l4.2 0l0 19.9l-4.2 0l0-19.9zm7.7 19.9l0-13.7l4.2 0l0 13.7l-4.2 0zm4.4-17.5c0 1.2-.9 2.1-2.3 2.1c-1.4 0-2.3-.9-2.2-2.1c-.1-1.2.8-2.2 2.2-2.2c1.4 0 2.2 1 2.3 2.2zm11 17.5l-.2-1.4c0 0-.11.03-.1 0c-.9 1.1-2.3 1.7-3.9 1.7c-2.8 0-4.5-2-4.5-4.2c0-3.5 3.2-5.3 8.1-5.2c0 0 0-.2 0-.2c0-.8-.4-1.8-2.5-1.8c-1.4 0-2.9.5-3.8 1c0 0-.8-2.7-.8-2.7c1-.5 2.9-1.2 5.3-1.2c4.6 0 6.1 2.7 6.1 5.9c0 0 0 4.8 0 4.8c0 1.3 0 2.5.2 3.3c-.04 0-3.9 0-3.9 0zm-.5-6.5c-2.2 0-4 .5-4 2.2c0 1.1.8 1.6 1.7 1.6c1.1 0 2-.7 2.2-1.6c.1-.2.1-.4.1-.7c0 0 0-1.5 0-1.5zm12.1-11.1l0 3.9l3 0l0 3.1l-3 0c0 0-.04 5 0 5c0 1.7.4 2.4 1.6 2.4c.6 0 1 0 1.3-.1c0 0 0 3.2 0 3.2c-.5.2-1.5.4-2.7.4c-1.4 0-2.6-.5-3.2-1.2c-.8-.8-1.2-2.1-1.2-4.1c-.01.04 0-5.6 0-5.6l-1.8 0l0-3.1l1.8 0l0-3l4.2-.9zm5.5 17.6l0-13.7l4.2 0l0 13.7l-4.2 0zm4.4-17.5c0 1.2-.9 2.1-2.3 2.1c-1.4 0-2.3-.9-2.2-2.1c-.1-1.2.8-2.2 2.2-2.2c1.4 0 2.2 1 2.3 2.2zm16.8 10.5c0 5-3.6 7.3-7.3 7.3c-4 0-7-2.6-7-7c0-4.5 2.9-7.3 7.3-7.3c4.2 0 7 2.9 7 7zm-9.9.1c0 2.4.9 4.2 2.8 4.2c1.6 0 2.7-1.7 2.7-4.2c0-2-.8-4.1-2.7-4.1c-2.1 0-2.8 2.1-2.8 4.1zm12.5-2.4c0-1.7-.1-3.2-.1-4.4c-.01.01 3.7 0 3.7 0l.2 1.9c0 0 .07-.02.1 0c.5-.9 1.9-2.2 4.2-2.2c2.8 0 4.9 1.8 4.9 5.9c-.01-.02 0 8.1 0 8.1l-4.3 0c0 0 .04-7.59 0-7.6c0-1.8-.6-3-2.1-3c-1.2 0-1.9.9-2.2 1.6c-.1.3-.1.7-.1 1.1c-.04 0 0 7.9 0 7.9l-4.3 0c0 0 0-9.32 0-9.3zm16.9 3.1l-.7-12.7l4.5 0l-.6 12.7l-3.2 0zm-1 4c0-1.5 1.1-2.6 2.6-2.6c1.4 0 2.4 1.1 2.4 2.6c0 1.4-.9 2.5-2.4 2.5c-1.6 0-2.6-1.1-2.6-2.5z" stroke="none" fill="#15345e"/></g><g id="Polygon7179"><path d="m60.5 2.1c0 0 .01 10.89 0 10.9c0 3.2 1.2 4.9 3.4 4.9c2.3 0 3.5-1.6 3.5-4.9c0-.01 0-10.9 0-10.9l4.3 0c0 0-.05 10.61 0 10.6c0 5.8-3 8.6-7.9 8.6c-4.8 0-7.6-2.6-7.6-8.6c.02-.04 0-10.6 0-10.6l4.3 0zm14.7 9.6c0-1.7 0-3.2-.1-4.4c0 .01 3.7 0 3.7 0l.2 1.9c0 0 .07-.02.1 0c.5-.9 1.9-2.2 4.2-2.2c2.8 0 4.9 1.8 4.9 5.9c0-.02 0 8.1 0 8.1l-4.3 0c0 0 .04-7.59 0-7.6c0-1.8-.6-3-2.1-3c-1.2 0-1.9.9-2.2 1.6c-.1.3-.1.7-.1 1.1c-.04 0 0 7.9 0 7.9l-4.3 0c0 0 .01-9.32 0-9.3zm16.3 9.3c.1-.9.1-2.5.1-4.1c.02.01 0-15.8 0-15.8l4.3 0l0 7.8c0 0 .03.03 0 0c.8-1.1 2.3-1.9 4.2-1.9c3.2 0 5.7 2.7 5.6 6.9c0 4.9-3.1 7.4-6.2 7.4c-1.6 0-3.2-.6-4.2-2.2c.04 0 0 0 0 0l-.2 1.9c0 0-3.6 0-3.6 0zm4.4-5.8c0 .3 0 .5.1.7c.2 1.2 1.2 2 2.4 2c1.9 0 3-1.4 3-3.8c0-2.1-1-3.8-3-3.8c-1.1 0-2.2.8-2.4 2.1c-.1.2-.1.5-.1.8c0 0 0 2 0 2zm12.5-14.1l4.2 0l0 19.9l-4.2 0l0-19.9zm21.2 12.9c0 5-3.6 7.3-7.2 7.3c-4 0-7.1-2.6-7.1-7c0-4.5 2.9-7.3 7.3-7.3c4.2 0 7 2.9 7 7zm-9.9.1c0 2.4 1 4.2 2.8 4.2c1.6 0 2.7-1.7 2.7-4.2c0-2-.8-4.1-2.7-4.1c-2.1 0-2.8 2.1-2.8 4.1zm22.9 6.6c-.8.3-2.2.6-3.8.6c-4.5 0-7.3-2.7-7.3-7c0-4 2.8-7.3 7.9-7.3c1.1 0 2.3.2 3.2.5c0 0-.7 3.2-.7 3.2c-.5-.2-1.2-.4-2.3-.4c-2.3 0-3.7 1.6-3.7 3.8c0 2.5 1.7 3.8 3.7 3.8c1 0 1.8-.1 2.5-.4c0 0 .5 3.2.5 3.2zm6.6-7.6c0 0 .04-.02 0 0c.3-.6.7-1.1 1-1.7c.02.02 2.8-4.1 2.8-4.1l5.1 0l-4.9 5.6l5.6 8.1l-5.2 0l-3.3-5.6l-1.1 1.3l0 4.3l-4.3 0l0-19.9l4.3 0l0 12zm21-11l0 18.9l-4.3 0l0-18.9l4.3 0zm7.3 3.6l-5 0l0-3.6l14.5 0l0 3.6l-5.2 0l0 15.3l-4.3 0l0-15.3zm24.8 14.8c-.8.4-2.6.8-4.9.8c-6.5 0-9.9-4.1-9.9-9.5c0-6.4 4.6-10 10.3-10c2.3 0 3.9.5 4.7.9c0 0-.9 3.3-.9 3.3c-.8-.3-2-.7-3.6-.7c-3.3 0-6 2.1-6 6.3c0 3.8 2.3 6.2 6.1 6.2c1.3 0 2.7-.3 3.5-.7c0 0 .7 3.4.7 3.4zm8.3.5l0-13.7l4.2 0l0 13.7l-4.2 0zm4.4-17.5c0 1.2-.9 2.1-2.3 2.1c-1.4 0-2.3-.9-2.2-2.1c-.1-1.2.8-2.2 2.2-2.2c1.4 0 2.3 1 2.3 2.2zm3.2 13.8c.8.5 2.4 1 3.7 1c1.3 0 1.8-.4 1.8-1.1c0-.7-.4-1.1-2-1.6c-2.8-1-3.9-2.5-3.9-4.1c0-2.6 2.2-4.5 5.6-4.5c1.6 0 3 .4 3.8.8c0 0-.7 2.9-.7 2.9c-.6-.3-1.8-.8-3-.8c-1 0-1.6.5-1.6 1.2c0 .6.5.9 2.2 1.5c2.6.9 3.7 2.2 3.7 4.3c0 2.5-2 4.4-5.9 4.4c-1.8 0-3.4-.4-4.4-1c0 0 .7-3 .7-3zm17.9-5.6c0-1.7-.1-3.2-.1-4.4c-.05.01 3.5 0 3.5 0l.2 1.9c0 0 .12-.04.1 0c.6-.9 1.8-2.2 4.2-2.2c1.7 0 3.1.9 3.7 2.3c0 0 .1 0 .1 0c.5-.7 1.1-1.2 1.7-1.6c.8-.5 1.6-.7 2.6-.7c2.7 0 4.7 1.8 4.7 5.9c-.04.04 0 8.1 0 8.1l-4.2 0c0 0 .01-7.45 0-7.4c0-2-.6-3.2-2-3.2c-1 0-1.7.7-2 1.5c-.1.3-.1.8-.1 1.1c-.03-.01 0 8 0 8l-4.2 0c0 0 .03-7.67 0-7.7c0-1.7-.6-2.9-1.9-2.9c-1.1 0-1.8.9-2 1.6c-.2.3-.2.7-.2 1c.01.02 0 8 0 8l-4.1 0c0 0-.03-9.32 0-9.3zm37.6 2.3c0 5-3.6 7.3-7.3 7.3c-4 0-7-2.6-7-7c0-4.5 2.9-7.3 7.3-7.3c4.2 0 7 2.9 7 7zm-9.9.1c0 2.4.9 4.2 2.8 4.2c1.6 0 2.7-1.7 2.7-4.2c0-2-.8-4.1-2.7-4.1c-2.1 0-2.8 2.1-2.8 4.1zm12.5-2.3c0-2-.1-3.3-.1-4.5c-.01.01 3.7 0 3.7 0l.1 2.5c0 0 .11.03.1 0c.7-2 2.4-2.8 3.7-2.8c.4 0 .6 0 .9.1c0 0 0 4 0 4c-.3-.1-.7-.2-1.1-.2c-1.6 0-2.7.9-3 2.2c0 .3 0 .6 0 1c-.04-.04 0 6.9 0 6.9l-4.3 0c0 0 0-9.18 0-9.2zm13.7 3.7c.1 1.8 1.9 2.6 3.9 2.6c1.4 0 2.6-.2 3.7-.5c0 0 .6 2.8.6 2.8c-1.4.6-3.1.9-5 .9c-4.6 0-7.3-2.7-7.3-7c0-3.5 2.2-7.3 6.9-7.3c4.5 0 6.2 3.4 6.2 6.8c0 .8-.1 1.4-.2 1.7c0 0-8.8 0-8.8 0zm5-2.9c0-1-.4-2.8-2.4-2.8c-1.8 0-2.5 1.7-2.6 2.8c0 0 5 0 5 0zm16.9-9.2l0 3.9l3.1 0l0 3.1l-3.1 0c0 0 .02 5 0 5c0 1.7.4 2.4 1.7 2.4c.5 0 .9 0 1.3-.1c0 0 0 3.2 0 3.2c-.6.2-1.6.4-2.8.4c-1.4 0-2.5-.5-3.2-1.2c-.8-.8-1.2-2.1-1.2-4.1c.04.04 0-5.6 0-5.6l-1.8 0l0-3.1l1.8 0l0-3l4.2-.9zm5.5-2.3l4.3 0l0 7.8c0 0 .04.03 0 0c.5-.6 1.1-1 1.7-1.4c.6-.3 1.5-.5 2.2-.5c2.8 0 4.8 1.9 4.8 6c.02-.01 0 8 0 8l-4.2 0c0 0-.03-7.53 0-7.5c0-1.8-.6-3.1-2.2-3.1c-1.2 0-1.9.8-2.2 1.5c-.1.3-.1.7-.1 1c-.01-.02 0 8.1 0 8.1l-4.3 0l0-19.9zm24.2 19.9l-.2-1.4c0 0-.11.03-.1 0c-.9 1.1-2.3 1.7-3.9 1.7c-2.8 0-4.5-2-4.5-4.2c0-3.5 3.2-5.3 8.1-5.2c0 0 0-.2 0-.2c0-.8-.4-1.8-2.5-1.8c-1.4 0-2.9.5-3.8 1c0 0-.8-2.7-.8-2.7c1-.5 2.9-1.2 5.3-1.2c4.6 0 6.1 2.7 6.1 5.9c0 0 0 4.8 0 4.8c0 1.3 0 2.5.2 3.3c-.04 0-3.9 0-3.9 0zm-.5-6.5c-2.2 0-4 .5-4 2.2c0 1.1.8 1.6 1.7 1.6c1.1 0 2-.7 2.2-1.6c.1-.2.1-.4.1-.7c0 0 0-1.5 0-1.5zm7.5-2.8c0-1.7 0-3.2-.1-4.4c.01.01 3.7 0 3.7 0l.2 1.9c0 0 .09-.02.1 0c.5-.9 1.9-2.2 4.2-2.2c2.8 0 4.9 1.8 4.9 5.9c.02-.02 0 8.1 0 8.1l-4.2 0c0 0-.04-7.59 0-7.6c0-1.8-.7-3-2.2-3c-1.2 0-1.9.9-2.2 1.6c-.1.3-.1.7-.1 1.1c-.02 0 0 7.9 0 7.9l-4.3 0c0 0 .02-9.32 0-9.3z" stroke="none" fill="#15345e"/></g></svg>