<?xml version="1.0" standalone="no"?><!DOCTYPE svg PUBLIC "-//W3C//DTD SVG 1.1//EN" "http://www.w3.org/Graphics/SVG/1.1/DTD/svg11.dtd"><svg xmlns="http://www.w3.org/2000/svg" version="1.1" width="578px" height="475px" viewBox="0 -7 578 475" style="top:-7px"><desc>The claim of Input Tax Credits (ITC) is governed by stringent provisions which require the details of the invoice/deb...</desc><defs/><g id="Polygon5820"><path d="m5.2 429l0 21.6l-2.8 0l0-21.6l2.8 0zm9 2.4l-6.6 0l0-2.4l16 0l0 2.4l-6.6 0l0 19.2l-2.8 0l0-19.2zm26 18.5c-1 .5-3.1 1-5.7 1c-6.1 0-10.7-3.9-10.7-10.9c0-6.8 4.6-11.4 11.3-11.4c2.7 0 4.4.6 5.1 1c0 0-.6 2.3-.6 2.3c-1.1-.5-2.6-.9-4.4-.9c-5.1 0-8.4 3.2-8.4 8.9c0 5.3 3 8.6 8.3 8.6c1.7 0 3.4-.3 4.5-.9c0 0 .6 2.3.6 2.3zm18.7.7l-.2-2c0 0-.08.01-.1 0c-.8 1.2-2.5 2.3-4.7 2.3c-3.1 0-4.7-2.2-4.7-4.4c0-3.8 3.3-5.8 9.3-5.8c0 0 0-.3 0-.3c0-1.3-.4-3.6-3.6-3.6c-1.4 0-2.9.4-4 1.2c0 0-.6-1.9-.6-1.9c1.3-.8 3.1-1.4 5.1-1.4c4.7 0 5.8 3.3 5.8 6.4c0 0 0 5.7 0 5.7c0 1.4.1 2.7.3 3.8c0-.04-2.6 0-2.6 0zm-.4-7.9c-3-.1-6.5.4-6.5 3.4c0 1.9 1.2 2.7 2.6 2.7c2 0 3.3-1.2 3.8-2.6c.1-.2.1-.6.1-.9c0 0 0-2.6 0-2.6zm10.6-12.1l0 4.5l4 0l0 2.1l-4 0c0 0-.04 8.37 0 8.4c0 1.9.5 3 2.1 3c.7 0 1.2-.1 1.6-.2c0 0 .1 2.1.1 2.1c-.5.2-1.4.4-2.5.4c-1.3 0-2.3-.4-3-1.2c-.8-.8-1.1-2.2-1.1-4c0-.04 0-8.5 0-8.5l-2.4 0l0-2.1l2.4 0l0-3.7l2.8-.8zm22.5 20l-.2-2c0 0-.11.01-.1 0c-.9 1.2-2.5 2.3-4.7 2.3c-3.2 0-4.8-2.2-4.8-4.4c0-3.8 3.4-5.8 9.3-5.8c0 0 0-.3 0-.3c0-1.3-.3-3.6-3.5-3.6c-1.4 0-2.9.4-4 1.2c0 0-.7-1.9-.7-1.9c1.3-.8 3.2-1.4 5.1-1.4c4.8 0 5.9 3.3 5.9 6.4c0 0 0 5.7 0 5.7c0 1.4.1 2.7.3 3.8c-.03-.04-2.6 0-2.6 0zm-.4-7.9c-3.1-.1-6.6.4-6.6 3.4c0 1.9 1.3 2.7 2.7 2.7c2 0 3.3-1.2 3.7-2.6c.1-.2.2-.6.2-.9c0 0 0-2.6 0-2.6zm14-14.9l2.9 0l0 22.8l-2.9 0l0-22.8zm16.2 22.8l-.3-2c0 0-.05.01 0 0c-.9 1.2-2.6 2.3-4.8 2.3c-3.1 0-4.7-2.2-4.7-4.4c0-3.8 3.3-5.8 9.3-5.8c0 0 0-.3 0-.3c0-1.3-.4-3.6-3.5-3.6c-1.5 0-3 .4-4.1 1.2c0 0-.6-1.9-.6-1.9c1.3-.8 3.1-1.4 5.1-1.4c4.7 0 5.9 3.3 5.9 6.4c0 0 0 5.7 0 5.7c0 1.4 0 2.7.2 3.8c.03-.04-2.5 0-2.5 0zm-.4-7.9c-3.1-.1-6.6.4-6.6 3.4c0 1.9 1.2 2.7 2.7 2.7c2 0 3.2-1.2 3.7-2.6c.1-.2.2-.6.2-.9c0 0 0-2.6 0-2.6zm10.5-12.1l0 4.5l4 0l0 2.1l-4 0c0 0-.01 8.37 0 8.4c0 1.9.5 3 2.1 3c.7 0 1.3-.1 1.6-.2c0 0 .2 2.1.2 2.1c-.6.2-1.5.4-2.5.4c-1.4 0-2.4-.4-3.1-1.2c-.8-.8-1.1-2.2-1.1-4c.03-.04 0-8.5 0-8.5l-2.4 0l0-2.1l2.4 0l0-3.7l2.8-.8zm8.6 12.7c0 3.8 2.5 5.4 5.3 5.4c2 0 3.2-.3 4.3-.8c0 0 .4 2 .4 2c-1 .5-2.6 1-5.1 1c-4.8 0-7.6-3.2-7.6-7.8c0-4.7 2.7-8.4 7.2-8.4c5.1 0 6.4 4.5 6.4 7.3c0 .6 0 1-.1 1.3c0 0-10.8 0-10.8 0zm8.2-2c0-1.8-.7-4.6-3.9-4.6c-2.8 0-4.1 2.7-4.3 4.6c0 0 8.2 0 8.2 0zm6.2-1.4c0-1.8 0-3.4-.1-4.8c0-.03 2.5 0 2.5 0l.1 3c0 0 .09.01.1 0c.7-2.1 2.4-3.4 4.3-3.4c.3 0 .5.1.8.1c0 0 0 2.7 0 2.7c-.3-.1-.6-.1-1-.1c-2 0-3.4 1.5-3.8 3.6c0 .4-.1.8-.1 1.3c.01 0 0 8.3 0 8.3l-2.8 0c0 0 .03-10.7 0-10.7zm30.6-12.1c0 0 .05 18.76 0 18.8c0 1.3.1 2.9.2 4c-.02-.04-2.6 0-2.6 0l-.1-2.7c0 0-.04-.03 0 0c-.9 1.7-2.8 3-5.3 3c-3.8 0-6.6-3.2-6.6-7.9c-.1-5.1 3.1-8.3 6.9-8.3c2.4 0 4 1.1 4.7 2.4c-.03-.01 0 0 0 0l0-9.3l2.8 0zm-2.8 13.6c0-.4 0-.9-.1-1.2c-.4-1.8-1.9-3.3-4.1-3.3c-2.9 0-4.6 2.6-4.6 6c0 3.1 1.5 5.7 4.6 5.7c1.9 0 3.6-1.2 4.1-3.3c.1-.4.1-.8.1-1.2c0 0 0-2.7 0-2.7zm16.1 9.2l-.2-2c0 0-.12.01-.1 0c-.9 1.2-2.6 2.3-4.8 2.3c-3.1 0-4.7-2.2-4.7-4.4c0-3.8 3.3-5.8 9.3-5.8c0 0 0-.3 0-.3c0-1.3-.3-3.6-3.5-3.6c-1.4 0-2.9.4-4 1.2c0 0-.7-1.9-.7-1.9c1.3-.8 3.2-1.4 5.1-1.4c4.7 0 5.9 3.3 5.9 6.4c0 0 0 5.7 0 5.7c0 1.4.1 2.7.3 3.8c-.04-.04-2.6 0-2.6 0zm-.4-7.9c-3.1-.1-6.6.4-6.6 3.4c0 1.9 1.2 2.7 2.7 2.7c2 0 3.3-1.2 3.7-2.6c.1-.2.2-.6.2-.9c0 0 0-2.6 0-2.6zm10.5-12.1l0 4.5l4 0l0 2.1l-4 0c0 0 .01 8.37 0 8.4c0 1.9.6 3 2.1 3c.8 0 1.3-.1 1.7-.2c0 0 .1 2.1.1 2.1c-.6.2-1.4.4-2.5.4c-1.3 0-2.4-.4-3.1-1.2c-.8-.8-1-2.2-1-4c-.04-.04 0-8.5 0-8.5l-2.4 0l0-2.1l2.4 0l0-3.7l2.7-.8zm8.6 12.7c0 3.8 2.5 5.4 5.3 5.4c2 0 3.2-.3 4.3-.8c0 0 .5 2 .5 2c-1 .5-2.7 1-5.2 1c-4.8 0-7.6-3.2-7.6-7.8c0-4.7 2.7-8.4 7.3-8.4c5 0 6.4 4.5 6.4 7.3c0 .6-.1 1-.1 1.3c0 0-10.9 0-10.9 0zm8.2-2c.1-1.8-.7-4.6-3.9-4.6c-2.8 0-4.1 2.7-4.3 4.6c0 0 8.2 0 8.2 0zm21.6 9.3l-.2-2c0 0-.11.01-.1 0c-.9 1.2-2.5 2.3-4.7 2.3c-3.2 0-4.8-2.2-4.8-4.4c0-3.8 3.3-5.8 9.3-5.8c0 0 0-.3 0-.3c0-1.3-.3-3.6-3.5-3.6c-1.4 0-2.9.4-4 1.2c0 0-.7-1.9-.7-1.9c1.3-.8 3.2-1.4 5.1-1.4c4.8 0 5.9 3.3 5.9 6.4c0 0 0 5.7 0 5.7c0 1.4.1 2.7.3 3.8c-.03-.04-2.6 0-2.6 0zm-.4-7.9c-3.1-.1-6.6.4-6.6 3.4c0 1.9 1.2 2.7 2.7 2.7c2 0 3.3-1.2 3.7-2.6c.1-.2.2-.6.2-.9c0 0 0-2.6 0-2.6zm7.5 7.9l0-13.4l-2.1 0l0-2.1l2.1 0c0 0 .04-.76 0-.8c0-2.1.5-4.1 1.8-5.4c1.1-1 2.5-1.4 3.8-1.4c1 0 1.9.2 2.4.4c0 0-.4 2.2-.4 2.2c-.4-.2-1-.3-1.8-.3c-2.4 0-3 2.1-3 4.4c.03.04 0 .9 0 .9l3.8 0l0 2.1l-3.8 0l0 13.4l-2.8 0zm12.8-20l0 4.5l4.1 0l0 2.1l-4.1 0c0 0 .04 8.37 0 8.4c0 1.9.6 3 2.2 3c.7 0 1.2-.1 1.6-.2c0 0 .1 2.1.1 2.1c-.5.2-1.4.4-2.5.4c-1.3 0-2.3-.4-3-1.2c-.8-.8-1.1-2.2-1.1-4c-.01-.04 0-8.5 0-8.5l-2.4 0l0-2.1l2.4 0l0-3.7l2.7-.8zm8.6 12.7c.1 3.8 2.5 5.4 5.3 5.4c2 0 3.3-.3 4.3-.8c0 0 .5 2 .5 2c-1 .5-2.7 1-5.2 1c-4.7 0-7.6-3.2-7.6-7.8c0-4.7 2.8-8.4 7.3-8.4c5.1 0 6.4 4.5 6.4 7.3c0 .6-.1 1-.1 1.3c0 0-10.9 0-10.9 0zm8.3-2c0-1.8-.8-4.6-3.9-4.6c-2.9 0-4.1 2.7-4.3 4.6c0 0 8.2 0 8.2 0zm6.2-1.4c0-1.8 0-3.4-.1-4.8c-.05-.03 2.4 0 2.4 0l.1 3c0 0 .14.01.1 0c.7-2.1 2.4-3.4 4.3-3.4c.4 0 .6.1.8.1c0 0 0 2.7 0 2.7c-.3-.1-.5-.1-.9-.1c-2 0-3.4 1.5-3.8 3.6c-.1.4-.1.8-.1 1.3c-.03 0 0 8.3 0 8.3l-2.8 0c0 0-.02-10.7 0-10.7zm17.2 0c0-1.8 0-3.4-.1-4.8c0-.03 2.5 0 2.5 0l.1 3c0 0 .09.01.1 0c.7-2.1 2.4-3.4 4.3-3.4c.3 0 .5.1.8.1c0 0 0 2.7 0 2.7c-.3-.1-.6-.1-1-.1c-2 0-3.4 1.5-3.8 3.6c0 .4-.1.8-.1 1.3c.01 0 0 8.3 0 8.3l-2.8 0c0 0 .03-10.7 0-10.7zm11.7 3.4c.1 3.8 2.5 5.4 5.4 5.4c2 0 3.2-.3 4.2-.8c0 0 .5 2 .5 2c-1 .5-2.7 1-5.1 1c-4.8 0-7.6-3.2-7.6-7.8c0-4.7 2.7-8.4 7.2-8.4c5.1 0 6.4 4.5 6.4 7.3c0 .6 0 1-.1 1.3c0 0-10.9 0-10.9 0zm8.3-2c0-1.8-.7-4.6-3.9-4.6c-2.9 0-4.1 2.7-4.3 4.6c0 0 8.2 0 8.2 0zm17.2 8.7c-.7.4-2.3.9-4.4.9c-4.7 0-7.7-3.2-7.7-7.9c0-4.8 3.3-8.2 8.3-8.2c1.7 0 3.1.4 3.9.8c0 0-.6 2.1-.6 2.1c-.7-.4-1.8-.7-3.3-.7c-3.5 0-5.5 2.6-5.5 5.8c0 3.6 2.3 5.8 5.4 5.8c1.6 0 2.7-.4 3.5-.7c0 0 .4 2.1.4 2.1zm17.2-7.3c0 5.7-4 8.2-7.7 8.2c-4.2 0-7.5-3.1-7.5-8c0-5.1 3.4-8.2 7.7-8.2c4.5 0 7.5 3.3 7.5 8zm-12.3.1c0 3.4 1.9 6 4.7 6c2.7 0 4.7-2.5 4.7-6c0-2.6-1.3-6-4.7-6c-3.3 0-4.7 3.1-4.7 6zm15.8-3.5c0-1.6 0-2.9-.1-4.2c-.01-.03 2.5 0 2.5 0l.1 2.5c0 0 .11.03.1 0c.8-1.4 2.6-2.9 5.1-2.9c2.2 0 5.5 1.3 5.5 6.6c0 .01 0 9.3 0 9.3l-2.8 0c0 0-.01-8.97 0-9c0-2.5-.9-4.5-3.6-4.5c-1.9 0-3.3 1.3-3.8 2.8c-.1.4-.2.9-.2 1.3c.03.05 0 9.4 0 9.4l-2.8 0c0 0 .02-11.34 0-11.3zm28.8 10.7c-.7.4-2.4.9-4.4.9c-4.7 0-7.7-3.2-7.7-7.9c0-4.8 3.2-8.2 8.3-8.2c1.6 0 3.1.4 3.9.8c0 0-.7 2.1-.7 2.1c-.6-.4-1.7-.7-3.2-.7c-3.6 0-5.5 2.6-5.5 5.8c0 3.6 2.3 5.8 5.4 5.8c1.6 0 2.6-.4 3.4-.7c0 0 .5 2.1.5 2.1zm3.3.6l0-15.5l2.8 0l0 15.5l-2.8 0zm3.1-19.9c.1 1-.6 1.7-1.7 1.7c-1 0-1.7-.7-1.7-1.7c0-1 .7-1.7 1.7-1.7c1.1 0 1.7.7 1.7 1.7zm4.4-2.9l2.8 0l0 22.8l-2.8 0l0-22.8zm7.6 22.8l0-15.5l2.8 0l0 15.5l-2.8 0zm3.1-19.9c0 1-.7 1.7-1.8 1.7c-1 0-1.7-.7-1.7-1.7c0-1 .7-1.7 1.8-1.7c1 0 1.7.7 1.7 1.7zm12.9 19.9l-.2-2c0 0-.1.01-.1 0c-.9 1.2-2.5 2.3-4.7 2.3c-3.2 0-4.8-2.2-4.8-4.4c0-3.8 3.4-5.8 9.3-5.8c0 0 0-.3 0-.3c0-1.3-.3-3.6-3.5-3.6c-1.4 0-2.9.4-4 1.2c0 0-.7-1.9-.7-1.9c1.3-.8 3.2-1.4 5.1-1.4c4.8 0 5.9 3.3 5.9 6.4c0 0 0 5.7 0 5.7c0 1.4.1 2.7.3 3.8c-.02-.04-2.6 0-2.6 0zm-.4-7.9c-3.1-.1-6.6.4-6.6 3.4c0 1.9 1.3 2.7 2.7 2.7c2 0 3.3-1.2 3.7-2.6c.1-.2.2-.6.2-.9c0 0 0-2.6 0-2.6zm10.5-12.1l0 4.5l4.1 0l0 2.1l-4.1 0c0 0 .03 8.37 0 8.4c0 1.9.6 3 2.1 3c.8 0 1.3-.1 1.7-.2c0 0 .1 2.1.1 2.1c-.5.2-1.4.4-2.5.4c-1.3 0-2.4-.4-3-1.2c-.8-.8-1.1-2.2-1.1-4c-.02-.04 0-8.5 0-8.5l-2.4 0l0-2.1l2.4 0l0-3.7l2.7-.8zm7.2 20l0-15.5l2.8 0l0 15.5l-2.8 0zm3.2-19.9c0 1-.7 1.7-1.8 1.7c-1 0-1.7-.7-1.7-1.7c0-1 .7-1.7 1.7-1.7c1.1 0 1.8.7 1.8 1.7zm18.3 12c0 5.7-3.9 8.2-7.7 8.2c-4.2 0-7.4-3.1-7.4-8c0-5.1 3.4-8.2 7.7-8.2c4.4 0 7.4 3.3 7.4 8zm-12.3.1c0 3.4 2 6 4.7 6c2.7 0 4.8-2.5 4.8-6c0-2.6-1.4-6-4.7-6c-3.3 0-4.8 3.1-4.8 6zm15.9-3.5c0-1.6 0-2.9-.1-4.2c-.04-.03 2.5 0 2.5 0l.1 2.5c0 0 .08.03.1 0c.7-1.4 2.5-2.9 5.1-2.9c2.1 0 5.5 1.3 5.5 6.6c-.03.01 0 9.3 0 9.3l-2.8 0c0 0-.05-8.97 0-9c0-2.5-1-4.5-3.6-4.5c-1.9 0-3.3 1.3-3.8 2.8c-.1.4-.2.9-.2 1.3c0 .05 0 9.4 0 9.4l-2.8 0c0 0-.02-11.34 0-11.3zm17.1 9.6c0-1.2.8-2 1.9-2c1.1 0 1.9.8 1.9 2c0 1.1-.8 2-1.9 2c-1.2 0-1.9-.9-1.9-2z" stroke="none" fill="#3c3c3b"/></g><g id="Polygon5819"><path d="m15.7 385.8c0 0 .01 18.76 0 18.8c0 1.3 0 2.9.1 4c.04-.04-2.5 0-2.5 0l-.1-2.7c0 0-.08-.03-.1 0c-.8 1.7-2.7 3-5.3 3c-3.7 0-6.6-3.2-6.6-7.9c0-5.1 3.2-8.3 7-8.3c2.3 0 3.9 1.1 4.6 2.4c.03-.01.1 0 .1 0l0-9.3l2.8 0zm-2.8 13.6c0-.4 0-.9-.1-1.2c-.4-1.8-2-3.3-4.1-3.3c-2.9 0-4.6 2.6-4.6 6c0 3.1 1.5 5.7 4.5 5.7c1.9 0 3.7-1.2 4.2-3.3c.1-.4.1-.8.1-1.2c0 0 0-2.7 0-2.7zm21.5 1.3c0 5.7-4 8.2-7.7 8.2c-4.2 0-7.4-3.1-7.4-8c0-5.1 3.4-8.2 7.6-8.2c4.5 0 7.5 3.3 7.5 8zm-12.3.1c0 3.4 2 6 4.7 6c2.7 0 4.7-2.5 4.7-6c0-2.6-1.3-6-4.6-6c-3.3 0-4.8 3.1-4.8 6zm26.9 7.2c-.7.4-2.4.9-4.5.9c-4.6 0-7.7-3.2-7.7-7.9c0-4.8 3.3-8.2 8.4-8.2c1.6 0 3.1.4 3.9.8c0 0-.7 2.1-.7 2.1c-.7-.4-1.7-.7-3.2-.7c-3.6 0-5.5 2.6-5.5 5.8c0 3.6 2.3 5.8 5.4 5.8c1.6 0 2.6-.4 3.4-.7c0 0 .5 2.1.5 2.1zm16.2-3.7c0 1.6.1 3 .2 4.3c-.02-.04-2.5 0-2.5 0l-.2-2.6c0 0-.04.03 0 0c-.8 1.3-2.4 2.9-5.2 2.9c-2.4 0-5.3-1.3-5.3-6.8c-.01.03 0-9 0-9l2.8 0c0 0 .01 8.55 0 8.5c0 3 .9 5 3.5 5c1.9 0 3.2-1.3 3.7-2.6c.1-.4.2-.9.2-1.4c.03-.02 0-9.5 0-9.5l2.8 0c0 0 .05 11.24 0 11.2zm4.7-7c0-1.6 0-2.9-.1-4.2c-.01-.03 2.5 0 2.5 0l.1 2.5c0 0 .08-.03.1 0c.8-1.5 2.3-2.9 4.8-2.9c2.2 0 3.8 1.3 4.4 3.1c0 0 .1 0 .1 0c.5-.8 1.1-1.5 1.7-2c.9-.7 2-1.1 3.4-1.1c2.1 0 5.1 1.4 5.1 6.7c.03.04 0 9.2 0 9.2l-2.7 0c0 0-.02-8.81 0-8.8c0-3-1.1-4.8-3.4-4.8c-1.6 0-2.8 1.2-3.3 2.6c-.1.4-.2.9-.2 1.4c-.03-.01 0 9.6 0 9.6l-2.8 0c0 0 .02-9.32 0-9.3c0-2.5-1.1-4.3-3.2-4.3c-1.8 0-3.1 1.4-3.5 2.8c-.2.5-.2.9-.2 1.4c-.03.02 0 9.4 0 9.4l-2.8 0c0 0 .02-11.34 0-11.3zm28.3 4c0 3.8 2.5 5.4 5.3 5.4c2 0 3.2-.3 4.3-.8c0 0 .5 2 .5 2c-1 .5-2.7 1-5.2 1c-4.8 0-7.6-3.2-7.6-7.8c0-4.7 2.7-8.4 7.3-8.4c5 0 6.4 4.5 6.4 7.3c0 .6-.1 1-.1 1.3c0 0-10.9 0-10.9 0zm8.2-2c.1-1.8-.7-4.6-3.9-4.6c-2.8 0-4.1 2.7-4.3 4.6c0 0 8.2 0 8.2 0zm6.2-2c0-1.6 0-2.9-.1-4.2c.01-.03 2.5 0 2.5 0l.2 2.5c0 0 .03.03 0 0c.8-1.4 2.6-2.9 5.2-2.9c2.1 0 5.4 1.3 5.4 6.6c.02.01 0 9.3 0 9.3l-2.8 0c0 0 .01-8.97 0-9c0-2.5-.9-4.5-3.6-4.5c-1.8 0-3.3 1.3-3.8 2.8c-.1.4-.1.9-.1 1.3c-.04.05 0 9.4 0 9.4l-2.9 0c0 0 .04-11.34 0-11.3zm21.1-8.7l0 4.5l4 0l0 2.1l-4 0c0 0-.04 8.37 0 8.4c0 1.9.5 3 2.1 3c.7 0 1.3-.1 1.6-.2c0 0 .1 2.1.1 2.1c-.5.2-1.4.4-2.5.4c-1.3 0-2.3-.4-3-1.2c-.8-.8-1.1-2.2-1.1-4c.01-.04 0-8.5 0-8.5l-2.4 0l0-2.1l2.4 0l0-3.7l2.8-.8zm6.8 17.1c.8.5 2.3 1.1 3.7 1.1c2 0 3-1 3-2.3c0-1.3-.8-2.1-2.9-2.9c-2.8-.9-4.1-2.5-4.1-4.3c0-2.5 2-4.6 5.4-4.6c1.5 0 2.9.5 3.8 1c0 0-.7 2-.7 2c-.6-.4-1.8-.9-3.2-.9c-1.7 0-2.6 1-2.6 2.1c0 1.3.9 1.9 3 2.7c2.6 1 4 2.3 4 4.6c0 2.8-2.1 4.7-5.8 4.7c-1.7 0-3.2-.4-4.3-1.1c0 0 .7-2.1.7-2.1zm19.8-8.4c0-1.6 0-2.9-.1-4.2c-.01-.03 2.5 0 2.5 0l.1 2.5c0 0 .11.03.1 0c.8-1.4 2.6-2.9 5.1-2.9c2.2 0 5.5 1.3 5.5 6.6c0 .01 0 9.3 0 9.3l-2.8 0c0 0-.01-8.97 0-9c0-2.5-.9-4.5-3.6-4.5c-1.9 0-3.3 1.3-3.8 2.8c-.1.4-.2.9-.2 1.3c.03.05 0 9.4 0 9.4l-2.8 0c0 0 .02-11.34 0-11.3zm19.3 4c.1 3.8 2.5 5.4 5.4 5.4c2 0 3.2-.3 4.2-.8c0 0 .5 2 .5 2c-1 .5-2.7 1-5.1 1c-4.8 0-7.6-3.2-7.6-7.8c0-4.7 2.7-8.4 7.2-8.4c5.1 0 6.4 4.5 6.4 7.3c0 .6 0 1-.1 1.3c0 0-10.9 0-10.9 0zm8.3-2c0-1.8-.7-4.6-3.9-4.6c-2.8 0-4.1 2.7-4.3 4.6c0 0 8.2 0 8.2 0zm7.8 2c0 3.8 2.5 5.4 5.3 5.4c2 0 3.2-.3 4.3-.8c0 0 .5 2 .5 2c-1 .5-2.7 1-5.2 1c-4.8 0-7.6-3.2-7.6-7.8c0-4.7 2.7-8.4 7.3-8.4c5 0 6.4 4.5 6.4 7.3c0 .6-.1 1-.1 1.3c0 0-10.9 0-10.9 0zm8.2-2c.1-1.8-.7-4.6-3.9-4.6c-2.8 0-4.1 2.7-4.3 4.6c0 0 8.2 0 8.2 0zm19.6-13.5c0 0 .02 18.76 0 18.8c0 1.3 0 2.9.1 4c.05-.04-2.5 0-2.5 0l-.1-2.7c0 0-.07-.03-.1 0c-.8 1.7-2.7 3-5.3 3c-3.7 0-6.6-3.2-6.6-7.9c0-5.1 3.2-8.3 7-8.3c2.3 0 3.9 1.1 4.6 2.4c.04-.01.1 0 .1 0l0-9.3l2.8 0zm-2.8 13.6c0-.4 0-.9-.1-1.2c-.4-1.8-2-3.3-4.1-3.3c-2.9 0-4.6 2.6-4.6 6c0 3.1 1.5 5.7 4.5 5.7c1.9 0 3.7-1.2 4.2-3.3c.1-.4.1-.8.1-1.2c0 0 0-2.7 0-2.7zm7.1 6.3c.8.5 2.3 1.1 3.7 1.1c2.1 0 3-1 3-2.3c0-1.3-.8-2.1-2.9-2.9c-2.7-.9-4.1-2.5-4.1-4.3c0-2.5 2.1-4.6 5.4-4.6c1.6 0 2.9.5 3.8 1c0 0-.7 2-.7 2c-.6-.4-1.7-.9-3.2-.9c-1.6 0-2.6 1-2.6 2.1c0 1.3 1 1.9 3 2.7c2.7 1 4 2.3 4 4.6c0 2.8-2.1 4.7-5.7 4.7c-1.7 0-3.3-.4-4.4-1.1c0 0 .7-2.1.7-2.1zm23.2-17.1l0 4.5l4.1 0l0 2.1l-4.1 0c0 0 .04 8.37 0 8.4c0 1.9.6 3 2.1 3c.8 0 1.3-.1 1.7-.2c0 0 .1 2.1.1 2.1c-.5.2-1.4.4-2.5.4c-1.3 0-2.4-.4-3-1.2c-.8-.8-1.1-2.2-1.1-4c-.01-.04 0-8.5 0-8.5l-2.4 0l0-2.1l2.4 0l0-3.7l2.7-.8zm21.1 12.1c0 5.7-4 8.2-7.8 8.2c-4.1 0-7.4-3.1-7.4-8c0-5.1 3.4-8.2 7.7-8.2c4.5 0 7.5 3.3 7.5 8zm-12.3.1c0 3.4 1.9 6 4.7 6c2.7 0 4.7-2.5 4.7-6c0-2.6-1.3-6-4.7-6c-3.3 0-4.7 3.1-4.7 6zm22.5 7.8c0-1.1.1-2.7.1-4c0-.04 0-18.8 0-18.8l2.8 0l0 9.8c0 0 .04-.03 0 0c1-1.8 2.8-2.9 5.3-2.9c3.9 0 6.6 3.2 6.6 7.9c0 5.6-3.5 8.3-7 8.3c-2.2 0-4-.9-5.2-2.9c.02 0-.1 0-.1 0l-.1 2.6c0 0-2.43-.04-2.4 0zm2.9-6.2c0 .3 0 .7.1 1c.6 1.9 2.2 3.3 4.2 3.3c3 0 4.7-2.4 4.7-6c0-3.1-1.6-5.7-4.6-5.7c-1.9 0-3.7 1.3-4.3 3.4c0 .3-.1.7-.1 1.2c0 0 0 2.8 0 2.8zm17-1.1c0 3.8 2.5 5.4 5.3 5.4c2 0 3.2-.3 4.3-.8c0 0 .5 2 .5 2c-1 .5-2.7 1-5.2 1c-4.8 0-7.6-3.2-7.6-7.8c0-4.7 2.7-8.4 7.2-8.4c5.1 0 6.4 4.5 6.4 7.3c0 .6 0 1 0 1.3c0 0-10.9 0-10.9 0zm8.2-2c.1-1.8-.7-4.6-3.9-4.6c-2.8 0-4.1 2.7-4.3 4.6c0 0 8.2 0 8.2 0zm16.4-10.7l0 4.5l4 0l0 2.1l-4 0c0 0 .01 8.37 0 8.4c0 1.9.6 3 2.1 3c.8 0 1.3-.1 1.7-.2c0 0 .1 2.1.1 2.1c-.6.2-1.4.4-2.5.4c-1.3 0-2.4-.4-3.1-1.2c-.8-.8-1-2.2-1-4c-.04-.04 0-8.5 0-8.5l-2.4 0l0-2.1l2.4 0l0-3.7l2.7-.8zm7.2 9.3c0-1.8 0-3.4-.1-4.8c-.02-.03 2.4 0 2.4 0l.1 3c0 0 .17.01.2 0c.7-2.1 2.4-3.4 4.3-3.4c.3 0 .5.1.8.1c0 0 0 2.7 0 2.7c-.3-.1-.6-.1-1-.1c-2 0-3.4 1.5-3.8 3.6c0 .4-.1.8-.1 1.3c0 0 0 8.3 0 8.3l-2.8 0c0 0 .01-10.7 0-10.7zm18.9 10.7l-.2-2c0 0-.13.01-.1 0c-.9 1.2-2.6 2.3-4.8 2.3c-3.1 0-4.7-2.2-4.7-4.4c0-3.8 3.3-5.8 9.3-5.8c0 0 0-.3 0-.3c0-1.3-.3-3.6-3.5-3.6c-1.4 0-3 .4-4 1.2c0 0-.7-1.9-.7-1.9c1.3-.8 3.2-1.4 5.1-1.4c4.7 0 5.9 3.3 5.9 6.4c0 0 0 5.7 0 5.7c0 1.4.1 2.7.3 3.8c-.05-.04-2.6 0-2.6 0zm-.4-7.9c-3.1-.1-6.6.4-6.6 3.4c0 1.9 1.2 2.7 2.7 2.7c2 0 3.3-1.2 3.7-2.6c.1-.2.2-.6.2-.9c0 0 0-2.6 0-2.6zm18.3 7.3c-.8.4-2.4.9-4.5.9c-4.6 0-7.7-3.2-7.7-7.9c0-4.8 3.3-8.2 8.3-8.2c1.7 0 3.2.4 3.9.8c0 0-.6 2.1-.6 2.1c-.7-.4-1.7-.7-3.3-.7c-3.5 0-5.4 2.6-5.4 5.8c0 3.6 2.3 5.8 5.3 5.8c1.6 0 2.7-.4 3.5-.7c0 0 .5 2.1.5 2.1zm6.1-7.8c0 0 .02-.02 0 0c.4-.6 1-1.2 1.4-1.8c0 .02 4.5-5.3 4.5-5.3l3.4 0l-5.9 6.3l6.8 9.2l-3.5 0l-5.3-7.5l-1.4 1.6l0 5.9l-2.8 0l0-22.8l2.8 0l0 14.4zm13.8 1.1c0 3.8 2.4 5.4 5.3 5.4c2 0 3.2-.3 4.3-.8c0 0 .4 2 .4 2c-1 .5-2.7 1-5.1 1c-4.8 0-7.6-3.2-7.6-7.8c0-4.7 2.7-8.4 7.2-8.4c5.1 0 6.4 4.5 6.4 7.3c0 .6 0 1-.1 1.3c0 0-10.8 0-10.8 0zm8.2-2c0-1.8-.7-4.6-3.9-4.6c-2.8 0-4.1 2.7-4.3 4.6c0 0 8.2 0 8.2 0zm19.6-13.5c0 0-.01 18.76 0 18.8c0 1.3 0 2.9.1 4c.02-.04-2.5 0-2.5 0l-.1-2.7c0 0-.1-.03-.1 0c-.9 1.7-2.8 3-5.3 3c-3.7 0-6.6-3.2-6.6-7.9c0-5.1 3.2-8.3 6.9-8.3c2.4 0 4 1.1 4.7 2.4c.01-.01.1 0 .1 0l0-9.3l2.8 0zm-2.8 13.6c0-.4-.1-.9-.2-1.2c-.4-1.8-1.9-3.3-4-3.3c-2.9 0-4.7 2.6-4.7 6c0 3.1 1.6 5.7 4.6 5.7c1.9 0 3.6-1.2 4.1-3.3c.1-.4.2-.8.2-1.2c0 0 0-2.7 0-2.7zm14.5 9.2l0-13.4l-2.1 0l0-2.1l2.1 0c0 0 .03-.76 0-.8c0-2.1.5-4.1 1.8-5.4c1.1-1 2.5-1.4 3.8-1.4c1 0 1.9.2 2.4.4c0 0-.4 2.2-.4 2.2c-.4-.2-1-.3-1.8-.3c-2.4 0-3 2.1-3 4.4c.02.04 0 .9 0 .9l3.8 0l0 2.1l-3.8 0l0 13.4l-2.8 0zm22.7-7.9c0 5.7-4 8.2-7.7 8.2c-4.2 0-7.4-3.1-7.4-8c0-5.1 3.3-8.2 7.6-8.2c4.5 0 7.5 3.3 7.5 8zm-12.3.1c0 3.4 2 6 4.7 6c2.7 0 4.7-2.5 4.7-6c0-2.6-1.3-6-4.6-6c-3.4 0-4.8 3.1-4.8 6zm15.8-2.9c0-1.8 0-3.4-.1-4.8c.01-.03 2.5 0 2.5 0l.1 3c0 0 .1.01.1 0c.7-2.1 2.4-3.4 4.3-3.4c.3 0 .5.1.8.1c0 0 0 2.7 0 2.7c-.3-.1-.6-.1-1-.1c-2 0-3.4 1.5-3.7 3.6c-.1.4-.2.8-.2 1.3c.03 0 0 8.3 0 8.3l-2.8 0c0 0 .04-10.7 0-10.7zm25.9 10.7l-.3-2c0 0-.05.01-.1 0c-.8 1.2-2.5 2.3-4.7 2.3c-3.1 0-4.7-2.2-4.7-4.4c0-3.8 3.3-5.8 9.3-5.8c0 0 0-.3 0-.3c0-1.3-.4-3.6-3.5-3.6c-1.5 0-3 .4-4.1 1.2c0 0-.6-1.9-.6-1.9c1.3-.8 3.1-1.4 5.1-1.4c4.7 0 5.9 3.3 5.9 6.4c0 0 0 5.7 0 5.7c0 1.4 0 2.7.2 3.8c.03-.04-2.5 0-2.5 0zm-.4-7.9c-3.1-.1-6.6.4-6.6 3.4c0 1.9 1.2 2.7 2.6 2.7c2.1 0 3.3-1.2 3.8-2.6c.1-.2.2-.6.2-.9c0 0 0-2.6 0-2.6zm8-7.6c0 0 3.09 8.68 3.1 8.7c.5 1.4.9 2.7 1.2 3.9c0 0 .1 0 .1 0c.4-1.2.8-2.5 1.3-3.9c.04-.02 3-8.7 3-8.7l3 0l-6.1 15.5l-2.7 0l-5.9-15.5l3 0zm22.8 15.5l-.2-2c0 0-.12.01-.1 0c-.9 1.2-2.6 2.3-4.8 2.3c-3.1 0-4.7-2.2-4.7-4.4c0-3.8 3.3-5.8 9.3-5.8c0 0 0-.3 0-.3c0-1.3-.3-3.6-3.5-3.6c-1.4 0-2.9.4-4 1.2c0 0-.7-1.9-.7-1.9c1.3-.8 3.2-1.4 5.1-1.4c4.7 0 5.9 3.3 5.9 6.4c0 0 0 5.7 0 5.7c0 1.4.1 2.7.3 3.8c-.04-.04-2.6 0-2.6 0zm-.4-7.9c-3.1-.1-6.6.4-6.6 3.4c0 1.9 1.2 2.7 2.7 2.7c2 0 3.3-1.2 3.7-2.6c.1-.2.2-.6.2-.9c0 0 0-2.6 0-2.6zm7.2 7.9l0-15.5l2.9 0l0 15.5l-2.9 0zm3.2-19.9c0 1-.7 1.7-1.8 1.7c-1 0-1.7-.7-1.7-1.7c0-1 .7-1.7 1.8-1.7c1 0 1.7.7 1.7 1.7zm4.3-2.9l2.8 0l0 22.8l-2.8 0l0-22.8zm7.6 22.8l0-15.5l2.8 0l0 15.5l-2.8 0zm3.1-19.9c.1 1-.7 1.7-1.8 1.7c-1 0-1.7-.7-1.7-1.7c0-1 .8-1.7 1.8-1.7c1 0 1.7.7 1.7 1.7zm4.4 8.6c0-1.6-.1-2.9-.2-4.2c.04-.03 2.5 0 2.5 0l.2 2.5c0 0 .06.03.1 0c.7-1.4 2.5-2.9 5.1-2.9c2.1 0 5.5 1.3 5.5 6.6c-.04.01 0 9.3 0 9.3l-2.9 0c0 0 .04-8.97 0-9c0-2.5-.9-4.5-3.5-4.5c-1.9 0-3.3 1.3-3.8 2.8c-.1.4-.2.9-.2 1.3c-.01.05 0 9.4 0 9.4l-2.8 0c0 0-.03-11.34 0-11.3zm31.1-4.2c-.1 1.1-.2 2.3-.2 4.2c0 0 0 9 0 9c0 3.6-.7 5.7-2.2 7.1c-1.5 1.4-3.6 1.8-5.6 1.8c-1.8 0-3.9-.4-5.1-1.2c0 0 .7-2.2.7-2.2c1 .7 2.6 1.2 4.5 1.2c2.9 0 5-1.5 5-5.4c0 .03 0-1.7 0-1.7c0 0-.07 0-.1 0c-.8 1.4-2.5 2.6-4.9 2.6c-3.8 0-6.6-3.3-6.6-7.6c0-5.2 3.4-8.2 7-8.2c2.7 0 4.1 1.4 4.8 2.7c.02.01.1 0 .1 0l.1-2.3c0 0 2.48-.03 2.5 0zm-2.9 6.1c0-.5-.1-.9-.2-1.3c-.5-1.6-1.9-3-3.9-3c-2.7 0-4.6 2.3-4.6 5.9c0 3 1.5 5.6 4.5 5.6c1.8 0 3.3-1.1 3.9-2.9c.2-.5.3-1.1.3-1.5c0 0 0-2.8 0-2.8z" stroke="none" fill="#3c3c3b"/></g><g id="Polygon5818"><path d="m393.8 366.6l-.2-2c0 0-.1.01-.1 0c-.9 1.2-2.5 2.3-4.7 2.3c-3.2 0-4.8-2.2-4.8-4.4c0-3.8 3.4-5.8 9.3-5.8c0 0 0-.3 0-.3c0-1.3-.3-3.6-3.5-3.6c-1.4 0-2.9.4-4 1.2c0 0-.7-1.9-.7-1.9c1.3-.8 3.2-1.4 5.1-1.4c4.8 0 5.9 3.3 5.9 6.4c0 0 0 5.7 0 5.7c0 1.4.1 2.7.3 3.8c-.02-.04-2.6 0-2.6 0zm-.4-7.9c-3.1-.1-6.6.4-6.6 3.4c0 1.9 1.3 2.7 2.7 2.7c2 0 3.3-1.2 3.7-2.6c.1-.2.2-.6.2-.9c0 0 0-2.6 0-2.6zm7.3-3.4c0-1.6-.1-2.9-.2-4.2c.04-.03 2.5 0 2.5 0l.2 2.5c0 0 .06.03.1 0c.7-1.4 2.5-2.9 5.1-2.9c2.1 0 5.5 1.3 5.5 6.6c-.05.01 0 9.3 0 9.3l-2.9 0c0 0 .03-8.97 0-9c0-2.5-.9-4.5-3.5-4.5c-1.9 0-3.3 1.3-3.8 2.8c-.2.4-.2.9-.2 1.3c-.02.05 0 9.4 0 9.4l-2.8 0c0 0-.03-11.34 0-11.3zm31.1-11.5c0 0 0 18.76 0 18.8c0 1.3 0 2.9.1 4c.03-.04-2.5 0-2.5 0l-.1-2.7c0 0-.09-.03-.1 0c-.9 1.7-2.7 3-5.3 3c-3.7 0-6.6-3.2-6.6-7.9c0-5.1 3.2-8.3 6.9-8.3c2.4 0 4 1.1 4.7 2.4c.02-.01.1 0 .1 0l0-9.3l2.8 0zm-2.8 13.6c0-.4 0-.9-.1-1.2c-.5-1.8-2-3.3-4.1-3.3c-2.9 0-4.6 2.6-4.6 6c0 3.1 1.5 5.7 4.5 5.7c1.9 0 3.6-1.2 4.2-3.3c.1-.4.1-.8.1-1.2c0 0 0-2.7 0-2.7zm14.3-2.1c0-1.6-.1-2.9-.2-4.2c.03-.03 2.5 0 2.5 0l.1 2.5c0 0 .12-.03.1 0c.9-1.5 2.3-2.9 4.9-2.9c2.1 0 3.7 1.3 4.4 3.1c0 0 0 0 0 0c.5-.8 1.1-1.5 1.8-2c.9-.7 1.9-1.1 3.4-1.1c2 0 5.1 1.4 5.1 6.7c-.03.04 0 9.2 0 9.2l-2.8 0c0 0 .02-8.81 0-8.8c0-3-1.1-4.8-3.3-4.8c-1.6 0-2.9 1.2-3.4 2.6c-.1.4-.2.9-.2 1.4c.01-.01 0 9.6 0 9.6l-2.7 0c0 0-.05-9.32 0-9.3c0-2.5-1.1-4.3-3.3-4.3c-1.7 0-3 1.4-3.5 2.8c-.1.5-.2.9-.2 1.4c.01.02 0 9.4 0 9.4l-2.7 0c0 0-.04-11.34 0-11.3zm26.6 11.3l0-15.5l2.9 0l0 15.5l-2.9 0zm3.2-19.9c0 1-.7 1.7-1.8 1.7c-1 0-1.7-.7-1.7-1.7c0-1 .7-1.7 1.8-1.7c1 0 1.7.7 1.7 1.7zm3.9 17c.9.5 2.4 1.1 3.8 1.1c2 0 3-1 3-2.3c0-1.3-.8-2.1-2.9-2.9c-2.8-.9-4.1-2.5-4.1-4.3c0-2.5 2-4.6 5.3-4.6c1.6 0 3 .5 3.8 1c0 0-.7 2-.7 2c-.6-.4-1.7-.9-3.1-.9c-1.7 0-2.6 1-2.6 2.1c0 1.3.9 1.9 2.9 2.7c2.7 1 4.1 2.3 4.1 4.6c0 2.8-2.1 4.7-5.8 4.7c-1.7 0-3.3-.4-4.4-1.1c0 0 .7-2.1.7-2.1zm12.7 0c.9.5 2.3 1.1 3.7 1.1c2.1 0 3-1 3-2.3c0-1.3-.8-2.1-2.8-2.9c-2.8-.9-4.1-2.5-4.1-4.3c0-2.5 2-4.6 5.3-4.6c1.6 0 3 .5 3.8 1c0 0-.7 2-.7 2c-.6-.4-1.7-.9-3.2-.9c-1.6 0-2.5 1-2.5 2.1c0 1.3.9 1.9 2.9 2.7c2.7 1 4.1 2.3 4.1 4.6c0 2.8-2.2 4.7-5.8 4.7c-1.7 0-3.3-.4-4.4-1.1c0 0 .7-2.1.7-2.1zm13.1 2.9l0-15.5l2.8 0l0 15.5l-2.8 0zm3.1-19.9c0 1-.7 1.7-1.8 1.7c-1 0-1.7-.7-1.7-1.7c0-1 .8-1.7 1.8-1.7c1 0 1.7.7 1.7 1.7zm4.4 8.6c0-1.6-.1-2.9-.2-4.2c.04-.03 2.5 0 2.5 0l.2 2.5c0 0 .06.03.1 0c.7-1.4 2.5-2.9 5.1-2.9c2.1 0 5.4 1.3 5.4 6.6c.05.01 0 9.3 0 9.3l-2.8 0c0 0 .03-8.97 0-9c0-2.5-.9-4.5-3.6-4.5c-1.8 0-3.2 1.3-3.7 2.8c-.2.4-.2.9-.2 1.3c-.02.05 0 9.4 0 9.4l-2.8 0c0 0-.04-11.34 0-11.3zm31.1-4.2c-.1 1.1-.2 2.3-.2 4.2c0 0 0 9 0 9c0 3.6-.7 5.7-2.2 7.1c-1.5 1.4-3.6 1.8-5.6 1.8c-1.9 0-3.9-.4-5.2-1.2c0 0 .8-2.2.8-2.2c1 .7 2.6 1.2 4.5 1.2c2.9 0 5-1.5 5-5.4c-.01.03 0-1.7 0-1.7c0 0-.08 0-.1 0c-.8 1.4-2.5 2.6-4.9 2.6c-3.8 0-6.6-3.3-6.6-7.6c0-5.2 3.4-8.2 7-8.2c2.7 0 4.1 1.4 4.8 2.7c.01.01.1 0 .1 0l.1-2.3c0 0 2.47-.03 2.5 0zm-2.9 6.1c0-.5-.1-.9-.2-1.3c-.5-1.6-1.9-3-3.9-3c-2.7 0-4.6 2.3-4.6 5.9c0 3 1.5 5.6 4.5 5.6c1.8 0 3.3-1.1 3.9-2.9c.2-.5.3-1.1.3-1.5c0 0 0-2.8 0-2.8z" stroke="none" fill="#3c3c3b"/></g><g id="Polygon5817"><path d="m7.4 346.4l0 4.5l3.5 0l0 3.6l-3.5 0c0 0-.01 5.66 0 5.7c0 1.8.4 2.7 1.9 2.7c.6 0 1.1-.1 1.5-.1c0 0 0 3.7 0 3.7c-.7.2-1.8.4-3.2.4c-1.6 0-2.9-.6-3.6-1.4c-.9-.9-1.4-2.4-1.4-4.6c.02 0 0-6.4 0-6.4l-2.1 0l0-3.6l2.1 0l0-3.4l4.8-1.1zm21.6 12.2c0 5.7-4.1 8.3-8.3 8.3c-4.5 0-8.1-3-8.1-8.1c0-5 3.4-8.2 8.4-8.2c4.8 0 8 3.3 8 8zm-11.3.1c0 2.7 1.1 4.7 3.2 4.7c1.9 0 3.1-1.9 3.1-4.7c0-2.3-.9-4.7-3.1-4.7c-2.4 0-3.2 2.4-3.2 4.7zm20.8-2.8c0-1.9-.1-3.6-.2-5c.04.01 4.1 0 4.1 0l.3 2.1c0 0 .05.02.1 0c.6-1 2-2.4 4.7-2.4c2 0 3.6 1 4.3 2.6c0 0 0 0 0 0c.6-.8 1.3-1.4 2.1-1.9c.8-.5 1.8-.7 2.9-.7c3 0 5.3 2.1 5.3 6.7c.01.04 0 9.3 0 9.3l-4.7 0c0 0-.02-8.55 0-8.6c0-2.2-.8-3.5-2.3-3.5c-1.1 0-1.9.7-2.3 1.7c-.1.3-.2.8-.2 1.2c.04.01 0 9.2 0 9.2l-4.7 0c0 0 0-8.81 0-8.8c0-2-.7-3.3-2.2-3.3c-1.3 0-2 .9-2.3 1.7c-.2.4-.2.9-.2 1.2c0 .04 0 9.2 0 9.2l-4.7 0c0 0-.04-10.7 0-10.7zm36.4 10.7l-.3-1.6c0 0-.1-.01-.1 0c-1 1.2-2.6 1.9-4.5 1.9c-3.2 0-5-2.3-5-4.8c0-4.1 3.6-6 9.1-6c0 0 0-.2 0-.2c0-.8-.4-2-2.8-2c-1.6 0-3.3.5-4.3 1.2c0 0-.9-3.2-.9-3.2c1.1-.6 3.2-1.3 6.1-1.3c5.2 0 6.8 3 6.8 6.7c0 0 0 5.5 0 5.5c0 1.5.1 2.9.3 3.8c-.04-.04-4.4 0-4.4 0zm-.6-7.4c-2.6-.1-4.5.5-4.5 2.4c0 1.3.8 1.9 1.9 1.9c1.2 0 2.2-.8 2.5-1.8c.1-.3.1-.5.1-.8c0 0 0-1.7 0-1.7zm12.3-8.3c0 0 1.53 2.6 1.5 2.6c.5.8.9 1.6 1.3 2.3c0 0 .1 0 .1 0c.4-.8.8-1.6 1.2-2.4c-.01.04 1.4-2.5 1.4-2.5l5.2 0l-5.1 7.5l5.2 8.2l-5.5 0c0 0-1.56-2.86-1.6-2.9c-.4-.7-.8-1.5-1.2-2.3c0 0-.1 0-.1 0c-.4.8-.8 1.6-1.2 2.3c.04.04-1.4 2.9-1.4 2.9l-5.4 0l5.3-8l-5.1-7.7l5.4 0zm12.9 15.7l0-15.7l4.9 0l0 15.7l-4.9 0zm5-20c0 1.3-1 2.4-2.6 2.4c-1.5 0-2.6-1.1-2.5-2.4c-.1-1.4 1-2.5 2.5-2.5c1.6 0 2.6 1.1 2.6 2.5zm3.8 9.3c0-1.9-.1-3.6-.2-5c.03.01 4.1 0 4.1 0l.2 2.1c0 0 .14.02.1 0c.7-1 2.1-2.4 4.8-2.4c2 0 3.6 1 4.3 2.6c0 0 0 0 0 0c.6-.8 1.3-1.4 2-1.9c.9-.5 1.9-.7 3-.7c3 0 5.3 2.1 5.3 6.7c0 .04 0 9.3 0 9.3l-4.7 0c0 0-.03-8.55 0-8.6c0-2.2-.8-3.5-2.3-3.5c-1.2 0-2 .7-2.3 1.7c-.1.3-.2.8-.2 1.2c.03.01 0 9.2 0 9.2l-4.7 0c0 0-.01-8.81 0-8.8c0-2-.7-3.3-2.2-3.3c-1.3 0-2 .9-2.3 1.7c-.2.4-.2.9-.2 1.2c-.01.04 0 9.2 0 9.2l-4.7 0c0 0-.05-10.7 0-10.7zm27.5 10.7l0-15.7l4.8 0l0 15.7l-4.8 0zm5-20c0 1.3-1 2.4-2.6 2.4c-1.6 0-2.6-1.1-2.6-2.4c0-1.4 1-2.5 2.6-2.5c1.6 0 2.6 1.1 2.6 2.5zm2.5 17.2c0 0 4.92-6.2 4.9-6.2c.9-1.1 1.6-1.8 2.5-2.8c.02.02 0 0 0 0l-6.9 0l0-3.9l12.8 0l0 2.9c0 0-4.67 5.94-4.7 5.9c-.8 1.1-1.6 2.1-2.5 2.9c-.03.02 0 .1 0 .1l7.5 0l0 3.9l-13.6 0l0-2.8zm19.8-3.5c.1 2 2.1 3 4.4 3c1.7 0 3-.3 4.3-.7c0 0 .6 3.3.6 3.3c-1.6.7-3.5 1-5.6 1c-5.3 0-8.4-3.1-8.4-8c0-4 2.5-8.3 7.9-8.3c5.1 0 7 3.9 7 7.8c0 .8-.1 1.5-.1 1.9c0 0-10.1 0-10.1 0zm5.7-3.3c0-1.2-.5-3.2-2.8-3.2c-2 0-2.8 1.8-3 3.2c0 0 5.8 0 5.8 0zm19.3-10.6l0 4.5l3.5 0l0 3.6l-3.5 0c0 0 .03 5.66 0 5.7c0 1.8.5 2.7 1.9 2.7c.7 0 1.1-.1 1.5-.1c0 0 0 3.7 0 3.7c-.6.2-1.8.4-3.2.4c-1.5 0-2.8-.6-3.6-1.4c-.9-.9-1.3-2.4-1.3-4.6c-.04 0 0-6.4 0-6.4l-2.1 0l0-3.6l2.1 0l0-3.4l4.7-1.1zm6.3-2.6l4.9 0l0 9c0 0 .06-.03.1 0c.5-.7 1.1-1.2 1.9-1.6c.7-.4 1.6-.6 2.5-.6c3.1 0 5.5 2.1 5.5 6.8c-.02.01 0 9.2 0 9.2l-4.9 0c0 0 .01-8.65 0-8.6c0-2.1-.7-3.5-2.5-3.5c-1.3 0-2.1.8-2.4 1.7c-.2.3-.2.7-.2 1.1c-.01-.02 0 9.3 0 9.3l-4.9 0l0-22.8zm22.5 16.5c.2 2 2.2 3 4.4 3c1.7 0 3-.3 4.4-.7c0 0 .6 3.3.6 3.3c-1.6.7-3.6 1-5.7 1c-5.3 0-8.3-3.1-8.3-8c0-4 2.4-8.3 7.9-8.3c5 0 7 3.9 7 7.8c0 .8-.1 1.5-.2 1.9c0 0-10.1 0-10.1 0zm5.8-3.3c0-1.2-.6-3.2-2.8-3.2c-2 0-2.9 1.8-3 3.2c0 0 5.8 0 5.8 0zm18.9-12l0 21.6l-4.9 0l0-21.6l4.9 0zm8.4 4.1l-5.8 0l0-4.1l16.6 0l0 4.1l-5.9 0l0 17.5l-4.9 0l0-17.5zm28.3 16.9c-.9.4-2.9.9-5.6.9c-7.4 0-11.3-4.7-11.3-10.8c0-7.4 5.3-11.5 11.8-11.5c2.5 0 4.5.6 5.3 1c0 0-1 3.9-1 3.9c-1-.4-2.3-.8-4.1-.8c-3.8 0-6.8 2.3-6.8 7.1c0 4.3 2.5 7 6.9 7c1.4 0 3.1-.3 4-.7c0 0 .8 3.9.8 3.9zm21.2.2c-.8.4-2.5.7-4.3.7c-5.1 0-8.3-3.1-8.3-8c0-4.6 3.1-8.3 8.9-8.3c1.3 0 2.7.2 3.7.6c0 0-.7 3.6-.7 3.6c-.6-.3-1.5-.5-2.7-.5c-2.6 0-4.3 1.8-4.2 4.4c0 2.9 1.9 4.4 4.3 4.4c1.1 0 2-.2 2.7-.5c0 0 .6 3.6.6 3.6zm2.7-22.4l4.9 0l0 22.8l-4.9 0l0-22.8zm17.7 22.8l-.3-1.6c0 0-.08-.01-.1 0c-1 1.2-2.6 1.9-4.5 1.9c-3.1 0-5-2.3-5-4.8c0-4.1 3.6-6 9.2-6c0 0 0-.2 0-.2c0-.8-.5-2-2.9-2c-1.6 0-3.3.5-4.3 1.2c0 0-.9-3.2-.9-3.2c1.1-.6 3.2-1.3 6.1-1.3c5.2 0 6.9 3 6.9 6.7c0 0 0 5.5 0 5.5c0 1.5 0 2.9.2 3.8c-.02-.04-4.4 0-4.4 0zm-.6-7.4c-2.5-.1-4.5.5-4.5 2.4c0 1.3.8 1.9 1.9 1.9c1.2 0 2.2-.8 2.5-1.8c.1-.3.1-.5.1-.8c0 0 0-1.7 0-1.7zm8.6 7.4l0-15.7l4.9 0l0 15.7l-4.9 0zm5-20c0 1.3-1 2.4-2.6 2.4c-1.5 0-2.6-1.1-2.5-2.4c-.1-1.4 1-2.5 2.5-2.5c1.6 0 2.6 1.1 2.6 2.5zm3.8 9.3c0-1.9-.1-3.6-.2-5c.04.01 4.1 0 4.1 0l.3 2.1c0 0 .06.02.1 0c.6-1 2-2.4 4.7-2.4c2 0 3.6 1 4.3 2.6c0 0 0 0 0 0c.6-.8 1.3-1.4 2.1-1.9c.8-.5 1.8-.7 2.9-.7c3 0 5.3 2.1 5.3 6.7c.02.04 0 9.3 0 9.3l-4.7 0c0 0-.02-8.55 0-8.6c0-2.2-.8-3.5-2.3-3.5c-1.1 0-1.9.7-2.3 1.7c-.1.3-.2.8-.2 1.2c.04.01 0 9.2 0 9.2l-4.7 0c0 0 .01-8.81 0-8.8c0-2-.7-3.3-2.2-3.3c-1.3 0-2 .9-2.3 1.7c-.2.4-.2.9-.2 1.2c0 .04 0 9.2 0 9.2l-4.7 0c0 0-.03-10.7 0-10.7zm27.5 6.4c.9.5 2.7 1.2 4.1 1.2c1.5 0 2.1-.5 2.1-1.3c0-.8-.5-1.2-2.3-1.8c-3.2-1.1-4.5-2.9-4.4-4.7c0-2.9 2.5-5.1 6.3-5.1c1.9 0 3.5.4 4.5.9c0 0-.9 3.3-.9 3.3c-.7-.4-2.1-.9-3.4-.9c-1.2 0-1.9.5-1.9 1.3c0 .7.7 1.1 2.6 1.8c3 1 4.2 2.5 4.2 4.8c0 2.9-2.3 5.1-6.8 5.1c-2 0-3.8-.5-5-1.1c0 0 .9-3.5.9-3.5z" stroke="none" fill="#15345e"/></g><g id="Polygon5816"><path d="m1.8 324.6c.1-1.1.2-3 .2-4.7c-.05-.01 0-18.1 0-18.1l4.8 0l0 9c0 0 .08-.03.1 0c.9-1.4 2.5-2.2 4.7-2.2c3.8 0 6.5 3.1 6.5 7.9c0 5.6-3.6 8.4-7.2 8.4c-1.8 0-3.6-.7-4.7-2.5c.01-.02-.1 0-.1 0l-.1 2.2c0 0-4.18-.04-4.2 0zm5-6.7c0 .3 0 .6.1.9c.3 1.3 1.5 2.3 2.9 2.3c2 0 3.3-1.6 3.3-4.4c0-2.5-1.1-4.4-3.3-4.4c-1.4 0-2.6 1-2.9 2.4c-.1.3-.1.6-.1.9c0 0 0 2.3 0 2.3zm18.1.4c.2 2 2.2 3 4.4 3c1.7 0 3.1-.3 4.4-.7c0 0 .6 3.3.6 3.3c-1.6.7-3.5 1-5.7 1c-5.3 0-8.3-3.1-8.3-8c0-4 2.5-8.3 7.9-8.3c5 0 7 3.9 7 7.8c0 .8-.1 1.5-.2 1.9c0 0-10.1 0-10.1 0zm5.8-3.3c0-1.2-.6-3.2-2.8-3.2c-2 0-2.9 1.8-3 3.2c0 0 5.8 0 5.8 0zm13.8-.9c0-2.3 0-3.8-.1-5.2c.02.01 4.2 0 4.2 0l.2 2.9c0 0 .1-.01.1 0c.8-2.3 2.7-3.2 4.2-3.2c.5 0 .7 0 1 0c0 0 0 4.6 0 4.6c-.3-.1-.7-.1-1.3-.1c-1.8 0-3 .9-3.3 2.4c-.1.4-.1.7-.1 1.1c.01.02 0 8 0 8l-4.9 0c0 0 .04-10.54 0-10.5zm15.7 4.2c.2 2 2.1 3 4.4 3c1.7 0 3-.3 4.3-.7c0 0 .7 3.3.7 3.3c-1.6.7-3.6 1-5.7 1c-5.3 0-8.3-3.1-8.3-8c0-4 2.4-8.3 7.9-8.3c5 0 6.9 3.9 6.9 7.8c0 .8-.1 1.5-.1 1.9c0 0-10.1 0-10.1 0zm5.7-3.3c0-1.2-.5-3.2-2.7-3.2c-2.1 0-2.9 1.8-3 3.2c0 0 5.7 0 5.7 0zm19.2 9.2c-.9.4-2.5.7-4.4.7c-5 0-8.3-3.1-8.3-8c0-4.6 3.2-8.3 9-8.3c1.3 0 2.7.2 3.7.6c0 0-.7 3.6-.7 3.6c-.6-.3-1.5-.5-2.8-.5c-2.5 0-4.2 1.8-4.2 4.4c0 2.9 2 4.4 4.3 4.4c1.2 0 2.1-.2 2.8-.5c0 0 .6 3.6.6 3.6zm17.8-7.6c0 5.7-4.1 8.3-8.3 8.3c-4.6 0-8.1-3-8.1-8.1c0-5 3.4-8.2 8.4-8.2c4.8 0 8 3.3 8 8zm-11.3.1c0 2.7 1.1 4.7 3.2 4.7c1.8 0 3.1-1.9 3.1-4.7c0-2.3-.9-4.7-3.1-4.7c-2.4 0-3.2 2.4-3.2 4.7zm14.3-2.8c0-1.9-.1-3.6-.1-5c-.04.01 4.2 0 4.2 0l.2 2.2c0 0 .1-.04.1 0c.6-1 2.2-2.5 4.8-2.5c3.2 0 5.6 2.1 5.6 6.7c.04-.02 0 9.3 0 9.3l-4.8 0c0 0-.03-8.71 0-8.7c0-2-.7-3.4-2.5-3.4c-1.3 0-2.1.9-2.5 1.8c-.1.3-.1.8-.1 1.2c-.05.04 0 9.1 0 9.1l-4.9 0c0 0-.01-10.7 0-10.7zm30.5 10.3c-.9.4-2.5.7-4.4.7c-5 0-8.3-3.1-8.3-8c0-4.6 3.2-8.3 9-8.3c1.3 0 2.7.2 3.7.6c0 0-.8 3.6-.8 3.6c-.5-.3-1.4-.5-2.7-.5c-2.5 0-4.2 1.8-4.2 4.4c0 2.9 2 4.4 4.3 4.4c1.2 0 2.1-.2 2.8-.5c0 0 .6 3.6.6 3.6zm2.7.4l0-15.7l4.8 0l0 15.7l-4.8 0zm5-20c0 1.3-1 2.4-2.6 2.4c-1.6 0-2.6-1.1-2.6-2.4c0-1.4 1-2.5 2.6-2.5c1.6 0 2.6 1.1 2.6 2.5zm3.7-2.8l4.9 0l0 22.8l-4.9 0l0-22.8zm12.6 16.5c.1 2 2.1 3 4.4 3c1.7 0 3-.3 4.3-.7c0 0 .7 3.3.7 3.3c-1.6.7-3.6 1-5.7 1c-5.3 0-8.4-3.1-8.4-8c0-4 2.5-8.3 7.9-8.3c5.1 0 7 3.9 7 7.8c0 .8-.1 1.5-.1 1.9c0 0-10.1 0-10.1 0zm5.7-3.3c0-1.2-.5-3.2-2.7-3.2c-2.1 0-2.9 1.8-3 3.2c0 0 5.7 0 5.7 0zm22.6-13.2c0 0 0 18.09 0 18.1c0 1.7.1 3.6.1 4.7c.03-.04-4.3 0-4.3 0l-.2-2.3c0 0-.08-.04-.1 0c-1 1.7-2.9 2.6-4.9 2.6c-3.7 0-6.7-3.2-6.7-8c0-5.3 3.3-8.3 7-8.3c2 0 3.5.6 4.2 1.7c-.03.02 0 0 0 0l0-8.5l4.9 0zm-4.9 13.7c0-.2 0-.6 0-.8c-.3-1.3-1.4-2.4-2.9-2.4c-2.2 0-3.3 2-3.3 4.4c0 2.7 1.3 4.3 3.3 4.3c1.4 0 2.5-.9 2.8-2.3c.1-.3.1-.7.1-1.1c0 0 0-2.1 0-2.1zm30.7 1.1c0 5.7-4 8.3-8.2 8.3c-4.6 0-8.1-3-8.1-8.1c0-5 3.3-8.2 8.3-8.2c4.8 0 8 3.3 8 8zm-11.3.1c0 2.7 1.1 4.7 3.2 4.7c1.9 0 3.1-1.9 3.1-4.7c0-2.3-.9-4.7-3.1-4.7c-2.3 0-3.2 2.4-3.2 4.7zm14.3-2.8c0-1.9 0-3.6-.1-5c.01.01 4.2 0 4.2 0l.3 2.2c0 0 .05-.04 0 0c.7-1 2.3-2.5 4.9-2.5c3.2 0 5.6 2.1 5.6 6.7c-.02-.02 0 9.3 0 9.3l-4.9 0c0 0 .02-8.71 0-8.7c0-2-.7-3.4-2.4-3.4c-1.4 0-2.2.9-2.5 1.8c-.1.3-.2.8-.2 1.2c0 .04 0 9.1 0 9.1l-4.9 0c0 0 .03-10.7 0-10.7zm25.2 0c0-1.9 0-3.6-.1-5c.02.01 4.1 0 4.1 0l.2 2.1c0 0 .14.02.1 0c.7-1 2.1-2.4 4.8-2.4c2 0 3.6 1 4.3 2.6c0 0 0 0 0 0c.6-.8 1.3-1.4 2-1.9c.9-.5 1.9-.7 3-.7c3 0 5.3 2.1 5.3 6.7c0 .04 0 9.3 0 9.3l-4.7 0c0 0-.04-8.55 0-8.6c0-2.2-.8-3.5-2.3-3.5c-1.2 0-2 .7-2.3 1.7c-.1.3-.2.8-.2 1.2c.03.01 0 9.2 0 9.2l-4.7 0c0 0-.01-8.81 0-8.8c0-2-.7-3.3-2.3-3.3c-1.2 0-1.9.9-2.2 1.7c-.2.4-.2.9-.2 1.2c-.01.04 0 9.2 0 9.2l-4.8 0c0 0 .05-10.7 0-10.7zm43 2.7c0 5.7-4 8.3-8.2 8.3c-4.6 0-8.1-3-8.1-8.1c0-5 3.3-8.2 8.3-8.2c4.8 0 8 3.3 8 8zm-11.3.1c0 2.7 1.1 4.7 3.2 4.7c1.9 0 3.1-1.9 3.1-4.7c0-2.3-.9-4.7-3.1-4.7c-2.3 0-3.2 2.4-3.2 4.7zm14.3-2.8c0-1.9 0-3.6-.1-5c0 .01 4.2 0 4.2 0l.3 2.2c0 0 .05-.04 0 0c.7-1 2.3-2.5 4.9-2.5c3.2 0 5.6 2.1 5.6 6.7c-.02-.02 0 9.3 0 9.3l-4.9 0c0 0 .02-8.71 0-8.7c0-2-.7-3.4-2.4-3.4c-1.4 0-2.2.9-2.5 1.8c-.1.3-.2.8-.2 1.2c0 .04 0 9.1 0 9.1l-4.9 0c0 0 .03-10.7 0-10.7zm24-9.5l0 4.5l3.5 0l0 3.6l-3.5 0c0 0 .03 5.66 0 5.7c0 1.8.5 2.7 2 2.7c.6 0 1-.1 1.4-.1c0 0 0 3.7 0 3.7c-.6.2-1.8.4-3.1.4c-1.6 0-2.9-.6-3.7-1.4c-.9-.9-1.3-2.4-1.3-4.6c-.04 0 0-6.4 0-6.4l-2.1 0l0-3.6l2.1 0l0-3.4l4.7-1.1zm6.3-2.6l4.9 0l0 9c0 0 .06-.03.1 0c.5-.7 1.1-1.2 1.9-1.6c.7-.4 1.6-.6 2.5-.6c3.1 0 5.5 2.1 5.5 6.8c-.02.01 0 9.2 0 9.2l-4.9 0c0 0 .02-8.65 0-8.6c0-2.1-.7-3.5-2.5-3.5c-1.3 0-2.1.8-2.4 1.7c-.2.3-.2.7-.2 1.1c0-.02 0 9.3 0 9.3l-4.9 0l0-22.8zm40.7 14.8c0 5.7-4.1 8.3-8.2 8.3c-4.6 0-8.1-3-8.1-8.1c0-5 3.3-8.2 8.3-8.2c4.8 0 8 3.3 8 8zm-11.3.1c0 2.7 1.1 4.7 3.2 4.7c1.9 0 3.1-1.9 3.1-4.7c0-2.3-.9-4.7-3.1-4.7c-2.4 0-3.2 2.4-3.2 4.7zm14.3-2.8c0-1.9 0-3.6-.1-5c-.01.01 4.2 0 4.2 0l.2 2.2c0 0 .13-.04.1 0c.7-1 2.3-2.5 4.9-2.5c3.2 0 5.6 2.1 5.6 6.7c-.04-.02 0 9.3 0 9.3l-4.9 0c0 0 0-8.71 0-8.7c0-2-.7-3.4-2.5-3.4c-1.3 0-2.1.9-2.4 1.8c-.2.3-.2.8-.2 1.2c-.02.04 0 9.1 0 9.1l-4.9 0c0 0 .02-10.7 0-10.7zm25.2 0c0-1.9 0-3.6-.1-5c0 .01 4.1 0 4.1 0l.2 2.1c0 0 .12.02.1 0c.7-1 2.1-2.4 4.8-2.4c2 0 3.6 1 4.2 2.6c0 0 .1 0 .1 0c.6-.8 1.3-1.4 2-1.9c.9-.5 1.8-.7 3-.7c3 0 5.3 2.1 5.3 6.7c-.02.04 0 9.3 0 9.3l-4.8 0c0 0 .04-8.55 0-8.6c0-2.2-.7-3.5-2.3-3.5c-1.1 0-1.9.7-2.2 1.7c-.1.3-.2.8-.2 1.2c.01.01 0 9.2 0 9.2l-4.7 0c0 0-.03-8.81 0-8.8c0-2-.7-3.3-2.3-3.3c-1.2 0-2 .9-2.2 1.7c-.2.4-.2.9-.2 1.2c-.03.04 0 9.2 0 9.2l-4.8 0c0 0 .03-10.7 0-10.7zm43 2.7c0 5.7-4.1 8.3-8.2 8.3c-4.6 0-8.1-3-8.1-8.1c0-5 3.3-8.2 8.3-8.2c4.8 0 8 3.3 8 8zm-11.3.1c0 2.7 1.1 4.7 3.2 4.7c1.9 0 3.1-1.9 3.1-4.7c0-2.3-.9-4.7-3.1-4.7c-2.4 0-3.2 2.4-3.2 4.7zm14.3-2.8c0-1.9 0-3.6-.1-5c-.01.01 4.2 0 4.2 0l.2 2.2c0 0 .13-.04.1 0c.7-1 2.3-2.5 4.9-2.5c3.2 0 5.6 2.1 5.6 6.7c-.04-.02 0 9.3 0 9.3l-4.9 0c0 0 0-8.71 0-8.7c0-2-.7-3.4-2.5-3.4c-1.3 0-2.1.9-2.4 1.8c-.2.3-.2.8-.2 1.2c-.02.04 0 9.1 0 9.1l-4.9 0c0 0 .02-10.7 0-10.7zm24-9.5l0 4.5l3.5 0l0 3.6l-3.5 0c0 0 .02 5.66 0 5.7c0 1.8.5 2.7 1.9 2.7c.6 0 1.1-.1 1.5-.1c0 0 0 3.7 0 3.7c-.6.2-1.8.4-3.2.4c-1.5 0-2.8-.6-3.6-1.4c-.9-.9-1.4-2.4-1.4-4.6c.05 0 0-6.4 0-6.4l-2 0l0-3.6l2 0l0-3.4l4.8-1.1zm6.3-2.6l4.9 0l0 9c0 0 .05-.03 0 0c.6-.7 1.2-1.2 2-1.6c.7-.4 1.6-.6 2.5-.6c3.1 0 5.5 2.1 5.5 6.8c-.03.01 0 9.2 0 9.2l-4.9 0c0 0 0-8.65 0-8.6c0-2.1-.7-3.5-2.5-3.5c-1.3 0-2.1.8-2.5 1.7c-.1.3-.1.7-.1 1.1c-.02-.02 0 9.3 0 9.3l-4.9 0l0-22.8zm25.1 22.8c.1-1.1.1-3 .1-4.7c.03-.01 0-18.1 0-18.1l4.9 0l0 9c0 0 .06-.03.1 0c.9-1.4 2.5-2.2 4.7-2.2c3.7 0 6.5 3.1 6.5 7.9c0 5.6-3.6 8.4-7.2 8.4c-1.8 0-3.6-.7-4.7-2.5c-.01-.02-.1 0-.1 0l-.2 2.2c0 0-4.09-.04-4.1 0zm5-6.7c0 .3 0 .6.1.9c.3 1.3 1.4 2.3 2.8 2.3c2.1 0 3.4-1.6 3.4-4.4c0-2.5-1.1-4.4-3.4-4.4c-1.3 0-2.5 1-2.8 2.4c-.1.3-.1.6-.1.9c0 0 0 2.3 0 2.3zm23.2 6.7l-.3-1.6c0 0-.12-.01-.1 0c-1 1.2-2.6 1.9-4.5 1.9c-3.2 0-5.1-2.3-5.1-4.8c0-4.1 3.7-6 9.2-6c0 0 0-.2 0-.2c0-.8-.4-2-2.8-2c-1.6 0-3.3.5-4.3 1.2c0 0-.9-3.2-.9-3.2c1.1-.6 3.2-1.3 6-1.3c5.3 0 6.9 3 6.9 6.7c0 0 0 5.5 0 5.5c0 1.5.1 2.9.3 3.8c-.05-.04-4.4 0-4.4 0zm-.6-7.4c-2.6-.1-4.6.5-4.6 2.4c0 1.3.9 1.9 2 1.9c1.2 0 2.2-.8 2.5-1.8c.1-.3.1-.5.1-.8c0 0 0-1.7 0-1.7zm8.5 3.1c.9.5 2.8 1.2 4.2 1.2c1.5 0 2.1-.5 2.1-1.3c0-.8-.5-1.2-2.3-1.8c-3.2-1.1-4.5-2.9-4.4-4.7c0-2.9 2.5-5.1 6.3-5.1c1.8 0 3.5.4 4.4.9c0 0-.8 3.3-.8 3.3c-.7-.4-2.1-.9-3.4-.9c-1.2 0-1.9.5-1.9 1.3c0 .7.6 1.1 2.6 1.8c2.9 1 4.2 2.5 4.2 4.8c0 2.9-2.3 5.1-6.8 5.1c-2 0-3.8-.5-5-1.1c0 0 .8-3.5.8-3.5zm14 4.3l0-15.7l4.8 0l0 15.7l-4.8 0zm5-20c0 1.3-1 2.4-2.6 2.4c-1.6 0-2.6-1.1-2.6-2.4c0-1.4 1-2.5 2.6-2.5c1.6 0 2.5 1.1 2.6 2.5zm3.7 15.7c.9.5 2.7 1.2 4.2 1.2c1.5 0 2.1-.5 2.1-1.3c0-.8-.5-1.2-2.3-1.8c-3.3-1.1-4.5-2.9-4.5-4.7c0-2.9 2.5-5.1 6.4-5.1c1.8 0 3.4.4 4.4.9c0 0-.9 3.3-.9 3.3c-.7-.4-2-.9-3.4-.9c-1.1 0-1.8.5-1.8 1.3c0 .7.6 1.1 2.5 1.8c3 1 4.2 2.5 4.3 4.8c0 2.9-2.3 5.1-6.8 5.1c-2.1 0-3.9-.5-5.1-1.1c0 0 .9-3.5.9-3.5z" stroke="none" fill="#15345e"/></g><g id="Polygon5815"><path d="m213.7 259.8c0 0-.04 18.09 0 18.1c0 1.7 0 3.6.1 4.7c-.01-.04-4.3 0-4.3 0l-.3-2.3c0 0-.02-.04 0 0c-1 1.7-2.9 2.6-4.9 2.6c-3.7 0-6.7-3.2-6.7-8c0-5.3 3.3-8.3 7-8.3c1.9 0 3.4.6 4.1 1.7c.03.02.1 0 .1 0l0-8.5l4.9 0zm-4.9 13.7c0-.2 0-.6-.1-.8c-.3-1.3-1.3-2.4-2.8-2.4c-2.2 0-3.4 2-3.4 4.4c0 2.7 1.3 4.3 3.4 4.3c1.4 0 2.5-.9 2.8-2.3c.1-.3.1-.7.1-1.1c0 0 0-2.1 0-2.1zm24.2 1.1c0 5.7-4 8.3-8.2 8.3c-4.6 0-8.1-3-8.1-8.1c0-5 3.3-8.2 8.3-8.2c4.8 0 8 3.3 8 8zm-11.3.1c0 2.7 1.1 4.7 3.2 4.7c1.9 0 3.1-1.9 3.1-4.7c0-2.3-.9-4.7-3.1-4.7c-2.3 0-3.2 2.4-3.2 4.7zm26.2 7.5c-.9.4-2.5.7-4.4.7c-5 0-8.3-3.1-8.3-8c0-4.6 3.2-8.3 9-8.3c1.3 0 2.7.2 3.7.6c0 0-.8 3.6-.8 3.6c-.5-.3-1.4-.5-2.7-.5c-2.5 0-4.2 1.8-4.2 4.4c0 2.9 1.9 4.4 4.3 4.4c1.2 0 2.1-.2 2.8-.5c0 0 .6 3.6.6 3.6zm17.4-4.7c0 2.1.1 3.7.1 5.1c.04-.04-4.2 0-4.2 0l-.2-2.2c0 0-.11-.05-.1 0c-.6.9-2.1 2.5-4.9 2.5c-3.2 0-5.5-2-5.5-6.8c-.01 0 0-9.2 0-9.2l4.9 0c0 0-.01 8.43 0 8.4c0 2.3.7 3.7 2.4 3.7c1.4 0 2.1-1 2.5-1.7c.1-.3.1-.7.1-1.1c.01.02 0-9.3 0-9.3l4.9 0c0 0 .01 10.64 0 10.6zm3.9-5.6c0-1.9-.1-3.6-.1-5c-.02.01 4.1 0 4.1 0l.2 2.1c0 0 .1.02.1 0c.7-1 2-2.4 4.7-2.4c2.1 0 3.7 1 4.3 2.6c0 0 .1 0 .1 0c.6-.8 1.3-1.4 2-1.9c.9-.5 1.8-.7 3-.7c3 0 5.3 2.1 5.3 6.7c-.04.04 0 9.3 0 9.3l-4.8 0c0 0 .02-8.55 0-8.6c0-2.2-.7-3.5-2.3-3.5c-1.1 0-1.9.7-2.2 1.7c-.1.3-.2.8-.2 1.2c-.01.01 0 9.2 0 9.2l-4.7 0c0 0-.05-8.81 0-8.8c0-2-.8-3.3-2.3-3.3c-1.2 0-2 .9-2.3 1.7c-.1.4-.2.9-.2 1.2c.05.04 0 9.2 0 9.2l-4.7 0c0 0 .01-10.7 0-10.7zm31.3 4.4c.1 2 2.1 3 4.4 3c1.7 0 3-.3 4.3-.7c0 0 .7 3.3.7 3.3c-1.6.7-3.6 1-5.7 1c-5.3 0-8.4-3.1-8.4-8c0-4 2.5-8.3 7.9-8.3c5.1 0 7 3.9 7 7.8c0 .8-.1 1.5-.1 1.9c0 0-10.1 0-10.1 0zm5.7-3.3c0-1.2-.5-3.2-2.7-3.2c-2.1 0-2.9 1.8-3.1 3.2c0 0 5.8 0 5.8 0zm7.4-1.1c0-1.9 0-3.6-.1-5c0 .01 4.2 0 4.2 0l.2 2.2c0 0 .14-.04.1 0c.7-1 2.3-2.5 4.9-2.5c3.2 0 5.6 2.1 5.6 6.7c-.03-.02 0 9.3 0 9.3l-4.9 0c0 0 .01-8.71 0-8.7c0-2-.7-3.4-2.5-3.4c-1.3 0-2.1.9-2.4 1.8c-.1.3-.2.8-.2 1.2c-.01.04 0 9.1 0 9.1l-4.9 0c0 0 .03-10.7 0-10.7zm24-9.5l0 4.5l3.5 0l0 3.6l-3.5 0c0 0 .03 5.66 0 5.7c0 1.8.5 2.7 1.9 2.7c.7 0 1.1-.1 1.5-.1c0 0 0 3.7 0 3.7c-.6.2-1.8.4-3.1.4c-1.6 0-2.9-.6-3.7-1.4c-.9-.9-1.3-2.4-1.3-4.6c-.04 0 0-6.4 0-6.4l-2.1 0l0-3.6l2.1 0l0-3.4l4.7-1.1zm6.3 15.9c.9.5 2.8 1.2 4.2 1.2c1.5 0 2.1-.5 2.1-1.3c0-.8-.5-1.2-2.3-1.8c-3.3-1.1-4.5-2.9-4.5-4.7c0-2.9 2.5-5.1 6.4-5.1c1.8 0 3.4.4 4.4.9c0 0-.9 3.3-.9 3.3c-.7-.4-2-.9-3.4-.9c-1.1 0-1.8.5-1.8 1.3c0 .7.6 1.1 2.5 1.8c3 1 4.2 2.5 4.3 4.8c0 2.9-2.3 5.1-6.8 5.1c-2.1 0-3.9-.5-5.1-1.1c0 0 .9-3.5.9-3.5zm29.3 4.3l-.3-1.6c0 0-.11-.01-.1 0c-1 1.2-2.6 1.9-4.5 1.9c-3.2 0-5-2.3-5-4.8c0-4.1 3.6-6 9.1-6c0 0 0-.2 0-.2c0-.8-.4-2-2.8-2c-1.6 0-3.3.5-4.3 1.2c0 0-.9-3.2-.9-3.2c1.1-.6 3.2-1.3 6.1-1.3c5.2 0 6.8 3 6.8 6.7c0 0 0 5.5 0 5.5c0 1.5.1 2.9.3 3.8c-.04-.04-4.4 0-4.4 0zm-.6-7.4c-2.6-.1-4.5.5-4.5 2.4c0 1.3.8 1.9 1.9 1.9c1.2 0 2.2-.8 2.5-1.8c.1-.3.1-.5.1-.8c0 0 0-1.7 0-1.7zm8.6-3.1c0-2.3-.1-3.8-.1-5.2c-.05.01 4.1 0 4.1 0l.2 2.9c0 0 .13-.01.1 0c.8-2.3 2.8-3.2 4.3-3.2c.4 0 .6 0 1 0c0 0 0 4.6 0 4.6c-.4-.1-.8-.1-1.3-.1c-1.8 0-3 .9-3.4 2.4c0 .4-.1.7-.1 1.1c.04.02 0 8 0 8l-4.8 0c0 0-.02-10.54 0-10.5zm15.6 4.2c.2 2 2.2 3 4.4 3c1.7 0 3-.3 4.4-.7c0 0 .6 3.3.6 3.3c-1.6.7-3.6 1-5.7 1c-5.3 0-8.3-3.1-8.3-8c0-4 2.4-8.3 7.9-8.3c5 0 7 3.9 7 7.8c0 .8-.1 1.5-.2 1.9c0 0-10.1 0-10.1 0zm5.8-3.3c0-1.2-.6-3.2-2.8-3.2c-2 0-2.9 1.8-3 3.2c0 0 5.8 0 5.8 0zm13.8-.9c0-2.3 0-3.8-.1-5.2c.01.01 4.2 0 4.2 0l.2 2.9c0 0 .09-.01.1 0c.8-2.3 2.7-3.2 4.2-3.2c.5 0 .7 0 1 0c0 0 0 4.6 0 4.6c-.3-.1-.7-.1-1.3-.1c-1.8 0-3 .9-3.3 2.4c-.1.4-.1.7-.1 1.1c.01.02 0 8 0 8l-4.9 0c0 0 .04-10.54 0-10.5zm15.7 4.2c.1 2 2.1 3 4.4 3c1.7 0 3-.3 4.3-.7c0 0 .7 3.3.7 3.3c-1.6.7-3.6 1-5.7 1c-5.3 0-8.4-3.1-8.4-8c0-4 2.5-8.3 8-8.3c5 0 6.9 3.9 6.9 7.8c0 .8-.1 1.5-.1 1.9c0 0-10.1 0-10.1 0zm5.7-3.3c0-1.2-.5-3.2-2.7-3.2c-2.1 0-2.9 1.8-3 3.2c0 0 5.7 0 5.7 0zm17.7 7.6c0 0-.02.01 0 0c-1 1.5-2.6 2.3-4.7 2.3c-3.4 0-6.5-3-6.5-8c0-5.6 3.6-8.3 7-8.3c2 0 3.4.7 4.3 2.1c.01.04.1 0 .1 0l.1-1.8c0 0 4.71.01 4.7 0c0 1.5-.1 3.1-.1 4.7c.01.02 0 17.3 0 17.3l-4.9 0l0-8.3zm0-7.1c0-.3 0-.6-.1-.8c-.2-1.3-1.3-2.4-2.7-2.4c-2.3 0-3.4 1.9-3.4 4.5c0 2.6 1.3 4.3 3.3 4.3c1.4 0 2.5-1 2.8-2.2c.1-.4.1-.8.1-1.1c0 0 0-2.3 0-2.3zm23.5 4c0 2.1.1 3.7.2 5.1c-.04-.04-4.3 0-4.3 0l-.2-2.2c0 0-.08-.05-.1 0c-.6.9-2.1 2.5-4.9 2.5c-3.1 0-5.5-2-5.5-6.8c.02 0 0-9.2 0-9.2l4.9 0c0 0 .01 8.43 0 8.4c0 2.3.7 3.7 2.4 3.7c1.4 0 2.2-1 2.5-1.7c.1-.3.1-.7.1-1.1c.04.02 0-9.3 0-9.3l4.9 0c0 0 .03 10.64 0 10.6zm3.9 5.1l0-15.7l4.9 0l0 15.7l-4.9 0zm5.1-20c0 1.3-1.1 2.4-2.7 2.4c-1.5 0-2.5-1.1-2.5-2.4c0-1.4 1-2.5 2.6-2.5c1.5 0 2.5 1.1 2.6 2.5zm3.7 9.5c0-2.3-.1-3.8-.1-5.2c-.02.01 4.2 0 4.2 0l.1 2.9c0 0 .16-.01.2 0c.8-2.3 2.7-3.2 4.2-3.2c.4 0 .7 0 1 0c0 0 0 4.6 0 4.6c-.3-.1-.8-.1-1.3-.1c-1.8 0-3 .9-3.3 2.4c-.1.4-.1.7-.1 1.1c-.03.02 0 8 0 8l-4.9 0c0 0 0-10.54 0-10.5zm15.7 4.2c.1 2 2.1 3 4.4 3c1.6 0 3-.3 4.3-.7c0 0 .6 3.3.6 3.3c-1.6.7-3.5 1-5.6 1c-5.3 0-8.4-3.1-8.4-8c0-4 2.5-8.3 7.9-8.3c5.1 0 7 3.9 7 7.8c0 .8-.1 1.5-.2 1.9c0 0-10 0-10 0zm5.7-3.3c0-1.2-.5-3.2-2.8-3.2c-2 0-2.9 1.8-3 3.2c0 0 5.8 0 5.8 0zm22.6-13.2c0 0-.03 18.09 0 18.1c0 1.7 0 3.6.1 4.7c0-.04-4.3 0-4.3 0l-.2-2.3c0 0-.11-.04-.1 0c-1 1.7-2.9 2.6-4.9 2.6c-3.7 0-6.7-3.2-6.7-8c0-5.3 3.3-8.3 7-8.3c1.9 0 3.4.6 4.1 1.7c.04.02.1 0 .1 0l0-8.5l4.9 0zm-4.9 13.7c0-.2 0-.6-.1-.8c-.2-1.3-1.3-2.4-2.8-2.4c-2.2 0-3.4 2-3.4 4.4c0 2.7 1.3 4.3 3.4 4.3c1.4 0 2.5-.9 2.8-2.3c.1-.3.1-.7.1-1.1c0 0 0-2.1 0-2.1zm20.7-11.1l0 4.5l3.5 0l0 3.6l-3.5 0c0 0-.02 5.66 0 5.7c0 1.8.4 2.7 1.9 2.7c.6 0 1.1-.1 1.4-.1c0 0 .1 3.7.1 3.7c-.7.2-1.8.4-3.2.4c-1.6 0-2.9-.6-3.6-1.4c-.9-.9-1.4-2.4-1.4-4.6c.01 0 0-6.4 0-6.4l-2.1 0l0-3.6l2.1 0l0-3.4l4.8-1.1zm21.6 12.2c0 5.7-4.1 8.3-8.3 8.3c-4.6 0-8.1-3-8.1-8.1c0-5 3.4-8.2 8.4-8.2c4.8 0 8 3.3 8 8zm-11.3.1c0 2.7 1.1 4.7 3.2 4.7c1.8 0 3.1-1.9 3.1-4.7c0-2.3-.9-4.7-3.1-4.7c-2.4 0-3.2 2.4-3.2 4.7z" stroke="none" fill="#15345e"/></g><g id="Polygon5814"><path d="m18.8 281.6c-1.2.4-3.7 1.2-6.6 1.2c-3.2 0-5.9-.8-8-2.9c-1.9-1.8-3-4.6-3-8c0-6.4 4.4-11.1 11.6-11.1c2.5 0 4.5.5 5.4 1c0 0-.7 2.2-.7 2.2c-1.1-.5-2.6-.9-4.7-.9c-5.3 0-8.7 3.3-8.7 8.7c0 5.4 3.3 8.7 8.3 8.7c1.8 0 3.1-.3 3.7-.6c.03 0 0-6.4 0-6.4l-4.4 0l0-2.3l7.1 0c0 0 .05 10.4 0 10.4zm4.2 1l0-15.5l2.8 0l0 15.5l-2.8 0zm3.1-19.9c.1 1-.6 1.7-1.7 1.7c-1 0-1.7-.7-1.7-1.7c0-1 .7-1.7 1.7-1.7c1.1 0 1.7.7 1.7 1.7zm5.5 4.4c0 0 3.02 8.68 3 8.7c.5 1.4 1 2.7 1.3 3.9c0 0 .1 0 .1 0c.3-1.2.8-2.5 1.3-3.9c-.02-.02 3-8.7 3-8.7l2.9 0l-6 15.5l-2.7 0l-5.9-15.5l3 0zm15.5 8.2c.1 3.8 2.5 5.4 5.3 5.4c2.1 0 3.3-.3 4.3-.8c0 0 .5 2 .5 2c-1 .5-2.7 1-5.1 1c-4.8 0-7.7-3.2-7.7-7.8c0-4.7 2.8-8.4 7.3-8.4c5.1 0 6.4 4.5 6.4 7.3c0 .6-.1 1-.1 1.3c0 0-10.9 0-10.9 0zm8.3-2c0-1.8-.7-4.6-3.9-4.6c-2.9 0-4.1 2.7-4.3 4.6c0 0 8.2 0 8.2 0zm6.2-2c0-1.6 0-2.9-.1-4.2c-.03-.03 2.5 0 2.5 0l.1 2.5c0 0 .09.03.1 0c.8-1.4 2.6-2.9 5.1-2.9c2.2 0 5.5 1.3 5.5 6.6c-.02.01 0 9.3 0 9.3l-2.8 0c0 0-.03-8.97 0-9c0-2.5-1-4.5-3.6-4.5c-1.9 0-3.3 1.3-3.8 2.8c-.1.4-.2.9-.2 1.3c.02.05 0 9.4 0 9.4l-2.8 0c0 0 0-11.34 0-11.3zm27.9-8.7l0 4.5l4.1 0l0 2.1l-4.1 0c0 0 .03 8.37 0 8.4c0 1.9.6 3 2.1 3c.8 0 1.3-.1 1.7-.2c0 0 .1 2.1.1 2.1c-.5.2-1.4.4-2.5.4c-1.3 0-2.4-.4-3-1.2c-.8-.8-1.1-2.2-1.1-4c-.02-.04 0-8.5 0-8.5l-2.4 0l0-2.1l2.4 0l0-3.7l2.7-.8zm7.2-2.8l2.9 0l0 9.7c0 0 .01 0 0 0c.5-.8 1.2-1.5 2-2c.9-.5 1.9-.8 2.9-.8c2.1 0 5.4 1.3 5.4 6.6c.02.04 0 9.3 0 9.3l-2.8 0c0 0 0-8.94 0-8.9c0-2.5-.9-4.6-3.6-4.6c-1.8 0-3.2 1.2-3.8 2.8c-.1.4-.1.8-.1 1.3c-.05.02 0 9.4 0 9.4l-2.9 0l0-22.8zm17.8 22.8l0-15.5l2.8 0l0 15.5l-2.8 0zm3.1-19.9c.1 1-.6 1.7-1.8 1.7c-1 0-1.7-.7-1.7-1.7c0-1 .8-1.7 1.8-1.7c1.1 0 1.7.7 1.7 1.7zm4 17c.8.5 2.3 1.1 3.7 1.1c2.1 0 3-1 3-2.3c0-1.3-.8-2.1-2.9-2.9c-2.7-.9-4.1-2.5-4.1-4.3c0-2.5 2.1-4.6 5.4-4.6c1.6 0 2.9.5 3.8 1c0 0-.7 2-.7 2c-.6-.4-1.7-.9-3.2-.9c-1.6 0-2.6 1-2.6 2.1c0 1.3 1 1.9 3 2.7c2.7 1 4 2.3 4 4.6c0 2.8-2.1 4.7-5.8 4.7c-1.7 0-3.2-.4-4.3-1.1c0 0 .7-2.1.7-2.1zm10.9 6.8c.7-1.9 1.5-5.3 1.9-7.7c0 0 3.1-.3 3.1-.3c-.7 2.7-2.1 6.3-3 7.8c0 0-2 .2-2 .2zm18.6-23.9l0 4.5l4 0l0 2.1l-4 0c0 0 0 8.37 0 8.4c0 1.9.5 3 2.1 3c.7 0 1.3-.1 1.6-.2c0 0 .2 2.1.2 2.1c-.6.2-1.4.4-2.5.4c-1.3 0-2.4-.4-3.1-1.2c-.8-.8-1.1-2.2-1.1-4c.05-.04 0-8.5 0-8.5l-2.4 0l0-2.1l2.4 0l0-3.7l2.8-.8zm7.2-2.8l2.8 0l0 9.7c0 0 .08 0 .1 0c.4-.8 1.1-1.5 2-2c.8-.5 1.8-.8 2.9-.8c2.1 0 5.4 1.3 5.4 6.6c-.01.04 0 9.3 0 9.3l-2.8 0c0 0-.03-8.94 0-8.9c0-2.5-1-4.6-3.6-4.6c-1.8 0-3.3 1.2-3.8 2.8c-.2.4-.2.8-.2 1.3c.02.02 0 9.4 0 9.4l-2.8 0l0-22.8zm19.3 15.5c.1 3.8 2.5 5.4 5.3 5.4c2.1 0 3.3-.3 4.3-.8c0 0 .5 2 .5 2c-1 .5-2.7 1-5.1 1c-4.8 0-7.7-3.2-7.7-7.8c0-4.7 2.8-8.4 7.3-8.4c5.1 0 6.4 4.5 6.4 7.3c0 .6-.1 1-.1 1.3c0 0-10.9 0-10.9 0zm8.3-2c0-1.8-.8-4.6-3.9-4.6c-2.9 0-4.1 2.7-4.3 4.6c0 0 8.2 0 8.2 0z" stroke="none" fill="#3c3c3b"/></g><g id="Polygon5813"><path d="m5.7 214.1l0 4.4l4.1 0l0 2.2l-4.1 0c0 0 .03 8.31 0 8.3c0 1.9.6 3 2.1 3c.8 0 1.3-.1 1.7-.2c0 0 .1 2.1.1 2.1c-.5.3-1.4.4-2.5.4c-1.3 0-2.4-.4-3-1.2c-.8-.8-1.1-2.2-1.1-4c-.02 0 0-8.4 0-8.4l-2.4 0l0-2.2l2.4 0l0-3.7l2.7-.7zm7.2-2.8l2.8 0l0 9.6c0 0 .11.04.1 0c.5-.8 1.2-1.5 2-1.9c.9-.5 1.8-.8 2.9-.8c2.1 0 5.4 1.2 5.4 6.6c.01-.02 0 9.2 0 9.2l-2.8 0c0 0 0-8.9 0-8.9c0-2.5-.9-4.6-3.6-4.6c-1.8 0-3.3 1.3-3.8 2.8c-.1.4-.2.8-.2 1.4c.04-.04 0 9.3 0 9.3l-2.8 0l0-22.7zm26.4 22.7l-.3-2c0 0-.06.05-.1 0c-.8 1.3-2.5 2.4-4.7 2.4c-3.1 0-4.7-2.3-4.7-4.5c0-3.7 3.3-5.8 9.3-5.8c0 0 0-.3 0-.3c0-1.3-.4-3.6-3.5-3.6c-1.5 0-3 .5-4.1 1.2c0 0-.6-1.9-.6-1.9c1.3-.8 3.1-1.3 5.1-1.3c4.7 0 5.9 3.2 5.9 6.3c0 0 0 5.8 0 5.8c0 1.3 0 2.6.2 3.7c.02 0-2.5 0-2.5 0zm-.5-7.9c-3-.1-6.5.5-6.5 3.5c0 1.8 1.2 2.7 2.6 2.7c2.1 0 3.3-1.3 3.8-2.6c.1-.3.1-.6.1-.9c0 0 0-2.7 0-2.7zm10.6-12l0 4.4l4 0l0 2.2l-4 0c0 0-.02 8.31 0 8.3c0 1.9.5 3 2.1 3c.7 0 1.3-.1 1.6-.2c0 0 .1 2.1.1 2.1c-.5.3-1.4.4-2.4.4c-1.4 0-2.4-.4-3.1-1.2c-.8-.8-1.1-2.2-1.1-4c.02 0 0-8.4 0-8.4l-2.4 0l0-2.2l2.4 0l0-3.7l2.8-.7zm16.8-1.7l0 21.6l-2.8 0l0-21.6l2.8 0zm8.9 2.4l-6.5 0l0-2.4l16 0l0 2.4l-6.6 0l0 19.2l-2.9 0l0-19.2zm26.1 18.5c-1.1.5-3.1 1-5.7 1c-6.1 0-10.7-3.8-10.7-10.9c0-6.7 4.6-11.3 11.3-11.3c2.7 0 4.4.6 5.1.9c0 0-.7 2.3-.7 2.3c-1-.5-2.5-.9-4.3-.9c-5.1 0-8.4 3.2-8.4 8.9c0 5.3 3 8.7 8.2 8.7c1.7 0 3.5-.4 4.6-.9c0 0 .6 2.2.6 2.2zm24.1-7.2c0 5.8-4 8.3-7.7 8.3c-4.2 0-7.4-3.1-7.4-8c0-5.2 3.4-8.2 7.6-8.2c4.5 0 7.5 3.2 7.5 7.9zm-12.3.2c0 3.4 2 5.9 4.7 5.9c2.7 0 4.7-2.5 4.7-6c0-2.6-1.3-5.9-4.6-5.9c-3.4 0-4.8 3-4.8 6zm15.8-3.6c0-1.6 0-2.9-.1-4.2c.02.01 2.5 0 2.5 0l.2 2.6c0 0 .04-.03 0 0c.8-1.5 2.6-2.9 5.2-2.9c2.1 0 5.4 1.2 5.4 6.6c.03-.05 0 9.2 0 9.2l-2.8 0c0 0 .02-8.93 0-8.9c0-2.5-.9-4.6-3.6-4.6c-1.8 0-3.3 1.3-3.7 2.9c-.2.3-.2.8-.2 1.3c-.03-.01 0 9.3 0 9.3l-2.9 0c0 0 .05-11.3 0-11.3zm24.2 8.4c.8.6 2.3 1.1 3.7 1.1c2 0 3-1 3-2.3c0-1.3-.8-2-2.9-2.8c-2.8-1-4.1-2.5-4.1-4.4c0-2.5 2-4.5 5.3-4.5c1.6 0 3 .4 3.8.9c0 0-.7 2.1-.7 2.1c-.6-.4-1.7-.9-3.1-.9c-1.7 0-2.6.9-2.6 2.1c0 1.3.9 1.8 2.9 2.6c2.7 1 4.1 2.4 4.1 4.7c0 2.7-2.1 4.6-5.8 4.6c-1.7 0-3.3-.4-4.4-1c0 0 .8-2.2.8-2.2zm26-1.3c0 1.6 0 3 .1 4.2c0 0-2.5 0-2.5 0l-.2-2.5c0 0-.02-.03 0 0c-.8 1.2-2.4 2.9-5.1 2.9c-2.5 0-5.4-1.4-5.4-6.8c.01-.03 0-9.1 0-9.1l2.8 0c0 0 .03 8.59 0 8.6c0 2.9.9 4.9 3.5 4.9c1.9 0 3.2-1.3 3.7-2.5c.2-.5.3-1 .3-1.5c-.05.02 0-9.5 0-9.5l2.8 0c0 0-.03 11.28 0 11.3zm15.7 3.6c-.8.4-2.4.9-4.5.9c-4.6 0-7.7-3.1-7.7-7.9c0-4.8 3.3-8.2 8.3-8.2c1.7 0 3.2.4 3.9.8c0 0-.6 2.2-.6 2.2c-.7-.4-1.7-.8-3.3-.8c-3.5 0-5.4 2.7-5.4 5.9c0 3.6 2.3 5.8 5.3 5.8c1.6 0 2.7-.4 3.5-.8c0 0 .5 2.1.5 2.1zm3.3-22.1l2.8 0l0 9.6c0 0 .06.04.1 0c.4-.8 1.1-1.5 2-1.9c.8-.5 1.8-.8 2.9-.8c2 0 5.4 1.2 5.4 6.6c-.04-.02 0 9.2 0 9.2l-2.9 0c0 0 .05-8.9 0-8.9c0-2.5-.9-4.6-3.5-4.6c-1.9 0-3.3 1.3-3.8 2.8c-.2.4-.2.8-.2 1.4c-.01-.04 0 9.3 0 9.3l-2.8 0l0-22.7zm37.8 0c0 0 .04 18.7 0 18.7c0 1.4.1 2.9.2 4c-.03 0-2.6 0-2.6 0l-.1-2.7c0 0-.05.01 0 0c-.9 1.7-2.8 3.1-5.3 3.1c-3.8 0-6.7-3.2-6.7-7.9c0-5.2 3.2-8.3 7-8.3c2.4 0 4 1.1 4.7 2.3c-.04.03 0 0 0 0l0-9.2l2.8 0zm-2.8 13.5c0-.3 0-.8-.1-1.2c-.4-1.8-2-3.2-4.1-3.2c-2.9 0-4.6 2.5-4.6 6c0 3.1 1.5 5.7 4.6 5.7c1.9 0 3.6-1.3 4.1-3.4c.1-.4.1-.7.1-1.2c0 0 0-2.7 0-2.7zm21.5 1.3c0 5.8-3.9 8.3-7.7 8.3c-4.2 0-7.4-3.1-7.4-8c0-5.2 3.4-8.2 7.7-8.2c4.4 0 7.4 3.2 7.4 7.9zm-12.3.2c0 3.4 2 5.9 4.7 5.9c2.7 0 4.8-2.5 4.8-6c0-2.6-1.4-5.9-4.7-5.9c-3.3 0-4.8 3-4.8 6zm26.9 7.1c-.7.4-2.3.9-4.4.9c-4.7 0-7.7-3.1-7.7-7.9c0-4.8 3.2-8.2 8.3-8.2c1.6 0 3.1.4 3.9.8c0 0-.7 2.2-.7 2.2c-.6-.4-1.7-.8-3.2-.8c-3.6 0-5.5 2.7-5.5 5.9c0 3.6 2.3 5.8 5.4 5.8c1.6 0 2.6-.4 3.4-.8c0 0 .5 2.1.5 2.1zm16.3-3.6c0 1.6 0 3 .1 4.2c.01 0-2.5 0-2.5 0l-.1-2.5c0 0-.11-.03-.1 0c-.7 1.2-2.4 2.9-5.1 2.9c-2.5 0-5.4-1.4-5.4-6.8c.02-.03 0-9.1 0-9.1l2.8 0c0 0 .04 8.59 0 8.6c0 2.9.9 4.9 3.5 4.9c1.9 0 3.2-1.3 3.7-2.5c.2-.5.3-1 .3-1.5c-.04.02 0-9.5 0-9.5l2.8 0c0 0-.02 11.28 0 11.3zm4.7-7.1c0-1.6-.1-2.9-.2-4.2c.02.01 2.5 0 2.5 0l.1 2.5c0 0 .11.01.1 0c.9-1.5 2.3-2.8 4.9-2.8c2.1 0 3.7 1.2 4.4 3.1c0 0 0 0 0 0c.5-.9 1.1-1.6 1.8-2.1c.9-.7 1.9-1 3.4-1c2 0 5.1 1.3 5.1 6.7c-.04-.02 0 9.1 0 9.1l-2.8 0c0 0 .01-8.77 0-8.8c0-2.9-1.1-4.7-3.3-4.7c-1.6 0-2.9 1.1-3.4 2.5c-.1.4-.2.9-.2 1.4c0 .03 0 9.6 0 9.6l-2.8 0c0 0 .05-9.28 0-9.3c0-2.4-1-4.2-3.2-4.2c-1.7 0-3 1.4-3.5 2.8c-.1.4-.2.9-.2 1.4c0-.04 0 9.3 0 9.3l-2.7 0c0 0-.05-11.3 0-11.3zm28.2 4.1c.1 3.8 2.5 5.3 5.3 5.3c2 0 3.3-.3 4.3-.8c0 0 .5 2.1.5 2.1c-1 .4-2.7.9-5.2.9c-4.7 0-7.6-3.1-7.6-7.8c0-4.7 2.8-8.3 7.3-8.3c5 0 6.4 4.4 6.4 7.3c0 .5-.1 1-.1 1.3c0 0-10.9 0-10.9 0zm8.3-2c0-1.8-.8-4.6-3.9-4.6c-2.9 0-4.1 2.6-4.4 4.6c0 0 8.3 0 8.3 0zm6.2-2.1c0-1.6-.1-2.9-.2-4.2c.04.01 2.5 0 2.5 0l.2 2.6c0 0 .06-.03.1 0c.7-1.5 2.5-2.9 5.1-2.9c2.1 0 5.5 1.2 5.5 6.6c-.05-.05 0 9.2 0 9.2l-2.9 0c0 0 .04-8.93 0-8.9c0-2.5-.9-4.6-3.5-4.6c-1.9 0-3.3 1.3-3.8 2.9c-.2.3-.2.8-.2 1.3c-.01-.01 0 9.3 0 9.3l-2.8 0c0 0-.03-11.3 0-11.3zm21-8.6l0 4.4l4 0l0 2.2l-4 0c0 0-.01 8.31 0 8.3c0 1.9.5 3 2.1 3c.7 0 1.3-.1 1.6-.2c0 0 .2 2.1.2 2.1c-.6.3-1.4.4-2.5.4c-1.3 0-2.4-.4-3.1-1.2c-.8-.8-1.1-2.2-1.1-4c.04 0 0-8.4 0-8.4l-2.4 0l0-2.2l2.4 0l0-3.7l2.8-.7zm13.9 19.9l0-15.5l2.8 0l0 15.5l-2.8 0zm3.2-19.8c0 .9-.7 1.7-1.8 1.7c-1 0-1.7-.8-1.7-1.7c0-1 .7-1.8 1.7-1.8c1.1 0 1.8.8 1.8 1.8zm3.9 16.9c.9.6 2.3 1.1 3.7 1.1c2.1 0 3-1 3-2.3c0-1.3-.8-2-2.8-2.8c-2.8-1-4.1-2.5-4.1-4.4c0-2.5 2-4.5 5.3-4.5c1.6 0 3 .4 3.8.9c0 0-.7 2.1-.7 2.1c-.6-.4-1.7-.9-3.1-.9c-1.7 0-2.6.9-2.6 2.1c0 1.3.9 1.8 2.9 2.6c2.7 1 4.1 2.4 4.1 4.7c0 2.7-2.1 4.6-5.8 4.6c-1.7 0-3.3-.4-4.4-1c0 0 .7-2.2.7-2.2zm19.8-8.4c0-1.6 0-2.9-.1-4.2c-.02.01 2.5 0 2.5 0l.1 2.6c0 0 .1-.03.1 0c.8-1.5 2.6-2.9 5.1-2.9c2.2 0 5.5 1.2 5.5 6.6c0-.05 0 9.2 0 9.2l-2.8 0c0 0-.02-8.93 0-8.9c0-2.5-.9-4.6-3.6-4.6c-1.9 0-3.3 1.3-3.8 2.9c-.1.3-.2.8-.2 1.3c.03-.01 0 9.3 0 9.3l-2.8 0c0 0 .01-11.3 0-11.3zm31.8 3.4c0 5.8-4 8.3-7.7 8.3c-4.2 0-7.4-3.1-7.4-8c0-5.2 3.3-8.2 7.6-8.2c4.5 0 7.5 3.2 7.5 7.9zm-12.3.2c0 3.4 2 5.9 4.7 5.9c2.7 0 4.7-2.5 4.7-6c0-2.6-1.3-5.9-4.6-5.9c-3.4 0-4.8 3-4.8 6zm19.2-12.2l0 4.4l4.1 0l0 2.2l-4.1 0c0 0 .03 8.31 0 8.3c0 1.9.6 3 2.1 3c.8 0 1.3-.1 1.7-.2c0 0 .1 2.1.1 2.1c-.5.3-1.4.4-2.5.4c-1.3 0-2.4-.4-3-1.2c-.8-.8-1.1-2.2-1.1-4c-.02 0 0-8.4 0-8.4l-2.4 0l0-2.2l2.4 0l0-3.7l2.7-.7zm14 9.2c0-1.8-.1-3.3-.2-4.8c.03.01 2.5 0 2.5 0l.1 3.1c0 0 .12-.05.1 0c.7-2.1 2.4-3.4 4.3-3.4c.3 0 .6 0 .8.1c0 0 0 2.6 0 2.6c-.3-.1-.6-.1-1-.1c-1.9 0-3.3 1.5-3.7 3.6c-.1.4-.2.9-.2 1.3c.04.04 0 8.3 0 8.3l-2.7 0c0 0-.04-10.66 0-10.7zm11.7 3.5c0 3.8 2.5 5.3 5.3 5.3c2 0 3.2-.3 4.3-.8c0 0 .5 2.1.5 2.1c-1 .4-2.7.9-5.2.9c-4.8 0-7.6-3.1-7.6-7.8c0-4.7 2.7-8.3 7.2-8.3c5.1 0 6.4 4.4 6.4 7.3c0 .5 0 1 0 1.3c0 0-10.9 0-10.9 0zm8.2-2c.1-1.8-.7-4.6-3.9-4.6c-2.8 0-4.1 2.6-4.3 4.6c0 0 8.2 0 8.2 0zm5.9 6.3c.8.6 2.3 1.1 3.7 1.1c2 0 3-1 3-2.3c0-1.3-.8-2-2.9-2.8c-2.8-1-4.1-2.5-4.1-4.4c0-2.5 2-4.5 5.3-4.5c1.6 0 3 .4 3.8.9c0 0-.7 2.1-.7 2.1c-.6-.4-1.7-.9-3.1-.9c-1.7 0-2.6.9-2.6 2.1c0 1.3.9 1.8 2.9 2.6c2.7 1 4.1 2.4 4.1 4.7c0 2.7-2.1 4.6-5.8 4.6c-1.7 0-3.3-.4-4.4-1c0 0 .8-2.2.8-2.2zm16.4-17l0 4.4l4 0l0 2.2l-4 0c0 0 0 8.31 0 8.3c0 1.9.5 3 2.1 3c.7 0 1.3-.1 1.6-.2c0 0 .2 2.1.2 2.1c-.6.3-1.4.4-2.5.4c-1.3 0-2.4-.4-3.1-1.2c-.8-.8-1.1-2.2-1.1-4c.05 0 0-8.4 0-8.4l-2.4 0l0-2.2l2.4 0l0-3.7l2.8-.7zm7.2 9.2c0-1.8 0-3.3-.1-4.8c-.03.01 2.4 0 2.4 0l.1 3.1c0 0 .16-.05.2 0c.7-2.1 2.4-3.4 4.2-3.4c.4 0 .6 0 .8.1c0 0 0 2.6 0 2.6c-.2-.1-.5-.1-.9-.1c-2 0-3.4 1.5-3.8 3.6c-.1.4-.1.9-.1 1.3c-.02.04 0 8.3 0 8.3l-2.8 0c0 0 0-10.66 0-10.7zm10.6 10.7l0-15.5l2.8 0l0 15.5l-2.8 0zm3.1-19.8c.1.9-.6 1.7-1.8 1.7c-1 0-1.7-.8-1.7-1.7c0-1 .8-1.8 1.8-1.8c1.1 0 1.7.8 1.7 1.8zm15.4 19.2c-.7.4-2.3.9-4.4.9c-4.7 0-7.7-3.1-7.7-7.9c0-4.8 3.2-8.2 8.3-8.2c1.6 0 3.1.4 3.9.8c0 0-.7 2.2-.7 2.2c-.6-.4-1.7-.8-3.2-.8c-3.6 0-5.5 2.7-5.5 5.9c0 3.6 2.3 5.8 5.4 5.8c1.6 0 2.6-.4 3.4-.8c0 0 .5 2.1.5 2.1zm7.1-19.3l0 4.4l4.1 0l0 2.2l-4.1 0c0 0 .02 8.31 0 8.3c0 1.9.6 3 2.1 3c.8 0 1.3-.1 1.7-.2c0 0 .1 2.1.1 2.1c-.5.3-1.4.4-2.5.4c-1.3 0-2.4-.4-3-1.2c-.8-.8-1.1-2.2-1.1-4c-.03 0 0-8.4 0-8.4l-2.4 0l0-2.2l2.4 0l0-3.7l2.7-.7zm8.6 12.7c.1 3.8 2.5 5.3 5.3 5.3c2 0 3.2-.3 4.3-.8c0 0 .5 2.1.5 2.1c-1 .4-2.7.9-5.2.9c-4.7 0-7.6-3.1-7.6-7.8c0-4.7 2.8-8.3 7.3-8.3c5 0 6.4 4.4 6.4 7.3c0 .5-.1 1-.1 1.3c0 0-10.9 0-10.9 0zm8.3-2c0-1.8-.8-4.6-3.9-4.6c-2.9 0-4.1 2.6-4.4 4.6c0 0 8.3 0 8.3 0zm19.5-13.5c0 0 .04 18.7 0 18.7c0 1.4.1 2.9.2 4c-.03 0-2.6 0-2.6 0l-.1-2.7c0 0-.05.01-.1 0c-.8 1.7-2.7 3.1-5.2 3.1c-3.8 0-6.7-3.2-6.7-7.9c0-5.2 3.2-8.3 7-8.3c2.4 0 4 1.1 4.7 2.3c-.04.03 0 0 0 0l0-9.2l2.8 0zm-2.8 13.5c0-.3 0-.8-.1-1.2c-.4-1.8-2-3.2-4.1-3.2c-2.9 0-4.6 2.5-4.6 6c0 3.1 1.5 5.7 4.6 5.7c1.9 0 3.6-1.3 4.1-3.4c.1-.4.1-.7.1-1.2c0 0 0-2.7 0-2.7zm6.5 7.5c0-1.1.8-2 1.9-2c1.2 0 1.9.9 1.9 2c0 1.2-.7 2.1-1.9 2.1c-1.1 0-1.9-.9-1.9-2.1z" stroke="none" fill="#3c3c3b"/></g><g id="Polygon5812"><path d="m5.7 172.1l0 4.4l4.1 0l0 2.2l-4.1 0c0 0 .03 8.31 0 8.3c0 1.9.6 3 2.1 3c.8 0 1.3-.1 1.7-.2c0 0 .1 2.1.1 2.1c-.5.3-1.4.4-2.5.4c-1.3 0-2.4-.4-3-1.2c-.8-.8-1.1-2.2-1.1-4c-.02 0 0-8.4 0-8.4l-2.4 0l0-2.2l2.4 0l0-3.7l2.7-.7zm15.8 19.9l-.2-2c0 0-.12.05-.1 0c-.9 1.3-2.5 2.4-4.8 2.4c-3.1 0-4.7-2.3-4.7-4.5c0-3.7 3.3-5.8 9.3-5.8c0 0 0-.3 0-.3c0-1.3-.3-3.6-3.5-3.6c-1.4 0-2.9.5-4 1.2c0 0-.7-1.9-.7-1.9c1.3-.8 3.2-1.3 5.1-1.3c4.8 0 5.9 3.2 5.9 6.3c0 0 0 5.8 0 5.8c0 1.3.1 2.6.3 3.7c-.04 0-2.6 0-2.6 0zm-.4-7.9c-3.1-.1-6.6.5-6.6 3.5c0 1.8 1.2 2.7 2.7 2.7c2 0 3.3-1.3 3.7-2.6c.1-.3.2-.6.2-.9c0 0 0-2.7 0-2.7zm8.6-7.6c0 0 2.17 3.34 2.2 3.3c.5.9 1 1.7 1.5 2.6c0 0 .1 0 .1 0c.5-1 1.1-1.8 1.6-2.6c-.03.01 2.1-3.3 2.1-3.3l3.1 0l-5.3 7.5l5.4 8l-3.2 0c0 0-2.22-3.49-2.2-3.5c-.6-.9-1.1-1.7-1.7-2.7c0 0-.1 0-.1 0c-.5 1-1 1.8-1.6 2.7c.02.01-2.2 3.5-2.2 3.5l-3.1 0l5.5-7.9l-5.3-7.6l3.2 0zm20.3-7.2l2.8 0l0 9.6c0 0 .03.04 0 0c.5-.8 1.2-1.5 2-1.9c.9-.5 1.9-.8 2.9-.8c2.1 0 5.4 1.2 5.4 6.6c.04-.02 0 9.2 0 9.2l-2.8 0c0 0 .02-8.9 0-8.9c0-2.5-.9-4.6-3.6-4.6c-1.8 0-3.2 1.3-3.7 2.8c-.2.4-.2.8-.2 1.4c-.03-.04 0 9.3 0 9.3l-2.8 0l0-22.7zm26.3 22.7l-.2-2c0 0-.13.05-.1 0c-.9 1.3-2.6 2.4-4.8 2.4c-3.1 0-4.7-2.3-4.7-4.5c0-3.7 3.3-5.8 9.3-5.8c0 0 0-.3 0-.3c0-1.3-.3-3.6-3.5-3.6c-1.5 0-3 .5-4 1.2c0 0-.7-1.9-.7-1.9c1.3-.8 3.2-1.3 5.1-1.3c4.7 0 5.9 3.2 5.9 6.3c0 0 0 5.8 0 5.8c0 1.3.1 2.6.2 3.7c.05 0-2.5 0-2.5 0zm-.4-7.9c-3.1-.1-6.6.5-6.6 3.5c0 1.8 1.2 2.7 2.7 2.7c2 0 3.3-1.3 3.7-2.6c.1-.3.2-.6.2-.9c0 0 0-2.7 0-2.7zm8.1-7.6c0 0 3.01 8.72 3 8.7c.5 1.4.9 2.7 1.3 4c0 0 .1 0 .1 0c.3-1.3.8-2.6 1.3-4c-.04.02 3-8.7 3-8.7l2.9 0l-6.1 15.5l-2.7 0l-5.8-15.5l3 0zm14.3 15.5l0-15.5l2.8 0l0 15.5l-2.8 0zm3.1-19.8c0 .9-.7 1.7-1.8 1.7c-1 0-1.7-.8-1.7-1.7c0-1 .8-1.8 1.8-1.8c1 0 1.7.8 1.7 1.8zm4.4 8.5c0-1.6-.1-2.9-.2-4.2c.03.01 2.5 0 2.5 0l.2 2.6c0 0 .05-.03.1 0c.7-1.5 2.5-2.9 5.1-2.9c2.1 0 5.4 1.2 5.4 6.6c.04-.05 0 9.2 0 9.2l-2.8 0c0 0 .03-8.93 0-8.9c0-2.5-.9-4.6-3.6-4.6c-1.8 0-3.3 1.3-3.7 2.9c-.2.3-.2.8-.2 1.3c-.03-.01 0 9.3 0 9.3l-2.8 0c0 0-.04-11.3 0-11.3zm31.1-4.2c-.1 1.1-.2 2.4-.2 4.3c0 0 0 9 0 9c0 3.5-.7 5.7-2.2 7c-1.5 1.4-3.7 1.9-5.6 1.9c-1.9 0-3.9-.5-5.2-1.3c0 0 .7-2.1.7-2.1c1.1.6 2.7 1.2 4.6 1.2c2.9 0 5-1.5 5-5.4c-.02-.03 0-1.8 0-1.8c0 0-.08.04-.1 0c-.8 1.5-2.5 2.6-4.9 2.6c-3.8 0-6.6-3.2-6.6-7.5c0-5.3 3.4-8.2 7-8.2c2.7 0 4.1 1.4 4.8 2.6c.01.05.1 0 .1 0l.1-2.3c0 0 2.46.01 2.5 0zm-2.9 6.1c0-.5-.1-.9-.2-1.3c-.5-1.6-1.9-2.9-3.9-2.9c-2.7 0-4.7 2.2-4.7 5.8c0 3.1 1.6 5.6 4.6 5.6c1.8 0 3.3-1.1 3.9-2.9c.2-.5.3-1 .3-1.5c0 0 0-2.8 0-2.8zm14.1 9.4c0-1.1.1-2.6.1-4c-.01 0 0-18.7 0-18.7l2.8 0l0 9.7c0 0 .04.01 0 0c1-1.7 2.8-2.8 5.3-2.8c3.9 0 6.6 3.2 6.5 7.9c0 5.5-3.4 8.3-6.9 8.3c-2.2 0-4-.9-5.2-3c.02.04-.1 0-.1 0l-.1 2.6c0 0-2.44 0-2.4 0zm2.9-6.2c0 .3 0 .7.1 1c.5 2 2.2 3.3 4.2 3.3c3 0 4.7-2.4 4.7-5.9c0-3.1-1.6-5.8-4.6-5.8c-1.9 0-3.7 1.3-4.3 3.5c0 .3-.1.7-.1 1.1c0 0 0 2.8 0 2.8zm17-1c0 3.8 2.5 5.3 5.3 5.3c2 0 3.2-.3 4.3-.8c0 0 .4 2.1.4 2.1c-.9.4-2.6.9-5.1.9c-4.8 0-7.6-3.1-7.6-7.8c0-4.7 2.7-8.3 7.2-8.3c5.1 0 6.4 4.4 6.4 7.3c0 .5 0 1-.1 1.3c0 0-10.8 0-10.8 0zm8.2-2c.1-1.8-.7-4.6-3.9-4.6c-2.8 0-4.1 2.6-4.3 4.6c0 0 8.2 0 8.2 0zm7.8 2c.1 3.8 2.5 5.3 5.3 5.3c2 0 3.2-.3 4.3-.8c0 0 .5 2.1.5 2.1c-1 .4-2.7.9-5.2.9c-4.7 0-7.6-3.1-7.6-7.8c0-4.7 2.8-8.3 7.3-8.3c5 0 6.4 4.4 6.4 7.3c0 .5-.1 1-.1 1.3c0 0-10.9 0-10.9 0zm8.3-2c0-1.8-.8-4.6-4-4.6c-2.8 0-4 2.6-4.3 4.6c0 0 8.3 0 8.3 0zm6.2-2.1c0-1.6-.1-2.9-.2-4.2c.03.01 2.5 0 2.5 0l.2 2.6c0 0 .05-.03.1 0c.7-1.5 2.5-2.9 5.1-2.9c2.1 0 5.4 1.2 5.4 6.6c.04-.05 0 9.2 0 9.2l-2.8 0c0 0 .03-8.93 0-8.9c0-2.5-.9-4.6-3.6-4.6c-1.8 0-3.3 1.3-3.7 2.9c-.2.3-.2.8-.2 1.3c-.02-.01 0 9.3 0 9.3l-2.8 0c0 0-.04-11.3 0-11.3zm24.5.9c0-2-.1-3.6-.1-5.1c-.02.01 2.5 0 2.5 0l.1 2.7c0 0 .1-.03.1 0c1.1-1.9 3-3 5.5-3c3.7 0 6.6 3.1 6.6 7.8c0 5.6-3.4 8.4-7.1 8.4c-2 0-3.8-.9-4.7-2.5c-.05.02-.1 0-.1 0l0 8.4l-2.8 0c0 0 0-16.73 0-16.7zm2.8 4.1c0 .4.1.8.1 1.1c.5 2 2.2 3.3 4.2 3.3c3 0 4.7-2.4 4.7-5.9c0-3.1-1.6-5.8-4.6-5.8c-1.9 0-3.7 1.4-4.2 3.5c-.1.3-.2.8-.2 1.1c0 0 0 2.7 0 2.7zm24 6.3l-.2-2c0 0-.13.05-.1 0c-.9 1.3-2.6 2.4-4.8 2.4c-3.1 0-4.7-2.3-4.7-4.5c0-3.7 3.3-5.8 9.3-5.8c0 0 0-.3 0-.3c0-1.3-.3-3.6-3.5-3.6c-1.5 0-3 .5-4 1.2c0 0-.7-1.9-.7-1.9c1.3-.8 3.2-1.3 5.1-1.3c4.7 0 5.9 3.2 5.9 6.3c0 0 0 5.8 0 5.8c0 1.3.1 2.6.2 3.7c.05 0-2.5 0-2.5 0zm-.4-7.9c-3.1-.1-6.6.5-6.6 3.5c0 1.8 1.2 2.7 2.7 2.7c2 0 3.3-1.3 3.7-2.6c.1-.3.2-.6.2-.9c0 0 0-2.7 0-2.7zm7.2 7.9l0-15.5l2.9 0l0 15.5l-2.9 0zm3.2-19.8c0 .9-.7 1.7-1.8 1.7c-1 0-1.7-.8-1.7-1.7c0-1 .7-1.8 1.7-1.8c1.1 0 1.8.8 1.8 1.8zm17.7-2.9c0 0 0 18.7 0 18.7c0 1.4 0 2.9.1 4c.03 0-2.5 0-2.5 0l-.1-2.7c0 0-.09.01-.1 0c-.9 1.7-2.7 3.1-5.3 3.1c-3.7 0-6.6-3.2-6.6-7.9c0-5.2 3.2-8.3 6.9-8.3c2.4 0 4 1.1 4.7 2.3c.02.03.1 0 .1 0l0-9.2l2.8 0zm-2.8 13.5c0-.3 0-.8-.1-1.2c-.5-1.8-2-3.2-4.1-3.2c-2.9 0-4.6 2.5-4.6 6c0 3.1 1.5 5.7 4.5 5.7c1.9 0 3.6-1.3 4.2-3.4c.1-.4.1-.7.1-1.2c0 0 0-2.7 0-2.7zm14.1 9.2c.1-1.1.2-2.6.2-4c-.05 0 0-18.7 0-18.7l2.7 0l0 9.7c0 0 .1.01.1 0c1-1.7 2.8-2.8 5.3-2.8c3.8 0 6.5 3.2 6.5 7.9c0 5.5-3.5 8.3-6.9 8.3c-2.3 0-4.1-.9-5.2-3c-.02.04-.1 0-.1 0l-.1 2.6c0 0-2.47 0-2.5 0zm2.9-6.2c0 .3.1.7.2 1c.5 2 2.1 3.3 4.2 3.3c2.9 0 4.7-2.4 4.7-5.9c0-3.1-1.6-5.8-4.6-5.8c-1.9 0-3.7 1.3-4.3 3.5c-.1.3-.2.7-.2 1.1c0 0 0 2.8 0 2.8zm16.3-9.3c0 0 3.35 9.16 3.4 9.2c.3 1 .7 2.2.9 3.1c0 0 .1 0 .1 0c.3-.9.6-2.1 1-3.2c0 0 3.1-9.1 3.1-9.1l3 0c0 0-4.27 11.05-4.3 11.1c-2 5.3-3.4 8-5.3 9.6c-1.4 1.3-2.7 1.7-3.4 1.9c0 0-.7-2.4-.7-2.4c.7-.2 1.6-.7 2.4-1.4c.8-.6 1.7-1.7 2.4-3.1c.1-.3.2-.5.2-.7c0-.1-.1-.4-.2-.7c.02-.02-5.7-14.3-5.7-14.3l3.1 0zm24.2-4.4l0 4.4l4 0l0 2.2l-4 0c0 0-.01 8.31 0 8.3c0 1.9.5 3 2.1 3c.7 0 1.3-.1 1.6-.2c0 0 .2 2.1.2 2.1c-.6.3-1.5.4-2.5.4c-1.3 0-2.4-.4-3.1-1.2c-.8-.8-1.1-2.2-1.1-4c.03 0 0-8.4 0-8.4l-2.4 0l0-2.2l2.4 0l0-3.7l2.8-.7zm7.2-2.8l2.8 0l0 9.6c0 0 .07.04.1 0c.4-.8 1.1-1.5 2-1.9c.8-.5 1.8-.8 2.9-.8c2 0 5.4 1.2 5.4 6.6c-.03-.02 0 9.2 0 9.2l-2.8 0c0 0-.05-8.9 0-8.9c0-2.5-1-4.6-3.6-4.6c-1.9 0-3.3 1.3-3.8 2.8c-.2.4-.2.8-.2 1.4c0-.04 0 9.3 0 9.3l-2.8 0l0-22.7zm19.3 15.5c.1 3.8 2.5 5.3 5.3 5.3c2 0 3.3-.3 4.3-.8c0 0 .5 2.1.5 2.1c-1 .4-2.7.9-5.2.9c-4.7 0-7.6-3.1-7.6-7.8c0-4.7 2.8-8.3 7.3-8.3c5 0 6.4 4.4 6.4 7.3c0 .5-.1 1-.1 1.3c0 0-10.9 0-10.9 0zm8.3-2c0-1.8-.8-4.6-3.9-4.6c-2.9 0-4.1 2.6-4.4 4.6c0 0 8.3 0 8.3 0zm12.6 6.3c.8.6 2.3 1.1 3.7 1.1c2 0 3-1 3-2.3c0-1.3-.8-2-2.9-2.8c-2.8-1-4.1-2.5-4.1-4.4c0-2.5 2-4.5 5.4-4.5c1.5 0 2.9.4 3.8.9c0 0-.7 2.1-.7 2.1c-.6-.4-1.8-.9-3.2-.9c-1.7 0-2.6.9-2.6 2.1c0 1.3.9 1.8 3 2.6c2.6 1 4 2.4 4 4.7c0 2.7-2.1 4.6-5.8 4.6c-1.7 0-3.2-.4-4.3-1c0 0 .7-2.2.7-2.2zm26-1.3c0 1.6 0 3 .1 4.2c.02 0-2.5 0-2.5 0l-.1-2.5c0 0-.1-.03-.1 0c-.7 1.2-2.4 2.9-5.1 2.9c-2.5 0-5.4-1.4-5.4-6.8c.04-.03 0-9.1 0-9.1l2.9 0c0 0-.05 8.59 0 8.6c0 2.9.8 4.9 3.4 4.9c1.9 0 3.2-1.3 3.7-2.5c.2-.5.3-1 .3-1.5c-.02.02 0-9.5 0-9.5l2.8 0c0 0-.01 11.28 0 11.3zm4.7-6.2c0-2-.1-3.6-.2-5.1c.04.01 2.6 0 2.6 0l.1 2.7c0 0 .06-.03.1 0c1.1-1.9 2.9-3 5.5-3c3.7 0 6.5 3.1 6.5 7.8c0 5.6-3.4 8.4-7 8.4c-2.1 0-3.9-.9-4.8-2.5c.01.02-.1 0-.1 0l0 8.4l-2.7 0c0 0-.04-16.73 0-16.7zm2.7 4.1c0 .4.1.8.2 1.1c.5 2 2.2 3.3 4.2 3.3c3 0 4.7-2.4 4.7-5.9c0-3.1-1.6-5.8-4.6-5.8c-1.9 0-3.7 1.4-4.3 3.5c-.1.3-.2.8-.2 1.1c0 0 0 2.7 0 2.7zm15.5-4.1c0-2-.1-3.6-.2-5.1c.04.01 2.6 0 2.6 0l.1 2.7c0 0 .06-.03.1 0c1.1-1.9 2.9-3 5.5-3c3.7 0 6.5 3.1 6.5 7.8c0 5.6-3.4 8.4-7 8.4c-2.1 0-3.9-.9-4.8-2.5c.02.02 0 0 0 0l0 8.4l-2.8 0c0 0-.03-16.73 0-16.7zm2.8 4.1c0 .4 0 .8.1 1.1c.5 2 2.2 3.3 4.2 3.3c3 0 4.7-2.4 4.7-5.9c0-3.1-1.6-5.8-4.6-5.8c-1.9 0-3.7 1.4-4.3 3.5c0 .3-.1.8-.1 1.1c0 0 0 2.7 0 2.7zm15.4-16.4l2.8 0l0 22.7l-2.8 0l0-22.7zm7.5 22.7l0-15.5l2.8 0l0 15.5l-2.8 0zm3.2-19.8c0 .9-.7 1.7-1.8 1.7c-1 0-1.7-.8-1.7-1.7c0-1 .7-1.8 1.7-1.8c1.1 0 1.8.8 1.8 1.8zm5.9 12.6c.1 3.8 2.5 5.3 5.3 5.3c2 0 3.2-.3 4.3-.8c0 0 .5 2.1.5 2.1c-1 .4-2.7.9-5.2.9c-4.8 0-7.6-3.1-7.6-7.8c0-4.7 2.8-8.3 7.3-8.3c5 0 6.4 4.4 6.4 7.3c0 .5-.1 1-.1 1.3c0 0-10.9 0-10.9 0zm8.2-2c.1-1.8-.7-4.6-3.9-4.6c-2.8 0-4.1 2.6-4.3 4.6c0 0 8.2 0 8.2 0zm6.3-1.5c0-1.8-.1-3.3-.2-4.8c.02.01 2.5 0 2.5 0l.1 3.1c0 0 .11-.05.1 0c.7-2.1 2.4-3.4 4.3-3.4c.3 0 .5 0 .8.1c0 0 0 2.6 0 2.6c-.3-.1-.6-.1-1-.1c-1.9 0-3.4 1.5-3.7 3.6c-.1.4-.2.9-.2 1.3c.04.04 0 8.3 0 8.3l-2.7 0c0 0-.05-10.66 0-10.7zm6.9 14.6c.7-1.9 1.6-5.3 1.9-7.6c0 0 3.2-.3 3.2-.3c-.8 2.7-2.2 6.2-3.1 7.7c0 0-2 .2-2 .2zm23.8-3.9l-.2-2c0 0-.12.05-.1 0c-.9 1.3-2.5 2.4-4.8 2.4c-3.1 0-4.7-2.3-4.7-4.5c0-3.7 3.3-5.8 9.3-5.8c0 0 0-.3 0-.3c0-1.3-.3-3.6-3.5-3.6c-1.4 0-2.9.5-4 1.2c0 0-.7-1.9-.7-1.9c1.3-.8 3.2-1.3 5.1-1.3c4.8 0 5.9 3.2 5.9 6.3c0 0 0 5.8 0 5.8c0 1.3.1 2.6.3 3.7c-.04 0-2.6 0-2.6 0zm-.4-7.9c-3.1-.1-6.6.5-6.6 3.5c0 1.8 1.2 2.7 2.7 2.7c2 0 3.3-1.3 3.7-2.6c.1-.3.2-.6.2-.9c0 0 0-2.7 0-2.7zm7.3-3.4c0-1.6-.1-2.9-.2-4.2c.02.01 2.5 0 2.5 0l.2 2.6c0 0 .04-.03 0 0c.8-1.5 2.6-2.9 5.2-2.9c2.1 0 5.4 1.2 5.4 6.6c.03-.05 0 9.2 0 9.2l-2.8 0c0 0 .02-8.93 0-8.9c0-2.5-.9-4.6-3.6-4.6c-1.8 0-3.3 1.3-3.7 2.9c-.2.3-.2.8-.2 1.3c-.03-.01 0 9.3 0 9.3l-2.8 0c0 0-.05-11.3 0-11.3zm31.1-11.4c0 0-.01 18.7 0 18.7c0 1.4 0 2.9.1 4c.01 0-2.5 0-2.5 0l-.1-2.7c0 0-.11.01-.1 0c-.9 1.7-2.8 3.1-5.3 3.1c-3.7 0-6.6-3.2-6.6-7.9c0-5.2 3.2-8.3 6.9-8.3c2.4 0 4 1.1 4.7 2.3c.01.03.1 0 .1 0l0-9.2l2.8 0zm-2.8 13.5c0-.3-.1-.8-.2-1.2c-.4-1.8-1.9-3.2-4-3.2c-2.9 0-4.7 2.5-4.7 6c0 3.1 1.6 5.7 4.6 5.7c1.9 0 3.6-1.3 4.1-3.4c.1-.4.2-.7.2-1.2c0 0 0-2.7 0-2.7z" stroke="none" fill="#3c3c3b"/></g><g id="Polygon5811"><path d="m5.7 130.1l0 4.4l4.1 0l0 2.2l-4.1 0c0 0 .03 8.31 0 8.3c0 1.9.6 3 2.1 3c.8 0 1.3-.1 1.7-.2c0 0 .1 2.1.1 2.1c-.5.3-1.4.4-2.5.4c-1.3 0-2.4-.4-3-1.2c-.8-.8-1.1-2.2-1.1-4c-.02 0 0-8.4 0-8.4l-2.4 0l0-2.2l2.4 0l0-3.7l2.7-.7zm21.1 12c0 5.8-4 8.3-7.8 8.3c-4.2 0-7.4-3.1-7.4-8c0-5.2 3.4-8.2 7.7-8.2c4.4 0 7.5 3.2 7.5 7.9zm-12.3.2c0 3.4 1.9 5.9 4.7 5.9c2.7 0 4.7-2.5 4.7-6c0-2.6-1.3-5.9-4.7-5.9c-3.3 0-4.7 3-4.7 6zm22.5 7.7c0-1.1.1-2.6.1-4c-.01 0 0-18.7 0-18.7l2.8 0l0 9.7c0 0 .04.01 0 0c1-1.7 2.8-2.8 5.3-2.8c3.9 0 6.6 3.2 6.5 7.9c0 5.5-3.4 8.3-6.9 8.3c-2.2 0-4-.9-5.2-3c.02.04-.1 0-.1 0l-.1 2.6c0 0-2.44 0-2.4 0zm2.9-6.2c0 .3 0 .7.1 1c.5 2 2.2 3.3 4.2 3.3c3 0 4.7-2.4 4.7-5.9c0-3.1-1.6-5.8-4.6-5.8c-1.9 0-3.7 1.3-4.3 3.5c0 .3-.1.7-.1 1.1c0 0 0 2.8 0 2.8zm17-1c0 3.8 2.5 5.3 5.3 5.3c2 0 3.2-.3 4.3-.8c0 0 .4 2.1.4 2.1c-.9.4-2.6.9-5.1.9c-4.8 0-7.6-3.1-7.6-7.8c0-4.7 2.7-8.3 7.2-8.3c5.1 0 6.4 4.4 6.4 7.3c0 .5 0 1-.1 1.3c0 0-10.8 0-10.8 0zm8.2-2c.1-1.8-.7-4.6-3.9-4.6c-2.8 0-4.1 2.6-4.3 4.6c0 0 8.2 0 8.2 0zm24.1 8.6c-.8.4-2.4.9-4.5.9c-4.7 0-7.7-3.1-7.7-7.9c0-4.8 3.3-8.2 8.3-8.2c1.7 0 3.1.4 3.9.8c0 0-.6 2.2-.6 2.2c-.7-.4-1.8-.8-3.3-.8c-3.5 0-5.5 2.7-5.5 5.9c0 3.6 2.3 5.8 5.4 5.8c1.6 0 2.7-.4 3.5-.8c0 0 .5 2.1.5 2.1zm17.1-7.3c0 5.8-4 8.3-7.7 8.3c-4.2 0-7.5-3.1-7.5-8c0-5.2 3.4-8.2 7.7-8.2c4.5 0 7.5 3.2 7.5 7.9zm-12.3.2c0 3.4 1.9 5.9 4.7 5.9c2.7 0 4.7-2.5 4.7-6c0-2.6-1.3-5.9-4.6-5.9c-3.4 0-4.8 3-4.8 6zm15.8-3.6c0-1.6 0-2.9-.1-4.2c-.01.01 2.5 0 2.5 0l.1 2.5c0 0 .08.01.1 0c.8-1.5 2.3-2.8 4.8-2.8c2.2 0 3.8 1.2 4.4 3.1c0 0 .1 0 .1 0c.5-.9 1.1-1.6 1.7-2.1c1-.7 2-1 3.4-1c2.1 0 5.1 1.3 5.1 6.7c.03-.02 0 9.1 0 9.1l-2.7 0c0 0-.02-8.77 0-8.8c0-2.9-1.1-4.7-3.4-4.7c-1.6 0-2.8 1.1-3.3 2.5c-.1.4-.2.9-.2 1.4c-.03.03 0 9.6 0 9.6l-2.8 0c0 0 .02-9.28 0-9.3c0-2.4-1.1-4.2-3.2-4.2c-1.8 0-3.1 1.4-3.5 2.8c-.2.4-.2.9-.2 1.4c-.03-.04 0 9.3 0 9.3l-2.8 0c0 0 .02-11.3 0-11.3zm26.7 0c0-1.6 0-2.9-.1-4.2c-.02.01 2.4 0 2.4 0l.2 2.5c0 0 .07.01.1 0c.8-1.5 2.3-2.8 4.8-2.8c2.1 0 3.7 1.2 4.4 3.1c0 0 .1 0 .1 0c.5-.9 1.1-1.6 1.7-2.1c.9-.7 2-1 3.4-1c2.1 0 5.1 1.3 5.1 6.7c.02-.02 0 9.1 0 9.1l-2.7 0c0 0-.03-8.77 0-8.8c0-2.9-1.1-4.7-3.4-4.7c-1.6 0-2.8 1.1-3.3 2.5c-.1.4-.2.9-.2 1.4c-.04.03 0 9.6 0 9.6l-2.8 0c0 0 .01-9.28 0-9.3c0-2.4-1.1-4.2-3.2-4.2c-1.8 0-3.1 1.4-3.5 2.8c-.2.4-.2.9-.2 1.4c-.04-.04 0 9.3 0 9.3l-2.8 0c0 0 .01-11.3 0-11.3zm39.7 7.1c0 1.6 0 3 .1 4.2c-.01 0-2.5 0-2.5 0l-.2-2.5c0 0-.03-.03 0 0c-.8 1.2-2.4 2.9-5.2 2.9c-2.4 0-5.3-1.4-5.3-6.8c0-.03 0-9.1 0-9.1l2.8 0c0 0 .02 8.59 0 8.6c0 2.9.9 4.9 3.5 4.9c1.9 0 3.2-1.3 3.7-2.5c.1-.5.2-1 .2-1.5c.04.02 0-9.5 0-9.5l2.9 0c0 0-.04 11.28 0 11.3zm4.6-7.1c0-1.6 0-2.9-.1-4.2c0 .01 2.5 0 2.5 0l.2 2.6c0 0 .02-.03 0 0c.8-1.5 2.6-2.9 5.1-2.9c2.2 0 5.5 1.2 5.5 6.6c.01-.05 0 9.2 0 9.2l-2.8 0c0 0 0-8.93 0-8.9c0-2.5-.9-4.6-3.6-4.6c-1.8 0-3.3 1.3-3.8 2.9c-.1.3-.2.8-.2 1.3c.05-.01 0 9.3 0 9.3l-2.8 0c0 0 .03-11.3 0-11.3zm17.8 11.3l0-15.5l2.8 0l0 15.5l-2.8 0zm3.1-19.8c.1.9-.6 1.7-1.8 1.7c-1 0-1.7-.8-1.7-1.7c0-1 .8-1.8 1.8-1.8c1.1 0 1.7.8 1.7 1.8zm15.4 19.2c-.7.4-2.4.9-4.4.9c-4.7 0-7.7-3.1-7.7-7.9c0-4.8 3.2-8.2 8.3-8.2c1.6 0 3.1.4 3.9.8c0 0-.7 2.2-.7 2.2c-.6-.4-1.7-.8-3.2-.8c-3.6 0-5.5 2.7-5.5 5.9c0 3.6 2.3 5.8 5.4 5.8c1.6 0 2.6-.4 3.4-.8c0 0 .5 2.1.5 2.1zm11.9.6l-.2-2c0 0-.13.05-.1 0c-.9 1.3-2.6 2.4-4.8 2.4c-3.1 0-4.7-2.3-4.7-4.5c0-3.7 3.3-5.8 9.3-5.8c0 0 0-.3 0-.3c0-1.3-.3-3.6-3.5-3.6c-1.5 0-3 .5-4 1.2c0 0-.7-1.9-.7-1.9c1.3-.8 3.2-1.3 5.1-1.3c4.7 0 5.9 3.2 5.9 6.3c0 0 0 5.8 0 5.8c0 1.3.1 2.6.2 3.7c.05 0-2.5 0-2.5 0zm-.4-7.9c-3.1-.1-6.6.5-6.6 3.5c0 1.8 1.2 2.7 2.7 2.7c2 0 3.3-1.3 3.7-2.6c.1-.3.2-.6.2-.9c0 0 0-2.7 0-2.7zm10.5-12l0 4.4l4 0l0 2.2l-4 0c0 0 0 8.31 0 8.3c0 1.9.5 3 2.1 3c.7 0 1.3-.1 1.6-.2c0 0 .2 2.1.2 2.1c-.6.3-1.4.4-2.5.4c-1.3 0-2.4-.4-3.1-1.2c-.8-.8-1.1-2.2-1.1-4c.05 0 0-8.4 0-8.4l-2.4 0l0-2.2l2.4 0l0-3.7l2.8-.7zm8.6 12.7c0 3.8 2.5 5.3 5.3 5.3c2 0 3.2-.3 4.3-.8c0 0 .5 2.1.5 2.1c-1 .4-2.7.9-5.2.9c-4.8 0-7.6-3.1-7.6-7.8c0-4.7 2.7-8.3 7.3-8.3c5 0 6.4 4.4 6.4 7.3c0 .5-.1 1-.1 1.3c0 0-10.9 0-10.9 0zm8.2-2c.1-1.8-.7-4.6-3.9-4.6c-2.8 0-4.1 2.6-4.3 4.6c0 0 8.2 0 8.2 0zm19.6-13.5c0 0 .02 18.7 0 18.7c0 1.4 0 2.9.1 4c.05 0-2.5 0-2.5 0l-.1-2.7c0 0-.07.01-.1 0c-.8 1.7-2.7 3.1-5.3 3.1c-3.7 0-6.6-3.2-6.6-7.9c0-5.2 3.2-8.3 7-8.3c2.3 0 3.9 1.1 4.6 2.3c.04.03.1 0 .1 0l0-9.2l2.8 0zm-2.8 13.5c0-.3 0-.8-.1-1.2c-.4-1.8-2-3.2-4.1-3.2c-2.9 0-4.6 2.5-4.6 6c0 3.1 1.5 5.7 4.5 5.7c1.9 0 3.7-1.3 4.2-3.4c.1-.4.1-.7.1-1.2c0 0 0-2.7 0-2.7zm17.7-10.7l0 4.4l4 0l0 2.2l-4 0c0 0-.04 8.31 0 8.3c0 1.9.5 3 2.1 3c.7 0 1.3-.1 1.6-.2c0 0 .1 2.1.1 2.1c-.5.3-1.4.4-2.5.4c-1.3 0-2.3-.4-3-1.2c-.8-.8-1.1-2.2-1.1-4c.01 0 0-8.4 0-8.4l-2.4 0l0-2.2l2.4 0l0-3.7l2.8-.7zm21 12c0 5.8-4 8.3-7.7 8.3c-4.2 0-7.4-3.1-7.4-8c0-5.2 3.3-8.2 7.6-8.2c4.5 0 7.5 3.2 7.5 7.9zm-12.3.2c0 3.4 2 5.9 4.7 5.9c2.7 0 4.7-2.5 4.7-6c0-2.6-1.3-5.9-4.6-5.9c-3.4 0-4.8 3-4.8 6zm26-12.2l0 4.4l4 0l0 2.2l-4 0c0 0 .02 8.31 0 8.3c0 1.9.6 3 2.1 3c.8 0 1.3-.1 1.7-.2c0 0 .1 2.1.1 2.1c-.6.3-1.4.4-2.5.4c-1.3 0-2.4-.4-3-1.2c-.8-.8-1.1-2.2-1.1-4c-.04 0 0-8.4 0-8.4l-2.4 0l0-2.2l2.4 0l0-3.7l2.7-.7zm7.2-2.8l2.8 0l0 9.6c0 0 .1.04.1 0c.4-.8 1.1-1.5 2-1.9c.8-.5 1.8-.8 2.9-.8c2.1 0 5.4 1.2 5.4 6.6c0-.02 0 9.2 0 9.2l-2.8 0c0 0-.02-8.9 0-8.9c0-2.5-.9-4.6-3.6-4.6c-1.8 0-3.3 1.3-3.8 2.8c-.1.4-.2.8-.2 1.4c.03-.04 0 9.3 0 9.3l-2.8 0l0-22.7zm19.3 15.5c.1 3.8 2.5 5.3 5.4 5.3c2 0 3.2-.3 4.2-.8c0 0 .5 2.1.5 2.1c-1 .4-2.7.9-5.1.9c-4.8 0-7.6-3.1-7.6-7.8c0-4.7 2.7-8.3 7.2-8.3c5.1 0 6.4 4.4 6.4 7.3c0 .5 0 1-.1 1.3c0 0-10.9 0-10.9 0zm8.3-2c0-1.8-.7-4.6-3.9-4.6c-2.9 0-4.1 2.6-4.3 4.6c0 0 8.2 0 8.2 0zm13-1.5c0-1.8 0-3.3-.1-4.8c-.04.01 2.4 0 2.4 0l.1 3.1c0 0 .15-.05.2 0c.7-2.1 2.4-3.4 4.2-3.4c.4 0 .6 0 .8.1c0 0 0 2.6 0 2.6c-.2-.1-.5-.1-.9-.1c-2 0-3.4 1.5-3.8 3.6c-.1.4-.1.9-.1 1.3c-.02.04 0 8.3 0 8.3l-2.8 0c0 0-.01-10.66 0-10.7zm11.7 3.5c.1 3.8 2.5 5.3 5.3 5.3c2 0 3.2-.3 4.3-.8c0 0 .5 2.1.5 2.1c-1 .4-2.7.9-5.2.9c-4.7 0-7.6-3.1-7.6-7.8c0-4.7 2.8-8.3 7.3-8.3c5 0 6.4 4.4 6.4 7.3c0 .5-.1 1-.1 1.3c0 0-10.9 0-10.9 0zm8.3-2c0-1.8-.8-4.6-3.9-4.6c-2.9 0-4.1 2.6-4.4 4.6c0 0 8.3 0 8.3 0zm17.2 8.6c-.7.4-2.4.9-4.4.9c-4.7 0-7.8-3.1-7.8-7.9c0-4.8 3.3-8.2 8.4-8.2c1.6 0 3.1.4 3.9.8c0 0-.7 2.2-.7 2.2c-.6-.4-1.7-.8-3.2-.8c-3.6 0-5.5 2.7-5.5 5.9c0 3.6 2.3 5.8 5.4 5.8c1.6 0 2.6-.4 3.4-.8c0 0 .5 2.1.5 2.1zm3.3.6l0-15.5l2.8 0l0 15.5l-2.8 0zm3.1-19.8c.1.9-.6 1.7-1.8 1.7c-.9 0-1.6-.8-1.6-1.7c0-1 .7-1.8 1.7-1.8c1.1 0 1.7.8 1.7 1.8zm4.4 9.4c0-2-.1-3.6-.1-5.1c-.04.01 2.5 0 2.5 0l.1 2.7c0 0 .08-.03.1 0c1.1-1.9 3-3 5.5-3c3.7 0 6.5 3.1 6.5 7.8c0 5.6-3.3 8.4-7 8.4c-2 0-3.8-.9-4.8-2.5c.04.02 0 0 0 0l0 8.4l-2.8 0c0 0-.01-16.73 0-16.7zm2.8 4.1c0 .4 0 .8.1 1.1c.5 2 2.2 3.3 4.2 3.3c3 0 4.7-2.4 4.7-5.9c0-3.1-1.6-5.8-4.6-5.8c-1.9 0-3.7 1.4-4.2 3.5c-.1.3-.2.8-.2 1.1c0 0 0 2.7 0 2.7zm15.4 6.3l0-15.5l2.8 0l0 15.5l-2.8 0zm3.1-19.8c.1.9-.6 1.7-1.8 1.7c-.9 0-1.7-.8-1.7-1.7c0-1 .8-1.8 1.8-1.8c1.1 0 1.7.8 1.7 1.8zm6 12.6c0 3.8 2.4 5.3 5.3 5.3c2 0 3.2-.3 4.3-.8c0 0 .4 2.1.4 2.1c-1 .4-2.7.9-5.1.9c-4.8 0-7.6-3.1-7.6-7.8c0-4.7 2.7-8.3 7.2-8.3c5.1 0 6.4 4.4 6.4 7.3c0 .5 0 1-.1 1.3c0 0-10.8 0-10.8 0zm8.2-2c0-1.8-.7-4.6-3.9-4.6c-2.8 0-4.1 2.6-4.3 4.6c0 0 8.2 0 8.2 0zm6.2-2.1c0-1.6 0-2.9-.1-4.2c-.01.01 2.5 0 2.5 0l.1 2.6c0 0 .11-.03.1 0c.8-1.5 2.6-2.9 5.1-2.9c2.2 0 5.5 1.2 5.5 6.6c0-.05 0 9.2 0 9.2l-2.8 0c0 0-.01-8.93 0-8.9c0-2.5-.9-4.6-3.6-4.6c-1.9 0-3.3 1.3-3.8 2.9c-.1.3-.2.8-.2 1.3c.03-.01 0 9.3 0 9.3l-2.8 0c0 0 .02-11.3 0-11.3zm21-8.6l0 4.4l4.1 0l0 2.2l-4.1 0c0 0 .04 8.31 0 8.3c0 1.9.6 3 2.2 3c.7 0 1.2-.1 1.6-.2c0 0 .1 2.1.1 2.1c-.5.3-1.4.4-2.5.4c-1.3 0-2.4-.4-3-1.2c-.8-.8-1.1-2.2-1.1-4c-.01 0 0-8.4 0-8.4l-2.4 0l0-2.2l2.4 0l0-3.7l2.7-.7zm5.3 23.8c.7-1.9 1.6-5.3 1.9-7.6c0 0 3.2-.3 3.2-.3c-.8 2.7-2.2 6.2-3.1 7.7c0 0-2 .2-2 .2zm18.6-23.8l0 4.4l4.1 0l0 2.2l-4.1 0c0 0 .04 8.31 0 8.3c0 1.9.6 3 2.2 3c.7 0 1.2-.1 1.6-.2c0 0 .1 2.1.1 2.1c-.5.3-1.4.4-2.5.4c-1.3 0-2.3-.4-3-1.2c-.8-.8-1.1-2.2-1.1-4c-.01 0 0-8.4 0-8.4l-2.4 0l0-2.2l2.4 0l0-3.7l2.7-.7zm7.2-2.8l2.9 0l0 9.6c0 0 .02.04 0 0c.5-.8 1.2-1.5 2-1.9c.9-.5 1.9-.8 2.9-.8c2.1 0 5.4 1.2 5.4 6.6c.03-.02 0 9.2 0 9.2l-2.8 0c0 0 .01-8.9 0-8.9c0-2.5-.9-4.6-3.6-4.6c-1.8 0-3.2 1.3-3.7 2.8c-.2.4-.2.8-.2 1.4c-.04-.04 0 9.3 0 9.3l-2.9 0l0-22.7zm19.4 15.5c0 3.8 2.5 5.3 5.3 5.3c2 0 3.2-.3 4.3-.8c0 0 .5 2.1.5 2.1c-1 .4-2.7.9-5.2.9c-4.8 0-7.6-3.1-7.6-7.8c0-4.7 2.7-8.3 7.2-8.3c5.1 0 6.4 4.4 6.4 7.3c0 .5 0 1 0 1.3c0 0-10.9 0-10.9 0zm8.2-2c.1-1.8-.7-4.6-3.9-4.6c-2.8 0-4.1 2.6-4.3 4.6c0 0 8.2 0 8.2 0z" stroke="none" fill="#3c3c3b"/></g><g id="Polygon5810"><path d="m2.3 97.3c0-1.8 0-3.3-.1-4.8c.01.01 2.5 0 2.5 0l.1 3.1c0 0 .1-.05.1 0c.7-2.1 2.4-3.4 4.3-3.4c.3 0 .5 0 .8.1c0 0 0 2.6 0 2.6c-.3-.1-.6-.1-1-.1c-2 0-3.4 1.5-3.8 3.6c0 .4-.1.9-.1 1.3c.02.04 0 8.3 0 8.3l-2.8 0c0 0 .04-10.66 0-10.7zm11.7 3.5c.1 3.8 2.5 5.3 5.4 5.3c2 0 3.2-.3 4.2-.8c0 0 .5 2.1.5 2.1c-1 .4-2.7.9-5.1.9c-4.8 0-7.6-3.1-7.6-7.8c0-4.7 2.7-8.3 7.2-8.3c5.1 0 6.4 4.4 6.4 7.3c0 .5 0 1-.1 1.3c0 0-10.9 0-10.9 0zm8.3-2c0-1.8-.7-4.6-3.9-4.6c-2.8 0-4.1 2.6-4.3 4.6c0 0 8.2 0 8.2 0zm16.8 6.8c0 0-.09 0-.1 0c-.8 1.5-2.6 2.8-5 2.8c-3.7 0-6.6-3.2-6.6-7.9c0-5.8 3.7-8.3 7-8.3c2.4 0 4 1.1 4.8 2.6c-.03.05 0 0 0 0l.1-2.3c0 0 2.68.01 2.7 0c-.1 1.3-.1 2.7-.1 4.3c-.01-.03 0 17.5 0 17.5l-2.8 0l0-8.7zm0-6.8c0-.4-.1-.8-.2-1.2c-.4-1.7-1.9-3.2-4-3.2c-2.9 0-4.7 2.5-4.7 6c0 3 1.5 5.7 4.6 5.7c1.8 0 3.4-1.1 4-3.1c.2-.3.3-.9.3-1.3c0 0 0-2.9 0-2.9zm20.4 5c0 1.6 0 3 .1 4.2c.02 0-2.5 0-2.5 0l-.1-2.5c0 0-.1-.03-.1 0c-.7 1.2-2.4 2.9-5.1 2.9c-2.5 0-5.4-1.4-5.4-6.8c.03-.03 0-9.1 0-9.1l2.8 0c0 0 .05 8.59 0 8.6c0 2.9.9 4.9 3.5 4.9c1.9 0 3.2-1.3 3.7-2.5c.2-.5.3-1 .3-1.5c-.03.02 0-9.5 0-9.5l2.8 0c0 0-.01 11.28 0 11.3zm4.7 4.2l0-15.5l2.8 0l0 15.5l-2.8 0zm3.1-19.8c0 .9-.7 1.7-1.8 1.7c-1 0-1.7-.8-1.7-1.7c0-1 .7-1.8 1.8-1.8c1 0 1.7.8 1.7 1.8zm4.3 9.1c0-1.8 0-3.3-.1-4.8c.02.01 2.5 0 2.5 0l.1 3.1c0 0 .11-.05.1 0c.7-2.1 2.4-3.4 4.3-3.4c.3 0 .5 0 .8.1c0 0 0 2.6 0 2.6c-.3-.1-.6-.1-1-.1c-1.9 0-3.4 1.5-3.7 3.6c-.1.4-.2.9-.2 1.3c.03.04 0 8.3 0 8.3l-2.8 0c0 0 .05-10.66 0-10.7zm11.8 3.5c0 3.8 2.5 5.3 5.3 5.3c2 0 3.2-.3 4.3-.8c0 0 .4 2.1.4 2.1c-1 .4-2.6.9-5.1.9c-4.8 0-7.6-3.1-7.6-7.8c0-4.7 2.7-8.3 7.2-8.3c5.1 0 6.4 4.4 6.4 7.3c0 .5 0 1-.1 1.3c0 0-10.8 0-10.8 0zm8.2-2c0-1.8-.7-4.6-3.9-4.6c-2.8 0-4.1 2.6-4.3 4.6c0 0 8.2 0 8.2 0zm16.4-10.7l0 4.4l4 0l0 2.2l-4 0c0 0 0 8.31 0 8.3c0 1.9.5 3 2.1 3c.7 0 1.3-.1 1.6-.2c0 0 .2 2.1.2 2.1c-.6.3-1.4.4-2.5.4c-1.3 0-2.4-.4-3.1-1.2c-.8-.8-1.1-2.2-1.1-4c.05 0 0-8.4 0-8.4l-2.4 0l0-2.2l2.4 0l0-3.7l2.8-.7zm7.2-2.8l2.8 0l0 9.6c0 0 .08.04.1 0c.4-.8 1.1-1.5 2-1.9c.8-.5 1.8-.8 2.9-.8c2.1 0 5.4 1.2 5.4 6.6c-.02-.02 0 9.2 0 9.2l-2.8 0c0 0-.03-8.9 0-8.9c0-2.5-1-4.6-3.6-4.6c-1.8 0-3.3 1.3-3.8 2.8c-.2.4-.2.8-.2 1.4c.01-.04 0 9.3 0 9.3l-2.8 0l0-22.7zm19.3 15.5c.1 3.8 2.5 5.3 5.3 5.3c2.1 0 3.3-.3 4.3-.8c0 0 .5 2.1.5 2.1c-1 .4-2.7.9-5.1.9c-4.8 0-7.7-3.1-7.7-7.8c0-4.7 2.8-8.3 7.3-8.3c5.1 0 6.4 4.4 6.4 7.3c0 .5-.1 1-.1 1.3c0 0-10.9 0-10.9 0zm8.3-2c0-1.8-.8-4.6-3.9-4.6c-2.9 0-4.1 2.6-4.3 4.6c0 0 8.2 0 8.2 0zm26.3-13.5c0 0 .05 18.7 0 18.7c0 1.4.1 2.9.2 4c-.02 0-2.6 0-2.6 0l-.1-2.7c0 0-.04.01 0 0c-.9 1.7-2.8 3.1-5.3 3.1c-3.8 0-6.6-3.2-6.6-7.9c-.1-5.2 3.1-8.3 6.9-8.3c2.4 0 4 1.1 4.7 2.3c-.03.03 0 0 0 0l0-9.2l2.8 0zm-2.8 13.5c0-.3 0-.8-.1-1.2c-.4-1.8-1.9-3.2-4.1-3.2c-2.9 0-4.6 2.5-4.6 6c0 3.1 1.5 5.7 4.6 5.7c1.9 0 3.6-1.3 4.1-3.4c.1-.4.1-.7.1-1.2c0 0 0-2.7 0-2.7zm9.1 2c.1 3.8 2.5 5.3 5.3 5.3c2 0 3.2-.3 4.3-.8c0 0 .5 2.1.5 2.1c-1 .4-2.7.9-5.2.9c-4.8 0-7.6-3.1-7.6-7.8c0-4.7 2.8-8.3 7.3-8.3c5 0 6.4 4.4 6.4 7.3c0 .5-.1 1-.1 1.3c0 0-10.9 0-10.9 0zm8.2-2c.1-1.8-.7-4.6-3.9-4.6c-2.8 0-4.1 2.6-4.3 4.6c0 0 8.2 0 8.2 0zm9.6-10.7l0 4.4l4.1 0l0 2.2l-4.1 0c0 0 .05 8.31 0 8.3c0 1.9.6 3 2.2 3c.7 0 1.2-.1 1.6-.2c0 0 .1 2.1.1 2.1c-.5.3-1.4.4-2.5.4c-1.3 0-2.3-.4-3-1.2c-.8-.8-1.1-2.2-1.1-4c-.01 0 0-8.4 0-8.4l-2.4 0l0-2.2l2.4 0l0-3.7l2.7-.7zm15.8 19.9l-.2-2c0 0-.1.05-.1 0c-.9 1.3-2.5 2.4-4.7 2.4c-3.2 0-4.8-2.3-4.8-4.5c0-3.7 3.4-5.8 9.3-5.8c0 0 0-.3 0-.3c0-1.3-.3-3.6-3.5-3.6c-1.4 0-2.9.5-4 1.2c0 0-.7-1.9-.7-1.9c1.3-.8 3.2-1.3 5.1-1.3c4.8 0 5.9 3.2 5.9 6.3c0 0 0 5.8 0 5.8c0 1.3.1 2.6.3 3.7c-.02 0-2.6 0-2.6 0zm-.4-7.9c-3.1-.1-6.6.5-6.6 3.5c0 1.8 1.3 2.7 2.7 2.7c2 0 3.3-1.3 3.7-2.6c.1-.3.2-.6.2-.9c0 0 0-2.7 0-2.7zm7.3 7.9l0-15.5l2.8 0l0 15.5l-2.8 0zm3.1-19.8c0 .9-.7 1.7-1.8 1.7c-1 0-1.7-.8-1.7-1.7c0-1 .8-1.8 1.8-1.8c1 0 1.7.8 1.7 1.8zm4.4-2.9l2.8 0l0 22.7l-2.8 0l0-22.7zm7.1 19.8c.9.6 2.3 1.1 3.7 1.1c2.1 0 3-1 3-2.3c0-1.3-.8-2-2.8-2.8c-2.8-1-4.1-2.5-4.1-4.4c0-2.5 2-4.5 5.3-4.5c1.6 0 3 .4 3.8.9c0 0-.7 2.1-.7 2.1c-.6-.4-1.7-.9-3.2-.9c-1.6 0-2.5.9-2.5 2.1c0 1.3.9 1.8 2.9 2.6c2.7 1 4.1 2.4 4.1 4.7c0 2.7-2.1 4.6-5.8 4.6c-1.7 0-3.3-.4-4.4-1c0 0 .7-2.2.7-2.2zm33.9-5c0 5.8-4 8.3-7.7 8.3c-4.2 0-7.5-3.1-7.5-8c0-5.2 3.4-8.2 7.7-8.2c4.5 0 7.5 3.2 7.5 7.9zm-12.3.2c0 3.4 1.9 5.9 4.7 5.9c2.7 0 4.7-2.5 4.7-6c0-2.6-1.3-5.9-4.6-5.9c-3.4 0-4.8 3-4.8 6zm16.1 7.7l0-13.3l-2.2 0l0-2.2l2.2 0c0 0 .02-.72 0-.7c0-2.2.5-4.2 1.8-5.4c1.1-1.1 2.5-1.5 3.8-1.5c1 0 1.8.3 2.4.5c0 0-.4 2.2-.4 2.2c-.4-.2-1-.4-1.8-.4c-2.4 0-3 2.1-3 4.5c0-.02 0 .8 0 .8l3.7 0l0 2.2l-3.7 0l0 13.3l-2.8 0zm19.3-19.9l0 4.4l4 0l0 2.2l-4 0c0 0-.05 8.31 0 8.3c0 1.9.5 3 2.1 3c.7 0 1.2-.1 1.6-.2c0 0 .1 2.1.1 2.1c-.5.3-1.4.4-2.5.4c-1.3 0-2.3-.4-3-1.2c-.8-.8-1.1-2.2-1.1-4c0 0 0-8.4 0-8.4l-2.4 0l0-2.2l2.4 0l0-3.7l2.8-.7zm7.2-2.8l2.8 0l0 9.6c0 0 .03.04 0 0c.5-.8 1.2-1.5 2-1.9c.9-.5 1.9-.8 2.9-.8c2.1 0 5.4 1.2 5.4 6.6c.03-.02 0 9.2 0 9.2l-2.8 0c0 0 .02-8.9 0-8.9c0-2.5-.9-4.6-3.6-4.6c-1.8 0-3.2 1.3-3.7 2.8c-.2.4-.2.8-.2 1.4c-.03-.04 0 9.3 0 9.3l-2.8 0l0-22.7zm19.3 15.5c0 3.8 2.5 5.3 5.3 5.3c2 0 3.2-.3 4.3-.8c0 0 .5 2.1.5 2.1c-1 .4-2.7.9-5.2.9c-4.8 0-7.6-3.1-7.6-7.8c0-4.7 2.7-8.3 7.3-8.3c5 0 6.4 4.4 6.4 7.3c0 .5-.1 1-.1 1.3c0 0-10.9 0-10.9 0zm8.2-2c.1-1.8-.7-4.6-3.9-4.6c-2.8 0-4.1 2.6-4.3 4.6c0 0 8.2 0 8.2 0zm13 9.2l0-15.5l2.8 0l0 15.5l-2.8 0zm3.2-19.8c0 .9-.7 1.7-1.8 1.7c-1 0-1.7-.8-1.7-1.7c0-1 .7-1.8 1.7-1.8c1.1 0 1.8.8 1.8 1.8zm4.3 8.5c0-1.6 0-2.9-.1-4.2c-.01.01 2.5 0 2.5 0l.1 2.6c0 0 .11-.03.1 0c.8-1.5 2.6-2.9 5.1-2.9c2.2 0 5.5 1.2 5.5 6.6c0-.05 0 9.2 0 9.2l-2.8 0c0 0-.02-8.93 0-8.9c0-2.5-.9-4.6-3.6-4.6c-1.9 0-3.3 1.3-3.8 2.9c-.1.3-.2.8-.2 1.3c.03-.01 0 9.3 0 9.3l-2.8 0c0 0 .01-11.3 0-11.3zm18.4-4.2c0 0 3.09 8.72 3.1 8.7c.5 1.4.9 2.7 1.2 4c0 0 .1 0 .1 0c.4-1.3.8-2.6 1.3-4c.04.02 3.1-8.7 3.1-8.7l2.9 0l-6.1 15.5l-2.7 0l-5.9-15.5l3 0zm28 7.6c0 5.8-3.9 8.3-7.7 8.3c-4.2 0-7.4-3.1-7.4-8c0-5.2 3.4-8.2 7.7-8.2c4.4 0 7.4 3.2 7.4 7.9zm-12.2.2c0 3.4 1.9 5.9 4.7 5.9c2.6 0 4.7-2.5 4.7-6c0-2.6-1.3-5.9-4.7-5.9c-3.3 0-4.7 3-4.7 6zm15.8 7.7l0-15.5l2.8 0l0 15.5l-2.8 0zm3.1-19.8c.1.9-.6 1.7-1.8 1.7c-1 0-1.7-.8-1.7-1.7c0-1 .8-1.8 1.8-1.8c1.1 0 1.7.8 1.7 1.8zm15.4 19.2c-.7.4-2.3.9-4.4.9c-4.7 0-7.7-3.1-7.7-7.9c0-4.8 3.2-8.2 8.3-8.2c1.6 0 3.1.4 3.9.8c0 0-.7 2.2-.7 2.2c-.6-.4-1.7-.8-3.2-.8c-3.6 0-5.5 2.7-5.5 5.9c0 3.6 2.3 5.8 5.4 5.8c1.6 0 2.6-.4 3.4-.8c0 0 .5 2.1.5 2.1zm4.7-6.6c.1 3.8 2.5 5.3 5.3 5.3c2 0 3.2-.3 4.3-.8c0 0 .5 2.1.5 2.1c-1 .4-2.7.9-5.2.9c-4.7 0-7.6-3.1-7.6-7.8c0-4.7 2.8-8.3 7.3-8.3c5 0 6.4 4.4 6.4 7.3c0 .5-.1 1-.1 1.3c0 0-10.9 0-10.9 0zm8.3-2c0-1.8-.8-4.6-4-4.6c-2.8 0-4 2.6-4.3 4.6c0 0 8.3 0 8.3 0zm3.8 10.5l8.9-23.2l2.2 0l-9 23.2l-2.1 0zm26.7-24c0 0 .01 18.7 0 18.7c0 1.4 0 2.9.1 4c.04 0-2.5 0-2.5 0l-.1-2.7c0 0-.08.01-.1 0c-.8 1.7-2.7 3.1-5.3 3.1c-3.7 0-6.6-3.2-6.6-7.9c0-5.2 3.2-8.3 7-8.3c2.3 0 3.9 1.1 4.6 2.3c.03.03.1 0 .1 0l0-9.2l2.8 0zm-2.8 13.5c0-.3 0-.8-.1-1.2c-.4-1.8-2-3.2-4.1-3.2c-2.9 0-4.6 2.5-4.6 6c0 3.1 1.5 5.7 4.5 5.7c1.9 0 3.7-1.3 4.2-3.4c.1-.4.1-.7.1-1.2c0 0 0-2.7 0-2.7zm9.1 2c0 3.8 2.4 5.3 5.3 5.3c2 0 3.2-.3 4.3-.8c0 0 .4 2.1.4 2.1c-1 .4-2.7.9-5.1.9c-4.8 0-7.6-3.1-7.6-7.8c0-4.7 2.7-8.3 7.2-8.3c5.1 0 6.4 4.4 6.4 7.3c0 .5 0 1-.1 1.3c0 0-10.8 0-10.8 0zm8.2-2c0-1.8-.7-4.6-3.9-4.6c-2.8 0-4.1 2.6-4.3 4.6c0 0 8.2 0 8.2 0zm6.1 9.2c.1-1.1.1-2.6.1-4c.02 0 0-18.7 0-18.7l2.8 0l0 9.7c0 0 .06.01.1 0c1-1.7 2.7-2.8 5.2-2.8c3.9 0 6.6 3.2 6.6 7.9c0 5.5-3.5 8.3-7 8.3c-2.2 0-4-.9-5.2-3c.04.04-.1 0-.1 0l-.1 2.6c0 0-2.41 0-2.4 0zm2.9-6.2c0 .3.1.7.1 1c.6 2 2.2 3.3 4.3 3.3c2.9 0 4.7-2.4 4.7-5.9c0-3.1-1.6-5.8-4.7-5.8c-1.9 0-3.7 1.3-4.2 3.5c-.1.3-.2.7-.2 1.1c0 0 0 2.8 0 2.8zm15.4 6.2l0-15.5l2.8 0l0 15.5l-2.8 0zm3.2-19.8c0 .9-.7 1.7-1.8 1.7c-1 0-1.7-.8-1.7-1.7c0-1 .7-1.8 1.7-1.8c1.1 0 1.8.8 1.8 1.8zm7.7-.1l0 4.4l4 0l0 2.2l-4 0c0 0 0 8.31 0 8.3c0 1.9.5 3 2.1 3c.8 0 1.3-.1 1.6-.2c0 0 .2 2.1.2 2.1c-.6.3-1.4.4-2.5.4c-1.3 0-2.4-.4-3.1-1.2c-.8-.8-1-2.2-1-4c-.05 0 0-8.4 0-8.4l-2.4 0l0-2.2l2.4 0l0-3.7l2.7-.7zm14 8.6c0-1.6 0-2.9-.1-4.2c-.04.01 2.5 0 2.5 0l.1 2.6c0 0 .08-.03.1 0c.7-1.5 2.5-2.9 5.1-2.9c2.1 0 5.5 1.2 5.5 6.6c-.03-.05 0 9.2 0 9.2l-2.8 0c0 0-.04-8.93 0-8.9c0-2.5-1-4.6-3.6-4.6c-1.9 0-3.3 1.3-3.8 2.9c-.1.3-.2.8-.2 1.3c0-.01 0 9.3 0 9.3l-2.8 0c0 0-.01-11.3 0-11.3zm31.8 3.4c0 5.8-4 8.3-7.7 8.3c-4.2 0-7.5-3.1-7.5-8c0-5.2 3.4-8.2 7.7-8.2c4.5 0 7.5 3.2 7.5 7.9zm-12.3.2c0 3.4 1.9 5.9 4.7 5.9c2.7 0 4.7-2.5 4.7-6c0-2.6-1.3-5.9-4.7-5.9c-3.3 0-4.7 3-4.7 6zm19.2-12.2l0 4.4l4 0l0 2.2l-4 0c0 0 .01 8.31 0 8.3c0 1.9.6 3 2.1 3c.8 0 1.3-.1 1.7-.2c0 0 .1 2.1.1 2.1c-.6.3-1.4.4-2.5.4c-1.3 0-2.4-.4-3.1-1.2c-.8-.8-1-2.2-1-4c-.04 0 0-8.4 0-8.4l-2.4 0l0-2.2l2.4 0l0-3.7l2.7-.7zm8.6 12.7c0 3.8 2.5 5.3 5.3 5.3c2 0 3.2-.3 4.3-.8c0 0 .5 2.1.5 2.1c-1 .4-2.7.9-5.2.9c-4.8 0-7.6-3.1-7.6-7.8c0-4.7 2.7-8.3 7.3-8.3c5 0 6.4 4.4 6.4 7.3c0 .5-.1 1-.1 1.3c0 0-10.9 0-10.9 0zm8.2-2c.1-1.8-.7-4.6-3.9-4.6c-2.8 0-4.1 2.6-4.3 4.6c0 0 8.2 0 8.2 0z" stroke="none" fill="#3c3c3b"/></g><g id="Polygon5809"><path d="m15.7 50.5c-.1 1.1-.1 2.4-.1 4.3c0 0 0 9 0 9c0 3.5-.8 5.7-2.3 7c-1.5 1.4-3.6 1.9-5.6 1.9c-1.8 0-3.9-.5-5.1-1.3c0 0 .7-2.1.7-2.1c1 .6 2.6 1.2 4.5 1.2c2.9 0 5-1.5 5-5.4c0-.03 0-1.8 0-1.8c0 0-.06.04-.1 0c-.8 1.5-2.5 2.6-4.9 2.6c-3.8 0-6.6-3.2-6.6-7.5c0-5.3 3.4-8.2 7-8.2c2.7 0 4.2 1.4 4.8 2.6c.02.05.1 0 .1 0l.1-2.3c0 0 2.48.01 2.5 0zm-2.9 6.1c0-.5-.1-.9-.2-1.3c-.5-1.6-1.9-2.9-3.9-2.9c-2.7 0-4.6 2.2-4.6 5.8c0 3.1 1.5 5.6 4.5 5.6c1.8 0 3.3-1.1 3.9-2.9c.2-.5.3-1 .3-1.5c0 0 0-2.8 0-2.8zm21.4 1.5c0 5.8-3.9 8.3-7.7 8.3c-4.2 0-7.4-3.1-7.4-8c0-5.2 3.4-8.2 7.7-8.2c4.4 0 7.4 3.2 7.4 7.9zm-12.2.2c0 3.4 1.9 5.9 4.7 5.9c2.6 0 4.7-2.5 4.7-6c0-2.6-1.4-5.9-4.7-5.9c-3.3 0-4.7 3-4.7 6zm16.7-7.8c0 0 3 8.72 3 8.7c.5 1.4.9 2.7 1.2 4c0 0 .1 0 .1 0c.4-1.3.8-2.6 1.4-4c-.05.02 3-8.7 3-8.7l2.9 0l-6.1 15.5l-2.7 0l-5.9-15.5l3.1 0zm15.5 8.3c.1 3.8 2.5 5.3 5.3 5.3c2 0 3.3-.3 4.3-.8c0 0 .5 2.1.5 2.1c-1 .4-2.7.9-5.2.9c-4.7 0-7.6-3.1-7.6-7.8c0-4.7 2.8-8.3 7.3-8.3c5 0 6.4 4.4 6.4 7.3c0 .5-.1 1-.1 1.3c0 0-10.9 0-10.9 0zm8.3-2c0-1.8-.8-4.6-3.9-4.6c-2.9 0-4.1 2.6-4.4 4.6c0 0 8.3 0 8.3 0zm6.2-1.5c0-1.8-.1-3.3-.2-4.8c.04.01 2.5 0 2.5 0l.1 3.1c0 0 .13-.05.1 0c.7-2.1 2.4-3.4 4.3-3.4c.3 0 .6 0 .8.1c0 0 0 2.6 0 2.6c-.3-.1-.6-.1-.9-.1c-2 0-3.4 1.5-3.8 3.6c-.1.4-.1.9-.1 1.3c-.04.04 0 8.3 0 8.3l-2.8 0c0 0-.03-10.66 0-10.7zm10.6-.6c0-1.6-.1-2.9-.2-4.2c.04.01 2.5 0 2.5 0l.2 2.6c0 0 .06-.03.1 0c.7-1.5 2.5-2.9 5.1-2.9c2.1 0 5.4 1.2 5.4 6.6c.05-.05 0 9.2 0 9.2l-2.8 0c0 0 .03-8.93 0-8.9c0-2.5-.9-4.6-3.6-4.6c-1.8 0-3.2 1.3-3.7 2.9c-.2.3-.2.8-.2 1.3c-.02-.01 0 9.3 0 9.3l-2.8 0c0 0-.04-11.3 0-11.3zm19.3 4.1c.1 3.8 2.5 5.3 5.3 5.3c2 0 3.2-.3 4.3-.8c0 0 .5 2.1.5 2.1c-1 .4-2.7.9-5.2.9c-4.7 0-7.6-3.1-7.6-7.8c0-4.7 2.8-8.3 7.3-8.3c5 0 6.4 4.4 6.4 7.3c0 .5-.1 1-.1 1.3c0 0-10.9 0-10.9 0zm8.2-2c.1-1.8-.7-4.6-3.9-4.6c-2.8 0-4.1 2.6-4.3 4.6c0 0 8.2 0 8.2 0zm19.6-13.5c0 0 .03 18.7 0 18.7c0 1.4.1 2.9.2 4c-.04 0-2.6 0-2.6 0l-.1-2.7c0 0-.06.01-.1 0c-.8 1.7-2.7 3.1-5.2 3.1c-3.8 0-6.7-3.2-6.7-7.9c0-5.2 3.2-8.3 7-8.3c2.3 0 3.9 1.1 4.7 2.3c-.05.03 0 0 0 0l0-9.2l2.8 0zm-2.8 13.5c0-.3 0-.8-.1-1.2c-.4-1.8-2-3.2-4.1-3.2c-2.9 0-4.6 2.5-4.6 6c0 3.1 1.5 5.7 4.6 5.7c1.8 0 3.6-1.3 4.1-3.4c.1-.4.1-.7.1-1.2c0 0 0-2.7 0-2.7zm14.2 9.2c0-1.1.1-2.6.1-4c-.01 0 0-18.7 0-18.7l2.8 0l0 9.7c0 0 .03.01 0 0c1-1.7 2.8-2.8 5.3-2.8c3.9 0 6.6 3.2 6.5 7.9c0 5.5-3.4 8.3-6.9 8.3c-2.2 0-4-.9-5.2-3c.01.04-.1 0-.1 0l-.1 2.6c0 0-2.44 0-2.4 0zm2.9-6.2c0 .3 0 .7.1 1c.5 2 2.2 3.3 4.2 3.3c3 0 4.7-2.4 4.7-5.9c0-3.1-1.6-5.8-4.6-5.8c-1.9 0-3.7 1.3-4.3 3.5c0 .3-.1.7-.1 1.1c0 0 0 2.8 0 2.8zm16.2-9.3c0 0 3.39 9.16 3.4 9.2c.3 1 .7 2.2 1 3.1c0 0 0 0 0 0c.3-.9.7-2.1 1-3.2c.03 0 3.1-9.1 3.1-9.1l3 0c0 0-4.24 11.05-4.2 11.1c-2.1 5.3-3.4 8-5.4 9.6c-1.3 1.3-2.7 1.7-3.4 1.9c0 0-.7-2.4-.7-2.4c.7-.2 1.6-.7 2.5-1.4c.7-.6 1.7-1.7 2.3-3.1c.1-.3.2-.5.2-.7c0-.1 0-.4-.1-.7c-.05-.02-5.8-14.3-5.8-14.3l3.1 0zm20.4 12.6c.9.6 2.3 1.1 3.8 1.1c2 0 3-1 3-2.3c0-1.3-.8-2-2.9-2.8c-2.8-1-4.1-2.5-4.1-4.4c0-2.5 2-4.5 5.3-4.5c1.6 0 3 .4 3.8.9c0 0-.7 2.1-.7 2.1c-.6-.4-1.7-.9-3.1-.9c-1.7 0-2.6.9-2.6 2.1c0 1.3.9 1.8 2.9 2.6c2.7 1 4.1 2.4 4.1 4.7c0 2.7-2.1 4.6-5.8 4.6c-1.7 0-3.3-.4-4.4-1c0 0 .7-2.2.7-2.2zm16.5-17l0 4.4l4 0l0 2.2l-4 0c0 0-.01 8.31 0 8.3c0 1.9.5 3 2.1 3c.7 0 1.3-.1 1.6-.2c0 0 .2 2.1.2 2.1c-.6.3-1.4.4-2.5.4c-1.3 0-2.4-.4-3.1-1.2c-.8-.8-1.1-2.2-1.1-4c.04 0 0-8.4 0-8.4l-2.4 0l0-2.2l2.4 0l0-3.7l2.8-.7zm7.2 9.2c0-1.8 0-3.3-.1-4.8c-.04.01 2.4 0 2.4 0l.1 3.1c0 0 .15-.05.1 0c.8-2.1 2.4-3.4 4.3-3.4c.4 0 .6 0 .8.1c0 0 0 2.6 0 2.6c-.3-.1-.5-.1-.9-.1c-2 0-3.4 1.5-3.8 3.6c-.1.4-.1.9-.1 1.3c-.03.04 0 8.3 0 8.3l-2.8 0c0 0-.01-10.66 0-10.7zm10.6 10.7l0-15.5l2.8 0l0 15.5l-2.8 0zm3.1-19.8c0 .9-.7 1.7-1.8 1.7c-1 0-1.7-.8-1.7-1.7c0-1 .8-1.8 1.8-1.8c1 0 1.7.8 1.7 1.8zm4.4 8.5c0-1.6-.1-2.9-.2-4.2c.04.01 2.5 0 2.5 0l.2 2.6c0 0 .06-.03.1 0c.7-1.5 2.5-2.9 5.1-2.9c2.1 0 5.5 1.2 5.5 6.6c-.05-.05 0 9.2 0 9.2l-2.9 0c0 0 .04-8.93 0-8.9c0-2.5-.9-4.6-3.5-4.6c-1.9 0-3.3 1.3-3.8 2.9c-.2.3-.2.8-.2 1.3c-.02-.01 0 9.3 0 9.3l-2.8 0c0 0-.03-11.3 0-11.3zm31.1-4.2c-.1 1.1-.2 2.4-.2 4.3c0 0 0 9 0 9c0 3.5-.7 5.7-2.2 7c-1.5 1.4-3.6 1.9-5.6 1.9c-1.9 0-3.9-.5-5.1-1.3c0 0 .7-2.1.7-2.1c1 .6 2.6 1.2 4.5 1.2c2.9 0 5-1.5 5-5.4c-.01-.03 0-1.8 0-1.8c0 0-.07.04-.1 0c-.8 1.5-2.5 2.6-4.9 2.6c-3.8 0-6.6-3.2-6.6-7.5c0-5.3 3.4-8.2 7-8.2c2.7 0 4.1 1.4 4.8 2.6c.02.05.1 0 .1 0l.1-2.3c0 0 2.47.01 2.5 0zm-2.9 6.1c0-.5-.1-.9-.2-1.3c-.5-1.6-1.9-2.9-3.9-2.9c-2.7 0-4.6 2.2-4.6 5.8c0 3.1 1.5 5.6 4.5 5.6c1.8 0 3.3-1.1 3.9-2.9c.2-.5.3-1 .3-1.5c0 0 0-2.8 0-2.8zm9 2.2c0 3.8 2.5 5.3 5.3 5.3c2 0 3.2-.3 4.3-.8c0 0 .5 2.1.5 2.1c-1 .4-2.7.9-5.2.9c-4.8 0-7.6-3.1-7.6-7.8c0-4.7 2.7-8.3 7.3-8.3c5 0 6.4 4.4 6.4 7.3c0 .5-.1 1-.1 1.3c0 0-10.9 0-10.9 0zm8.2-2c.1-1.8-.7-4.6-3.9-4.6c-2.8 0-4.1 2.6-4.3 4.6c0 0 8.2 0 8.2 0zm6.2-2.1c0-1.6 0-2.9-.1-4.2c.02.01 2.5 0 2.5 0l.2 2.6c0 0 .04-.03 0 0c.8-1.5 2.6-2.9 5.2-2.9c2.1 0 5.4 1.2 5.4 6.6c.03-.05 0 9.2 0 9.2l-2.8 0c0 0 .02-8.93 0-8.9c0-2.5-.9-4.6-3.6-4.6c-1.8 0-3.3 1.3-3.7 2.9c-.2.3-.2.8-.2 1.3c-.04-.01 0 9.3 0 9.3l-2.9 0c0 0 .05-11.3 0-11.3zm21.1-8.6l0 4.4l4 0l0 2.2l-4 0c0 0-.03 8.31 0 8.3c0 1.9.5 3 2.1 3c.7 0 1.3-.1 1.6-.2c0 0 .1 2.1.1 2.1c-.5.3-1.4.4-2.5.4c-1.3 0-2.3-.4-3-1.2c-.8-.8-1.1-2.2-1.1-4c.02 0 0-8.4 0-8.4l-2.4 0l0-2.2l2.4 0l0-3.7l2.8-.7zm14 9.5c0-2-.1-3.6-.2-5.1c.03.01 2.6 0 2.6 0l.1 2.7c0 0 .05-.03 0 0c1.2-1.9 3-3 5.6-3c3.7 0 6.5 3.1 6.5 7.8c0 5.6-3.4 8.4-7 8.4c-2.1 0-3.9-.9-4.8-2.5c0 .02-.1 0-.1 0l0 8.4l-2.7 0c0 0-.04-16.73 0-16.7zm2.7 4.1c0 .4.1.8.2 1.1c.5 2 2.2 3.3 4.2 3.3c3 0 4.7-2.4 4.7-5.9c0-3.1-1.6-5.8-4.6-5.8c-1.9 0-3.7 1.4-4.3 3.5c-.1.3-.2.8-.2 1.1c0 0 0 2.7 0 2.7zm15.5-4.4c0-1.8-.1-3.3-.2-4.8c.03.01 2.5 0 2.5 0l.1 3.1c0 0 .12-.05.1 0c.7-2.1 2.4-3.4 4.3-3.4c.3 0 .6 0 .8.1c0 0 0 2.6 0 2.6c-.3-.1-.6-.1-.9-.1c-2 0-3.4 1.5-3.8 3.6c-.1.4-.2.9-.2 1.3c.05.04 0 8.3 0 8.3l-2.7 0c0 0-.04-10.66 0-10.7zm24.1 2.8c0 5.8-3.9 8.3-7.7 8.3c-4.2 0-7.4-3.1-7.4-8c0-5.2 3.4-8.2 7.7-8.2c4.4 0 7.4 3.2 7.4 7.9zm-12.3.2c0 3.4 2 5.9 4.7 5.9c2.7 0 4.7-2.5 4.7-6c0-2.6-1.3-5.9-4.6-5.9c-3.3 0-4.8 3-4.8 6zm16.7-7.8c0 0 3.08 8.72 3.1 8.7c.5 1.4.9 2.7 1.2 4c0 0 .1 0 .1 0c.4-1.3.8-2.6 1.3-4c.04.02 3-8.7 3-8.7l3 0l-6.1 15.5l-2.7 0l-5.9-15.5l3 0zm14.3 15.5l0-15.5l2.9 0l0 15.5l-2.9 0zm3.2-19.8c0 .9-.7 1.7-1.8 1.7c-1 0-1.7-.8-1.7-1.7c0-1 .7-1.8 1.8-1.8c1 0 1.7.8 1.7 1.8zm3.9 16.9c.9.6 2.4 1.1 3.8 1.1c2 0 3-1 3-2.3c0-1.3-.8-2-2.9-2.8c-2.8-1-4.1-2.5-4.1-4.4c0-2.5 2-4.5 5.3-4.5c1.6 0 3 .4 3.8.9c0 0-.7 2.1-.7 2.1c-.6-.4-1.7-.9-3.1-.9c-1.7 0-2.6.9-2.6 2.1c0 1.3.9 1.8 2.9 2.6c2.7 1 4.1 2.4 4.1 4.7c0 2.7-2.1 4.6-5.8 4.6c-1.7 0-3.3-.4-4.4-1c0 0 .7-2.2.7-2.2zm13.1 2.9l0-15.5l2.8 0l0 15.5l-2.8 0zm3.1-19.8c.1.9-.6 1.7-1.8 1.7c-.9 0-1.6-.8-1.6-1.7c0-1 .7-1.8 1.7-1.8c1.1 0 1.7.8 1.7 1.8zm18.4 11.9c0 5.8-4 8.3-7.7 8.3c-4.2 0-7.4-3.1-7.4-8c0-5.2 3.4-8.2 7.7-8.2c4.4 0 7.4 3.2 7.4 7.9zm-12.3.2c0 3.4 2 5.9 4.7 5.9c2.7 0 4.7-2.5 4.7-6c0-2.6-1.3-5.9-4.6-5.9c-3.3 0-4.8 3-4.8 6zm15.9-3.6c0-1.6-.1-2.9-.2-4.2c.03.01 2.5 0 2.5 0l.2 2.6c0 0 .05-.03.1 0c.7-1.5 2.5-2.9 5.1-2.9c2.1 0 5.4 1.2 5.4 6.6c.04-.05 0 9.2 0 9.2l-2.8 0c0 0 .03-8.93 0-8.9c0-2.5-.9-4.6-3.6-4.6c-1.8 0-3.3 1.3-3.7 2.9c-.2.3-.2.8-.2 1.3c-.03-.01 0 9.3 0 9.3l-2.8 0c0 0-.04-11.3 0-11.3zm17.3 8.4c.9.6 2.3 1.1 3.7 1.1c2.1 0 3.1-1 3.1-2.3c0-1.3-.8-2-2.9-2.8c-2.8-1-4.1-2.5-4.1-4.4c0-2.5 2-4.5 5.3-4.5c1.6 0 3 .4 3.8.9c0 0-.7 2.1-.7 2.1c-.6-.4-1.7-.9-3.1-.9c-1.7 0-2.6.9-2.6 2.1c0 1.3.9 1.8 2.9 2.6c2.7 1 4.1 2.4 4.1 4.7c0 2.7-2.1 4.6-5.8 4.6c-1.7 0-3.3-.4-4.4-1c0 0 .7-2.2.7-2.2zm21-12.6c0 0 2.04 7.88 2 7.9c.5 1.7.9 3.3 1.2 4.9c0 0 .1 0 .1 0c.3-1.6.9-3.2 1.4-4.9c-.03.02 2.5-7.9 2.5-7.9l2.4 0c0 0 2.36 7.76 2.4 7.8c.5 1.8 1 3.4 1.3 5c0 0 .1 0 .1 0c.3-1.6.7-3.2 1.2-5c.02-.01 2.2-7.8 2.2-7.8l2.8 0l-5 15.5l-2.5 0c0 0-2.41-7.39-2.4-7.4c-.6-1.7-1-3.3-1.4-5.1c0 0-.1 0-.1 0c-.3 1.9-.8 3.5-1.4 5.1c.04.04-2.5 7.4-2.5 7.4l-2.5 0l-4.7-15.5l2.9 0zm22.4-7.2l2.8 0l0 9.6c0 0 .11.04.1 0c.5-.8 1.2-1.5 2-1.9c.9-.5 1.8-.8 2.9-.8c2.1 0 5.4 1.2 5.4 6.6c.01-.02 0 9.2 0 9.2l-2.8 0c0 0-.01-8.9 0-8.9c0-2.5-.9-4.6-3.6-4.6c-1.8 0-3.3 1.3-3.8 2.8c-.1.4-.2.8-.2 1.4c.04-.04 0 9.3 0 9.3l-2.8 0l0-22.7zm17.8 22.7l0-15.5l2.8 0l0 15.5l-2.8 0zm3.1-19.8c.1.9-.7 1.7-1.8 1.7c-1 0-1.7-.8-1.7-1.7c0-1 .8-1.8 1.8-1.8c1 0 1.7.8 1.7 1.8zm15.4 19.2c-.7.4-2.4.9-4.4.9c-4.7 0-7.7-3.1-7.7-7.9c0-4.8 3.2-8.2 8.3-8.2c1.6 0 3.1.4 3.9.8c0 0-.7 2.2-.7 2.2c-.6-.4-1.7-.8-3.2-.8c-3.6 0-5.5 2.7-5.5 5.9c0 3.6 2.3 5.8 5.4 5.8c1.6 0 2.6-.4 3.4-.8c0 0 .5 2.1.5 2.1zm3.3-22.1l2.8 0l0 9.6c0 0 .09.04.1 0c.4-.8 1.1-1.5 2-1.9c.8-.5 1.8-.8 2.9-.8c2.1 0 5.4 1.2 5.4 6.6c-.01-.02 0 9.2 0 9.2l-2.8 0c0 0-.02-8.9 0-8.9c0-2.5-1-4.6-3.6-4.6c-1.8 0-3.3 1.3-3.8 2.8c-.1.4-.2.8-.2 1.4c.02-.04 0 9.3 0 9.3l-2.8 0l0-22.7z" stroke="none" fill="#3c3c3b"/></g><g id="Polygon5808"><path d="m6.5 4.8l-6.5 0l0-2.4l15.9 0l0 2.4l-6.6 0l0 19.2l-2.8 0l0-19.2zm11.5-3.5l2.8 0l0 9.6c0 0 .1.04.1 0c.4-.8 1.1-1.5 2-1.9c.8-.5 1.8-.8 2.9-.8c2.1 0 5.4 1.2 5.4 6.6c0-.02 0 9.2 0 9.2l-2.8 0c0 0-.02-8.9 0-8.9c0-2.5-.9-4.6-3.6-4.6c-1.8 0-3.3 1.3-3.8 2.8c-.1.4-.2.8-.2 1.4c.03-.04 0 9.3 0 9.3l-2.8 0l0-22.7zm19.3 15.5c.1 3.8 2.5 5.3 5.4 5.3c2 0 3.2-.3 4.2-.8c0 0 .5 2.1.5 2.1c-1 .4-2.7.9-5.1.9c-4.8 0-7.6-3.1-7.6-7.8c0-4.7 2.7-8.3 7.2-8.3c5.1 0 6.4 4.4 6.4 7.3c0 .5 0 1-.1 1.3c0 0-10.9 0-10.9 0zm8.3-2c0-1.8-.7-4.6-3.9-4.6c-2.9 0-4.1 2.6-4.3 4.6c0 0 8.2 0 8.2 0zm24 8.6c-.7.4-2.3.9-4.4.9c-4.7 0-7.7-3.1-7.7-7.9c0-4.8 3.2-8.2 8.3-8.2c1.7 0 3.1.4 3.9.8c0 0-.6 2.2-.6 2.2c-.7-.4-1.8-.8-3.3-.8c-3.6 0-5.5 2.7-5.5 5.9c0 3.6 2.3 5.8 5.4 5.8c1.6 0 2.7-.4 3.5-.8c0 0 .4 2.1.4 2.1zm3.3-22.1l2.8 0l0 22.7l-2.8 0l0-22.7zm16.2 22.7l-.3-2c0 0-.06.05-.1 0c-.8 1.3-2.5 2.4-4.7 2.4c-3.1 0-4.7-2.3-4.7-4.5c0-3.7 3.3-5.8 9.3-5.8c0 0 0-.3 0-.3c0-1.3-.4-3.6-3.5-3.6c-1.5 0-3 .5-4.1 1.2c0 0-.6-1.9-.6-1.9c1.3-.8 3.1-1.3 5.1-1.3c4.7 0 5.9 3.2 5.9 6.3c0 0 0 5.8 0 5.8c0 1.3 0 2.6.2 3.7c.02 0-2.5 0-2.5 0zm-.5-7.9c-3-.1-6.5.5-6.5 3.5c0 1.8 1.2 2.7 2.6 2.7c2.1 0 3.3-1.3 3.8-2.6c.1-.3.1-.6.1-.9c0 0 0-2.7 0-2.7zm7.3 7.9l0-15.5l2.8 0l0 15.5l-2.8 0zm3.1-19.8c.1.9-.6 1.7-1.8 1.7c-.9 0-1.6-.8-1.6-1.7c0-1 .7-1.8 1.7-1.8c1.1 0 1.7.8 1.7 1.8zm4.4 8.5c0-1.6 0-2.9-.1-4.2c-.04.01 2.4 0 2.4 0l.2 2.5c0 0 .05.01.1 0c.8-1.5 2.3-2.8 4.8-2.8c2.1 0 3.7 1.2 4.4 3.1c0 0 .1 0 .1 0c.4-.9 1.1-1.6 1.7-2.1c.9-.7 1.9-1 3.4-1c2.1 0 5.1 1.3 5.1 6.7c0-.02 0 9.1 0 9.1l-2.7 0c0 0-.05-8.77 0-8.8c0-2.9-1.1-4.7-3.4-4.7c-1.6 0-2.9 1.1-3.3 2.5c-.2.4-.3.9-.3 1.4c.04.03 0 9.6 0 9.6l-2.7 0c0 0-.01-9.28 0-9.3c0-2.4-1.1-4.2-3.2-4.2c-1.8 0-3.1 1.4-3.5 2.8c-.2.4-.3.9-.3 1.4c.04-.04 0 9.3 0 9.3l-2.7 0c0 0-.01-11.3 0-11.3zm47.5 3.4c0 5.8-4 8.3-7.7 8.3c-4.2 0-7.5-3.1-7.5-8c0-5.2 3.4-8.2 7.7-8.2c4.5 0 7.5 3.2 7.5 7.9zm-12.3.2c0 3.4 1.9 5.9 4.7 5.9c2.7 0 4.7-2.5 4.7-6c0-2.6-1.3-5.9-4.6-5.9c-3.4 0-4.8 3-4.8 6zm16.1 7.7l0-13.3l-2.2 0l0-2.2l2.2 0c0 0 .02-.72 0-.7c0-2.2.5-4.2 1.8-5.4c1.1-1.1 2.5-1.5 3.8-1.5c1 0 1.8.3 2.4.5c0 0-.4 2.2-.4 2.2c-.4-.2-1-.4-1.8-.4c-2.4 0-3 2.1-3 4.5c0-.02 0 .8 0 .8l3.7 0l0 2.2l-3.7 0l0 13.3l-2.8 0zm18.7-21.6l0 21.6l-2.7 0l0-21.6l2.7 0zm5.1 10.3c0-1.6 0-2.9-.1-4.2c0 .01 2.5 0 2.5 0l.2 2.6c0 0 .02-.03 0 0c.8-1.5 2.6-2.9 5.1-2.9c2.2 0 5.5 1.2 5.5 6.6c.01-.05 0 9.2 0 9.2l-2.8 0c0 0-.01-8.93 0-8.9c0-2.5-.9-4.6-3.6-4.6c-1.8 0-3.3 1.3-3.8 2.9c-.1.3-.2.8-.2 1.3c.04-.01 0 9.3 0 9.3l-2.8 0c0 0 .03-11.3 0-11.3zm17.8.9c0-2-.1-3.6-.1-5.1c-.04.01 2.5 0 2.5 0l.1 2.7c0 0 .08-.03.1 0c1.1-1.9 3-3 5.5-3c3.7 0 6.5 3.1 6.5 7.8c0 5.6-3.4 8.4-7 8.4c-2 0-3.8-.9-4.8-2.5c.03.02 0 0 0 0l0 8.4l-2.8 0c0 0-.01-16.73 0-16.7zm2.8 4.1c0 .4 0 .8.1 1.1c.5 2 2.2 3.3 4.2 3.3c3 0 4.7-2.4 4.7-5.9c0-3.1-1.6-5.8-4.6-5.8c-1.9 0-3.7 1.4-4.2 3.5c-.1.3-.2.8-.2 1.1c0 0 0 2.7 0 2.7zm28.4 2.1c0 1.6 0 3 .1 4.2c-.02 0-2.5 0-2.5 0l-.2-2.5c0 0-.04-.03 0 0c-.8 1.2-2.4 2.9-5.2 2.9c-2.4 0-5.3-1.4-5.3-6.8c0-.03 0-9.1 0-9.1l2.8 0c0 0 .01 8.59 0 8.6c0 2.9.9 4.9 3.5 4.9c1.9 0 3.2-1.3 3.7-2.5c.1-.5.2-1 .2-1.5c.04.02 0-9.5 0-9.5l2.9 0c0 0-.05 11.28 0 11.3zm8-15.7l0 4.4l4 0l0 2.2l-4 0c0 0 .02 8.31 0 8.3c0 1.9.6 3 2.1 3c.8 0 1.3-.1 1.7-.2c0 0 .1 2.1.1 2.1c-.6.3-1.4.4-2.5.4c-1.3 0-2.4-.4-3-1.2c-.8-.8-1.1-2.2-1.1-4c-.04 0 0-8.4 0-8.4l-2.4 0l0-2.2l2.4 0l0-3.7l2.7-.7zm16.9.7l-6.6 0l0-2.4l16 0l0 2.4l-6.6 0l0 19.2l-2.8 0l0-19.2zm18.2 19.2l-.2-2c0 0-.1.05-.1 0c-.9 1.3-2.5 2.4-4.7 2.4c-3.2 0-4.8-2.3-4.8-4.5c0-3.7 3.4-5.8 9.3-5.8c0 0 0-.3 0-.3c0-1.3-.3-3.6-3.5-3.6c-1.4 0-2.9.5-4 1.2c0 0-.7-1.9-.7-1.9c1.3-.8 3.2-1.3 5.1-1.3c4.8 0 5.9 3.2 5.9 6.3c0 0 0 5.8 0 5.8c0 1.3.1 2.6.3 3.7c-.02 0-2.6 0-2.6 0zm-.4-7.9c-3.1-.1-6.6.5-6.6 3.5c0 1.8 1.3 2.7 2.7 2.7c2 0 3.3-1.3 3.7-2.6c.1-.3.2-.6.2-.9c0 0 0-2.7 0-2.7zm8.6-7.6c0 0 2.19 3.34 2.2 3.3c.6.9 1 1.7 1.6 2.6c0 0 .1 0 .1 0c.5-1 1-1.8 1.5-2.6c-.01.01 2.2-3.3 2.2-3.3l3 0l-5.3 7.5l5.5 8l-3.2 0c0 0-2.31-3.49-2.3-3.5c-.6-.9-1.1-1.7-1.7-2.7c0 0 0 0 0 0c-.5 1-1.1 1.8-1.7 2.7c.03.01-2.2 3.5-2.2 3.5l-3.1 0l5.5-7.9l-5.3-7.6l3.2 0zm35.4 14.8c-1 .5-3 1-5.7 1c-6 0-10.6-3.8-10.6-10.9c0-6.7 4.6-11.3 11.2-11.3c2.7 0 4.4.6 5.2.9c0 0-.7 2.3-.7 2.3c-1.1-.5-2.6-.9-4.4-.9c-5 0-8.4 3.2-8.4 8.9c0 5.3 3.1 8.7 8.3 8.7c1.7 0 3.4-.4 4.6-.9c0 0 .5 2.2.5 2.2zm3.3-10c0-1.8 0-3.3-.1-4.8c0 .01 2.5 0 2.5 0l.1 3.1c0 0 .09-.05.1 0c.7-2.1 2.4-3.4 4.3-3.4c.3 0 .5 0 .8.1c0 0 0 2.6 0 2.6c-.3-.1-.6-.1-1-.1c-2 0-3.4 1.5-3.8 3.6c0 .4-.1.9-.1 1.3c.02.04 0 8.3 0 8.3l-2.8 0c0 0 .03-10.66 0-10.7zm11.7 3.5c.1 3.8 2.5 5.3 5.4 5.3c2 0 3.2-.3 4.2-.8c0 0 .5 2.1.5 2.1c-1 .4-2.7.9-5.1.9c-4.8 0-7.6-3.1-7.6-7.8c0-4.7 2.7-8.3 7.2-8.3c5.1 0 6.4 4.4 6.4 7.3c0 .5 0 1-.1 1.3c0 0-10.9 0-10.9 0zm8.3-2c0-1.8-.7-4.6-3.9-4.6c-2.9 0-4.1 2.6-4.3 4.6c0 0 8.2 0 8.2 0zm19.6-13.5c0 0-.02 18.7 0 18.7c0 1.4 0 2.9.1 4c.01 0-2.5 0-2.5 0l-.1-2.7c0 0-.11.01-.1 0c-.9 1.7-2.8 3.1-5.3 3.1c-3.7 0-6.6-3.2-6.6-7.9c0-5.2 3.2-8.3 6.9-8.3c2.4 0 4 1.1 4.7 2.3c0 .03.1 0 .1 0l0-9.2l2.8 0zm-2.8 13.5c0-.3-.1-.8-.2-1.2c-.4-1.8-1.9-3.2-4-3.2c-2.9 0-4.7 2.5-4.7 6c0 3.1 1.6 5.7 4.6 5.7c1.9 0 3.6-1.3 4.1-3.4c.1-.4.2-.7.2-1.2c0 0 0-2.7 0-2.7zm7.5 9.2l0-15.5l2.8 0l0 15.5l-2.8 0zm3.1-19.8c0 .9-.7 1.7-1.8 1.7c-1 0-1.7-.8-1.7-1.7c0-1 .7-1.8 1.8-1.8c1 0 1.7.8 1.7 1.8zm7.7-.1l0 4.4l4.1 0l0 2.2l-4.1 0c0 0 .04 8.31 0 8.3c0 1.9.6 3 2.1 3c.8 0 1.3-.1 1.7-.2c0 0 .1 2.1.1 2.1c-.5.3-1.4.4-2.5.4c-1.3 0-2.4-.4-3-1.2c-.8-.8-1.1-2.2-1.1-4c-.02 0 0-8.4 0-8.4l-2.4 0l0-2.2l2.4 0l0-3.7l2.7-.7zm6.9 17c.8.6 2.3 1.1 3.7 1.1c2 0 3-1 3-2.3c0-1.3-.8-2-2.9-2.8c-2.8-1-4.1-2.5-4.1-4.4c0-2.5 2-4.5 5.3-4.5c1.6 0 3 .4 3.8.9c0 0-.7 2.1-.7 2.1c-.6-.4-1.7-.9-3.1-.9c-1.7 0-2.6.9-2.6 2.1c0 1.3.9 1.8 2.9 2.6c2.7 1 4.1 2.4 4.1 4.7c0 2.7-2.1 4.6-5.8 4.6c-1.7 0-3.3-.4-4.4-1c0 0 .8-2.2.8-2.2zm25.9-19.3c-2.3 3.1-4 7.3-4 13.1c0 5.7 1.7 9.8 4 13c0 0-2.2 0-2.2 0c-2-2.7-4.2-6.8-4.2-13c0-6.3 2.2-10.4 4.2-13.1c0 0 2.2 0 2.2 0zm5.9.6l0 21.6l-2.8 0l0-21.6l2.8 0zm8.9 2.4l-6.5 0l0-2.4l15.9 0l0 2.4l-6.6 0l0 19.2l-2.8 0l0-19.2zm26 18.5c-1 .5-3 1-5.7 1c-6 0-10.6-3.8-10.6-10.9c0-6.7 4.6-11.3 11.2-11.3c2.7 0 4.4.6 5.2.9c0 0-.7 2.3-.7 2.3c-1.1-.5-2.6-.9-4.4-.9c-5 0-8.4 3.2-8.4 8.9c0 5.3 3.1 8.7 8.3 8.7c1.7 0 3.4-.4 4.6-.9c0 0 .5 2.2.5 2.2zm2.3 4.6c2.2-3.2 4-7.4 4-13.1c0-5.7-1.7-9.8-4-13c0 0 2.1 0 2.1 0c2.1 2.6 4.2 6.7 4.2 13c0 6.3-2.1 10.4-4.2 13.1c0 0-2.1 0-2.1 0zm17.5-3.9l0-15.5l2.9 0l0 15.5l-2.9 0zm3.2-19.8c0 .9-.7 1.7-1.8 1.7c-1 0-1.7-.8-1.7-1.7c0-1 .7-1.8 1.7-1.8c1.1 0 1.8.8 1.8 1.8zm3.9 16.9c.9.6 2.3 1.1 3.8 1.1c2 0 3-1 3-2.3c0-1.3-.8-2-2.9-2.8c-2.8-1-4.1-2.5-4.1-4.4c0-2.5 2-4.5 5.3-4.5c1.6 0 3 .4 3.8.9c0 0-.7 2.1-.7 2.1c-.6-.4-1.7-.9-3.1-.9c-1.7 0-2.6.9-2.6 2.1c0 1.3.9 1.8 2.9 2.6c2.7 1 4.1 2.4 4.1 4.7c0 2.7-2.1 4.6-5.8 4.6c-1.7 0-3.3-.4-4.4-1c0 0 .7-2.2.7-2.2z" stroke="none" fill="#3c3c3b"/></g></svg>