<?xml version="1.0" standalone="no"?><!DOCTYPE svg PUBLIC "-//W3C//DTD SVG 1.1//EN" "http://www.w3.org/Graphics/SVG/1.1/DTD/svg11.dtd"><svg xmlns="http://www.w3.org/2000/svg" version="1.1" width="282.2px" height="133.5px" viewBox="0 -9 282.2 133.5" style="top:-9px"><desc>The cost associated with the missing ITC claims</desc><defs/><g id="Polygon5657"><path d="m6.6 84.2l0 23l-4.2 0l0-23l4.2 0zm9.2 3.5l-6.5 0l0-3.5l17.3 0l0 3.5l-6.6 0l0 19.5l-4.2 0l0-19.5zm28.9 18.8c-1 .5-3.1 1-5.9 1c-7.3 0-11.7-4.6-11.7-11.5c0-7.6 5.3-12.1 12.3-12.1c2.7 0 4.7.5 5.5 1c0 0-.9 3.3-.9 3.3c-1.1-.5-2.6-.9-4.5-.9c-4.6 0-8 3-8 8.5c0 5 3 8.2 8 8.2c1.7 0 3.5-.3 4.6-.8c0 0 .6 3.3.6 3.3zm22.7.2c-.9.4-2.7.8-4.7.8c-5.2 0-8.6-3.3-8.6-8.4c0-5 3.4-8.9 9.2-8.9c1.6 0 3.1.4 4.1.8c0 0-.8 3.1-.8 3.1c-.6-.3-1.6-.6-3.1-.6c-3.2 0-5.1 2.3-5.1 5.4c0 3.4 2.2 5.3 5.1 5.3c1.4 0 2.5-.3 3.3-.6c0 0 .6 3.1.6 3.1zm3.1-23.7l4.2 0l0 24.2l-4.2 0l0-24.2zm18 24.2l-.3-1.9c0 0-.06.03-.1 0c-1 1.3-2.7 2.2-4.9 2.2c-3.3 0-5.2-2.4-5.2-4.9c0-4.2 3.7-6.3 9.9-6.3c0 0 0-.2 0-.2c0-1.1-.5-2.9-3.4-2.9c-1.6 0-3.3.5-4.5 1.2c0 0-.8-2.7-.8-2.7c1.3-.8 3.4-1.5 6-1.5c5.3 0 6.9 3.4 6.9 7c0 0 0 6 0 6c0 1.5 0 2.9.2 4c-.01-.04-3.8 0-3.8 0zm-.5-8.1c-3-.1-5.8.5-5.8 3.1c0 1.6 1 2.3 2.4 2.3c1.6 0 2.9-1 3.2-2.2c.1-.3.2-.7.2-1c0 0 0-2.2 0-2.2zm8.5 8.1l0-16.6l4.2 0l0 16.6l-4.2 0zm4.4-21.2c0 1.2-.9 2.2-2.3 2.2c-1.4 0-2.4-1-2.4-2.2c0-1.3 1-2.3 2.4-2.3c1.4 0 2.3 1 2.3 2.3zm4.3 9.5c0-1.9 0-3.5-.1-4.9c-.05 0 3.6 0 3.6 0l.1 2.4c0 0 .13.04.1 0c.8-1.2 2.3-2.8 5.1-2.8c2.2 0 3.9 1.2 4.6 3.1c0 0 .1 0 .1 0c.6-.9 1.3-1.6 2-2.1c1-.6 2-1 3.4-1c2.7 0 5.5 1.9 5.5 7.2c.01 0 0 9.8 0 9.8l-4.1 0c0 0 .03-9.19 0-9.2c0-2.7-.9-4.4-2.9-4.4c-1.5 0-2.5 1-3 2.2c-.1.4-.2 1-.2 1.4c.04.03 0 10 0 10l-4 0c0 0-.04-9.63 0-9.6c0-2.3-1-4-2.9-4c-1.6 0-2.6 1.2-3 2.4c-.2.4-.2.9-.2 1.4c-.03-.03 0 9.8 0 9.8l-4.1 0c0 0-.01-11.67 0-11.7zm28.6 7.8c1 .6 2.8 1.2 4.3 1.2c1.8 0 2.6-.7 2.6-1.8c0-1.2-.6-1.7-2.7-2.4c-3.2-1.2-4.6-2.9-4.5-4.9c0-2.9 2.4-5.2 6.2-5.2c1.9 0 3.5.5 4.4 1c0 0-.8 3-.8 3c-.7-.4-2.1-1-3.5-1c-1.5 0-2.3.7-2.3 1.7c0 1.1.8 1.6 2.9 2.4c3 1.1 4.4 2.6 4.4 5c0 3-2.4 5.2-6.7 5.2c-2.1 0-3.9-.5-5.1-1.2c0 0 .8-3 .8-3z" stroke="none" fill="#676767"/></g><g id="Polygon5656"><path d="m4.8 49.8c0 0 1.7 7.49 1.7 7.5c.4 1.8.7 3.6 1.1 5.4c0 0 0 0 0 0c.4-1.8.9-3.7 1.4-5.4c-.02.02 2.1-7.5 2.1-7.5l3.4 0c0 0 2.1 7.32 2.1 7.3c.5 2 1 3.8 1.3 5.6c0 0 .1 0 .1 0c.3-1.8.6-3.6 1.1-5.6c-.01.02 1.8-7.3 1.8-7.3l4.1 0l-5.2 16.5l-3.8 0c0 0-2.02-6.7-2-6.7c-.5-1.7-.9-3.3-1.3-5.3c0 0 0 0 0 0c-.4 2-.8 3.7-1.3 5.3c0 0-2.1 6.7-2.1 6.7l-3.9 0l-4.9-16.5l4.3 0zm22.9 16.5l0-16.5l4.2 0l0 16.5l-4.2 0zm4.5-21.2c0 1.3-.9 2.3-2.4 2.3c-1.4 0-2.3-1-2.3-2.3c0-1.2.9-2.2 2.3-2.2c1.5 0 2.3 1 2.4 2.2zm9-.1l0 4.8l4 0l0 3.1l-4 0c0 0 .03 7.32 0 7.3c0 2 .6 3.1 2.2 3.1c.7 0 1.2-.1 1.6-.2c0 0 .1 3.2.1 3.2c-.6.2-1.7.4-3.1.4c-1.5 0-2.8-.5-3.6-1.4c-.8-.9-1.3-2.4-1.3-4.6c.05-.01 0-7.8 0-7.8l-2.3 0l0-3.1l2.3 0l0-3.8l4.1-1zm7.2-2.8l4.2 0l0 9.9c0 0 .06-.05.1 0c.5-.8 1.2-1.5 2-2c.9-.4 1.8-.7 2.9-.7c2.8 0 5.8 1.9 5.8 7.2c-.02-.02 0 9.7 0 9.7l-4.2 0c0 0-.01-9.25 0-9.2c0-2.5-.9-4.3-3.2-4.3c-1.6 0-2.8 1.1-3.2 2.4c-.2.3-.2.8-.2 1.2c-.01.04 0 9.9 0 9.9l-4.2 0l0-24.1zm31.3 2.8l0 4.8l4 0l0 3.1l-4 0c0 0-.03 7.32 0 7.3c0 2 .5 3.1 2.1 3.1c.7 0 1.3-.1 1.6-.2c0 0 .1 3.2.1 3.2c-.6.2-1.7.4-3 .4c-1.5 0-2.8-.5-3.6-1.4c-.9-.9-1.3-2.4-1.3-4.6c-.01-.01 0-7.8 0-7.8l-2.4 0l0-3.1l2.4 0l0-3.8l4.1-1zm7.1-2.8l4.2 0l0 9.9c0 0 .1-.05.1 0c.5-.8 1.2-1.5 2.1-2c.8-.4 1.8-.7 2.8-.7c2.9 0 5.8 1.9 5.8 7.2c.02-.02 0 9.7 0 9.7l-4.2 0c0 0 .04-9.25 0-9.2c0-2.5-.8-4.3-3.2-4.3c-1.6 0-2.8 1.1-3.2 2.4c-.1.3-.2.8-.2 1.2c.04.04 0 9.9 0 9.9l-4.2 0l0-24.1zm22.4 17c.1 3 2.5 4.3 5.1 4.3c2 0 3.4-.3 4.6-.7c0 0 .6 2.9.6 2.9c-1.4.5-3.4 1-5.7 1c-5.4 0-8.6-3.3-8.6-8.4c0-4.6 2.8-8.9 8.1-8.9c5.4 0 7.2 4.4 7.2 8.1c0 .7-.1 1.4-.2 1.7c0 0-11.1 0-11.1 0zm7.3-2.9c.1-1.5-.6-4-3.4-4c-2.6 0-3.7 2.3-3.9 4c0 0 7.3 0 7.3 0zm14.4-1.6c0-1.9-.1-3.5-.2-4.9c.04-.03 3.6 0 3.6 0l.2 2.4c0 0 .11.02.1 0c.8-1.3 2.3-2.8 5.1-2.8c2.2 0 3.9 1.2 4.6 3.1c0 0 .1 0 .1 0c.6-1 1.2-1.6 2-2.1c.9-.7 2-1 3.4-1c2.7 0 5.5 1.9 5.5 7.2c0-.02 0 9.7 0 9.7l-4.1 0c0 0 .02-9.11 0-9.1c0-2.8-.9-4.4-2.9-4.4c-1.5 0-2.5 1-3 2.2c-.1.4-.2.9-.2 1.4c.03.01 0 9.9 0 9.9l-4.1 0c0 0 .04-9.55 0-9.6c0-2.3-.9-3.9-2.8-3.9c-1.6 0-2.6 1.2-3 2.4c-.2.4-.2.9-.2 1.3c-.05.04 0 9.8 0 9.8l-4.1 0c0 0-.03-11.6 0-11.6zm28.8 11.6l0-16.5l4.2 0l0 16.5l-4.2 0zm4.5-21.2c0 1.3-.9 2.3-2.4 2.3c-1.4 0-2.3-1-2.3-2.3c0-1.2.9-2.2 2.3-2.2c1.5 0 2.3 1 2.4 2.2zm4 17.4c1 .6 2.8 1.2 4.3 1.2c1.8 0 2.6-.8 2.6-1.9c0-1.1-.6-1.7-2.7-2.4c-3.2-1.1-4.6-2.9-4.5-4.8c0-2.9 2.4-5.2 6.2-5.2c1.8 0 3.4.5 4.4 1c0 0-.8 2.9-.8 2.9c-.7-.4-2.1-.9-3.5-.9c-1.5 0-2.3.7-2.3 1.7c0 1.1.7 1.6 2.9 2.3c3 1.1 4.3 2.7 4.4 5.1c0 3-2.4 5.2-6.8 5.2c-2 0-3.8-.5-5-1.2c0 0 .8-3 .8-3zm14.2 0c1 .6 2.8 1.2 4.3 1.2c1.8 0 2.6-.8 2.6-1.9c0-1.1-.7-1.7-2.7-2.4c-3.2-1.1-4.6-2.9-4.6-4.8c0-2.9 2.5-5.2 6.3-5.2c1.8 0 3.4.5 4.4 1c0 0-.8 2.9-.8 2.9c-.7-.4-2.1-.9-3.5-.9c-1.5 0-2.3.7-2.3 1.7c0 1.1.7 1.6 2.8 2.3c3 1.1 4.4 2.7 4.5 5.1c0 3-2.4 5.2-6.8 5.2c-2 0-3.8-.5-5-1.2c0 0 .8-3 .8-3zm14.4 3.8l0-16.5l4.2 0l0 16.5l-4.2 0zm4.5-21.2c0 1.3-1 2.3-2.4 2.3c-1.4 0-2.3-1-2.3-2.3c0-1.2.9-2.2 2.3-2.2c1.4 0 2.3 1 2.4 2.2zm4.2 9.6c0-1.9 0-3.5-.1-4.9c-.02-.03 3.6 0 3.6 0l.3 2.5c0 0 .06-.05.1 0c.7-1.3 2.5-2.9 5.2-2.9c2.9 0 5.9 1.9 5.9 7.1c.01.01 0 9.8 0 9.8l-4.2 0c0 0 .03-9.32 0-9.3c0-2.4-.9-4.2-3.1-4.2c-1.7 0-2.9 1.2-3.3 2.4c-.1.4-.2.9-.2 1.4c.03.01 0 9.7 0 9.7l-4.2 0c0 0 .01-11.6 0-11.6zm34.6-4.9c-.1 1.1-.1 2.5-.1 4.7c0 0 0 9.4 0 9.4c0 3.5-.7 6-2.5 7.5c-1.7 1.6-4.1 2-6.4 2c-2.1 0-4.3-.4-5.8-1.3c0 0 1-3.1 1-3.1c1 .6 2.8 1.2 4.8 1.2c2.7 0 4.8-1.4 4.8-5c-.04.02 0-1.4 0-1.4c0 0-.11-.01-.1 0c-1 1.5-2.7 2.4-4.8 2.4c-4.2 0-7.1-3.4-7.1-8.1c0-5.4 3.6-8.7 7.5-8.7c2.6 0 4 1.2 4.8 2.6c.03-.02.1 0 .1 0l.2-2.2c0 0 3.61-.03 3.6 0zm-4.3 6.6c0-.4 0-.8-.1-1.1c-.5-1.5-1.7-2.7-3.4-2.7c-2.4 0-4.1 2-4.1 5.4c0 2.8 1.4 5.1 4 5.1c1.6 0 2.9-1 3.4-2.5c.1-.5.2-1 .2-1.5c0 0 0-2.7 0-2.7z" stroke="none" fill="#676767"/></g><g id="Polygon5655"><path d="m6.8 6.1l-6.5 0l0-3.5l17.3 0l0 3.5l-6.6 0l0 19.4l-4.2 0l0-19.4zm13-4.7l4.2 0l0 9.8c0 0 .05.03.1 0c.5-.8 1.1-1.4 2-1.9c.8-.5 1.8-.7 2.9-.7c2.8 0 5.8 1.8 5.8 7.2c-.03-.05 0 9.7 0 9.7l-4.2 0c0 0-.02-9.27 0-9.3c0-2.4-.9-4.2-3.2-4.2c-1.6 0-2.8 1.1-3.2 2.4c-.2.3-.2.7-.2 1.2c-.02.02 0 9.9 0 9.9l-4.2 0l0-24.1zm22.4 17c.1 3 2.4 4.3 5.1 4.3c1.9 0 3.3-.3 4.6-.8c0 0 .6 2.9.6 2.9c-1.4.6-3.4 1.1-5.8 1.1c-5.4 0-8.5-3.3-8.5-8.4c0-4.6 2.8-8.9 8.1-8.9c5.3 0 7.1 4.4 7.1 8c0 .8-.1 1.4-.1 1.8c0 0-11.1 0-11.1 0zm7.3-2.9c0-1.6-.7-4.1-3.5-4.1c-2.6 0-3.6 2.4-3.8 4.1c0 0 7.3 0 7.3 0zm25.7 9.5c-.9.4-2.6.9-4.7.9c-5.2 0-8.5-3.3-8.5-8.5c0-4.9 3.4-8.8 9.2-8.8c1.5 0 3.1.3 4 .8c0 0-.7 3.1-.7 3.1c-.7-.3-1.7-.7-3.2-.7c-3.2 0-5.1 2.4-5.1 5.4c0 3.4 2.3 5.4 5.1 5.4c1.5 0 2.5-.4 3.3-.7c0 0 .6 3.1.6 3.1zm18.5-7.9c0 6.1-4.3 8.8-8.5 8.8c-4.7 0-8.3-3.2-8.3-8.5c0-5.5 3.6-8.8 8.6-8.8c4.9 0 8.2 3.4 8.2 8.5zm-12.5.1c0 3.2 1.6 5.7 4.2 5.7c2.3 0 4-2.4 4-5.7c0-2.6-1.1-5.6-4-5.6c-3 0-4.2 2.9-4.2 5.6zm15.8 4.5c.9.5 2.7 1.2 4.2 1.2c1.8 0 2.7-.8 2.7-1.9c0-1.1-.7-1.7-2.8-2.4c-3.2-1.1-4.5-2.9-4.5-4.8c0-2.9 2.4-5.2 6.2-5.2c1.9 0 3.5.4 4.4 1c0 0-.8 2.9-.8 2.9c-.7-.4-2-.9-3.5-.9c-1.5 0-2.3.7-2.3 1.7c0 1.1.8 1.6 2.9 2.3c3 1.1 4.4 2.6 4.4 5.1c0 3-2.3 5.2-6.7 5.2c-2 0-3.8-.5-5.1-1.2c0 0 .9-3 .9-3zm19.1-17.5l0 4.7l4 0l0 3.2l-4 0c0 0 .05 7.29 0 7.3c0 2 .6 3.1 2.2 3.1c.7 0 1.2-.1 1.6-.3c0 0 .1 3.2.1 3.2c-.6.3-1.7.5-3 .5c-1.6 0-2.9-.6-3.6-1.4c-.9-1-1.3-2.5-1.3-4.6c-.04-.03 0-7.8 0-7.8l-2.4 0l0-3.2l2.4 0l0-3.7l4-1zm22.7 21.3l-.2-1.8c0 0-.13-.02-.1 0c-1.1 1.3-2.8 2.2-4.9 2.2c-3.4 0-5.2-2.4-5.2-4.9c0-4.2 3.7-6.3 9.8-6.3c0 0 0-.3 0-.3c0-1.1-.4-2.9-3.4-2.9c-1.6 0-3.3.5-4.4 1.3c0 0-.8-2.8-.8-2.8c1.2-.7 3.3-1.4 5.9-1.4c5.3 0 6.9 3.3 6.9 6.9c0 0 0 6 0 6c0 1.5 0 3 .2 4c.02.01-3.8 0-3.8 0zm-.5-8.1c-3 0-5.8.6-5.8 3.1c0 1.6 1.1 2.4 2.4 2.4c1.7 0 2.9-1.1 3.3-2.3c.1-.3.1-.6.1-.9c0 0 0-2.3 0-2.3zm8.3 4.3c.9.5 2.8 1.2 4.2 1.2c1.9 0 2.7-.8 2.7-1.9c0-1.1-.7-1.7-2.7-2.4c-3.3-1.1-4.6-2.9-4.6-4.8c0-2.9 2.4-5.2 6.3-5.2c1.8 0 3.4.4 4.4 1c0 0-.8 2.9-.8 2.9c-.8-.4-2.1-.9-3.5-.9c-1.5 0-2.4.7-2.4 1.7c0 1.1.8 1.6 2.9 2.3c3 1.1 4.4 2.6 4.5 5.1c0 3-2.4 5.2-6.8 5.2c-2 0-3.8-.5-5-1.2c0 0 .8-3 .8-3zm14.2 0c.9.5 2.7 1.2 4.2 1.2c1.9 0 2.7-.8 2.7-1.9c0-1.1-.7-1.7-2.7-2.4c-3.3-1.1-4.6-2.9-4.6-4.8c0-2.9 2.4-5.2 6.3-5.2c1.8 0 3.4.4 4.4 1c0 0-.9 2.9-.9 2.9c-.7-.4-2-.9-3.5-.9c-1.5 0-2.3.7-2.3 1.7c0 1.1.8 1.6 2.9 2.3c3 1.1 4.4 2.6 4.4 5.1c0 3-2.3 5.2-6.7 5.2c-2 0-3.8-.5-5-1.2c0 0 .8-3 .8-3zm30.1-4.6c0 6.1-4.3 8.8-8.5 8.8c-4.7 0-8.3-3.2-8.3-8.5c0-5.5 3.6-8.8 8.6-8.8c4.9 0 8.2 3.4 8.2 8.5zm-12.5.1c0 3.2 1.6 5.7 4.2 5.7c2.3 0 4-2.4 4-5.7c0-2.6-1.2-5.6-4-5.6c-3 0-4.2 2.9-4.2 5.6zm28.1 7.8c-.8.4-2.6.9-4.7.9c-5.1 0-8.5-3.3-8.5-8.5c0-4.9 3.4-8.8 9.2-8.8c1.6 0 3.1.3 4.1.8c0 0-.8 3.1-.8 3.1c-.7-.3-1.6-.7-3.1-.7c-3.2 0-5.1 2.4-5.1 5.4c0 3.4 2.2 5.4 5.1 5.4c1.4 0 2.4-.4 3.3-.7c0 0 .5 3.1.5 3.1zm3.1.5l0-16.6l4.3 0l0 16.6l-4.3 0zm4.5-21.2c0 1.3-.9 2.3-2.4 2.3c-1.4 0-2.3-1-2.3-2.3c0-1.3.9-2.3 2.3-2.3c1.5 0 2.4 1 2.4 2.3zm13.6 21.2l-.3-1.8c0 0-.11-.02-.1 0c-1 1.3-2.8 2.2-4.9 2.2c-3.3 0-5.2-2.4-5.2-4.9c0-4.2 3.7-6.3 9.8-6.3c0 0 0-.3 0-.3c0-1.1-.4-2.9-3.3-2.9c-1.7 0-3.4.5-4.5 1.3c0 0-.8-2.8-.8-2.8c1.2-.7 3.3-1.4 6-1.4c5.3 0 6.8 3.3 6.8 6.9c0 0 0 6 0 6c0 1.5.1 3 .2 4c.04.01-3.7 0-3.7 0zm-.6-8.1c-2.9 0-5.8.6-5.8 3.1c0 1.6 1.1 2.4 2.4 2.4c1.7 0 2.9-1.1 3.3-2.3c.1-.3.1-.6.1-.9c0 0 0-2.3 0-2.3zm13.1-13.2l0 4.7l4 0l0 3.2l-4 0c0 0 .02 7.29 0 7.3c0 2 .6 3.1 2.2 3.1c.7 0 1.2-.1 1.6-.3c0 0 .1 3.2.1 3.2c-.6.3-1.7.5-3.1.5c-1.5 0-2.8-.6-3.6-1.4c-.9-1-1.3-2.5-1.3-4.6c.04-.03 0-7.8 0-7.8l-2.3 0l0-3.2l2.3 0l0-3.7l4.1-1zm9.9 14.2c.1 3 2.5 4.3 5.1 4.3c2 0 3.4-.3 4.6-.8c0 0 .6 2.9.6 2.9c-1.4.6-3.4 1.1-5.8 1.1c-5.3 0-8.5-3.3-8.5-8.4c0-4.6 2.8-8.9 8.1-8.9c5.4 0 7.1 4.4 7.1 8c0 .8 0 1.4-.1 1.8c0 0-11.1 0-11.1 0zm7.3-2.9c0-1.6-.6-4.1-3.4-4.1c-2.6 0-3.7 2.4-3.9 4.1c0 0 7.3 0 7.3 0zm22.6-14.1c0 0-.01 19.45 0 19.5c0 1.7.1 3.5.1 4.6c.02.01-3.7 0-3.7 0l-.2-2.6c0 0-.06 0-.1 0c-.9 1.8-3 3-5.4 3c-3.9 0-7-3.4-7-8.5c-.1-5.5 3.4-8.8 7.4-8.8c2.3 0 3.9.9 4.6 2.2c.04-.05.1 0 .1 0l0-9.4l4.2 0zm-4.2 14.5c0-.4 0-.8-.1-1.1c-.4-1.7-1.7-3-3.6-3c-2.7 0-4.2 2.4-4.2 5.5c0 3 1.5 5.2 4.2 5.2c1.7 0 3.2-1.1 3.6-2.9c.1-.4.1-.8.1-1.3c0 0 0-2.4 0-2.4z" stroke="none" fill="#676767"/></g></svg>