<?xml version="1.0" standalone="no"?><!DOCTYPE svg PUBLIC "-//W3C//DTD SVG 1.1//EN" "http://www.w3.org/Graphics/SVG/1.1/DTD/svg11.dtd"><svg xmlns="http://www.w3.org/2000/svg" version="1.1" width="204.1px" height="38px" viewBox="0 -7 204.1 38" style="top:-7px"><desc>ERP/Source System</desc><defs/><g id="Polygon7387"><path d="m11.2 11.2l-5.9 0l0 3.8l6.6 0l0 3l-10.3 0l0-16.2l10 0l0 3l-6.3 0l0 3.4l5.9 0l0 3zm3.2-9.2c1.2-.2 2.9-.3 4.9-.3c2.4 0 4.1.4 5.2 1.3c1 .7 1.5 1.9 1.5 3.4c0 2-1.5 3.4-2.9 3.9c0 0 0 .1 0 .1c1.2.5 1.8 1.6 2.2 3c.5 1.9 1 4 1.3 4.6c0 0-3.7 0-3.7 0c-.3-.5-.7-1.8-1.2-3.8c-.4-2-1.1-2.5-2.6-2.6c.03.04-1.1 0-1.1 0l0 6.4l-3.6 0c0 0 0-15.96 0-16zm3.6 7c0 0 1.46 0 1.5 0c1.8 0 2.9-.9 2.9-2.3c0-1.5-1-2.3-2.7-2.3c-.9 0-1.4.1-1.7.1c.02.04 0 4.5 0 4.5zm10.6-7c1.2-.2 2.7-.3 5-.3c2.2 0 3.8.4 4.9 1.3c1.1.8 1.7 2.2 1.7 3.7c0 1.6-.5 3-1.4 3.9c-1.3 1.2-3.1 1.7-5.3 1.7c-.5 0-.9 0-1.2-.1c-.04.02 0 5.8 0 5.8l-3.7 0c0 0 .03-15.96 0-16zm3.7 7.4c.3.1.7.1 1.2.1c1.9 0 3.1-1 3.1-2.7c0-1.4-1-2.3-2.8-2.3c-.8 0-1.3 0-1.5.1c0 0 0 4.8 0 4.8zm9.1 9.6l5.1-17.4l2.4 0l-5.1 17.4l-2.4 0zm9.2-4.8c1 .5 2.5 1 4.1 1c1.7 0 2.6-.7 2.6-1.7c0-1-.8-1.6-2.7-2.3c-2.7-.9-4.5-2.4-4.5-4.8c0-2.7 2.3-4.8 6.1-4.8c1.9 0 3.2.3 4.2.8c0 0-.9 2.9-.9 2.9c-.6-.3-1.8-.7-3.3-.7c-1.6 0-2.4.7-2.4 1.5c0 1.1.9 1.5 3 2.3c2.9 1.1 4.2 2.5 4.2 4.8c0 2.7-2.1 5-6.5 5c-1.9 0-3.7-.4-4.6-.9c0 0 .7-3.1.7-3.1zm24.5-2.2c0 4.3-3 6.3-6.2 6.3c-3.4 0-6-2.3-6-6.1c0-3.8 2.5-6.2 6.2-6.2c3.6 0 6 2.5 6 6zm-8.5.1c0 2 .9 3.5 2.4 3.5c1.4 0 2.4-1.4 2.4-3.5c0-1.7-.7-3.5-2.4-3.5c-1.7 0-2.4 1.8-2.4 3.5zm21.8 2.1c0 1.6.1 2.8.1 3.8c.03 0-3.1 0-3.1 0l-.2-1.7c0 0-.07.04-.1 0c-.4.8-1.5 2-3.6 2c-2.4 0-4.2-1.5-4.2-5.1c.03-.05 0-6.9 0-6.9l3.7 0c0 0 0 6.28 0 6.3c0 1.7.6 2.7 1.8 2.7c1 0 1.6-.7 1.8-1.3c.1-.2.2-.5.2-.8c-.03.05 0-6.9 0-6.9l3.6 0c0 0 .04 7.93 0 7.9zm3-4.1c0-1.7-.1-2.8-.1-3.8c-.03-.04 3.1 0 3.1 0l.1 2.1c0 0 .13.02.1 0c.6-1.7 2.1-2.4 3.2-2.4c.3 0 .5 0 .8 0c0 0 0 3.5 0 3.5c-.3-.1-.6-.1-1-.1c-1.4 0-2.3.7-2.5 1.8c-.1.3-.1.6-.1.8c.01.05 0 6 0 6l-3.6 0c0 0-.03-7.87 0-7.9zm17.7 7.6c-.6.3-1.9.5-3.3.5c-3.8 0-6.2-2.3-6.2-6c0-3.4 2.4-6.2 6.7-6.2c1 0 2.1.2 2.8.5c0 0-.5 2.7-.5 2.7c-.5-.2-1.1-.4-2.1-.4c-1.9 0-3.2 1.4-3.1 3.3c0 2.2 1.4 3.3 3.2 3.3c.8 0 1.5-.2 2.1-.4c0 0 .4 2.7.4 2.7zm4.6-4.4c.1 1.5 1.6 2.2 3.3 2.2c1.2 0 2.2-.1 3.2-.5c0 0 .5 2.5.5 2.5c-1.2.5-2.7.7-4.3.7c-3.9 0-6.2-2.3-6.2-5.9c0-3 1.8-6.3 5.9-6.3c3.8 0 5.2 3 5.2 5.9c0 .6 0 1.1-.1 1.4c0 0-7.5 0-7.5 0zm4.3-2.5c0-.9-.4-2.4-2.1-2.4c-1.5 0-2.2 1.4-2.3 2.4c0 0 4.4 0 4.4 0zm10.6 3.4c1 .5 2.5 1 4.1 1c1.7 0 2.5-.7 2.5-1.7c0-1-.7-1.6-2.7-2.3c-2.7-.9-4.4-2.4-4.4-4.8c0-2.7 2.3-4.8 6.1-4.8c1.8 0 3.2.3 4.1.8c0 0-.8 2.9-.8 2.9c-.6-.3-1.8-.7-3.4-.7c-1.5 0-2.3.7-2.3 1.5c0 1.1.9 1.5 3 2.3c2.8 1.1 4.2 2.5 4.2 4.8c0 2.7-2.1 5-6.5 5c-1.9 0-3.7-.4-4.6-.9c0 0 .7-3.1.7-3.1zm15.1-7.9c0 0 1.76 5.72 1.8 5.7c.2.7.4 1.6.5 2.2c0 0 .1 0 .1 0c.2-.6.4-1.5.5-2.2c.04.02 1.5-5.7 1.5-5.7l3.9 0c0 0-2.75 7.69-2.7 7.7c-1.7 4.6-2.9 6.5-4.2 7.7c-1.2 1.1-2.6 1.5-3.5 1.6c0 0-.8-3.1-.8-3.1c.5-.1 1.1-.3 1.6-.6c.6-.3 1.2-.9 1.5-1.5c.1-.1.2-.3.2-.5c0-.1 0-.3-.1-.6c-.05-.01-4.3-10.7-4.3-10.7l4 0zm9.4 8.5c.7.4 2.1.9 3.2.9c1.1 0 1.5-.4 1.5-1c0-.6-.3-.9-1.7-1.3c-2.4-.8-3.4-2.2-3.3-3.6c0-2.1 1.8-3.8 4.7-3.8c1.4 0 2.6.3 3.3.7c0 0-.6 2.5-.6 2.5c-.5-.3-1.5-.7-2.5-.7c-.9 0-1.4.4-1.4 1c0 .5.4.8 1.9 1.3c2.2.8 3.1 1.9 3.2 3.6c0 2.2-1.8 3.8-5.1 3.8c-1.6 0-2.9-.3-3.8-.8c0 0 .6-2.6.6-2.6zm14.5-11.9l0 3.4l2.7 0l0 2.7l-2.7 0c0 0 .04 4.2 0 4.2c0 1.4.4 2.1 1.5 2.1c.4 0 .8-.1 1.1-.1c0 0 0 2.7 0 2.7c-.5.2-1.4.3-2.4.3c-1.2 0-2.2-.4-2.7-1c-.7-.7-1-1.8-1-3.4c-.04-.05 0-4.8 0-4.8l-1.6 0l0-2.7l1.6 0l0-2.6l3.5-.8zm7.5 10.4c.1 1.5 1.6 2.2 3.3 2.2c1.2 0 2.2-.1 3.2-.5c0 0 .5 2.5.5 2.5c-1.2.5-2.7.7-4.3.7c-3.9 0-6.2-2.3-6.2-5.9c0-3 1.8-6.3 5.9-6.3c3.8 0 5.2 3 5.2 5.9c0 .6 0 1.1-.1 1.4c0 0-7.5 0-7.5 0zm4.3-2.5c0-.9-.4-2.4-2.1-2.4c-1.5 0-2.2 1.4-2.3 2.4c0 0 4.4 0 4.4 0zm5.5-.8c0-1.5 0-2.7-.1-3.7c.02-.04 3.1 0 3.1 0l.2 1.5c0 0 .03.05 0 0c.5-.7 1.6-1.8 3.6-1.8c1.5 0 2.7.8 3.2 2c0 0 .1 0 .1 0c.4-.6.9-1.1 1.5-1.4c.6-.4 1.3-.6 2.2-.6c2.3 0 4 1.6 4 5.1c-.05-.01 0 6.9 0 6.9l-3.6 0c0 0 0-6.38 0-6.4c0-1.7-.5-2.7-1.7-2.7c-.9 0-1.5.6-1.7 1.3c-.1.3-.1.6-.1.9c-.05.04 0 6.9 0 6.9l-3.6 0c0 0 0-6.58 0-6.6c0-1.5-.5-2.5-1.7-2.5c-.9 0-1.5.7-1.7 1.3c-.1.3-.1.7-.1 1c-.03-.04 0 6.8 0 6.8l-3.6 0c0 0 .02-7.99 0-8z" stroke="none" fill="#15345e"/></g></svg>