<?xml version="1.0" standalone="no"?><!DOCTYPE svg PUBLIC "-//W3C//DTD SVG 1.1//EN" "http://www.w3.org/Graphics/SVG/1.1/DTD/svg11.dtd"><svg xmlns="http://www.w3.org/2000/svg" version="1.1" width="415.3px" height="131.5px" viewBox="0 -12 415.3 131.5" style="top:-12px"><desc>Here’s how we do it</desc><defs/><g id="Polygon7611"><path d="m129.2 69.1c0 0 2.55 11.1 2.5 11.1c.6 2.6 1.1 5.2 1.6 7.9c0 0 .1 0 .1 0c.5-2.7 1.3-5.3 2-7.8c0-.05 3.1-11.2 3.1-11.2l5 0c0 0 3.1 10.85 3.1 10.8c.7 2.9 1.4 5.5 1.9 8.2c0 0 .1 0 .1 0c.4-2.7 1-5.3 1.6-8.2c.05.05 2.7-10.8 2.7-10.8l6.1 0l-7.7 24.4l-5.7 0c0 0-2.85-9.9-2.9-9.9c-.7-2.5-1.3-4.8-1.8-7.8c0 0-.1 0-.1 0c-.5 3-1.2 5.4-1.9 7.8c.05 0-3.1 9.9-3.1 9.9l-5.7 0l-7.2-24.4l6.3 0zm37.4 14c.2 4.3 3.6 6.2 7.5 6.2c2.9 0 4.9-.4 6.8-1c0 0 .9 4.2.9 4.2c-2.1.8-5 1.5-8.5 1.5c-7.9 0-12.6-4.8-12.6-12.3c0-6.8 4.1-13.1 11.9-13.1c7.9 0 10.5 6.5 10.5 11.8c0 1.2-.1 2.1-.2 2.7c0 0-16.3 0-16.3 0zm10.7-4.3c.1-2.3-.9-6-5-6c-3.8 0-5.4 3.5-5.7 6c0 0 10.7 0 10.7 0zm43.6-20.8c0 0 0 28.65 0 28.7c0 2.5.1 5.2.2 6.8c0 0-5.5 0-5.5 0l-.3-3.9c0 0-.05.05-.1 0c-1.4 2.8-4.4 4.5-7.9 4.5c-5.8 0-10.4-5-10.4-12.5c-.1-8.2 5-13 10.9-13c3.3 0 5.7 1.4 6.8 3.2c.05 0 .1 0 .1 0l0-13.8l6.2 0zm-6.2 21.3c0-.5 0-1.1-.1-1.6c-.6-2.4-2.5-4.3-5.3-4.3c-4 0-6.2 3.5-6.2 8c0 4.4 2.2 7.7 6.1 7.7c2.5 0 4.7-1.7 5.3-4.3c.2-.6.2-1.2.2-1.9c0 0 0-3.6 0-3.6zm35.9 1.8c0 8.9-6.3 13-12.5 13c-6.9 0-12.2-4.8-12.2-12.6c0-8 5.3-12.9 12.6-12.9c7.3 0 12.1 5.1 12.1 12.5zm-18.3.2c0 4.7 2.3 8.3 6 8.3c3.5 0 6-3.4 6-8.3c0-3.9-1.7-8.2-5.9-8.2c-4.4 0-6.1 4.2-6.1 8.2zm33.7 12.2l0-24.4l6.2 0l0 24.4l-6.2 0zm6.6-31.1c0 1.8-1.4 3.2-3.5 3.2c-2.1 0-3.4-1.4-3.4-3.2c0-1.9 1.4-3.4 3.4-3.4c2.1 0 3.4 1.5 3.5 3.4zm13.3-.2l0 6.9l5.8 0l0 4.7l-5.8 0c0 0 0 10.7 0 10.7c0 2.9.8 4.5 3.1 4.5c1.1 0 1.9-.2 2.4-.3c0 0 .1 4.7.1 4.7c-.9.4-2.5.6-4.4.6c-2.3 0-4.2-.7-5.3-2c-1.3-1.4-1.9-3.6-1.9-6.8c0 0 0-11.4 0-11.4l-3.5 0l0-4.7l3.5 0l0-5.5l6-1.4z" stroke="none" fill="#fff"/></g><g id="Polygon7610"><path d="m100.3 3.8l0 13.5l14.3 0l0-13.5l6.1 0l0 33.7l-6.1 0l0-14.9l-14.3 0l0 14.9l-6.1 0l0-33.7l6.1 0zm31.6 23.3c.1 4.3 3.6 6.2 7.5 6.2c2.8 0 4.9-.4 6.7-1c0 0 .9 4.2.9 4.2c-2.1.8-5 1.5-8.5 1.5c-7.9 0-12.5-4.8-12.5-12.3c0-6.8 4.1-13.1 11.9-13.1c7.9 0 10.5 6.5 10.5 11.8c0 1.2-.1 2.1-.2 2.7c0 0-16.3 0-16.3 0zm10.7-4.3c0-2.3-1-6-5.1-6c-3.8 0-5.4 3.5-5.6 6c0 0 10.7 0 10.7 0zm10.7-1.8c0-3.3 0-5.6-.2-7.9c.02.05 5.4 0 5.4 0l.2 4.7c0 0 .17 0 .2 0c1.2-3.4 4-5.2 6.6-5.2c.6 0 1 0 1.5.2c0 0 0 5.7 0 5.7c-.5-.1-1.1-.1-1.8-.1c-3 0-5 1.9-5.5 4.6c-.1.6-.2 1.2-.2 1.9c-.03 0 0 12.6 0 12.6l-6.2 0c0 0 .02-16.5 0-16.5zm21.7 6.1c.2 4.3 3.6 6.2 7.5 6.2c2.9 0 4.9-.4 6.8-1c0 0 .9 4.2.9 4.2c-2.1.8-5 1.5-8.5 1.5c-7.9 0-12.6-4.8-12.6-12.3c0-6.8 4.1-13.1 11.9-13.1c7.9 0 10.5 6.5 10.5 11.8c0 1.2-.1 2.1-.2 2.7c0 0-16.3 0-16.3 0zm10.7-4.3c.1-2.3-.9-6-5-6c-3.8 0-5.4 3.5-5.7 6c0 0 10.7 0 10.7 0zm16.9-19.5c-1.3 4.5-3.5 9.6-5.4 12.7c0 0-3.7.4-3.7.4c1.3-3.6 2.6-8.6 3.2-12.7c0 0 5.9-.4 5.9-.4zm0 28.5c1.4.9 4.1 1.8 6.3 1.8c2.7 0 3.9-1.1 3.9-2.7c0-1.6-1-2.5-4-3.6c-4.8-1.6-6.8-4.2-6.7-7c0-4.4 3.5-7.7 9.2-7.7c2.7 0 5 .7 6.4 1.4c0 0-1.2 4.4-1.2 4.4c-1-.6-3-1.4-5.1-1.4c-2.2 0-3.4 1-3.4 2.5c0 1.6 1.1 2.3 4.2 3.4c4.4 1.7 6.5 3.9 6.5 7.5c0 4.4-3.4 7.6-9.9 7.6c-2.9 0-5.6-.7-7.4-1.7c0 0 1.2-4.5 1.2-4.5zm31.5-29.8l6.2 0l0 14.5c0 0 .12 0 .1 0c.8-1.1 1.8-2.1 3.1-2.8c1.2-.7 2.6-1.1 4.2-1.1c4.1 0 8.5 2.8 8.5 10.5c-.03.05 0 14.4 0 14.4l-6.2 0c0 0 .02-13.65 0-13.7c0-3.5-1.3-6.2-4.7-6.2c-2.4 0-4.1 1.7-4.7 3.5c-.2.5-.3 1.2-.3 1.8c.02.05 0 14.6 0 14.6l-6.2 0l0-35.5zm51.8 23.1c0 8.9-6.3 13-12.5 13c-6.9 0-12.2-4.8-12.2-12.6c0-8 5.2-12.9 12.6-12.9c7.2 0 12.1 5.1 12.1 12.5zm-18.4.2c0 4.7 2.3 8.3 6.1 8.3c3.5 0 5.9-3.4 5.9-8.3c0-3.9-1.7-8.2-5.9-8.2c-4.3 0-6.1 4.2-6.1 8.2zm26.7-12.2c0 0 2.57 11.1 2.6 11.1c.5 2.6 1.1 5.2 1.5 7.9c0 0 .1 0 .1 0c.5-2.7 1.3-5.3 2-7.8c.02-.05 3.2-11.2 3.2-11.2l5 0c0 0 3.02 10.85 3 10.8c.8 2.9 1.4 5.5 2 8.2c0 0 .1 0 .1 0c.4-2.7.9-5.3 1.6-8.2c-.03.05 2.7-10.8 2.7-10.8l6 0l-7.6 24.4l-5.7 0c0 0-2.93-9.9-2.9-9.9c-.8-2.5-1.3-4.8-1.9-7.8c0 0-.1 0-.1 0c-.5 3-1.1 5.4-1.8 7.8c-.03 0-3.1 9.9-3.1 9.9l-5.8 0l-7.2-24.4l6.3 0z" stroke="none" fill="#fff"/></g></svg>