<?xml version="1.0" standalone="no"?><!DOCTYPE svg PUBLIC "-//W3C//DTD SVG 1.1//EN" "http://www.w3.org/Graphics/SVG/1.1/DTD/svg11.dtd"><svg xmlns="http://www.w3.org/2000/svg" version="1.1" width="444px" height="176.5px" viewBox="0 -8 444 176.5" style="top:-8px"><desc>ITC setoffs to minimize cashflows Intelligent ITC setoff mechanism goes beyond the set rules to save on the cashflows...</desc><defs/><g id="Polygon7110"><path d="m15.3 145.1c0 5.4-3.7 7.7-7.2 7.7c-3.9 0-7-2.8-7-7.4c0-4.9 3.2-7.7 7.2-7.7c4.2 0 7 3 7 7.4zm-11.5.2c0 3.2 1.8 5.6 4.4 5.6c2.5 0 4.4-2.4 4.4-5.7c0-2.4-1.2-5.6-4.3-5.6c-3.1 0-4.5 2.9-4.5 5.7zm14.9-3.4c0-1.5-.1-2.7-.2-3.9c.04-.02 2.4 0 2.4 0l.1 2.4c0 0 .09-.02.1 0c.7-1.4 2.4-2.7 4.8-2.7c2 0 5.1 1.2 5.1 6.1c.02.03 0 8.7 0 8.7l-2.6 0c0 0-.02-8.37 0-8.4c0-2.3-.9-4.3-3.4-4.3c-1.7 0-3.1 1.3-3.5 2.7c-.1.4-.2.8-.2 1.3c0-.03 0 8.7 0 8.7l-2.6 0c0 0-.04-10.59 0-10.6zm26.1-8.1l0 4.2l3.8 0l0 2l-3.8 0c0 0 .05 7.82 0 7.8c0 1.8.6 2.8 2 2.8c.7 0 1.2 0 1.6-.1c0 0 .1 1.9.1 1.9c-.5.2-1.3.4-2.4.4c-1.2 0-2.2-.4-2.8-1.1c-.8-.8-1-2.1-1-3.8c-.03.01 0-7.9 0-7.9l-2.3 0l0-2l2.3 0l0-3.5l2.5-.7zm6.8-2.6l2.6 0l0 9.1c0 0 .1-.04.1 0c.4-.8 1.1-1.4 1.9-1.9c.8-.4 1.7-.7 2.7-.7c1.9 0 5.1 1.2 5.1 6.2c-.04-.04 0 8.6 0 8.6l-2.7 0c0 0 .02-8.34 0-8.3c0-2.4-.9-4.4-3.3-4.4c-1.8 0-3.1 1.2-3.6 2.7c-.1.3-.2.7-.2 1.2c.04.04 0 8.8 0 8.8l-2.6 0l0-21.3zm18.1 14.5c.1 3.6 2.4 5.1 5 5.1c1.9 0 3-.4 4-.8c0 0 .5 1.9.5 1.9c-1 .4-2.6.9-4.9.9c-4.4 0-7.1-2.9-7.1-7.3c0-4.4 2.6-7.8 6.8-7.8c4.7 0 6 4.1 6 6.8c0 .5-.1 1-.1 1.2c0 0-10.2 0-10.2 0zm7.8-1.9c0-1.6-.7-4.3-3.7-4.3c-2.7 0-3.8 2.5-4.1 4.3c0 0 7.8 0 7.8 0zm22.5 8.2c-.7.3-2.2.8-4.2.8c-4.4 0-7.2-3-7.2-7.4c0-4.5 3-7.7 7.8-7.7c1.5 0 2.9.4 3.6.7c0 0-.6 2.1-.6 2.1c-.6-.4-1.6-.7-3-.7c-3.3 0-5.1 2.4-5.1 5.5c0 3.3 2.1 5.4 5 5.4c1.5 0 2.5-.4 3.2-.7c0 0 .5 2 .5 2zm11.1.5l-.2-1.8c0 0-.08-.03-.1 0c-.8 1.1-2.4 2.1-4.4 2.1c-3 0-4.5-2-4.5-4.1c0-3.5 3.2-5.5 8.8-5.4c0 0 0-.3 0-.3c0-1.2-.4-3.4-3.3-3.4c-1.4 0-2.8.4-3.8 1.1c0 0-.6-1.8-.6-1.8c1.2-.7 2.9-1.2 4.8-1.2c4.4 0 5.5 3 5.5 5.9c0 0 0 5.4 0 5.4c0 1.3 0 2.5.2 3.5c.02 0-2.4 0-2.4 0zm-.4-7.4c-2.9-.1-6.1.4-6.1 3.3c0 1.7 1.1 2.5 2.5 2.5c1.9 0 3.1-1.2 3.5-2.4c.1-.3.1-.6.1-.9c0 0 0-2.5 0-2.5zm6.5 4.7c.8.5 2.1 1.1 3.5 1.1c1.9 0 2.8-1 2.8-2.2c0-1.3-.8-2-2.7-2.7c-2.6-.9-3.9-2.3-3.9-4.1c0-2.3 1.9-4.2 5-4.2c1.5 0 2.8.4 3.6.9c0 0-.6 1.9-.6 1.9c-.6-.4-1.7-.9-3-.9c-1.6 0-2.4.9-2.4 2c0 1.2.8 1.8 2.7 2.5c2.5.9 3.8 2.2 3.8 4.4c0 2.5-2 4.3-5.4 4.3c-1.6 0-3.1-.4-4.1-1c0 0 .7-2 .7-2zm12.2-18.6l2.7 0l0 9.1c0 0 .02-.04 0 0c.4-.8 1.1-1.4 1.9-1.9c.8-.4 1.7-.7 2.7-.7c2 0 5.1 1.2 5.1 6.2c-.02-.04 0 8.6 0 8.6l-2.7 0c0 0 .04-8.34 0-8.3c0-2.4-.8-4.4-3.3-4.4c-1.7 0-3.1 1.2-3.6 2.7c-.1.3-.1.7-.1 1.2c-.04.04 0 8.8 0 8.8l-2.7 0l0-21.3zm16.9 21.3l0-12.5l-2 0l0-2l2 0c0 0 .04-.65 0-.6c0-2.1.7-3.9 2.1-5.1c1.1-.9 2.6-1.4 4.6-1.4c1.7 0 3.3.3 4.4.9c-.02.03 0 20.7 0 20.7l-2.6 0c0 0-.03-19.2 0-19.2c-.5-.2-1.2-.4-2.2-.4c-2.8 0-3.7 2-3.7 4.4c.05-.04 0 .7 0 .7l3.4 0l0 2l-3.4 0l0 12.5l-2.6 0zm28.6-7.4c0 5.4-3.7 7.7-7.2 7.7c-4 0-7-2.8-7-7.4c0-4.9 3.2-7.7 7.2-7.7c4.2 0 7 3 7 7.4zm-11.5.2c0 3.2 1.8 5.6 4.4 5.6c2.5 0 4.4-2.4 4.4-5.7c0-2.4-1.2-5.6-4.4-5.6c-3.1 0-4.4 2.9-4.4 5.7zm15.7-7.3c0 0 1.89 7.36 1.9 7.4c.4 1.6.8 3.1 1.1 4.6c0 0 .1 0 .1 0c.3-1.5.8-3 1.2-4.6c.05-.01 2.4-7.4 2.4-7.4l2.2 0c0 0 2.29 7.24 2.3 7.2c.5 1.8.9 3.3 1.3 4.8c0 0 .1 0 .1 0c.2-1.5.6-3 1.1-4.7c-.02-.03 2-7.3 2-7.3l2.7 0l-4.7 14.5l-2.4 0c0 0-2.24-6.93-2.2-6.9c-.6-1.7-1-3.1-1.3-4.8c0 0-.1 0-.1 0c-.4 1.7-.8 3.2-1.3 4.8c-.01 0-2.4 6.9-2.4 6.9l-2.4 0l-4.3-14.5l2.7 0zm20.5 11.8c.7.5 2.1 1.1 3.4 1.1c2 0 2.9-1 2.9-2.2c0-1.3-.8-2-2.7-2.7c-2.7-.9-3.9-2.3-3.9-4.1c0-2.3 1.9-4.2 5-4.2c1.5 0 2.8.4 3.6.9c0 0-.7 1.9-.7 1.9c-.5-.4-1.6-.9-2.9-.9c-1.6 0-2.5.9-2.5 2c0 1.2.9 1.8 2.8 2.5c2.5.9 3.8 2.2 3.8 4.4c0 2.5-2 4.3-5.4 4.3c-1.6 0-3.1-.4-4.1-1c0 0 .7-2 .7-2zm18.8 2.7l0-12.5l-2 0l0-2l2 0c0 0 .03-.71 0-.7c0-2 .5-3.9 1.7-5.1c1-.9 2.3-1.3 3.5-1.3c1 0 1.8.2 2.3.4c0 0-.4 2-.4 2c-.4-.2-.9-.3-1.6-.3c-2.3 0-2.9 2-2.9 4.2c.04 0 0 .8 0 .8l3.5 0l0 2l-3.5 0l0 12.5l-2.6 0zm21.3-7.4c0 5.4-3.8 7.7-7.3 7.7c-3.9 0-6.9-2.8-6.9-7.4c0-4.9 3.2-7.7 7.2-7.7c4.1 0 7 3 7 7.4zm-11.6.2c0 3.2 1.9 5.6 4.5 5.6c2.5 0 4.4-2.4 4.4-5.7c0-2.4-1.3-5.6-4.4-5.6c-3.1 0-4.5 2.9-4.5 5.7zm14.9-2.8c0-1.7 0-3.2-.1-4.5c-.02-.02 2.3 0 2.3 0l.1 2.8c0 0 .1.03.1 0c.7-1.9 2.2-3.1 4-3.1c.3 0 .5 0 .8 0c0 0 0 2.5 0 2.5c-.3 0-.6-.1-.9-.1c-1.9 0-3.2 1.5-3.6 3.4c0 .4-.1.8-.1 1.3c.01-.04 0 7.7 0 7.7l-2.6 0c0 0 0-9.99 0-10zm19.3-8.7l0 4.2l3.8 0l0 2l-3.8 0c0 0 .05 7.82 0 7.8c0 1.8.6 2.8 2 2.8c.7 0 1.2 0 1.6-.1c0 0 .1 1.9.1 1.9c-.5.2-1.3.4-2.4.4c-1.2 0-2.2-.4-2.8-1.1c-.8-.8-1-2.1-1-3.8c-.03.01 0-7.9 0-7.9l-2.3 0l0-2l2.3 0l0-3.5l2.5-.7zm6.8-2.6l2.6 0l0 9.1c0 0 .1-.04.1 0c.4-.8 1.1-1.4 1.9-1.9c.8-.4 1.7-.7 2.7-.7c1.9 0 5.1 1.2 5.1 6.2c-.04-.04 0 8.6 0 8.6l-2.7 0c0 0 .02-8.34 0-8.3c0-2.4-.9-4.4-3.3-4.4c-1.8 0-3.1 1.2-3.6 2.7c-.1.3-.2.7-.2 1.2c.04.04 0 8.8 0 8.8l-2.6 0l0-21.3zm18.1 14.5c.1 3.6 2.4 5.1 5 5.1c1.9 0 3-.4 4-.8c0 0 .5 1.9.5 1.9c-1 .4-2.6.9-4.9.9c-4.4 0-7.1-2.9-7.1-7.3c0-4.4 2.6-7.8 6.8-7.8c4.7 0 6 4.1 6 6.8c0 .5-.1 1-.1 1.2c0 0-10.2 0-10.2 0zm7.8-1.9c0-1.6-.7-4.3-3.7-4.3c-2.7 0-3.8 2.5-4.1 4.3c0 0 7.8 0 7.8 0zm12 8.7c.1-1 .1-2.5.1-3.7c.04-.05 0-17.6 0-17.6l2.6 0l0 9.1c0 0 .11.02.1 0c.9-1.6 2.6-2.6 5-2.6c3.6 0 6.1 3 6.1 7.4c0 5.2-3.3 7.7-6.5 7.7c-2.1 0-3.8-.8-4.9-2.7c.01 0-.1 0-.1 0l-.1 2.4c0 0-2.28 0-2.3 0zm2.7-5.8c0 .3.1.6.2.9c.5 1.9 2 3.1 3.9 3.1c2.8 0 4.4-2.2 4.4-5.5c0-3-1.5-5.4-4.3-5.4c-1.8 0-3.5 1.2-4 3.2c-.1.3-.2.7-.2 1.1c0 0 0 2.6 0 2.6zm26.7 1.8c0 1.5 0 2.9.1 4c-.02 0-2.4 0-2.4 0l-.1-2.4c0 0-.07.03-.1 0c-.7 1.2-2.2 2.7-4.8 2.7c-2.3 0-5-1.2-5-6.3c.02-.03 0-8.5 0-8.5l2.7 0c0 0-.04 8.02 0 8c0 2.8.8 4.6 3.2 4.6c1.8 0 3-1.2 3.5-2.4c.1-.4.2-.8.2-1.3c.02-.01 0-8.9 0-8.9l2.7 0c0 0-.04 10.54 0 10.5zm4 1.3c.8.5 2.1 1.1 3.5 1.1c1.9 0 2.8-1 2.8-2.2c0-1.3-.8-2-2.7-2.7c-2.6-.9-3.9-2.3-3.9-4.1c0-2.3 1.9-4.2 5-4.2c1.5 0 2.8.4 3.6.9c0 0-.6 1.9-.6 1.9c-.6-.4-1.7-.9-3-.9c-1.6 0-2.4.9-2.4 2c0 1.2.8 1.8 2.7 2.5c2.5.9 3.8 2.2 3.8 4.4c0 2.5-2 4.3-5.4 4.3c-1.6 0-3.1-.4-4.1-1c0 0 .7-2 .7-2zm12.2 2.7l0-14.5l2.7 0l0 14.5l-2.7 0zm3-18.6c0 .9-.7 1.6-1.7 1.6c-1 0-1.6-.7-1.6-1.6c0-.9.7-1.6 1.6-1.6c1 0 1.7.7 1.7 1.6zm4 8c0-1.5 0-2.7-.1-3.9c.02-.02 2.4 0 2.4 0l.1 2.4c0 0 .07-.02.1 0c.7-1.4 2.4-2.7 4.8-2.7c2 0 5.1 1.2 5.1 6.1c0 .03 0 8.7 0 8.7l-2.6 0c0 0-.04-8.37 0-8.4c0-2.3-.9-4.3-3.4-4.3c-1.7 0-3.1 1.3-3.5 2.7c-.2.4-.2.8-.2 1.3c-.02-.03 0 8.7 0 8.7l-2.7 0c0 0 .04-10.59 0-10.6zm18.2 3.8c0 3.6 2.3 5.1 4.9 5.1c1.9 0 3.1-.4 4.1-.8c0 0 .4 1.9.4 1.9c-.9.4-2.5.9-4.8.9c-4.5 0-7.2-2.9-7.2-7.3c0-4.4 2.6-7.8 6.8-7.8c4.8 0 6 4.1 6 6.8c0 .5 0 1 0 1.2c0 0-10.2 0-10.2 0zm7.7-1.9c0-1.6-.7-4.3-3.7-4.3c-2.6 0-3.8 2.5-4 4.3c0 0 7.7 0 7.7 0zm5.5 6c.7.5 2.1 1.1 3.4 1.1c2 0 2.9-1 2.9-2.2c0-1.3-.8-2-2.7-2.7c-2.7-.9-3.9-2.3-3.9-4.1c0-2.3 1.9-4.2 5-4.2c1.5 0 2.8.4 3.6.9c0 0-.7 1.9-.7 1.9c-.5-.4-1.6-.9-2.9-.9c-1.6 0-2.5.9-2.5 2c0 1.2.9 1.8 2.8 2.5c2.5.9 3.8 2.2 3.8 4.4c0 2.5-2 4.3-5.4 4.3c-1.6 0-3.1-.4-4.1-1c0 0 .7-2 .7-2zm11.8 0c.8.5 2.2 1.1 3.5 1.1c1.9 0 2.8-1 2.8-2.2c0-1.3-.7-2-2.7-2.7c-2.6-.9-3.8-2.3-3.8-4.1c0-2.3 1.9-4.2 5-4.2c1.5 0 2.8.4 3.6.9c0 0-.7 1.9-.7 1.9c-.6-.4-1.6-.9-3-.9c-1.5 0-2.4.9-2.4 2c0 1.2.9 1.8 2.8 2.5c2.5.9 3.8 2.2 3.8 4.4c0 2.5-2 4.3-5.4 4.3c-1.6 0-3.1-.4-4.1-1c0 0 .6-2 .6-2zm11.3 1.1c0-1.1.8-1.8 1.8-1.8c1.1 0 1.8.7 1.8 1.8c0 1.1-.7 1.9-1.8 1.9c-1.1 0-1.8-.8-1.8-1.9z" stroke="none" fill="#3c3c3b"/></g><g id="Polygon7109"><path d="m14.7 98c-.1 1-.1 2.2-.1 4c0 0 0 8.4 0 8.4c0 3.3-.7 5.4-2.1 6.6c-1.4 1.3-3.4 1.8-5.3 1.8c-1.7 0-3.6-.5-4.8-1.2c0 0 .7-2 .7-2c.9.6 2.4 1.1 4.2 1.1c2.7 0 4.7-1.4 4.7-5.1c0 .03 0-1.6 0-1.6c0 0-.06.01-.1 0c-.8 1.4-2.3 2.4-4.6 2.4c-3.6 0-6.2-3-6.2-7c0-5 3.2-7.7 6.6-7.7c2.5 0 3.9 1.3 4.5 2.5c.01-.03.1 0 .1 0l.1-2.2c0 0 2.3-.02 2.3 0zm-2.7 5.7c0-.4-.1-.8-.2-1.2c-.5-1.5-1.7-2.8-3.7-2.8c-2.5 0-4.3 2.2-4.3 5.5c0 2.9 1.5 5.2 4.3 5.2c1.6 0 3.1-1 3.7-2.7c.1-.4.2-.9.2-1.4c0 0 0-2.6 0-2.6zm20.1 1.4c0 5.4-3.7 7.7-7.2 7.7c-4 0-7-2.8-7-7.4c0-4.9 3.2-7.7 7.2-7.7c4.2 0 7 3 7 7.4zm-11.5.2c0 3.2 1.8 5.6 4.4 5.6c2.5 0 4.4-2.4 4.4-5.7c0-2.4-1.2-5.6-4.4-5.6c-3.1 0-4.4 2.9-4.4 5.7zm16.3.4c.1 3.6 2.3 5.1 5 5.1c1.9 0 3-.4 4-.8c0 0 .4 1.9.4 1.9c-.9.4-2.5.9-4.8.9c-4.5 0-7.1-2.9-7.1-7.3c0-4.4 2.6-7.8 6.8-7.8c4.7 0 6 4.1 6 6.8c0 .5-.1 1-.1 1.2c0 0-10.2 0-10.2 0zm7.7-1.9c.1-1.6-.7-4.3-3.6-4.3c-2.7 0-3.9 2.5-4.1 4.3c0 0 7.7 0 7.7 0zm5.5 6c.8.5 2.2 1.1 3.5 1.1c1.9 0 2.8-1 2.8-2.2c0-1.3-.8-2-2.7-2.7c-2.6-.9-3.8-2.3-3.8-4.1c0-2.3 1.8-4.2 5-4.2c1.4 0 2.7.4 3.5.9c0 0-.6 1.9-.6 1.9c-.6-.4-1.6-.9-3-.9c-1.6 0-2.4.9-2.4 2c0 1.2.8 1.8 2.7 2.5c2.6.9 3.8 2.2 3.8 4.4c0 2.5-1.9 4.3-5.4 4.3c-1.6 0-3-.4-4.1-1c0 0 .7-2 .7-2zm18.5 2.7c0-1 .1-2.5.1-3.7c0-.05 0-17.6 0-17.6l2.6 0l0 9.1c0 0 .07.02.1 0c.9-1.6 2.6-2.6 4.9-2.6c3.6 0 6.2 3 6.1 7.4c0 5.2-3.2 7.7-6.5 7.7c-2.1 0-3.8-.8-4.8-2.7c-.03 0-.1 0-.1 0l-.1 2.4c0 0-2.32 0-2.3 0zm2.7-5.8c0 .3.1.6.1.9c.5 1.9 2.1 3.1 4 3.1c2.7 0 4.4-2.2 4.4-5.5c0-3-1.5-5.4-4.3-5.4c-1.8 0-3.5 1.2-4 3.2c-.1.3-.2.7-.2 1.1c0 0 0 2.6 0 2.6zm15.9-1c.1 3.6 2.4 5.1 5 5.1c1.9 0 3-.4 4-.8c0 0 .5 1.9.5 1.9c-.9.4-2.5.9-4.8.9c-4.5 0-7.2-2.9-7.2-7.3c0-4.4 2.6-7.8 6.8-7.8c4.8 0 6 4.1 6 6.8c0 .5 0 1-.1 1.2c0 0-10.2 0-10.2 0zm7.8-1.9c0-1.6-.7-4.3-3.7-4.3c-2.7 0-3.8 2.5-4 4.3c0 0 7.7 0 7.7 0zm6.8-5.8c0 0 3.14 8.56 3.1 8.6c.4.9.7 2.1 1 2.9c0 0 0 0 0 0c.3-.8.6-1.9 1-3c-.04 0 2.8-8.5 2.8-8.5l2.8 0c0 0-3.93 10.33-3.9 10.3c-1.9 5-3.2 7.6-5 9.1c-1.3 1.2-2.6 1.6-3.3 1.7c0 0-.6-2.2-.6-2.2c.6-.2 1.5-.6 2.3-1.3c.7-.6 1.6-1.6 2.2-2.9c.1-.3.2-.5.2-.6c0-.2 0-.4-.2-.7c.05-.04-5.3-13.4-5.3-13.4l2.9 0zm26 7.1c0 5.4-3.8 7.7-7.3 7.7c-3.9 0-6.9-2.8-6.9-7.4c0-4.9 3.2-7.7 7.2-7.7c4.1 0 7 3 7 7.4zm-11.6.2c0 3.2 1.9 5.6 4.5 5.6c2.5 0 4.4-2.4 4.4-5.7c0-2.4-1.3-5.6-4.4-5.6c-3.1 0-4.5 2.9-4.5 5.7zm14.9-3.4c0-1.5 0-2.7-.1-3.9c-.02-.02 2.3 0 2.3 0l.2 2.4c0 0 .03-.02 0 0c.7-1.4 2.4-2.7 4.8-2.7c2 0 5.2 1.2 5.2 6.1c-.04.03 0 8.7 0 8.7l-2.7 0c0 0 .02-8.37 0-8.4c0-2.3-.9-4.3-3.3-4.3c-1.8 0-3.1 1.3-3.6 2.7c-.1.4-.2.8-.2 1.3c.04-.03 0 8.7 0 8.7l-2.6 0c0 0 0-10.59 0-10.6zm29.2-10.7c0 0-.01 17.55 0 17.6c0 1.2 0 2.7.1 3.7c.01 0-2.4 0-2.4 0l-.1-2.5c0 0-.04-.02 0 0c-.9 1.6-2.6 2.8-5 2.8c-3.5 0-6.2-2.9-6.2-7.3c0-4.9 3-7.8 6.5-7.8c2.2 0 3.7 1 4.4 2.2c-.01-.03 0 0 0 0l0-8.7l2.7 0zm-2.7 12.7c0-.3 0-.8-.1-1.1c-.4-1.7-1.8-3.1-3.8-3.1c-2.7 0-4.3 2.4-4.3 5.6c0 3 1.4 5.4 4.3 5.4c1.7 0 3.3-1.2 3.8-3.1c.1-.4.1-.8.1-1.2c0 0 0-2.5 0-2.5zm16.6-10.1l0 4.2l3.8 0l0 2l-3.8 0c0 0 .01 7.82 0 7.8c0 1.8.5 2.8 2 2.8c.7 0 1.2 0 1.5-.1c0 0 .1 1.9.1 1.9c-.5.2-1.3.4-2.3.4c-1.2 0-2.2-.4-2.9-1.1c-.7-.8-1-2.1-1-3.8c.03.01 0-7.9 0-7.9l-2.2 0l0-2l2.2 0l0-3.5l2.6-.7zm6.8-2.6l2.6 0l0 9.1c0 0 .06-.04.1 0c.4-.8 1-1.4 1.8-1.9c.8-.4 1.8-.7 2.7-.7c2 0 5.1 1.2 5.1 6.2c.02-.04 0 8.6 0 8.6l-2.6 0c0 0-.02-8.34 0-8.3c0-2.4-.9-4.4-3.4-4.4c-1.7 0-3 1.2-3.5 2.7c-.2.3-.2.7-.2 1.2c0 .04 0 8.8 0 8.8l-2.6 0l0-21.3zm18.1 14.5c0 3.6 2.3 5.1 5 5.1c1.8 0 3-.4 4-.8c0 0 .4 1.9.4 1.9c-.9.4-2.5.9-4.8.9c-4.5 0-7.1-2.9-7.1-7.3c0-4.4 2.5-7.8 6.8-7.8c4.7 0 6 4.1 6 6.8c0 .5-.1 1-.1 1.2c0 0-10.2 0-10.2 0zm7.7-1.9c0-1.6-.7-4.3-3.6-4.3c-2.7 0-3.9 2.5-4.1 4.3c0 0 7.7 0 7.7 0zm11.8 6c.8.5 2.2 1.1 3.5 1.1c1.9 0 2.8-1 2.8-2.2c0-1.3-.7-2-2.7-2.7c-2.6-.9-3.8-2.3-3.8-4.1c0-2.3 1.9-4.2 5-4.2c1.5 0 2.8.4 3.6.9c0 0-.7 1.9-.7 1.9c-.6-.4-1.6-.9-3-.9c-1.5 0-2.4.9-2.4 2c0 1.2.9 1.8 2.8 2.5c2.5.9 3.8 2.2 3.8 4.4c0 2.5-2 4.3-5.4 4.3c-1.6 0-3.1-.4-4.1-1c0 0 .6-2 .6-2zm13.7-4.1c.1 3.6 2.4 5.1 5 5.1c1.9 0 3.1-.4 4-.8c0 0 .5 1.9.5 1.9c-.9.4-2.5.9-4.8.9c-4.5 0-7.2-2.9-7.2-7.3c0-4.4 2.6-7.8 6.8-7.8c4.8 0 6 4.1 6 6.8c0 .5 0 1-.1 1.2c0 0-10.2 0-10.2 0zm7.8-1.9c0-1.6-.7-4.3-3.7-4.3c-2.6 0-3.8 2.5-4 4.3c0 0 7.7 0 7.7 0zm9-10l0 4.2l3.8 0l0 2l-3.8 0c0 0-.01 7.82 0 7.8c0 1.8.5 2.8 2 2.8c.7 0 1.2 0 1.5-.1c0 0 .1 1.9.1 1.9c-.5.2-1.3.4-2.3.4c-1.3 0-2.2-.4-2.9-1.1c-.7-.8-1-2.1-1-3.8c.01.01 0-7.9 0-7.9l-2.2 0l0-2l2.2 0l0-3.5l2.6-.7zm13.1 8.7c0-1.7 0-3.2-.1-4.5c-.02-.02 2.3 0 2.3 0l.1 2.8c0 0 .1.03.1 0c.7-1.9 2.2-3.1 4-3.1c.3 0 .5 0 .8 0c0 0 0 2.5 0 2.5c-.3 0-.6-.1-.9-.1c-1.9 0-3.2 1.5-3.6 3.4c0 .4-.1.8-.1 1.3c.01-.04 0 7.7 0 7.7l-2.6 0c0 0 0-9.99 0-10zm22 6c0 1.5 0 2.9.1 4c-.02 0-2.4 0-2.4 0l-.1-2.4c0 0-.07.03-.1 0c-.7 1.2-2.2 2.7-4.8 2.7c-2.3 0-5-1.2-5-6.3c.02-.03 0-8.5 0-8.5l2.7 0c0 0-.04 8.02 0 8c0 2.8.8 4.6 3.2 4.6c1.8 0 3-1.2 3.5-2.4c.1-.4.2-.8.2-1.3c.02-.01 0-8.9 0-8.9l2.7 0c0 0-.04 10.54 0 10.5zm4.3-17.3l2.7 0l0 21.3l-2.7 0l0-21.3zm8.6 14.5c0 3.6 2.3 5.1 5 5.1c1.9 0 3-.4 4-.8c0 0 .4 1.9.4 1.9c-.9.4-2.5.9-4.8.9c-4.5 0-7.1-2.9-7.1-7.3c0-4.4 2.5-7.8 6.8-7.8c4.7 0 6 4.1 6 6.8c0 .5-.1 1-.1 1.2c0 0-10.2 0-10.2 0zm7.7-1.9c.1-1.6-.7-4.3-3.6-4.3c-2.7 0-3.9 2.5-4.1 4.3c0 0 7.7 0 7.7 0zm5.5 6c.8.5 2.1 1.1 3.5 1.1c1.9 0 2.8-1 2.8-2.2c0-1.3-.8-2-2.7-2.7c-2.6-.9-3.9-2.3-3.9-4.1c0-2.3 1.9-4.2 5.1-4.2c1.4 0 2.7.4 3.5.9c0 0-.6 1.9-.6 1.9c-.6-.4-1.7-.9-3-.9c-1.6 0-2.4.9-2.4 2c0 1.2.8 1.8 2.7 2.5c2.5.9 3.8 2.2 3.8 4.4c0 2.5-1.9 4.3-5.4 4.3c-1.6 0-3.1-.4-4.1-1c0 0 .7-2 .7-2zm21.8-16l0 4.2l3.7 0l0 2l-3.7 0c0 0-.04 7.82 0 7.8c0 1.8.5 2.8 1.9 2.8c.7 0 1.2 0 1.6-.1c0 0 .1 1.9.1 1.9c-.5.2-1.3.4-2.3.4c-1.3 0-2.3-.4-2.9-1.1c-.7-.8-1-2.1-1-3.8c-.02.01 0-7.9 0-7.9l-2.3 0l0-2l2.3 0l0-3.5l2.6-.7zm19.7 11.3c0 5.4-3.7 7.7-7.3 7.7c-3.9 0-6.9-2.8-6.9-7.4c0-4.9 3.2-7.7 7.2-7.7c4.2 0 7 3 7 7.4zm-11.5.2c0 3.2 1.8 5.6 4.4 5.6c2.5 0 4.4-2.4 4.4-5.7c0-2.4-1.3-5.6-4.4-5.6c-3.1 0-4.4 2.9-4.4 5.7zm20.8 4.5c.8.5 2.2 1.1 3.5 1.1c1.9 0 2.8-1 2.8-2.2c0-1.3-.7-2-2.7-2.7c-2.6-.9-3.8-2.3-3.8-4.1c0-2.3 1.9-4.2 5-4.2c1.4 0 2.7.4 3.5.9c0 0-.6 1.9-.6 1.9c-.6-.4-1.6-.9-3-.9c-1.5 0-2.4.9-2.4 2c0 1.2.9 1.8 2.7 2.5c2.6.9 3.9 2.2 3.9 4.4c0 2.5-2 4.3-5.5 4.3c-1.6 0-3-.4-4.1-1c0 0 .7-2 .7-2zm20.3 2.7l-.2-1.8c0 0-.12-.03-.1 0c-.8 1.1-2.4 2.1-4.5 2.1c-2.9 0-4.4-2-4.4-4.1c0-3.5 3.1-5.5 8.7-5.4c0 0 0-.3 0-.3c0-1.2-.3-3.4-3.3-3.4c-1.3 0-2.7.4-3.7 1.1c0 0-.6-1.8-.6-1.8c1.2-.7 2.9-1.2 4.7-1.2c4.5 0 5.5 3 5.5 5.9c0 0 0 5.4 0 5.4c0 1.3.1 2.5.3 3.5c-.02 0-2.4 0-2.4 0zm-.4-7.4c-2.9-.1-6.2.4-6.2 3.3c0 1.7 1.2 2.5 2.5 2.5c1.9 0 3.1-1.2 3.5-2.4c.1-.3.2-.6.2-.9c0 0 0-2.5 0-2.5zm7.6-7.1c0 0 2.83 8.14 2.8 8.1c.5 1.4.9 2.6 1.2 3.8c0 0 .1 0 .1 0c.3-1.2.7-2.4 1.2-3.8c.02.04 2.8-8.1 2.8-8.1l2.8 0l-5.7 14.5l-2.5 0l-5.5-14.5l2.8 0zm14.6 7.7c0 3.6 2.3 5.1 4.9 5.1c1.9 0 3.1-.4 4.1-.8c0 0 .4 1.9.4 1.9c-.9.4-2.5.9-4.8.9c-4.5 0-7.2-2.9-7.2-7.3c0-4.4 2.6-7.8 6.9-7.8c4.7 0 6 4.1 6 6.8c0 .5-.1 1-.1 1.2c0 0-10.2 0-10.2 0zm7.7-1.9c0-1.6-.7-4.3-3.7-4.3c-2.6 0-3.8 2.5-4 4.3c0 0 7.7 0 7.7 0z" stroke="none" fill="#3c3c3b"/></g><g id="Polygon7108"><path d="m4.9 52.3l0 20.2l-2.6 0l0-20.2l2.6 0zm4.8 9.6c0-1.5-.1-2.7-.2-3.9c.04-.02 2.4 0 2.4 0l.1 2.4c0 0 .09-.02.1 0c.7-1.4 2.4-2.7 4.8-2.7c2 0 5.1 1.2 5.1 6.1c.02.03 0 8.7 0 8.7l-2.6 0c0 0-.02-8.37 0-8.4c0-2.3-.9-4.3-3.4-4.3c-1.7 0-3.1 1.3-3.5 2.7c-.1.4-.2.8-.2 1.3c0-.03 0 8.7 0 8.7l-2.6 0c0 0-.04-10.59 0-10.6zm19.7-8.1l0 4.2l3.7 0l0 2l-3.7 0c0 0-.03 7.82 0 7.8c0 1.8.5 2.8 1.9 2.8c.7 0 1.2 0 1.6-.1c0 0 .1 1.9.1 1.9c-.5.2-1.3.4-2.3.4c-1.3 0-2.3-.4-2.9-1.1c-.7-.8-1-2.1-1-3.8c-.01.01 0-7.9 0-7.9l-2.3 0l0-2l2.3 0l0-3.5l2.6-.7zm8 11.9c.1 3.6 2.3 5.1 5 5.1c1.9 0 3-.4 4-.8c0 0 .5 1.9.5 1.9c-1 .4-2.6.9-4.9.9c-4.4 0-7.1-2.9-7.1-7.3c0-4.4 2.6-7.8 6.8-7.8c4.7 0 6 4.1 6 6.8c0 .5-.1 1-.1 1.2c0 0-10.2 0-10.2 0zm7.7-1.9c.1-1.6-.6-4.3-3.6-4.3c-2.7 0-3.9 2.5-4.1 4.3c0 0 7.7 0 7.7 0zm5.9-12.6l2.6 0l0 21.3l-2.6 0l0-21.3zm7 0l2.7 0l0 21.3l-2.7 0l0-21.3zm7.1 21.3l0-14.5l2.7 0l0 14.5l-2.7 0zm3-18.6c0 .9-.7 1.6-1.7 1.6c-.9 0-1.6-.7-1.6-1.6c0-.9.7-1.6 1.6-1.6c1 0 1.7.7 1.7 1.6zm16.6 4.1c-.1 1-.2 2.2-.2 4c0 0 0 8.4 0 8.4c0 3.3-.6 5.4-2 6.6c-1.4 1.3-3.5 1.8-5.3 1.8c-1.8 0-3.7-.5-4.8-1.2c0 0 .6-2 .6-2c1 .6 2.5 1.1 4.3 1.1c2.7 0 4.7-1.4 4.7-5.1c-.04.03 0-1.6 0-1.6c0 0-.1.01-.1 0c-.8 1.4-2.4 2.4-4.6 2.4c-3.6 0-6.2-3-6.2-7c0-5 3.2-7.7 6.5-7.7c2.6 0 3.9 1.3 4.6 2.5c-.03-.03 0 0 0 0l.1-2.2c0 0 2.36-.02 2.4 0zm-2.8 5.7c0-.4 0-.8-.1-1.2c-.5-1.5-1.8-2.8-3.7-2.8c-2.5 0-4.3 2.2-4.3 5.5c0 2.9 1.4 5.2 4.3 5.2c1.6 0 3-1 3.6-2.7c.2-.4.2-.9.2-1.4c0 0 0-2.6 0-2.6zm8.5 2c0 3.6 2.3 5.1 5 5.1c1.9 0 3-.4 4-.8c0 0 .4 1.9.4 1.9c-.9.4-2.5.9-4.8.9c-4.5 0-7.1-2.9-7.1-7.3c0-4.4 2.5-7.8 6.8-7.8c4.7 0 6 4.1 6 6.8c0 .5-.1 1-.1 1.2c0 0-10.2 0-10.2 0zm7.7-1.9c.1-1.6-.7-4.3-3.6-4.3c-2.7 0-3.9 2.5-4.1 4.3c0 0 7.7 0 7.7 0zm5.8-1.9c0-1.5 0-2.7-.1-3.9c.03-.02 2.4 0 2.4 0l.1 2.4c0 0 .08-.02.1 0c.7-1.4 2.4-2.7 4.8-2.7c2 0 5.1 1.2 5.1 6.1c.01.03 0 8.7 0 8.7l-2.6 0c0 0-.03-8.37 0-8.4c0-2.3-.9-4.3-3.4-4.3c-1.7 0-3.1 1.3-3.5 2.7c-.2.4-.2.8-.2 1.3c-.01-.03 0 8.7 0 8.7l-2.7 0c0 0 .05-10.59 0-10.6zm19.8-8.1l0 4.2l3.7 0l0 2l-3.7 0c0 0-.04 7.82 0 7.8c0 1.8.5 2.8 1.9 2.8c.7 0 1.2 0 1.6-.1c0 0 .1 1.9.1 1.9c-.5.2-1.3.4-2.4.4c-1.2 0-2.2-.4-2.8-1.1c-.8-.8-1-2.1-1-3.8c-.02.01 0-7.9 0-7.9l-2.3 0l0-2l2.3 0l0-3.5l2.6-.7zm15.8-1.5l0 20.2l-2.6 0l0-20.2l2.6 0zm8.4 2.2l-6.2 0l0-2.2l15 0l0 2.2l-6.2 0l0 18l-2.6 0l0-18zm24.4 17.3c-1 .5-2.9 1-5.4 1c-5.7 0-10-3.6-10-10.2c0-6.4 4.3-10.6 10.6-10.6c2.5 0 4.1.5 4.8.9c0 0-.6 2.1-.6 2.1c-1-.5-2.4-.9-4.1-.9c-4.8 0-7.9 3.1-7.9 8.4c0 4.9 2.8 8.1 7.8 8.1c1.5 0 3.2-.3 4.2-.8c0 0 .6 2 .6 2zm9.1-2c.8.5 2.2 1.1 3.5 1.1c1.9 0 2.8-1 2.8-2.2c0-1.3-.7-2-2.7-2.7c-2.6-.9-3.8-2.3-3.8-4.1c0-2.3 1.9-4.2 5-4.2c1.5 0 2.8.4 3.6.9c0 0-.7 1.9-.7 1.9c-.6-.4-1.6-.9-3-.9c-1.5 0-2.4.9-2.4 2c0 1.2.9 1.8 2.8 2.5c2.5.9 3.8 2.2 3.8 4.4c0 2.5-2 4.3-5.4 4.3c-1.6 0-3.1-.4-4.1-1c0 0 .6-2 .6-2zm13.7-4.1c.1 3.6 2.4 5.1 5 5.1c1.9 0 3.1-.4 4-.8c0 0 .5 1.9.5 1.9c-.9.4-2.5.9-4.8.9c-4.5 0-7.2-2.9-7.2-7.3c0-4.4 2.6-7.8 6.8-7.8c4.8 0 6 4.1 6 6.8c0 .5 0 1-.1 1.2c0 0-10.2 0-10.2 0zm7.8-1.9c0-1.6-.7-4.3-3.7-4.3c-2.6 0-3.8 2.5-4 4.3c0 0 7.7 0 7.7 0zm9-10l0 4.2l3.8 0l0 2l-3.8 0c0 0-.01 7.82 0 7.8c0 1.8.5 2.8 2 2.8c.7 0 1.2 0 1.5-.1c0 0 .1 1.9.1 1.9c-.5.2-1.3.4-2.3.4c-1.3 0-2.2-.4-2.9-1.1c-.7-.8-1-2.1-1-3.8c.01.01 0-7.9 0-7.9l-2.2 0l0-2l2.2 0l0-3.5l2.6-.7zm19.7 11.3c0 5.4-3.7 7.7-7.2 7.7c-4 0-7-2.8-7-7.4c0-4.9 3.2-7.7 7.2-7.7c4.2 0 7 3 7 7.4zm-11.5.2c0 3.2 1.8 5.6 4.4 5.6c2.5 0 4.4-2.4 4.4-5.7c0-2.4-1.2-5.6-4.4-5.6c-3.1 0-4.4 2.9-4.4 5.7zm23.8 7.2l0-12.5l-6.1 0l0 12.5l-2.6 0l0-12.5l-2 0l0-2l2 0c0 0 0-.5 0-.5c0-2 .5-3.8 1.6-4.9c.9-.9 2.1-1.4 3.7-1.4c.8 0 1.6.3 2 .5c0 0-.5 2-.5 2c-.4-.2-1-.4-1.6-.4c-2 0-2.6 1.8-2.6 4.1c.01-.05 0 .6 0 .6l6.1 0c0 0 0-.71 0-.7c0-2 .5-3.9 1.7-5.1c1-.9 2.3-1.3 3.5-1.3c1 0 1.8.2 2.3.4c0 0-.4 2-.4 2c-.4-.2-.9-.3-1.7-.3c-2.2 0-2.8 2-2.8 4.2c.01 0 0 .8 0 .8l3.5 0l0 2l-3.5 0l0 12.5l-2.6 0zm14.9-10.6c0-1.5-.1-2.7-.1-3.9c-.04-.02 2.3 0 2.3 0l.1 2.3c0 0 .08.02.1 0c.8-1.4 2.1-2.6 4.5-2.6c2 0 3.5 1.2 4.1 2.9c0 0 .1 0 .1 0c.5-.8 1-1.5 1.6-1.9c.9-.7 1.9-1 3.2-1c2 0 4.8 1.2 4.8 6.2c.01.05 0 8.6 0 8.6l-2.6 0c0 0 .03-8.22 0-8.2c0-2.8-1-4.5-3.1-4.5c-1.5 0-2.7 1.1-3.1 2.4c-.2.4-.3.9-.3 1.3c.05.03 0 9 0 9l-2.5 0c0 0-.03-8.7 0-8.7c0-2.3-1.1-4-3.1-4c-1.6 0-2.8 1.3-3.2 2.6c-.2.4-.2.9-.2 1.3c-.04.04 0 8.8 0 8.8l-2.6 0c0 0-.02-10.59 0-10.6zm26.5 3.8c0 3.6 2.3 5.1 4.9 5.1c1.9 0 3.1-.4 4.1-.8c0 0 .4 1.9.4 1.9c-.9.4-2.5.9-4.8.9c-4.5 0-7.2-2.9-7.2-7.3c0-4.4 2.6-7.8 6.9-7.8c4.7 0 6 4.1 6 6.8c0 .5-.1 1-.1 1.2c0 0-10.2 0-10.2 0zm7.7-1.9c0-1.6-.7-4.3-3.7-4.3c-2.6 0-3.8 2.5-4 4.3c0 0 7.7 0 7.7 0zm16.2 8.2c-.7.3-2.2.8-4.2.8c-4.4 0-7.2-3-7.2-7.4c0-4.5 3-7.7 7.8-7.7c1.5 0 2.9.4 3.6.7c0 0-.6 2.1-.6 2.1c-.6-.4-1.6-.7-3-.7c-3.4 0-5.2 2.4-5.2 5.5c0 3.3 2.2 5.4 5.1 5.4c1.5 0 2.5-.4 3.2-.7c0 0 .5 2 .5 2zm3.1-20.8l2.6 0l0 9.1c0 0 .07-.04.1 0c.4-.8 1-1.4 1.9-1.9c.7-.4 1.7-.7 2.7-.7c1.9 0 5 1.2 5 6.2c.03-.04 0 8.6 0 8.6l-2.6 0c0 0-.01-8.34 0-8.3c0-2.4-.9-4.4-3.4-4.4c-1.7 0-3 1.2-3.5 2.7c-.2.3-.2.7-.2 1.2c.01.04 0 8.8 0 8.8l-2.6 0l0-21.3zm24.7 21.3l-.3-1.8c0 0-.04-.03 0 0c-.9 1.1-2.4 2.1-4.5 2.1c-2.9 0-4.4-2-4.4-4.1c0-3.5 3.1-5.5 8.7-5.4c0 0 0-.3 0-.3c0-1.2-.3-3.4-3.3-3.4c-1.3 0-2.8.4-3.8 1.1c0 0-.6-1.8-.6-1.8c1.2-.7 3-1.2 4.8-1.2c4.4 0 5.5 3 5.5 5.9c0 0 0 5.4 0 5.4c0 1.3.1 2.5.3 3.5c-.04 0-2.4 0-2.4 0zm-.4-7.4c-2.9-.1-6.2.4-6.2 3.3c0 1.7 1.2 2.5 2.5 2.5c1.9 0 3.1-1.2 3.5-2.4c.1-.3.2-.6.2-.9c0 0 0-2.5 0-2.5zm6.8-3.2c0-1.5-.1-2.7-.1-3.9c-.04-.02 2.3 0 2.3 0l.1 2.4c0 0 .1-.02.1 0c.7-1.4 2.4-2.7 4.8-2.7c2 0 5.1 1.2 5.1 6.1c.03.03 0 8.7 0 8.7l-2.6 0c0 0 0-8.37 0-8.4c0-2.3-.9-4.3-3.4-4.3c-1.7 0-3.1 1.3-3.5 2.7c-.1.4-.2.8-.2 1.3c.01-.03 0 8.7 0 8.7l-2.6 0c0 0-.02-10.59 0-10.6zm16.6 10.6l0-14.5l2.7 0l0 14.5l-2.7 0zm3-18.6c0 .9-.7 1.6-1.7 1.6c-.9 0-1.6-.7-1.6-1.6c0-.9.7-1.6 1.6-1.6c1 0 1.7.7 1.7 1.6zm3.7 15.9c.8.5 2.1 1.1 3.5 1.1c1.9 0 2.8-1 2.8-2.2c0-1.3-.8-2-2.7-2.7c-2.6-.9-3.9-2.3-3.9-4.1c0-2.3 1.9-4.2 5.1-4.2c1.4 0 2.7.4 3.5.9c0 0-.6 1.9-.6 1.9c-.6-.4-1.7-.9-3-.9c-1.6 0-2.4.9-2.4 2c0 1.2.8 1.8 2.7 2.5c2.5.9 3.8 2.2 3.8 4.4c0 2.5-1.9 4.3-5.4 4.3c-1.6 0-3.1-.4-4.1-1c0 0 .7-2 .7-2zm12.2-7.9c0-1.5 0-2.7-.1-3.9c0-.02 2.3 0 2.3 0l.1 2.3c0 0 .12.02.1 0c.8-1.4 2.2-2.6 4.6-2.6c2 0 3.5 1.2 4.1 2.9c0 0 .1 0 .1 0c.4-.8 1-1.5 1.6-1.9c.8-.7 1.8-1 3.2-1c1.9 0 4.8 1.2 4.8 6.2c-.05.05 0 8.6 0 8.6l-2.6 0c0 0-.03-8.22 0-8.2c0-2.8-1-4.5-3.2-4.5c-1.5 0-2.6 1.1-3.1 2.4c-.1.4-.2.9-.2 1.3c-.01.03 0 9 0 9l-2.6 0c0 0 .01-8.7 0-8.7c0-2.3-1-4-3-4c-1.7 0-2.9 1.3-3.3 2.6c-.1.4-.2.9-.2 1.3c0 .04 0 8.8 0 8.8l-2.6 0c0 0 .02-10.59 0-10.6z" stroke="none" fill="#3c3c3b"/></g><g id="Polygon7107"><path d="m6.6 2.3l0 20.2l-4.6 0l0-20.2l4.6 0zm7.8 3.8l-5.4 0l0-3.8l15.5 0l0 3.8l-5.5 0l0 16.4l-4.6 0l0-16.4zm26.5 15.8c-.8.5-2.7.9-5.1.9c-7 0-10.6-4.3-10.6-10.1c0-6.9 4.9-10.7 11-10.7c2.4 0 4.2.4 5 .9c0 0-.9 3.6-.9 3.6c-1-.4-2.3-.8-3.9-.8c-3.6 0-6.4 2.2-6.4 6.7c0 4.1 2.4 6.6 6.4 6.6c1.4 0 3-.3 3.9-.6c0 0 .6 3.5.6 3.5zm8.9-3.4c.9.5 2.6 1.1 4 1.1c1.3 0 1.9-.5 1.9-1.2c0-.8-.4-1.1-2.2-1.7c-3-1-4.2-2.7-4.1-4.4c0-2.7 2.3-4.8 5.9-4.8c1.8 0 3.3.4 4.2.8c0 0-.8 3.2-.8 3.2c-.7-.4-1.9-.8-3.2-.8c-1.1 0-1.7.4-1.7 1.2c0 .6.5 1 2.3 1.6c2.8 1 4 2.4 4 4.6c0 2.7-2.1 4.7-6.3 4.7c-2 0-3.7-.4-4.8-1c0 0 .8-3.3.8-3.3zm16.6-1.9c.1 1.9 2 2.8 4.1 2.8c1.6 0 2.8-.2 4.1-.6c0 0 .6 3.1.6 3.1c-1.5.6-3.4.9-5.3.9c-5 0-7.9-2.9-7.9-7.5c0-3.7 2.3-7.8 7.4-7.8c4.8 0 6.6 3.7 6.6 7.3c0 .8-.1 1.5-.2 1.8c0 0-9.4 0-9.4 0zm5.4-3.1c0-1.1-.5-3-2.6-3c-1.9 0-2.7 1.8-2.8 3c0 0 5.4 0 5.4 0zm12-9.9l0 4.2l3.3 0l0 3.4l-3.3 0c0 0 .02 5.3 0 5.3c0 1.8.4 2.6 1.8 2.6c.6 0 1-.1 1.4-.1c0 0 0 3.4 0 3.4c-.6.2-1.7.4-3 .4c-1.4 0-2.7-.5-3.4-1.3c-.8-.8-1.3-2.2-1.3-4.3c.05-.01 0-6 0-6l-1.9 0l0-3.4l1.9 0l0-3.2l4.5-1zm20.3 11.4c0 5.4-3.8 7.8-7.8 7.8c-4.3 0-7.6-2.8-7.6-7.5c0-4.8 3.2-7.8 7.9-7.8c4.5 0 7.5 3.1 7.5 7.5zm-10.7.2c0 2.5 1.1 4.4 3 4.4c1.8 0 3-1.8 3-4.4c0-2.2-.9-4.5-3-4.5c-2.1 0-3 2.3-3 4.5zm23.3 7.3l0-11.3l-4.7 0l0 11.3l-4.6 0l0-11.3l-1.9 0l0-3.4l1.9 0c0 0 0-.27 0-.3c0-1.7.4-3.4 1.7-4.7c1-1 2.4-1.6 4.5-1.6c.7 0 1.5.2 1.9.4c0 0-.6 3.3-.6 3.3c-.4-.1-.8-.2-1.2-.2c-1.3 0-1.7 1.1-1.7 2.6c-.04-.01 0 .5 0 .5l4.7 0c0 0-.03-.54 0-.5c0-1.8.5-3.8 1.8-5c1.2-1 2.7-1.4 4.1-1.4c1 0 1.8.1 2.4.3c0 0-.2 3.5-.2 3.5c-.4-.1-.8-.2-1.5-.2c-1.5 0-2.1 1.1-2.1 2.6c0-.02 0 .7 0 .7l2.9 0l0 3.4l-2.9 0l0 11.3l-4.5 0zm9.5-4c.8.5 2.6 1.1 3.9 1.1c1.4 0 2-.5 2-1.2c0-.8-.5-1.1-2.2-1.7c-3-1-4.2-2.7-4.2-4.4c0-2.7 2.4-4.8 6-4.8c1.7 0 3.2.4 4.1.8c0 0-.8 3.2-.8 3.2c-.6-.4-1.9-.8-3.2-.8c-1.1 0-1.7.4-1.7 1.2c0 .6.6 1 2.4 1.6c2.8 1 3.9 2.4 4 4.6c0 2.7-2.2 4.7-6.4 4.7c-1.9 0-3.6-.4-4.7-1c0 0 .8-3.3.8-3.3zm24.2-14.9l0 4.2l3.3 0l0 3.4l-3.3 0c0 0-.01 5.3 0 5.3c0 1.8.4 2.6 1.8 2.6c.6 0 1-.1 1.3-.1c0 0 .1 3.4.1 3.4c-.6.2-1.7.4-3 .4c-1.5 0-2.7-.5-3.4-1.3c-.9-.8-1.3-2.2-1.3-4.3c.02-.01 0-6 0-6l-1.9 0l0-3.4l1.9 0l0-3.2l4.5-1zm20.2 11.4c0 5.4-3.8 7.8-7.7 7.8c-4.3 0-7.6-2.8-7.6-7.5c0-4.8 3.1-7.8 7.8-7.8c4.5 0 7.5 3.1 7.5 7.5zm-10.6.2c0 2.5 1.1 4.4 3 4.4c1.8 0 2.9-1.8 2.9-4.4c0-2.2-.8-4.5-2.9-4.5c-2.2 0-3 2.3-3 4.5zm19.5-2.7c0-1.8 0-3.4-.1-4.7c0 .03 3.8 0 3.8 0l.2 2c0 0 .14.01.1 0c.7-.9 2-2.3 4.5-2.3c1.9 0 3.4 1 4 2.5c0 0 .1 0 .1 0c.5-.8 1.2-1.4 1.8-1.8c.9-.5 1.8-.7 2.8-.7c2.9 0 5 2 5 6.4c-.01-.04 0 8.6 0 8.6l-4.5 0c0 0 .05-7.98 0-8c0-2.1-.6-3.3-2.1-3.3c-1.1 0-1.8.7-2.1 1.6c-.1.3-.2.8-.2 1.1c.01.02 0 8.6 0 8.6l-4.4 0c0 0-.03-8.22 0-8.2c0-1.9-.7-3.1-2.1-3.1c-1.2 0-1.9.9-2.2 1.6c-.1.4-.1.8-.1 1.1c-.04.05 0 8.6 0 8.6l-4.5 0c0 0 .02-9.99 0-10zm25.8 10l0-14.7l4.6 0l0 14.7l-4.6 0zm4.7-18.7c0 1.2-.9 2.2-2.4 2.2c-1.5 0-2.4-1-2.4-2.2c0-1.4.9-2.4 2.4-2.4c1.5 0 2.4 1 2.4 2.4zm3.5 8.7c0-1.8 0-3.4-.1-4.7c.02.03 4 0 4 0l.2 2c0 0 .08.04.1 0c.6-.9 2.1-2.3 4.5-2.3c3 0 5.3 2 5.3 6.3c-.04 0 0 8.7 0 8.7l-4.6 0c0 0 0-8.13 0-8.1c0-1.9-.7-3.2-2.3-3.2c-1.3 0-2 .9-2.3 1.7c-.1.3-.2.7-.2 1.1c0 .04 0 8.5 0 8.5l-4.6 0c0 0 .04-9.99 0-10zm17.6 10l0-14.7l4.6 0l0 14.7l-4.6 0zm4.7-18.7c0 1.2-.9 2.2-2.4 2.2c-1.5 0-2.4-1-2.4-2.2c0-1.4.9-2.4 2.4-2.4c1.5 0 2.4 1 2.4 2.4zm3.5 8.7c0-1.8 0-3.4-.1-4.7c.02.03 3.9 0 3.9 0l.2 2c0 0 .06.01.1 0c.6-.9 1.9-2.3 4.4-2.3c1.9 0 3.4 1 4 2.5c0 0 .1 0 .1 0c.5-.8 1.2-1.4 1.9-1.8c.8-.5 1.7-.7 2.8-.7c2.8 0 4.9 2 4.9 6.4c.01-.04 0 8.6 0 8.6l-4.4 0c0 0-.03-7.98 0-8c0-2.1-.7-3.3-2.2-3.3c-1 0-1.8.7-2.1 1.6c-.1.3-.2.8-.2 1.1c.03.02 0 8.6 0 8.6l-4.4 0c0 0-.01-8.22 0-8.2c0-1.9-.7-3.1-2.1-3.1c-1.2 0-1.9.9-2.1 1.6c-.2.4-.2.8-.2 1.1c-.02.05 0 8.6 0 8.6l-4.5 0c0 0 .04-9.99 0-10zm25.8 10l0-14.7l4.6 0l0 14.7l-4.6 0zm4.7-18.7c0 1.2-.9 2.2-2.4 2.2c-1.5 0-2.4-1-2.4-2.2c0-1.4.9-2.4 2.4-2.4c1.5 0 2.4 1 2.4 2.4zm2.4 16.1c0 0 4.61-5.8 4.6-5.8c.8-1 1.5-1.7 2.3-2.6c.05-.01 0-.1 0-.1l-6.4 0l0-3.6l12 0l0 2.8c0 0-4.41 5.51-4.4 5.5c-.8 1-1.6 1.9-2.4 2.7c-.01.01 0 .1 0 .1l7 0l0 3.6l-12.7 0l0-2.6zm18.5-3.3c.2 1.9 2 2.8 4.2 2.8c1.5 0 2.8-.2 4-.6c0 0 .6 3.1.6 3.1c-1.5.6-3.3.9-5.3.9c-5 0-7.8-2.9-7.8-7.5c0-3.7 2.3-7.8 7.4-7.8c4.7 0 6.5 3.7 6.5 7.3c0 .8-.1 1.5-.1 1.8c0 0-9.5 0-9.5 0zm5.4-3.1c0-1.1-.5-3-2.6-3c-1.9 0-2.7 1.8-2.8 3c0 0 5.4 0 5.4 0zm24 8.6c-.8.4-2.3.7-4.1.7c-4.7 0-7.7-2.9-7.7-7.5c0-4.3 2.9-7.8 8.4-7.8c1.2 0 2.5.2 3.5.6c0 0-.8 3.4-.8 3.4c-.5-.3-1.3-.5-2.5-.5c-2.4 0-4 1.7-3.9 4.1c0 2.7 1.8 4.1 4 4.1c1.1 0 1.9-.1 2.6-.4c0 0 .5 3.3.5 3.3zm11 .4l-.3-1.5c0 0-.05.03-.1 0c-.9 1.2-2.4 1.8-4.2 1.8c-2.9 0-4.7-2.1-4.7-4.5c0-3.8 3.4-5.6 8.6-5.6c0 0 0-.2 0-.2c0-.8-.4-1.9-2.7-1.9c-1.5 0-3 .5-4 1.1c0 0-.8-2.9-.8-2.9c1-.6 3-1.3 5.7-1.3c4.8 0 6.4 2.9 6.4 6.3c0 0 0 5.1 0 5.1c0 1.4.1 2.8.2 3.6c.02 0-4.1 0-4.1 0zm-.5-6.9c-2.4-.1-4.3.5-4.3 2.3c0 1.2.8 1.7 1.8 1.7c1.1 0 2.1-.7 2.4-1.7c0-.2.1-.5.1-.7c0 0 0-1.6 0-1.6zm8 2.9c.8.5 2.6 1.1 3.9 1.1c1.4 0 2-.5 2-1.2c0-.8-.5-1.1-2.2-1.7c-3-1-4.2-2.7-4.2-4.4c0-2.7 2.4-4.8 6-4.8c1.7 0 3.2.4 4.1.8c0 0-.8 3.2-.8 3.2c-.6-.4-1.9-.8-3.2-.8c-1.1 0-1.7.4-1.7 1.2c0 .6.6 1 2.4 1.6c2.8 1 3.9 2.4 4 4.6c0 2.7-2.2 4.7-6.4 4.7c-1.9 0-3.6-.4-4.7-1c0 0 .8-3.3.8-3.3zm13-17.3l4.6 0l0 8.4c0 0 .05-.03 0 0c.5-.7 1.1-1.1 1.8-1.5c.7-.4 1.6-.6 2.4-.6c2.9 0 5.1 2 5.1 6.4c.05.02 0 8.6 0 8.6l-4.5 0c0 0-.01-8.07 0-8.1c0-1.9-.7-3.2-2.4-3.2c-1.2 0-1.9.8-2.3 1.6c-.1.3-.1.7-.1 1c-.01 0 0 8.7 0 8.7l-4.6 0l0-21.3zm18.1 21.3l0-11.3l-1.9 0l0-3.4l1.9 0c0 0 .02-.63 0-.6c0-1.7.9-3.5 2.3-4.7c1.4-1.1 3.2-1.6 5.5-1.6c2.2 0 4.2.4 5.7 1.2c-.01 0 0 20.4 0 20.4l-4.6 0c0 0 .03-17.94 0-17.9c-.3-.2-.9-.3-1.7-.3c-1.8 0-2.6 1.3-2.6 2.9c-.02.03 0 .6 0 .6l2.6 0l0 3.4l-2.6 0l0 11.3l-4.6 0zm31.6-7.5c0 5.4-3.8 7.8-7.7 7.8c-4.3 0-7.6-2.8-7.6-7.5c0-4.8 3.1-7.8 7.8-7.8c4.5 0 7.5 3.1 7.5 7.5zm-10.6.2c0 2.5 1.1 4.4 3 4.4c1.8 0 2.9-1.8 2.9-4.4c0-2.2-.8-4.5-2.9-4.5c-2.2 0-3 2.3-3 4.5zm16.3-7.4c0 0 1.21 6.03 1.2 6c.3 1.6.6 3.2.8 4.9c0 0 .1 0 .1 0c.3-1.7.7-3.4 1.1-4.8c-.01-.04 1.5-6.1 1.5-6.1l3.6 0c0 0 1.52 5.88 1.5 5.9c.4 1.6.8 3.3 1.1 5c0 0 .1 0 .1 0c.2-1.7.5-3.4.8-5c0-.05 1.3-5.9 1.3-5.9l4.4 0l-4.5 14.7l-4.3 0c0 0-1.34-5.16-1.3-5.2c-.4-1.4-.7-2.7-1-4.5c0 0 0 0 0 0c-.3 1.8-.6 3.2-1 4.5c.01.04-1.5 5.2-1.5 5.2l-4.3 0l-4.2-14.7l4.6 0zm19.1 10.7c.9.5 2.6 1.1 4 1.1c1.4 0 1.9-.5 1.9-1.2c0-.8-.4-1.1-2.1-1.7c-3.1-1-4.2-2.7-4.2-4.4c0-2.7 2.3-4.8 6-4.8c1.7 0 3.2.4 4.1.8c0 0-.8 3.2-.8 3.2c-.7-.4-1.9-.8-3.2-.8c-1.1 0-1.7.4-1.7 1.2c0 .6.5 1 2.3 1.6c2.8 1 4 2.4 4 4.6c0 2.7-2.1 4.7-6.3 4.7c-1.9 0-3.7-.4-4.8-1c0 0 .8-3.3.8-3.3z" stroke="none" fill="#3c3c3b"/></g></svg>