<?xml version="1.0" standalone="no"?><!DOCTYPE svg PUBLIC "-//W3C//DTD SVG 1.1//EN" "http://www.w3.org/Graphics/SVG/1.1/DTD/svg11.dtd"><svg xmlns="http://www.w3.org/2000/svg" version="1.1" width="222px" height="66px" viewBox="0 -6 222 66" style="top:-6px"><desc>mismatches/unreconcilied invoices</desc><defs/><g id="Polygon7954"><path d="m11.5 43.6c0 1.2 0 2.3.1 3.2c-.03 0-1.9 0-1.9 0l-.1-1.9c0 0-.07 0-.1 0c-.5.9-1.7 2.2-3.8 2.2c-1.8 0-4-1-4-5.1c-.02-.02 0-6.8 0-6.8l2.1 0c0 0-.01 6.42 0 6.4c0 2.2.7 3.7 2.6 3.7c1.4 0 2.4-1 2.8-1.9c.1-.3.2-.7.2-1.1c-.04.01 0-7.1 0-7.1l2.1 0c0 0-.03 8.43 0 8.4zm3.5-5.3c0-1.2 0-2.2-.1-3.1c-.02-.02 1.9 0 1.9 0l.1 1.9c0 0 .02 0 0 0c.6-1.1 1.9-2.2 3.9-2.2c1.6 0 4.1 1 4.1 5c-.04-.04 0 6.9 0 6.9l-2.1 0c0 0-.05-6.7 0-6.7c0-1.9-.7-3.4-2.7-3.4c-1.4 0-2.5 1-2.9 2.1c-.1.3-.1.7-.1 1c-.01.02 0 7 0 7l-2.1 0c0 0-.02-8.47 0-8.5zm13.3.5c0-1.4 0-2.5-.1-3.6c0-.02 1.8 0 1.8 0l.1 2.3c0 0 .12-.04.1 0c.5-1.6 1.8-2.6 3.2-2.6c.3 0 .4 0 .6.1c0 0 0 2 0 2c-.2-.1-.4-.1-.7-.1c-1.5 0-2.5 1.1-2.8 2.7c-.1.3-.1.6-.1 1c-.02.01 0 6.2 0 6.2l-2.1 0c0 0 0-7.99 0-8zm8.8 2.6c0 2.8 1.9 4 4 4c1.5 0 2.4-.3 3.2-.6c0 0 .3 1.5.3 1.5c-.7.4-2 .7-3.8.7c-3.6 0-5.7-2.3-5.7-5.8c0-3.5 2-6.3 5.4-6.3c3.8 0 4.8 3.4 4.8 5.5c0 .4 0 .8-.1 1c0 0-8.1 0-8.1 0zm6.2-1.5c0-1.4-.6-3.5-3-3.5c-2.1 0-3 2-3.2 3.5c0 0 6.2 0 6.2 0zm12.9 6.5c-.5.3-1.8.6-3.3.6c-3.5 0-5.8-2.3-5.8-5.9c0-3.6 2.4-6.2 6.2-6.2c1.3 0 2.4.4 3 .6c0 0-.5 1.7-.5 1.7c-.5-.3-1.3-.6-2.5-.6c-2.6 0-4.1 2-4.1 4.4c0 2.7 1.8 4.4 4.1 4.4c1.2 0 1.9-.4 2.5-.6c0 0 .4 1.6.4 1.6zm12.8-5.5c0 4.3-2.9 6.2-5.7 6.2c-3.2 0-5.6-2.3-5.6-6c0-3.9 2.5-6.2 5.8-6.2c3.3 0 5.5 2.4 5.5 6zm-9.2.1c0 2.6 1.5 4.5 3.6 4.5c2 0 3.5-1.9 3.5-4.5c0-2-1-4.5-3.5-4.5c-2.5 0-3.6 2.3-3.6 4.5zm11.9-2.7c0-1.2 0-2.2-.1-3.1c.02-.02 1.9 0 1.9 0l.1 1.9c0 0 .06 0 .1 0c.5-1.1 1.9-2.2 3.8-2.2c1.6 0 4.1 1 4.1 5c0-.04 0 6.9 0 6.9l-2.1 0c0 0-.01-6.7 0-6.7c0-1.9-.7-3.4-2.7-3.4c-1.4 0-2.5 1-2.8 2.1c-.1.3-.2.7-.2 1c.02.02 0 7 0 7l-2.1 0c0 0 .01-8.47 0-8.5zm21.6 8.1c-.5.3-1.8.6-3.3.6c-3.5 0-5.8-2.3-5.8-5.9c0-3.6 2.4-6.2 6.2-6.2c1.3 0 2.4.4 3 .6c0 0-.5 1.7-.5 1.7c-.5-.3-1.3-.6-2.5-.6c-2.6 0-4.1 2-4.1 4.4c0 2.7 1.8 4.4 4.1 4.4c1.2 0 2-.4 2.6-.6c0 0 .3 1.6.3 1.6zm2.5.4l0-11.6l2.1 0l0 11.6l-2.1 0zm2.3-14.9c.1.7-.5 1.3-1.3 1.3c-.8 0-1.3-.6-1.3-1.3c0-.7.6-1.3 1.3-1.3c.8 0 1.3.6 1.3 1.3zm3.3-2.1l2.1 0l0 17l-2.1 0l0-17zm5.7 17l0-11.6l2.1 0l0 11.6l-2.1 0zm2.3-14.9c0 .7-.5 1.3-1.3 1.3c-.8 0-1.3-.6-1.3-1.3c0-.7.6-1.3 1.3-1.3c.8 0 1.3.6 1.3 1.3zm4.5 9.5c0 2.8 1.8 4 3.9 4c1.6 0 2.5-.3 3.3-.6c0 0 .3 1.5.3 1.5c-.7.4-2 .7-3.8.7c-3.6 0-5.8-2.3-5.8-5.8c0-3.5 2.1-6.3 5.5-6.3c3.8 0 4.8 3.4 4.8 5.5c0 .4-.1.8-.1 1c0 0-8.1 0-8.1 0zm6.1-1.5c.1-1.4-.5-3.5-2.9-3.5c-2.1 0-3.1 2-3.2 3.5c0 0 6.1 0 6.1 0zm14.7-10.1c0 0 .03 14 0 14c0 1 .1 2.2.1 3c.03 0-1.9 0-1.9 0l-.1-2c0 0-.01-.02 0 0c-.7 1.3-2.1 2.3-4 2.3c-2.8 0-4.9-2.4-4.9-5.9c-.1-3.9 2.3-6.3 5.2-6.3c1.7 0 2.9.9 3.5 1.8c-.03 0 0 0 0 0l0-6.9l2.1 0zm-2.1 10.1c0-.3 0-.6-.1-.9c-.3-1.3-1.4-2.4-3-2.4c-2.2 0-3.5 1.9-3.5 4.5c0 2.3 1.2 4.3 3.4 4.3c1.4 0 2.7-1 3.1-2.6c.1-.2.1-.5.1-.9c0 0 0-2 0-2zm10.2 6.9l0-11.6l2.1 0l0 11.6l-2.1 0zm2.4-14.9c0 .7-.5 1.3-1.4 1.3c-.7 0-1.2-.6-1.2-1.3c0-.7.5-1.3 1.3-1.3c.8 0 1.3.6 1.3 1.3zm3.2 6.4c0-1.2 0-2.2-.1-3.1c.04-.02 1.9 0 1.9 0l.1 1.9c0 0 .08 0 .1 0c.6-1.1 1.9-2.2 3.8-2.2c1.6 0 4.1 1 4.1 5c.03-.04 0 6.9 0 6.9l-2.1 0c0 0 .02-6.7 0-6.7c0-1.9-.7-3.4-2.7-3.4c-1.4 0-2.4 1-2.8 2.1c-.1.3-.1.7-.1 1c-.05.02 0 7 0 7l-2.2 0c0 0 .04-8.47 0-8.5zm13.9-3.1c0 0 2.24 6.51 2.2 6.5c.4 1.1.7 2 1 3c0 0 .1 0 .1 0c.2-1 .6-1.9.9-3c.04.01 2.3-6.5 2.3-6.5l2.2 0l-4.6 11.6l-2 0l-4.4-11.6l2.3 0zm21 5.7c0 4.3-3 6.2-5.8 6.2c-3.2 0-5.6-2.3-5.6-6c0-3.9 2.6-6.2 5.8-6.2c3.3 0 5.6 2.4 5.6 6zm-9.3.1c0 2.6 1.5 4.5 3.6 4.5c2 0 3.5-1.9 3.5-4.5c0-2-1-4.5-3.5-4.5c-2.5 0-3.6 2.3-3.6 4.5zm11.9 5.8l0-11.6l2.1 0l0 11.6l-2.1 0zm2.4-14.9c0 .7-.5 1.3-1.4 1.3c-.7 0-1.2-.6-1.2-1.3c0-.7.5-1.3 1.3-1.3c.8 0 1.3.6 1.3 1.3zm11.5 14.5c-.5.3-1.8.6-3.3.6c-3.5 0-5.8-2.3-5.8-5.9c0-3.6 2.5-6.2 6.2-6.2c1.3 0 2.4.4 3 .6c0 0-.5 1.7-.5 1.7c-.5-.3-1.3-.6-2.5-.6c-2.6 0-4.1 2-4.1 4.4c0 2.7 1.8 4.4 4.1 4.4c1.2 0 2-.4 2.6-.6c0 0 .3 1.6.3 1.6zm3.5-5c.1 2.8 1.9 4 4 4c1.5 0 2.4-.3 3.2-.6c0 0 .4 1.5.4 1.5c-.8.4-2 .7-3.9.7c-3.6 0-5.7-2.3-5.7-5.8c0-3.5 2.1-6.3 5.5-6.3c3.8 0 4.8 3.4 4.8 5.5c0 .4-.1.8-.1 1c0 0-8.2 0-8.2 0zm6.2-1.5c0-1.4-.5-3.5-2.9-3.5c-2.1 0-3.1 2-3.2 3.5c0 0 6.1 0 6.1 0zm4.4 4.7c.6.4 1.7.9 2.8.9c1.5 0 2.2-.8 2.2-1.7c0-1.1-.6-1.6-2.1-2.2c-2.1-.7-3.1-1.9-3.1-3.3c0-1.8 1.5-3.4 4-3.4c1.2 0 2.2.4 2.9.7c0 0-.6 1.6-.6 1.6c-.4-.3-1.3-.7-2.3-.7c-1.3 0-2 .7-2 1.6c0 .9.7 1.4 2.2 2c2 .7 3.1 1.7 3.1 3.5c0 2-1.6 3.4-4.4 3.4c-1.2 0-2.4-.3-3.2-.8c0 0 .5-1.6.5-1.6z" stroke="none" fill="#fff"/></g><g id="Polygon7953"><path d="m48.6 9.5c0-1.2 0-2.2-.1-3.1c-.01-.02 1.8 0 1.8 0l.1 1.9c0 0 .11-.04.1 0c.7-1.1 1.7-2.2 3.7-2.2c1.5 0 2.7 1 3.2 2.3c0 0 .1 0 .1 0c.4-.6.8-1.1 1.3-1.5c.7-.5 1.5-.8 2.6-.8c1.5 0 3.8 1 3.8 5.1c-.03-.04 0 6.8 0 6.8l-2.1 0c0 0 .01-6.58 0-6.6c0-2.2-.8-3.6-2.5-3.6c-1.2 0-2.1.9-2.5 2c-.1.3-.2.6-.2 1c.02.02 0 7.2 0 7.2l-2 0c0 0-.04-6.96 0-7c0-1.8-.9-3.2-2.5-3.2c-1.3 0-2.2 1.1-2.6 2.2c-.1.3-.1.6-.1 1c-.05-.01 0 7 0 7l-2.1 0c0 0-.01-8.47 0-8.5zm20 8.5l0-11.6l2.1 0l0 11.6l-2.1 0zm2.4-14.9c0 .7-.5 1.3-1.4 1.3c-.7 0-1.3-.6-1.3-1.3c0-.7.6-1.3 1.4-1.3c.8 0 1.3.6 1.3 1.3zm2.9 12.7c.7.4 1.8.9 2.8.9c1.6 0 2.3-.8 2.3-1.7c0-1.1-.6-1.6-2.2-2.2c-2.1-.7-3.1-1.9-3.1-3.3c0-1.8 1.6-3.4 4-3.4c1.2 0 2.3.4 2.9.7c0 0-.5 1.6-.5 1.6c-.5-.3-1.3-.7-2.4-.7c-1.2 0-1.9.7-1.9 1.6c0 .9.7 1.4 2.2 2c2 .7 3 1.7 3 3.5c0 2-1.6 3.4-4.3 3.4c-1.3 0-2.5-.3-3.3-.8c0 0 .5-1.6.5-1.6zm9.8-6.3c0-1.2 0-2.2-.1-3.1c.03-.02 1.9 0 1.9 0l.1 1.9c0 0 .04-.04 0 0c.7-1.1 1.8-2.2 3.7-2.2c1.6 0 2.8 1 3.3 2.3c0 0 0 0 0 0c.4-.6.8-1.1 1.3-1.5c.7-.5 1.5-.8 2.6-.8c1.5 0 3.8 1 3.8 5.1c.01-.04 0 6.8 0 6.8l-2.1 0c0 0 .04-6.58 0-6.6c0-2.2-.8-3.6-2.5-3.6c-1.2 0-2.1.9-2.5 2c-.1.3-.1.6-.1 1c-.04.02 0 7.2 0 7.2l-2.1 0c0 0 0-6.96 0-7c0-1.8-.8-3.2-2.4-3.2c-1.3 0-2.3 1.1-2.6 2.2c-.2.3-.2.6-.2 1c-.01-.01 0 7 0 7l-2.1 0c0 0 .02-8.47 0-8.5zm26.5 8.5l-.2-1.5c0 0-.07.04-.1 0c-.6.9-1.9 1.8-3.5 1.8c-2.4 0-3.6-1.7-3.6-3.4c0-2.8 2.5-4.3 7-4.3c0 0 0-.2 0-.2c0-1-.3-2.7-2.6-2.7c-1.1 0-2.2.3-3.1.8c0 0-.4-1.3-.4-1.3c.9-.7 2.3-1.1 3.8-1.1c3.5 0 4.4 2.4 4.4 4.8c0 0 0 4.3 0 4.3c0 1 0 2 .2 2.8c-.01 0-1.9 0-1.9 0zm-.3-5.9c-2.3-.1-5 .3-5 2.6c0 1.4 1 2 2 2c1.5 0 2.5-1 2.8-1.9c.1-.3.2-.5.2-.7c0 0 0-2 0-2zm7.9-9.1l0 3.4l3 0l0 1.6l-3 0c0 0-.04 6.26 0 6.3c0 1.4.4 2.2 1.5 2.2c.6 0 1-.1 1.3-.1c0 0 .1 1.6.1 1.6c-.4.1-1.1.2-1.9.2c-1 0-1.8-.3-2.3-.8c-.6-.7-.8-1.7-.8-3.1c-.01.03 0-6.3 0-6.3l-1.8 0l0-1.6l1.8 0l0-2.8l2.1-.6zm13.5 14.6c-.6.3-1.8.6-3.3.6c-3.5 0-5.8-2.3-5.8-5.9c0-3.6 2.4-6.2 6.2-6.2c1.3 0 2.4.4 2.9.6c0 0-.4 1.7-.4 1.7c-.5-.3-1.3-.6-2.5-.6c-2.7 0-4.1 2-4.1 4.4c0 2.7 1.7 4.4 4 4.4c1.2 0 2-.4 2.6-.6c0 0 .4 1.6.4 1.6zm2.5-16.6l2.1 0l0 7.2c0 0 .02.01 0 0c.4-.6.9-1.1 1.5-1.5c.7-.3 1.4-.6 2.2-.6c1.6 0 4.1 1 4.1 5c-.05-.01 0 6.9 0 6.9l-2.2 0c0 0 .04-6.67 0-6.7c0-1.8-.7-3.4-2.6-3.4c-1.4 0-2.5.9-2.9 2.1c-.1.3-.1.6-.1 1c-.02-.01 0 7 0 7l-2.1 0l0-17zm14.5 11.6c0 2.8 1.8 4 3.9 4c1.6 0 2.5-.3 3.3-.6c0 0 .3 1.5.3 1.5c-.7.4-2 .7-3.8.7c-3.6 0-5.8-2.3-5.8-5.8c0-3.5 2.1-6.3 5.5-6.3c3.8 0 4.8 3.4 4.8 5.5c0 .4-.1.8-.1 1c0 0-8.1 0-8.1 0zm6.2-1.5c0-1.4-.6-3.5-3-3.5c-2.1 0-3 2-3.2 3.5c0 0 6.2 0 6.2 0zm4.3 4.7c.6.4 1.7.9 2.8.9c1.5 0 2.3-.8 2.3-1.7c0-1.1-.6-1.6-2.2-2.2c-2.1-.7-3.1-1.9-3.1-3.3c0-1.8 1.5-3.4 4-3.4c1.2 0 2.2.4 2.9.7c0 0-.5 1.6-.5 1.6c-.5-.3-1.3-.7-2.4-.7c-1.3 0-2 .7-2 1.6c0 .9.7 1.4 2.3 2c2 .7 3 1.7 3 3.5c0 2-1.6 3.4-4.3 3.4c-1.3 0-2.5-.3-3.3-.8c0 0 .5-1.6.5-1.6zm8 3.2l6.7-17.4l1.7 0l-6.8 17.4l-1.6 0z" stroke="none" fill="#fff"/></g></svg>