<?xml version="1.0" standalone="no"?><!DOCTYPE svg PUBLIC "-//W3C//DTD SVG 1.1//EN" "http://www.w3.org/Graphics/SVG/1.1/DTD/svg11.dtd"><svg xmlns="http://www.w3.org/2000/svg" version="1.1" width="128px" height="73px" viewBox="0 -7 128 73" style="top:-7px"><desc>real-time sync</desc><defs/><g id="Polygon8153"><path d="m36.1 45.4c.8.6 2.3 1.1 3.7 1.1c2 0 3-1 3-2.2c0-1.4-.8-2.1-2.9-2.9c-2.8-1-4.1-2.5-4.1-4.3c0-2.5 2-4.6 5.3-4.6c1.6 0 3 .5 3.8 1c0 0-.7 2-.7 2c-.6-.4-1.7-.9-3.1-.9c-1.7 0-2.6 1-2.6 2.1c0 1.3.9 1.9 2.9 2.7c2.7 1 4.1 2.3 4.1 4.6c0 2.7-2.1 4.6-5.8 4.6c-1.7 0-3.3-.4-4.3-1c0 0 .7-2.2.7-2.2zm14-12.5c0 0 3.35 9.09 3.4 9.1c.3 1 .7 2.2.9 3.1c0 0 .1 0 .1 0c.3-.9.6-2.1 1-3.2c-.01.03 3.1-9 3.1-9l2.9 0c0 0-4.19 10.97-4.2 11c-2 5.3-3.4 8-5.3 9.6c-1.3 1.2-2.7 1.7-3.4 1.8c0 0-.7-2.3-.7-2.3c.7-.2 1.6-.7 2.4-1.4c.8-.6 1.8-1.7 2.4-3.1c.1-.3.2-.5.2-.7c0-.1-.1-.4-.2-.7c.02-.01-5.7-14.2-5.7-14.2l3.1 0zm14 4.2c0-1.6-.1-2.9-.2-4.2c.03-.01 2.5 0 2.5 0l.2 2.5c0 0 .04.03 0 0c.8-1.4 2.6-2.9 5.1-2.9c2.2 0 5.5 1.3 5.5 6.6c-.02 0 0 9.2 0 9.2l-2.8 0c0 0-.02-8.89 0-8.9c0-2.5-.9-4.5-3.6-4.5c-1.8 0-3.3 1.3-3.7 2.8c-.2.4-.2.9-.2 1.3c-.04.03 0 9.3 0 9.3l-2.8 0c0 0-.04-11.24 0-11.2zm28.6 10.6c-.7.4-2.3.9-4.4.9c-4.7 0-7.7-3.1-7.7-7.8c0-4.8 3.3-8.2 8.3-8.2c1.7 0 3.1.4 3.9.8c0 0-.7 2.1-.7 2.1c-.6-.4-1.7-.7-3.2-.7c-3.5 0-5.4 2.6-5.4 5.8c0 3.6 2.2 5.8 5.3 5.8c1.6 0 2.6-.4 3.4-.8c0 0 .5 2.1.5 2.1z" stroke="none" fill="#3c3c3b"/></g><g id="Polygon8152"><path d="m6.6 13.3c0-1.8 0-3.4-.1-4.8c0-.03 2.5 0 2.5 0l0 3c0 0 .17 0 .2 0c.7-2.1 2.4-3.4 4.2-3.4c.4 0 .6.1.8.1c0 0 0 2.7 0 2.7c-.2-.1-.5-.1-.9-.1c-2 0-3.4 1.5-3.8 3.6c0 .3-.1.8-.1 1.3c0-.03 0 8.2 0 8.2l-2.8 0c0 0 .03-10.62 0-10.6zm11.7 3.4c0 3.8 2.5 5.3 5.3 5.3c2 0 3.2-.3 4.2-.8c0 0 .5 2 .5 2c-1 .5-2.7 1-5.1 1c-4.8 0-7.6-3.1-7.6-7.8c0-4.6 2.7-8.3 7.2-8.3c5.1 0 6.4 4.4 6.4 7.3c0 .6-.1 1-.1 1.3c0 0-10.8 0-10.8 0zm8.2-2c0-1.8-.7-4.6-3.9-4.6c-2.8 0-4.1 2.6-4.3 4.6c0 0 8.2 0 8.2 0zm14.7 9.2l-.2-2c0 0-.11.04-.1 0c-.9 1.3-2.5 2.3-4.7 2.3c-3.1 0-4.7-2.2-4.7-4.4c0-3.7 3.3-5.8 9.2-5.7c0 0 0-.3 0-.3c0-1.3-.3-3.6-3.5-3.6c-1.4 0-2.9.4-4 1.1c0 0-.6-1.8-.6-1.8c1.3-.8 3.1-1.4 5-1.4c4.8 0 5.9 3.2 5.9 6.3c0 0 0 5.8 0 5.8c0 1.3.1 2.6.3 3.7c-.04-.02-2.6 0-2.6 0zm-.4-7.9c-3.1 0-6.5.5-6.5 3.5c0 1.8 1.2 2.7 2.6 2.7c2 0 3.3-1.3 3.7-2.6c.1-.3.2-.6.2-.9c0 0 0-2.7 0-2.7zm7.2-14.7l2.8 0l0 22.6l-2.8 0l0-22.6zm14 12.9l0 2.1l-7.8 0l0-2.1l7.8 0zm6.7-10.2l0 4.5l4 0l0 2.1l-4 0c0 0-.01 8.32 0 8.3c0 1.9.5 3 2.1 3c.7 0 1.3-.1 1.6-.2c0 0 .1 2.1.1 2.1c-.5.2-1.4.4-2.4.4c-1.3 0-2.4-.4-3.1-1.2c-.8-.8-1-2.2-1-4c-.05.01 0-8.4 0-8.4l-2.4 0l0-2.1l2.4 0l0-3.7l2.7-.8zm7.2 19.9l0-15.4l2.8 0l0 15.4l-2.8 0zm3.1-19.8c0 1-.7 1.8-1.8 1.8c-1 0-1.7-.8-1.7-1.8c0-.9.7-1.7 1.8-1.7c1 0 1.7.8 1.7 1.7zm4.3 8.5c0-1.5 0-2.9-.1-4.1c-.02-.03 2.4 0 2.4 0l.2 2.5c0 0 .06-.05.1 0c.8-1.5 2.2-2.9 4.8-2.9c2.1 0 3.7 1.3 4.4 3.1c0 0 0 0 0 0c.5-.9 1.1-1.5 1.7-2c1-.7 2-1.1 3.5-1.1c2 0 5 1.4 5 6.7c.01.01 0 9.1 0 9.1l-2.7 0c0 0-.02-8.74 0-8.7c0-3-1.1-4.8-3.4-4.8c-1.6 0-2.8 1.2-3.3 2.6c-.1.3-.2.9-.2 1.4c0-.04 0 9.5 0 9.5l-2.7 0c0 0-.04-9.25 0-9.3c0-2.4-1.1-4.2-3.3-4.2c-1.7 0-3 1.4-3.4 2.8c-.2.4-.3.9-.3 1.4c.05-.01 0 9.3 0 9.3l-2.7 0c0 0 .01-11.26 0-11.3zm28.1 4.1c.1 3.8 2.5 5.3 5.3 5.3c2 0 3.2-.3 4.3-.8c0 0 .5 2 .5 2c-1 .5-2.7 1-5.2 1c-4.7 0-7.5-3.1-7.5-7.8c0-4.6 2.7-8.3 7.2-8.3c5 0 6.4 4.4 6.4 7.3c0 .6-.1 1-.1 1.3c0 0-10.9 0-10.9 0zm8.2-2c.1-1.8-.7-4.6-3.8-4.6c-2.9 0-4.1 2.6-4.3 4.6c0 0 8.1 0 8.1 0z" stroke="none" fill="#3c3c3b"/></g></svg>