<?xml version="1.0" standalone="no"?><!DOCTYPE svg PUBLIC "-//W3C//DTD SVG 1.1//EN" "http://www.w3.org/Graphics/SVG/1.1/DTD/svg11.dtd"><svg xmlns="http://www.w3.org/2000/svg" version="1.1" width="510.4px" height="134px" viewBox="0 -9 510.4 134" style="top:-9px"><desc>Leave the reconciliation and vendor follow-up to your extended team at Cygnet TaxTech</desc><defs/><g id="Polygon9268"><path d="m18 107.4c-.9.4-3 .9-5.6.9c-7.4 0-11.3-4.6-11.3-10.8c0-7.3 5.3-11.4 11.8-11.4c2.5 0 4.4.5 5.3.9c0 0-1 3.9-1 3.9c-1-.4-2.4-.8-4.1-.8c-3.9 0-6.9 2.3-6.9 7.1c0 4.4 2.6 7.1 7 7.1c1.4 0 3.1-.3 4-.7c0 0 .8 3.8.8 3.8zm5.6-15c0 0 2.32 7.63 2.3 7.6c.3 1 .6 2.1.8 2.9c0 0 .1 0 .1 0c.2-.8.5-2 .7-2.9c-.01.03 1.9-7.6 1.9-7.6l5.2 0c0 0-3.62 10.26-3.6 10.3c-2.3 6.2-3.8 8.7-5.5 10.2c-1.7 1.5-3.5 2-4.7 2.2c0 0-1.1-4.2-1.1-4.2c.7-.1 1.4-.3 2.2-.8c.7-.4 1.5-1.1 2-1.9c.1-.3.2-.5.2-.7c0-.2 0-.5-.2-.8c0-.04-5.7-14.3-5.7-14.3l5.4 0zm27.6 0c-.1.9-.2 2.3-.2 4.6c0 0 0 8.7 0 8.7c0 3-.6 5.5-2.3 7.1c-1.8 1.4-4.1 1.9-6.4 1.9c-2 0-4.2-.4-5.6-1.2c0 0 .9-3.7.9-3.7c1 .6 2.8 1.2 4.6 1.2c2.3 0 4-1.3 4-4.2c.04.05 0-1 0-1c0 0-.02.02 0 0c-1 1.3-2.5 2.1-4.2 2.1c-3.9 0-6.7-3.2-6.7-7.7c0-5 3.3-8.2 7.1-8.2c2.2 0 3.5.9 4.3 2.2c.02.01.1 0 .1 0l.1-1.8c0 0 4.27-.05 4.3 0zm-5 6.3c0-.3-.1-.6-.1-.9c-.4-1.3-1.3-2.1-2.6-2.1c-1.8 0-3.2 1.6-3.2 4.4c0 2.4 1.1 4.2 3.2 4.2c1.2 0 2.2-.8 2.5-2c.1-.3.2-.9.2-1.3c0 0 0-2.3 0-2.3zm8.7-1.4c0-1.9 0-3.6-.1-4.9c.02-.05 4.2 0 4.2 0l.3 2.1c0 0 .06 0 .1 0c.6-1 2.2-2.5 4.8-2.5c3.2 0 5.6 2.1 5.6 6.7c-.01.02 0 9.3 0 9.3l-4.9 0c0 0 .03-8.67 0-8.7c0-2-.7-3.4-2.4-3.4c-1.4 0-2.2 1-2.5 1.9c-.1.2-.2.7-.2 1.2c.01-.02 0 9 0 9l-4.9 0c0 0 .04-10.66 0-10.7zm22.5 4.4c.2 2 2.2 3 4.5 3c1.6 0 3-.2 4.3-.6c0 0 .6 3.3.6 3.3c-1.6.6-3.5.9-5.6.9c-5.4 0-8.4-3.1-8.4-7.9c0-4 2.5-8.4 7.9-8.4c5.1 0 7 3.9 7 7.8c0 .8-.1 1.6-.2 1.9c0 0-10.1 0-10.1 0zm5.8-3.3c0-1.2-.5-3.2-2.8-3.2c-2 0-2.9 1.9-3 3.2c0 0 5.8 0 5.8 0zm12.8-10.5l0 4.5l3.5 0l0 3.5l-3.5 0c0 0 .03 5.7 0 5.7c0 1.9.5 2.8 2 2.8c.6 0 1-.1 1.4-.2c0 0 0 3.7 0 3.7c-.6.3-1.8.4-3.1.4c-1.6 0-2.9-.5-3.7-1.3c-.9-1-1.3-2.5-1.3-4.7c-.04.04 0-6.4 0-6.4l-2.1 0l0-3.5l2.1 0l0-3.4l4.7-1.1zm15.9 2.6l-5.8 0l0-4.1l16.6 0l0 4.1l-5.9 0l0 17.5l-4.9 0l0-17.5zm20 17.5l-.3-1.6c0 0-.11.03-.1 0c-1 1.3-2.6 2-4.5 2c-3.2 0-5-2.4-5-4.8c0-4.1 3.6-6.1 9.1-6c0 0 0-.3 0-.3c0-.8-.4-2-2.8-2c-1.6 0-3.3.6-4.3 1.2c0 0-.9-3.1-.9-3.1c1.1-.6 3.2-1.4 6.1-1.4c5.2 0 6.8 3.1 6.8 6.8c0 0 0 5.4 0 5.4c0 1.5.1 2.9.3 3.8c-.04 0-4.4 0-4.4 0zm-.6-7.4c-2.6 0-4.5.6-4.5 2.5c0 1.2.8 1.8 1.9 1.8c1.2 0 2.2-.8 2.5-1.8c.1-.2.1-.5.1-.8c0 0 0-1.7 0-1.7zm12.3-8.2c0 0 1.52 2.54 1.5 2.5c.5.8.9 1.6 1.3 2.4c0 0 .1 0 .1 0c.4-.9.8-1.7 1.2-2.4c-.02-.02 1.4-2.5 1.4-2.5l5.2 0l-5.1 7.4l5.2 8.2l-5.5 0c0 0-1.57-2.82-1.6-2.8c-.4-.8-.8-1.6-1.2-2.4c0 0-.1 0-.1 0c-.4.8-.8 1.6-1.2 2.4c.03-.02-1.4 2.8-1.4 2.8l-5.4 0l5.3-8l-5.2-7.6l5.5 0zm16.3-1.9l-5.8 0l0-4.1l16.6 0l0 4.1l-5.9 0l0 17.5l-4.9 0l0-17.5zm14.3 11.2c.2 2 2.2 3 4.5 3c1.6 0 3-.2 4.3-.6c0 0 .6 3.3.6 3.3c-1.6.6-3.5.9-5.6.9c-5.4 0-8.4-3.1-8.4-7.9c0-4 2.5-8.4 7.9-8.4c5.1 0 7 3.9 7 7.8c0 .8-.1 1.6-.2 1.9c0 0-10.1 0-10.1 0zm5.8-3.3c0-1.2-.5-3.2-2.8-3.2c-2 0-2.9 1.9-3 3.2c0 0 5.8 0 5.8 0zm19.1 9.2c-.8.4-2.5.7-4.3.7c-5.1 0-8.3-3.1-8.3-8c0-4.6 3.1-8.3 9-8.3c1.2 0 2.6.2 3.7.6c0 0-.8 3.6-.8 3.6c-.6-.2-1.4-.5-2.7-.5c-2.6 0-4.2 1.9-4.2 4.4c0 2.9 1.9 4.4 4.3 4.4c1.1 0 2-.2 2.8-.5c0 0 .5 3.6.5 3.6zm2.7-22.3l4.9 0l0 8.9c0 0 .05.01.1 0c.5-.7 1.1-1.2 1.9-1.6c.7-.4 1.6-.6 2.5-.6c3.1 0 5.5 2.1 5.5 6.8c-.03.05 0 9.2 0 9.2l-4.9 0c0 0 .01-8.61 0-8.6c0-2.1-.7-3.5-2.5-3.5c-1.3 0-2.1.9-2.5 1.7c-.1.4-.1.8-.1 1.1c-.01.02 0 9.3 0 9.3l-4.9 0l0-22.7z" stroke="none" fill="#15345e"/></g><g id="Polygon9267"><path d="m2.5 66l0-12.1l-2.1 0l0-3.5l2.1 0c0 0 0-.66 0-.7c0-1.8.6-3.9 2-5.2c1.2-1.2 2.9-1.6 4.3-1.6c1.1 0 1.9.2 2.6.3c0 0-.2 3.8-.2 3.8c-.4-.1-.9-.2-1.6-.2c-1.6 0-2.2 1.2-2.2 2.8c-.04-.05 0 .8 0 .8l3.1 0l0 3.5l-3.1 0l0 12.1l-4.9 0zm25.5-8c0 5.7-4.1 8.4-8.3 8.4c-4.5 0-8.1-3.1-8.1-8.1c0-5.1 3.4-8.3 8.4-8.3c4.8 0 8 3.3 8 8zm-11.3.2c0 2.6 1.1 4.7 3.2 4.7c1.9 0 3.1-1.9 3.1-4.7c0-2.4-.9-4.7-3.1-4.7c-2.4 0-3.2 2.4-3.2 4.7zm14.3-14.9l4.9 0l0 22.7l-4.9 0l0-22.7zm8.8 0l4.9 0l0 22.7l-4.9 0l0-22.7zm24.3 14.7c0 5.7-4.1 8.4-8.3 8.4c-4.6 0-8.1-3.1-8.1-8.1c0-5.1 3.3-8.3 8.4-8.3c4.8 0 8 3.3 8 8zm-11.4.2c0 2.6 1.2 4.7 3.2 4.7c1.9 0 3.1-1.9 3.1-4.7c0-2.4-.9-4.7-3.1-4.7c-2.3 0-3.2 2.4-3.2 4.7zm17.4-7.8c0 0 1.29 6.35 1.3 6.4c.3 1.6.6 3.3.9 5.1c0 0 .1 0 .1 0c.3-1.8.7-3.6 1.1-5.1c0-.02 1.7-6.4 1.7-6.4l3.8 0c0 0 1.58 6.19 1.6 6.2c.4 1.8.8 3.5 1.1 5.3c0 0 .1 0 .1 0c.2-1.8.5-3.5.9-5.3c-.01-.04 1.3-6.2 1.3-6.2l4.8 0l-4.8 15.6l-4.6 0c0 0-1.45-5.5-1.4-5.5c-.4-1.5-.7-2.9-1-4.9c0 0-.1 0-.1 0c-.3 2-.6 3.4-1 4.9c-.03 0-1.6 5.5-1.6 5.5l-4.6 0l-4.5-15.6l4.9 0zm28.1 5.6l0 3.2l-8.3 0l0-3.2l8.3 0zm17.7 5c0 2 .1 3.7.1 5c.03 0-4.2 0-4.2 0l-.2-2.2c0 0-.11-.01-.1 0c-.6 1-2.1 2.6-4.9 2.6c-3.2 0-5.5-2-5.5-6.9c-.01.04 0-9.1 0-9.1l4.9 0c0 0-.02 8.37 0 8.4c0 2.2.7 3.6 2.4 3.6c1.4 0 2.1-.9 2.4-1.7c.2-.3.2-.7.2-1c.01-.04 0-9.3 0-9.3l4.9 0c0 0 0 10.58 0 10.6zm3.9-5.4c0-2-.1-3.8-.1-5.2c-.02-.05 4.2 0 4.2 0l.2 2.1c0 0 .09.03.1 0c1.1-1.6 2.9-2.5 5.2-2.5c3.4 0 6.5 3 6.5 8c0 5.7-3.6 8.4-7.1 8.4c-1.9 0-3.4-.8-4.1-1.8c.03-.04 0 0 0 0l0 7.7l-4.9 0c0 0 .01-16.7 0-16.7zm4.9 3.7c0 .4 0 .7.1 1c.3 1.3 1.4 2.3 2.8 2.3c2.1 0 3.4-1.8 3.4-4.4c0-2.5-1.1-4.4-3.3-4.4c-1.4 0-2.6 1-2.9 2.5c-.1.2-.1.5-.1.8c0 0 0 2.2 0 2.2zm26.1-13.4l0 4.5l3.5 0l0 3.5l-3.5 0c0 0 .05 5.7 0 5.7c0 1.9.5 2.8 2 2.8c.6 0 1.1-.1 1.4-.2c0 0 0 3.7 0 3.7c-.6.3-1.8.4-3.1.4c-1.6 0-2.9-.5-3.7-1.3c-.9-1-1.3-2.5-1.3-4.7c-.02.04 0-6.4 0-6.4l-2.1 0l0-3.5l2.1 0l0-3.4l4.7-1.1zm21.6 12.1c0 5.7-4 8.4-8.2 8.4c-4.6 0-8.1-3.1-8.1-8.1c0-5.1 3.3-8.3 8.3-8.3c4.8 0 8 3.3 8 8zm-11.3.2c0 2.6 1.1 4.7 3.2 4.7c1.9 0 3.1-1.9 3.1-4.7c0-2.4-.9-4.7-3.1-4.7c-2.3 0-3.2 2.4-3.2 4.7zm24.5-7.8c0 0 2.3 7.63 2.3 7.6c.3 1 .6 2.1.8 2.9c0 0 .1 0 .1 0c.2-.8.4-2 .7-2.9c-.03.03 1.9-7.6 1.9-7.6l5.2 0c0 0-3.64 10.26-3.6 10.3c-2.3 6.2-3.8 8.7-5.5 10.2c-1.7 1.5-3.5 2-4.7 2.2c0 0-1.1-4.2-1.1-4.2c.6-.1 1.4-.3 2.1-.8c.8-.4 1.6-1.1 2.1-1.9c.1-.3.2-.5.2-.7c0-.2 0-.5-.2-.8c-.01-.04-5.7-14.3-5.7-14.3l5.4 0zm28 7.6c0 5.7-4 8.4-8.2 8.4c-4.6 0-8.1-3.1-8.1-8.1c0-5.1 3.3-8.3 8.3-8.3c4.8 0 8 3.3 8 8zm-11.3.2c0 2.6 1.1 4.7 3.2 4.7c1.9 0 3.1-1.9 3.1-4.7c0-2.4-.9-4.7-3.1-4.7c-2.3 0-3.2 2.4-3.2 4.7zm29.1 2.8c0 2 .1 3.7.1 5c.02 0-4.2 0-4.2 0l-.2-2.2c0 0-.13-.01-.1 0c-.6 1-2.1 2.6-4.9 2.6c-3.2 0-5.5-2-5.5-6.9c-.03.04 0-9.1 0-9.1l4.9 0c0 0-.03 8.37 0 8.4c0 2.2.7 3.6 2.4 3.6c1.3 0 2.1-.9 2.4-1.7c.2-.3.2-.7.2-1c-.01-.04 0-9.3 0-9.3l4.9 0c0 0-.01 10.58 0 10.6zm3.9-5.5c0-2.3-.1-3.8-.1-5.1c-.03-.05 4.2 0 4.2 0l.1 2.8c0 0 .15.03.1 0c.8-2.2 2.8-3.2 4.3-3.2c.4 0 .6 0 1 .1c0 0 0 4.5 0 4.5c-.4 0-.8-.1-1.3-.1c-1.8 0-3 1-3.3 2.5c-.1.3-.1.7-.1 1.1c-.04-.04 0 7.9 0 7.9l-4.9 0c0 0-.01-10.5 0-10.5zm22.4 4.2c.1 2 2.1 3 4.4 3c1.6 0 3-.2 4.3-.6c0 0 .6 3.3.6 3.3c-1.6.6-3.5.9-5.6.9c-5.3 0-8.4-3.1-8.4-7.9c0-4 2.5-8.4 7.9-8.4c5.1 0 7 3.9 7 7.8c0 .8-.1 1.6-.2 1.9c0 0-10 0-10 0zm5.7-3.3c0-1.2-.5-3.2-2.8-3.2c-2 0-2.8 1.9-3 3.2c0 0 5.8 0 5.8 0zm10.7-6c0 0 1.58 2.54 1.6 2.5c.4.8.8 1.6 1.3 2.4c0 0 0 0 0 0c.4-.9.8-1.7 1.2-2.4c.04-.02 1.4-2.5 1.4-2.5l5.3 0l-5.2 7.4l5.3 8.2l-5.5 0c0 0-1.61-2.82-1.6-2.8c-.5-.8-.8-1.6-1.2-2.4c0 0-.1 0-.1 0c-.4.8-.8 1.6-1.2 2.4c-.01-.02-1.5 2.8-1.5 2.8l-5.3 0l5.3-8l-5.2-7.6l5.4 0zm18.8-4.5l0 4.5l3.5 0l0 3.5l-3.5 0c0 0-.01 5.7 0 5.7c0 1.9.4 2.8 1.9 2.8c.6 0 1.1-.1 1.5-.2c0 0 0 3.7 0 3.7c-.7.3-1.8.4-3.2.4c-1.6 0-2.9-.5-3.6-1.3c-.9-1-1.4-2.5-1.4-4.7c.02.04 0-6.4 0-6.4l-2.1 0l0-3.5l2.1 0l0-3.4l4.8-1.1zm9.9 13.8c.1 2 2.1 3 4.4 3c1.7 0 3-.2 4.3-.6c0 0 .7 3.3.7 3.3c-1.6.6-3.6.9-5.7.9c-5.3 0-8.4-3.1-8.4-7.9c0-4 2.5-8.4 7.9-8.4c5.1 0 7 3.9 7 7.8c0 .8-.1 1.6-.1 1.9c0 0-10.1 0-10.1 0zm5.7-3.3c0-1.2-.5-3.2-2.7-3.2c-2.1 0-2.9 1.9-3.1 3.2c0 0 5.8 0 5.8 0zm7.4-1.1c0-1.9 0-3.6-.1-4.9c0-.05 4.2 0 4.2 0l.3 2.1c0 0 .05 0 0 0c.7-1 2.3-2.5 4.9-2.5c3.2 0 5.6 2.1 5.6 6.7c-.02.02 0 9.3 0 9.3l-4.9 0c0 0 .02-8.67 0-8.7c0-2-.7-3.4-2.4-3.4c-1.4 0-2.2 1-2.5 1.9c-.1.2-.2.7-.2 1.2c0-.02 0 9 0 9l-4.9 0c0 0 .03-10.66 0-10.7zm34-12c0 0-.05 18.03 0 18c0 1.8 0 3.6.1 4.7c-.02 0-4.3 0-4.3 0l-.3-2.3c0 0-.03 0 0 0c-1 1.8-2.9 2.7-4.9 2.7c-3.7 0-6.7-3.2-6.7-8.1c0-5.3 3.3-8.3 7-8.3c1.9 0 3.4.7 4.1 1.8c.02-.04.1 0 .1 0l0-8.5l4.9 0zm-4.9 13.7c0-.3 0-.6-.1-.9c-.3-1.3-1.3-2.4-2.8-2.4c-2.2 0-3.4 2-3.4 4.5c0 2.6 1.3 4.3 3.3 4.3c1.5 0 2.6-1 2.9-2.4c.1-.3.1-.7.1-1.1c0 0 0-2 0-2zm12.5 2.7c.2 2 2.1 3 4.4 3c1.7 0 3-.2 4.3-.6c0 0 .7 3.3.7 3.3c-1.6.6-3.6.9-5.7.9c-5.3 0-8.3-3.1-8.3-7.9c0-4 2.4-8.4 7.9-8.4c5 0 6.9 3.9 6.9 7.8c0 .8-.1 1.6-.1 1.9c0 0-10.1 0-10.1 0zm5.7-3.3c0-1.2-.5-3.2-2.7-3.2c-2.1 0-2.9 1.9-3 3.2c0 0 5.7 0 5.7 0zm22.6-13.1c0 0 .02 18.03 0 18c0 1.8.1 3.6.1 4.7c.05 0-4.3 0-4.3 0l-.2-2.3c0 0-.06 0-.1 0c-1 1.8-2.8 2.7-4.9 2.7c-3.7 0-6.6-3.2-6.6-8.1c-.1-5.3 3.2-8.3 7-8.3c1.9 0 3.4.7 4.1 1.8c-.01-.04.1 0 .1 0l0-8.5l4.8 0zm-4.8 13.7c0-.3-.1-.6-.1-.9c-.3-1.3-1.4-2.4-2.9-2.4c-2.2 0-3.3 2-3.3 4.5c0 2.6 1.3 4.3 3.3 4.3c1.4 0 2.5-1 2.8-2.4c.1-.3.2-.7.2-1.1c0 0 0-2 0-2zm20.6-11.1l0 4.5l3.5 0l0 3.5l-3.5 0c0 0 .03 5.7 0 5.7c0 1.9.5 2.8 1.9 2.8c.7 0 1.1-.1 1.5-.2c0 0 0 3.7 0 3.7c-.6.3-1.8.4-3.1.4c-1.6 0-2.9-.5-3.7-1.3c-.9-1-1.3-2.5-1.3-4.7c-.04.04 0-6.4 0-6.4l-2.1 0l0-3.5l2.1 0l0-3.4l4.7-1.1zm9.9 13.8c.2 2 2.2 3 4.4 3c1.7 0 3-.2 4.4-.6c0 0 .6 3.3.6 3.3c-1.6.6-3.6.9-5.7.9c-5.3 0-8.3-3.1-8.3-7.9c0-4 2.4-8.4 7.9-8.4c5 0 7 3.9 7 7.8c0 .8-.1 1.6-.2 1.9c0 0-10.1 0-10.1 0zm5.7-3.3c0-1.2-.5-3.2-2.7-3.2c-2.1 0-2.9 1.9-3 3.2c0 0 5.7 0 5.7 0zm16.4 9.6l-.3-1.6c0 0-.12.03-.1 0c-1 1.3-2.6 2-4.5 2c-3.2 0-5.1-2.4-5.1-4.8c0-4.1 3.7-6.1 9.2-6c0 0 0-.3 0-.3c0-.8-.4-2-2.8-2c-1.6 0-3.3.6-4.3 1.2c0 0-.9-3.1-.9-3.1c1.1-.6 3.2-1.4 6-1.4c5.3 0 6.9 3.1 6.9 6.8c0 0 0 5.4 0 5.4c0 1.5.1 2.9.2 3.8c.05 0-4.3 0-4.3 0zm-.6-7.4c-2.6 0-4.6.6-4.6 2.5c0 1.2.9 1.8 2 1.8c1.2 0 2.2-.8 2.5-1.8c.1-.2.1-.5.1-.8c0 0 0-1.7 0-1.7zm8.6-3.3c0-1.9-.1-3.6-.2-4.9c.04-.05 4.1 0 4.1 0l.3 2.1c0 0 .05-.04.1 0c.6-1 2-2.5 4.7-2.5c2 0 3.6 1 4.3 2.7c0 0 0 0 0 0c.6-.8 1.3-1.5 2.1-1.9c.8-.5 1.8-.8 2.9-.8c3 0 5.3 2.1 5.3 6.8c.01-.02 0 9.2 0 9.2l-4.7 0c0 0-.02-8.51 0-8.5c0-2.3-.8-3.6-2.3-3.6c-1.1 0-1.9.8-2.3 1.7c-.1.4-.2.9-.2 1.2c.04.05 0 9.2 0 9.2l-4.7 0c0 0 0-8.77 0-8.8c0-2-.7-3.3-2.2-3.3c-1.3 0-2 1-2.3 1.8c-.2.3-.2.8-.2 1.2c0-.02 0 9.1 0 9.1l-4.7 0c0 0-.04-10.66 0-10.7zm42.8 10.7l-.2-1.6c0 0-.14.03-.1 0c-1.1 1.3-2.7 2-4.5 2c-3.2 0-5.1-2.4-5.1-4.8c0-4.1 3.7-6.1 9.2-6c0 0 0-.3 0-.3c0-.8-.4-2-2.8-2c-1.6 0-3.3.6-4.4 1.2c0 0-.9-3.1-.9-3.1c1.1-.6 3.3-1.4 6.1-1.4c5.2 0 6.9 3.1 6.9 6.8c0 0 0 5.4 0 5.4c0 1.5.1 2.9.2 3.8c.03 0-4.4 0-4.4 0zm-.5-7.4c-2.6 0-4.6.6-4.6 2.5c0 1.2.9 1.8 1.9 1.8c1.3 0 2.3-.8 2.6-1.8c0-.2.1-.5.1-.8c0 0 0-1.7 0-1.7zm13.7-12.7l0 4.5l3.5 0l0 3.5l-3.5 0c0 0 .03 5.7 0 5.7c0 1.9.5 2.8 1.9 2.8c.7 0 1.1-.1 1.5-.2c0 0 0 3.7 0 3.7c-.6.3-1.8.4-3.1.4c-1.6 0-2.9-.5-3.7-1.3c-.9-1-1.3-2.5-1.3-4.7c-.04.04 0-6.4 0-6.4l-2.1 0l0-3.5l2.1 0l0-3.4l4.7-1.1z" stroke="none" fill="#15345e"/></g><g id="Polygon9266"><path d="m2.1 2.4l4.9 0l0 17.5l8.6 0l0 4.1l-13.5 0l0-21.6zm19.7 15.3c.1 2 2.1 3 4.4 3c1.6 0 3-.2 4.3-.6c0 0 .6 3.3.6 3.3c-1.6.6-3.5.9-5.6.9c-5.3 0-8.4-3.1-8.4-7.9c0-4 2.5-8.4 7.9-8.4c5.1 0 7 3.9 7 7.8c0 .8-.1 1.6-.2 1.9c0 0-10 0-10 0zm5.7-3.3c0-1.2-.5-3.2-2.8-3.2c-2 0-2.8 1.9-3 3.2c0 0 5.8 0 5.8 0zm16.3 9.6l-.3-1.6c0 0-.08.03-.1 0c-1 1.3-2.6 2-4.5 2c-3.1 0-5-2.4-5-4.8c0-4.1 3.6-6.1 9.2-6c0 0 0-.3 0-.3c0-.8-.5-2-2.9-2c-1.6 0-3.3.6-4.3 1.2c0 0-.9-3.1-.9-3.1c1.1-.6 3.2-1.4 6.1-1.4c5.2 0 6.9 3.1 6.9 6.8c0 0 0 5.4 0 5.4c0 1.5 0 2.9.2 3.8c-.01 0-4.4 0-4.4 0zm-.6-7.4c-2.5 0-4.5.6-4.5 2.5c0 1.2.8 1.8 1.9 1.8c1.2 0 2.2-.8 2.5-1.8c.1-.2.1-.5.1-.8c0 0 0-1.7 0-1.7zm11.8-8.2c0 0 2.15 7.22 2.2 7.2c.3 1.3.6 2.6.8 3.8c0 0 .1 0 .1 0c.3-1.3.6-2.4.9-3.8c.01.02 2-7.2 2-7.2l5.1 0l-5.8 15.6l-4.8 0l-5.7-15.6l5.2 0zm16.6 9.3c.2 2 2.2 3 4.5 3c1.6 0 3-.2 4.3-.6c0 0 .6 3.3.6 3.3c-1.6.6-3.5.9-5.6.9c-5.4 0-8.4-3.1-8.4-7.9c0-4 2.5-8.4 7.9-8.4c5.1 0 7 3.9 7 7.8c0 .8-.1 1.6-.2 1.9c0 0-10.1 0-10.1 0zm5.8-3.3c0-1.2-.5-3.2-2.8-3.2c-2 0-2.9 1.9-3 3.2c0 0 5.8 0 5.8 0zm19.3-10.5l0 4.5l3.5 0l0 3.5l-3.5 0c0 0 0 5.7 0 5.7c0 1.9.5 2.8 1.9 2.8c.6 0 1.1-.1 1.5-.2c0 0 0 3.7 0 3.7c-.6.3-1.8.4-3.2.4c-1.5 0-2.9-.5-3.6-1.3c-.9-1-1.4-2.5-1.4-4.7c.04.04 0-6.4 0-6.4l-2 0l0-3.5l2 0l0-3.4l4.8-1.1zm6.3-2.6l4.9 0l0 8.9c0 0 .04.01 0 0c.5-.7 1.2-1.2 2-1.6c.7-.4 1.6-.6 2.5-.6c3.1 0 5.5 2.1 5.5 6.8c-.04.05 0 9.2 0 9.2l-4.9 0c0 0-.01-8.61 0-8.6c0-2.1-.7-3.5-2.5-3.5c-1.3 0-2.1.9-2.5 1.7c-.1.4-.1.8-.1 1.1c-.03.02 0 9.3 0 9.3l-4.9 0l0-22.7zm22.5 16.4c.2 2 2.1 3 4.4 3c1.7 0 3-.2 4.3-.6c0 0 .7 3.3.7 3.3c-1.6.6-3.6.9-5.7.9c-5.3 0-8.3-3.1-8.3-7.9c0-4 2.4-8.4 7.9-8.4c5 0 6.9 3.9 6.9 7.8c0 .8-.1 1.6-.1 1.9c0 0-10.1 0-10.1 0zm5.7-3.3c0-1.2-.5-3.2-2.7-3.2c-2.1 0-2.9 1.9-3 3.2c0 0 5.7 0 5.7 0zm13.9-.9c0-2.3 0-3.8-.1-5.1c-.01-.05 4.2 0 4.2 0l.1 2.8c0 0 .17.03.2 0c.8-2.2 2.7-3.2 4.2-3.2c.4 0 .7 0 1 .1c0 0 0 4.5 0 4.5c-.3 0-.7-.1-1.3-.1c-1.8 0-3 1-3.3 2.5c-.1.3-.1.7-.1 1.1c-.02-.04 0 7.9 0 7.9l-4.9 0c0 0 .02-10.5 0-10.5zm15.7 4.2c.1 2 2.1 3 4.4 3c1.6 0 3-.2 4.3-.6c0 0 .6 3.3.6 3.3c-1.6.6-3.5.9-5.6.9c-5.3 0-8.4-3.1-8.4-7.9c0-4 2.5-8.4 7.9-8.4c5.1 0 7 3.9 7 7.8c0 .8-.1 1.6-.2 1.9c0 0-10 0-10 0zm5.7-3.3c0-1.2-.5-3.2-2.8-3.2c-2 0-2.8 1.9-3 3.2c0 0 5.8 0 5.8 0zm19.2 9.2c-.9.4-2.5.7-4.4.7c-5 0-8.3-3.1-8.3-8c0-4.6 3.2-8.3 9-8.3c1.3 0 2.7.2 3.7.6c0 0-.8 3.6-.8 3.6c-.5-.2-1.4-.5-2.7-.5c-2.6 0-4.2 1.9-4.2 4.4c0 2.9 1.9 4.4 4.3 4.4c1.2 0 2.1-.2 2.8-.5c0 0 .6 3.6.6 3.6zm17.8-7.6c0 5.7-4.1 8.4-8.3 8.4c-4.6 0-8.1-3.1-8.1-8.1c0-5.1 3.3-8.3 8.4-8.3c4.8 0 8 3.3 8 8zm-11.4.2c0 2.6 1.1 4.7 3.2 4.7c1.9 0 3.1-1.9 3.1-4.7c0-2.4-.9-4.7-3.1-4.7c-2.3 0-3.2 2.4-3.2 4.7zm14.4-2.9c0-1.9-.1-3.6-.2-4.9c.04-.05 4.3 0 4.3 0l.2 2.1c0 0 .08 0 .1 0c.6-1 2.2-2.5 4.8-2.5c3.2 0 5.6 2.1 5.6 6.7c.01.02 0 9.3 0 9.3l-4.9 0c0 0 .05-8.67 0-8.7c0-2-.7-3.4-2.4-3.4c-1.4 0-2.2 1-2.5 1.9c-.1.2-.2.7-.2 1.2c.03-.02 0 9 0 9l-4.8 0c0 0-.04-10.66 0-10.7zm30.5 10.3c-.9.4-2.5.7-4.4.7c-5 0-8.3-3.1-8.3-8c0-4.6 3.2-8.3 9-8.3c1.3 0 2.7.2 3.7.6c0 0-.8 3.6-.8 3.6c-.6-.2-1.4-.5-2.7-.5c-2.6 0-4.2 1.9-4.2 4.4c0 2.9 1.9 4.4 4.3 4.4c1.2 0 2-.2 2.8-.5c0 0 .6 3.6.6 3.6zm2.6.4l0-15.6l4.9 0l0 15.6l-4.9 0zm5.1-20c0 1.3-1.1 2.4-2.7 2.4c-1.5 0-2.5-1.1-2.5-2.4c0-1.4 1-2.5 2.6-2.5c1.5 0 2.5 1.1 2.6 2.5zm3.7-2.7l4.9 0l0 22.7l-4.9 0l0-22.7zm8.8 22.7l0-15.6l4.9 0l0 15.6l-4.9 0zm5-20c0 1.3-1 2.4-2.6 2.4c-1.5 0-2.5-1.1-2.5-2.4c0-1.4 1-2.5 2.5-2.5c1.6 0 2.6 1.1 2.6 2.5zm12.7 20l-.3-1.6c0 0-.11.03-.1 0c-1 1.3-2.6 2-4.5 2c-3.2 0-5-2.4-5-4.8c0-4.1 3.6-6.1 9.1-6c0 0 0-.3 0-.3c0-.8-.4-2-2.8-2c-1.6 0-3.3.6-4.3 1.2c0 0-.9-3.1-.9-3.1c1.1-.6 3.2-1.4 6.1-1.4c5.2 0 6.8 3.1 6.8 6.8c0 0 0 5.4 0 5.4c0 1.5.1 2.9.3 3.8c-.04 0-4.4 0-4.4 0zm-.6-7.4c-2.6 0-4.5.6-4.5 2.5c0 1.2.8 1.8 1.9 1.8c1.2 0 2.2-.8 2.5-1.8c.1-.2.1-.5.1-.8c0 0 0-1.7 0-1.7zm13.8-12.7l0 4.5l3.4 0l0 3.5l-3.4 0c0 0-.04 5.7 0 5.7c0 1.9.4 2.8 1.9 2.8c.6 0 1.1-.1 1.4-.2c0 0 .1 3.7.1 3.7c-.7.3-1.8.4-3.2.4c-1.6 0-2.9-.5-3.7-1.3c-.9-1-1.3-2.5-1.3-4.7c-.01.04 0-6.4 0-6.4l-2.1 0l0-3.5l2.1 0l0-3.4l4.8-1.1zm6.3 20.1l0-15.6l4.8 0l0 15.6l-4.8 0zm5-20c0 1.3-1 2.4-2.6 2.4c-1.6 0-2.6-1.1-2.6-2.4c0-1.4 1-2.5 2.6-2.5c1.6 0 2.6 1.1 2.6 2.5zm19.2 12c0 5.7-4.1 8.4-8.3 8.4c-4.5 0-8.1-3.1-8.1-8.1c0-5.1 3.4-8.3 8.4-8.3c4.8 0 8 3.3 8 8zm-11.3.2c0 2.6 1.1 4.7 3.2 4.7c1.8 0 3.1-1.9 3.1-4.7c0-2.4-.9-4.7-3.1-4.7c-2.4 0-3.2 2.4-3.2 4.7zm14.3-2.9c0-1.9-.1-3.6-.1-4.9c-.03-.05 4.2 0 4.2 0l.2 2.1c0 0 .11 0 .1 0c.7-1 2.3-2.5 4.8-2.5c3.2 0 5.6 2.1 5.6 6.7c.05.02 0 9.3 0 9.3l-4.8 0c0 0-.02-8.67 0-8.7c0-2-.7-3.4-2.5-3.4c-1.3 0-2.1 1-2.4 1.9c-.2.2-.2.7-.2 1.2c-.04-.02 0 9 0 9l-4.9 0c0 0 0-10.66 0-10.7zm34.1 10.7l-.3-1.6c0 0-.08.03-.1 0c-1 1.3-2.6 2-4.5 2c-3.1 0-5-2.4-5-4.8c0-4.1 3.6-6.1 9.2-6c0 0 0-.3 0-.3c0-.8-.5-2-2.9-2c-1.6 0-3.3.6-4.3 1.2c0 0-.9-3.1-.9-3.1c1.1-.6 3.2-1.4 6.1-1.4c5.2 0 6.9 3.1 6.9 6.8c0 0 0 5.4 0 5.4c0 1.5 0 2.9.2 3.8c-.01 0-4.4 0-4.4 0zm-.6-7.4c-2.5 0-4.5.6-4.5 2.5c0 1.2.8 1.8 1.9 1.8c1.2 0 2.2-.8 2.5-1.8c.1-.2.1-.5.1-.8c0 0 0-1.7 0-1.7zm8.6-3.3c0-1.9-.1-3.6-.1-4.9c-.02-.05 4.2 0 4.2 0l.2 2.1c0 0 .12 0 .1 0c.7-1 2.3-2.5 4.9-2.5c3.2 0 5.6 2.1 5.6 6.7c-.04.02 0 9.3 0 9.3l-4.9 0c0 0-.01-8.67 0-8.7c0-2-.7-3.4-2.5-3.4c-1.3 0-2.1 1-2.4 1.9c-.2.2-.2.7-.2 1.2c-.03-.02 0 9 0 9l-4.9 0c0 0 .01-10.66 0-10.7zm33.9-12c0 0 .03 18.03 0 18c0 1.8.1 3.6.2 4.7c-.04 0-4.4 0-4.4 0l-.2-2.3c0 0-.05 0-.1 0c-.9 1.8-2.8 2.7-4.8 2.7c-3.8 0-6.7-3.2-6.7-8.1c-.1-5.3 3.2-8.3 7-8.3c1.9 0 3.4.7 4.1 1.8c0-.04.1 0 .1 0l0-8.5l4.8 0zm-4.8 13.7c0-.3-.1-.6-.1-.9c-.3-1.3-1.3-2.4-2.8-2.4c-2.3 0-3.4 2-3.4 4.5c0 2.6 1.3 4.3 3.3 4.3c1.4 0 2.5-1 2.8-2.4c.1-.3.2-.7.2-1.1c0 0 0-2 0-2zm18.8-6.6c0 0 2.12 7.22 2.1 7.2c.4 1.3.7 2.6.9 3.8c0 0 .1 0 .1 0c.3-1.3.5-2.4.9-3.8c-.02.02 2-7.2 2-7.2l5.1 0l-5.8 15.6l-4.9 0l-5.7-15.6l5.3 0zm16.6 9.3c.2 2 2.2 3 4.4 3c1.7 0 3-.2 4.4-.6c0 0 .6 3.3.6 3.3c-1.6.6-3.6.9-5.7.9c-5.3 0-8.3-3.1-8.3-7.9c0-4 2.4-8.4 7.9-8.4c5 0 7 3.9 7 7.8c0 .8-.1 1.6-.2 1.9c0 0-10.1 0-10.1 0zm5.7-3.3c0-1.2-.5-3.2-2.7-3.2c-2.1 0-2.9 1.9-3 3.2c0 0 5.7 0 5.7 0zm7.5-1.1c0-1.9-.1-3.6-.2-4.9c.04-.05 4.3 0 4.3 0l.2 2.1c0 0 .09 0 .1 0c.6-1 2.2-2.5 4.8-2.5c3.2 0 5.6 2.1 5.6 6.7c.02.02 0 9.3 0 9.3l-4.8 0c0 0-.04-8.67 0-8.7c0-2-.7-3.4-2.5-3.4c-1.4 0-2.2 1-2.5 1.9c-.1.2-.2.7-.2 1.2c.04-.02 0 9 0 9l-4.8 0c0 0-.03-10.66 0-10.7zm33.9-12c0 0-.01 18.03 0 18c0 1.8.1 3.6.1 4.7c.02 0-4.3 0-4.3 0l-.2-2.3c0 0-.09 0-.1 0c-1 1.8-2.9 2.7-4.9 2.7c-3.7 0-6.7-3.2-6.7-8.1c0-5.3 3.3-8.3 7-8.3c2 0 3.5.7 4.2 1.8c-.04-.04 0 0 0 0l0-8.5l4.9 0zm-4.9 13.7c0-.3 0-.6 0-.9c-.3-1.3-1.4-2.4-2.9-2.4c-2.2 0-3.3 2-3.3 4.5c0 2.6 1.3 4.3 3.3 4.3c1.4 0 2.5-1 2.8-2.4c.1-.3.1-.7.1-1.1c0 0 0-2 0-2zm24.3 1c0 5.7-4.1 8.4-8.3 8.4c-4.6 0-8.1-3.1-8.1-8.1c0-5.1 3.3-8.3 8.4-8.3c4.8 0 8 3.3 8 8zm-11.4.2c0 2.6 1.1 4.7 3.2 4.7c1.9 0 3.1-1.9 3.1-4.7c0-2.4-.9-4.7-3.1-4.7c-2.3 0-3.2 2.4-3.2 4.7zm14.4-2.7c0-2.3-.1-3.8-.2-5.1c.03-.05 4.2 0 4.2 0l.2 2.8c0 0 .11.03.1 0c.8-2.2 2.7-3.2 4.2-3.2c.5 0 .7 0 1.1.1c0 0 0 4.5 0 4.5c-.4 0-.8-.1-1.4-.1c-1.7 0-3 1-3.3 2.5c0 .3-.1.7-.1 1.1c.02-.04 0 7.9 0 7.9l-4.8 0c0 0-.04-10.5 0-10.5z" stroke="none" fill="#15345e"/></g></svg>