<?xml version="1.0" standalone="no"?><!DOCTYPE svg PUBLIC "-//W3C//DTD SVG 1.1//EN" "http://www.w3.org/Graphics/SVG/1.1/DTD/svg11.dtd"><svg xmlns="http://www.w3.org/2000/svg" version="1.1" width="541.4px" height="134px" viewBox="0 -9 541.4 134" style="top:-9px"><desc>Reduced blockage of funds that translates to savings in cost of finance and increases the bottom line</desc><defs/><g id="Polygon9336"><path d="m10.8 108l-.2-1.6c0 0-.14.03-.1 0c-1.1 1.3-2.7 2-4.5 2c-3.2 0-5.1-2.4-5.1-4.8c0-4.1 3.7-6.1 9.2-6c0 0 0-.3 0-.3c0-.8-.4-2-2.8-2c-1.6 0-3.3.6-4.4 1.2c0 0-.9-3.1-.9-3.1c1.1-.6 3.3-1.4 6.1-1.4c5.2 0 6.9 3.1 6.9 6.8c0 0 0 5.4 0 5.4c0 1.5.1 2.9.2 3.8c.03 0-4.4 0-4.4 0zm-.5-7.4c-2.6 0-4.6.6-4.6 2.5c0 1.2.9 1.8 1.9 1.8c1.3 0 2.3-.8 2.6-1.8c0-.2.1-.5.1-.8c0 0 0-1.7 0-1.7zm8.5-3.3c0-1.9 0-3.6-.1-4.9c.02-.05 4.2 0 4.2 0l.3 2.1c0 0 .06 0 .1 0c.6-1 2.2-2.5 4.8-2.5c3.2 0 5.6 2.1 5.6 6.7c0 .02 0 9.3 0 9.3l-4.9 0c0 0 .03-8.67 0-8.7c0-2-.7-3.4-2.4-3.4c-1.4 0-2.2 1-2.5 1.9c-.1.2-.2.7-.2 1.2c.01-.02 0 9 0 9l-4.9 0c0 0 .05-10.66 0-10.7zm34-12c0 0-.03 18.03 0 18c0 1.8 0 3.6.1 4.7c0 0-4.3 0-4.3 0l-.2-2.3c0 0-.11 0-.1 0c-1 1.8-2.9 2.7-4.9 2.7c-3.7 0-6.7-3.2-6.7-8.1c0-5.3 3.3-8.3 7-8.3c1.9 0 3.4.7 4.1 1.8c.04-.04.1 0 .1 0l0-8.5l4.9 0zm-4.9 13.7c0-.3 0-.6-.1-.9c-.2-1.3-1.3-2.4-2.8-2.4c-2.2 0-3.4 2-3.4 4.5c0 2.6 1.3 4.3 3.4 4.3c1.4 0 2.5-1 2.8-2.4c.1-.3.1-.7.1-1.1c0 0 0-2 0-2zm15.2 9l0-15.6l4.9 0l0 15.6l-4.9 0zm5.1-20c0 1.3-1.1 2.4-2.7 2.4c-1.5 0-2.5-1.1-2.5-2.4c0-1.4 1-2.5 2.6-2.5c1.5 0 2.5 1.1 2.6 2.5zm3.7 9.3c0-1.9-.1-3.6-.1-4.9c-.02-.05 4.2 0 4.2 0l.2 2.1c0 0 .12 0 .1 0c.7-1 2.3-2.5 4.9-2.5c3.2 0 5.6 2.1 5.6 6.7c-.05.02 0 9.3 0 9.3l-4.9 0c0 0-.01-8.67 0-8.7c0-2-.7-3.4-2.5-3.4c-1.3 0-2.1 1-2.4 1.9c-.2.2-.2.7-.2 1.2c-.03-.02 0 9 0 9l-4.9 0c0 0 0-10.66 0-10.7zm30.5 10.3c-.9.4-2.5.7-4.4.7c-5 0-8.2-3.1-8.2-8c0-4.6 3.1-8.3 8.9-8.3c1.3 0 2.7.2 3.7.6c0 0-.7 3.6-.7 3.6c-.6-.2-1.5-.5-2.8-.5c-2.5 0-4.2 1.9-4.1 4.4c0 2.9 1.9 4.4 4.2 4.4c1.2 0 2.1-.2 2.8-.5c0 0 .6 3.6.6 3.6zm2.7-10.1c0-2.3-.1-3.8-.1-5.1c-.04-.05 4.2 0 4.2 0l.1 2.8c0 0 .14.03.1 0c.8-2.2 2.8-3.2 4.3-3.2c.4 0 .6 0 1 .1c0 0 0 4.5 0 4.5c-.4 0-.8-.1-1.3-.1c-1.8 0-3 1-3.4 2.5c0 .3 0 .7 0 1.1c-.05-.04 0 7.9 0 7.9l-4.9 0c0 0-.01-10.5 0-10.5zm15.6 4.2c.2 2 2.2 3 4.5 3c1.6 0 3-.2 4.3-.6c0 0 .6 3.3.6 3.3c-1.6.6-3.5.9-5.7.9c-5.3 0-8.3-3.1-8.3-7.9c0-4 2.5-8.4 7.9-8.4c5.1 0 7 3.9 7 7.8c0 .8-.1 1.6-.2 1.9c0 0-10.1 0-10.1 0zm5.8-3.3c0-1.2-.5-3.2-2.8-3.2c-2 0-2.9 1.9-3 3.2c0 0 5.8 0 5.8 0zm16.3 9.6l-.3-1.6c0 0-.1.03-.1 0c-1 1.3-2.6 2-4.5 2c-3.1 0-5-2.4-5-4.8c0-4.1 3.6-6.1 9.1-6c0 0 0-.3 0-.3c0-.8-.4-2-2.8-2c-1.6 0-3.3.6-4.3 1.2c0 0-.9-3.1-.9-3.1c1.1-.6 3.2-1.4 6.1-1.4c5.2 0 6.8 3.1 6.8 6.8c0 0 0 5.4 0 5.4c0 1.5.1 2.9.3 3.8c-.03 0-4.4 0-4.4 0zm-.6-7.4c-2.6 0-4.5.6-4.5 2.5c0 1.2.8 1.8 1.9 1.8c1.2 0 2.2-.8 2.5-1.8c.1-.2.1-.5.1-.8c0 0 0-1.7 0-1.7zm8.6 3.1c.8.6 2.7 1.2 4.1 1.2c1.5 0 2.1-.5 2.1-1.3c0-.8-.5-1.2-2.3-1.8c-3.2-1.1-4.5-2.8-4.4-4.7c0-2.9 2.5-5.1 6.3-5.1c1.9 0 3.5.4 4.5.9c0 0-.9 3.4-.9 3.4c-.7-.4-2.1-.9-3.4-.9c-1.2 0-1.9.4-1.9 1.2c0 .8.7 1.2 2.6 1.8c2.9 1.1 4.2 2.6 4.2 4.9c0 2.9-2.3 5-6.8 5c-2 0-3.8-.4-5-1.1c0 0 .9-3.5.9-3.5zm17.6-2c.2 2 2.2 3 4.4 3c1.7 0 3-.2 4.4-.6c0 0 .6 3.3.6 3.3c-1.6.6-3.6.9-5.7.9c-5.3 0-8.3-3.1-8.3-7.9c0-4 2.4-8.4 7.9-8.4c5 0 7 3.9 7 7.8c0 .8-.1 1.6-.2 1.9c0 0-10.1 0-10.1 0zm5.7-3.3c0-1.2-.5-3.2-2.7-3.2c-2.1 0-2.9 1.9-3 3.2c0 0 5.7 0 5.7 0zm7.4 5.3c.9.6 2.8 1.2 4.2 1.2c1.5 0 2.1-.5 2.1-1.3c0-.8-.5-1.2-2.3-1.8c-3.2-1.1-4.5-2.8-4.4-4.7c0-2.9 2.5-5.1 6.3-5.1c1.8 0 3.5.4 4.4.9c0 0-.8 3.4-.8 3.4c-.7-.4-2.1-.9-3.4-.9c-1.2 0-1.9.4-1.9 1.2c0 .8.6 1.2 2.6 1.8c2.9 1.1 4.2 2.6 4.2 4.9c0 2.9-2.3 5-6.8 5c-2 0-3.8-.4-5-1.1c0 0 .8-3.5.8-3.5zm25.9-15.8l0 4.5l3.4 0l0 3.5l-3.4 0c0 0-.04 5.7 0 5.7c0 1.9.4 2.8 1.9 2.8c.6 0 1.1-.1 1.4-.2c0 0 0 3.7 0 3.7c-.6.3-1.7.4-3.1.4c-1.6 0-2.9-.5-3.7-1.3c-.9-1-1.3-2.5-1.3-4.7c-.01.04 0-6.4 0-6.4l-2.1 0l0-3.5l2.1 0l0-3.4l4.8-1.1zm6.3-2.6l4.8 0l0 8.9c0 0 .09.01.1 0c.5-.7 1.1-1.2 1.9-1.6c.7-.4 1.6-.6 2.5-.6c3.1 0 5.5 2.1 5.5 6.8c.01.05 0 9.2 0 9.2l-4.9 0c0 0 .05-8.61 0-8.6c0-2.1-.7-3.5-2.5-3.5c-1.3 0-2.1.9-2.4 1.7c-.1.4-.2.8-.2 1.1c.03.02 0 9.3 0 9.3l-4.8 0l0-22.7zm22.5 16.4c.1 2 2.1 3 4.4 3c1.6 0 3-.2 4.3-.6c0 0 .6 3.3.6 3.3c-1.6.6-3.5.9-5.6.9c-5.3 0-8.4-3.1-8.4-7.9c0-4 2.5-8.4 7.9-8.4c5.1 0 7 3.9 7 7.8c0 .8-.1 1.6-.2 1.9c0 0-10 0-10 0zm5.7-3.3c0-1.2-.5-3.2-2.8-3.2c-2 0-2.8 1.9-3 3.2c0 0 5.8 0 5.8 0zm13.7 9.6c.1-1 .2-2.9.2-4.7c-.03.03 0-18 0-18l4.8 0l0 8.9c0 0 .1.01.1 0c.9-1.3 2.6-2.2 4.7-2.2c3.8 0 6.5 3.1 6.5 7.9c0 5.6-3.6 8.5-7.2 8.5c-1.8 0-3.6-.7-4.7-2.6c.03.02 0 0 0 0l-.2 2.2c0 0-4.15 0-4.2 0zm5-6.7c0 .4.1.7.1.9c.4 1.3 1.5 2.3 2.9 2.3c2.1 0 3.3-1.6 3.3-4.4c0-2.4-1-4.4-3.3-4.4c-1.3 0-2.5 1-2.9 2.4c0 .3-.1.6-.1.9c0 0 0 2.3 0 2.3zm29.9-1.3c0 5.7-4.1 8.4-8.3 8.4c-4.6 0-8.1-3.1-8.1-8.1c0-5.1 3.3-8.3 8.4-8.3c4.8 0 8 3.3 8 8zm-11.4.2c0 2.6 1.2 4.7 3.2 4.7c1.9 0 3.1-1.9 3.1-4.7c0-2.4-.9-4.7-3.1-4.7c-2.3 0-3.2 2.4-3.2 4.7zm19.8-12.3l0 4.5l3.5 0l0 3.5l-3.5 0c0 0 .01 5.7 0 5.7c0 1.9.5 2.8 1.9 2.8c.6 0 1.1-.1 1.5-.2c0 0 0 3.7 0 3.7c-.6.3-1.8.4-3.2.4c-1.5 0-2.8-.5-3.6-1.3c-.9-1-1.4-2.5-1.4-4.7c.04.04 0-6.4 0-6.4l-2 0l0-3.5l2 0l0-3.4l4.8-1.1zm11.8 0l0 4.5l3.4 0l0 3.5l-3.4 0c0 0-.05 5.7 0 5.7c0 1.9.4 2.8 1.9 2.8c.6 0 1.1-.1 1.4-.2c0 0 0 3.7 0 3.7c-.6.3-1.7.4-3.1.4c-1.6 0-2.9-.5-3.7-1.3c-.9-1-1.3-2.5-1.3-4.7c-.02.04 0-6.4 0-6.4l-2.1 0l0-3.5l2.1 0l0-3.4l4.8-1.1zm21.6 12.1c0 5.7-4.1 8.4-8.3 8.4c-4.6 0-8.1-3.1-8.1-8.1c0-5.1 3.3-8.3 8.4-8.3c4.8 0 8 3.3 8 8zm-11.4.2c0 2.6 1.1 4.7 3.2 4.7c1.9 0 3.1-1.9 3.1-4.7c0-2.4-.9-4.7-3.1-4.7c-2.3 0-3.2 2.4-3.2 4.7zm14.4-2.9c0-1.9-.1-3.6-.2-4.9c.03-.05 4.1 0 4.1 0l.3 2.1c0 0 .05-.04 0 0c.7-1 2.1-2.5 4.8-2.5c2 0 3.6 1 4.3 2.7c0 0 0 0 0 0c.6-.8 1.3-1.5 2.1-1.9c.8-.5 1.8-.8 2.9-.8c3 0 5.3 2.1 5.3 6.8c.01-.02 0 9.2 0 9.2l-4.7 0c0 0-.03-8.51 0-8.5c0-2.3-.8-3.6-2.3-3.6c-1.2 0-2 .8-2.3 1.7c-.1.4-.2.9-.2 1.2c.04.05 0 9.2 0 9.2l-4.7 0c0 0 0-8.77 0-8.8c0-2-.7-3.3-2.2-3.3c-1.3 0-2 1-2.3 1.8c-.2.3-.2.8-.2 1.2c0-.02 0 9.1 0 9.1l-4.7 0c0 0-.04-10.66 0-10.7zm33.9-12l4.9 0l0 22.7l-4.9 0l0-22.7zm8.8 22.7l0-15.6l4.9 0l0 15.6l-4.9 0zm5.1-20c0 1.3-1.1 2.4-2.7 2.4c-1.5 0-2.5-1.1-2.5-2.4c0-1.4 1-2.5 2.6-2.5c1.5 0 2.5 1.1 2.6 2.5zm3.7 9.3c0-1.9-.1-3.6-.1-4.9c-.02-.05 4.2 0 4.2 0l.2 2.1c0 0 .13 0 .1 0c.7-1 2.3-2.5 4.9-2.5c3.2 0 5.6 2.1 5.6 6.7c-.04.02 0 9.3 0 9.3l-4.9 0c0 0-.01-8.67 0-8.7c0-2-.7-3.4-2.5-3.4c-1.3 0-2.1 1-2.4 1.9c-.2.2-.2.7-.2 1.2c-.03-.02 0 9 0 9l-4.9 0c0 0 .01-10.66 0-10.7zm22.5 4.4c.2 2 2.2 3 4.4 3c1.7 0 3-.2 4.3-.6c0 0 .7 3.3.7 3.3c-1.6.6-3.6.9-5.7.9c-5.3 0-8.3-3.1-8.3-7.9c0-4 2.4-8.4 7.9-8.4c5 0 6.9 3.9 6.9 7.8c0 .8 0 1.6-.1 1.9c0 0-10.1 0-10.1 0zm5.7-3.3c0-1.2-.5-3.2-2.7-3.2c-2.1 0-2.9 1.9-3 3.2c0 0 5.7 0 5.7 0z" stroke="none" fill="#15345e"/></g><g id="Polygon9335"><path d="m7.4 45.9l0 4.5l3.5 0l0 3.5l-3.5 0c0 0-.01 5.7 0 5.7c0 1.9.4 2.8 1.9 2.8c.6 0 1.1-.1 1.5-.2c0 0 0 3.7 0 3.7c-.7.3-1.8.4-3.2.4c-1.6 0-2.9-.5-3.6-1.3c-.9-1-1.4-2.5-1.4-4.7c.02.04 0-6.4 0-6.4l-2.1 0l0-3.5l2.1 0l0-3.4l4.8-1.1zm6.3 9.6c0-2.3-.1-3.8-.1-5.1c-.03-.05 4.2 0 4.2 0l.1 2.8c0 0 .15.03.1 0c.8-2.2 2.8-3.2 4.3-3.2c.4 0 .6 0 1 .1c0 0 0 4.5 0 4.5c-.4 0-.8-.1-1.3-.1c-1.8 0-3 1-3.3 2.5c-.1.3-.1.7-.1 1.1c-.04-.04 0 7.9 0 7.9l-4.9 0c0 0 0-10.5 0-10.5zm20.7 10.5l-.3-1.6c0 0-.08.03-.1 0c-1 1.3-2.6 2-4.5 2c-3.1 0-5-2.4-5-4.8c0-4.1 3.6-6.1 9.2-6c0 0 0-.3 0-.3c0-.8-.5-2-2.9-2c-1.6 0-3.3.6-4.3 1.2c0 0-.9-3.1-.9-3.1c1.1-.6 3.2-1.4 6.1-1.4c5.2 0 6.9 3.1 6.9 6.8c0 0 0 5.4 0 5.4c0 1.5 0 2.9.2 3.8c-.02 0-4.4 0-4.4 0zm-.6-7.4c-2.5 0-4.5.6-4.5 2.5c0 1.2.8 1.8 1.9 1.8c1.2 0 2.2-.8 2.5-1.8c.1-.2.1-.5.1-.8c0 0 0-1.7 0-1.7zm8.6-3.3c0-1.9-.1-3.6-.1-4.9c-.03-.05 4.2 0 4.2 0l.2 2.1c0 0 .12 0 .1 0c.7-1 2.3-2.5 4.8-2.5c3.2 0 5.6 2.1 5.6 6.7c.05.02 0 9.3 0 9.3l-4.8 0c0 0-.02-8.67 0-8.7c0-2-.7-3.4-2.5-3.4c-1.3 0-2.1 1-2.4 1.9c-.2.2-.2.7-.2 1.2c-.04-.02 0 9 0 9l-4.9 0c0 0 0-10.66 0-10.7zm18.7 6.4c.9.6 2.8 1.2 4.2 1.2c1.5 0 2.1-.5 2.1-1.3c0-.8-.5-1.2-2.3-1.8c-3.2-1.1-4.5-2.8-4.5-4.7c0-2.9 2.5-5.1 6.4-5.1c1.8 0 3.5.4 4.4.9c0 0-.8 3.4-.8 3.4c-.7-.4-2.1-.9-3.4-.9c-1.2 0-1.9.4-1.9 1.2c0 .8.6 1.2 2.5 1.8c3 1.1 4.3 2.6 4.3 4.9c0 2.9-2.3 5-6.8 5c-2 0-3.9-.4-5-1.1c0 0 .8-3.5.8-3.5zm13.9-18.4l4.9 0l0 22.7l-4.9 0l0-22.7zm17.7 22.7l-.3-1.6c0 0-.05.03 0 0c-1.1 1.3-2.7 2-4.5 2c-3.2 0-5.1-2.4-5.1-4.8c0-4.1 3.7-6.1 9.2-6c0 0 0-.3 0-.3c0-.8-.4-2-2.8-2c-1.6 0-3.3.6-4.4 1.2c0 0-.9-3.1-.9-3.1c1.1-.6 3.3-1.4 6.1-1.4c5.2 0 6.9 3.1 6.9 6.8c0 0 0 5.4 0 5.4c0 1.5.1 2.9.2 3.8c.02 0-4.4 0-4.4 0zm-.5-7.4c-2.6 0-4.6.6-4.6 2.5c0 1.2.8 1.8 1.9 1.8c1.3 0 2.2-.8 2.6-1.8c0-.2.1-.5.1-.8c0 0 0-1.7 0-1.7zm13.7-12.7l0 4.5l3.5 0l0 3.5l-3.5 0c0 0 .02 5.7 0 5.7c0 1.9.5 2.8 1.9 2.8c.6 0 1.1-.1 1.5-.2c0 0 0 3.7 0 3.7c-.6.3-1.8.4-3.2.4c-1.5 0-2.8-.5-3.6-1.3c-.9-1-1.3-2.5-1.3-4.7c-.05.04 0-6.4 0-6.4l-2.1 0l0-3.5l2.1 0l0-3.4l4.7-1.1zm9.9 13.8c.2 2 2.2 3 4.4 3c1.7 0 3-.2 4.3-.6c0 0 .7 3.3.7 3.3c-1.6.6-3.6.9-5.7.9c-5.3 0-8.3-3.1-8.3-7.9c0-4 2.4-8.4 7.9-8.4c5 0 6.9 3.9 6.9 7.8c0 .8 0 1.6-.1 1.9c0 0-10.1 0-10.1 0zm5.7-3.3c0-1.2-.5-3.2-2.7-3.2c-2.1 0-2.9 1.9-3 3.2c0 0 5.7 0 5.7 0zm7.4 5.3c.9.6 2.8 1.2 4.2 1.2c1.5 0 2.1-.5 2.1-1.3c0-.8-.5-1.2-2.3-1.8c-3.2-1.1-4.5-2.8-4.5-4.7c0-2.9 2.5-5.1 6.4-5.1c1.8 0 3.5.4 4.4.9c0 0-.8 3.4-.8 3.4c-.7-.4-2.1-.9-3.4-.9c-1.2 0-1.9.4-1.9 1.2c0 .8.6 1.2 2.5 1.8c3 1.1 4.3 2.6 4.3 4.9c0 2.9-2.3 5-6.8 5c-2 0-3.9-.4-5-1.1c0 0 .8-3.5.8-3.5zm25.9-15.8l0 4.5l3.4 0l0 3.5l-3.4 0c0 0-.05 5.7 0 5.7c0 1.9.4 2.8 1.9 2.8c.6 0 1.1-.1 1.4-.2c0 0 0 3.7 0 3.7c-.6.3-1.7.4-3.1.4c-1.6 0-2.9-.5-3.7-1.3c-.9-1-1.3-2.5-1.3-4.7c-.02.04 0-6.4 0-6.4l-2.1 0l0-3.5l2.1 0l0-3.4l4.8-1.1zm21.6 12.1c0 5.7-4.1 8.4-8.3 8.4c-4.6 0-8.1-3.1-8.1-8.1c0-5.1 3.3-8.3 8.4-8.3c4.8 0 8 3.3 8 8zm-11.4.2c0 2.6 1.1 4.7 3.2 4.7c1.9 0 3.1-1.9 3.1-4.7c0-2.4-.9-4.7-3.1-4.7c-2.3 0-3.2 2.4-3.2 4.7zm20.8 3.5c.9.6 2.7 1.2 4.2 1.2c1.5 0 2.1-.5 2.1-1.3c0-.8-.5-1.2-2.3-1.8c-3.3-1.1-4.5-2.8-4.5-4.7c0-2.9 2.5-5.1 6.4-5.1c1.8 0 3.4.4 4.4.9c0 0-.9 3.4-.9 3.4c-.7-.4-2-.9-3.4-.9c-1.1 0-1.8.4-1.8 1.2c0 .8.6 1.2 2.5 1.8c3 1.1 4.2 2.6 4.3 4.9c0 2.9-2.3 5-6.8 5c-2.1 0-3.9-.4-5.1-1.1c0 0 .9-3.5.9-3.5zm22.8 4.3l-.3-1.6c0 0-.08.03-.1 0c-1 1.3-2.6 2-4.5 2c-3.1 0-5-2.4-5-4.8c0-4.1 3.6-6.1 9.2-6c0 0 0-.3 0-.3c0-.8-.5-2-2.9-2c-1.6 0-3.3.6-4.3 1.2c0 0-.9-3.1-.9-3.1c1.1-.6 3.2-1.4 6.1-1.4c5.2 0 6.9 3.1 6.9 6.8c0 0 0 5.4 0 5.4c0 1.5 0 2.9.2 3.8c-.01 0-4.4 0-4.4 0zm-.6-7.4c-2.5 0-4.5.6-4.5 2.5c0 1.2.8 1.8 1.9 1.8c1.2 0 2.2-.8 2.5-1.8c.1-.2.1-.5.1-.8c0 0 0-1.7 0-1.7zm11.8-8.2c0 0 2.15 7.22 2.2 7.2c.3 1.3.6 2.6.8 3.8c0 0 .1 0 .1 0c.3-1.3.6-2.4.9-3.8c.01.02 2-7.2 2-7.2l5.1 0l-5.8 15.6l-4.8 0l-5.7-15.6l5.2 0zm13.4 15.6l0-15.6l4.8 0l0 15.6l-4.8 0zm5-20c0 1.3-1 2.4-2.6 2.4c-1.6 0-2.6-1.1-2.5-2.4c-.1-1.4.9-2.5 2.5-2.5c1.6 0 2.6 1.1 2.6 2.5zm3.8 9.3c0-1.9-.1-3.6-.2-4.9c.02-.05 4.2 0 4.2 0l.3 2.1c0 0 .07 0 .1 0c.6-1 2.2-2.5 4.8-2.5c3.2 0 5.6 2.1 5.6 6.7c0 .02 0 9.3 0 9.3l-4.9 0c0 0 .03-8.67 0-8.7c0-2-.7-3.4-2.4-3.4c-1.4 0-2.2 1-2.5 1.9c-.1.2-.2.7-.2 1.2c.01-.02 0 9 0 9l-4.8 0c0 0-.05-10.66 0-10.7zm33.6-4.9c0 .9-.1 2.3-.1 4.6c0 0 0 8.7 0 8.7c0 3-.6 5.5-2.4 7.1c-1.7 1.4-4 1.9-6.3 1.9c-2.1 0-4.2-.4-5.7-1.2c0 0 1-3.7 1-3.7c1 .6 2.7 1.2 4.6 1.2c2.3 0 4-1.3 4-4.2c.02.05 0-1 0-1c0 0-.05.02 0 0c-1 1.3-2.5 2.1-4.3 2.1c-3.8 0-6.6-3.2-6.6-7.7c0-5 3.3-8.2 7.1-8.2c2.2 0 3.5.9 4.3 2.2c0 .01.1 0 .1 0l.1-1.8c0 0 4.25-.05 4.2 0zm-4.9 6.3c0-.3-.1-.6-.1-.9c-.4-1.3-1.3-2.1-2.7-2.1c-1.7 0-3.2 1.6-3.2 4.4c0 2.4 1.2 4.2 3.2 4.2c1.3 0 2.3-.8 2.6-2c.1-.3.2-.9.2-1.3c0 0 0-2.3 0-2.3zm8.7 5c.9.6 2.7 1.2 4.2 1.2c1.5 0 2.1-.5 2.1-1.3c0-.8-.5-1.2-2.3-1.8c-3.3-1.1-4.5-2.8-4.5-4.7c0-2.9 2.5-5.1 6.4-5.1c1.8 0 3.4.4 4.4.9c0 0-.9 3.4-.9 3.4c-.7-.4-2-.9-3.4-.9c-1.1 0-1.8.4-1.8 1.2c0 .8.6 1.2 2.5 1.8c3 1.1 4.2 2.6 4.3 4.9c0 2.9-2.3 5-6.8 5c-2.1 0-3.9-.4-5.1-1.1c0 0 .9-3.5.9-3.5zm20.4 4.3l0-15.6l4.8 0l0 15.6l-4.8 0zm5-20c0 1.3-1 2.4-2.6 2.4c-1.6 0-2.6-1.1-2.6-2.4c0-1.4 1-2.5 2.6-2.5c1.6 0 2.6 1.1 2.6 2.5zm3.7 9.3c0-1.9 0-3.6-.1-4.9c.01-.05 4.2 0 4.2 0l.3 2.1c0 0 .06 0 .1 0c.6-1 2.2-2.5 4.8-2.5c3.2 0 5.6 2.1 5.6 6.7c-.01.02 0 9.3 0 9.3l-4.9 0c0 0 .02-8.67 0-8.7c0-2-.7-3.4-2.4-3.4c-1.4 0-2.2 1-2.5 1.9c-.1.2-.2.7-.2 1.2c0-.02 0 9 0 9l-4.9 0c0 0 .04-10.66 0-10.7zm37 10.3c-.9.4-2.5.7-4.4.7c-5 0-8.2-3.1-8.2-8c0-4.6 3.1-8.3 8.9-8.3c1.3 0 2.7.2 3.7.6c0 0-.7 3.6-.7 3.6c-.6-.2-1.5-.5-2.8-.5c-2.5 0-4.2 1.9-4.1 4.4c0 2.9 1.9 4.4 4.2 4.4c1.2 0 2.1-.2 2.8-.5c0 0 .6 3.6.6 3.6zm17.8-7.6c0 5.7-4.1 8.4-8.3 8.4c-4.5 0-8.1-3.1-8.1-8.1c0-5.1 3.4-8.3 8.4-8.3c4.8 0 8 3.3 8 8zm-11.3.2c0 2.6 1.1 4.7 3.2 4.7c1.9 0 3.1-1.9 3.1-4.7c0-2.4-.9-4.7-3.1-4.7c-2.4 0-3.2 2.4-3.2 4.7zm14.3 3.5c.9.6 2.7 1.2 4.2 1.2c1.4 0 2-.5 2-1.3c0-.8-.4-1.2-2.3-1.8c-3.2-1.1-4.4-2.8-4.4-4.7c0-2.9 2.5-5.1 6.4-5.1c1.8 0 3.4.4 4.4.9c0 0-.9 3.4-.9 3.4c-.7-.4-2-.9-3.4-.9c-1.2 0-1.8.4-1.8 1.2c0 .8.6 1.2 2.5 1.8c3 1.1 4.2 2.6 4.2 4.9c0 2.9-2.3 5-6.7 5c-2.1 0-3.9-.4-5.1-1.1c0 0 .9-3.5.9-3.5zm19.3-15.8l0 4.5l3.5 0l0 3.5l-3.5 0c0 0 .03 5.7 0 5.7c0 1.9.5 2.8 1.9 2.8c.7 0 1.1-.1 1.5-.2c0 0 0 3.7 0 3.7c-.6.3-1.8.4-3.1.4c-1.6 0-2.9-.5-3.7-1.3c-.9-1-1.3-2.5-1.3-4.7c-.04.04 0-6.4 0-6.4l-2.1 0l0-3.5l2.1 0l0-3.4l4.7-1.1zm28.3 12.1c0 5.7-4.1 8.4-8.3 8.4c-4.6 0-8.1-3.1-8.1-8.1c0-5.1 3.3-8.3 8.4-8.3c4.8 0 8 3.3 8 8zm-11.4.2c0 2.6 1.1 4.7 3.2 4.7c1.9 0 3.1-1.9 3.1-4.7c0-2.4-.9-4.7-3.1-4.7c-2.3 0-3.2 2.4-3.2 4.7zm14.9 7.8l0-12.1l-2 0l0-3.5l2 0c0 0 0-.66 0-.7c0-1.8.6-3.9 2-5.2c1.2-1.2 2.9-1.6 4.3-1.6c1.1 0 1.9.2 2.6.3c0 0-.2 3.8-.2 3.8c-.4-.1-.9-.2-1.6-.2c-1.6 0-2.2 1.2-2.2 2.8c-.03-.05 0 .8 0 .8l3.1 0l0 3.5l-3.1 0l0 12.1l-4.9 0zm17.4 0l0-12.1l-2.1 0l0-3.5l2.1 0c0 0-.02-.72 0-.7c0-4.3 3.3-6.8 8.2-6.8c1.6 0 3.6.4 4.6 1c0 0-.9 3.7-.9 3.7c-.8-.4-2.1-.8-3.6-.8c-2.6 0-3.5 1.3-3.5 3c.04.01 0 .6 0 .6l9.5 0l0 15.6l-4.8 0l0-12.1l-4.6 0l0 12.1l-4.9 0zm18.3-10.7c0-1.9-.1-3.6-.2-4.9c.02-.05 4.2 0 4.2 0l.3 2.1c0 0 .07 0 .1 0c.6-1 2.2-2.5 4.8-2.5c3.2 0 5.6 2.1 5.6 6.7c0 .02 0 9.3 0 9.3l-4.9 0c0 0 .04-8.67 0-8.7c0-2-.7-3.4-2.4-3.4c-1.4 0-2.2 1-2.5 1.9c-.1.2-.2.7-.2 1.2c.02-.02 0 9 0 9l-4.8 0c0 0-.05-10.66 0-10.7zm27.6 10.7l-.3-1.6c0 0-.08.03-.1 0c-1 1.3-2.6 2-4.5 2c-3.1 0-5-2.4-5-4.8c0-4.1 3.6-6.1 9.2-6c0 0 0-.3 0-.3c0-.8-.5-2-2.9-2c-1.6 0-3.3.6-4.3 1.2c0 0-.9-3.1-.9-3.1c1.1-.6 3.2-1.4 6.1-1.4c5.2 0 6.9 3.1 6.9 6.8c0 0 0 5.4 0 5.4c0 1.5 0 2.9.2 3.8c-.02 0-4.4 0-4.4 0zm-.6-7.4c-2.5 0-4.5.6-4.5 2.5c0 1.2.8 1.8 1.9 1.8c1.2 0 2.2-.8 2.5-1.8c.1-.2.1-.5.1-.8c0 0 0-1.7 0-1.7zm8.6-3.3c0-1.9-.1-3.6-.1-4.9c-.03-.05 4.2 0 4.2 0l.2 2.1c0 0 .12 0 .1 0c.7-1 2.3-2.5 4.8-2.5c3.2 0 5.6 2.1 5.6 6.7c.05.02 0 9.3 0 9.3l-4.8 0c0 0-.02-8.67 0-8.7c0-2-.7-3.4-2.5-3.4c-1.3 0-2.1 1-2.4 1.9c-.2.2-.2.7-.2 1.2c-.04-.02 0 9 0 9l-4.9 0c0 0 0-10.66 0-10.7zm30.5 10.3c-.9.4-2.5.7-4.4.7c-5 0-8.2-3.1-8.2-8c0-4.6 3.1-8.3 8.9-8.3c1.3 0 2.7.2 3.7.6c0 0-.7 3.6-.7 3.6c-.6-.2-1.5-.5-2.8-.5c-2.5 0-4.2 1.9-4.2 4.4c0 2.9 2 4.4 4.3 4.4c1.2 0 2.1-.2 2.8-.5c0 0 .6 3.6.6 3.6zm6.1-5.9c.1 2 2.1 3 4.4 3c1.7 0 3-.2 4.3-.6c0 0 .7 3.3.7 3.3c-1.6.6-3.6.9-5.7.9c-5.3 0-8.4-3.1-8.4-7.9c0-4 2.5-8.4 7.9-8.4c5.1 0 7 3.9 7 7.8c0 .8-.1 1.6-.1 1.9c0 0-10.1 0-10.1 0zm5.7-3.3c0-1.2-.5-3.2-2.7-3.2c-2.1 0-2.9 1.9-3.1 3.2c0 0 5.8 0 5.8 0z" stroke="none" fill="#15345e"/></g><g id="Polygon9334"><path d="m2.1 2.7c1.6-.2 3.9-.4 6.5-.4c3.2 0 5.4.5 7 1.7c1.3 1 2 2.5 2 4.5c0 2.7-2 4.6-3.8 5.3c0 0 0 .1 0 .1c1.5.6 2.3 2 2.8 4c.7 2.5 1.4 5.3 1.8 6.1c0 0-5 0-5 0c-.3-.6-.9-2.4-1.5-5c-.6-2.7-1.5-3.4-3.5-3.5c.02.02-1.5 0-1.5 0l0 8.5l-4.8 0c0 0 .01-21.28 0-21.3zm4.8 9.3c0 0 1.96 0 2 0c2.4 0 3.8-1.2 3.8-3.1c0-2-1.3-3-3.5-3c-1.2 0-1.9.1-2.3.1c.04.05 0 6 0 6zm17.8 5.7c.1 2 2.1 3 4.4 3c1.7 0 3-.2 4.3-.6c0 0 .6 3.3.6 3.3c-1.6.6-3.5.9-5.6.9c-5.3 0-8.4-3.1-8.4-7.9c0-4 2.5-8.4 7.9-8.4c5.1 0 7 3.9 7 7.8c0 .8-.1 1.6-.1 1.9c0 0-10.1 0-10.1 0zm5.7-3.3c0-1.2-.5-3.2-2.8-3.2c-2 0-2.8 1.9-3 3.2c0 0 5.8 0 5.8 0zm22.6-13.1c0 0-.01 18.03 0 18c0 1.8.1 3.6.1 4.7c.02 0-4.3 0-4.3 0l-.2-2.3c0 0-.09 0-.1 0c-1 1.8-2.9 2.7-4.9 2.7c-3.7 0-6.7-3.2-6.7-8.1c0-5.3 3.3-8.3 7-8.3c2 0 3.5.7 4.2 1.8c-.04-.04 0 0 0 0l0-8.5l4.9 0zm-4.9 13.7c0-.3 0-.6 0-.9c-.3-1.3-1.4-2.4-2.9-2.4c-2.2 0-3.3 2-3.3 4.5c0 2.6 1.3 4.3 3.3 4.3c1.4 0 2.5-1 2.8-2.4c.1-.3.1-.7.1-1.1c0 0 0-2 0-2zm23.5 4c0 2 .1 3.7.2 5c-.02 0-4.2 0-4.2 0l-.3-2.2c0 0-.07-.01-.1 0c-.6 1-2 2.6-4.9 2.6c-3.1 0-5.5-2-5.5-6.9c.03.04 0-9.1 0-9.1l4.9 0c0 0 .03 8.37 0 8.4c0 2.2.8 3.6 2.5 3.6c1.3 0 2.1-.9 2.4-1.7c.1-.3.2-.7.2-1c-.05-.04 0-9.3 0-9.3l4.8 0c0 0 .05 10.58 0 10.6zm15.7 4.6c-.9.4-2.5.7-4.4.7c-5 0-8.2-3.1-8.2-8c0-4.6 3.1-8.3 8.9-8.3c1.3 0 2.7.2 3.7.6c0 0-.7 3.6-.7 3.6c-.6-.2-1.5-.5-2.8-.5c-2.5 0-4.2 1.9-4.2 4.4c0 2.9 2 4.4 4.3 4.4c1.2 0 2.1-.2 2.8-.5c0 0 .6 3.6.6 3.6zm6.1-5.9c.1 2 2.1 3 4.4 3c1.7 0 3-.2 4.3-.6c0 0 .7 3.3.7 3.3c-1.6.6-3.6.9-5.7.9c-5.3 0-8.4-3.1-8.4-7.9c0-4 2.5-8.4 7.9-8.4c5.1 0 7 3.9 7 7.8c0 .8-.1 1.6-.1 1.9c0 0-10.1 0-10.1 0zm5.7-3.3c0-1.2-.5-3.2-2.7-3.2c-2.1 0-2.9 1.9-3.1 3.2c0 0 5.8 0 5.8 0zm22.6-13.1c0 0 0 18.03 0 18c0 1.8.1 3.6.1 4.7c.02 0-4.3 0-4.3 0l-.2-2.3c0 0-.08 0-.1 0c-1 1.8-2.9 2.7-4.9 2.7c-3.7 0-6.7-3.2-6.7-8.1c0-5.3 3.3-8.3 7-8.3c2 0 3.5.7 4.2 1.8c-.03-.04 0 0 0 0l0-8.5l4.9 0zm-4.9 13.7c0-.3 0-.6 0-.9c-.3-1.3-1.4-2.4-2.9-2.4c-2.2 0-3.3 2-3.3 4.5c0 2.6 1.3 4.3 3.3 4.3c1.4 0 2.5-1 2.8-2.4c.1-.3.1-.7.1-1.1c0 0 0-2 0-2zm15.1 9c.1-1 .2-2.9.2-4.7c-.04.03 0-18 0-18l4.8 0l0 8.9c0 0 .09.01.1 0c.9-1.3 2.6-2.2 4.7-2.2c3.8 0 6.5 3.1 6.5 7.9c0 5.6-3.6 8.5-7.2 8.5c-1.8 0-3.6-.7-4.7-2.6c.02.02 0 0 0 0l-.2 2.2c0 0-4.17 0-4.2 0zm5-6.7c0 .4.1.7.1.9c.3 1.3 1.5 2.3 2.9 2.3c2.1 0 3.3-1.6 3.3-4.4c0-2.4-1.1-4.4-3.3-4.4c-1.3 0-2.6 1-2.9 2.4c0 .3-.1.6-.1.9c0 0 0 2.3 0 2.3zm14.3-16l4.9 0l0 22.7l-4.9 0l0-22.7zm24.3 14.7c0 5.7-4.1 8.4-8.3 8.4c-4.6 0-8.1-3.1-8.1-8.1c0-5.1 3.3-8.3 8.4-8.3c4.8 0 8 3.3 8 8zm-11.4.2c0 2.6 1.1 4.7 3.2 4.7c1.9 0 3.1-1.9 3.1-4.7c0-2.4-.9-4.7-3.1-4.7c-2.3 0-3.2 2.4-3.2 4.7zm26.2 7.4c-.9.4-2.5.7-4.4.7c-5 0-8.2-3.1-8.2-8c0-4.6 3.1-8.3 8.9-8.3c1.3 0 2.7.2 3.7.6c0 0-.7 3.6-.7 3.6c-.6-.2-1.5-.5-2.8-.5c-2.5 0-4.2 1.9-4.1 4.4c0 2.9 1.9 4.4 4.2 4.4c1.2 0 2.1-.2 2.8-.5c0 0 .6 3.6.6 3.6zm7.6-8.7c0 0 .02.04 0 0c.4-.6.8-1.2 1.1-1.8c.04-.04 3.2-4.7 3.2-4.7l5.9 0l-5.6 6.3l6.4 9.3l-6 0l-3.8-6.4l-1.2 1.5l0 4.9l-4.9 0l0-22.7l4.9 0l0 13.6zm21.5 9.1l-.3-1.6c0 0-.09.03-.1 0c-1 1.3-2.6 2-4.5 2c-3.1 0-5-2.4-5-4.8c0-4.1 3.6-6.1 9.2-6c0 0 0-.3 0-.3c0-.8-.5-2-2.9-2c-1.6 0-3.3.6-4.3 1.2c0 0-.9-3.1-.9-3.1c1.1-.6 3.2-1.4 6.1-1.4c5.2 0 6.8 3.1 6.8 6.8c0 0 0 5.4 0 5.4c0 1.5.1 2.9.3 3.8c-.03 0-4.4 0-4.4 0zm-.6-7.4c-2.5 0-4.5.6-4.5 2.5c0 1.2.8 1.8 1.9 1.8c1.2 0 2.2-.8 2.5-1.8c.1-.2.1-.5.1-.8c0 0 0-1.7 0-1.7zm23.5-8.2c0 .9-.1 2.3-.1 4.6c0 0 0 8.7 0 8.7c0 3-.6 5.5-2.4 7.1c-1.7 1.4-4 1.9-6.3 1.9c-2.1 0-4.3-.4-5.7-1.2c0 0 1-3.7 1-3.7c1 .6 2.7 1.2 4.5 1.2c2.3 0 4.1-1.3 4.1-4.2c.01.05 0-1 0-1c0 0-.06.02-.1 0c-.9 1.3-2.4 2.1-4.2 2.1c-3.9 0-6.6-3.2-6.6-7.7c0-5 3.3-8.2 7.1-8.2c2.1 0 3.5.9 4.3 2.2c-.01.01 0 0 0 0l.2-1.8c0 0 4.23-.05 4.2 0zm-5 6.3c0-.3 0-.6-.1-.9c-.3-1.3-1.2-2.1-2.6-2.1c-1.7 0-3.2 1.6-3.2 4.4c0 2.4 1.2 4.2 3.2 4.2c1.3 0 2.3-.8 2.6-2c.1-.3.1-.9.1-1.3c0 0 0-2.3 0-2.3zm12.6 3c.1 2 2.1 3 4.4 3c1.6 0 3-.2 4.3-.6c0 0 .6 3.3.6 3.3c-1.6.6-3.5.9-5.6.9c-5.3 0-8.4-3.1-8.4-7.9c0-4 2.5-8.4 7.9-8.4c5.1 0 7 3.9 7 7.8c0 .8-.1 1.6-.2 1.9c0 0-10 0-10 0zm5.7-3.3c0-1.2-.5-3.2-2.8-3.2c-2 0-2.9 1.9-3 3.2c0 0 5.8 0 5.8 0zm29.3 1.6c0 5.7-4 8.4-8.2 8.4c-4.6 0-8.1-3.1-8.1-8.1c0-5.1 3.3-8.3 8.3-8.3c4.8 0 8 3.3 8 8zm-11.3.2c0 2.6 1.1 4.7 3.2 4.7c1.9 0 3.1-1.9 3.1-4.7c0-2.4-.9-4.7-3.1-4.7c-2.3 0-3.2 2.4-3.2 4.7zm14.9 7.8l0-12.1l-2.1 0l0-3.5l2.1 0c0 0-.02-.66 0-.7c0-1.8.6-3.9 2-5.2c1.2-1.2 2.9-1.6 4.3-1.6c1.1 0 1.9.2 2.6.3c0 0-.2 3.8-.2 3.8c-.4-.1-.9-.2-1.6-.2c-1.6 0-2.3 1.2-2.3 2.8c.04-.05 0 .8 0 .8l3.2 0l0 3.5l-3.1 0l0 12.1l-4.9 0zm17.4 0l0-12.1l-2.1 0l0-3.5l2.1 0c0 0-.05-.66 0-.7c0-1.8.5-3.9 1.9-5.2c1.3-1.2 2.9-1.6 4.4-1.6c1 0 1.9.2 2.5.3c0 0-.1 3.8-.1 3.8c-.5-.1-1-.2-1.6-.2c-1.6 0-2.3 1.2-2.3 2.8c.02-.05 0 .8 0 .8l3.2 0l0 3.5l-3.2 0l0 12.1l-4.8 0zm25.1-5c0 2 0 3.7.1 5c0 0-4.2 0-4.2 0l-.2-2.2c0 0-.14-.01-.1 0c-.7 1-2.1 2.6-4.9 2.6c-3.2 0-5.5-2-5.5-6.9c-.04.04 0-9.1 0-9.1l4.9 0c0 0-.05 8.37 0 8.4c0 2.2.7 3.6 2.4 3.6c1.3 0 2.1-.9 2.4-1.7c.1-.3.2-.7.2-1c-.02-.04 0-9.3 0-9.3l4.9 0c0 0-.03 10.58 0 10.6zm3.9-5.7c0-1.9-.1-3.6-.2-4.9c.05-.05 4.3 0 4.3 0l.2 2.1c0 0 .09 0 .1 0c.6-1 2.2-2.5 4.8-2.5c3.2 0 5.6 2.1 5.6 6.7c.02.02 0 9.3 0 9.3l-4.8 0c0 0-.04-8.67 0-8.7c0-2-.7-3.4-2.5-3.4c-1.3 0-2.1 1-2.5 1.9c-.1.2-.2.7-.2 1.2c.04-.02 0 9 0 9l-4.8 0c0 0-.02-10.66 0-10.7zm33.9-12c0 0 0 18.03 0 18c0 1.8.1 3.6.1 4.7c.02 0-4.3 0-4.3 0l-.2-2.3c0 0-.08 0-.1 0c-1 1.8-2.9 2.7-4.9 2.7c-3.7 0-6.7-3.2-6.7-8.1c0-5.3 3.3-8.3 7-8.3c2 0 3.5.7 4.2 1.8c-.03-.04 0 0 0 0l0-8.5l4.9 0zm-4.9 13.7c0-.3 0-.6 0-.9c-.3-1.3-1.4-2.4-2.9-2.4c-2.2 0-3.3 2-3.3 4.5c0 2.6 1.3 4.3 3.3 4.3c1.4 0 2.5-1 2.8-2.4c.1-.3.1-.7.1-1.1c0 0 0-2 0-2zm8.8 4.7c.9.6 2.7 1.2 4.2 1.2c1.4 0 2-.5 2-1.3c0-.8-.4-1.2-2.3-1.8c-3.2-1.1-4.4-2.8-4.4-4.7c0-2.9 2.5-5.1 6.4-5.1c1.8 0 3.4.4 4.4.9c0 0-.9 3.4-.9 3.4c-.7-.4-2-.9-3.4-.9c-1.2 0-1.8.4-1.8 1.2c0 .8.6 1.2 2.5 1.8c3 1.1 4.2 2.6 4.2 4.9c0 2.9-2.3 5-6.7 5c-2.1 0-3.9-.4-5.1-1.1c0 0 .9-3.5.9-3.5zm25.8-15.8l0 4.5l3.5 0l0 3.5l-3.5 0c0 0-.01 5.7 0 5.7c0 1.9.4 2.8 1.9 2.8c.6 0 1.1-.1 1.5-.2c0 0 0 3.7 0 3.7c-.7.3-1.8.4-3.2.4c-1.6 0-2.9-.5-3.6-1.3c-.9-1-1.4-2.5-1.4-4.7c.02.04 0-6.4 0-6.4l-2.1 0l0-3.5l2.1 0l0-3.4l4.8-1.1zm6.3-2.6l4.9 0l0 8.9c0 0 .02.01 0 0c.5-.7 1.2-1.2 1.9-1.6c.7-.4 1.7-.6 2.6-.6c3.1 0 5.4 2.1 5.4 6.8c.04.05 0 9.2 0 9.2l-4.8 0c0 0-.02-8.61 0-8.6c0-2.1-.7-3.5-2.5-3.5c-1.3 0-2.1.9-2.5 1.7c-.1.4-.1.8-.1 1.1c-.04.02 0 9.3 0 9.3l-4.9 0l0-22.7zm27.6 22.7l-.2-1.6c0 0-.14.03-.1 0c-1.1 1.3-2.7 2-4.5 2c-3.2 0-5.1-2.4-5.1-4.8c0-4.1 3.7-6.1 9.2-6c0 0 0-.3 0-.3c0-.8-.4-2-2.8-2c-1.6 0-3.3.6-4.4 1.2c0 0-.9-3.1-.9-3.1c1.1-.6 3.3-1.4 6.1-1.4c5.2 0 6.9 3.1 6.9 6.8c0 0 0 5.4 0 5.4c0 1.5.1 2.9.2 3.8c.03 0-4.4 0-4.4 0zm-.5-7.4c-2.6 0-4.6.6-4.6 2.5c0 1.2.9 1.8 1.9 1.8c1.3 0 2.3-.8 2.6-1.8c0-.2.1-.5.1-.8c0 0 0-1.7 0-1.7zm13.7-12.7l0 4.5l3.5 0l0 3.5l-3.5 0c0 0 .03 5.7 0 5.7c0 1.9.5 2.8 1.9 2.8c.7 0 1.1-.1 1.5-.2c0 0 0 3.7 0 3.7c-.6.3-1.8.4-3.1.4c-1.6 0-2.9-.5-3.7-1.3c-.9-1-1.3-2.5-1.3-4.7c-.04.04 0-6.4 0-6.4l-2.1 0l0-3.5l2.1 0l0-3.4l4.7-1.1z" stroke="none" fill="#15345e"/></g></svg>