<?xml version="1.0" standalone="no"?><!DOCTYPE svg PUBLIC "-//W3C//DTD SVG 1.1//EN" "http://www.w3.org/Graphics/SVG/1.1/DTD/svg11.dtd"><svg xmlns="http://www.w3.org/2000/svg" version="1.1" width="444px" height="256.5px" viewBox="0 -8 444 256.5" style="top:-8px"><desc>Real-time data sync maintaining the single source of truth Real-time data sync also means your purchases are reconcil...</desc><defs/><g id="Polygon6731"><path d="m2.2 222.5c0-1.7 0-3.2-.1-4.5c-.03-.02 2.3 0 2.3 0l.1 2.8c0 0 .09.03.1 0c.7-1.9 2.2-3.1 4-3.1c.3 0 .5 0 .8 0c0 0 0 2.5 0 2.5c-.3 0-.6-.1-.9-.1c-1.9 0-3.2 1.5-3.6 3.4c0 .4-.1.8-.1 1.3c0-.04 0 7.7 0 7.7l-2.6 0c0 0-.01-9.99 0-10zm11 3.2c0 3.6 2.3 5.1 5 5.1c1.8 0 3-.4 4-.8c0 0 .4 1.9.4 1.9c-.9.4-2.5.9-4.8.9c-4.5 0-7.1-2.9-7.1-7.3c0-4.4 2.5-7.8 6.8-7.8c4.7 0 6 4.1 6 6.8c0 .5-.1 1-.1 1.2c0 0-10.2 0-10.2 0zm7.7-1.9c0-1.6-.7-4.3-3.6-4.3c-2.7 0-3.9 2.5-4.1 4.3c0 0 7.7 0 7.7 0zm13.9 8.7l-.2-1.8c0 0-.13-.03-.1 0c-.8 1.1-2.4 2.1-4.5 2.1c-2.9 0-4.4-2-4.4-4.1c0-3.5 3.1-5.5 8.7-5.4c0 0 0-.3 0-.3c0-1.2-.3-3.4-3.3-3.4c-1.3 0-2.7.4-3.8 1.1c0 0-.6-1.8-.6-1.8c1.2-.7 3-1.2 4.8-1.2c4.4 0 5.5 3 5.5 5.9c0 0 0 5.4 0 5.4c0 1.3.1 2.5.3 3.5c-.03 0-2.4 0-2.4 0zm-.4-7.4c-2.9-.1-6.2.4-6.2 3.3c0 1.7 1.2 2.5 2.5 2.5c1.9 0 3.1-1.2 3.5-2.4c.1-.3.2-.6.2-.9c0 0 0-2.5 0-2.5zm6.8-13.9l2.6 0l0 21.3l-2.6 0l0-21.3zm13.2 12.2l0 2l-7.4 0l0-2l7.4 0zm6.3-9.6l0 4.2l3.7 0l0 2l-3.7 0c0 0-.04 7.82 0 7.8c0 1.8.5 2.8 1.9 2.8c.7 0 1.2 0 1.6-.1c0 0 .1 1.9.1 1.9c-.5.2-1.3.4-2.4.4c-1.2 0-2.2-.4-2.8-1.1c-.8-.8-1-2.1-1-3.8c-.02.01 0-7.9 0-7.9l-2.3 0l0-2l2.3 0l0-3.5l2.6-.7zm6.7 18.7l0-14.5l2.6 0l0 14.5l-2.6 0zm2.9-18.6c.1.9-.6 1.6-1.6 1.6c-1 0-1.6-.7-1.6-1.6c0-.9.7-1.6 1.6-1.6c1 0 1.6.7 1.6 1.6zm4.1 8c0-1.5 0-2.7-.1-3.9c.01-.02 2.3 0 2.3 0l.1 2.3c0 0 .13.02.1 0c.8-1.4 2.2-2.6 4.6-2.6c2 0 3.5 1.2 4.1 2.9c0 0 .1 0 .1 0c.4-.8 1-1.5 1.6-1.9c.8-.7 1.8-1 3.2-1c1.9 0 4.8 1.2 4.8 6.2c-.04.05 0 8.6 0 8.6l-2.6 0c0 0-.02-8.22 0-8.2c0-2.8-1-4.5-3.2-4.5c-1.5 0-2.6 1.1-3.1 2.4c-.1.4-.2.9-.2 1.3c0 .03 0 9 0 9l-2.6 0c0 0 .02-8.7 0-8.7c0-2.3-1-4-3-4c-1.7 0-2.9 1.3-3.3 2.6c-.1.4-.2.9-.2 1.3c.01.04 0 8.8 0 8.8l-2.6 0c0 0 .03-10.59 0-10.6zm26.5 3.8c.1 3.6 2.4 5.1 5 5.1c1.9 0 3-.4 4-.8c0 0 .5 1.9.5 1.9c-1 .4-2.6.9-4.9.9c-4.4 0-7.1-2.9-7.1-7.3c0-4.4 2.6-7.8 6.8-7.8c4.7 0 6 4.1 6 6.8c0 .5-.1 1-.1 1.2c0 0-10.2 0-10.2 0zm7.8-1.9c0-1.6-.7-4.3-3.7-4.3c-2.7 0-3.8 2.5-4.1 4.3c0 0 7.8 0 7.8 0zm12 8.7c.1-1 .1-2.5.1-3.7c.04-.05 0-17.6 0-17.6l2.6 0l0 9.1c0 0 .11.02.1 0c.9-1.6 2.6-2.6 5-2.6c3.6 0 6.1 3 6.1 7.4c0 5.2-3.3 7.7-6.5 7.7c-2.1 0-3.8-.8-4.9-2.7c.01 0-.1 0-.1 0l-.1 2.4c0 0-2.28 0-2.3 0zm2.7-5.8c0 .3.1.6.2.9c.5 1.9 2 3.1 3.9 3.1c2.8 0 4.4-2.2 4.4-5.5c0-3-1.5-5.4-4.3-5.4c-1.8 0-3.5 1.2-4 3.2c-.1.3-.2.7-.2 1.1c0 0 0 2.6 0 2.6zm22.5 5.8l-.2-1.8c0 0-.05-.03-.1 0c-.8 1.1-2.3 2.1-4.4 2.1c-2.9 0-4.4-2-4.4-4.1c0-3.5 3.1-5.5 8.7-5.4c0 0 0-.3 0-.3c0-1.2-.3-3.4-3.3-3.4c-1.4 0-2.8.4-3.8 1.1c0 0-.6-1.8-.6-1.8c1.2-.7 3-1.2 4.8-1.2c4.4 0 5.5 3 5.5 5.9c0 0 0 5.4 0 5.4c0 1.3.1 2.5.2 3.5c.05 0-2.4 0-2.4 0zm-.3-7.4c-2.9-.1-6.2.4-6.2 3.3c0 1.7 1.1 2.5 2.5 2.5c1.9 0 3.1-1.2 3.5-2.4c.1-.3.2-.6.2-.9c0 0 0-2.5 0-2.5zm6.4 4.7c.8.5 2.2 1.1 3.5 1.1c1.9 0 2.8-1 2.8-2.2c0-1.3-.7-2-2.7-2.7c-2.6-.9-3.8-2.3-3.8-4.1c0-2.3 1.9-4.2 5-4.2c1.4 0 2.7.4 3.5.9c0 0-.6 1.9-.6 1.9c-.6-.4-1.6-.9-3-.9c-1.5 0-2.4.9-2.4 2c0 1.2.9 1.8 2.7 2.5c2.6.9 3.9 2.2 3.9 4.4c0 2.5-2 4.3-5.5 4.3c-1.6 0-3-.4-4.1-1c0 0 .7-2 .7-2zm12.2 2.7l0-14.5l2.7 0l0 14.5l-2.7 0zm3-18.6c0 .9-.6 1.6-1.7 1.6c-.9 0-1.6-.7-1.6-1.6c0-.9.7-1.6 1.7-1.6c1 0 1.6.7 1.6 1.6zm3.7 15.9c.8.5 2.2 1.1 3.5 1.1c1.9 0 2.8-1 2.8-2.2c0-1.3-.7-2-2.7-2.7c-2.6-.9-3.8-2.3-3.8-4.1c0-2.3 1.9-4.2 5-4.2c1.4 0 2.7.4 3.5.9c0 0-.6 1.9-.6 1.9c-.6-.4-1.6-.9-3-.9c-1.5 0-2.4.9-2.4 2c0 1.2.9 1.8 2.7 2.5c2.6.9 3.9 2.2 3.9 4.4c0 2.5-2 4.3-5.5 4.3c-1.6 0-3-.4-4.1-1c0 0 .7-2 .7-2zm11.3 1.1c0-1.1.7-1.8 1.8-1.8c1 0 1.8.7 1.8 1.8c0 1.1-.7 1.9-1.8 1.9c-1.1 0-1.8-.8-1.8-1.9z" stroke="none" fill="#3c3c3b"/></g><g id="Polygon6730"><path d="m1.8 189.8c.8.5 2.2 1.1 3.5 1.1c1.9 0 2.8-1 2.8-2.2c0-1.3-.7-2-2.7-2.7c-2.6-.9-3.8-2.3-3.8-4.1c0-2.3 1.9-4.2 5-4.2c1.5 0 2.8.4 3.6.9c0 0-.7 1.9-.7 1.9c-.6-.4-1.6-.9-3-.9c-1.5 0-2.4.9-2.4 2c0 1.2.9 1.8 2.8 2.5c2.5.9 3.8 2.2 3.8 4.4c0 2.5-2 4.3-5.4 4.3c-1.6 0-3.1-.4-4.1-1c0 0 .6-2 .6-2zm15.4-16l0 4.2l3.8 0l0 2l-3.8 0c0 0 .05 7.82 0 7.8c0 1.8.6 2.8 2 2.8c.7 0 1.2 0 1.6-.1c0 0 .1 1.9.1 1.9c-.5.2-1.3.4-2.4.4c-1.2 0-2.2-.4-2.8-1.1c-.8-.8-1-2.1-1-3.8c-.03.01 0-7.9 0-7.9l-2.3 0l0-2l2.3 0l0-3.5l2.5-.7zm14.8 18.7l-.2-1.8c0 0-.06-.03-.1 0c-.8 1.1-2.3 2.1-4.4 2.1c-2.9 0-4.4-2-4.4-4.1c0-3.5 3.1-5.5 8.7-5.4c0 0 0-.3 0-.3c0-1.2-.3-3.4-3.3-3.4c-1.4 0-2.8.4-3.8 1.1c0 0-.6-1.8-.6-1.8c1.2-.7 2.9-1.2 4.8-1.2c4.4 0 5.5 3 5.5 5.9c0 0 0 5.4 0 5.4c0 1.3.1 2.5.2 3.5c.04 0-2.4 0-2.4 0zm-.4-7.4c-2.8-.1-6.1.4-6.1 3.3c0 1.7 1.1 2.5 2.5 2.5c1.9 0 3.1-1.2 3.5-2.4c.1-.3.1-.6.1-.9c0 0 0-2.5 0-2.5zm9.9-11.3l0 4.2l3.8 0l0 2l-3.8 0c0 0 .02 7.82 0 7.8c0 1.8.5 2.8 2 2.8c.7 0 1.2 0 1.5-.1c0 0 .1 1.9.1 1.9c-.5.2-1.3.4-2.3.4c-1.2 0-2.2-.4-2.8-1.1c-.8-.8-1.1-2.1-1.1-3.8c.04.01 0-7.9 0-7.9l-2.2 0l0-2l2.2 0l0-3.5l2.6-.7zm18.9 14.7c0 1.5 0 2.9.1 4c.04 0-2.3 0-2.3 0l-.2-2.4c0 0-.01.03 0 0c-.7 1.2-2.2 2.7-4.8 2.7c-2.3 0-5-1.2-5-6.3c-.02-.03 0-8.5 0-8.5l2.6 0c0 0 .02 8.02 0 8c0 2.8.9 4.6 3.3 4.6c1.7 0 3-1.2 3.4-2.4c.2-.4.3-.8.3-1.3c-.02-.01 0-8.9 0-8.9l2.6 0c0 0 .02 10.54 0 10.5zm4 1.3c.8.5 2.2 1.1 3.5 1.1c1.9 0 2.8-1 2.8-2.2c0-1.3-.7-2-2.7-2.7c-2.6-.9-3.8-2.3-3.8-4.1c0-2.3 1.9-4.2 5-4.2c1.5 0 2.8.4 3.6.9c0 0-.7 1.9-.7 1.9c-.6-.4-1.6-.9-3-.9c-1.5 0-2.4.9-2.4 2c0 1.2.9 1.8 2.8 2.5c2.5.9 3.8 2.2 3.8 4.4c0 2.5-2 4.3-5.4 4.3c-1.6 0-3.1-.4-4.1-1c0 0 .6-2 .6-2zm18.6 2.7l0-14.5l2.7 0l0 14.5l-2.7 0zm3-18.6c0 .9-.7 1.6-1.7 1.6c-.9 0-1.6-.7-1.6-1.6c0-.9.7-1.6 1.7-1.6c.9 0 1.6.7 1.6 1.6zm3.7 15.9c.8.5 2.2 1.1 3.5 1.1c1.9 0 2.8-1 2.8-2.2c0-1.3-.8-2-2.7-2.7c-2.6-.9-3.8-2.3-3.8-4.1c0-2.3 1.8-4.2 5-4.2c1.4 0 2.7.4 3.5.9c0 0-.6 1.9-.6 1.9c-.6-.4-1.6-.9-3-.9c-1.6 0-2.4.9-2.4 2c0 1.2.8 1.8 2.7 2.5c2.6.9 3.8 2.2 3.8 4.4c0 2.5-1.9 4.3-5.4 4.3c-1.6 0-3-.4-4.1-1c0 0 .7-2 .7-2zm30.7-1.3c0 1.5.1 2.9.2 4c-.03 0-2.4 0-2.4 0l-.1-2.4c0 0-.08.03-.1 0c-.7 1.2-2.2 2.7-4.8 2.7c-2.3 0-5-1.2-5-6.3c.01-.03 0-8.5 0-8.5l2.6 0c0 0 .05 8.02 0 8c0 2.8.9 4.6 3.3 4.6c1.8 0 3-1.2 3.5-2.4c.1-.4.2-.8.2-1.3c.01-.01 0-8.9 0-8.9l2.6 0c0 0 .05 10.54 0 10.5zm4.4-5.8c0-1.8 0-3.3-.1-4.7c.01-.02 2.4 0 2.4 0l.1 2.5c0 0 .06-.03.1 0c1-1.8 2.7-2.8 5.1-2.8c3.5 0 6.2 2.9 6.2 7.3c0 5.3-3.2 7.8-6.6 7.8c-2 0-3.6-.8-4.5-2.2c0-.05-.1 0-.1 0l0 7.8l-2.6 0c0 0 .03-15.68 0-15.7zm2.6 3.9c0 .4.1.7.2 1.1c.4 1.8 2 3.1 3.9 3.1c2.8 0 4.4-2.3 4.4-5.6c0-3-1.5-5.4-4.3-5.4c-1.8 0-3.5 1.2-4 3.2c-.1.4-.2.7-.2 1.1c0 0 0 2.5 0 2.5zm27-15.4c0 0 .04 17.55 0 17.6c0 1.2.1 2.7.2 3.7c-.04 0-2.4 0-2.4 0l-.1-2.5c0 0-.09-.02-.1 0c-.8 1.6-2.6 2.8-4.9 2.8c-3.6 0-6.3-2.9-6.3-7.3c0-4.9 3-7.8 6.6-7.8c2.2 0 3.7 1 4.3 2.2c.04-.03.1 0 .1 0l0-8.7l2.6 0zm-2.6 12.7c0-.3 0-.8-.1-1.1c-.4-1.7-1.9-3.1-3.8-3.1c-2.8 0-4.4 2.4-4.4 5.6c0 3 1.5 5.4 4.3 5.4c1.8 0 3.4-1.2 3.9-3.1c.1-.4.1-.8.1-1.2c0 0 0-2.5 0-2.5zm15.1 8.6l-.3-1.8c0 0-.04-.03 0 0c-.9 1.1-2.4 2.1-4.5 2.1c-2.9 0-4.4-2-4.4-4.1c0-3.5 3.1-5.5 8.7-5.4c0 0 0-.3 0-.3c0-1.2-.3-3.4-3.3-3.4c-1.3 0-2.8.4-3.8 1.1c0 0-.6-1.8-.6-1.8c1.2-.7 3-1.2 4.8-1.2c4.4 0 5.5 3 5.5 5.9c0 0 0 5.4 0 5.4c0 1.3.1 2.5.3 3.5c-.04 0-2.4 0-2.4 0zm-.4-7.4c-2.9-.1-6.2.4-6.2 3.3c0 1.7 1.2 2.5 2.5 2.5c1.9 0 3.1-1.2 3.5-2.4c.1-.3.2-.6.2-.9c0 0 0-2.5 0-2.5zm9.8-11.3l0 4.2l3.8 0l0 2l-3.8 0c0 0 .04 7.82 0 7.8c0 1.8.5 2.8 2 2.8c.7 0 1.2 0 1.5-.1c0 0 .2 1.9.2 1.9c-.5.2-1.4.4-2.4.4c-1.2 0-2.2-.4-2.8-1.1c-.8-.8-1-2.1-1-3.8c-.04.01 0-7.9 0-7.9l-2.3 0l0-2l2.3 0l0-3.5l2.5-.7zm8.1 11.9c0 3.6 2.3 5.1 5 5.1c1.8 0 3-.4 4-.8c0 0 .4 1.9.4 1.9c-.9.4-2.5.9-4.8.9c-4.5 0-7.1-2.9-7.1-7.3c0-4.4 2.5-7.8 6.8-7.8c4.7 0 6 4.1 6 6.8c0 .5-.1 1-.1 1.2c0 0-10.2 0-10.2 0zm7.7-1.9c0-1.6-.7-4.3-3.6-4.3c-2.7 0-3.9 2.5-4.1 4.3c0 0 7.7 0 7.7 0zm18.4-12.6c0 0-.02 17.55 0 17.6c0 1.2 0 2.7.1 3.7c0 0-2.4 0-2.4 0l-.1-2.5c0 0-.05-.02-.1 0c-.8 1.6-2.5 2.8-4.9 2.8c-3.5 0-6.2-2.9-6.2-7.3c0-4.9 3-7.8 6.5-7.8c2.2 0 3.7 1 4.4 2.2c-.02-.03 0 0 0 0l0-8.7l2.7 0zm-2.7 12.7c0-.3 0-.8-.1-1.1c-.4-1.7-1.8-3.1-3.8-3.1c-2.7 0-4.3 2.4-4.3 5.6c0 3 1.4 5.4 4.2 5.4c1.8 0 3.4-1.2 3.9-3.1c.1-.4.1-.8.1-1.2c0 0 0-2.5 0-2.5zm13.3 8.6c.1-1 .1-2.5.1-3.7c.02-.05 0-17.6 0-17.6l2.6 0l0 9.1c0 0 .09.02.1 0c.9-1.6 2.6-2.6 4.9-2.6c3.6 0 6.2 3 6.2 7.4c0 5.2-3.3 7.7-6.6 7.7c-2.1 0-3.7-.8-4.8-2.7c-.01 0-.1 0-.1 0l-.1 2.4c0 0-2.3 0-2.3 0zm2.7-5.8c0 .3.1.6.1.9c.6 1.9 2.1 3.1 4 3.1c2.8 0 4.4-2.2 4.4-5.5c0-3-1.5-5.4-4.3-5.4c-1.8 0-3.5 1.2-4 3.2c-.1.3-.2.7-.2 1.1c0 0 0 2.6 0 2.6zm22.5 5.8l-.2-1.8c0 0-.07-.03-.1 0c-.8 1.1-2.3 2.1-4.4 2.1c-3 0-4.5-2-4.5-4.1c0-3.5 3.2-5.5 8.8-5.4c0 0 0-.3 0-.3c0-1.2-.4-3.4-3.3-3.4c-1.4 0-2.8.4-3.8 1.1c0 0-.6-1.8-.6-1.8c1.2-.7 2.9-1.2 4.8-1.2c4.4 0 5.5 3 5.5 5.9c0 0 0 5.4 0 5.4c0 1.3 0 2.5.2 3.5c.03 0-2.4 0-2.4 0zm-.4-7.4c-2.8-.1-6.1.4-6.1 3.3c0 1.7 1.1 2.5 2.5 2.5c1.9 0 3.1-1.2 3.5-2.4c.1-.3.1-.6.1-.9c0 0 0-2.5 0-2.5zm17.2 6.9c-.7.3-2.2.8-4.2.8c-4.4 0-7.2-3-7.2-7.4c0-4.5 3.1-7.7 7.8-7.7c1.6 0 2.9.4 3.7.7c0 0-.6 2.1-.6 2.1c-.7-.4-1.7-.7-3.1-.7c-3.3 0-5.1 2.4-5.1 5.5c0 3.3 2.1 5.4 5 5.4c1.5 0 2.5-.4 3.2-.7c0 0 .5 2 .5 2zm5.7-7.4c0 0 .06.04.1 0c.3-.5.8-1.1 1.2-1.6c.05-.01 4.3-5 4.3-5l3.2 0l-5.6 5.9l6.4 8.6l-3.2 0l-5.1-7l-1.3 1.5l0 5.5l-2.6 0l0-21.3l2.6 0l0 13.4zm17.8 7.9l0-14.5l2.7 0l0 14.5l-2.7 0zm3-18.6c0 .9-.7 1.6-1.7 1.6c-1 0-1.6-.7-1.6-1.6c0-.9.7-1.6 1.6-1.6c1 0 1.7.7 1.7 1.6zm4 8c0-1.5 0-2.7-.1-3.9c.02-.02 2.4 0 2.4 0l.1 2.4c0 0 .07-.02.1 0c.7-1.4 2.4-2.7 4.8-2.7c2 0 5.1 1.2 5.1 6.1c0 .03 0 8.7 0 8.7l-2.6 0c0 0-.04-8.37 0-8.4c0-2.3-.9-4.3-3.4-4.3c-1.7 0-3.1 1.3-3.5 2.7c-.2.4-.2.8-.2 1.3c-.02-.03 0 8.7 0 8.7l-2.7 0c0 0 .04-10.59 0-10.6zm33.6 1.1l-7.9 0l0 7.3l8.8 0l0 2.2l-11.4 0l0-20.2l11 0l0 2.2l-8.4 0l0 6.4l7.9 0l0 2.1zm4.3-10.4c1.3-.3 3.2-.5 5-.5c2.8 0 4.6.5 5.9 1.7c1 .9 1.5 2.3 1.5 3.8c0 2.7-1.6 4.5-3.8 5.2c0 0 0 .1 0 .1c1.6.5 2.5 2 3 4.1c.7 2.8 1.1 4.7 1.6 5.5c0 0-2.7 0-2.7 0c-.4-.6-.8-2.3-1.4-4.8c-.6-2.8-1.7-3.9-4-4c-.04.04-2.5 0-2.5 0l0 8.8l-2.6 0c0 0-.01-19.95 0-19.9zm2.6 9.2c0 0 2.67-.04 2.7 0c2.8 0 4.5-1.6 4.5-3.9c0-2.6-1.9-3.7-4.6-3.8c-1.3 0-2.2.2-2.6.3c0-.02 0 7.4 0 7.4zm13.5-9.3c1.3-.2 2.9-.4 5-.4c2.6 0 4.5.6 5.7 1.7c1.1 1 1.8 2.4 1.8 4.2c0 1.9-.6 3.3-1.6 4.4c-1.4 1.4-3.6 2.2-6.2 2.2c-.7 0-1.5 0-2.1-.2c.04 0 0 8.1 0 8.1l-2.6 0c0 0 .03-19.98 0-20zm2.6 9.8c.6.1 1.3.2 2.2.2c3.2 0 5.1-1.6 5.1-4.3c0-2.7-1.9-4-4.8-4c-1.1 0-2 .1-2.5.2c0 0 0 7.9 0 7.9zm32.8 2.8c0 5.4-3.7 7.7-7.2 7.7c-4 0-7-2.8-7-7.4c0-4.9 3.2-7.7 7.2-7.7c4.2 0 7 3 7 7.4zm-11.5.2c0 3.2 1.8 5.6 4.4 5.6c2.5 0 4.4-2.4 4.4-5.7c0-2.4-1.2-5.6-4.3-5.6c-3.2 0-4.5 2.9-4.5 5.7zm14.8-3.4c0-1.5 0-2.7-.1-3.9c.01-.02 2.4 0 2.4 0l.1 2.4c0 0 .06-.02.1 0c.7-1.4 2.4-2.7 4.8-2.7c2 0 5.1 1.2 5.1 6.1c-.01.03 0 8.7 0 8.7l-2.6 0c0 0-.05-8.37 0-8.4c0-2.3-.9-4.3-3.4-4.3c-1.7 0-3.1 1.3-3.5 2.7c-.2.4-.2.8-.2 1.3c-.03-.03 0 8.7 0 8.7l-2.7 0c0 0 .03-10.59 0-10.6z" stroke="none" fill="#3c3c3b"/></g><g id="Polygon6729"><path d="m3.1 138c0 0 3.23 8.56 3.2 8.6c.4.9.7 2.1 1 2.9c0 0 0 0 0 0c.3-.8.6-1.9 1-3c-.05 0 2.8-8.5 2.8-8.5l2.8 0c0 0-3.94 10.33-3.9 10.3c-1.9 5-3.2 7.6-5 9.1c-1.3 1.2-2.6 1.6-3.3 1.7c0 0-.6-2.2-.6-2.2c.6-.2 1.5-.6 2.3-1.3c.7-.6 1.6-1.6 2.2-2.9c.1-.3.2-.5.2-.6c0-.2 0-.4-.2-.7c.04-.04-5.3-13.4-5.3-13.4l2.8 0zm26.1 7.1c0 5.4-3.8 7.7-7.3 7.7c-3.9 0-6.9-2.8-6.9-7.4c0-4.9 3.1-7.7 7.2-7.7c4.1 0 7 3 7 7.4zm-11.6.2c0 3.2 1.9 5.6 4.4 5.6c2.6 0 4.5-2.4 4.5-5.7c0-2.4-1.3-5.6-4.4-5.6c-3.1 0-4.5 2.9-4.5 5.7zm27 3.2c0 1.5.1 2.9.2 4c-.04 0-2.4 0-2.4 0l-.1-2.4c0 0-.09.03-.1 0c-.7 1.2-2.2 2.7-4.8 2.7c-2.3 0-5-1.2-5-6.3c0-.03 0-8.5 0-8.5l2.6 0c0 0 .04 8.02 0 8c0 2.8.9 4.6 3.3 4.6c1.7 0 3-1.2 3.5-2.4c.1-.4.2-.8.2-1.3c0-.01 0-8.9 0-8.9l2.6 0c0 0 .04 10.54 0 10.5zm4.4-6c0-1.7 0-3.2-.1-4.5c0-.02 2.3 0 2.3 0l.1 2.8c0 0 .12.03.1 0c.7-1.9 2.3-3.1 4-3.1c.3 0 .5 0 .8 0c0 0 0 2.5 0 2.5c-.3 0-.6-.1-.9-.1c-1.9 0-3.2 1.5-3.6 3.4c0 .4-.1.8-.1 1.3c.03-.04 0 7.7 0 7.7l-2.6 0c0 0 .02-9.99 0-10zm16.2.2c0-1.8-.1-3.3-.1-4.7c-.03-.02 2.3 0 2.3 0l.2 2.5c0 0 .02-.03 0 0c1.1-1.8 2.8-2.8 5.2-2.8c3.5 0 6.1 2.9 6.1 7.3c0 5.3-3.2 7.8-6.6 7.8c-1.9 0-3.6-.8-4.4-2.2c-.04-.05-.1 0-.1 0l0 7.8l-2.6 0c0 0-.01-15.68 0-15.7zm2.6 3.9c0 .4.1.7.1 1.1c.5 1.8 2.1 3.1 4 3.1c2.8 0 4.4-2.3 4.4-5.6c0-3-1.5-5.4-4.3-5.4c-1.8 0-3.5 1.2-4 3.2c-.1.4-.2.7-.2 1.1c0 0 0 2.5 0 2.5zm26.6 1.9c0 1.5 0 2.9.1 4c.03 0-2.3 0-2.3 0l-.2-2.4c0 0-.02.03 0 0c-.7 1.2-2.2 2.7-4.8 2.7c-2.3 0-5-1.2-5-6.3c-.03-.03 0-8.5 0-8.5l2.6 0c0 0 .01 8.02 0 8c0 2.8.8 4.6 3.2 4.6c1.8 0 3-1.2 3.5-2.4c.2-.4.3-.8.3-1.3c-.03-.01 0-8.9 0-8.9l2.6 0c0 0 .01 10.54 0 10.5zm4.4-6c0-1.7 0-3.2-.1-4.5c-.03-.02 2.3 0 2.3 0l.1 2.8c0 0 .09.03.1 0c.6-1.9 2.2-3.1 4-3.1c.3 0 .5 0 .8 0c0 0 0 2.5 0 2.5c-.3 0-.6-.1-.9-.1c-1.9 0-3.2 1.5-3.6 3.4c0 .4-.1.8-.1 1.3c0-.04 0 7.7 0 7.7l-2.6 0c0 0-.01-9.99 0-10zm19.8 9.5c-.6.3-2.2.8-4.1.8c-4.4 0-7.3-3-7.3-7.4c0-4.5 3.1-7.7 7.8-7.7c1.6 0 3 .4 3.7.7c0 0-.6 2.1-.6 2.1c-.6-.4-1.6-.7-3.1-.7c-3.3 0-5.1 2.4-5.1 5.5c0 3.3 2.2 5.4 5.1 5.4c1.5 0 2.4-.4 3.2-.7c0 0 .4 2 .4 2zm3.1-20.8l2.7 0l0 9.1c0 0 .04-.04 0 0c.5-.8 1.1-1.4 1.9-1.9c.8-.4 1.7-.7 2.7-.7c2 0 5.1 1.2 5.1 6.2c0-.04 0 8.6 0 8.6l-2.6 0c0 0-.04-8.34 0-8.3c0-2.4-.9-4.4-3.4-4.4c-1.7 0-3.1 1.2-3.5 2.7c-.2.3-.2.7-.2 1.2c-.02.04 0 8.8 0 8.8l-2.7 0l0-21.3zm24.7 21.3l-.2-1.8c0 0-.07-.03-.1 0c-.8 1.1-2.3 2.1-4.4 2.1c-3 0-4.5-2-4.5-4.1c0-3.5 3.2-5.5 8.8-5.4c0 0 0-.3 0-.3c0-1.2-.4-3.4-3.3-3.4c-1.4 0-2.8.4-3.8 1.1c0 0-.6-1.8-.6-1.8c1.2-.7 2.9-1.2 4.8-1.2c4.4 0 5.5 3 5.5 5.9c0 0 0 5.4 0 5.4c0 1.3 0 2.5.2 3.5c.03 0-2.4 0-2.4 0zm-.4-7.4c-2.8-.1-6.1.4-6.1 3.3c0 1.7 1.1 2.5 2.5 2.5c1.9 0 3.1-1.2 3.5-2.4c.1-.3.1-.6.1-.9c0 0 0-2.5 0-2.5zm6.5 4.7c.8.5 2.1 1.1 3.5 1.1c1.9 0 2.8-1 2.8-2.2c0-1.3-.8-2-2.7-2.7c-2.6-.9-3.9-2.3-3.9-4.1c0-2.3 1.9-4.2 5.1-4.2c1.4 0 2.7.4 3.5.9c0 0-.6 1.9-.6 1.9c-.6-.4-1.7-.9-3-.9c-1.6 0-2.4.9-2.4 2c0 1.2.8 1.8 2.7 2.5c2.5.9 3.8 2.2 3.8 4.4c0 2.5-1.9 4.3-5.4 4.3c-1.6 0-3.1-.4-4.1-1c0 0 .7-2 .7-2zm13.7-4.1c.1 3.6 2.3 5.1 5 5.1c1.9 0 3-.4 4-.8c0 0 .4 1.9.4 1.9c-.9.4-2.5.9-4.8.9c-4.5 0-7.1-2.9-7.1-7.3c0-4.4 2.6-7.8 6.8-7.8c4.7 0 6 4.1 6 6.8c0 .5-.1 1-.1 1.2c0 0-10.2 0-10.2 0zm7.7-1.9c.1-1.6-.7-4.3-3.6-4.3c-2.7 0-3.9 2.5-4.1 4.3c0 0 7.7 0 7.7 0zm5.5 6c.8.5 2.2 1.1 3.5 1.1c1.9 0 2.8-1 2.8-2.2c0-1.3-.8-2-2.7-2.7c-2.6-.9-3.8-2.3-3.8-4.1c0-2.3 1.8-4.2 5-4.2c1.4 0 2.7.4 3.5.9c0 0-.6 1.9-.6 1.9c-.6-.4-1.6-.9-3-.9c-1.6 0-2.4.9-2.4 2c0 1.2.8 1.8 2.7 2.5c2.6.9 3.8 2.2 3.8 4.4c0 2.5-1.9 4.3-5.4 4.3c-1.6 0-3-.4-4.1-1c0 0 .7-2 .7-2zm26.6 2.7l-.2-1.8c0 0-.06-.03-.1 0c-.8 1.1-2.3 2.1-4.4 2.1c-2.9 0-4.4-2-4.4-4.1c0-3.5 3.1-5.5 8.7-5.4c0 0 0-.3 0-.3c0-1.2-.3-3.4-3.3-3.4c-1.4 0-2.8.4-3.8 1.1c0 0-.6-1.8-.6-1.8c1.2-.7 2.9-1.2 4.8-1.2c4.4 0 5.5 3 5.5 5.9c0 0 0 5.4 0 5.4c0 1.3.1 2.5.2 3.5c.04 0-2.4 0-2.4 0zm-.4-7.4c-2.8-.1-6.1.4-6.1 3.3c0 1.7 1.1 2.5 2.5 2.5c1.9 0 3.1-1.2 3.5-2.4c.1-.3.1-.6.1-.9c0 0 0-2.5 0-2.5zm6.9-2.6c0-1.7-.1-3.2-.2-4.5c.04-.02 2.3 0 2.3 0l.1 2.8c0 0 .16.03.2 0c.6-1.9 2.2-3.1 4-3.1c.3 0 .5 0 .7 0c0 0 0 2.5 0 2.5c-.2 0-.5-.1-.9-.1c-1.8 0-3.2 1.5-3.5 3.4c-.1.4-.1.8-.1 1.3c-.03-.04 0 7.7 0 7.7l-2.6 0c0 0-.04-9.99 0-10zm10.9 3.2c.1 3.6 2.4 5.1 5 5.1c1.9 0 3-.4 4-.8c0 0 .5 1.9.5 1.9c-.9.4-2.5.9-4.8.9c-4.5 0-7.2-2.9-7.2-7.3c0-4.4 2.6-7.8 6.8-7.8c4.8 0 6 4.1 6 6.8c0 .5 0 1-.1 1.2c0 0-10.2 0-10.2 0zm7.8-1.9c0-1.6-.7-4.3-3.7-4.3c-2.7 0-3.8 2.5-4 4.3c0 0 7.7 0 7.7 0zm12.2-1.3c0-1.7-.1-3.2-.2-4.5c.04-.02 2.3 0 2.3 0l.1 2.8c0 0 .16.03.2 0c.6-1.9 2.2-3.1 4-3.1c.3 0 .5 0 .7 0c0 0 0 2.5 0 2.5c-.2 0-.5-.1-.9-.1c-1.8 0-3.2 1.5-3.5 3.4c-.1.4-.1.8-.1 1.3c-.03-.04 0 7.7 0 7.7l-2.6 0c0 0-.04-9.99 0-10zm10.9 3.2c.1 3.6 2.4 5.1 5 5.1c1.9 0 3-.4 4-.8c0 0 .5 1.9.5 1.9c-.9.4-2.5.9-4.8.9c-4.5 0-7.2-2.9-7.2-7.3c0-4.4 2.6-7.8 6.8-7.8c4.8 0 6 4.1 6 6.8c0 .5 0 1-.1 1.2c0 0-10.2 0-10.2 0zm7.8-1.9c0-1.6-.7-4.3-3.7-4.3c-2.7 0-3.8 2.5-4 4.3c0 0 7.7 0 7.7 0zm16.1 8.2c-.6.3-2.2.8-4.1.8c-4.4 0-7.3-3-7.3-7.4c0-4.5 3.1-7.7 7.8-7.7c1.6 0 3 .4 3.7.7c0 0-.6 2.1-.6 2.1c-.6-.4-1.6-.7-3.1-.7c-3.3 0-5.1 2.4-5.1 5.5c0 3.3 2.2 5.4 5.1 5.4c1.5 0 2.4-.4 3.2-.7c0 0 .4 2 .4 2zm16.1-6.9c0 5.4-3.7 7.7-7.2 7.7c-4 0-7-2.8-7-7.4c0-4.9 3.2-7.7 7.2-7.7c4.2 0 7 3 7 7.4zm-11.5.2c0 3.2 1.8 5.6 4.4 5.6c2.5 0 4.4-2.4 4.4-5.7c0-2.4-1.2-5.6-4.4-5.6c-3.1 0-4.4 2.9-4.4 5.7zm14.8-3.4c0-1.5 0-2.7-.1-3.9c.01-.02 2.3 0 2.3 0l.2 2.4c0 0 .06-.02.1 0c.7-1.4 2.4-2.7 4.8-2.7c2 0 5.1 1.2 5.1 6.1c-.01.03 0 8.7 0 8.7l-2.7 0c0 0 .05-8.37 0-8.4c0-2.3-.8-4.3-3.3-4.3c-1.8 0-3.1 1.3-3.6 2.7c-.1.4-.1.8-.1 1.3c-.03-.03 0 8.7 0 8.7l-2.7 0c0 0 .03-10.59 0-10.6zm27 10.1c-.7.3-2.2.8-4.1.8c-4.4 0-7.3-3-7.3-7.4c0-4.5 3.1-7.7 7.8-7.7c1.6 0 3 .4 3.7.7c0 0-.6 2.1-.6 2.1c-.6-.4-1.6-.7-3.1-.7c-3.3 0-5.1 2.4-5.1 5.5c0 3.3 2.2 5.4 5 5.4c1.5 0 2.5-.4 3.3-.7c0 0 .4 2 .4 2zm3.1.5l0-14.5l2.7 0l0 14.5l-2.7 0zm3-18.6c0 .9-.7 1.6-1.7 1.6c-1 0-1.6-.7-1.6-1.6c0-.9.7-1.6 1.6-1.6c1 0 1.7.7 1.7 1.6zm4-2.7l2.7 0l0 21.3l-2.7 0l0-21.3zm8.6 14.5c0 3.6 2.3 5.1 5 5.1c1.9 0 3-.4 4-.8c0 0 .4 1.9.4 1.9c-.9.4-2.5.9-4.8.9c-4.5 0-7.1-2.9-7.1-7.3c0-4.4 2.5-7.8 6.8-7.8c4.7 0 6 4.1 6 6.8c0 .5-.1 1-.1 1.2c0 0-10.2 0-10.2 0zm7.7-1.9c.1-1.6-.7-4.3-3.6-4.3c-2.7 0-3.9 2.5-4.1 4.3c0 0 7.7 0 7.7 0zm18.4-12.6c0 0-.01 17.55 0 17.6c0 1.2 0 2.7.1 3.7c.01 0-2.4 0-2.4 0l-.1-2.5c0 0-.04-.02 0 0c-.9 1.6-2.6 2.8-5 2.8c-3.5 0-6.2-2.9-6.2-7.3c0-4.9 3-7.8 6.5-7.8c2.2 0 3.7 1 4.4 2.2c-.01-.03 0 0 0 0l0-8.7l2.7 0zm-2.7 12.7c0-.3 0-.8-.1-1.1c-.4-1.7-1.8-3.1-3.8-3.1c-2.7 0-4.3 2.4-4.3 5.6c0 3 1.4 5.4 4.3 5.4c1.7 0 3.3-1.2 3.8-3.1c.1-.4.1-.8.1-1.2c0 0 0-2.5 0-2.5zm21.5 8.6l-.2-1.8c0 0-.13-.03-.1 0c-.8 1.1-2.4 2.1-4.5 2.1c-2.9 0-4.4-2-4.4-4.1c0-3.5 3.1-5.5 8.7-5.4c0 0 0-.3 0-.3c0-1.2-.3-3.4-3.3-3.4c-1.3 0-2.7.4-3.8 1.1c0 0-.6-1.8-.6-1.8c1.2-.7 3-1.2 4.8-1.2c4.4 0 5.5 3 5.5 5.9c0 0 0 5.4 0 5.4c0 1.3.1 2.5.3 3.5c-.03 0-2.4 0-2.4 0zm-.4-7.4c-2.9-.1-6.2.4-6.2 3.3c0 1.7 1.2 2.5 2.5 2.5c1.9 0 3.1-1.2 3.5-2.4c.1-.3.2-.6.2-.9c0 0 0-2.5 0-2.5zm6.8-3.2c0-1.5 0-2.7-.1-3.9c-.03-.02 2.3 0 2.3 0l.2 2.4c0 0 .02-.02 0 0c.7-1.4 2.4-2.7 4.8-2.7c2 0 5.1 1.2 5.1 6.1c.05.03 0 8.7 0 8.7l-2.6 0c0 0 .01-8.37 0-8.4c0-2.3-.9-4.3-3.4-4.3c-1.7 0-3 1.3-3.5 2.7c-.1.4-.2.8-.2 1.3c.03-.03 0 8.7 0 8.7l-2.6 0c0 0-.01-10.59 0-10.6zm29.2-10.7c0 0-.03 17.55 0 17.6c0 1.2 0 2.7.1 3.7c-.01 0-2.4 0-2.4 0l-.1-2.5c0 0-.06-.02-.1 0c-.8 1.6-2.5 2.8-4.9 2.8c-3.5 0-6.2-2.9-6.2-7.3c0-4.9 3-7.8 6.5-7.8c2.2 0 3.7 1 4.4 2.2c-.03-.03 0 0 0 0l0-8.7l2.7 0zm-2.7 12.7c0-.3 0-.8-.1-1.1c-.4-1.7-1.8-3.1-3.8-3.1c-2.7 0-4.3 2.4-4.3 5.6c0 3 1.4 5.4 4.2 5.4c1.8 0 3.4-1.2 3.9-3.1c.1-.4.1-.8.1-1.2c0 0 0-2.5 0-2.5z" stroke="none" fill="#3c3c3b"/></g><g id="Polygon6728"><path d="m2.3 92.6c1.3-.3 3.2-.5 5-.5c2.8 0 4.6.5 5.8 1.7c1.1.9 1.6 2.3 1.6 3.8c0 2.7-1.7 4.5-3.8 5.2c0 0 0 .1 0 .1c1.6.5 2.5 2 3 4.1c.6 2.8 1.1 4.7 1.5 5.5c0 0-2.6 0-2.6 0c-.4-.6-.8-2.3-1.4-4.8c-.6-2.8-1.7-3.9-4.1-4c.05.04-2.4 0-2.4 0l0 8.8l-2.6 0c0 0-.02-19.95 0-19.9zm2.6 9.2c0 0 2.66-.04 2.7 0c2.7 0 4.5-1.6 4.5-3.9c0-2.6-1.9-3.7-4.6-3.8c-1.3 0-2.2.2-2.6.3c-.01-.02 0 7.4 0 7.4zm15 3.9c.1 3.6 2.4 5.1 5 5.1c1.9 0 3-.4 4-.8c0 0 .5 1.9.5 1.9c-1 .4-2.6.9-4.9.9c-4.4 0-7.1-2.9-7.1-7.3c0-4.4 2.6-7.8 6.8-7.8c4.7 0 6 4.1 6 6.8c0 .5-.1 1-.1 1.2c0 0-10.2 0-10.2 0zm7.8-1.9c0-1.6-.7-4.3-3.7-4.3c-2.7 0-3.8 2.5-4.1 4.3c0 0 7.8 0 7.8 0zm13.8 8.7l-.2-1.8c0 0-.08-.03-.1 0c-.8 1.1-2.4 2.1-4.4 2.1c-3 0-4.5-2-4.5-4.1c0-3.5 3.2-5.5 8.8-5.4c0 0 0-.3 0-.3c0-1.2-.4-3.4-3.3-3.4c-1.4 0-2.8.4-3.8 1.1c0 0-.6-1.8-.6-1.8c1.2-.7 2.9-1.2 4.8-1.2c4.4 0 5.5 3 5.5 5.9c0 0 0 5.4 0 5.4c0 1.3 0 2.5.2 3.5c.02 0-2.4 0-2.4 0zm-.4-7.4c-2.9-.1-6.1.4-6.1 3.3c0 1.7 1.1 2.5 2.5 2.5c1.9 0 3.1-1.2 3.5-2.4c.1-.3.1-.6.1-.9c0 0 0-2.5 0-2.5zm6.8-13.9l2.7 0l0 21.3l-2.7 0l0-21.3zm13.2 12.2l0 2l-7.4 0l0-2l7.4 0zm6.3-9.6l0 4.2l3.8 0l0 2l-3.8 0c0 0 .01 7.82 0 7.8c0 1.8.5 2.8 2 2.8c.7 0 1.2 0 1.5-.1c0 0 .1 1.9.1 1.9c-.5.2-1.3.4-2.3.4c-1.2 0-2.2-.4-2.9-1.1c-.7-.8-1-2.1-1-3.8c.03.01 0-7.9 0-7.9l-2.2 0l0-2l2.2 0l0-3.5l2.6-.7zm6.8 18.7l0-14.5l2.6 0l0 14.5l-2.6 0zm2.9-18.6c0 .9-.6 1.6-1.7 1.6c-.9 0-1.6-.7-1.6-1.6c0-.9.7-1.6 1.7-1.6c1 0 1.6.7 1.6 1.6zm4.1 8c0-1.5-.1-2.7-.1-3.9c-.04-.02 2.3 0 2.3 0l.1 2.3c0 0 .08.02.1 0c.8-1.4 2.1-2.6 4.5-2.6c2 0 3.5 1.2 4.1 2.9c0 0 .1 0 .1 0c.5-.8 1-1.5 1.6-1.9c.9-.7 1.9-1 3.2-1c2 0 4.8 1.2 4.8 6.2c.01.05 0 8.6 0 8.6l-2.6 0c0 0 .03-8.22 0-8.2c0-2.8-1-4.5-3.1-4.5c-1.5 0-2.7 1.1-3.1 2.4c-.2.4-.3.9-.3 1.3c.05.03 0 9 0 9l-2.5 0c0 0-.03-8.7 0-8.7c0-2.3-1.1-4-3.1-4c-1.6 0-2.8 1.3-3.2 2.6c-.2.4-.2.9-.2 1.3c-.04.04 0 8.8 0 8.8l-2.6 0c0 0-.02-10.59 0-10.6zm26.5 3.8c0 3.6 2.3 5.1 4.9 5.1c1.9 0 3.1-.4 4.1-.8c0 0 .4 1.9.4 1.9c-.9.4-2.5.9-4.8.9c-4.5 0-7.2-2.9-7.2-7.3c0-4.4 2.6-7.8 6.9-7.8c4.7 0 6 4.1 6 6.8c0 .5-.1 1-.1 1.2c0 0-10.2 0-10.2 0zm7.7-1.9c0-1.6-.7-4.3-3.7-4.3c-2.6 0-3.8 2.5-4 4.3c0 0 7.7 0 7.7 0zm24.7-12.6c0 0 .03 17.55 0 17.6c0 1.2.1 2.7.1 3.7c.05 0-2.3 0-2.3 0l-.1-2.5c0 0-.1-.02-.1 0c-.8 1.6-2.6 2.8-5 2.8c-3.5 0-6.2-2.9-6.2-7.3c0-4.9 3-7.8 6.5-7.8c2.3 0 3.8 1 4.4 2.2c.03-.03.1 0 .1 0l0-8.7l2.6 0zm-2.6 12.7c0-.3 0-.8-.1-1.1c-.4-1.7-1.9-3.1-3.8-3.1c-2.8 0-4.4 2.4-4.4 5.6c0 3 1.4 5.4 4.3 5.4c1.8 0 3.4-1.2 3.9-3.1c.1-.4.1-.8.1-1.2c0 0 0-2.5 0-2.5zm15 8.6l-.2-1.8c0 0-.05-.03-.1 0c-.8 1.1-2.3 2.1-4.4 2.1c-2.9 0-4.4-2-4.4-4.1c0-3.5 3.1-5.5 8.7-5.4c0 0 0-.3 0-.3c0-1.2-.3-3.4-3.3-3.4c-1.4 0-2.8.4-3.8 1.1c0 0-.6-1.8-.6-1.8c1.2-.7 3-1.2 4.8-1.2c4.4 0 5.5 3 5.5 5.9c0 0 0 5.4 0 5.4c0 1.3.1 2.5.2 3.5c.05 0-2.4 0-2.4 0zm-.3-7.4c-2.9-.1-6.2.4-6.2 3.3c0 1.7 1.1 2.5 2.5 2.5c1.9 0 3.1-1.2 3.5-2.4c.1-.3.2-.6.2-.9c0 0 0-2.5 0-2.5zm9.8-11.3l0 4.2l3.8 0l0 2l-3.8 0c0 0 .03 7.82 0 7.8c0 1.8.5 2.8 2 2.8c.7 0 1.2 0 1.5-.1c0 0 .2 1.9.2 1.9c-.6.2-1.4.4-2.4.4c-1.2 0-2.2-.4-2.8-1.1c-.8-.8-1.1-2.1-1.1-3.8c.05.01 0-7.9 0-7.9l-2.2 0l0-2l2.2 0l0-3.5l2.6-.7zm14.8 18.7l-.2-1.8c0 0-.08-.03-.1 0c-.8 1.1-2.4 2.1-4.4 2.1c-3 0-4.5-2-4.5-4.1c0-3.5 3.2-5.5 8.8-5.4c0 0 0-.3 0-.3c0-1.2-.4-3.4-3.3-3.4c-1.4 0-2.8.4-3.8 1.1c0 0-.6-1.8-.6-1.8c1.2-.7 2.9-1.2 4.8-1.2c4.4 0 5.5 3 5.5 5.9c0 0 0 5.4 0 5.4c0 1.3 0 2.5.2 3.5c.02 0-2.4 0-2.4 0zm-.4-7.4c-2.9-.1-6.1.4-6.1 3.3c0 1.7 1.1 2.5 2.5 2.5c1.9 0 3.1-1.2 3.5-2.4c.1-.3.1-.6.1-.9c0 0 0-2.5 0-2.5zm12.8 4.7c.8.5 2.2 1.1 3.5 1.1c1.9 0 2.8-1 2.8-2.2c0-1.3-.7-2-2.7-2.7c-2.6-.9-3.8-2.3-3.8-4.1c0-2.3 1.9-4.2 5-4.2c1.5 0 2.8.4 3.6.9c0 0-.7 1.9-.7 1.9c-.6-.4-1.6-.9-3-.9c-1.5 0-2.4.9-2.4 2c0 1.2.9 1.8 2.8 2.5c2.5.9 3.8 2.2 3.8 4.4c0 2.5-2 4.3-5.4 4.3c-1.6 0-3.1-.4-4.1-1c0 0 .6-2 .6-2zm13.2-11.8c0 0 3.22 8.56 3.2 8.6c.3.9.7 2.1.9 2.9c0 0 .1 0 .1 0c.3-.8.6-1.9.9-3c.04 0 2.9-8.5 2.9-8.5l2.8 0c0 0-3.95 10.33-4 10.3c-1.8 5-3.1 7.6-4.9 9.1c-1.3 1.2-2.6 1.6-3.3 1.7c0 0-.6-2.2-.6-2.2c.6-.2 1.5-.6 2.3-1.3c.7-.6 1.6-1.6 2.2-2.9c.1-.3.2-.5.2-.6c0-.2-.1-.4-.2-.7c.03-.04-5.3-13.4-5.3-13.4l2.8 0zm13.2 3.9c0-1.5 0-2.7-.1-3.9c-.01-.02 2.3 0 2.3 0l.2 2.4c0 0 .04-.02 0 0c.8-1.4 2.4-2.7 4.8-2.7c2 0 5.2 1.2 5.2 6.1c-.03.03 0 8.7 0 8.7l-2.7 0c0 0 .03-8.37 0-8.4c0-2.3-.8-4.3-3.3-4.3c-1.8 0-3.1 1.3-3.6 2.7c-.1.4-.2.8-.2 1.3c.05-.03 0 8.7 0 8.7l-2.6 0c0 0 .01-10.59 0-10.6zm27 10.1c-.7.3-2.2.8-4.2.8c-4.3 0-7.2-3-7.2-7.4c0-4.5 3.1-7.7 7.8-7.7c1.6 0 2.9.4 3.7.7c0 0-.6 2.1-.6 2.1c-.7-.4-1.7-.7-3.1-.7c-3.3 0-5.1 2.4-5.1 5.5c0 3.3 2.1 5.4 5 5.4c1.5 0 2.5-.4 3.3-.7c0 0 .4 2 .4 2zm17.5.5l-.2-1.8c0 0-.1-.03-.1 0c-.8 1.1-2.4 2.1-4.4 2.1c-3 0-4.5-2-4.5-4.1c0-3.5 3.1-5.5 8.7-5.4c0 0 0-.3 0-.3c0-1.2-.3-3.4-3.3-3.4c-1.3 0-2.7.4-3.7 1.1c0 0-.6-1.8-.6-1.8c1.2-.7 2.9-1.2 4.7-1.2c4.5 0 5.6 3 5.6 5.9c0 0 0 5.4 0 5.4c0 1.3 0 2.5.2 3.5c0 0-2.4 0-2.4 0zm-.4-7.4c-2.9-.1-6.1.4-6.1 3.3c0 1.7 1.1 2.5 2.4 2.5c1.9 0 3.1-1.2 3.6-2.4c0-.3.1-.6.1-.9c0 0 0-2.5 0-2.5zm6.8-13.9l2.7 0l0 21.3l-2.7 0l0-21.3zm6.7 18.6c.8.5 2.2 1.1 3.5 1.1c1.9 0 2.8-1 2.8-2.2c0-1.3-.7-2-2.7-2.7c-2.6-.9-3.8-2.3-3.8-4.1c0-2.3 1.9-4.2 5-4.2c1.5 0 2.8.4 3.6.9c0 0-.7 1.9-.7 1.9c-.6-.4-1.6-.9-3-.9c-1.5 0-2.4.9-2.4 2c0 1.2.9 1.8 2.8 2.5c2.5.9 3.8 2.2 3.8 4.4c0 2.5-2 4.3-5.4 4.3c-1.6 0-3.1-.4-4.1-1c0 0 .6-2 .6-2zm25.4-4.7c0 5.4-3.7 7.7-7.2 7.7c-3.9 0-7-2.8-7-7.4c0-4.9 3.2-7.7 7.2-7.7c4.2 0 7 3 7 7.4zm-11.5.2c0 3.2 1.8 5.6 4.4 5.6c2.5 0 4.4-2.4 4.4-5.7c0-2.4-1.2-5.6-4.3-5.6c-3.2 0-4.5 2.9-4.5 5.7zm21.2-3.4c0-1.5 0-2.7-.1-3.9c-.01-.02 2.3 0 2.3 0l.1 2.3c0 0 .11.02.1 0c.8-1.4 2.2-2.6 4.6-2.6c1.9 0 3.4 1.2 4.1 2.9c0 0 0 0 0 0c.5-.8 1.1-1.5 1.7-1.9c.8-.7 1.8-1 3.2-1c1.9 0 4.7 1.2 4.7 6.2c.04.05 0 8.6 0 8.6l-2.5 0c0 0-.04-8.22 0-8.2c0-2.8-1.1-4.5-3.2-4.5c-1.5 0-2.7 1.1-3.1 2.4c-.1.4-.2.9-.2 1.3c-.02.03 0 9 0 9l-2.6 0c0 0 0-8.7 0-8.7c0-2.3-1-4-3-4c-1.7 0-2.9 1.3-3.3 2.6c-.2.4-.2.9-.2 1.3c-.01.04 0 8.8 0 8.8l-2.6 0c0 0 .01-10.59 0-10.6zm26.5 3.8c.1 3.6 2.3 5.1 5 5.1c1.9 0 3-.4 4-.8c0 0 .4 1.9.4 1.9c-.9.4-2.5.9-4.8.9c-4.5 0-7.1-2.9-7.1-7.3c0-4.4 2.6-7.8 6.8-7.8c4.7 0 6 4.1 6 6.8c0 .5-.1 1-.1 1.2c0 0-10.2 0-10.2 0zm7.7-1.9c.1-1.6-.7-4.3-3.6-4.3c-2.7 0-3.9 2.5-4.1 4.3c0 0 7.7 0 7.7 0zm13.9 8.7l-.2-1.8c0 0-.1-.03-.1 0c-.8 1.1-2.4 2.1-4.4 2.1c-3 0-4.5-2-4.5-4.1c0-3.5 3.1-5.5 8.7-5.4c0 0 0-.3 0-.3c0-1.2-.3-3.4-3.3-3.4c-1.3 0-2.7.4-3.7 1.1c0 0-.6-1.8-.6-1.8c1.2-.7 2.9-1.2 4.7-1.2c4.5 0 5.6 3 5.6 5.9c0 0 0 5.4 0 5.4c0 1.3 0 2.5.2 3.5c0 0-2.4 0-2.4 0zm-.4-7.4c-2.9-.1-6.1.4-6.1 3.3c0 1.7 1.1 2.5 2.4 2.5c1.9 0 3.1-1.2 3.6-2.4c0-.3.1-.6.1-.9c0 0 0-2.5 0-2.5zm6.8-3.2c0-1.5 0-2.7-.1-3.9c-.01-.02 2.3 0 2.3 0l.2 2.4c0 0 .04-.02 0 0c.8-1.4 2.4-2.7 4.8-2.7c2.1 0 5.2 1.2 5.2 6.1c-.03.03 0 8.7 0 8.7l-2.7 0c0 0 .03-8.37 0-8.4c0-2.3-.8-4.3-3.3-4.3c-1.8 0-3.1 1.3-3.6 2.7c-.1.4-.1.8-.1 1.3c-.05-.03 0 8.7 0 8.7l-2.7 0c0 0 .01-10.59 0-10.6zm16.3 7.9c.8.5 2.2 1.1 3.5 1.1c1.9 0 2.8-1 2.8-2.2c0-1.3-.7-2-2.7-2.7c-2.6-.9-3.8-2.3-3.8-4.1c0-2.3 1.9-4.2 5-4.2c1.4 0 2.7.4 3.5.9c0 0-.6 1.9-.6 1.9c-.6-.4-1.6-.9-3-.9c-1.5 0-2.4.9-2.4 2c0 1.2.9 1.8 2.7 2.5c2.6.9 3.9 2.2 3.9 4.4c0 2.5-2 4.3-5.5 4.3c-1.6 0-3-.4-4.1-1c0 0 .7-2 .7-2z" stroke="none" fill="#3c3c3b"/></g><g id="Polygon6727"><path d="m6.9 43.6l0 4.2l3.3 0l0 3.4l-3.3 0c0 0 .03 5.3 0 5.3c0 1.8.4 2.6 1.8 2.6c.6 0 1.1-.1 1.4-.1c0 0 0 3.4 0 3.4c-.6.2-1.7.4-3 .4c-1.4 0-2.7-.5-3.4-1.3c-.8-.8-1.2-2.2-1.2-4.3c-.04-.01 0-6 0-6l-2 0l0-3.4l2 0l0-3.2l4.4-1zm5.9-2.4l4.6 0l0 8.4c0 0 .06-.03.1 0c.4-.7 1-1.1 1.8-1.5c.6-.4 1.5-.6 2.3-.6c2.9 0 5.2 2 5.2 6.4c-.04.02 0 8.6 0 8.6l-4.6 0c0 0 0-8.07 0-8.1c0-1.9-.7-3.2-2.4-3.2c-1.2 0-1.9.8-2.3 1.6c-.1.3-.1.7-.1 1c0 0 0 8.7 0 8.7l-4.6 0l0-21.3zm21.1 15.4c.2 1.9 2 2.8 4.2 2.8c1.5 0 2.8-.2 4-.6c0 0 .6 3.1.6 3.1c-1.5.6-3.3.9-5.3.9c-5 0-7.8-2.9-7.8-7.5c0-3.7 2.3-7.8 7.4-7.8c4.7 0 6.5 3.7 6.5 7.3c0 .8-.1 1.5-.1 1.8c0 0-9.5 0-9.5 0zm5.4-3.1c0-1.1-.5-3-2.6-3c-1.9 0-2.7 1.8-2.8 3c0 0 5.4 0 5.4 0zm13 5c.8.5 2.6 1.1 3.9 1.1c1.4 0 2-.5 2-1.2c0-.8-.5-1.1-2.2-1.7c-3-1-4.2-2.7-4.2-4.4c0-2.7 2.4-4.8 6-4.8c1.7 0 3.2.4 4.1.8c0 0-.8 3.2-.8 3.2c-.6-.4-1.9-.8-3.1-.8c-1.2 0-1.8.4-1.8 1.2c0 .6.6 1 2.4 1.6c2.8 1 3.9 2.4 4 4.6c0 2.7-2.2 4.7-6.4 4.7c-1.9 0-3.6-.4-4.7-1c0 0 .8-3.3.8-3.3zm13 4l0-14.7l4.6 0l0 14.7l-4.6 0zm4.7-18.7c0 1.2-.9 2.2-2.4 2.2c-1.5 0-2.4-1-2.4-2.2c0-1.4.9-2.4 2.4-2.4c1.5 0 2.4 1 2.4 2.4zm3.6 8.7c0-1.8-.1-3.4-.2-4.7c.04.03 4 0 4 0l.2 2c0 0 .1.04.1 0c.6-.9 2.1-2.3 4.5-2.3c3 0 5.3 2 5.3 6.3c-.02 0 0 8.7 0 8.7l-4.6 0c0 0 .02-8.13 0-8.1c0-1.9-.6-3.2-2.3-3.2c-1.3 0-2 .9-2.3 1.7c-.1.3-.2.7-.2 1.1c.02.04 0 8.5 0 8.5l-4.5 0c0 0-.04-9.99 0-10zm31.5-4.7c0 1-.1 2.2-.1 4.4c0 0 0 8.2 0 8.2c0 2.8-.5 5.1-2.2 6.6c-1.6 1.3-3.8 1.8-6 1.8c-1.9 0-3.9-.4-5.2-1.2c0 0 .9-3.4.9-3.4c.9.5 2.5 1.1 4.2 1.1c2.2 0 3.8-1.2 3.8-3.9c.03.02 0-.9 0-.9c0 0-.03-.04 0 0c-.9 1.2-2.3 1.9-4 1.9c-3.6 0-6.2-3-6.2-7.2c0-4.7 3.1-7.7 6.7-7.7c2 0 3.2.9 4 2.1c-.02-.03 0 0 0 0l.2-1.8c0 0 3.95.03 3.9 0zm-4.6 6c0-.3-.1-.6-.1-.8c-.4-1.2-1.2-2.1-2.5-2.1c-1.6 0-3 1.5-3 4.2c0 2.2 1.1 3.9 3 3.9c1.2 0 2.1-.8 2.4-1.8c.1-.4.2-.9.2-1.2c0 0 0-2.2 0-2.2zm8.2-12.6l4.5 0l0 21.3l-4.5 0l0-21.3zm11.7 15.4c.2 1.9 2.1 2.8 4.2 2.8c1.5 0 2.8-.2 4-.6c0 0 .6 3.1.6 3.1c-1.5.6-3.3.9-5.3.9c-5 0-7.8-2.9-7.8-7.5c0-3.7 2.3-7.8 7.4-7.8c4.7 0 6.5 3.7 6.5 7.3c0 .8 0 1.5-.1 1.8c0 0-9.5 0-9.5 0zm5.4-3.1c0-1.1-.5-3-2.6-3c-1.9 0-2.7 1.8-2.8 3c0 0 5.4 0 5.4 0zm13 5c.8.5 2.6 1.1 3.9 1.1c1.4 0 2-.5 2-1.2c0-.8-.5-1.1-2.2-1.7c-3-1-4.2-2.7-4.1-4.4c0-2.7 2.3-4.8 5.9-4.8c1.7 0 3.3.4 4.2.8c0 0-.8 3.2-.8 3.2c-.7-.4-2-.8-3.2-.8c-1.1 0-1.8.4-1.8 1.2c0 .6.6 1 2.4 1.6c2.8 1 4 2.4 4 4.6c0 2.7-2.2 4.7-6.4 4.7c-1.9 0-3.6-.4-4.7-1c0 0 .8-3.3.8-3.3zm27.5-3.5c0 5.4-3.8 7.8-7.7 7.8c-4.3 0-7.6-2.8-7.6-7.5c0-4.8 3.1-7.8 7.8-7.8c4.5 0 7.5 3.1 7.5 7.5zm-10.6.2c0 2.5 1.1 4.4 3 4.4c1.8 0 2.9-1.8 2.9-4.4c0-2.2-.8-4.5-2.9-4.5c-2.2 0-3 2.3-3 4.5zm27.3 2.6c0 1.9.1 3.5.1 4.7c.02 0-3.9 0-3.9 0l-.3-2.1c0 0-.04.03 0 0c-.6.9-2 2.4-4.6 2.4c-3 0-5.2-1.8-5.2-6.4c.01.04 0-8.6 0-8.6l4.6 0c0 0 0 7.92 0 7.9c0 2.1.7 3.4 2.3 3.4c1.2 0 2-.8 2.3-1.5c.1-.3.1-.7.1-1c.01-.04 0-8.8 0-8.8l4.6 0c0 0 0 9.99 0 10zm3.7-5.1c0-2.2-.1-3.6-.2-4.9c.04.03 4 0 4 0l.1 2.7c0 0 .14.03.1 0c.8-2.1 2.6-3 4-3c.4 0 .6 0 1 .1c0 0 0 4.3 0 4.3c-.4-.1-.8-.2-1.3-.2c-1.7 0-2.8.9-3.1 2.3c-.1.3-.1.7-.1 1.1c.02-.04 0 7.4 0 7.4l-4.5 0c0 0-.04-9.84 0-9.8zm22.1 9.4c-.8.4-2.3.7-4.1.7c-4.7 0-7.7-2.9-7.7-7.5c0-4.3 2.9-7.8 8.4-7.8c1.2 0 2.5.2 3.5.6c0 0-.8 3.4-.8 3.4c-.5-.3-1.3-.5-2.5-.5c-2.4 0-4 1.7-3.9 4.1c0 2.7 1.8 4.1 4 4.1c1.1 0 1.9-.1 2.6-.4c0 0 .5 3.3.5 3.3zm5.7-5.5c.2 1.9 2 2.8 4.2 2.8c1.5 0 2.8-.2 4-.6c0 0 .6 3.1.6 3.1c-1.5.6-3.3.9-5.3.9c-5 0-7.8-2.9-7.8-7.5c0-3.7 2.3-7.8 7.4-7.8c4.7 0 6.5 3.7 6.5 7.3c0 .8-.1 1.5-.1 1.8c0 0-9.5 0-9.5 0zm5.4-3.1c0-1.1-.5-3-2.6-3c-1.9 0-2.7 1.8-2.8 3c0 0 5.4 0 5.4 0zm27.5 1.5c0 5.4-3.8 7.8-7.7 7.8c-4.3 0-7.6-2.8-7.6-7.5c0-4.8 3.1-7.8 7.8-7.8c4.5 0 7.5 3.1 7.5 7.5zm-10.6.2c0 2.5 1 4.4 3 4.4c1.8 0 2.9-1.8 2.9-4.4c0-2.2-.8-4.5-2.9-4.5c-2.2 0-3 2.3-3 4.5zm13.9 7.3l0-11.3l-1.9 0l0-3.4l1.9 0c0 0 .04-.54 0-.5c0-1.8.6-3.8 1.9-5c1.1-1 2.7-1.4 4-1.4c1.1 0 1.8.1 2.5.3c0 0-.2 3.5-.2 3.5c-.4-.1-.9-.2-1.5-.2c-1.5 0-2.1 1.1-2.1 2.6c0-.02 0 .7 0 .7l2.9 0l0 3.4l-2.9 0l0 11.3l-4.6 0zm20.9-18.9l0 4.2l3.3 0l0 3.4l-3.3 0c0 0 .02 5.3 0 5.3c0 1.8.4 2.6 1.8 2.6c.6 0 1-.1 1.4-.1c0 0 0 3.4 0 3.4c-.6.2-1.7.4-3 .4c-1.4 0-2.7-.5-3.4-1.3c-.8-.8-1.3-2.2-1.3-4.3c.05-.01 0-6 0-6l-1.9 0l0-3.4l1.9 0l0-3.2l4.5-1zm5.9 9.1c0-2.2 0-3.6-.1-4.9c.01.03 3.9 0 3.9 0l.2 2.7c0 0 .11.03.1 0c.8-2.1 2.6-3 4-3c.4 0 .6 0 .9.1c0 0 0 4.3 0 4.3c-.3-.1-.7-.2-1.2-.2c-1.7 0-2.8.9-3.1 2.3c-.1.3-.1.7-.1 1.1c-.01-.04 0 7.4 0 7.4l-4.6 0c0 0 .03-9.84 0-9.8zm25.2 5.1c0 1.9 0 3.5.1 4.7c-.01 0-4 0-4 0l-.2-2.1c0 0-.07.03-.1 0c-.5.9-1.9 2.4-4.6 2.4c-2.9 0-5.1-1.8-5.1-6.4c-.02.04 0-8.6 0-8.6l4.6 0c0 0-.03 7.92 0 7.9c0 2.1.7 3.4 2.2 3.4c1.3 0 2-.8 2.3-1.5c.1-.3.2-.7.2-1c-.02-.04 0-8.8 0-8.8l4.6 0c0 0-.03 9.99 0 10zm8.7-14.2l0 4.2l3.3 0l0 3.4l-3.3 0c0 0 .03 5.3 0 5.3c0 1.8.4 2.6 1.8 2.6c.6 0 1-.1 1.4-.1c0 0 0 3.4 0 3.4c-.6.2-1.7.4-3 .4c-1.4 0-2.7-.5-3.4-1.3c-.8-.8-1.2-2.2-1.2-4.3c-.04-.01 0-6 0-6l-2 0l0-3.4l2 0l0-3.2l4.4-1zm5.9-2.4l4.6 0l0 8.4c0 0 .06-.03.1 0c.4-.7 1-1.1 1.8-1.5c.6-.4 1.5-.6 2.3-.6c2.9 0 5.2 2 5.2 6.4c-.04.02 0 8.6 0 8.6l-4.6 0c0 0 0-8.07 0-8.1c0-1.9-.7-3.2-2.4-3.2c-1.2 0-1.9.8-2.3 1.6c-.1.3-.1.7-.1 1c0 0 0 8.7 0 8.7l-4.6 0l0-21.3z" stroke="none" fill="#3c3c3b"/></g><g id="Polygon6726"><path d="m2 2.6c1.4-.3 3.6-.5 6.1-.5c3 0 5.1.5 6.5 1.6c1.2 1 1.9 2.4 1.9 4.3c0 2.5-1.9 4.3-3.6 4.9c0 0 0 .1 0 .1c1.4.6 2.2 1.9 2.7 3.8c.6 2.3 1.3 4.9 1.7 5.7c0 0-4.7 0-4.7 0c-.4-.6-.8-2.2-1.4-4.7c-.6-2.5-1.4-3.2-3.3-3.2c-.01-.05-1.4 0-1.4 0l0 7.9l-4.5 0c0 0-.02-19.95 0-19.9zm4.5 8.7c0 0 1.81-.05 1.8 0c2.3 0 3.6-1.2 3.6-3c0-1.8-1.2-2.7-3.3-2.8c-1.1 0-1.8.1-2.1.2c.01-.03 0 5.6 0 5.6zm16.6 5.3c.2 1.9 2 2.8 4.2 2.8c1.5 0 2.8-.2 4-.6c0 0 .6 3.1.6 3.1c-1.5.6-3.3.9-5.3.9c-5 0-7.8-2.9-7.8-7.5c0-3.7 2.3-7.8 7.4-7.8c4.7 0 6.5 3.7 6.5 7.3c0 .8-.1 1.5-.1 1.8c0 0-9.5 0-9.5 0zm5.4-3.1c0-1.1-.5-3-2.6-3c-1.9 0-2.7 1.8-2.8 3c0 0 5.4 0 5.4 0zm15.3 9l-.3-1.5c0 0-.06.03-.1 0c-.9 1.2-2.4 1.8-4.2 1.8c-2.9 0-4.7-2.1-4.7-4.5c0-3.8 3.4-5.6 8.6-5.6c0 0 0-.2 0-.2c0-.8-.4-1.9-2.7-1.9c-1.5 0-3.1.5-4 1.1c0 0-.9-2.9-.9-2.9c1.1-.6 3.1-1.3 5.7-1.3c4.9 0 6.5 2.9 6.5 6.3c0 0 0 5.1 0 5.1c0 1.4.1 2.8.2 3.6c.01 0-4.1 0-4.1 0zm-.5-6.9c-2.4-.1-4.3.5-4.3 2.3c0 1.2.8 1.7 1.8 1.7c1.1 0 2.1-.7 2.4-1.7c0-.2.1-.5.1-.7c0 0 0-1.6 0-1.6zm8-14.4l4.6 0l0 21.3l-4.6 0l0-21.3zm15.2 11.9l0 3l-7.9 0l0-3l7.9 0zm7.8-9.5l0 4.2l3.3 0l0 3.4l-3.3 0c0 0 .01 5.3 0 5.3c0 1.8.4 2.6 1.8 2.6c.6 0 1-.1 1.4-.1c0 0 0 3.4 0 3.4c-.6.2-1.7.4-3 .4c-1.5 0-2.7-.5-3.4-1.3c-.8-.8-1.3-2.2-1.3-4.3c.04-.01 0-6 0-6l-1.9 0l0-3.4l1.9 0l0-3.2l4.5-1zm5.9 18.9l0-14.7l4.6 0l0 14.7l-4.6 0zm4.7-18.7c0 1.2-.9 2.2-2.4 2.2c-1.5 0-2.4-1-2.4-2.2c0-1.4.9-2.4 2.4-2.4c1.5 0 2.4 1 2.4 2.4zm3.5 8.7c0-1.8 0-3.4-.1-4.7c.02.03 3.9 0 3.9 0l.2 2c0 0 .06.01.1 0c.6-.9 1.9-2.3 4.4-2.3c1.9 0 3.4 1 4 2.5c0 0 .1 0 .1 0c.5-.8 1.2-1.4 1.9-1.8c.8-.5 1.7-.7 2.8-.7c2.8 0 4.9 2 4.9 6.4c.01-.04 0 8.6 0 8.6l-4.4 0c0 0-.03-7.98 0-8c0-2.1-.7-3.3-2.2-3.3c-1 0-1.8.7-2.1 1.6c-.1.3-.2.8-.2 1.1c.03.02 0 8.6 0 8.6l-4.4 0c0 0-.01-8.22 0-8.2c0-1.9-.7-3.1-2.1-3.1c-1.2 0-1.9.9-2.1 1.6c-.2.4-.2.8-.2 1.1c-.02.05 0 8.6 0 8.6l-4.5 0c0 0 .04-9.99 0-10zm29.3 4.1c.2 1.9 2.1 2.8 4.2 2.8c1.5 0 2.8-.2 4-.6c0 0 .6 3.1.6 3.1c-1.5.6-3.3.9-5.3.9c-5 0-7.8-2.9-7.8-7.5c0-3.7 2.3-7.8 7.4-7.8c4.7 0 6.5 3.7 6.5 7.3c0 .8 0 1.5-.1 1.8c0 0-9.5 0-9.5 0zm5.4-3.1c0-1.1-.5-3-2.6-3c-1.9 0-2.7 1.8-2.8 3c0 0 5.4 0 5.4 0zm27.3-12.3c0 0-.04 16.92 0 16.9c0 1.7 0 3.4.1 4.4c-.02 0-4.1 0-4.1 0l-.2-2.2c0 0-.04.04 0 0c-1 1.7-2.7 2.5-4.6 2.5c-3.5 0-6.3-2.9-6.3-7.5c0-4.9 3.1-7.8 6.6-7.8c1.8 0 3.2.6 3.8 1.7c.04-.05.1 0 .1 0l0-8l4.6 0zm-4.6 12.8c0-.2 0-.5-.1-.8c-.2-1.2-1.2-2.2-2.6-2.2c-2.1 0-3.2 1.8-3.2 4.2c0 2.4 1.2 4 3.1 4c1.4 0 2.4-.9 2.7-2.2c.1-.3.1-.7.1-1c0 0 0-2 0-2zm16.6 8.5l-.3-1.5c0 0-.1.03-.1 0c-1 1.2-2.5 1.8-4.2 1.8c-3 0-4.7-2.1-4.7-4.5c0-3.8 3.4-5.6 8.6-5.6c0 0 0-.2 0-.2c0-.8-.5-1.9-2.7-1.9c-1.5 0-3.1.5-4.1 1.1c0 0-.8-2.9-.8-2.9c1-.6 3-1.3 5.7-1.3c4.9 0 6.5 2.9 6.5 6.3c0 0 0 5.1 0 5.1c0 1.4 0 2.8.2 3.6c-.03 0-4.1 0-4.1 0zm-.6-6.9c-2.4-.1-4.2.5-4.2 2.3c0 1.2.7 1.7 1.8 1.7c1.1 0 2-.7 2.3-1.7c.1-.2.1-.5.1-.7c0 0 0-1.6 0-1.6zm12.9-12l0 4.2l3.3 0l0 3.4l-3.3 0c0 0 .02 5.3 0 5.3c0 1.8.4 2.6 1.8 2.6c.6 0 1-.1 1.4-.1c0 0 0 3.4 0 3.4c-.6.2-1.7.4-3 .4c-1.4 0-2.7-.5-3.4-1.3c-.8-.8-1.3-2.2-1.3-4.3c.05-.01 0-6 0-6l-1.9 0l0-3.4l1.9 0l0-3.2l4.5-1zm14.3 18.9l-.3-1.5c0 0-.09.03-.1 0c-1 1.2-2.5 1.8-4.2 1.8c-3 0-4.7-2.1-4.7-4.5c0-3.8 3.4-5.6 8.6-5.6c0 0 0-.2 0-.2c0-.8-.4-1.9-2.7-1.9c-1.5 0-3.1.5-4 1.1c0 0-.9-2.9-.9-2.9c1-.6 3-1.3 5.7-1.3c4.9 0 6.5 2.9 6.5 6.3c0 0 0 5.1 0 5.1c0 1.4 0 2.8.2 3.6c-.02 0-4.1 0-4.1 0zm-.6-6.9c-2.4-.1-4.2.5-4.2 2.3c0 1.2.7 1.7 1.8 1.7c1.1 0 2-.7 2.3-1.7c.1-.2.1-.5.1-.7c0 0 0-1.6 0-1.6zm14.1 2.9c.8.5 2.6 1.1 3.9 1.1c1.4 0 2-.5 2-1.2c0-.8-.5-1.1-2.2-1.7c-3-1-4.2-2.7-4.2-4.4c0-2.7 2.4-4.8 6-4.8c1.7 0 3.3.4 4.2.8c0 0-.9 3.2-.9 3.2c-.6-.4-1.9-.8-3.1-.8c-1.1 0-1.8.4-1.8 1.2c0 .6.6 1 2.4 1.6c2.8 1 4 2.4 4 4.6c0 2.7-2.2 4.7-6.4 4.7c-1.9 0-3.6-.4-4.7-1c0 0 .8-3.3.8-3.3zm16.5-10.7c0 0 2.16 7.23 2.2 7.2c.2.9.5 2 .7 2.8c0 0 .1 0 .1 0c.2-.8.4-1.9.6-2.8c.03.03 1.8-7.2 1.8-7.2l4.9 0c0 0-3.4 9.69-3.4 9.7c-2.1 5.8-3.5 8.1-5.2 9.6c-1.6 1.4-3.2 1.9-4.4 2c0 0-.9-3.8-.9-3.8c.5-.1 1.3-.4 1.9-.8c.7-.4 1.5-1.1 1.9-1.9c.2-.2.3-.4.3-.6c0-.2-.1-.4-.2-.8c-.03.04-5.4-13.4-5.4-13.4l5.1 0zm12.2 4.7c0-1.8 0-3.4-.1-4.7c.02.03 4 0 4 0l.2 2c0 0 .08.04.1 0c.6-.9 2.1-2.3 4.5-2.3c3 0 5.3 2 5.3 6.3c-.04 0 0 8.7 0 8.7l-4.6 0c0 0 0-8.13 0-8.1c0-1.9-.7-3.2-2.3-3.2c-1.3 0-2 .9-2.3 1.7c-.1.3-.2.7-.2 1.1c0 .04 0 8.5 0 8.5l-4.6 0c0 0 .04-9.99 0-10zm28.6 9.6c-.8.4-2.3.7-4.1.7c-4.7 0-7.7-2.9-7.7-7.5c0-4.3 2.9-7.8 8.4-7.8c1.2 0 2.5.2 3.5.6c0 0-.8 3.4-.8 3.4c-.5-.3-1.3-.5-2.5-.5c-2.4 0-4 1.7-3.9 4.1c0 2.7 1.8 4.1 4 4.1c1.1 0 1.9-.1 2.6-.4c0 0 .5 3.3.5 3.3zm8.6-9.6c0-1.8-.1-3.4-.1-4.7c-.01.03 3.8 0 3.8 0l.2 2c0 0 .13.01.1 0c.7-.9 1.9-2.3 4.5-2.3c1.9 0 3.4 1 4 2.5c0 0 0 0 0 0c.6-.8 1.2-1.4 1.9-1.8c.8-.5 1.7-.7 2.8-.7c2.8 0 5 2 5 6.4c-.02-.04 0 8.6 0 8.6l-4.5 0c0 0 .04-7.98 0-8c0-2.1-.7-3.3-2.1-3.3c-1.1 0-1.8.7-2.1 1.6c-.1.3-.2.8-.2 1.1c0 .02 0 8.6 0 8.6l-4.4 0c0 0-.04-8.22 0-8.2c0-1.9-.7-3.1-2.1-3.1c-1.2 0-1.9.9-2.2 1.6c-.1.4-.2.8-.2 1.1c.05.05 0 8.6 0 8.6l-4.4 0c0 0 .01-9.99 0-10zm34.1 10l-.2-1.5c0 0-.11.03-.1 0c-1 1.2-2.5 1.8-4.2 1.8c-3 0-4.8-2.1-4.8-4.5c0-3.8 3.5-5.6 8.7-5.6c0 0 0-.2 0-.2c0-.8-.5-1.9-2.7-1.9c-1.5 0-3.1.5-4.1 1.1c0 0-.8-2.9-.8-2.9c1-.6 3-1.3 5.7-1.3c4.9 0 6.4 2.9 6.4 6.3c0 0 0 5.1 0 5.1c0 1.4.1 2.8.3 3.6c-.04 0-4.2 0-4.2 0zm-.5-6.9c-2.4-.1-4.3.5-4.3 2.3c0 1.2.8 1.7 1.8 1.7c1.2 0 2.1-.7 2.4-1.7c.1-.2.1-.5.1-.7c0 0 0-1.6 0-1.6zm8 6.9l0-14.7l4.6 0l0 14.7l-4.6 0zm4.8-18.7c0 1.2-1 2.2-2.5 2.2c-1.4 0-2.4-1-2.4-2.2c0-1.4 1-2.4 2.4-2.4c1.5 0 2.4 1 2.5 2.4zm3.5 8.7c0-1.8-.1-3.4-.2-4.7c.05.03 4 0 4 0l.2 2c0 0 .11.04.1 0c.6-.9 2.1-2.3 4.5-2.3c3 0 5.3 2 5.3 6.3c-.01 0 0 8.7 0 8.7l-4.6 0c0 0 .03-8.13 0-8.1c0-1.9-.6-3.2-2.3-3.2c-1.2 0-2 .9-2.3 1.7c-.1.3-.2.7-.2 1.1c.03.04 0 8.5 0 8.5l-4.5 0c0 0-.03-9.99 0-10zm22.5-8.9l0 4.2l3.2 0l0 3.4l-3.2 0c0 0-.03 5.3 0 5.3c0 1.8.4 2.6 1.8 2.6c.5 0 1-.1 1.3-.1c0 0 0 3.4 0 3.4c-.6.2-1.6.4-2.9.4c-1.5 0-2.7-.5-3.4-1.3c-.9-.8-1.3-2.2-1.3-4.3c0-.01 0-6 0-6l-2 0l0-3.4l2 0l0-3.2l4.5-1zm14.2 18.9l-.3-1.5c0 0-.04.03 0 0c-1 1.2-2.5 1.8-4.2 1.8c-3 0-4.8-2.1-4.8-4.5c0-3.8 3.4-5.6 8.6-5.6c0 0 0-.2 0-.2c0-.8-.4-1.9-2.6-1.9c-1.5 0-3.1.5-4.1 1.1c0 0-.8-2.9-.8-2.9c1-.6 3-1.3 5.7-1.3c4.9 0 6.4 2.9 6.4 6.3c0 0 0 5.1 0 5.1c0 1.4.1 2.8.2 3.6c.03 0-4.1 0-4.1 0zm-.5-6.9c-2.4-.1-4.3.5-4.3 2.3c0 1.2.8 1.7 1.8 1.7c1.2 0 2.1-.7 2.4-1.7c0-.2.1-.5.1-.7c0 0 0-1.6 0-1.6zm8 6.9l0-14.7l4.6 0l0 14.7l-4.6 0zm4.7-18.7c0 1.2-.9 2.2-2.4 2.2c-1.5 0-2.4-1-2.4-2.2c0-1.4.9-2.4 2.4-2.4c1.5 0 2.4 1 2.4 2.4zm3.5 8.7c0-1.8 0-3.4-.1-4.7c.01.03 4 0 4 0l.2 2c0 0 .07.04.1 0c.6-.9 2.1-2.3 4.5-2.3c3 0 5.3 2 5.3 6.3c-.05 0 0 8.7 0 8.7l-4.6 0c0 0-.01-8.13 0-8.1c0-1.9-.7-3.2-2.3-3.2c-1.3 0-2 .9-2.3 1.7c-.1.3-.2.7-.2 1.1c-.01.04 0 8.5 0 8.5l-4.6 0c0 0 .03-9.99 0-10zm17.6 10l0-14.7l4.6 0l0 14.7l-4.6 0zm4.7-18.7c0 1.2-.9 2.2-2.4 2.2c-1.5 0-2.4-1-2.4-2.2c0-1.4.9-2.4 2.4-2.4c1.5 0 2.4 1 2.4 2.4zm3.5 8.7c0-1.8 0-3.4-.1-4.7c.01.03 4 0 4 0l.2 2c0 0 .07.04.1 0c.6-.9 2.1-2.3 4.5-2.3c3 0 5.3 2 5.3 6.3c-.05 0 0 8.7 0 8.7l-4.6 0c0 0-.01-8.13 0-8.1c0-1.9-.7-3.2-2.3-3.2c-1.3 0-2 .9-2.3 1.7c-.1.3-.2.7-.2 1.1c-.01.04 0 8.5 0 8.5l-4.6 0c0 0 .03-9.99 0-10zm31.6-4.7c0 1-.1 2.2-.1 4.4c0 0 0 8.2 0 8.2c0 2.8-.6 5.1-2.2 6.6c-1.6 1.3-3.8 1.8-6 1.8c-1.9 0-3.9-.4-5.3-1.2c0 0 .9-3.4.9-3.4c1 .5 2.6 1.1 4.3 1.1c2.2 0 3.8-1.2 3.8-3.9c0 .02 0-.9 0-.9c0 0-.06-.04-.1 0c-.8 1.2-2.2 1.9-3.9 1.9c-3.6 0-6.2-3-6.2-7.2c0-4.7 3-7.7 6.6-7.7c2 0 3.3.9 4.1 2.1c-.05-.03 0 0 0 0l.2-1.8c0 0 3.92.03 3.9 0zm-4.7 6c0-.3 0-.6 0-.8c-.4-1.2-1.2-2.1-2.5-2.1c-1.7 0-3 1.5-3 4.2c0 2.2 1.1 3.9 3 3.9c1.2 0 2.1-.8 2.4-1.8c.1-.4.1-.9.1-1.2c0 0 0-2.2 0-2.2z" stroke="none" fill="#3c3c3b"/></g></svg>