<?xml version="1.0" standalone="no"?><!DOCTYPE svg PUBLIC "-//W3C//DTD SVG 1.1//EN" "http://www.w3.org/Graphics/SVG/1.1/DTD/svg11.dtd"><svg xmlns="http://www.w3.org/2000/svg" version="1.1" width="585px" height="205.5px" viewBox="0 -12 585 205.5" style="top:-12px"><desc>Consult with your Cygnet TaxTech Architect to unlock business value</desc><defs/><g id="Polygon9545"><path d="m39.1 136.2l0 6.9l5.8 0l0 4.7l-5.8 0c0 0-.02 10.7 0 10.7c0 2.9.8 4.5 3.1 4.5c1.1 0 1.9-.2 2.4-.3c0 0 .1 4.7.1 4.7c-.9.4-2.5.6-4.4.6c-2.3 0-4.2-.7-5.3-2c-1.3-1.4-1.9-3.6-1.9-6.8c-.02 0 0-11.4 0-11.4l-3.5 0l0-4.7l3.5 0l0-5.5l6-1.4zm33.3 18.9c0 8.9-6.3 13-12.5 13c-6.9 0-12.2-4.8-12.2-12.6c0-8 5.3-12.9 12.6-12.9c7.3 0 12.1 5.1 12.1 12.5zm-18.3.2c0 4.7 2.3 8.3 6 8.3c3.5 0 6-3.4 6-8.3c0-3.9-1.7-8.2-5.9-8.2c-4.4 0-6.1 4.2-6.1 8.2zm55.5 4.9c0 2.9.1 5.3.2 7.3c.03 0-5.4 0-5.4 0l-.3-3.7c0 0-.07 0-.1 0c-1 1.7-3.4 4.3-7.8 4.3c-4.4 0-8.5-2.7-8.5-10.7c.03.05 0-14.3 0-14.3l6.2 0c0 0-.02 13.3 0 13.3c0 4 1.3 6.6 4.5 6.6c2.5 0 4.1-1.7 4.7-3.2c.2-.6.4-1.2.4-2c-.02.05 0-14.7 0-14.7l6.1 0c0 0 .03 17.1 0 17.1zm6.7-9.8c0-2.8-.1-5.1-.2-7.3c-.02.05 5.4 0 5.4 0l.3 3.7c0 0 .13 0 .1 0c1.1-1.9 3.7-4.2 7.8-4.2c4.2 0 8.6 2.8 8.6 10.5c.03-.05 0 14.4 0 14.4l-6.1 0c0 0-.02-13.75 0-13.7c0-3.5-1.3-6.2-4.7-6.2c-2.4 0-4.1 1.8-4.8 3.6c-.2.6-.2 1.3-.2 2c-.02 0 0 14.3 0 14.3l-6.2 0c0 0-.02-17.1 0-17.1zm28.6-18.4l6.2 0l0 35.5l-6.2 0l0-35.5zm36 23.1c0 8.9-6.3 13-12.5 13c-6.9 0-12.2-4.8-12.2-12.6c0-8 5.2-12.9 12.6-12.9c7.2 0 12.1 5.1 12.1 12.5zm-18.4.2c0 4.7 2.3 8.3 6.1 8.3c3.5 0 5.9-3.4 5.9-8.3c0-3.9-1.7-8.2-5.9-8.2c-4.3 0-6.1 4.2-6.1 8.2zm41.3 11.5c-1.3.5-3.8 1.2-6.9 1.2c-7.6 0-12.5-4.8-12.5-12.4c0-7.3 5-13 13.5-13c2.3 0 4.6.5 6 1.2c0 0-1.1 4.6-1.1 4.6c-1-.5-2.5-1-4.7-1c-4.7 0-7.5 3.5-7.4 7.9c0 5 3.2 7.9 7.4 7.9c2.2 0 3.7-.5 4.9-1c0 0 .8 4.6.8 4.6zm10.7-13c0 0 .13.05.1 0c.6-.9 1.3-2 2-2.8c-.02 0 5.9-7.9 5.9-7.9l7.4 0l-9 10l10.3 14.4l-7.6 0l-7-10.7l-2.1 2.4l0 8.3l-6.1 0l0-35.5l6.1 0l0 21.8zm29.5 13.7c.1-1.6.2-4.3.2-6.8c-.02-.05 0-28.7 0-28.7l6.1 0l0 14.5c0 0 .13 0 .1 0c1.5-2.4 4.2-3.9 7.8-3.9c6 0 10.2 4.9 10.2 12.3c0 8.8-5.6 13.2-11.1 13.2c-3.1 0-5.9-1.3-7.7-4.3c.03.05-.1 0-.1 0l-.3 3.7c0 0-5.22 0-5.2 0zm6.3-10.1c0 .5.1 1 .2 1.5c.6 2.4 2.8 4.3 5.4 4.3c3.9 0 6.2-3.1 6.2-8c0-4.3-2-7.8-6.1-7.8c-2.5 0-4.8 1.8-5.5 4.5c-.1.4-.2 1-.2 1.6c0 0 0 3.9 0 3.9zm44.9 2.8c0 2.9.1 5.3.2 7.3c.03 0-5.4 0-5.4 0l-.3-3.7c0 0-.07 0-.1 0c-1 1.7-3.4 4.3-7.8 4.3c-4.4 0-8.5-2.7-8.5-10.7c.03.05 0-14.3 0-14.3l6.2 0c0 0-.02 13.3 0 13.3c0 4 1.3 6.6 4.5 6.6c2.5 0 4.1-1.7 4.7-3.2c.2-.6.4-1.2.4-2c-.02.05 0-14.7 0-14.7l6.1 0c0 0 .03 17.1 0 17.1zm6.4 1.6c1.4.9 4 1.8 6.2 1.8c2.7 0 3.9-1.1 3.9-2.7c0-1.6-1-2.5-4-3.6c-4.7-1.6-6.7-4.2-6.7-7c0-4.4 3.6-7.7 9.2-7.7c2.7 0 5.1.7 6.5 1.4c0 0-1.2 4.4-1.2 4.4c-1.1-.6-3-1.4-5.2-1.4c-2.2 0-3.4 1-3.4 2.5c0 1.6 1.2 2.3 4.3 3.4c4.4 1.7 6.4 3.9 6.5 7.5c0 4.4-3.5 7.6-9.9 7.6c-3 0-5.6-.7-7.4-1.7c0 0 1.2-4.5 1.2-4.5zm21.1 5.7l0-24.4l6.2 0l0 24.4l-6.2 0zm6.6-31.1c0 1.8-1.4 3.2-3.5 3.2c-2.1 0-3.4-1.4-3.4-3.2c0-1.9 1.4-3.4 3.4-3.4c2.1 0 3.4 1.5 3.5 3.4zm6.2 14c0-2.8 0-5.1-.2-7.3c.02.05 5.4 0 5.4 0l.3 3.7c0 0 .17 0 .2 0c1-1.9 3.7-4.2 7.7-4.2c4.3 0 8.7 2.8 8.7 10.5c-.03-.05 0 14.4 0 14.4l-6.2 0c0 0 .02-13.75 0-13.7c0-3.5-1.3-6.2-4.6-6.2c-2.5 0-4.2 1.8-4.8 3.6c-.2.6-.3 1.3-.3 2c.02 0 0 14.3 0 14.3l-6.2 0c0 0 .02-17.1 0-17.1zm33 6.7c.1 4.3 3.6 6.2 7.5 6.2c2.8 0 4.9-.4 6.7-1c0 0 .9 4.2.9 4.2c-2.1.8-5 1.5-8.5 1.5c-7.9 0-12.5-4.8-12.5-12.3c0-6.8 4.1-13.1 11.9-13.1c7.9 0 10.5 6.5 10.5 11.8c0 1.2-.1 2.1-.2 2.7c0 0-16.3 0-16.3 0zm10.7-4.3c0-2.3-1-6-5.1-6c-3.8 0-5.4 3.5-5.6 6c0 0 10.7 0 10.7 0zm10.4 9c1.4.9 4.1 1.8 6.3 1.8c2.7 0 3.9-1.1 3.9-2.7c0-1.6-1-2.5-4-3.6c-4.8-1.6-6.8-4.2-6.7-7c0-4.4 3.5-7.7 9.2-7.7c2.7 0 5 .7 6.4 1.4c0 0-1.2 4.4-1.2 4.4c-1-.6-3-1.4-5.1-1.4c-2.2 0-3.4 1-3.4 2.5c0 1.6 1.1 2.3 4.2 3.4c4.4 1.7 6.5 3.9 6.5 7.5c0 4.4-3.4 7.6-9.9 7.6c-2.9 0-5.6-.7-7.4-1.7c0 0 1.2-4.5 1.2-4.5zm20.9 0c1.4.9 4 1.8 6.2 1.8c2.7 0 3.9-1.1 3.9-2.7c0-1.6-1-2.5-4-3.6c-4.7-1.6-6.7-4.2-6.7-7c0-4.4 3.6-7.7 9.2-7.7c2.7 0 5.1.7 6.5 1.4c0 0-1.2 4.4-1.2 4.4c-1.1-.6-3-1.4-5.2-1.4c-2.2 0-3.4 1-3.4 2.5c0 1.6 1.2 2.3 4.3 3.4c4.4 1.7 6.4 3.9 6.5 7.5c0 4.4-3.5 7.6-9.9 7.6c-3 0-5.6-.7-7.4-1.7c0 0 1.2-4.5 1.2-4.5zm35.4-18.7c0 0 3.92 12.4 3.9 12.4c.7 2.1 1.2 4.1 1.7 6.1c0 0 .1 0 .1 0c.5-2 1-3.9 1.7-6.1c-.03 0 3.8-12.4 3.8-12.4l6.5 0l-9.3 24.4l-6 0l-9.1-24.4l6.7 0zm34.9 24.4l-.4-2.7c0 0-.18 0-.2 0c-1.5 1.9-4 3.3-7.2 3.3c-4.9 0-7.6-3.6-7.6-7.3c0-6.2 5.4-9.2 14.4-9.2c0 0 0-.4 0-.4c0-1.6-.6-4.3-4.9-4.3c-2.4 0-4.9.8-6.6 1.9c0 0-1.2-4-1.2-4c1.8-1.2 5-2.2 8.8-2.2c7.8 0 10.1 4.9 10.1 10.2c0 0 0 8.9 0 8.9c0 2.1.1 4.3.3 5.8c.02 0-5.5 0-5.5 0zm-.8-11.9c-4.4-.1-8.5.8-8.5 4.6c0 2.3 1.5 3.4 3.5 3.4c2.4 0 4.2-1.6 4.8-3.3c.1-.5.2-1 .2-1.4c0 0 0-3.3 0-3.3zm12.5-23.6l6.2 0l0 35.5l-6.2 0l0-35.5zm34.6 28.2c0 2.9.1 5.3.2 7.3c.02 0-5.4 0-5.4 0l-.3-3.7c0 0-.08 0-.1 0c-1 1.7-3.4 4.3-7.8 4.3c-4.4 0-8.5-2.7-8.5-10.7c.02.05 0-14.3 0-14.3l6.2 0c0 0-.03 13.3 0 13.3c0 4 1.3 6.6 4.5 6.6c2.5 0 4.1-1.7 4.7-3.2c.2-.6.4-1.2.4-2c-.03.05 0-14.7 0-14.7l6.1 0c0 0 .02 17.1 0 17.1zm11-3.1c.2 4.3 3.6 6.2 7.5 6.2c2.9 0 4.9-.4 6.8-1c0 0 .9 4.2.9 4.2c-2.1.8-5 1.5-8.5 1.5c-7.9 0-12.6-4.8-12.6-12.3c0-6.8 4.1-13.1 11.9-13.1c7.9 0 10.5 6.5 10.5 11.8c0 1.2-.1 2.1-.2 2.7c0 0-16.3 0-16.3 0zm10.7-4.3c.1-2.3-.9-6-5-6c-3.8 0-5.4 3.5-5.7 6c0 0 10.7 0 10.7 0z" stroke="none" fill="#fff"/></g><g id="Polygon9544"><path d="m43.3 101.6c-1.4.7-4.6 1.4-8.7 1.4c-11.6 0-17.6-7.2-17.6-16.9c0-11.5 8.2-17.8 18.4-17.8c3.9 0 6.9.7 8.3 1.5c0 0-1.6 6-1.6 6c-1.5-.7-3.7-1.3-6.4-1.3c-6 0-10.7 3.7-10.7 11.2c0 6.7 4 11 10.8 11c2.3 0 4.8-.5 6.3-1.1c0 0 1.2 6 1.2 6zm8.8-23.6c0 0 3.63 12.05 3.6 12.1c.4 1.4.9 3.2 1.2 4.5c0 0 .2 0 .2 0c.3-1.3.7-3.2 1.1-4.5c-.02-.05 3-12.1 3-12.1l8.1 0c0 0-5.67 16.15-5.7 16.1c-3.5 9.8-5.8 13.7-8.6 16.1c-2.6 2.3-5.4 3.1-7.3 3.4c0 0-1.6-6.5-1.6-6.5c.9-.1 2.1-.6 3.3-1.3c1.1-.6 2.4-1.8 3.1-3c.3-.4.4-.8.4-1.2c0-.2 0-.6-.3-1.2c-.02 0-9-22.4-9-22.4l8.5 0zm43.1 0c-.1 1.6-.2 3.6-.2 7.3c0 0 0 13.7 0 13.7c0 4.6-1 8.5-3.7 11c-2.7 2.3-6.4 2.9-10 2.9c-3.2 0-6.6-.6-8.8-1.8c0 0 1.5-5.8 1.5-5.8c1.6.9 4.3 1.9 7.1 1.9c3.6 0 6.4-2 6.4-6.5c-.02 0 0-1.6 0-1.6c0 0-.12 0-.1 0c-1.5 2-3.8 3.2-6.6 3.2c-6.1 0-10.4-4.9-10.4-12c0-7.8 5.1-12.8 11.1-12.8c3.4 0 5.5 1.4 6.7 3.4c.03.05.1 0 .1 0l.3-2.9c0 0 6.58.05 6.6 0zm-7.8 10c0-.5-.1-1-.2-1.4c-.5-2-2-3.3-4.1-3.3c-2.7 0-5 2.5-5 6.9c0 3.6 1.8 6.5 5 6.5c2 0 3.5-1.3 4-3.1c.2-.5.3-1.3.3-2c0 0 0-3.6 0-3.6zm13.7-2.1c0-3.1-.1-5.7-.2-7.9c-.02.05 6.6 0 6.6 0l.3 3.4c0 0 .18 0 .2 0c1-1.5 3.5-3.9 7.5-3.9c5 0 8.8 3.3 8.8 10.5c-.02 0 0 14.5 0 14.5l-7.6 0c0 0-.02-13.55 0-13.6c0-3.1-1.1-5.3-3.9-5.3c-2.1 0-3.3 1.5-3.8 2.9c-.2.4-.3 1.2-.3 1.9c-.02 0 0 14.1 0 14.1l-7.6 0c0 0-.02-16.65 0-16.6zm35.1 6.8c.3 3.1 3.4 4.6 6.9 4.6c2.6 0 4.7-.3 6.8-1c0 0 1 5.2 1 5.2c-2.5 1-5.6 1.5-8.9 1.5c-8.3 0-13-4.8-13-12.4c0-6.2 3.8-13.1 12.3-13.1c7.9 0 10.9 6.1 10.9 12.2c0 1.3-.1 2.4-.2 3c0 0-15.8 0-15.8 0zm9-5.2c0-1.9-.8-5-4.3-5c-3.2 0-4.5 2.9-4.7 5c0 0 9 0 9 0zm20.1-16.5l0 7l5.4 0l0 5.6l-5.4 0c0 0-.02 8.9 0 8.9c0 2.9.7 4.3 3 4.3c.9 0 1.7-.1 2.2-.2c0 0 .1 5.7.1 5.7c-1 .5-2.8.7-5 .7c-2.4 0-4.5-.8-5.7-2.1c-1.4-1.4-2.1-3.8-2.1-7.3c.03.05 0-10 0-10l-3.2 0l0-5.6l3.2 0l0-5.2l7.5-1.8zm24.7 4.2l-9 0l0-6.4l25.9 0l0 6.4l-9.2 0l0 27.3l-7.7 0l0-27.3zm31.3 27.3l-.5-2.5c0 0-.12.05-.1 0c-1.6 2-4.1 3.1-7 3.1c-5 0-7.9-3.6-7.9-7.6c0-6.3 5.7-9.4 14.3-9.3c0 0 0-.3 0-.3c0-1.4-.7-3.2-4.4-3.2c-2.5 0-5.2.8-6.8 1.8c0 0-1.4-4.9-1.4-4.9c1.7-.9 5.1-2.1 9.5-2.1c8.2 0 10.8 4.8 10.8 10.6c0 0 0 8.4 0 8.4c0 2.4.1 4.6.3 6c.03 0-6.8 0-6.8 0zm-.9-11.6c-4 0-7.1.9-7.1 3.9c0 2 1.3 2.9 3 2.9c1.9 0 3.4-1.3 3.9-2.8c.1-.4.2-.8.2-1.3c0 0 0-2.7 0-2.7zm19.2-12.9c0 0 2.38 4.1 2.4 4.1c.7 1.3 1.3 2.5 2 3.7c0 0 .1 0 .1 0c.6-1.4 1.2-2.6 1.9-3.8c-.02 0 2.1-4 2.1-4l8.3 0l-8.1 11.7l8.2 12.8l-8.6 0c0 0-2.47-4.4-2.5-4.4c-.7-1.2-1.3-2.4-1.9-3.7c0 0-.1 0-.1 0c-.6 1.3-1.3 2.5-1.9 3.7c.03 0-2.3 4.4-2.3 4.4l-8.3 0l8.3-12.4l-8.1-12.1l8.5 0zm25.4-2.8l-9 0l0-6.4l25.9 0l0 6.4l-9.2 0l0 27.3l-7.7 0l0-27.3zm22.5 17.5c.2 3.1 3.3 4.6 6.9 4.6c2.6 0 4.7-.3 6.7-1c0 0 1 5.2 1 5.2c-2.5 1-5.5 1.5-8.8 1.5c-8.3 0-13.1-4.8-13.1-12.4c0-6.2 3.9-13.1 12.4-13.1c7.9 0 10.9 6.1 10.9 12.2c0 1.3-.2 2.4-.3 3c0 0-15.7 0-15.7 0zm8.9-5.2c0-1.9-.8-5-4.3-5c-3.2 0-4.5 2.9-4.7 5c0 0 9 0 9 0zm30 14.4c-1.4.6-3.9 1.1-6.8 1.1c-7.9 0-13-4.8-13-12.5c0-7.1 4.9-13 14-13c2 0 4.2.4 5.8.9c0 0-1.2 5.7-1.2 5.7c-.9-.4-2.2-.7-4.2-.7c-4 0-6.6 2.8-6.6 6.8c0 4.5 3 6.8 6.7 6.8c1.8 0 3.2-.2 4.4-.7c0 0 .9 5.6.9 5.6zm4.2-34.9l7.6 0l0 13.9c0 0 .08.05.1 0c.8-1 1.8-1.8 3-2.5c1.1-.5 2.5-.9 3.9-.9c4.9 0 8.6 3.4 8.6 10.7c-.02 0 0 14.3 0 14.3l-7.6 0c0 0-.02-13.45 0-13.4c0-3.2-1.1-5.5-4-5.5c-2 0-3.2 1.3-3.8 2.7c-.2.5-.2 1.1-.2 1.7c-.02 0 0 14.5 0 14.5l-7.6 0l0-35.5zm47.5 26.8l-2.4 8.7l-7.9 0l10.3-33.7l10 0l10.4 33.7l-8.2 0l-2.6-8.7l-9.6 0zm8.5-5.7c0 0-2.07-7.1-2.1-7.1c-.6-2-1.2-4.5-1.7-6.5c0 0-.1 0-.1 0c-.5 2-1 4.5-1.5 6.5c-.02 0-2 7.1-2 7.1l7.4 0zm15.9-2c0-3.6-.1-6-.2-8.1c-.02.05 6.5 0 6.5 0l.3 4.5c0 0 .18.05.2 0c1.2-3.5 4.2-5 6.6-5c.7 0 1 0 1.6.1c0 0 0 7.2 0 7.2c-.6-.2-1.2-.3-2.1-.3c-2.8 0-4.7 1.5-5.2 3.9c-.1.5-.1 1.1-.1 1.7c-.02 0 0 12.4 0 12.4l-7.6 0c0 0-.02-16.4 0-16.4zm36.9 15.8c-1.3.6-3.9 1.1-6.8 1.1c-7.9 0-12.9-4.8-12.9-12.5c0-7.1 4.9-13 14-13c2 0 4.2.4 5.8.9c0 0-1.2 5.7-1.2 5.7c-.9-.4-2.3-.7-4.3-.7c-4 0-6.6 2.8-6.5 6.8c0 4.5 3 6.8 6.7 6.8c1.8 0 3.2-.2 4.3-.7c0 0 .9 5.6.9 5.6zm4.2-34.9l7.6 0l0 13.9c0 0 .12.05.1 0c.8-1 1.8-1.8 3-2.5c1.1-.5 2.6-.9 4-.9c4.8 0 8.5 3.4 8.5 10.7c.02 0 0 14.3 0 14.3l-7.6 0c0 0 .02-13.45 0-13.4c0-3.2-1.1-5.5-3.9-5.5c-2 0-3.3 1.3-3.8 2.7c-.2.5-.3 1.1-.3 1.7c.02 0 0 14.5 0 14.5l-7.6 0l0-35.5zm29.3 35.5l0-24.5l7.6 0l0 24.5l-7.6 0zm7.9-31.2c0 2.1-1.6 3.7-4.1 3.7c-2.4 0-4-1.6-4-3.7c0-2.3 1.6-3.9 4-3.9c2.5 0 4 1.6 4.1 3.9zm14.3-.3l0 7l5.5 0l0 5.6l-5.5 0c0 0 .02 8.9 0 8.9c0 2.9.7 4.3 3 4.3c1 0 1.7-.1 2.3-.2c0 0 0 5.7 0 5.7c-1 .5-2.8.7-4.9.7c-2.5 0-4.5-.8-5.7-2.1c-1.4-1.4-2.1-3.8-2.1-7.3c-.03.05 0-10 0-10l-3.3 0l0-5.6l3.3 0l0-5.2l7.4-1.8zm15.5 21.7c.2 3.1 3.3 4.6 6.9 4.6c2.6 0 4.7-.3 6.7-1c0 0 1 5.2 1 5.2c-2.5 1-5.5 1.5-8.8 1.5c-8.3 0-13.1-4.8-13.1-12.4c0-6.2 3.9-13.1 12.4-13.1c7.9 0 10.9 6.1 10.9 12.2c0 1.3-.2 2.4-.3 3c0 0-15.7 0-15.7 0zm8.9-5.2c0-1.9-.8-5-4.3-5c-3.2 0-4.5 2.9-4.7 5c0 0 9 0 9 0zm30 14.4c-1.4.6-3.9 1.1-6.8 1.1c-7.9 0-13-4.8-13-12.5c0-7.1 4.9-13 14-13c2 0 4.2.4 5.8.9c0 0-1.2 5.7-1.2 5.7c-.9-.4-2.2-.7-4.2-.7c-4 0-6.6 2.8-6.6 6.8c0 4.5 3 6.8 6.7 6.8c1.8 0 3.2-.2 4.4-.7c0 0 .9 5.6.9 5.6zm13.5-30.9l0 7l5.4 0l0 5.6l-5.4 0c0 0-.03 8.9 0 8.9c0 2.9.7 4.3 3 4.3c.9 0 1.7-.1 2.2-.2c0 0 .1 5.7.1 5.7c-1 .5-2.8.7-5 .7c-2.4 0-4.5-.8-5.7-2.1c-1.4-1.4-2.1-3.8-2.1-7.3c.02.05 0-10 0-10l-3.2 0l0-5.6l3.2 0l0-5.2l7.5-1.8z" stroke="none" fill="#fff"/></g><g id="Polygon9543"><path d="m129.7 36.5c-1.4.8-4.6 1.5-8.7 1.5c-10.7 0-17.2-6.7-17.2-17c0-11.1 7.7-17.7 18-17.7c4.1 0 7 .8 8.2 1.5c0 0-1.3 4.8-1.3 4.8c-1.6-.7-3.8-1.2-6.6-1.2c-6.9 0-11.8 4.2-11.8 12.4c0 7.3 4.3 12.1 11.7 12.1c2.5 0 5.1-.5 6.7-1.2c0 0 1 4.8 1 4.8zm27.4-11.4c0 8.9-6.3 13-12.5 13c-6.9 0-12.2-4.8-12.2-12.6c0-8 5.2-12.9 12.6-12.9c7.2 0 12.1 5.1 12.1 12.5zm-18.4.2c0 4.7 2.3 8.3 6.1 8.3c3.5 0 5.9-3.4 5.9-8.3c0-3.9-1.7-8.2-5.9-8.2c-4.3 0-6.1 4.2-6.1 8.2zm23.4-4.9c0-2.8 0-5.1-.2-7.3c0 .05 5.4 0 5.4 0l.3 3.7c0 0 .15 0 .2 0c1-1.9 3.7-4.2 7.7-4.2c4.3 0 8.7 2.8 8.7 10.5c-.05-.05 0 14.4 0 14.4l-6.2 0c0 0 0-13.75 0-13.7c0-3.5-1.3-6.2-4.6-6.2c-2.5 0-4.2 1.8-4.8 3.6c-.2.6-.3 1.3-.3 2c0 0 0 14.3 0 14.3l-6.2 0c0 0 0-17.1 0-17.1zm28.3 11.4c1.4.9 4.1 1.8 6.3 1.8c2.7 0 3.9-1.1 3.9-2.7c0-1.6-1-2.5-4-3.6c-4.8-1.6-6.8-4.2-6.7-7c0-4.4 3.5-7.7 9.2-7.7c2.7 0 5 .7 6.4 1.4c0 0-1.2 4.4-1.2 4.4c-1-.6-3-1.4-5.1-1.4c-2.2 0-3.4 1-3.4 2.5c0 1.6 1.1 2.3 4.2 3.4c4.4 1.7 6.5 3.9 6.5 7.5c0 4.4-3.4 7.6-9.9 7.6c-2.9 0-5.6-.7-7.4-1.7c0 0 1.2-4.5 1.2-4.5zm43-1.6c0 2.9.1 5.3.2 7.3c-.05 0-5.4 0-5.4 0l-.3-3.7c0 0-.15 0-.1 0c-1.1 1.7-3.5 4.3-7.8 4.3c-4.5 0-8.5-2.7-8.5-10.7c-.05.05 0-14.3 0-14.3l6.1 0c0 0 0 13.3 0 13.3c0 4 1.3 6.6 4.6 6.6c2.4 0 4-1.7 4.7-3.2c.2-.6.3-1.2.3-2c0 .05 0-14.7 0-14.7l6.2 0c0 0-.05 17.1 0 17.1zm6.6-28.2l6.2 0l0 35.5l-6.2 0l0-35.5zm19.9 4.2l0 6.9l5.9 0l0 4.7l-5.9 0c0 0 0 10.7 0 10.7c0 2.9.8 4.5 3.2 4.5c1 0 1.8-.2 2.4-.3c0 0 .1 4.7.1 4.7c-.9.4-2.5.6-4.5.6c-2.2 0-4.1-.7-5.3-2c-1.3-1.4-1.9-3.6-1.9-6.8c0 0 0-11.4 0-11.4l-3.5 0l0-4.7l3.5 0l0-5.5l6-1.4zm24.5 6.9c0 0 2.6 11.1 2.6 11.1c.5 2.6 1.1 5.2 1.5 7.9c0 0 .1 0 .1 0c.5-2.7 1.3-5.3 2-7.8c.05-.05 3.2-11.2 3.2-11.2l5 0c0 0 3.05 10.85 3 10.8c.8 2.9 1.4 5.5 2 8.2c0 0 .1 0 .1 0c.4-2.7.9-5.3 1.6-8.2c0 .05 2.7-10.8 2.7-10.8l6 0l-7.6 24.4l-5.7 0c0 0-2.9-9.9-2.9-9.9c-.8-2.5-1.3-4.8-1.9-7.8c0 0-.1 0-.1 0c-.5 3-1.1 5.4-1.8 7.8c0 0-3.1 9.9-3.1 9.9l-5.8 0l-7.2-24.4l6.3 0zm33.8 24.4l0-24.4l6.2 0l0 24.4l-6.2 0zm6.5-31.1c0 1.8-1.3 3.2-3.5 3.2c-2 0-3.4-1.4-3.4-3.2c0-1.9 1.4-3.4 3.5-3.4c2.1 0 3.4 1.5 3.4 3.4zm13.3-.2l0 6.9l5.9 0l0 4.7l-5.9 0c0 0 .05 10.7 0 10.7c0 2.9.8 4.5 3.2 4.5c1 0 1.8-.2 2.4-.3c0 0 .1 4.7.1 4.7c-.9.4-2.5.6-4.5.6c-2.2 0-4.1-.7-5.3-2c-1.3-1.4-1.9-3.6-1.9-6.8c.05 0 0-11.4 0-11.4l-3.5 0l0-4.7l3.5 0l0-5.5l6-1.4zm10.5-4.2l6.2 0l0 14.5c0 0 .15 0 .1 0c.8-1.1 1.8-2.1 3.1-2.8c1.2-.7 2.6-1.1 4.2-1.1c4.1 0 8.5 2.8 8.5 10.5c0 .05 0 14.4 0 14.4l-6.2 0c0 0 .05-13.65 0-13.7c0-3.5-1.3-6.2-4.7-6.2c-2.4 0-4.1 1.7-4.7 3.5c-.2.5-.3 1.2-.3 1.8c.05.05 0 14.6 0 14.6l-6.2 0l0-35.5zm42.8 11.1c0 0 4.45 13.1 4.4 13.1c.5 1.5 1 3.3 1.4 4.7c0 0 .1 0 .1 0c.4-1.4.9-3.1 1.3-4.8c.05.05 3.8-13 3.8-13l6.6 0c0 0-6.05 16.65-6.1 16.7c-3.3 9.1-5.6 13.1-8.5 15.6c-2.4 2.2-4.9 3-6.4 3.2c0 0-1.4-5.3-1.4-5.3c1-.2 2.3-.7 3.6-1.6c1.1-.8 2.5-2.2 3.3-3.9c.3-.5.4-.8.4-1.1c0-.3 0-.6-.3-1.2c0 0-8.9-22.4-8.9-22.4l6.7 0zm43.7 12c0 8.9-6.3 13-12.5 13c-6.9 0-12.2-4.8-12.2-12.6c0-8 5.2-12.9 12.6-12.9c7.2 0 12.1 5.1 12.1 12.5zm-18.4.2c0 4.7 2.3 8.3 6.1 8.3c3.5 0 5.9-3.4 5.9-8.3c0-3.9-1.7-8.2-5.9-8.2c-4.3 0-6.1 4.2-6.1 8.2zm45.2 4.9c0 2.9.1 5.3.2 7.3c.05 0-5.4 0-5.4 0l-.3-3.7c0 0-.05 0-.1 0c-1 1.7-3.4 4.3-7.8 4.3c-4.4 0-8.5-2.7-8.5-10.7c.05.05 0-14.3 0-14.3l6.2 0c0 0 0 13.3 0 13.3c0 4 1.3 6.6 4.5 6.6c2.5 0 4.1-1.7 4.7-3.2c.2-.6.4-1.2.4-2c0 .05 0-14.7 0-14.7l6.1 0c0 0 .05 17.1 0 17.1zm6.7-9.2c0-3.3-.1-5.6-.2-7.9c0 .05 5.3 0 5.3 0l.2 4.7c0 0 .25 0 .2 0c1.2-3.4 4.1-5.2 6.7-5.2c.6 0 .9 0 1.4.2c0 0 0 5.7 0 5.7c-.5-.1-1-.1-1.8-.1c-2.9 0-4.9 1.9-5.5 4.6c-.1.6-.2 1.2-.2 1.9c.05 0 0 12.6 0 12.6l-6.1 0c0 0 0-16.5 0-16.5z" stroke="none" fill="#fff"/></g></svg>