<?xml version="1.0" standalone="no"?><!DOCTYPE svg PUBLIC "-//W3C//DTD SVG 1.1//EN" "http://www.w3.org/Graphics/SVG/1.1/DTD/svg11.dtd"><svg xmlns="http://www.w3.org/2000/svg" version="1.1" width="560.1px" height="73px" viewBox="0 -7 560.1 73" style="top:-7px"><desc>Reduced blockage of funds that translates to savings in cost of finance and increases the bottom line.</desc><defs/><g id="Polygon9127"><path d="m1.5 53l0-11.7l3.6 0l0 11.7l-3.6 0zm3.7-15c0 1-.7 1.8-1.9 1.8c-1.2 0-2-.8-1.9-1.8c-.1-1.1.7-1.8 1.9-1.8c1.2 0 1.9.7 1.9 1.8zm2.8 7c0-1.5 0-2.7-.1-3.7c.04-.04 3.2 0 3.2 0l.2 1.6c0 0 .05-.03.1 0c.4-.8 1.6-1.9 3.6-1.9c2.4 0 4.2 1.6 4.2 5c-.02.04 0 7 0 7l-3.7 0c0 0 .03-6.5 0-6.5c0-1.5-.5-2.5-1.8-2.5c-1 0-1.6.6-1.9 1.3c-.1.2-.1.6-.1.9c-.01.03 0 6.8 0 6.8l-3.7 0c0 0 .04-7.99 0-8zm27.8 7.7c-.7.3-1.9.5-3.3.5c-3.8 0-6.2-2.3-6.2-6c0-3.4 2.3-6.2 6.7-6.2c1 0 2 .2 2.8.5c0 0-.6 2.7-.6 2.7c-.4-.2-1.1-.4-2-.4c-2 0-3.2 1.4-3.2 3.3c0 2.2 1.5 3.3 3.2 3.3c.9 0 1.6-.2 2.1-.4c0 0 .5 2.7.5 2.7zm13.3-5.7c0 4.3-3 6.3-6.2 6.3c-3.4 0-6.1-2.3-6.1-6.1c0-3.8 2.5-6.2 6.3-6.2c3.6 0 6 2.5 6 6zm-8.5.1c0 2 .8 3.5 2.4 3.5c1.4 0 2.3-1.4 2.3-3.5c0-1.7-.6-3.5-2.3-3.5c-1.7 0-2.4 1.8-2.4 3.5zm10.7 2.7c.7.4 2.1.9 3.2.9c1.1 0 1.5-.4 1.5-1c0-.6-.3-.9-1.7-1.3c-2.4-.8-3.3-2.2-3.3-3.6c0-2.1 1.8-3.8 4.8-3.8c1.3 0 2.5.3 3.3.7c0 0-.7 2.5-.7 2.5c-.5-.3-1.5-.7-2.5-.7c-.9 0-1.4.4-1.4 1c0 .5.4.8 1.9 1.3c2.2.8 3.1 1.9 3.2 3.6c0 2.2-1.8 3.8-5.1 3.8c-1.6 0-2.9-.3-3.8-.8c0 0 .6-2.6.6-2.6zm14.6-11.9l0 3.4l2.6 0l0 2.7l-2.6 0c0 0-.04 4.2 0 4.2c0 1.4.3 2.1 1.4 2.1c.5 0 .8-.1 1.1-.1c0 0 0 2.7 0 2.7c-.5.2-1.3.3-2.4.3c-1.2 0-2.1-.4-2.7-1c-.7-.7-1-1.8-1-3.4c-.02-.05 0-4.8 0-4.8l-1.6 0l0-2.7l1.6 0l0-2.6l3.6-.8zm21.1 9.1c0 4.3-3 6.3-6.2 6.3c-3.4 0-6-2.3-6-6.1c0-3.8 2.5-6.2 6.2-6.2c3.6 0 6 2.5 6 6zm-8.5.1c0 2 .9 3.5 2.4 3.5c1.4 0 2.4-1.4 2.4-3.5c0-1.7-.7-3.5-2.4-3.5c-1.7 0-2.4 1.8-2.4 3.5zm11.2 5.9l0-9l-1.5 0l0-2.7l1.5 0c0 0-.01-.49 0-.5c0-1.4.4-3 1.5-3.9c.9-.9 2.2-1.2 3.2-1.2c.8 0 1.5.1 2 .2c0 0-.2 2.8-.2 2.8c-.3-.1-.7-.1-1.2-.1c-1.2 0-1.7.9-1.7 2.1c.03-.04 0 .6 0 .6l2.4 0l0 2.7l-2.3 0l0 9l-3.7 0zm13 0l0-9l-1.5 0l0-2.7l1.5 0c0 0 .02-.54 0-.5c0-3.3 2.5-5.1 6.2-5.1c1.2 0 2.7.3 3.4.7c0 0-.7 2.8-.7 2.8c-.6-.3-1.5-.6-2.6-.6c-2 0-2.6 1-2.6 2.3c-.03-.04 0 .4 0 .4l7.1 0l0 11.7l-3.7 0l0-9l-3.4 0l0 9l-3.7 0zm13.7-8c0-1.5 0-2.7-.1-3.7c.03-.04 3.2 0 3.2 0l.2 1.6c0 0 .03-.03 0 0c.5-.8 1.7-1.9 3.7-1.9c2.4 0 4.2 1.6 4.2 5c-.04.04 0 7 0 7l-3.7 0c0 0 .01-6.5 0-6.5c0-1.5-.5-2.5-1.8-2.5c-1 0-1.6.6-1.9 1.3c-.1.2-.1.6-.1.9c-.03.03 0 6.8 0 6.8l-3.7 0c0 0 .02-7.99 0-8zm20.8 8l-.3-1.2c0 0-.03.02 0 0c-.8 1-2 1.5-3.4 1.5c-2.4 0-3.8-1.8-3.8-3.6c0-3.1 2.8-4.5 6.9-4.5c0 0 0-.2 0-.2c0-.6-.3-1.5-2.1-1.5c-1.2 0-2.5.4-3.3.9c0 0-.6-2.4-.6-2.4c.8-.4 2.4-1 4.5-1c3.9 0 5.2 2.3 5.2 5.1c0 0 0 4 0 4c0 1.2 0 2.3.1 2.9c.05 0-3.2 0-3.2 0zm-.5-5.5c-1.9-.1-3.4.4-3.4 1.8c0 .9.6 1.4 1.5 1.4c.9 0 1.6-.6 1.9-1.3c0-.2 0-.5 0-.7c0 0 0-1.2 0-1.2zm6.5-2.5c0-1.5-.1-2.7-.1-3.7c-.04-.04 3.1 0 3.1 0l.2 1.6c0 0 .07-.03.1 0c.5-.8 1.7-1.9 3.6-1.9c2.4 0 4.2 1.6 4.2 5c-.01.04 0 7 0 7l-3.7 0c0 0 .05-6.5 0-6.5c0-1.5-.5-2.5-1.8-2.5c-1 0-1.6.6-1.8 1.3c-.1.2-.2.6-.2.9c.01.03 0 6.8 0 6.8l-3.6 0c0 0-.04-7.99 0-8zm22.8 7.7c-.6.3-1.8.5-3.2.5c-3.8 0-6.2-2.3-6.2-6c0-3.4 2.3-6.2 6.7-6.2c.9 0 2 .2 2.8.5c0 0-.6 2.7-.6 2.7c-.5-.2-1.1-.4-2.1-.4c-1.9 0-3.1 1.4-3.1 3.3c0 2.2 1.4 3.3 3.2 3.3c.9 0 1.5-.2 2.1-.4c0 0 .4 2.7.4 2.7zm4.6-4.4c.1 1.5 1.6 2.2 3.3 2.2c1.3 0 2.3-.1 3.2-.5c0 0 .5 2.5.5 2.5c-1.2.5-2.6.7-4.2.7c-4 0-6.3-2.3-6.3-5.9c0-3 1.9-6.3 5.9-6.3c3.8 0 5.3 3 5.3 5.9c0 .6-.1 1.1-.1 1.4c0 0-7.6 0-7.6 0zm4.3-2.5c0-.9-.4-2.4-2.1-2.4c-1.5 0-2.1 1.4-2.2 2.4c0 0 4.3 0 4.3 0zm17.1 7.2l-.2-1.2c0 0-.11.02-.1 0c-.8 1-2 1.5-3.4 1.5c-2.3 0-3.8-1.8-3.8-3.6c0-3.1 2.8-4.5 6.9-4.5c0 0 0-.2 0-.2c0-.6-.3-1.5-2.1-1.5c-1.2 0-2.5.4-3.3.9c0 0-.6-2.4-.6-2.4c.8-.4 2.4-1 4.5-1c3.9 0 5.2 2.3 5.2 5.1c0 0 0 4 0 4c0 1.2 0 2.3.2 2.9c-.04 0-3.3 0-3.3 0zm-.5-5.5c-1.9-.1-3.4.4-3.4 1.8c0 .9.7 1.4 1.5 1.4c.9 0 1.6-.6 1.9-1.3c0-.2 0-.5 0-.7c0 0 0-1.2 0-1.2zm6.5-2.5c0-1.5-.1-2.7-.1-3.7c-.02-.04 3.1 0 3.1 0l.2 1.6c0 0 .09-.03.1 0c.5-.8 1.7-1.9 3.6-1.9c2.4 0 4.2 1.6 4.2 5c.01.04 0 7 0 7l-3.6 0c0 0-.04-6.5 0-6.5c0-1.5-.6-2.5-1.9-2.5c-1 0-1.6.6-1.8 1.3c-.1.2-.2.6-.2.9c.02.03 0 6.8 0 6.8l-3.6 0c0 0-.03-7.99 0-8zm25.4-9c0 0 .01 13.5 0 13.5c0 1.3.1 2.7.1 3.5c.01 0-3.2 0-3.2 0l-.2-1.7c0 0-.05-.03 0 0c-.8 1.3-2.2 2-3.7 2c-2.8 0-5-2.4-5-6.1c-.1-3.9 2.4-6.2 5.2-6.2c1.5 0 2.6.5 3.1 1.3c.02.02.1 0 .1 0l0-6.3l3.6 0zm-3.6 10.2c0-.2-.1-.4-.1-.6c-.2-1-1-1.8-2.1-1.8c-1.7 0-2.5 1.5-2.5 3.3c0 2 .9 3.3 2.5 3.3c1 0 1.9-.8 2.1-1.8c0-.3.1-.5.1-.8c0 0 0-1.6 0-1.6zm11.4 6.8l0-11.7l3.6 0l0 11.7l-3.6 0zm3.8-15c0 1-.8 1.8-2 1.8c-1.2 0-1.9-.8-1.9-1.8c0-1.1.7-1.8 1.9-1.8c1.2 0 1.9.7 2 1.8zm2.8 7c0-1.5-.1-2.7-.1-3.7c-.03-.04 3.1 0 3.1 0l.2 1.6c0 0 .08-.03.1 0c.5-.8 1.7-1.9 3.6-1.9c2.4 0 4.2 1.6 4.2 5c0 .04 0 7 0 7l-3.6 0c0 0-.05-6.5 0-6.5c0-1.5-.6-2.5-1.9-2.5c-1 0-1.6.6-1.8 1.3c-.1.2-.2.6-.2.9c.01.03 0 6.8 0 6.8l-3.6 0c0 0-.03-7.99 0-8zm22.8 7.7c-.6.3-1.8.5-3.2.5c-3.8 0-6.2-2.3-6.2-6c0-3.4 2.3-6.2 6.7-6.2c.9 0 2 .2 2.8.5c0 0-.6 2.7-.6 2.7c-.4-.2-1.1-.4-2.1-.4c-1.9 0-3.1 1.4-3.1 3.3c0 2.2 1.4 3.3 3.2 3.3c.9 0 1.6-.2 2.1-.4c0 0 .4 2.7.4 2.7zm2.1-7.6c0-1.7-.1-2.8-.1-3.8c-.04-.04 3.1 0 3.1 0l.1 2.1c0 0 .12.02.1 0c.6-1.7 2.1-2.4 3.2-2.4c.3 0 .5 0 .8 0c0 0 0 3.5 0 3.5c-.3-.1-.6-.1-1-.1c-1.4 0-2.3.7-2.5 1.8c-.1.3-.1.6-.1.8c0 .05 0 6 0 6l-3.6 0c0 0-.05-7.87 0-7.9zm11.7 3.2c.1 1.5 1.6 2.2 3.3 2.2c1.2 0 2.3-.1 3.2-.5c0 0 .5 2.5.5 2.5c-1.2.5-2.6.7-4.2.7c-4 0-6.3-2.3-6.3-5.9c0-3 1.9-6.3 5.9-6.3c3.8 0 5.3 3 5.3 5.9c0 .6-.1 1.1-.2 1.4c0 0-7.5 0-7.5 0zm4.3-2.5c0-.9-.4-2.4-2.1-2.4c-1.5 0-2.1 1.4-2.2 2.4c0 0 4.3 0 4.3 0zm12.2 7.2l-.2-1.2c0 0-.06.02-.1 0c-.7 1-1.9 1.5-3.3 1.5c-2.4 0-3.8-1.8-3.8-3.6c0-3.1 2.7-4.5 6.9-4.5c0 0 0-.2 0-.2c0-.6-.4-1.5-2.2-1.5c-1.2 0-2.4.4-3.2.9c0 0-.7-2.4-.7-2.4c.8-.4 2.4-1 4.6-1c3.9 0 5.1 2.3 5.1 5.1c0 0 0 4 0 4c0 1.2.1 2.3.2 2.9c.01 0-3.3 0-3.3 0zm-.4-5.5c-1.9-.1-3.4.4-3.4 1.8c0 .9.6 1.4 1.4 1.4c.9 0 1.7-.6 1.9-1.3c.1-.2.1-.5.1-.7c0 0 0-1.2 0-1.2zm6.4 2.3c.7.4 2.1.9 3.1.9c1.1 0 1.6-.4 1.6-1c0-.6-.4-.9-1.7-1.3c-2.4-.8-3.4-2.2-3.4-3.6c0-2.1 1.9-3.8 4.8-3.8c1.4 0 2.6.3 3.3.7c0 0-.6 2.5-.6 2.5c-.5-.3-1.6-.7-2.6-.7c-.9 0-1.4.4-1.4 1c0 .5.5.8 1.9 1.3c2.3.8 3.2 1.9 3.2 3.6c0 2.2-1.7 3.8-5.1 3.8c-1.5 0-2.9-.3-3.7-.8c0 0 .6-2.6.6-2.6zm13.2-1.5c.2 1.5 1.7 2.2 3.4 2.2c1.2 0 2.2-.1 3.2-.5c0 0 .5 2.5.5 2.5c-1.2.5-2.7.7-4.3.7c-4 0-6.2-2.3-6.2-5.9c0-3 1.8-6.3 5.9-6.3c3.8 0 5.2 3 5.2 5.9c0 .6 0 1.1-.1 1.4c0 0-7.6 0-7.6 0zm4.3-2.5c0-.9-.3-2.4-2-2.4c-1.6 0-2.2 1.4-2.3 2.4c0 0 4.3 0 4.3 0zm5.6 4c.7.4 2.1.9 3.1.9c1.1 0 1.6-.4 1.6-1c0-.6-.4-.9-1.7-1.3c-2.5-.8-3.4-2.2-3.4-3.6c0-2.1 1.9-3.8 4.8-3.8c1.4 0 2.6.3 3.3.7c0 0-.6 2.5-.6 2.5c-.6-.3-1.6-.7-2.6-.7c-.9 0-1.4.4-1.4 1c0 .5.5.8 1.9 1.3c2.3.8 3.2 1.9 3.2 3.6c0 2.2-1.7 3.8-5.1 3.8c-1.5 0-2.9-.3-3.8-.8c0 0 .7-2.6.7-2.6zm19.4-11.9l0 3.4l2.6 0l0 2.7l-2.6 0c0 0-.04 4.2 0 4.2c0 1.4.3 2.1 1.4 2.1c.5 0 .8-.1 1.1-.1c0 0 0 2.7 0 2.7c-.5.2-1.3.3-2.4.3c-1.2 0-2.1-.4-2.7-1c-.7-.7-1-1.8-1-3.4c-.02-.05 0-4.8 0-4.8l-1.6 0l0-2.7l1.6 0l0-2.6l3.6-.8zm4.7-1.9l3.6 0l0 6.7c0 0 .08-.04.1 0c.4-.5.8-.9 1.4-1.2c.5-.3 1.2-.5 1.9-.5c2.3 0 4.1 1.6 4.1 5.1c.02.04 0 6.9 0 6.9l-3.6 0c0 0-.03-6.46 0-6.5c0-1.5-.6-2.5-1.9-2.5c-1 0-1.6.6-1.8 1.2c-.1.3-.2.6-.2.8c.03.04 0 7 0 7l-3.6 0l0-17zm16.9 12.3c.1 1.5 1.6 2.2 3.3 2.2c1.2 0 2.2-.1 3.2-.5c0 0 .5 2.5.5 2.5c-1.2.5-2.7.7-4.3.7c-3.9 0-6.2-2.3-6.2-5.9c0-3 1.8-6.3 5.9-6.3c3.8 0 5.2 3 5.2 5.9c0 .6 0 1.1-.1 1.4c0 0-7.5 0-7.5 0zm4.3-2.5c0-.9-.4-2.4-2.1-2.4c-1.5 0-2.2 1.4-2.3 2.4c0 0 4.4 0 4.4 0zm10.3 7.2c0-.8.1-2.2.1-3.5c-.03 0 0-13.5 0-13.5l3.6 0l0 6.7c0 0 .06-.04.1 0c.7-1.1 1.9-1.7 3.5-1.7c2.8 0 4.9 2.3 4.9 5.9c0 4.3-2.7 6.4-5.4 6.4c-1.4 0-2.7-.5-3.5-1.9c-.04-.03-.1 0-.1 0l-.1 1.6c0 0-3.13 0-3.1 0zm3.7-5c0 .2 0 .5.1.7c.2.9 1.1 1.7 2.1 1.7c1.6 0 2.5-1.2 2.5-3.3c0-1.9-.8-3.3-2.5-3.3c-1 0-1.9.8-2.1 1.8c-.1.2-.1.4-.1.7c0 0 0 1.7 0 1.7zm22.4-1c0 4.3-3.1 6.3-6.2 6.3c-3.4 0-6.1-2.3-6.1-6.1c0-3.8 2.5-6.2 6.3-6.2c3.6 0 6 2.5 6 6zm-8.5.1c0 2 .8 3.5 2.4 3.5c1.4 0 2.3-1.4 2.3-3.5c0-1.7-.7-3.5-2.3-3.5c-1.8 0-2.4 1.8-2.4 3.5zm14.8-9.2l0 3.4l2.6 0l0 2.7l-2.6 0c0 0 .02 4.2 0 4.2c0 1.4.4 2.1 1.5 2.1c.4 0 .8-.1 1-.1c0 0 .1 2.7.1 2.7c-.5.2-1.4.3-2.4.3c-1.2 0-2.2-.4-2.7-1c-.7-.7-1.1-1.8-1.1-3.4c.04-.05 0-4.8 0-4.8l-1.5 0l0-2.7l1.5 0l0-2.6l3.6-.8zm8.8 0l0 3.4l2.6 0l0 2.7l-2.6 0c0 0 .03 4.2 0 4.2c0 1.4.4 2.1 1.5 2.1c.4 0 .8-.1 1-.1c0 0 .1 2.7.1 2.7c-.5.2-1.4.3-2.4.3c-1.2 0-2.2-.4-2.7-1c-.7-.7-1-1.8-1-3.4c-.05-.05 0-4.8 0-4.8l-1.6 0l0-2.7l1.6 0l0-2.6l3.5-.8zm16.2 9.1c0 4.3-3 6.3-6.2 6.3c-3.4 0-6-2.3-6-6.1c0-3.8 2.5-6.2 6.2-6.2c3.6 0 6 2.5 6 6zm-8.5.1c0 2 .9 3.5 2.4 3.5c1.4 0 2.4-1.4 2.4-3.5c0-1.7-.7-3.5-2.4-3.5c-1.7 0-2.4 1.8-2.4 3.5zm10.8-2.1c0-1.5-.1-2.7-.1-3.7c-.01-.04 3.1 0 3.1 0l.1 1.5c0 0 .1.05.1 0c.5-.7 1.5-1.8 3.6-1.8c1.5 0 2.7.8 3.2 2c0 0 0 0 0 0c.4-.6 1-1.1 1.5-1.4c.7-.4 1.4-.6 2.3-.6c2.2 0 3.9 1.6 3.9 5.1c.02-.01 0 6.9 0 6.9l-3.5 0c0 0-.03-6.38 0-6.4c0-1.7-.6-2.7-1.8-2.7c-.8 0-1.4.6-1.6 1.3c-.1.3-.2.6-.2.9c.02.04 0 6.9 0 6.9l-3.5 0c0 0-.04-6.58 0-6.6c0-1.5-.6-2.5-1.7-2.5c-1 0-1.5.7-1.7 1.3c-.1.3-.2.7-.2 1c.04-.04 0 6.8 0 6.8l-3.5 0c0 0-.02-7.99 0-8zm25.5-9l3.6 0l0 17l-3.6 0l0-17zm6.6 17l0-11.7l3.6 0l0 11.7l-3.6 0zm3.7-15c0 1-.7 1.8-1.9 1.8c-1.2 0-1.9-.8-1.9-1.8c0-1.1.7-1.8 1.9-1.8c1.2 0 1.9.7 1.9 1.8zm2.8 7c0-1.5 0-2.7 0-3.7c-.05-.04 3.1 0 3.1 0l.2 1.6c0 0 .06-.03.1 0c.4-.8 1.6-1.9 3.6-1.9c2.4 0 4.2 1.6 4.2 5c-.02.04 0 7 0 7l-3.7 0c0 0 .03-6.5 0-6.5c0-1.5-.5-2.5-1.8-2.5c-1 0-1.6.6-1.9 1.3c-.1.2-.1.6-.1.9c-.01.03 0 6.8 0 6.8l-3.7 0c0 0 .05-7.99 0-8zm16.9 3.3c.1 1.5 1.6 2.2 3.3 2.2c1.3 0 2.3-.1 3.3-.5c0 0 .5 2.5.5 2.5c-1.2.5-2.7.7-4.3.7c-4 0-6.3-2.3-6.3-5.9c0-3 1.9-6.3 6-6.3c3.8 0 5.2 3 5.2 5.9c0 .6-.1 1.1-.1 1.4c0 0-7.6 0-7.6 0zm4.3-2.5c0-.9-.4-2.4-2-2.4c-1.6 0-2.2 1.4-2.3 2.4c0 0 4.3 0 4.3 0zm4.9 5.3c0-1.3.9-2.3 2.2-2.3c1.3 0 2.1.9 2.1 2.3c0 1.2-.8 2.2-2.1 2.2c-1.3 0-2.2-1-2.2-2.2z" stroke="none" fill="#15345e"/></g><g id="Polygon9126"><path d="m1.6 2c1.2-.2 2.9-.3 4.9-.3c2.4 0 4 .4 5.2 1.3c.9.7 1.5 1.9 1.5 3.4c0 2-1.5 3.4-2.9 3.9c0 0 0 .1 0 .1c1.1.5 1.8 1.6 2.2 3c.5 1.9 1 4 1.3 4.6c0 0-3.7 0-3.7 0c-.3-.5-.7-1.8-1.2-3.8c-.4-2-1.1-2.5-2.6-2.6c.01.04-1.1 0-1.1 0l0 6.4l-3.6 0c0 0-.02-15.96 0-16zm3.6 7c0 0 1.45 0 1.4 0c1.9 0 3-.9 3-2.3c0-1.5-1.1-2.3-2.7-2.3c-.9 0-1.4.1-1.7.1c.01.04 0 4.5 0 4.5zm13.3 4.3c.1 1.5 1.6 2.2 3.3 2.2c1.3 0 2.3-.1 3.3-.5c0 0 .4 2.5.4 2.5c-1.2.5-2.6.7-4.2.7c-4 0-6.3-2.3-6.3-5.9c0-3 1.9-6.3 6-6.3c3.7 0 5.2 3 5.2 5.9c0 .6-.1 1.1-.1 1.4c0 0-7.6 0-7.6 0zm4.3-2.5c0-.9-.4-2.4-2.1-2.4c-1.5 0-2.1 1.4-2.2 2.4c0 0 4.3 0 4.3 0zm16.9-9.8c0 0 .04 13.5 0 13.5c0 1.3.1 2.7.1 3.5c.04 0-3.2 0-3.2 0l-.2-1.7c0 0-.02-.03 0 0c-.8 1.3-2.2 2-3.7 2c-2.8 0-5-2.4-5-6.1c0-3.9 2.4-6.2 5.3-6.2c1.4 0 2.5.5 3 1.3c.05.02.1 0 .1 0l0-6.3l3.6 0zm-3.6 10.2c0-.2 0-.4-.1-.6c-.2-1-1-1.8-2.1-1.8c-1.6 0-2.5 1.5-2.5 3.3c0 2 1 3.3 2.5 3.3c1 0 1.9-.8 2.1-1.8c.1-.3.1-.5.1-.8c0 0 0-1.6 0-1.6zm17.6 3c0 1.6.1 2.8.1 3.8c.03 0-3.1 0-3.1 0l-.2-1.7c0 0-.08.04-.1 0c-.4.8-1.5 2-3.6 2c-2.4 0-4.2-1.5-4.2-5.1c.02-.05 0-6.9 0-6.9l3.7 0c0 0 0 6.28 0 6.3c0 1.7.5 2.7 1.8 2.7c1 0 1.6-.7 1.8-1.3c.1-.2.2-.5.2-.8c-.04.05 0-6.9 0-6.9l3.6 0c0 0 .04 7.93 0 7.9zm11.8 3.5c-.7.3-1.9.5-3.3.5c-3.8 0-6.2-2.3-6.2-6c0-3.4 2.3-6.2 6.7-6.2c1 0 2 .2 2.8.5c0 0-.6 2.7-.6 2.7c-.4-.2-1.1-.4-2-.4c-1.9 0-3.2 1.4-3.2 3.3c0 2.2 1.5 3.3 3.3 3.3c.8 0 1.5-.2 2-.4c0 0 .5 2.7.5 2.7zm4.5-4.4c.2 1.5 1.6 2.2 3.3 2.2c1.3 0 2.3-.1 3.3-.5c0 0 .5 2.5.5 2.5c-1.2.5-2.7.7-4.3.7c-4 0-6.2-2.3-6.2-5.9c0-3 1.8-6.3 5.9-6.3c3.8 0 5.2 3 5.2 5.9c0 .6-.1 1.1-.1 1.4c0 0-7.6 0-7.6 0zm4.3-2.5c0-.9-.4-2.4-2-2.4c-1.6 0-2.2 1.4-2.3 2.4c0 0 4.3 0 4.3 0zm17-9.8c0 0-.03 13.5 0 13.5c0 1.3 0 2.7.1 3.5c-.03 0-3.3 0-3.3 0l-.1-1.7c0 0-.09-.03-.1 0c-.7 1.3-2.1 2-3.7 2c-2.7 0-5-2.4-5-6.1c0-3.9 2.5-6.2 5.3-6.2c1.4 0 2.5.5 3.1 1.3c-.02.02 0 0 0 0l0-6.3l3.7 0zm-3.7 10.2c0-.2 0-.4 0-.6c-.2-1-1-1.8-2.2-1.8c-1.6 0-2.5 1.5-2.5 3.3c0 2 1 3.3 2.5 3.3c1.1 0 1.9-.8 2.1-1.8c.1-.3.1-.5.1-.8c0 0 0-1.6 0-1.6zm11.2 6.8c.1-.8.1-2.2.1-3.5c.04 0 0-13.5 0-13.5l3.7 0l0 6.7c0 0 .04-.04 0 0c.7-1.1 2-1.7 3.6-1.7c2.8 0 4.9 2.3 4.8 5.9c0 4.3-2.6 6.4-5.3 6.4c-1.4 0-2.7-.5-3.6-1.9c.04-.03 0 0 0 0l-.2 1.6c0 0-3.05 0-3.1 0zm3.8-5c0 .2 0 .5.1.7c.2.9 1 1.7 2.1 1.7c1.6 0 2.5-1.2 2.5-3.3c0-1.9-.8-3.3-2.5-3.3c-1 0-1.9.8-2.1 1.8c-.1.2-.1.4-.1.7c0 0 0 1.7 0 1.7zm10.7-12l3.6 0l0 17l-3.6 0l0-17zm18.2 11c0 4.3-3.1 6.3-6.2 6.3c-3.4 0-6.1-2.3-6.1-6.1c0-3.8 2.5-6.2 6.3-6.2c3.6 0 6 2.5 6 6zm-8.5.1c0 2 .8 3.5 2.4 3.5c1.4 0 2.3-1.4 2.3-3.5c0-1.7-.7-3.5-2.3-3.5c-1.8 0-2.4 1.8-2.4 3.5zm19.6 5.6c-.6.3-1.8.5-3.2.5c-3.8 0-6.3-2.3-6.3-6c0-3.4 2.4-6.2 6.8-6.2c.9 0 2 .2 2.7.5c0 0-.5 2.7-.5 2.7c-.5-.2-1.1-.4-2.1-.4c-1.9 0-3.1 1.4-3.1 3.3c0 2.2 1.4 3.3 3.2 3.3c.9 0 1.5-.2 2.1-.4c0 0 .4 2.7.4 2.7zm5.7-6.5c0 0 .03.01 0 0c.3-.5.6-1 .9-1.4c-.03-.01 2.4-3.5 2.4-3.5l4.3 0l-4.2 4.7l4.8 7l-4.4 0l-2.9-4.8l-.9 1.1l0 3.7l-3.7 0l0-17l3.7 0l0 10.2zm16.1 6.8l-.2-1.2c0 0-.05.02 0 0c-.8 1-2 1.5-3.4 1.5c-2.4 0-3.8-1.8-3.8-3.6c0-3.1 2.7-4.5 6.9-4.5c0 0 0-.2 0-.2c0-.6-.3-1.5-2.1-1.5c-1.2 0-2.5.4-3.3.9c0 0-.7-2.4-.7-2.4c.9-.4 2.5-1 4.6-1c3.9 0 5.2 2.3 5.2 5.1c0 0 0 4 0 4c0 1.2 0 2.3.1 2.9c.03 0-3.3 0-3.3 0zm-.4-5.5c-1.9-.1-3.4.4-3.4 1.8c0 .9.6 1.4 1.4 1.4c1 0 1.7-.6 1.9-1.3c.1-.2.1-.5.1-.7c0 0 0-1.2 0-1.2zm17.6-6.2c0 .7 0 1.7 0 3.4c0 0 0 6.6 0 6.6c0 2.3-.5 4.1-1.8 5.3c-1.3 1.1-3.1 1.4-4.8 1.4c-1.5 0-3.2-.3-4.2-.9c0 0 .7-2.8.7-2.8c.7.5 2 .9 3.4.9c1.7 0 3.1-.9 3.1-3.1c-.05.04 0-.7 0-.7c0 0-.1-.03-.1 0c-.7 1-1.8 1.5-3.2 1.5c-2.9 0-4.9-2.3-4.9-5.7c0-3.8 2.4-6.2 5.3-6.2c1.6 0 2.6.7 3.2 1.7c.01-.04.1 0 .1 0l.1-1.4c0 0 3.15-.04 3.1 0zm-3.7 4.7c0-.2 0-.4-.1-.6c-.2-1-.9-1.6-1.9-1.6c-1.4 0-2.4 1.2-2.4 3.3c0 1.7.8 3.1 2.4 3.1c.9 0 1.6-.6 1.9-1.5c.1-.2.1-.6.1-.9c0 0 0-1.8 0-1.8zm9.4 2.3c.1 1.5 1.6 2.2 3.3 2.2c1.2 0 2.3-.1 3.2-.5c0 0 .5 2.5.5 2.5c-1.2.5-2.6.7-4.2.7c-4 0-6.3-2.3-6.3-5.9c0-3 1.9-6.3 5.9-6.3c3.8 0 5.3 3 5.3 5.9c0 .6-.1 1.1-.2 1.4c0 0-7.5 0-7.5 0zm4.3-2.5c0-.9-.4-2.4-2.1-2.4c-1.5 0-2.1 1.4-2.2 2.4c0 0 4.3 0 4.3 0zm21.9 1.2c0 4.3-3.1 6.3-6.2 6.3c-3.4 0-6.1-2.3-6.1-6.1c0-3.8 2.5-6.2 6.3-6.2c3.6 0 6 2.5 6 6zm-8.5.1c0 2 .8 3.5 2.4 3.5c1.4 0 2.3-1.4 2.3-3.5c0-1.7-.7-3.5-2.3-3.5c-1.8 0-2.4 1.8-2.4 3.5zm11.2 5.9l0-9l-1.6 0l0-2.7l1.6 0c0 0-.05-.49 0-.5c0-1.4.4-3 1.4-3.9c1-.9 2.2-1.2 3.3-1.2c.8 0 1.4.1 1.9.2c0 0-.1 2.8-.1 2.8c-.3-.1-.7-.1-1.2-.1c-1.2 0-1.7.9-1.7 2.1c0-.04 0 .6 0 .6l2.4 0l0 2.7l-2.4 0l0 9l-3.6 0zm12.9 0l0-9l-1.6 0l0-2.7l1.6 0c0 0-.02-.49 0-.5c0-1.4.4-3 1.5-3.9c.9-.9 2.2-1.2 3.2-1.2c.8 0 1.4.1 2 .2c0 0-.2 2.8-.2 2.8c-.3-.1-.7-.1-1.2-.1c-1.2 0-1.7.9-1.7 2.1c.03-.04 0 .6 0 .6l2.4 0l0 2.7l-2.3 0l0 9l-3.7 0zm18.8-3.8c0 1.6.1 2.8.1 3.8c.02 0-3.2 0-3.2 0l-.1-1.7c0 0-.09.04-.1 0c-.4.8-1.6 2-3.7 2c-2.3 0-4.1-1.5-4.1-5.1c.01-.05 0-6.9 0-6.9l3.7 0c0 0-.02 6.28 0 6.3c0 1.7.5 2.7 1.8 2.7c1 0 1.6-.7 1.8-1.3c.1-.2.1-.5.1-.8c.05.05 0-6.9 0-6.9l3.7 0c0 0 .02 7.93 0 7.9zm2.9-4.2c0-1.5 0-2.7 0-3.7c-.05-.04 3.1 0 3.1 0l.2 1.6c0 0 .06-.03.1 0c.4-.8 1.6-1.9 3.6-1.9c2.4 0 4.2 1.6 4.2 5c-.02.04 0 7 0 7l-3.7 0c0 0 .03-6.5 0-6.5c0-1.5-.5-2.5-1.8-2.5c-1 0-1.6.6-1.9 1.3c-.1.2-.1.6-.1.9c-.01.03 0 6.8 0 6.8l-3.7 0c0 0 .05-7.99 0-8zm25.5-9c0 0-.01 13.5 0 13.5c0 1.3 0 2.7.1 3.5c-.02 0-3.3 0-3.3 0l-.1-1.7c0 0-.07-.03-.1 0c-.7 1.3-2.1 2-3.6 2c-2.8 0-5.1-2.4-5.1-6.1c0-3.9 2.5-6.2 5.3-6.2c1.4 0 2.6.5 3.1 1.3c-.01.02 0 0 0 0l0-6.3l3.7 0zm-3.7 10.2c0-.2 0-.4 0-.6c-.2-1-1-1.8-2.1-1.8c-1.7 0-2.6 1.5-2.6 3.3c0 2 1 3.3 2.5 3.3c1.1 0 1.9-.8 2.1-1.8c.1-.3.1-.5.1-.8c0 0 0-1.6 0-1.6zm6.6 3.6c.7.4 2.1.9 3.1.9c1.1 0 1.6-.4 1.6-1c0-.6-.4-.9-1.7-1.3c-2.5-.8-3.4-2.2-3.4-3.6c0-2.1 1.9-3.8 4.8-3.8c1.4 0 2.6.3 3.3.7c0 0-.6 2.5-.6 2.5c-.6-.3-1.6-.7-2.6-.7c-.9 0-1.4.4-1.4 1c0 .5.5.8 1.9 1.3c2.3.8 3.2 1.9 3.2 3.6c0 2.2-1.7 3.8-5.1 3.8c-1.5 0-2.9-.3-3.8-.8c0 0 .7-2.6.7-2.6zm19.3-11.9l0 3.4l2.6 0l0 2.7l-2.6 0c0 0-.04 4.2 0 4.2c0 1.4.3 2.1 1.4 2.1c.5 0 .8-.1 1.1-.1c0 0 0 2.7 0 2.7c-.5.2-1.3.3-2.4.3c-1.2 0-2.1-.4-2.7-1c-.7-.7-1-1.8-1-3.4c-.02-.05 0-4.8 0-4.8l-1.6 0l0-2.7l1.6 0l0-2.6l3.6-.8zm4.7-1.9l3.6 0l0 6.7c0 0 .08-.04.1 0c.4-.5.8-.9 1.4-1.2c.5-.3 1.2-.5 1.9-.5c2.3 0 4.1 1.6 4.1 5.1c.02.04 0 6.9 0 6.9l-3.6 0c0 0-.03-6.46 0-6.5c0-1.5-.6-2.5-1.9-2.5c-1 0-1.6.6-1.8 1.2c-.1.3-.2.6-.2.8c.03.04 0 7 0 7l-3.6 0l0-17zm20.7 17l-.2-1.2c0 0-.07.02-.1 0c-.7 1-1.9 1.5-3.3 1.5c-2.4 0-3.8-1.8-3.8-3.6c0-3.1 2.7-4.5 6.9-4.5c0 0 0-.2 0-.2c0-.6-.4-1.5-2.2-1.5c-1.2 0-2.4.4-3.2.9c0 0-.7-2.4-.7-2.4c.8-.4 2.4-1 4.6-1c3.9 0 5.1 2.3 5.1 5.1c0 0 0 4 0 4c0 1.2.1 2.3.2 2.9c.01 0-3.3 0-3.3 0zm-.4-5.5c-1.9-.1-3.4.4-3.4 1.8c0 .9.6 1.4 1.4 1.4c.9 0 1.7-.6 1.9-1.3c.1-.2.1-.5.1-.7c0 0 0-1.2 0-1.2zm10.3-9.6l0 3.4l2.6 0l0 2.7l-2.6 0c0 0 .01 4.2 0 4.2c0 1.4.3 2.1 1.4 2.1c.5 0 .9-.1 1.1-.1c0 0 .1 2.7.1 2.7c-.5.2-1.4.3-2.4.3c-1.2 0-2.2-.4-2.8-1c-.6-.7-1-1.8-1-3.4c.03-.05 0-4.8 0-4.8l-1.5 0l0-2.7l1.5 0l0-2.6l3.6-.8zm13.6 0l0 3.4l2.6 0l0 2.7l-2.6 0c0 0-.04 4.2 0 4.2c0 1.4.3 2.1 1.4 2.1c.5 0 .8-.1 1.1-.1c0 0 0 2.7 0 2.7c-.5.2-1.3.3-2.4.3c-1.1 0-2.1-.4-2.7-1c-.7-.7-1-1.8-1-3.4c-.02-.05 0-4.8 0-4.8l-1.6 0l0-2.7l1.6 0l0-2.6l3.6-.8zm4.7 7.2c0-1.7-.1-2.8-.1-3.8c-.01-.04 3.1 0 3.1 0l.2 2.1c0 0 .05.02.1 0c.6-1.7 2-2.4 3.1-2.4c.4 0 .5 0 .8 0c0 0 0 3.5 0 3.5c-.3-.1-.6-.1-1-.1c-1.3 0-2.3.7-2.5 1.8c0 .3-.1.6-.1.8c.04.05 0 6 0 6l-3.6 0c0 0-.01-7.87 0-7.9zm15.5 7.9l-.2-1.2c0 0-.07.02-.1 0c-.7 1-1.9 1.5-3.3 1.5c-2.4 0-3.8-1.8-3.8-3.6c0-3.1 2.7-4.5 6.9-4.5c0 0 0-.2 0-.2c0-.6-.4-1.5-2.2-1.5c-1.2 0-2.4.4-3.2.9c0 0-.7-2.4-.7-2.4c.8-.4 2.4-1 4.6-1c3.9 0 5.1 2.3 5.1 5.1c0 0 0 4 0 4c0 1.2.1 2.3.2 2.9c0 0-3.3 0-3.3 0zm-.4-5.5c-1.9-.1-3.4.4-3.4 1.8c0 .9.6 1.4 1.4 1.4c.9 0 1.7-.6 1.9-1.3c.1-.2.1-.5.1-.7c0 0 0-1.2 0-1.2zm6.4-2.5c0-1.5 0-2.7-.1-3.7c.02-.04 3.2 0 3.2 0l.2 1.6c0 0 .03-.03 0 0c.5-.8 1.7-1.9 3.7-1.9c2.4 0 4.2 1.6 4.2 5c-.05.04 0 7 0 7l-3.7 0c0 0 0-6.5 0-6.5c0-1.5-.5-2.5-1.8-2.5c-1.1 0-1.7.6-1.9 1.3c-.1.2-.1.6-.1.9c-.04.03 0 6.8 0 6.8l-3.7 0c0 0 .02-7.99 0-8zm14.1 4.8c.6.4 2 .9 3.1.9c1.1 0 1.6-.4 1.6-1c0-.6-.4-.9-1.8-1.3c-2.4-.8-3.3-2.2-3.3-3.6c0-2.1 1.9-3.8 4.8-3.8c1.3 0 2.6.3 3.3.7c0 0-.7 2.5-.7 2.5c-.5-.3-1.5-.7-2.5-.7c-.9 0-1.4.4-1.4 1c0 .5.5.8 1.9 1.3c2.2.8 3.2 1.9 3.2 3.6c0 2.2-1.7 3.8-5.1 3.8c-1.5 0-2.9-.3-3.8-.8c0 0 .7-2.6.7-2.6zm10.4-13.8l3.6 0l0 17l-3.6 0l0-17zm13.3 17l-.2-1.2c0 0-.12.02-.1 0c-.8 1-2 1.5-3.4 1.5c-2.4 0-3.8-1.8-3.8-3.6c0-3.1 2.8-4.5 6.9-4.5c0 0 0-.2 0-.2c0-.6-.3-1.5-2.1-1.5c-1.2 0-2.5.4-3.3.9c0 0-.6-2.4-.6-2.4c.8-.4 2.4-1 4.5-1c3.9 0 5.2 2.3 5.2 5.1c0 0 0 4 0 4c0 1.2 0 2.3.2 2.9c-.05 0-3.3 0-3.3 0zm-.5-5.5c-1.9-.1-3.4.4-3.4 1.8c0 .9.7 1.4 1.5 1.4c.9 0 1.6-.6 1.9-1.3c0-.2 0-.5 0-.7c0 0 0-1.2 0-1.2zm10.4-9.6l0 3.4l2.6 0l0 2.7l-2.6 0c0 0-.05 4.2 0 4.2c0 1.4.3 2.1 1.4 2.1c.5 0 .8-.1 1.1-.1c0 0 0 2.7 0 2.7c-.5.2-1.3.3-2.4.3c-1.2 0-2.1-.4-2.7-1c-.7-.7-1-1.8-1-3.4c-.02-.05 0-4.8 0-4.8l-1.6 0l0-2.7l1.6 0l0-2.6l3.6-.8zm7.4 10.4c.1 1.5 1.6 2.2 3.3 2.2c1.2 0 2.2-.1 3.2-.5c0 0 .5 2.5.5 2.5c-1.2.5-2.7.7-4.2.7c-4 0-6.3-2.3-6.3-5.9c0-3 1.8-6.3 5.9-6.3c3.8 0 5.3 3 5.3 5.9c0 .6-.1 1.1-.2 1.4c0 0-7.5 0-7.5 0zm4.3-2.5c0-.9-.4-2.4-2.1-2.4c-1.5 0-2.2 1.4-2.3 2.4c0 0 4.4 0 4.4 0zm5.5 4c.7.4 2.1.9 3.2.9c1.1 0 1.5-.4 1.5-1c0-.6-.3-.9-1.7-1.3c-2.4-.8-3.4-2.2-3.3-3.6c0-2.1 1.8-3.8 4.7-3.8c1.4 0 2.6.3 3.3.7c0 0-.6 2.5-.6 2.5c-.5-.3-1.5-.7-2.6-.7c-.8 0-1.3.4-1.3 1c0 .5.4.8 1.9 1.3c2.2.8 3.1 1.9 3.1 3.6c0 2.2-1.7 3.8-5 3.8c-1.6 0-2.9-.3-3.8-.8c0 0 .6-2.6.6-2.6zm19.3-11.9l0 3.4l2.6 0l0 2.7l-2.6 0c0 0-.02 4.2 0 4.2c0 1.4.3 2.1 1.4 2.1c.5 0 .8-.1 1.1-.1c0 0 0 2.7 0 2.7c-.5.2-1.3.3-2.4.3c-1.1 0-2.1-.4-2.7-1c-.7-.7-1-1.8-1-3.4c0-.05 0-4.8 0-4.8l-1.6 0l0-2.7l1.6 0l0-2.6l3.6-.8zm16.2 9.1c0 4.3-3.1 6.3-6.2 6.3c-3.4 0-6.1-2.3-6.1-6.1c0-3.8 2.5-6.2 6.3-6.2c3.6 0 6 2.5 6 6zm-8.5.1c0 2 .8 3.5 2.4 3.5c1.4 0 2.3-1.4 2.3-3.5c0-1.7-.7-3.5-2.3-3.5c-1.8 0-2.4 1.8-2.4 3.5zm15.5 2.7c.6.4 2 .9 3.1.9c1.1 0 1.6-.4 1.6-1c0-.6-.4-.9-1.8-1.3c-2.4-.8-3.3-2.2-3.3-3.6c0-2.1 1.9-3.8 4.8-3.8c1.3 0 2.6.3 3.3.7c0 0-.7 2.5-.7 2.5c-.5-.3-1.5-.7-2.5-.7c-.9 0-1.4.4-1.4 1c0 .5.5.8 1.9 1.3c2.2.8 3.2 1.9 3.2 3.6c0 2.2-1.7 3.8-5.1 3.8c-1.5 0-2.9-.3-3.8-.8c0 0 .7-2.6.7-2.6zm17.1 3.2l-.3-1.2c0 0-.02.02 0 0c-.8 1-2 1.5-3.4 1.5c-2.4 0-3.8-1.8-3.8-3.6c0-3.1 2.8-4.5 6.9-4.5c0 0 0-.2 0-.2c0-.6-.3-1.5-2.1-1.5c-1.2 0-2.5.4-3.3.9c0 0-.6-2.4-.6-2.4c.8-.4 2.4-1 4.5-1c3.9 0 5.2 2.3 5.2 5.1c0 0 0 4 0 4c0 1.2 0 2.3.2 2.9c-.05 0-3.3 0-3.3 0zm-.5-5.5c-1.9-.1-3.4.4-3.4 1.8c0 .9.6 1.4 1.5 1.4c.9 0 1.6-.6 1.9-1.3c0-.2 0-.5 0-.7c0 0 0-1.2 0-1.2zm8.9-6.2c0 0 1.57 5.41 1.6 5.4c.3 1 .5 1.9.6 2.9c0 0 .1 0 .1 0c.2-1 .4-1.9.7-2.9c-.04.01 1.5-5.4 1.5-5.4l3.8 0l-4.4 11.7l-3.6 0l-4.3-11.7l4 0zm10 11.7l0-11.7l3.6 0l0 11.7l-3.6 0zm3.8-15c0 1-.8 1.8-2 1.8c-1.2 0-1.9-.8-1.9-1.8c0-1.1.7-1.8 1.9-1.8c1.2 0 1.9.7 2 1.8zm2.8 7c0-1.5-.1-2.7-.1-3.7c-.02-.04 3.1 0 3.1 0l.2 1.6c0 0 .08-.03.1 0c.5-.8 1.7-1.9 3.6-1.9c2.4 0 4.2 1.6 4.2 5c.01.04 0 7 0 7l-3.6 0c0 0-.04-6.5 0-6.5c0-1.5-.6-2.5-1.9-2.5c-1 0-1.6.6-1.8 1.3c-.1.2-.2.6-.2.9c.02.03 0 6.8 0 6.8l-3.6 0c0 0-.03-7.99 0-8zm25.2-3.7c0 .7-.1 1.7-.1 3.4c0 0 0 6.6 0 6.6c0 2.3-.4 4.1-1.7 5.3c-1.3 1.1-3.1 1.4-4.8 1.4c-1.5 0-3.2-.3-4.2-.9c0 0 .7-2.8.7-2.8c.7.5 2 .9 3.4.9c1.7 0 3-.9 3-3.1c.05.04 0-.7 0-.7c0 0 0-.03 0 0c-.7 1-1.8 1.5-3.2 1.5c-2.9 0-4.9-2.3-4.9-5.7c0-3.8 2.4-6.2 5.3-6.2c1.6 0 2.6.7 3.2 1.7c.01-.04.1 0 .1 0l.1-1.4c0 0 3.14-.04 3.1 0zm-3.7 4.7c0-.2 0-.4-.1-.6c-.2-1-.9-1.6-1.9-1.6c-1.4 0-2.4 1.2-2.4 3.3c0 1.7.8 3.1 2.4 3.1c.9 0 1.6-.6 1.9-1.5c.1-.2.1-.6.1-.9c0 0 0-1.8 0-1.8zm6.6 3.8c.6.4 2 .9 3.1.9c1.1 0 1.6-.4 1.6-1c0-.6-.4-.9-1.8-1.3c-2.4-.8-3.3-2.2-3.3-3.6c0-2.1 1.9-3.8 4.8-3.8c1.3 0 2.6.3 3.3.7c0 0-.7 2.5-.7 2.5c-.5-.3-1.5-.7-2.5-.7c-.9 0-1.4.4-1.4 1c0 .5.5.8 1.9 1.3c2.2.8 3.2 1.9 3.2 3.6c0 2.2-1.7 3.8-5.1 3.8c-1.5 0-2.9-.3-3.8-.8c0 0 .7-2.6.7-2.6z" stroke="none" fill="#15345e"/></g></svg>