<?xml version="1.0" standalone="no"?><!DOCTYPE svg PUBLIC "-//W3C//DTD SVG 1.1//EN" "http://www.w3.org/Graphics/SVG/1.1/DTD/svg11.dtd"><svg xmlns="http://www.w3.org/2000/svg" version="1.1" width="581px" height="323px" viewBox="0 -6 581 323" style="top:-6px"><desc>The claim of Input Tax Credits (ITC) is governed by stringent provisions which require the details of the invoice/deb...</desc><defs/><g id="Polygon5340"><path d="m3.9 288.4l0 16.2l-2.1 0l0-16.2l2.1 0zm6.7 1.8l-4.9 0l0-1.8l12 0l0 1.8l-5 0l0 14.4l-2.1 0l0-14.4zm19.5 13.8c-.7.4-2.3.8-4.2.8c-4.6 0-8-2.9-8-8.2c0-5 3.4-8.5 8.4-8.5c2 0 3.3.5 3.9.7c0 0-.5 1.7-.5 1.7c-.8-.3-2-.6-3.3-.6c-3.8 0-6.3 2.4-6.3 6.6c0 4 2.3 6.5 6.2 6.5c1.3 0 2.6-.2 3.4-.6c0 0 .4 1.6.4 1.6zm14.1.6l-.2-1.5c0 0-.03 0 0 0c-.7.9-1.9 1.7-3.6 1.7c-2.3 0-3.5-1.6-3.5-3.3c0-2.8 2.5-4.4 6.9-4.3c0 0 0-.3 0-.3c0-.9-.2-2.7-2.6-2.7c-1.1 0-2.2.4-3 .9c0 0-.5-1.4-.5-1.4c1-.6 2.4-1 3.8-1c3.6 0 4.4 2.4 4.4 4.7c0 0 0 4.4 0 4.4c0 1 .1 2 .2 2.8c.03-.04-1.9 0-1.9 0zm-.3-6c-2.3 0-4.9.4-4.9 2.6c0 1.4.9 2.1 2 2.1c1.5 0 2.4-1 2.8-2c0-.2.1-.4.1-.7c0 0 0-2 0-2zm7.9-9l0 3.3l3 0l0 1.7l-3 0c0 0-.01 6.22 0 6.2c0 1.5.4 2.3 1.6 2.3c.5 0 .9-.1 1.2-.2c0 0 .1 1.6.1 1.6c-.4.2-1.1.3-1.9.3c-1 0-1.8-.3-2.3-.9c-.6-.6-.8-1.6-.8-3c.03-.01 0-6.3 0-6.3l-1.8 0l0-1.7l1.8 0l0-2.7l2.1-.6zm16.9 15l-.2-1.5c0 0-.03 0 0 0c-.7.9-1.9 1.7-3.6 1.7c-2.3 0-3.5-1.6-3.5-3.3c0-2.8 2.5-4.4 7-4.3c0 0 0-.3 0-.3c0-.9-.3-2.7-2.7-2.7c-1.1 0-2.2.4-3 .9c0 0-.5-1.4-.5-1.4c1-.6 2.4-1 3.8-1c3.6 0 4.4 2.4 4.4 4.7c0 0 0 4.4 0 4.4c0 1 .1 2 .2 2.8c.03-.04-1.9 0-1.9 0zm-.3-6c-2.3 0-4.9.4-4.9 2.6c0 1.4.9 2.1 2 2.1c1.5 0 2.4-1 2.8-2c.1-.2.1-.4.1-.7c0 0 0-2 0-2zm10.5-11.1l2.1 0l0 17.1l-2.1 0l0-17.1zm12.1 17.1l-.1-1.5c0 0-.11 0-.1 0c-.7.9-1.9 1.7-3.6 1.7c-2.3 0-3.5-1.6-3.5-3.3c0-2.8 2.5-4.4 7-4.3c0 0 0-.3 0-.3c0-.9-.3-2.7-2.7-2.7c-1 0-2.2.4-3 .9c0 0-.5-1.4-.5-1.4c1-.6 2.4-1 3.8-1c3.6 0 4.5 2.4 4.5 4.7c0 0 0 4.4 0 4.4c0 1 0 2 .2 2.8c-.05-.04-2 0-2 0zm-.3-6c-2.3 0-4.9.4-4.9 2.6c0 1.4.9 2.1 2 2.1c1.5 0 2.5-1 2.8-2c.1-.2.1-.4.1-.7c0 0 0-2 0-2zm7.9-9l0 3.3l3 0l0 1.7l-3 0c0 0 .01 6.22 0 6.2c0 1.5.4 2.3 1.6 2.3c.6 0 1-.1 1.2-.2c0 0 .1 1.6.1 1.6c-.4.2-1 .3-1.9.3c-.9 0-1.7-.3-2.2-.9c-.6-.6-.8-1.6-.8-3c-.05-.01 0-6.3 0-6.3l-1.8 0l0-1.7l1.8 0l0-2.7l2-.6zm6.4 9.5c.1 2.9 1.9 4.1 4 4.1c1.5 0 2.5-.3 3.2-.6c0 0 .4 1.5.4 1.5c-.7.3-2 .7-3.9.7c-3.5 0-5.7-2.4-5.7-5.9c0-3.5 2.1-6.2 5.5-6.2c3.8 0 4.8 3.3 4.8 5.5c0 .4-.1.7-.1.9c0 0-8.2 0-8.2 0zm6.2-1.5c.1-1.3-.5-3.4-2.9-3.4c-2.1 0-3.1 2-3.2 3.4c0 0 6.1 0 6.1 0zm4.7-1c0-1.4 0-2.6-.1-3.7c0 .04 1.8 0 1.8 0l.1 2.3c0 0 .11.02.1 0c.5-1.5 1.8-2.5 3.2-2.5c.3 0 .4 0 .6.1c0 0 0 1.9 0 1.9c-.2 0-.4 0-.7 0c-1.5 0-2.5 1.1-2.8 2.7c-.1.3-.1.6-.1 1c-.02-.03 0 6.2 0 6.2l-2.1 0c0 0-.01-8.03 0-8zm23-9.1c0 0-.04 14.06 0 14.1c0 1 0 2.2.1 3c-.04-.04-1.9 0-1.9 0l-.1-2.1c0 0-.08.04-.1 0c-.6 1.3-2 2.3-3.9 2.3c-2.9 0-5-2.4-5-5.9c0-3.8 2.4-6.2 5.2-6.2c1.8 0 3 .8 3.5 1.8c0-.04 0 0 0 0l0-7l2.2 0zm-2.2 10.2c0-.3 0-.7 0-.9c-.4-1.4-1.5-2.5-3.1-2.5c-2.2 0-3.5 2-3.5 4.5c0 2.4 1.2 4.3 3.5 4.3c1.4 0 2.7-.9 3.1-2.5c0-.3 0-.6 0-.9c0 0 0-2 0-2zm12.1 6.9l-.2-1.5c0 0-.04 0 0 0c-.7.9-1.9 1.7-3.6 1.7c-2.3 0-3.5-1.6-3.5-3.3c0-2.8 2.4-4.4 6.9-4.3c0 0 0-.3 0-.3c0-.9-.2-2.7-2.6-2.7c-1.1 0-2.2.4-3 .9c0 0-.5-1.4-.5-1.4c1-.6 2.3-1 3.8-1c3.6 0 4.4 2.4 4.4 4.7c0 0 0 4.4 0 4.4c0 1 .1 2 .2 2.8c.02-.04-1.9 0-1.9 0zm-.3-6c-2.3 0-4.9.4-4.9 2.6c0 1.4.9 2.1 2 2.1c1.5 0 2.4-1 2.8-2c0-.2.1-.4.1-.7c0 0 0-2 0-2zm7.9-9l0 3.3l3 0l0 1.7l-3 0c0 0-.02 6.22 0 6.2c0 1.5.4 2.3 1.6 2.3c.5 0 .9-.1 1.2-.2c0 0 .1 1.6.1 1.6c-.4.2-1.1.3-1.9.3c-1 0-1.8-.3-2.3-.9c-.6-.6-.8-1.6-.8-3c.02-.01 0-6.3 0-6.3l-1.8 0l0-1.7l1.8 0l0-2.7l2.1-.6zm6.4 9.5c.1 2.9 1.9 4.1 4 4.1c1.5 0 2.4-.3 3.2-.6c0 0 .4 1.5.4 1.5c-.8.3-2 .7-3.9.7c-3.6 0-5.7-2.4-5.7-5.9c0-3.5 2.1-6.2 5.4-6.2c3.8 0 4.8 3.3 4.8 5.5c0 .4 0 .7 0 .9c0 0-8.2 0-8.2 0zm6.2-1.5c0-1.3-.5-3.4-2.9-3.4c-2.2 0-3.1 2-3.3 3.4c0 0 6.2 0 6.2 0zm16.2 7l-.2-1.5c0 0-.06 0-.1 0c-.6.9-1.9 1.7-3.5 1.7c-2.4 0-3.6-1.6-3.6-3.3c0-2.8 2.5-4.4 7-4.3c0 0 0-.3 0-.3c0-.9-.2-2.7-2.6-2.7c-1.1 0-2.2.4-3 .9c0 0-.5-1.4-.5-1.4c.9-.6 2.3-1 3.8-1c3.5 0 4.4 2.4 4.4 4.7c0 0 0 4.4 0 4.4c0 1 .1 2 .2 2.8c0-.04-1.9 0-1.9 0zm-.3-6c-2.3 0-5 .4-5 2.6c0 1.4 1 2.1 2 2.1c1.6 0 2.5-1 2.8-2c.1-.2.2-.4.2-.7c0 0 0-2 0-2zm5.6 6l0-10l-1.6 0l0-1.7l1.6 0c0 0 .03-.51 0-.5c0-1.6.4-3.1 1.4-4.1c.8-.7 1.8-1 2.8-1c.8 0 1.4.1 1.8.3c0 0-.3 1.6-.3 1.6c-.3-.1-.7-.2-1.3-.2c-1.8 0-2.3 1.5-2.3 3.3c.02.02 0 .6 0 .6l2.8 0l0 1.7l-2.8 0l0 10l-2.1 0zm9.6-15l0 3.3l3.1 0l0 1.7l-3.1 0c0 0 .03 6.22 0 6.2c0 1.5.4 2.3 1.6 2.3c.6 0 1-.1 1.2-.2c0 0 .1 1.6.1 1.6c-.4.2-1 .3-1.8.3c-1 0-1.8-.3-2.3-.9c-.6-.6-.8-1.6-.8-3c-.03-.01 0-6.3 0-6.3l-1.8 0l0-1.7l1.8 0l0-2.7l2-.6zm6.5 9.5c0 2.9 1.8 4.1 3.9 4.1c1.6 0 2.5-.3 3.3-.6c0 0 .3 1.5.3 1.5c-.7.3-2 .7-3.8.7c-3.6 0-5.8-2.4-5.8-5.9c0-3.5 2.1-6.2 5.5-6.2c3.8 0 4.8 3.3 4.8 5.5c0 .4-.1.7-.1.9c0 0-8.1 0-8.1 0zm6.2-1.5c0-1.3-.6-3.4-3-3.4c-2.1 0-3 2-3.2 3.4c0 0 6.2 0 6.2 0zm4.6-1c0-1.4 0-2.6-.1-3.7c.02.04 1.9 0 1.9 0l0 2.3c0 0 .13.02.1 0c.6-1.5 1.8-2.5 3.2-2.5c.3 0 .5 0 .6.1c0 0 0 1.9 0 1.9c-.2 0-.4 0-.7 0c-1.5 0-2.5 1.1-2.8 2.7c-.1.3-.1.6-.1 1c0-.03 0 6.2 0 6.2l-2.1 0c0 0 .01-8.03 0-8zm12.9 0c0-1.4 0-2.6 0-3.7c-.05.04 1.8 0 1.8 0l.1 2.3c0 0 .07.02.1 0c.5-1.5 1.8-2.5 3.2-2.5c.2 0 .4 0 .6.1c0 0 0 1.9 0 1.9c-.2 0-.4 0-.7 0c-1.5 0-2.6 1.1-2.9 2.7c0 .3-.1.6-.1 1c.04-.03 0 6.2 0 6.2l-2.1 0c0 0 .05-8.03 0-8zm8.8 2.5c.1 2.9 1.9 4.1 4 4.1c1.5 0 2.4-.3 3.2-.6c0 0 .4 1.5.4 1.5c-.8.3-2 .7-3.9.7c-3.5 0-5.7-2.4-5.7-5.9c0-3.5 2.1-6.2 5.5-6.2c3.8 0 4.8 3.3 4.8 5.5c0 .4-.1.7-.1.9c0 0-8.2 0-8.2 0zm6.2-1.5c0-1.3-.5-3.4-2.9-3.4c-2.1 0-3.1 2-3.2 3.4c0 0 6.1 0 6.1 0zm13 6.5c-.6.3-1.8.7-3.4.7c-3.5 0-5.8-2.4-5.8-5.9c0-3.6 2.5-6.2 6.3-6.2c1.2 0 2.3.3 2.9.6c0 0-.5 1.6-.5 1.6c-.5-.3-1.3-.5-2.4-.5c-2.7 0-4.1 2-4.1 4.4c0 2.7 1.7 4.3 4 4.3c1.2 0 2-.3 2.6-.6c0 0 .4 1.6.4 1.6zm12.8-5.4c0 4.3-3 6.1-5.8 6.1c-3.1 0-5.6-2.3-5.6-6c0-3.8 2.6-6.1 5.8-6.1c3.3 0 5.6 2.4 5.6 6zm-9.2.1c0 2.5 1.4 4.4 3.5 4.4c2 0 3.5-1.9 3.5-4.5c0-1.9-.9-4.4-3.4-4.4c-2.5 0-3.6 2.3-3.6 4.5zm11.9-2.7c0-1.2-.1-2.2-.1-3.2c-.03.04 1.8 0 1.8 0l.2 2c0 0 .01-.04 0 0c.6-1.1 1.9-2.2 3.8-2.2c1.7 0 4.2.9 4.2 4.9c-.05.03 0 7 0 7l-2.2 0c0 0 .04-6.74 0-6.7c0-1.9-.7-3.5-2.6-3.5c-1.4 0-2.5 1-2.9 2.2c-.1.3-.1.6-.1 1c-.02-.02 0 7 0 7l-2.1 0c0 0-.04-8.51 0-8.5zm21.6 8c-.6.3-1.8.7-3.4.7c-3.5 0-5.8-2.4-5.8-5.9c0-3.6 2.5-6.2 6.3-6.2c1.2 0 2.3.3 2.9.6c0 0-.5 1.6-.5 1.6c-.5-.3-1.3-.5-2.4-.5c-2.7 0-4.1 2-4.1 4.4c0 2.7 1.7 4.3 4 4.3c1.2 0 2-.3 2.6-.6c0 0 .4 1.6.4 1.6zm2.4.5l0-11.7l2.1 0l0 11.7l-2.1 0zm2.4-14.9c0 .7-.5 1.3-1.4 1.3c-.7 0-1.2-.6-1.2-1.3c0-.8.5-1.3 1.3-1.3c.8 0 1.3.5 1.3 1.3zm3.3-2.2l2.1 0l0 17.1l-2.1 0l0-17.1zm5.6 17.1l0-11.7l2.1 0l0 11.7l-2.1 0zm2.4-14.9c0 .7-.5 1.3-1.4 1.3c-.7 0-1.2-.6-1.2-1.3c0-.8.5-1.3 1.3-1.3c.8 0 1.3.5 1.3 1.3zm9.7 14.9l-.2-1.5c0 0-.08 0-.1 0c-.6.9-1.9 1.7-3.5 1.7c-2.4 0-3.6-1.6-3.6-3.3c0-2.8 2.5-4.4 7-4.3c0 0 0-.3 0-.3c0-.9-.3-2.7-2.6-2.7c-1.1 0-2.2.4-3.1.9c0 0-.4-1.4-.4-1.4c.9-.6 2.3-1 3.8-1c3.5 0 4.4 2.4 4.4 4.7c0 0 0 4.4 0 4.4c0 1 0 2 .2 2.8c-.02-.04-1.9 0-1.9 0zm-.3-6c-2.4 0-5 .4-5 2.6c0 1.4.9 2.1 2 2.1c1.5 0 2.5-1 2.8-2c.1-.2.2-.4.2-.7c0 0 0-2 0-2zm7.8-9l0 3.3l3.1 0l0 1.7l-3.1 0c0 0 .05 6.22 0 6.2c0 1.5.5 2.3 1.6 2.3c.6 0 1-.1 1.3-.2c0 0 .1 1.6.1 1.6c-.5.2-1.1.3-1.9.3c-1 0-1.8-.3-2.3-.9c-.6-.6-.8-1.6-.8-3c-.02-.01 0-6.3 0-6.3l-1.8 0l0-1.7l1.8 0l0-2.7l2-.6zm5.4 15l0-11.7l2.2 0l0 11.7l-2.2 0zm2.4-14.9c0 .7-.5 1.3-1.3 1.3c-.8 0-1.3-.6-1.3-1.3c0-.8.5-1.3 1.3-1.3c.8 0 1.3.5 1.3 1.3zm13.8 9c0 4.3-3 6.1-5.8 6.1c-3.2 0-5.6-2.3-5.6-6c0-3.8 2.6-6.1 5.8-6.1c3.3 0 5.6 2.4 5.6 6zm-9.2.1c0 2.5 1.4 4.4 3.5 4.4c2 0 3.5-1.9 3.5-4.5c0-1.9-1-4.4-3.5-4.4c-2.5 0-3.5 2.3-3.5 4.5zm11.8-2.7c0-1.2 0-2.2-.1-3.2c.04.04 1.9 0 1.9 0l.1 2c0 0 .08-.04.1 0c.6-1.1 1.9-2.2 3.8-2.2c1.6 0 4.1.9 4.1 4.9c.03.03 0 7 0 7l-2.1 0c0 0 .01-6.74 0-6.7c0-1.9-.7-3.5-2.7-3.5c-1.4 0-2.4 1-2.8 2.2c-.1.3-.1.6-.1 1c-.05-.02 0 7 0 7l-2.2 0c0 0 .04-8.51 0-8.5zm12.9 7.2c0-.9.6-1.5 1.4-1.5c.8 0 1.4.6 1.4 1.5c0 .9-.5 1.5-1.4 1.5c-.9 0-1.4-.6-1.4-1.5z" stroke="none" fill="#3c3c3b"/></g><g id="Polygon5339"><path d="m8.2 269.6l-.2-1.5c0 0-.06 0-.1 0c-.6.9-1.9 1.7-3.5 1.7c-2.4 0-3.6-1.6-3.6-3.3c0-2.8 2.5-4.4 7-4.3c0 0 0-.3 0-.3c0-.9-.2-2.7-2.6-2.7c-1.1 0-2.2.4-3 .9c0 0-.5-1.4-.5-1.4c.9-.6 2.3-1 3.8-1c3.5 0 4.4 2.4 4.4 4.7c0 0 0 4.4 0 4.4c0 1 .1 2 .2 2.8c0-.04-1.9 0-1.9 0zm-.3-6c-2.3 0-4.9.4-4.9 2.6c0 1.4.9 2.1 1.9 2.1c1.6 0 2.5-1 2.9-2c0-.2.1-.4.1-.7c0 0 0-2 0-2zm5.4-2.5c0-1.2 0-2.2-.1-3.2c.02.04 1.9 0 1.9 0l.1 2c0 0 .06-.04.1 0c.5-1.1 1.9-2.2 3.8-2.2c1.6 0 4.1.9 4.1 4.9c.01.03 0 7 0 7l-2.1 0c0 0 0-6.74 0-6.7c0-1.9-.7-3.5-2.7-3.5c-1.4 0-2.5 1-2.8 2.2c-.1.3-.2.6-.2 1c.03-.02 0 7 0 7l-2.1 0c0 0 .02-8.51 0-8.5zm23.4-8.6c0 0-.03 14.06 0 14.1c0 1 0 2.2.1 3c-.03-.04-1.9 0-1.9 0l-.1-2.1c0 0-.07.04-.1 0c-.6 1.3-2 2.3-3.9 2.3c-2.8 0-5-2.4-5-5.9c0-3.8 2.4-6.2 5.2-6.2c1.8 0 3 .8 3.5 1.8c.01-.04.1 0 .1 0l0-7l2.1 0zm-2.1 10.2c0-.3-.1-.7-.1-.9c-.3-1.4-1.5-2.5-3.1-2.5c-2.2 0-3.5 2-3.5 4.5c0 2.4 1.2 4.3 3.5 4.3c1.4 0 2.7-.9 3.1-2.5c0-.3.1-.6.1-.9c0 0 0-2 0-2zm10.7-1.6c0-1.2-.1-2.2-.1-3.2c-.03.04 1.8 0 1.8 0l.1 1.9c0 0 .08.02.1 0c.6-1.1 1.7-2.1 3.6-2.1c1.6 0 2.8.9 3.3 2.3c0 0 .1 0 .1 0c.3-.6.8-1.1 1.3-1.5c.7-.5 1.4-.8 2.5-.8c1.6 0 3.8 1 3.8 5c.05.02 0 6.9 0 6.9l-2 0c0 0-.02-6.62 0-6.6c0-2.2-.8-3.6-2.5-3.6c-1.2 0-2.2.9-2.5 1.9c-.1.3-.2.7-.2 1.1c0-.02 0 7.2 0 7.2l-2.1 0c0 0 .04-7 0-7c0-1.8-.8-3.2-2.4-3.2c-1.3 0-2.3 1.1-2.6 2.1c-.1.3-.2.7-.2 1.1c.03-.05 0 7 0 7l-2 0c0 0-.04-8.51 0-8.5zm20 8.5l0-11.7l2.1 0l0 11.7l-2.1 0zm2.3-14.9c.1.7-.5 1.3-1.3 1.3c-.8 0-1.3-.6-1.3-1.3c0-.8.6-1.3 1.3-1.3c.8 0 1.3.5 1.3 1.3zm3 12.7c.6.4 1.7.8 2.8.8c1.5 0 2.2-.7 2.2-1.7c0-1-.6-1.5-2.1-2.1c-2.1-.8-3.1-1.9-3.1-3.3c0-1.9 1.5-3.4 4-3.4c1.2 0 2.2.3 2.9.7c0 0-.5 1.5-.5 1.5c-.5-.3-1.3-.6-2.4-.6c-1.3 0-2 .7-2 1.5c0 1 .7 1.4 2.2 2c2.1.8 3.1 1.8 3.1 3.5c0 2.1-1.6 3.5-4.4 3.5c-1.2 0-2.4-.3-3.2-.8c0 0 .5-1.6.5-1.6zm9.5 0c.6.4 1.7.8 2.8.8c1.5 0 2.3-.7 2.3-1.7c0-1-.6-1.5-2.2-2.1c-2.1-.8-3.1-1.9-3.1-3.3c0-1.9 1.5-3.4 4-3.4c1.2 0 2.2.3 2.9.7c0 0-.5 1.5-.5 1.5c-.5-.3-1.3-.6-2.4-.6c-1.3 0-2 .7-2 1.5c0 1 .7 1.4 2.2 2c2.1.8 3.1 1.8 3.1 3.5c0 2.1-1.6 3.5-4.4 3.5c-1.2 0-2.4-.3-3.2-.8c0 0 .5-1.6.5-1.6zm9.8 2.2l0-11.7l2.1 0l0 11.7l-2.1 0zm2.4-14.9c0 .7-.5 1.3-1.4 1.3c-.7 0-1.3-.6-1.3-1.3c0-.8.6-1.3 1.4-1.3c.8 0 1.3.5 1.3 1.3zm3.2 6.4c0-1.2 0-2.2-.1-3.2c.02.04 1.9 0 1.9 0l.1 2c0 0 .06-.04.1 0c.5-1.1 1.9-2.2 3.8-2.2c1.6 0 4.1.9 4.1 4.9c.01.03 0 7 0 7l-2.1 0c0 0-.01-6.74 0-6.7c0-1.9-.7-3.5-2.7-3.5c-1.4 0-2.5 1-2.8 2.2c-.1.3-.2.6-.2 1c.03-.02 0 7 0 7l-2.1 0c0 0 .02-8.51 0-8.5zm23.3-3.2c0 .9 0 1.8 0 3.2c0 0 0 6.8 0 6.8c0 2.6-.6 4.3-1.7 5.3c-1.1 1-2.8 1.4-4.2 1.4c-1.4 0-3-.4-3.9-1c0 0 .5-1.6.5-1.6c.8.5 2 .9 3.4.9c2.2 0 3.8-1.1 3.8-4c-.01-.03 0-1.3 0-1.3c0 0-.06-.03-.1 0c-.6 1-1.9 1.9-3.7 1.9c-2.8 0-4.9-2.4-4.9-5.7c0-3.9 2.6-6.1 5.2-6.1c2 0 3.2 1 3.7 2c-.05 0 0 0 0 0l.1-1.8c0 0 1.85.04 1.8 0zm-2.1 4.6c0-.3-.1-.6-.2-.9c-.3-1.3-1.4-2.3-2.9-2.3c-2 0-3.5 1.7-3.5 4.4c0 2.3 1.2 4.2 3.5 4.2c1.3 0 2.4-.8 2.9-2.2c.1-.3.2-.7.2-1.1c0 0 0-2.1 0-2.1zm20.7-10c0 0-.03 14.06 0 14.1c0 1 0 2.2.1 3c-.03-.04-1.9 0-1.9 0l-.1-2.1c0 0-.07.04-.1 0c-.6 1.3-2 2.3-3.9 2.3c-2.8 0-5-2.4-5-5.9c0-3.8 2.4-6.2 5.2-6.2c1.8 0 3 .8 3.5 1.8c.01-.04.1 0 .1 0l0-7l2.1 0zm-2.1 10.2c0-.3-.1-.7-.1-.9c-.3-1.4-1.5-2.5-3.1-2.5c-2.2 0-3.5 2-3.5 4.5c0 2.4 1.2 4.3 3.5 4.3c1.4 0 2.7-.9 3.1-2.5c0-.3.1-.6.1-.9c0 0 0-2 0-2zm16.1 1c0 4.3-3 6.1-5.8 6.1c-3.1 0-5.6-2.3-5.6-6c0-3.8 2.6-6.1 5.8-6.1c3.3 0 5.6 2.4 5.6 6zm-9.2.1c0 2.5 1.4 4.4 3.5 4.4c2 0 3.5-1.9 3.5-4.5c0-1.9-1-4.4-3.4-4.4c-2.5 0-3.6 2.3-3.6 4.5zm20.1 5.3c-.5.3-1.7.7-3.3.7c-3.5 0-5.8-2.4-5.8-5.9c0-3.6 2.5-6.2 6.3-6.2c1.2 0 2.3.3 2.9.6c0 0-.5 1.6-.5 1.6c-.5-.3-1.3-.5-2.4-.5c-2.7 0-4.1 2-4.1 4.4c0 2.7 1.7 4.3 4 4.3c1.2 0 2-.3 2.6-.6c0 0 .3 1.6.3 1.6zm12.2-2.7c0 1.2 0 2.2.1 3.2c.02-.04-1.9 0-1.9 0l-.1-1.9c0 0-.02-.04 0 0c-.6.9-1.8 2.1-3.9 2.1c-1.8 0-4-1-4-5.1c.03.04 0-6.8 0-6.8l2.1 0c0 0 .05 6.48 0 6.5c0 2.2.7 3.7 2.6 3.7c1.5 0 2.4-1 2.8-1.9c.1-.4.2-.7.2-1.1c.01-.03 0-7.2 0-7.2l2.1 0c0 0 .03 8.49 0 8.5zm3.5-5.3c0-1.2 0-2.2-.1-3.2c.03.04 1.9 0 1.9 0l.1 1.9c0 0 .05.02 0 0c.7-1.1 1.8-2.1 3.7-2.1c1.6 0 2.8.9 3.3 2.3c0 0 0 0 0 0c.4-.6.8-1.1 1.3-1.5c.7-.5 1.5-.8 2.6-.8c1.5 0 3.8 1 3.8 5c.01.02 0 6.9 0 6.9l-2.1 0c0 0 .05-6.62 0-6.6c0-2.2-.8-3.6-2.5-3.6c-1.2 0-2.1.9-2.5 1.9c-.1.3-.1.7-.1 1.1c-.03-.02 0 7.2 0 7.2l-2.1 0c0 0 0-7 0-7c0-1.8-.8-3.2-2.4-3.2c-1.3 0-2.3 1.1-2.6 2.1c-.2.3-.2.7-.2 1.1c-.01-.05 0 7 0 7l-2.1 0c0 0 .03-8.51 0-8.5zm21.2 3c.1 2.9 1.9 4.1 4 4.1c1.5 0 2.4-.3 3.2-.6c0 0 .4 1.5.4 1.5c-.8.3-2 .7-3.9.7c-3.6 0-5.7-2.4-5.7-5.9c0-3.5 2.1-6.2 5.5-6.2c3.7 0 4.8 3.3 4.8 5.5c0 .4-.1.7-.1.9c0 0-8.2 0-8.2 0zm6.2-1.5c0-1.3-.5-3.4-2.9-3.4c-2.2 0-3.1 2-3.3 3.4c0 0 6.2 0 6.2 0zm4.7-1.5c0-1.2-.1-2.2-.1-3.2c-.03.04 1.8 0 1.8 0l.2 2c0 0 .01-.04 0 0c.6-1.1 1.9-2.2 3.9-2.2c1.6 0 4.1.9 4.1 4.9c-.04.03 0 7 0 7l-2.2 0c0 0 .05-6.74 0-6.7c0-1.9-.7-3.5-2.6-3.5c-1.4 0-2.5 1-2.9 2.2c-.1.3-.1.6-.1 1c-.02-.02 0 7 0 7l-2.1 0c0 0-.03-8.51 0-8.5zm15.7-6.5l0 3.3l3.1 0l0 1.7l-3.1 0c0 0 .04 6.22 0 6.2c0 1.5.4 2.3 1.6 2.3c.6 0 1-.1 1.2-.2c0 0 .1 1.6.1 1.6c-.4.2-1 .3-1.8.3c-1 0-1.8-.3-2.3-.9c-.6-.6-.8-1.6-.8-3c-.03-.01 0-6.3 0-6.3l-1.8 0l0-1.7l1.8 0l0-2.7l2-.6zm5.1 12.8c.7.4 1.8.8 2.8.8c1.6 0 2.3-.7 2.3-1.7c0-1-.6-1.5-2.2-2.1c-2.1-.8-3-1.9-3-3.3c0-1.9 1.5-3.4 4-3.4c1.1 0 2.2.3 2.8.7c0 0-.5 1.5-.5 1.5c-.5-.3-1.3-.6-2.4-.6c-1.2 0-1.9.7-1.9 1.5c0 1 .7 1.4 2.2 2c2 .8 3 1.8 3 3.5c0 2.1-1.6 3.5-4.3 3.5c-1.3 0-2.5-.3-3.3-.8c0 0 .5-1.6.5-1.6zm14.9-6.3c0-1.2 0-2.2-.1-3.2c.03.04 1.9 0 1.9 0l.1 2c0 0 .07-.04.1 0c.5-1.1 1.9-2.2 3.8-2.2c1.6 0 4.1.9 4.1 4.9c.02.03 0 7 0 7l-2.1 0c0 0 .01-6.74 0-6.7c0-1.9-.7-3.5-2.7-3.5c-1.4 0-2.5 1-2.8 2.2c-.1.3-.2.6-.2 1c.04-.02 0 7 0 7l-2.1 0c0 0 .03-8.51 0-8.5zm14.5 3c.1 2.9 1.9 4.1 4 4.1c1.5 0 2.4-.3 3.2-.6c0 0 .4 1.5.4 1.5c-.8.3-2 .7-3.9.7c-3.6 0-5.7-2.4-5.7-5.9c0-3.5 2.1-6.2 5.5-6.2c3.7 0 4.8 3.3 4.8 5.5c0 .4-.1.7-.1.9c0 0-8.2 0-8.2 0zm6.2-1.5c0-1.3-.5-3.4-2.9-3.4c-2.1 0-3.1 2-3.3 3.4c0 0 6.2 0 6.2 0zm5.8 1.5c.1 2.9 1.9 4.1 4 4.1c1.5 0 2.5-.3 3.2-.6c0 0 .4 1.5.4 1.5c-.7.3-2 .7-3.9.7c-3.5 0-5.7-2.4-5.7-5.9c0-3.5 2.1-6.2 5.5-6.2c3.8 0 4.8 3.3 4.8 5.5c0 .4-.1.7-.1.9c0 0-8.2 0-8.2 0zm6.2-1.5c.1-1.3-.5-3.4-2.9-3.4c-2.1 0-3.1 2-3.2 3.4c0 0 6.1 0 6.1 0zm14.7-10.1c0 0 .03 14.06 0 14.1c0 1 .1 2.2.1 3c.02-.04-1.9 0-1.9 0l-.1-2.1c0 0-.02.04 0 0c-.7 1.3-2.1 2.3-4 2.3c-2.8 0-4.9-2.4-4.9-5.9c-.1-3.8 2.3-6.2 5.2-6.2c1.7 0 2.9.8 3.5 1.8c-.03-.04 0 0 0 0l0-7l2.1 0zm-2.1 10.2c0-.3 0-.7-.1-.9c-.3-1.4-1.4-2.5-3-2.5c-2.2 0-3.5 2-3.5 4.5c0 2.4 1.1 4.3 3.4 4.3c1.4 0 2.7-.9 3.1-2.5c.1-.3.1-.6.1-.9c0 0 0-2 0-2zm5.3 4.7c.7.4 1.8.8 2.8.8c1.6 0 2.3-.7 2.3-1.7c0-1-.6-1.5-2.2-2.1c-2.1-.8-3-1.9-3-3.3c0-1.9 1.5-3.4 4-3.4c1.1 0 2.2.3 2.8.7c0 0-.5 1.5-.5 1.5c-.5-.3-1.3-.6-2.4-.6c-1.2 0-1.9.7-1.9 1.5c0 1 .7 1.4 2.2 2c2 .8 3 1.8 3 3.5c0 2.1-1.6 3.5-4.3 3.5c-1.3 0-2.5-.3-3.3-.8c0 0 .5-1.6.5-1.6zm17.5-12.8l0 3.3l3 0l0 1.7l-3 0c0 0-.03 6.22 0 6.2c0 1.5.4 2.3 1.6 2.3c.5 0 .9-.1 1.2-.2c0 0 .1 1.6.1 1.6c-.4.2-1.1.3-1.9.3c-1 0-1.8-.3-2.3-.9c-.6-.6-.8-1.6-.8-3c0-.01 0-6.3 0-6.3l-1.8 0l0-1.7l1.8 0l0-2.7l2.1-.6zm15.7 9.1c0 4.3-2.9 6.1-5.7 6.1c-3.2 0-5.6-2.3-5.6-6c0-3.8 2.5-6.1 5.7-6.1c3.4 0 5.6 2.4 5.6 6zm-9.2.1c0 2.5 1.5 4.4 3.5 4.4c2.1 0 3.6-1.9 3.6-4.5c0-1.9-1-4.4-3.5-4.4c-2.5 0-3.6 2.3-3.6 4.5zm16.9 5.8c0-.8.1-2 .1-3c-.01-.04 0-14.1 0-14.1l2.1 0l0 7.3c0 0 .02.02 0 0c.8-1.3 2.1-2.1 4-2.1c2.9 0 4.9 2.4 4.9 5.9c0 4.2-2.6 6.2-5.2 6.2c-1.7 0-3.1-.6-3.9-2.2c-.02.04-.1 0-.1 0l-.1 2c0 0-1.81-.04-1.8 0zm2.2-4.7c0 .3 0 .5.1.8c.4 1.4 1.6 2.4 3.1 2.4c2.2 0 3.6-1.8 3.6-4.4c0-2.3-1.2-4.3-3.5-4.3c-1.4 0-2.8.9-3.2 2.6c-.1.2-.1.5-.1.8c0 0 0 2.1 0 2.1zm12.7-.8c.1 2.9 1.9 4.1 4 4.1c1.5 0 2.4-.3 3.2-.6c0 0 .4 1.5.4 1.5c-.8.3-2 .7-3.9.7c-3.6 0-5.7-2.4-5.7-5.9c0-3.5 2.1-6.2 5.5-6.2c3.7 0 4.8 3.3 4.8 5.5c0 .4-.1.7-.1.9c0 0-8.2 0-8.2 0zm6.2-1.5c0-1.3-.5-3.4-2.9-3.4c-2.2 0-3.1 2-3.3 3.4c0 0 6.2 0 6.2 0zm12.3-8l0 3.3l3 0l0 1.7l-3 0c0 0 0 6.22 0 6.2c0 1.5.4 2.3 1.6 2.3c.5 0 .9-.1 1.2-.2c0 0 .1 1.6.1 1.6c-.4.2-1.1.3-1.9.3c-1 0-1.7-.3-2.2-.9c-.6-.6-.9-1.6-.9-3c.03-.01 0-6.3 0-6.3l-1.8 0l0-1.7l1.8 0l0-2.7l2.1-.6zm5.4 7c0-1.4 0-2.6-.1-3.7c0 .04 1.9 0 1.9 0l0 2.3c0 0 .12.02.1 0c.5-1.5 1.8-2.5 3.2-2.5c.3 0 .4 0 .6.1c0 0 0 1.9 0 1.9c-.2 0-.4 0-.7 0c-1.5 0-2.5 1.1-2.8 2.7c-.1.3-.1.6-.1 1c-.01-.03 0 6.2 0 6.2l-2.1 0c0 0 0-8.03 0-8zm14.2 8l-.2-1.5c0 0-.08 0-.1 0c-.6.9-1.9 1.7-3.5 1.7c-2.4 0-3.6-1.6-3.6-3.3c0-2.8 2.5-4.4 7-4.3c0 0 0-.3 0-.3c0-.9-.3-2.7-2.6-2.7c-1.1 0-2.2.4-3.1.9c0 0-.4-1.4-.4-1.4c.9-.6 2.3-1 3.8-1c3.5 0 4.4 2.4 4.4 4.7c0 0 0 4.4 0 4.4c0 1 0 2 .2 2.8c-.02-.04-1.9 0-1.9 0zm-.4-6c-2.3 0-4.9.4-4.9 2.6c0 1.4.9 2.1 2 2.1c1.5 0 2.5-1 2.8-2c.1-.2.1-.4.1-.7c0 0 0-2 0-2zm13.8 5.5c-.6.3-1.8.7-3.4.7c-3.5 0-5.7-2.4-5.7-5.9c0-3.6 2.4-6.2 6.2-6.2c1.2 0 2.3.3 2.9.6c0 0-.5 1.6-.5 1.6c-.5-.3-1.3-.5-2.4-.5c-2.7 0-4.1 2-4.1 4.4c0 2.7 1.7 4.3 4 4.3c1.2 0 2-.3 2.6-.6c0 0 .4 1.6.4 1.6zm4.5-5.8c0 0 .08-.03.1 0c.3-.4.7-.9 1-1.3c.01-.05 3.4-4.1 3.4-4.1l2.6 0l-4.5 4.8l5.1 6.9l-2.6 0l-4-5.6l-1.1 1.2l0 4.4l-2.1 0l0-17.1l2.1 0l0 10.8zm10.4.8c0 2.9 1.9 4.1 4 4.1c1.5 0 2.4-.3 3.2-.6c0 0 .3 1.5.3 1.5c-.7.3-2 .7-3.8.7c-3.6 0-5.7-2.4-5.7-5.9c0-3.5 2-6.2 5.4-6.2c3.8 0 4.8 3.3 4.8 5.5c0 .4 0 .7-.1.9c0 0-8.1 0-8.1 0zm6.2-1.5c0-1.3-.6-3.4-3-3.4c-2.1 0-3 2-3.2 3.4c0 0 6.2 0 6.2 0zm14.7-10.1c0 0-.04 14.06 0 14.1c0 1 0 2.2.1 3c-.05-.04-1.9 0-1.9 0l-.1-2.1c0 0-.09.04-.1 0c-.6 1.3-2 2.3-3.9 2.3c-2.9 0-5-2.4-5-5.9c0-3.8 2.4-6.2 5.2-6.2c1.8 0 3 .8 3.5 1.8c0-.04 0 0 0 0l0-7l2.2 0zm-2.2 10.2c0-.3 0-.7 0-.9c-.4-1.4-1.5-2.5-3.1-2.5c-2.2 0-3.5 2-3.5 4.5c0 2.4 1.2 4.3 3.5 4.3c1.4 0 2.7-.9 3.1-2.5c0-.3 0-.6 0-.9c0 0 0-2 0-2zm11 6.9l0-10l-1.7 0l0-1.7l1.7 0c0 0-.03-.51 0-.5c0-1.6.3-3.1 1.3-4.1c.8-.7 1.9-1 2.8-1c.8 0 1.4.1 1.8.3c0 0-.2 1.6-.2 1.6c-.4-.1-.8-.2-1.4-.2c-1.8 0-2.2 1.5-2.2 3.3c-.05.02 0 .6 0 .6l2.8 0l0 1.7l-2.8 0l0 10l-2.1 0zm17-5.9c0 4.3-3 6.1-5.8 6.1c-3.2 0-5.6-2.3-5.6-6c0-3.8 2.6-6.1 5.8-6.1c3.3 0 5.6 2.4 5.6 6zm-9.3.1c0 2.5 1.5 4.4 3.6 4.4c2 0 3.5-1.9 3.5-4.5c0-1.9-1-4.4-3.5-4.4c-2.5 0-3.6 2.3-3.6 4.5zm11.9-2.2c0-1.4 0-2.6-.1-3.7c.03.04 1.9 0 1.9 0l0 2.3c0 0 .14.02.1 0c.6-1.5 1.8-2.5 3.3-2.5c.2 0 .4 0 .6.1c0 0 0 1.9 0 1.9c-.3 0-.5 0-.8 0c-1.4 0-2.5 1.1-2.8 2.7c0 .3-.1.6-.1 1c.01-.03 0 6.2 0 6.2l-2.1 0c0 0 .02-8.03 0-8zm19.4 8l-.2-1.5c0 0-.05 0-.1 0c-.6.9-1.8 1.7-3.5 1.7c-2.4 0-3.6-1.6-3.6-3.3c0-2.8 2.5-4.4 7-4.3c0 0 0-.3 0-.3c0-.9-.2-2.7-2.6-2.7c-1.1 0-2.2.4-3 .9c0 0-.5-1.4-.5-1.4c.9-.6 2.3-1 3.8-1c3.6 0 4.4 2.4 4.4 4.7c0 0 0 4.4 0 4.4c0 1 .1 2 .2 2.8c.01-.04-1.9 0-1.9 0zm-.3-6c-2.3 0-4.9.4-4.9 2.6c0 1.4.9 2.1 1.9 2.1c1.6 0 2.5-1 2.9-2c0-.2.1-.4.1-.7c0 0 0-2 0-2zm6-5.7c0 0 2.33 6.57 2.3 6.6c.4 1 .7 2 1 2.9c0 0 0 0 0 0c.3-.9.6-1.9 1-2.9c.02-.03 2.3-6.6 2.3-6.6l2.2 0l-4.6 11.7l-2 0l-4.4-11.7l2.2 0zm17.1 11.7l-.2-1.5c0 0-.03 0 0 0c-.7.9-1.9 1.7-3.6 1.7c-2.3 0-3.5-1.6-3.5-3.3c0-2.8 2.5-4.4 7-4.3c0 0 0-.3 0-.3c0-.9-.3-2.7-2.7-2.7c-1.1 0-2.2.4-3 .9c0 0-.5-1.4-.5-1.4c1-.6 2.4-1 3.8-1c3.6 0 4.4 2.4 4.4 4.7c0 0 0 4.4 0 4.4c0 1 .1 2 .2 2.8c.03-.04-1.9 0-1.9 0zm-.3-6c-2.3 0-4.9.4-4.9 2.6c0 1.4.9 2.1 2 2.1c1.5 0 2.4-1 2.8-2c.1-.2.1-.4.1-.7c0 0 0-2 0-2zm5.4 6l0-11.7l2.2 0l0 11.7l-2.2 0zm2.4-14.9c0 .7-.5 1.3-1.3 1.3c-.8 0-1.3-.6-1.3-1.3c0-.8.5-1.3 1.3-1.3c.8 0 1.3.5 1.3 1.3zm3.3-2.2l2.1 0l0 17.1l-2.1 0l0-17.1zm5.6 17.1l0-11.7l2.1 0l0 11.7l-2.1 0zm2.4-14.9c0 .7-.5 1.3-1.4 1.3c-.7 0-1.2-.6-1.2-1.3c0-.8.5-1.3 1.3-1.3c.8 0 1.3.5 1.3 1.3zm3.2 6.4c0-1.2 0-2.2-.1-3.2c.05.04 1.9 0 1.9 0l.1 2c0 0 .09-.04.1 0c.6-1.1 1.9-2.2 3.8-2.2c1.6 0 4.1.9 4.1 4.9c.03.03 0 7 0 7l-2.1 0c0 0 .02-6.74 0-6.7c0-1.9-.7-3.5-2.7-3.5c-1.4 0-2.4 1-2.8 2.2c-.1.3-.1.6-.1 1c-.04-.02 0 7 0 7l-2.2 0c0 0 .04-8.51 0-8.5zm23.4-3.2c-.1.9-.1 1.8-.1 3.2c0 0 0 6.8 0 6.8c0 2.6-.6 4.3-1.7 5.3c-1.1 1-2.7 1.4-4.2 1.4c-1.4 0-2.9-.4-3.9-1c0 0 .6-1.6.6-1.6c.7.5 1.9.9 3.4.9c2.1 0 3.7-1.1 3.7-4c.01-.03 0-1.3 0-1.3c0 0-.04-.03 0 0c-.7 1-1.9 1.9-3.7 1.9c-2.9 0-5-2.4-5-5.7c0-3.9 2.6-6.1 5.3-6.1c2 0 3.1 1 3.6 2c-.02 0 0 0 0 0l.1-1.8c0 0 1.87.04 1.9 0zm-2.2 4.6c0-.3 0-.6-.1-.9c-.4-1.3-1.4-2.3-3-2.3c-2 0-3.4 1.7-3.4 4.4c0 2.3 1.1 4.2 3.4 4.2c1.3 0 2.5-.8 2.9-2.2c.1-.3.2-.7.2-1.1c0 0 0-2.1 0-2.1z" stroke="none" fill="#3c3c3b"/></g><g id="Polygon5338"><path d="m13.1 228.6c0 4.3-3.1 6.2-6.2 6.2c-3.5 0-6.1-2.2-6.1-6c0-3.8 2.5-6.2 6.3-6.2c3.6 0 6 2.4 6 6zm-8.5.1c0 2 .8 3.5 2.4 3.5c1.4 0 2.3-1.4 2.3-3.5c0-1.8-.7-3.5-2.3-3.5c-1.8 0-2.4 1.8-2.4 3.5zm10.7-2.1c0-1.5 0-2.7-.1-3.8c.02.02 3.2 0 3.2 0l.2 1.6c0 0 .02.03 0 0c.5-.7 1.7-1.8 3.6-1.8c2.4 0 4.2 1.5 4.2 5c.05 0 0 7 0 7l-3.6 0c0 0 0-6.54 0-6.5c0-1.6-.5-2.6-1.8-2.6c-1.1 0-1.7.7-1.9 1.4c-.1.2-.1.6-.1.9c-.04-.01 0 6.8 0 6.8l-3.7 0c0 0 .01-8.03 0-8zm18.9 0c0-1.5 0-2.7-.1-3.8c.03.02 3.1 0 3.1 0l.2 1.6c0 0 .04.01 0 0c.5-.7 1.6-1.8 3.6-1.8c1.5 0 2.7.7 3.2 2c0 0 .1 0 .1 0c.4-.6.9-1.1 1.5-1.5c.6-.3 1.3-.5 2.2-.5c2.3 0 4 1.5 4 5c-.04.05 0 7 0 7l-3.6 0c0 0 .01-6.42 0-6.4c0-1.7-.5-2.7-1.7-2.7c-.9 0-1.5.6-1.7 1.3c-.1.2-.1.6-.1.9c-.04 0 0 6.9 0 6.9l-3.6 0c0 0 0-6.62 0-6.6c0-1.5-.5-2.5-1.7-2.5c-.9 0-1.5.7-1.7 1.3c-.1.3-.1.6-.1.9c-.02.02 0 6.9 0 6.9l-3.6 0c0 0 .02-8.03 0-8zm32.3 2c0 4.3-3.1 6.2-6.2 6.2c-3.5 0-6.1-2.2-6.1-6c0-3.8 2.5-6.2 6.3-6.2c3.6 0 6 2.4 6 6zm-8.5.1c0 2 .8 3.5 2.4 3.5c1.4 0 2.3-1.4 2.3-3.5c0-1.8-.7-3.5-2.3-3.5c-1.8 0-2.4 1.8-2.4 3.5zm10.7-2.1c0-1.5 0-2.7-.1-3.8c.02.02 3.2 0 3.2 0l.2 1.6c0 0 .02.03 0 0c.5-.7 1.7-1.8 3.6-1.8c2.4 0 4.2 1.5 4.2 5c.05 0 0 7 0 7l-3.6 0c0 0 0-6.54 0-6.5c0-1.6-.5-2.6-1.8-2.6c-1.1 0-1.7.7-1.9 1.4c-.1.2-.1.6-.1.9c-.04-.01 0 6.8 0 6.8l-3.7 0c0 0 .01-8.03 0-8zm18-7.1l0 3.3l2.6 0l0 2.7l-2.6 0c0 0 .01 4.26 0 4.3c0 1.4.3 2 1.5 2c.4 0 .8 0 1-.1c0 0 .1 2.8.1 2.8c-.5.2-1.4.3-2.4.3c-1.2 0-2.2-.4-2.8-1c-.6-.7-1-1.8-1-3.5c.04.01 0-4.8 0-4.8l-1.5 0l0-2.7l1.5 0l0-2.5l3.6-.8zm4.7-2l3.7 0l0 6.7c0 0 .04.02 0 0c.4-.5.9-.9 1.5-1.2c.5-.3 1.2-.4 1.9-.4c2.3 0 4.1 1.6 4.1 5.1c-.02 0 0 6.9 0 6.9l-3.7 0c0 0 .03-6.49 0-6.5c0-1.5-.5-2.6-1.9-2.6c-.9 0-1.5.6-1.8 1.3c-.1.2-.1.5-.1.8c-.01 0 0 7 0 7l-3.7 0l0-17.1zm30.5 11.1c0 4.3-3 6.2-6.1 6.2c-3.5 0-6.1-2.2-6.1-6c0-3.8 2.5-6.2 6.2-6.2c3.6 0 6 2.4 6 6zm-8.5.1c0 2 .9 3.5 2.4 3.5c1.5 0 2.4-1.4 2.4-3.5c0-1.8-.7-3.5-2.4-3.5c-1.7 0-2.4 1.8-2.4 3.5zm10.8-2.1c0-1.5 0-2.7-.1-3.8c0 .02 3.2 0 3.2 0l.1 1.6c0 0 .11.03.1 0c.5-.7 1.7-1.8 3.6-1.8c2.4 0 4.2 1.5 4.2 5c.03 0 0 7 0 7l-3.6 0c0 0-.01-6.54 0-6.5c0-1.6-.5-2.6-1.9-2.6c-1 0-1.6.7-1.8 1.4c-.1.2-.2.6-.2.9c.05-.01 0 6.8 0 6.8l-3.6 0c0 0 0-8.03 0-8zm18.9 0c0-1.5 0-2.7-.1-3.8c.01.02 3.1 0 3.1 0l.2 1.6c0 0 .03.01 0 0c.5-.7 1.6-1.8 3.6-1.8c1.5 0 2.7.7 3.2 2c0 0 0 0 0 0c.5-.6 1-1.1 1.6-1.5c.6-.3 1.3-.5 2.2-.5c2.2 0 3.9 1.5 3.9 5c.05.05 0 7 0 7l-3.5 0c0 0-.01-6.42 0-6.4c0-1.7-.6-2.7-1.7-2.7c-.9 0-1.5.6-1.7 1.3c-.1.2-.2.6-.2.9c.04 0 0 6.9 0 6.9l-3.5 0c0 0-.01-6.62 0-6.6c0-1.5-.5-2.5-1.7-2.5c-.9 0-1.5.7-1.7 1.3c-.1.3-.1.6-.1.9c-.04.02 0 6.9 0 6.9l-3.6 0c0 0 .01-8.03 0-8zm32.2 2c0 4.3-3 6.2-6.1 6.2c-3.5 0-6.1-2.2-6.1-6c0-3.8 2.5-6.2 6.2-6.2c3.6 0 6 2.4 6 6zm-8.5.1c0 2 .9 3.5 2.4 3.5c1.5 0 2.4-1.4 2.4-3.5c0-1.8-.7-3.5-2.4-3.5c-1.7 0-2.4 1.8-2.4 3.5zm10.8-2.1c0-1.5 0-2.7-.1-3.8c0 .02 3.2 0 3.2 0l.1 1.6c0 0 .11.03.1 0c.5-.7 1.7-1.8 3.6-1.8c2.4 0 4.2 1.5 4.2 5c.03 0 0 7 0 7l-3.6 0c0 0-.01-6.54 0-6.5c0-1.6-.5-2.6-1.9-2.6c-1 0-1.6.7-1.8 1.4c-.1.2-.2.6-.2.9c.05-.01 0 6.8 0 6.8l-3.6 0c0 0 0-8.03 0-8zm18-7.1l0 3.3l2.6 0l0 2.7l-2.6 0c0 0 0 4.26 0 4.3c0 1.4.3 2 1.4 2c.5 0 .9 0 1.1-.1c0 0 0 2.8 0 2.8c-.4.2-1.3.3-2.3.3c-1.2 0-2.2-.4-2.8-1c-.6-.7-1-1.8-1-3.5c.02.01 0-4.8 0-4.8l-1.5 0l0-2.7l1.5 0l0-2.5l3.6-.8zm4.7-2l3.7 0l0 6.7c0 0 .02.02 0 0c.4-.5.9-.9 1.5-1.2c.5-.3 1.2-.4 1.9-.4c2.3 0 4.1 1.6 4.1 5.1c-.04 0 0 6.9 0 6.9l-3.7 0c0 0 .01-6.49 0-6.5c0-1.5-.5-2.6-1.9-2.6c-.9 0-1.5.6-1.8 1.3c-.1.2-.1.5-.1.8c-.03 0 0 7 0 7l-3.7 0l0-17.1zm18.8 17.1c.1-.8.1-2.2.1-3.5c.04-.04 0-13.6 0-13.6l3.7 0l0 6.7c0 0 .03.02 0 0c.7-1 2-1.6 3.6-1.6c2.8 0 4.9 2.3 4.8 5.9c0 4.2-2.7 6.3-5.3 6.3c-1.4 0-2.7-.5-3.6-1.9c.03.03 0 0 0 0l-.2 1.7c0 0-3.06-.04-3.1 0zm3.8-5c0 .2 0 .4.1.6c.2 1 1 1.7 2.1 1.7c1.6 0 2.5-1.2 2.5-3.3c0-1.8-.8-3.2-2.5-3.2c-1 0-1.9.7-2.1 1.8c-.1.2-.1.4-.1.6c0 0 0 1.8 0 1.8zm17.4 5l-.3-1.2c0 0-.03-.01 0 0c-.8.9-2 1.4-3.4 1.4c-2.4 0-3.8-1.7-3.8-3.6c0-3 2.8-4.5 6.9-4.5c0 0 0-.1 0-.1c0-.7-.3-1.5-2.1-1.5c-1.2 0-2.5.4-3.3.8c0 0-.6-2.3-.6-2.3c.8-.5 2.4-1 4.5-1c3.9 0 5.2 2.3 5.2 5c0 0 0 4.1 0 4.1c0 1.1 0 2.2.1 2.9c.05-.04-3.2 0-3.2 0zm-.5-5.6c-1.9 0-3.4.4-3.4 1.9c0 .9.6 1.4 1.5 1.4c.9 0 1.6-.6 1.9-1.4c0-.2 0-.4 0-.6c0 0 0-1.3 0-1.3zm6.4 2.4c.7.4 2.1.9 3.2.9c1.1 0 1.5-.4 1.5-1c0-.6-.3-.9-1.7-1.4c-2.4-.8-3.3-2.1-3.3-3.5c0-2.2 1.8-3.8 4.8-3.8c1.3 0 2.5.3 3.3.6c0 0-.7 2.6-.7 2.6c-.5-.3-1.5-.7-2.5-.7c-.9 0-1.4.3-1.4.9c0 .6.4.9 1.9 1.4c2.2.8 3.1 1.9 3.2 3.6c0 2.2-1.8 3.8-5.1 3.8c-1.6 0-2.9-.3-3.8-.8c0 0 .6-2.6.6-2.6zm10.5 3.2l0-11.8l3.6 0l0 11.8l-3.6 0zm3.7-15c0 1-.7 1.8-1.9 1.8c-1.2 0-1.9-.8-1.9-1.8c0-1.1.7-1.9 1.9-1.9c1.2 0 1.9.8 1.9 1.9zm2.8 11.8c.7.4 2.1.9 3.2.9c1.1 0 1.5-.4 1.5-1c0-.6-.3-.9-1.7-1.4c-2.4-.8-3.4-2.1-3.3-3.5c0-2.2 1.8-3.8 4.7-3.8c1.4 0 2.6.3 3.4.6c0 0-.7 2.6-.7 2.6c-.5-.3-1.5-.7-2.5-.7c-.9 0-1.4.3-1.4.9c0 .6.4.9 1.9 1.4c2.2.8 3.1 1.9 3.2 3.6c0 2.2-1.8 3.8-5.1 3.8c-1.6 0-2.9-.3-3.8-.8c0 0 .6-2.6.6-2.6zm19.4-11.9l0 3.3l2.6 0l0 2.7l-2.6 0c0 0 0 4.26 0 4.3c0 1.4.3 2 1.4 2c.5 0 .9 0 1.1-.1c0 0 0 2.8 0 2.8c-.4.2-1.3.3-2.3.3c-1.2 0-2.2-.4-2.8-1c-.6-.7-1-1.8-1-3.5c.02.01 0-4.8 0-4.8l-1.5 0l0-2.7l1.5 0l0-2.5l3.6-.8zm16.2 9.1c0 4.3-3.1 6.2-6.2 6.2c-3.4 0-6.1-2.2-6.1-6c0-3.8 2.5-6.2 6.3-6.2c3.6 0 6 2.4 6 6zm-8.5.1c0 2 .8 3.5 2.4 3.5c1.4 0 2.3-1.4 2.3-3.5c0-1.8-.6-3.5-2.3-3.5c-1.8 0-2.4 1.8-2.4 3.5zm15.6-2.1c0-1.5 0-2.7-.1-3.8c0 .02 3.1 0 3.1 0l.1 1.6c0 0 .12.01.1 0c.5-.7 1.6-1.8 3.6-1.8c1.5 0 2.7.7 3.2 2c0 0 0 0 0 0c.5-.6 1-1.1 1.5-1.5c.7-.3 1.4-.5 2.3-.5c2.2 0 3.9 1.5 3.9 5c.04.05 0 7 0 7l-3.5 0c0 0-.02-6.42 0-6.4c0-1.7-.6-2.7-1.7-2.7c-.9 0-1.5.6-1.7 1.3c-.1.2-.2.6-.2.9c.03 0 0 6.9 0 6.9l-3.5 0c0 0-.02-6.62 0-6.6c0-1.5-.5-2.5-1.7-2.5c-.9 0-1.5.7-1.7 1.3c-.1.3-.1.6-.1.9c-.05.02 0 6.9 0 6.9l-3.6 0c0 0 0-8.03 0-8zm27.3 8l-.2-1.2c0 0-.08-.01-.1 0c-.7.9-1.9 1.4-3.3 1.4c-2.4 0-3.8-1.7-3.8-3.6c0-3 2.7-4.5 6.9-4.5c0 0 0-.1 0-.1c0-.7-.4-1.5-2.2-1.5c-1.2 0-2.4.4-3.2.8c0 0-.7-2.3-.7-2.3c.8-.5 2.4-1 4.6-1c3.9 0 5.1 2.3 5.1 5c0 0 0 4.1 0 4.1c0 1.1.1 2.2.2 2.9c0-.04-3.3 0-3.3 0zm-.4-5.6c-1.9 0-3.4.4-3.4 1.9c0 .9.6 1.4 1.4 1.4c.9 0 1.7-.6 1.9-1.4c.1-.2.1-.4.1-.6c0 0 0-1.3 0-1.3zm9.2-6.2c0 0 1.15 1.97 1.1 2c.4.6.7 1.2 1 1.7c0 0 .1 0 .1 0c.3-.6.6-1.2.9-1.8c-.03.02 1-1.9 1-1.9l4 0l-3.9 5.6l3.9 6.2l-4.1 0c0 0-1.2-2.15-1.2-2.2c-.3-.5-.6-1.1-.9-1.7c0 0-.1 0-.1 0c-.3.6-.6 1.2-.9 1.7c.03.05-1.1 2.2-1.1 2.2l-4 0l4-6l-3.9-5.8l4.1 0zm9.7 11.8l0-11.8l3.6 0l0 11.8l-3.6 0zm3.7-15c0 1-.7 1.8-1.9 1.8c-1.2 0-2-.8-1.9-1.8c-.1-1.1.7-1.9 1.9-1.9c1.2 0 1.9.8 1.9 1.9zm2.8 7c0-1.5 0-2.7-.1-3.8c.05.02 3.1 0 3.1 0l.2 1.6c0 0 .06.01.1 0c.5-.7 1.5-1.8 3.5-1.8c1.5 0 2.7.7 3.2 2c0 0 .1 0 .1 0c.4-.6.9-1.1 1.5-1.5c.6-.3 1.4-.5 2.2-.5c2.3 0 4 1.5 4 5c-.02.05 0 7 0 7l-3.6 0c0 0 .03-6.42 0-6.4c0-1.7-.5-2.7-1.7-2.7c-.8 0-1.4.6-1.7 1.3c-.1.2-.1.6-.1.9c-.02 0 0 6.9 0 6.9l-3.6 0c0 0 .02-6.62 0-6.6c0-1.5-.5-2.5-1.7-2.5c-.9 0-1.4.7-1.7 1.3c-.1.3-.1.6-.1.9c0 .02 0 6.9 0 6.9l-3.6 0c0 0 .04-8.03 0-8zm20.7 8l0-11.8l3.6 0l0 11.8l-3.6 0zm3.8-15c0 1-.8 1.8-2 1.8c-1.2 0-1.9-.8-1.9-1.8c0-1.1.7-1.9 1.9-1.9c1.2 0 1.9.8 2 1.9zm1.8 12.9c0 0 3.72-4.66 3.7-4.7c.7-.8 1.2-1.3 1.9-2c-.01-.05 0-.1 0-.1l-5.2 0l0-2.9l9.6 0l0 2.2c0 0-3.5 4.45-3.5 4.4c-.6.8-1.2 1.6-1.9 2.2c-.02.01 0 .1 0 .1l5.6 0l0 2.9l-10.2 0l0-2.1zm14.9-2.6c.1 1.5 1.6 2.2 3.3 2.2c1.2 0 2.2-.2 3.2-.5c0 0 .5 2.5.5 2.5c-1.2.5-2.7.7-4.3.7c-3.9 0-6.2-2.3-6.2-6c0-3 1.8-6.2 5.9-6.2c3.8 0 5.2 2.9 5.2 5.8c0 .6 0 1.2-.1 1.5c0 0-7.5 0-7.5 0zm4.3-2.5c0-.9-.4-2.4-2.1-2.4c-1.5 0-2.2 1.4-2.3 2.4c0 0 4.4 0 4.4 0zm14.4-7.9l0 3.3l2.7 0l0 2.7l-2.7 0c0 0 .05 4.26 0 4.3c0 1.4.4 2 1.5 2c.4 0 .8 0 1.1-.1c0 0 0 2.8 0 2.8c-.5.2-1.4.3-2.4.3c-1.2 0-2.1-.4-2.7-1c-.7-.7-1-1.8-1-3.5c-.03.01 0-4.8 0-4.8l-1.6 0l0-2.7l1.6 0l0-2.5l3.5-.8zm4.8-2l3.6 0l0 6.7c0 0 .07.02.1 0c.4-.5.8-.9 1.4-1.2c.5-.3 1.2-.4 1.9-.4c2.3 0 4.1 1.6 4.1 5.1c.01 0 0 6.9 0 6.9l-3.6 0c0 0-.04-6.49 0-6.5c0-1.5-.6-2.6-1.9-2.6c-1 0-1.6.6-1.9 1.3c-.1.2-.1.5-.1.8c.02 0 0 7 0 7l-3.6 0l0-17.1zm16.8 12.4c.2 1.5 1.7 2.2 3.4 2.2c1.2 0 2.2-.2 3.2-.5c0 0 .5 2.5.5 2.5c-1.2.5-2.7.7-4.3.7c-4 0-6.2-2.3-6.2-6c0-3 1.8-6.2 5.9-6.2c3.8 0 5.2 2.9 5.2 5.8c0 .6 0 1.2-.1 1.5c0 0-7.6 0-7.6 0zm4.3-2.5c0-.9-.3-2.4-2-2.4c-1.6 0-2.2 1.4-2.3 2.4c0 0 4.3 0 4.3 0zm14.3-9l0 16.2l-3.7 0l0-16.2l3.7 0zm6.2 3.1l-4.3 0l0-3.1l12.4 0l0 3.1l-4.4 0l0 13.1l-3.7 0l0-13.1zm21.3 12.6c-.7.3-2.2.7-4.2.7c-5.6 0-8.5-3.5-8.5-8.1c0-5.5 4-8.6 8.9-8.6c1.9 0 3.3.4 3.9.7c0 0-.7 2.9-.7 2.9c-.7-.3-1.8-.6-3.1-.6c-2.9 0-5.1 1.8-5.1 5.4c0 3.2 1.9 5.3 5.2 5.3c1.1 0 2.3-.3 3-.6c0 0 .6 2.9.6 2.9zm15.9.2c-.7.3-1.9.5-3.3.5c-3.8 0-6.2-2.3-6.2-6c0-3.4 2.4-6.2 6.7-6.2c1 0 2 .1 2.8.4c0 0-.6 2.7-.6 2.7c-.4-.2-1-.3-2-.3c-1.9 0-3.2 1.3-3.1 3.3c0 2.1 1.4 3.2 3.2 3.2c.8 0 1.5-.1 2.1-.3c0 0 .4 2.7.4 2.7zm2-16.8l3.7 0l0 17.1l-3.7 0l0-17.1zm13.3 17.1l-.2-1.2c0 0-.11-.01-.1 0c-.8.9-2 1.4-3.4 1.4c-2.3 0-3.8-1.7-3.8-3.6c0-3 2.8-4.5 6.9-4.5c0 0 0-.1 0-.1c0-.7-.3-1.5-2.1-1.5c-1.2 0-2.5.4-3.3.8c0 0-.6-2.3-.6-2.3c.8-.5 2.4-1 4.5-1c3.9 0 5.2 2.3 5.2 5c0 0 0 4.1 0 4.1c0 1.1 0 2.2.2 2.9c-.03-.04-3.3 0-3.3 0zm-.5-5.6c-1.9 0-3.4.4-3.4 1.9c0 .9.7 1.4 1.5 1.4c.9 0 1.6-.6 1.9-1.4c0-.2 0-.4 0-.6c0 0 0-1.3 0-1.3zm6.5 5.6l0-11.8l3.6 0l0 11.8l-3.6 0zm3.7-15c0 1-.7 1.8-1.9 1.8c-1.2 0-1.9-.8-1.9-1.8c0-1.1.7-1.9 1.9-1.9c1.2 0 1.9.8 1.9 1.9zm2.9 7c0-1.5-.1-2.7-.1-3.8c-.04.02 3 0 3 0l.2 1.6c0 0 .07.01.1 0c.5-.7 1.5-1.8 3.5-1.8c1.5 0 2.7.7 3.2 2c0 0 .1 0 .1 0c.4-.6.9-1.1 1.5-1.5c.6-.3 1.4-.5 2.2-.5c2.3 0 4 1.5 4 5c-.01.05 0 7 0 7l-3.6 0c0 0 .04-6.42 0-6.4c0-1.7-.5-2.7-1.7-2.7c-.8 0-1.4.6-1.7 1.3c-.1.2-.1.6-.1.9c-.01 0 0 6.9 0 6.9l-3.6 0c0 0 .03-6.62 0-6.6c0-1.5-.5-2.5-1.6-2.5c-1 0-1.5.7-1.8 1.3c-.1.3-.1.6-.1.9c.01.02 0 6.9 0 6.9l-3.5 0c0 0-.05-8.03 0-8zm20.6 4.8c.6.4 2 .9 3.1.9c1.1 0 1.6-.4 1.6-1c0-.6-.4-.9-1.8-1.4c-2.4-.8-3.3-2.1-3.3-3.5c0-2.2 1.9-3.8 4.8-3.8c1.4 0 2.6.3 3.3.6c0 0-.7 2.6-.7 2.6c-.5-.3-1.5-.7-2.5-.7c-.9 0-1.4.3-1.4.9c0 .6.5.9 1.9 1.4c2.2.8 3.2 1.9 3.2 3.6c0 2.2-1.7 3.8-5.1 3.8c-1.5 0-2.9-.3-3.8-.8c0 0 .7-2.6.7-2.6z" stroke="none" fill="#15345e"/></g><g id="Polygon5337"><path d="m160.2 182.5c0 0 .05 13.56 0 13.6c0 1.3.1 2.7.1 3.5c.04-.04-3.2 0-3.2 0l-.2-1.8c0 0-.01.03 0 0c-.8 1.4-2.2 2-3.7 2c-2.8 0-5-2.4-5-6c0-4 2.4-6.2 5.3-6.2c1.4 0 2.5.5 3 1.3c.05-.02.1 0 .1 0l0-6.4l3.6 0zm-3.6 10.3c0-.2 0-.5-.1-.7c-.2-.9-1-1.8-2.1-1.8c-1.6 0-2.5 1.5-2.5 3.4c0 2 1 3.2 2.5 3.2c1 0 1.9-.7 2.1-1.7c.1-.3.1-.6.1-.9c0 0 0-1.5 0-1.5zm18.2.8c0 4.3-3.1 6.2-6.2 6.2c-3.5 0-6.1-2.2-6.1-6c0-3.8 2.5-6.2 6.3-6.2c3.6 0 6 2.4 6 6zm-8.5.1c0 2 .8 3.5 2.4 3.5c1.4 0 2.3-1.4 2.3-3.5c0-1.8-.7-3.5-2.3-3.5c-1.8 0-2.4 1.8-2.4 3.5zm19.6 5.6c-.6.3-1.9.5-3.3.5c-3.8 0-6.2-2.3-6.2-6c0-3.4 2.4-6.2 6.7-6.2c1 0 2.1.1 2.8.4c0 0-.6 2.7-.6 2.7c-.4-.2-1-.3-2-.3c-1.9 0-3.2 1.3-3.1 3.3c0 2.1 1.4 3.2 3.2 3.2c.8 0 1.5-.1 2.1-.3c0 0 .4 2.7.4 2.7zm13.1-3.5c0 1.5 0 2.8.1 3.8c-.02-.04-3.2 0-3.2 0l-.2-1.7c0 0-.03 0 0 0c-.5.7-1.6 1.9-3.7 1.9c-2.4 0-4.1-1.5-4.1-5.1c-.03.01 0-6.9 0-6.9l3.6 0c0 0 .04 6.34 0 6.3c0 1.7.6 2.8 1.9 2.8c1 0 1.5-.7 1.8-1.3c.1-.2.1-.5.1-.8c.01.01 0-7 0-7l3.7 0c0 0-.02 7.99 0 8zm2.9-4.2c0-1.5 0-2.7-.1-3.8c.01.02 3.1 0 3.1 0l.2 1.6c0 0 .02.01 0 0c.5-.7 1.6-1.8 3.6-1.8c1.5 0 2.7.7 3.2 2c0 0 0 0 0 0c.5-.6 1-1.1 1.6-1.5c.6-.3 1.3-.5 2.2-.5c2.2 0 3.9 1.5 3.9 5c.04.05 0 7 0 7l-3.5 0c0 0-.01-6.42 0-6.4c0-1.7-.6-2.7-1.7-2.7c-.9 0-1.5.6-1.7 1.3c-.1.2-.2.6-.2.9c.04 0 0 6.9 0 6.9l-3.5 0c0 0-.01-6.62 0-6.6c0-1.5-.5-2.5-1.7-2.5c-.9 0-1.5.7-1.7 1.3c-.1.3-.1.6-.1.9c-.04.02 0 6.9 0 6.9l-3.6 0c0 0 .01-8.03 0-8zm23.5 3.3c.1 1.5 1.6 2.2 3.3 2.2c1.2 0 2.2-.2 3.2-.5c0 0 .5 2.5.5 2.5c-1.2.5-2.7.7-4.3.7c-3.9 0-6.2-2.3-6.2-6c0-3 1.8-6.2 5.9-6.2c3.8 0 5.2 2.9 5.2 5.8c0 .6 0 1.2-.1 1.5c0 0-7.5 0-7.5 0zm4.3-2.5c0-.9-.4-2.4-2.1-2.4c-1.5 0-2.2 1.4-2.3 2.4c0 0 4.4 0 4.4 0zm5.5-.8c0-1.5 0-2.7-.1-3.8c.02.02 3.2 0 3.2 0l.2 1.6c0 0 .03.03 0 0c.5-.7 1.7-1.8 3.7-1.8c2.4 0 4.2 1.5 4.2 5c-.04 0 0 7 0 7l-3.7 0c0 0 .01-6.54 0-6.5c0-1.6-.5-2.6-1.8-2.6c-1 0-1.6.7-1.9 1.4c-.1.2-.1.6-.1.9c-.03-.01 0 6.8 0 6.8l-3.7 0c0 0 .02-8.03 0-8zm18-7.1l0 3.3l2.6 0l0 2.7l-2.6 0c0 0 .02 4.26 0 4.3c0 1.4.4 2 1.5 2c.4 0 .8 0 1-.1c0 0 .1 2.8.1 2.8c-.5.2-1.4.3-2.4.3c-1.2 0-2.2-.4-2.7-1c-.7-.7-1.1-1.8-1.1-3.5c.04.01 0-4.8 0-4.8l-1.5 0l0-2.7l1.5 0l0-2.5l3.6-.8zm4.7 11.9c.7.4 2.1.9 3.2.9c1.1 0 1.5-.4 1.5-1c0-.6-.3-.9-1.7-1.4c-2.4-.8-3.4-2.1-3.3-3.5c0-2.2 1.8-3.8 4.7-3.8c1.4 0 2.6.3 3.4.6c0 0-.7 2.6-.7 2.6c-.5-.3-1.5-.7-2.5-.7c-.9 0-1.4.3-1.4.9c0 .6.4.9 1.9 1.4c2.2.8 3.1 1.9 3.2 3.6c0 2.2-1.8 3.8-5.1 3.8c-1.6 0-2.9-.3-3.8-.8c0 0 .6-2.6.6-2.6zm22 3.2l-.2-1.2c0 0-.1-.01-.1 0c-.8.9-2 1.4-3.4 1.4c-2.3 0-3.8-1.7-3.8-3.6c0-3 2.8-4.5 6.9-4.5c0 0 0-.1 0-.1c0-.7-.3-1.5-2.1-1.5c-1.2 0-2.5.4-3.2.8c0 0-.7-2.3-.7-2.3c.8-.5 2.4-1 4.5-1c4 0 5.2 2.3 5.2 5c0 0 0 4.1 0 4.1c0 1.1.1 2.2.2 2.9c-.03-.04-3.3 0-3.3 0zm-.4-5.6c-2 0-3.5.4-3.5 1.9c0 .9.7 1.4 1.5 1.4c.9 0 1.6-.6 1.9-1.4c0-.2.1-.4.1-.6c0 0 0-1.3 0-1.3zm6.4-2.3c0-1.7-.1-2.9-.1-3.9c-.01.02 3.1 0 3.1 0l.2 2.2c0 0 .05-.02 0 0c.6-1.7 2.1-2.4 3.2-2.4c.4 0 .5 0 .8 0c0 0 0 3.4 0 3.4c-.3 0-.6-.1-1-.1c-1.3 0-2.3.8-2.5 1.9c0 .2-.1.5-.1.8c.03.01 0 6 0 6l-3.6 0c0 0-.02-7.91 0-7.9zm11.7 3.2c.1 1.5 1.6 2.2 3.3 2.2c1.3 0 2.3-.2 3.3-.5c0 0 .5 2.5.5 2.5c-1.2.5-2.7.7-4.3.7c-4 0-6.3-2.3-6.3-6c0-3 1.9-6.2 6-6.2c3.8 0 5.2 2.9 5.2 5.8c0 .6-.1 1.2-.1 1.5c0 0-7.6 0-7.6 0zm4.3-2.5c0-.9-.4-2.4-2-2.4c-1.6 0-2.2 1.4-2.3 2.4c0 0 4.3 0 4.3 0zm10.4-.7c0-1.7 0-2.9-.1-3.9c.04.02 3.2 0 3.2 0l.1 2.2c0 0 .1-.02.1 0c.6-1.7 2-2.4 3.2-2.4c.3 0 .5 0 .7 0c0 0 0 3.4 0 3.4c-.2 0-.5-.1-1-.1c-1.3 0-2.2.8-2.4 1.9c-.1.2-.1.5-.1.8c-.02.01 0 6 0 6l-3.7 0c0 0 .03-7.91 0-7.9zm11.8 3.2c.1 1.5 1.6 2.2 3.3 2.2c1.2 0 2.2-.2 3.2-.5c0 0 .5 2.5.5 2.5c-1.2.5-2.7.7-4.2.7c-4 0-6.3-2.3-6.3-6c0-3 1.8-6.2 5.9-6.2c3.8 0 5.2 2.9 5.2 5.8c0 .6 0 1.2-.1 1.5c0 0-7.5 0-7.5 0zm4.3-2.5c0-.9-.4-2.4-2.1-2.4c-1.5 0-2.2 1.4-2.3 2.4c0 0 4.4 0 4.4 0zm13.3 5.7c0 0-.09 0-.1 0c-.7 1.1-1.9 1.7-3.5 1.7c-2.5 0-4.8-2.2-4.8-6c0-4.2 2.6-6.2 5.1-6.2c1.6 0 2.7.5 3.3 1.6c.01-.01.1 0 .1 0l.1-1.4c0 0 3.48.02 3.5 0c0 1.2-.1 2.3-.1 3.6c.01-.05 0 12.9 0 12.9l-3.6 0l0-6.2zm0-5.4c0-.1-.1-.4-.1-.6c-.2-.9-1-1.7-2.1-1.7c-1.7 0-2.5 1.4-2.5 3.3c0 2 .9 3.2 2.5 3.2c1 0 1.8-.7 2.1-1.6c0-.3.1-.6.1-.8c0 0 0-1.8 0-1.8zm17.6 3.1c0 1.5 0 2.8.1 3.8c-.03-.04-3.2 0-3.2 0l-.2-1.7c0 0-.04 0 0 0c-.5.7-1.6 1.9-3.7 1.9c-2.4 0-4.1-1.5-4.1-5.1c-.04.01 0-6.9 0-6.9l3.6 0c0 0 .03 6.34 0 6.3c0 1.7.6 2.8 1.9 2.8c1 0 1.5-.7 1.8-1.3c.1-.2.1-.5.1-.8c0 .01 0-7 0-7l3.7 0c0 0-.03 7.99 0 8zm2.9 3.8l0-11.8l3.7 0l0 11.8l-3.7 0zm3.8-15c0 1-.8 1.8-2 1.8c-1.1 0-1.9-.8-1.9-1.8c0-1.1.8-1.9 1.9-1.9c1.2 0 1.9.8 2 1.9zm2.8 7.1c0-1.7-.1-2.9-.1-3.9c-.02.02 3.1 0 3.1 0l.1 2.2c0 0 .14-.02.1 0c.6-1.7 2.1-2.4 3.2-2.4c.3 0 .5 0 .8 0c0 0 0 3.4 0 3.4c-.3 0-.6-.1-1-.1c-1.3 0-2.3.8-2.5 1.9c0 .2-.1.5-.1.8c.03.01 0 6 0 6l-3.6 0c0 0-.02-7.91 0-7.9zm11.7 3.2c.1 1.5 1.6 2.2 3.3 2.2c1.3 0 2.3-.2 3.3-.5c0 0 .4 2.5.4 2.5c-1.2.5-2.6.7-4.2.7c-4 0-6.3-2.3-6.3-6c0-3 1.9-6.2 6-6.2c3.8 0 5.2 2.9 5.2 5.8c0 .6-.1 1.2-.1 1.5c0 0-7.6 0-7.6 0zm4.3-2.5c0-.9-.4-2.4-2.1-2.4c-1.5 0-2.1 1.4-2.2 2.4c0 0 4.3 0 4.3 0zm17-9.9c0 0-.05 13.56 0 13.6c0 1.3 0 2.7.1 3.5c-.05-.04-3.3 0-3.3 0l-.2-1.8c0 0-.01.03 0 0c-.7 1.4-2.2 2-3.7 2c-2.8 0-5-2.4-5-6c0-4 2.5-6.2 5.3-6.2c1.4 0 2.5.5 3.1 1.3c-.04-.02 0 0 0 0l0-6.4l3.7 0zm-3.7 10.3c0-.2 0-.5 0-.7c-.3-.9-1-1.8-2.2-1.8c-1.6 0-2.5 1.5-2.5 3.4c0 2 1 3.2 2.5 3.2c1.1 0 1.9-.7 2.1-1.7c.1-.3.1-.6.1-.9c0 0 0-1.5 0-1.5zm15.5-8.3l0 3.3l2.6 0l0 2.7l-2.6 0c0 0 .01 4.26 0 4.3c0 1.4.3 2 1.4 2c.5 0 .9 0 1.1-.1c0 0 .1 2.8.1 2.8c-.5.2-1.4.3-2.4.3c-1.2 0-2.2-.4-2.8-1c-.6-.7-1-1.8-1-3.5c.03.01 0-4.8 0-4.8l-1.5 0l0-2.7l1.5 0l0-2.5l3.6-.8zm16.2 9.1c0 4.3-3 6.2-6.2 6.2c-3.4 0-6.1-2.2-6.1-6c0-3.8 2.5-6.2 6.3-6.2c3.6 0 6 2.4 6 6zm-8.5.1c0 2 .9 3.5 2.4 3.5c1.4 0 2.3-1.4 2.3-3.5c0-1.8-.6-3.5-2.3-3.5c-1.7 0-2.4 1.8-2.4 3.5zm15.5 5.9c.1-.8.1-2.2.1-3.5c.01-.04 0-13.6 0-13.6l3.7 0l0 6.7c0 0 .01.02 0 0c.7-1 1.9-1.6 3.6-1.6c2.8 0 4.8 2.3 4.8 5.9c0 4.2-2.7 6.3-5.4 6.3c-1.3 0-2.7-.5-3.5-1.9c.01.03 0 0 0 0l-.2 1.7c0 0-3.08-.04-3.1 0zm3.8-5c0 .2 0 .4 0 .6c.3 1 1.1 1.7 2.2 1.7c1.5 0 2.5-1.2 2.5-3.3c0-1.8-.8-3.2-2.5-3.2c-1 0-1.9.7-2.2 1.8c0 .2 0 .4 0 .6c0 0 0 1.8 0 1.8zm13.5.3c.2 1.5 1.7 2.2 3.4 2.2c1.2 0 2.2-.2 3.2-.5c0 0 .5 2.5.5 2.5c-1.2.5-2.7.7-4.3.7c-4 0-6.2-2.3-6.2-6c0-3 1.8-6.2 5.9-6.2c3.8 0 5.2 2.9 5.2 5.8c0 .6 0 1.2-.1 1.5c0 0-7.6 0-7.6 0zm4.3-2.5c0-.9-.3-2.4-2-2.4c-1.6 0-2.2 1.4-2.3 2.4c0 0 4.3 0 4.3 0zm10.5-.7c0-1.7-.1-2.9-.1-3.9c-.04.02 3.1 0 3.1 0l.1 2.2c0 0 .12-.02.1 0c.6-1.7 2.1-2.4 3.2-2.4c.3 0 .5 0 .8 0c0 0 0 3.4 0 3.4c-.3 0-.6-.1-1-.1c-1.4 0-2.3.8-2.5 1.9c-.1.2-.1.5-.1.8c.01.01 0 6 0 6l-3.6 0c0 0-.04-7.91 0-7.9zm11.7 3.2c.1 1.5 1.6 2.2 3.3 2.2c1.3 0 2.3-.2 3.2-.5c0 0 .5 2.5.5 2.5c-1.2.5-2.6.7-4.2.7c-4 0-6.3-2.3-6.3-6c0-3 1.9-6.2 5.9-6.2c3.8 0 5.3 2.9 5.3 5.8c0 .6-.1 1.2-.1 1.5c0 0-7.6 0-7.6 0zm4.3-2.5c0-.9-.4-2.4-2.1-2.4c-1.5 0-2.1 1.4-2.2 2.4c0 0 4.3 0 4.3 0zm14.4 6.9c-.7.3-1.9.5-3.3.5c-3.8 0-6.2-2.3-6.2-6c0-3.4 2.3-6.2 6.7-6.2c1 0 2 .1 2.8.4c0 0-.6 2.7-.6 2.7c-.4-.2-1.1-.3-2-.3c-1.9 0-3.2 1.3-3.2 3.3c0 2.1 1.5 3.2 3.2 3.2c.9 0 1.6-.1 2.1-.3c0 0 .5 2.7.5 2.7zm13.3-5.7c0 4.3-3 6.2-6.2 6.2c-3.4 0-6.1-2.2-6.1-6c0-3.8 2.5-6.2 6.3-6.2c3.6 0 6 2.4 6 6zm-8.5.1c0 2 .9 3.5 2.4 3.5c1.4 0 2.3-1.4 2.3-3.5c0-1.8-.6-3.5-2.3-3.5c-1.7 0-2.4 1.8-2.4 3.5zm10.8-2.1c0-1.5-.1-2.7-.1-3.8c-.03.02 3.1 0 3.1 0l.2 1.6c0 0 .08.03.1 0c.5-.7 1.7-1.8 3.6-1.8c2.4 0 4.2 1.5 4.2 5c0 0 0 7 0 7l-3.6 0c0 0-.05-6.54 0-6.5c0-1.6-.6-2.6-1.9-2.6c-1 0-1.6.7-1.8 1.4c-.1.2-.2.6-.2.9c.01-.01 0 6.8 0 6.8l-3.6 0c0 0-.04-8.03 0-8zm22.8 7.7c-.6.3-1.8.5-3.2.5c-3.8 0-6.2-2.3-6.2-6c0-3.4 2.3-6.2 6.7-6.2c.9 0 2 .1 2.8.4c0 0-.6 2.7-.6 2.7c-.4-.2-1.1-.3-2.1-.3c-1.9 0-3.1 1.3-3.1 3.3c0 2.1 1.4 3.2 3.2 3.2c.9 0 1.6-.1 2.1-.3c0 0 .4 2.7.4 2.7zm2.1.3l0-11.8l3.6 0l0 11.8l-3.6 0zm3.7-15c0 1-.7 1.8-1.9 1.8c-1.2 0-2-.8-1.9-1.8c-.1-1.1.7-1.9 1.9-1.9c1.2 0 1.9.8 1.9 1.9zm2.8-2.1l3.7 0l0 17.1l-3.7 0l0-17.1zm9.4 12.4c.2 1.5 1.6 2.2 3.3 2.2c1.3 0 2.3-.2 3.3-.5c0 0 .5 2.5.5 2.5c-1.2.5-2.7.7-4.3.7c-4 0-6.2-2.3-6.2-6c0-3 1.8-6.2 5.9-6.2c3.8 0 5.2 2.9 5.2 5.8c0 .6-.1 1.2-.1 1.5c0 0-7.6 0-7.6 0zm4.3-2.5c0-.9-.4-2.4-2-2.4c-1.6 0-2.2 1.4-2.3 2.4c0 0 4.3 0 4.3 0zm17-9.9c0 0-.02 13.56 0 13.6c0 1.3 0 2.7.1 3.5c-.03-.04-3.3 0-3.3 0l-.1-1.8c0 0-.08.03-.1 0c-.7 1.4-2.1 2-3.7 2c-2.7 0-5-2.4-5-6c0-4 2.5-6.2 5.3-6.2c1.4 0 2.6.5 3.1 1.3c-.02-.02 0 0 0 0l0-6.4l3.7 0zm-3.7 10.3c0-.2 0-.5 0-.7c-.2-.9-1-1.8-2.2-1.8c-1.6 0-2.5 1.5-2.5 3.4c0 2 1 3.2 2.5 3.2c1.1 0 1.9-.7 2.1-1.7c.1-.3.1-.6.1-.9c0 0 0-1.5 0-1.5z" stroke="none" fill="#15345e"/></g><g id="Polygon5336"><path d="m14.1 198.8c-.9.4-2.7.9-4.9.9c-2.5 0-4.5-.6-6.1-2.1c-1.4-1.4-2.2-3.5-2.2-6c0-4.9 3.3-8.4 8.7-8.4c1.9 0 3.4.4 4.1.8c0 0-.5 1.7-.5 1.7c-.9-.4-2-.7-3.6-.7c-4 0-6.5 2.4-6.5 6.5c0 4.1 2.4 6.5 6.2 6.5c1.4 0 2.3-.2 2.8-.4c0-.03 0-4.9 0-4.9l-3.3 0l0-1.6l5.3 0c0 0 .04 7.74 0 7.7zm3.2.8l0-11.7l2.1 0l0 11.7l-2.1 0zm2.3-14.9c0 .7-.5 1.3-1.3 1.3c-.8 0-1.3-.6-1.3-1.3c0-.8.5-1.3 1.3-1.3c.8 0 1.3.5 1.3 1.3zm4.1 3.2c0 0 2.27 6.57 2.3 6.6c.4 1 .7 2 .9 2.9c0 0 .1 0 .1 0c.2-.9.6-1.9 1-2.9c-.04-.03 2.2-6.6 2.2-6.6l2.2 0l-4.5 11.7l-2.1 0l-4.4-11.7l2.3 0zm11.7 6.2c0 2.9 1.8 4.1 3.9 4.1c1.5 0 2.5-.3 3.3-.6c0 0 .3 1.5.3 1.5c-.7.3-2 .7-3.9.7c-3.5 0-5.7-2.4-5.7-5.9c0-3.5 2.1-6.2 5.5-6.2c3.8 0 4.8 3.3 4.8 5.5c0 .4-.1.7-.1.9c0 0-8.1 0-8.1 0zm6.1-1.5c.1-1.3-.5-3.4-2.9-3.4c-2.1 0-3.1 2-3.2 3.4c0 0 6.1 0 6.1 0zm4.7-1.5c0-1.2 0-2.2-.1-3.2c0 .04 1.9 0 1.9 0l.1 2c0 0 .04-.04 0 0c.6-1.1 2-2.2 3.9-2.2c1.6 0 4.1.9 4.1 4.9c-.01.03 0 7 0 7l-2.1 0c0 0-.02-6.74 0-6.7c0-1.9-.7-3.5-2.7-3.5c-1.4 0-2.5 1-2.8 2.2c-.1.3-.2.6-.2 1c.01-.02 0 7 0 7l-2.1 0c0 0 0-8.51 0-8.5zm21-6.5l0 3.3l3 0l0 1.7l-3 0c0 0-.05 6.22 0 6.2c0 1.5.4 2.3 1.5 2.3c.6 0 1-.1 1.3-.2c0 0 .1 1.6.1 1.6c-.5.2-1.1.3-1.9.3c-1 0-1.8-.3-2.3-.9c-.6-.6-.8-1.6-.8-3c-.01-.01 0-6.3 0-6.3l-1.8 0l0-1.7l1.8 0l0-2.7l2.1-.6zm5.4-2.1l2.1 0l0 7.3c0 0 .01-.03 0 0c.3-.6.9-1.2 1.5-1.5c.6-.4 1.4-.6 2.2-.6c1.5 0 4 .9 4 4.9c.04.05 0 7 0 7l-2.1 0c0 0 .03-6.71 0-6.7c0-1.9-.7-3.5-2.7-3.5c-1.3 0-2.4 1-2.8 2.1c-.1.3-.1.6-.1 1.1c-.04-.05 0 7 0 7l-2.1 0l0-17.1zm13.3 17.1l0-11.7l2.1 0l0 11.7l-2.1 0zm2.3-14.9c0 .7-.5 1.3-1.3 1.3c-.8 0-1.3-.6-1.3-1.3c0-.8.6-1.3 1.3-1.3c.8 0 1.3.5 1.3 1.3zm3 12.7c.6.4 1.7.8 2.8.8c1.5 0 2.2-.7 2.2-1.7c0-1-.6-1.5-2.1-2.1c-2.1-.8-3.1-1.9-3.1-3.3c0-1.9 1.5-3.4 4-3.4c1.2 0 2.2.3 2.9.7c0 0-.6 1.5-.6 1.5c-.4-.3-1.3-.6-2.3-.6c-1.3 0-2 .7-2 1.5c0 1 .7 1.4 2.2 2c2 .8 3.1 1.8 3.1 3.5c0 2.1-1.6 3.5-4.4 3.5c-1.2 0-2.4-.3-3.2-.8c0 0 .5-1.6.5-1.6zm8.2 5.1c.5-1.4 1.1-4 1.4-5.7c0 0 2.4-.3 2.4-.3c-.6 2.1-1.7 4.7-2.3 5.9c0 0-1.5.1-1.5.1zm13.9-17.9l0 3.3l3.1 0l0 1.7l-3.1 0c0 0 .03 6.22 0 6.2c0 1.5.4 2.3 1.6 2.3c.6 0 1-.1 1.2-.2c0 0 .1 1.6.1 1.6c-.4.2-1 .3-1.8.3c-1 0-1.8-.3-2.3-.9c-.6-.6-.8-1.6-.8-3c-.04-.01 0-6.3 0-6.3l-1.8 0l0-1.7l1.8 0l0-2.7l2-.6zm5.4-2.1l2.1 0l0 7.3c0 0 .09-.03.1 0c.3-.6.9-1.2 1.5-1.5c.6-.4 1.4-.6 2.2-.6c1.5 0 4 .9 4 4.9c.01.05 0 7 0 7l-2.1 0c0 0 0-6.71 0-6.7c0-1.9-.7-3.5-2.7-3.5c-1.4 0-2.4 1-2.8 2.1c-.1.3-.2.6-.2 1.1c.04-.05 0 7 0 7l-2.1 0l0-17.1zm14.5 11.6c.1 2.9 1.9 4.1 4 4.1c1.5 0 2.4-.3 3.2-.6c0 0 .4 1.5.4 1.5c-.8.3-2 .7-3.9.7c-3.6 0-5.7-2.4-5.7-5.9c0-3.5 2.1-6.2 5.5-6.2c3.7 0 4.8 3.3 4.8 5.5c0 .4-.1.7-.1.9c0 0-8.2 0-8.2 0zm6.2-1.5c0-1.3-.5-3.4-2.9-3.4c-2.2 0-3.1 2-3.3 3.4c0 0 6.2 0 6.2 0z" stroke="none" fill="#3c3c3b"/></g><g id="Polygon5335"><path d="m1.5 155.8c.6.4 1.7.9 2.7.9c1.6 0 2.3-.8 2.3-1.7c0-1.1-.6-1.6-2.2-2.2c-2-.7-3-1.9-3-3.3c0-1.8 1.5-3.4 4-3.4c1.2 0 2.2.4 2.8.7c0 0-.5 1.6-.5 1.6c-.4-.3-1.3-.7-2.4-.7c-1.2 0-1.9.7-1.9 1.6c0 .9.7 1.4 2.2 2c2 .7 3 1.7 3 3.5c0 2-1.5 3.4-4.3 3.4c-1.3 0-2.4-.3-3.3-.8c0 0 .6-1.6.6-1.6zm19.5-1c0 1.2 0 2.3.1 3.2c-.03 0-1.9 0-1.9 0l-.1-1.9c0 0-.07 0-.1 0c-.5.9-1.7 2.2-3.8 2.2c-1.8 0-4-1-4-5.1c-.02-.02 0-6.8 0-6.8l2.1 0c0 0 0 6.42 0 6.4c0 2.2.7 3.7 2.6 3.7c1.4 0 2.4-1 2.8-1.9c.1-.3.2-.7.2-1.1c-.04.01 0-7.1 0-7.1l2.1 0c0 0-.02 8.43 0 8.4zm11.8 2.8c-.6.3-1.8.6-3.4.6c-3.5 0-5.8-2.3-5.8-5.9c0-3.6 2.5-6.2 6.3-6.2c1.2 0 2.3.4 2.9.6c0 0-.5 1.7-.5 1.7c-.5-.3-1.3-.6-2.4-.6c-2.7 0-4.1 2-4.1 4.4c0 2.7 1.7 4.4 4 4.4c1.2 0 2-.4 2.6-.6c0 0 .4 1.6.4 1.6zm2.4-16.6l2.1 0l0 7.2c0 0 .09.01.1 0c.3-.6.9-1.1 1.5-1.5c.6-.3 1.4-.6 2.2-.6c1.5 0 4 1 4 5c.02-.01 0 6.9 0 6.9l-2.1 0c0 0 .01-6.67 0-6.7c0-1.8-.7-3.4-2.7-3.4c-1.3 0-2.4.9-2.8 2.1c-.1.3-.2.6-.2 1c.04-.01 0 7 0 7l-2.1 0l0-17zm28.5 0c0 0-.03 14 0 14c0 1 0 2.2.1 3c-.03 0-1.9 0-1.9 0l-.1-2c0 0-.07-.02-.1 0c-.6 1.3-2 2.3-3.9 2.3c-2.8 0-5-2.4-5-5.9c0-3.9 2.4-6.3 5.2-6.3c1.8 0 3 .9 3.5 1.8c.01 0 .1 0 .1 0l0-6.9l2.1 0zm-2.1 10.1c0-.3-.1-.6-.1-.9c-.3-1.3-1.5-2.4-3.1-2.4c-2.2 0-3.5 1.9-3.5 4.5c0 2.3 1.2 4.3 3.5 4.3c1.4 0 2.7-1 3.1-2.6c0-.2.1-.5.1-.9c0 0 0-2 0-2zm16.1 1c0 4.3-3 6.2-5.8 6.2c-3.1 0-5.6-2.3-5.6-6c0-3.9 2.6-6.2 5.8-6.2c3.3 0 5.6 2.4 5.6 6zm-9.2.1c0 2.6 1.4 4.5 3.5 4.5c2 0 3.5-1.9 3.5-4.5c0-2-1-4.5-3.5-4.5c-2.4 0-3.5 2.3-3.5 4.5zm20.1 5.4c-.5.3-1.7.6-3.3.6c-3.5 0-5.8-2.3-5.8-5.9c0-3.6 2.5-6.2 6.3-6.2c1.2 0 2.3.4 2.9.6c0 0-.5 1.7-.5 1.7c-.5-.3-1.3-.6-2.4-.6c-2.7 0-4.2 2-4.2 4.4c0 2.7 1.8 4.4 4.1 4.4c1.2 0 2-.4 2.6-.6c0 0 .3 1.6.3 1.6zm12.2-2.8c0 1.2 0 2.3.1 3.2c.02 0-1.9 0-1.9 0l-.1-1.9c0 0-.02 0 0 0c-.6.9-1.8 2.2-3.9 2.2c-1.8 0-4-1-4-5.1c.03-.02 0-6.8 0-6.8l2.1 0c0 0 .04 6.42 0 6.4c0 2.2.7 3.7 2.6 3.7c1.5 0 2.4-1 2.8-1.9c.1-.3.2-.7.2-1.1c.01.01 0-7.1 0-7.1l2.1 0c0 0 .02 8.43 0 8.4zm3.5-5.3c0-1.2 0-2.2-.1-3.1c.03-.02 1.9 0 1.9 0l.1 1.9c0 0 .05-.04 0 0c.7-1.1 1.8-2.2 3.7-2.2c1.6 0 2.8 1 3.3 2.3c0 0 0 0 0 0c.4-.6.8-1.1 1.3-1.5c.7-.5 1.5-.8 2.6-.8c1.5 0 3.8 1 3.8 5.1c.01-.04 0 6.8 0 6.8l-2.1 0c0 0 .05-6.58 0-6.6c0-2.2-.8-3.6-2.5-3.6c-1.2 0-2.1.9-2.5 2c-.1.3-.1.6-.1 1c-.04.02 0 7.2 0 7.2l-2.1 0c0 0 0-6.96 0-7c0-1.8-.8-3.2-2.4-3.2c-1.3 0-2.3 1.1-2.6 2.2c-.2.3-.2.6-.2 1c-.01-.01 0 7 0 7l-2.1 0c0 0 .03-8.47 0-8.5zm21.2 3.1c.1 2.8 1.9 4 4 4c1.5 0 2.4-.3 3.2-.6c0 0 .4 1.5.4 1.5c-.8.4-2 .7-3.9.7c-3.6 0-5.7-2.3-5.7-5.8c0-3.5 2.1-6.3 5.5-6.3c3.7 0 4.8 3.4 4.8 5.5c0 .4-.1.8-.1 1c0 0-8.2 0-8.2 0zm6.2-1.5c0-1.4-.5-3.5-2.9-3.5c-2.2 0-3.1 2-3.3 3.5c0 0 6.2 0 6.2 0zm4.7-1.6c0-1.2-.1-2.2-.1-3.1c-.03-.02 1.8 0 1.8 0l.2 1.9c0 0 .01 0 0 0c.6-1.1 1.9-2.2 3.9-2.2c1.6 0 4.1 1 4.1 5c-.05-.04 0 6.9 0 6.9l-2.2 0c0 0 .04-6.7 0-6.7c0-1.9-.7-3.4-2.6-3.4c-1.4 0-2.5 1-2.9 2.1c-.1.3-.1.7-.1 1c-.02.02 0 7 0 7l-2.1 0c0 0-.03-8.47 0-8.5zm15.7-6.5l0 3.4l3.1 0l0 1.6l-3.1 0c0 0 .03 6.26 0 6.3c0 1.4.4 2.2 1.6 2.2c.6 0 1-.1 1.2-.1c0 0 .1 1.6.1 1.6c-.4.1-1 .2-1.8.2c-1 0-1.8-.3-2.3-.8c-.6-.7-.8-1.7-.8-3.1c-.03.03 0-6.3 0-6.3l-1.8 0l0-1.6l1.8 0l0-2.8l2-.6zm10.5 15l0-11.6l2.1 0l0 11.6l-2.1 0zm2.4-14.9c0 .7-.5 1.3-1.4 1.3c-.7 0-1.2-.6-1.2-1.3c0-.7.5-1.3 1.3-1.3c.8 0 1.3.6 1.3 1.3zm3 12.7c.6.4 1.7.9 2.7.9c1.6 0 2.3-.8 2.3-1.7c0-1.1-.6-1.6-2.2-2.2c-2.1-.7-3-1.9-3-3.3c0-1.8 1.5-3.4 4-3.4c1.1 0 2.2.4 2.8.7c0 0-.5 1.6-.5 1.6c-.5-.3-1.3-.7-2.4-.7c-1.2 0-1.9.7-1.9 1.6c0 .9.7 1.4 2.2 2c2 .7 3 1.7 3 3.5c0 2-1.6 3.4-4.3 3.4c-1.3 0-2.5-.3-3.3-.8c0 0 .6-1.6.6-1.6zm14.8-6.3c0-1.2 0-2.2-.1-3.1c.03-.02 1.9 0 1.9 0l.1 1.9c0 0 .07 0 .1 0c.5-1.1 1.9-2.2 3.8-2.2c1.6 0 4.1 1 4.1 5c.02-.04 0 6.9 0 6.9l-2.1 0c0 0 .01-6.7 0-6.7c0-1.9-.7-3.4-2.7-3.4c-1.4 0-2.5 1-2.8 2.1c-.1.3-.2.7-.2 1c.04.02 0 7 0 7l-2.1 0c0 0 .03-8.47 0-8.5zm23.9 2.6c0 4.3-3 6.2-5.8 6.2c-3.2 0-5.6-2.3-5.6-6c0-3.9 2.6-6.2 5.8-6.2c3.3 0 5.6 2.4 5.6 6zm-9.3.1c0 2.6 1.5 4.5 3.6 4.5c2 0 3.5-1.9 3.5-4.5c0-2-1-4.5-3.5-4.5c-2.5 0-3.6 2.3-3.6 4.5zm14.5-9.2l0 3.4l3 0l0 1.6l-3 0c0 0-.03 6.26 0 6.3c0 1.4.4 2.2 1.6 2.2c.5 0 .9-.1 1.2-.1c0 0 .1 1.6.1 1.6c-.4.1-1.1.2-1.9.2c-1 0-1.8-.3-2.3-.8c-.6-.7-.8-1.7-.8-3.1c.01.03 0-6.3 0-6.3l-1.8 0l0-1.6l1.8 0l0-2.8l2.1-.6zm10.5 7c0-1.4-.1-2.5-.1-3.6c-.04-.02 1.8 0 1.8 0l.1 2.3c0 0 .08-.04.1 0c.5-1.6 1.8-2.6 3.2-2.6c.2 0 .4 0 .6.1c0 0 0 2 0 2c-.2-.1-.4-.1-.7-.1c-1.5 0-2.6 1.1-2.9 2.7c0 .3-.1.6-.1 1c.05.01 0 6.2 0 6.2l-2 0c0 0-.04-7.99 0-8zm8.7 2.6c.1 2.8 1.9 4 4 4c1.5 0 2.4-.3 3.2-.6c0 0 .4 1.5.4 1.5c-.7.4-2 .7-3.9.7c-3.5 0-5.7-2.3-5.7-5.8c0-3.5 2.1-6.3 5.5-6.3c3.8 0 4.8 3.4 4.8 5.5c0 .4-.1.8-.1 1c0 0-8.2 0-8.2 0zm6.2-1.5c.1-1.4-.5-3.5-2.9-3.5c-2.1 0-3.1 2-3.2 3.5c0 0 6.1 0 6.1 0zm4.4 4.7c.6.4 1.7.9 2.8.9c1.5 0 2.2-.8 2.2-1.7c0-1.1-.6-1.6-2.1-2.2c-2.1-.7-3.1-1.9-3.1-3.3c0-1.8 1.5-3.4 4-3.4c1.2 0 2.2.4 2.9.7c0 0-.6 1.6-.6 1.6c-.4-.3-1.3-.7-2.3-.7c-1.3 0-2 .7-2 1.6c0 .9.7 1.4 2.2 2c2 .7 3.1 1.7 3.1 3.5c0 2-1.6 3.4-4.4 3.4c-1.2 0-2.4-.3-3.2-.8c0 0 .5-1.6.5-1.6zm12.3-12.8l0 3.4l3.1 0l0 1.6l-3.1 0c0 0 .04 6.26 0 6.3c0 1.4.4 2.2 1.6 2.2c.6 0 1-.1 1.2-.1c0 0 .1 1.6.1 1.6c-.4.1-1 .2-1.8.2c-1 0-1.8-.3-2.3-.8c-.6-.7-.8-1.7-.8-3.1c-.03.03 0-6.3 0-6.3l-1.8 0l0-1.6l1.8 0l0-2.8l2-.6zm5.4 7c0-1.4 0-2.5-.1-3.6c.04-.02 1.9 0 1.9 0l.1 2.3c0 0 .06-.04.1 0c.5-1.6 1.8-2.6 3.2-2.6c.2 0 .4 0 .6.1c0 0 0 2 0 2c-.2-.1-.5-.1-.7-.1c-1.5 0-2.6 1.1-2.9 2.7c0 .3-.1.6-.1 1c.02.01 0 6.2 0 6.2l-2.1 0c0 0 .04-7.99 0-8zm8 8l0-11.6l2.1 0l0 11.6l-2.1 0zm2.3-14.9c.1.7-.5 1.3-1.3 1.3c-.8 0-1.3-.6-1.3-1.3c0-.7.6-1.3 1.3-1.3c.8 0 1.3.6 1.3 1.3zm11.6 14.5c-.6.3-1.8.6-3.4.6c-3.5 0-5.7-2.3-5.7-5.9c0-3.6 2.4-6.2 6.2-6.2c1.2 0 2.3.4 2.9.6c0 0-.5 1.7-.5 1.7c-.5-.3-1.3-.6-2.4-.6c-2.7 0-4.1 2-4.1 4.4c0 2.7 1.7 4.4 4 4.4c1.2 0 2-.4 2.6-.6c0 0 .4 1.6.4 1.6zm5.3-14.6l0 3.4l3 0l0 1.6l-3 0c0 0 0 6.26 0 6.3c0 1.4.4 2.2 1.6 2.2c.5 0 .9-.1 1.2-.1c0 0 .1 1.6.1 1.6c-.4.1-1 .2-1.9.2c-.9 0-1.7-.3-2.2-.8c-.6-.7-.9-1.7-.9-3.1c.04.03 0-6.3 0-6.3l-1.8 0l0-1.6l1.8 0l0-2.8l2.1-.6zm6.4 9.6c.1 2.8 1.9 4 4 4c1.5 0 2.4-.3 3.2-.6c0 0 .4 1.5.4 1.5c-.7.4-2 .7-3.9.7c-3.5 0-5.7-2.3-5.7-5.8c0-3.5 2.1-6.3 5.5-6.3c3.8 0 4.8 3.4 4.8 5.5c0 .4-.1.8-.1 1c0 0-8.2 0-8.2 0zm6.2-1.5c.1-1.4-.5-3.5-2.9-3.5c-2.1 0-3.1 2-3.2 3.5c0 0 6.1 0 6.1 0zm14.7-10.1c0 0 .02 14 0 14c0 1 0 2.2.1 3c.01 0-1.9 0-1.9 0l-.1-2c0 0-.03-.02 0 0c-.7 1.3-2.1 2.3-4 2.3c-2.8 0-5-2.4-5-5.9c0-3.9 2.4-6.3 5.3-6.3c1.7 0 2.9.9 3.5 1.8c-.04 0 0 0 0 0l0-6.9l2.1 0zm-2.1 10.1c0-.3 0-.6-.1-.9c-.3-1.3-1.5-2.4-3-2.4c-2.2 0-3.5 1.9-3.5 4.5c0 2.3 1.1 4.3 3.4 4.3c1.4 0 2.7-1 3.1-2.6c.1-.2.1-.5.1-.9c0 0 0-2 0-2zm4.9 5.7c0-.9.6-1.6 1.4-1.6c.9 0 1.4.7 1.4 1.6c0 .8-.5 1.5-1.4 1.5c-.8 0-1.4-.7-1.4-1.5z" stroke="none" fill="#3c3c3b"/></g><g id="Polygon5334"><path d="m4.3 108l0 3.4l3 0l0 1.6l-3 0c0 0 0 6.26 0 6.3c0 1.4.4 2.2 1.6 2.2c.5 0 .9-.1 1.2-.1c0 0 .1 1.6.1 1.6c-.4.1-1.1.2-1.9.2c-1 0-1.7-.3-2.3-.8c-.6-.7-.8-1.7-.8-3.1c.03.03 0-6.3 0-6.3l-1.8 0l0-1.6l1.8 0l0-2.8l2.1-.6zm5.4-2l2.1 0l0 7.2c0 0 .06.01.1 0c.3-.6.8-1.1 1.5-1.5c.6-.3 1.3-.6 2.1-.6c1.6 0 4.1 1 4.1 5c-.02-.01 0 6.9 0 6.9l-2.1 0c0 0-.03-6.67 0-6.7c0-1.8-.7-3.4-2.7-3.4c-1.4 0-2.5.9-2.8 2.1c-.2.3-.2.6-.2 1c.01-.01 0 7 0 7l-2.1 0l0-17zm14.5 11.6c0 2.8 1.9 4 4 4c1.5 0 2.4-.3 3.2-.6c0 0 .4 1.5.4 1.5c-.8.4-2.1.7-3.9.7c-3.6 0-5.7-2.3-5.7-5.8c0-3.5 2-6.3 5.4-6.3c3.8 0 4.8 3.4 4.8 5.5c0 .4 0 .8 0 1c0 0-8.2 0-8.2 0zm6.2-1.5c0-1.4-.6-3.5-2.9-3.5c-2.2 0-3.1 2-3.3 3.5c0 0 6.2 0 6.2 0zm12.3-8.1l0 3.4l3 0l0 1.6l-3 0c0 0-.03 6.26 0 6.3c0 1.4.4 2.2 1.6 2.2c.5 0 .9-.1 1.2-.1c0 0 .1 1.6.1 1.6c-.4.1-1.1.2-1.9.2c-1 0-1.8-.3-2.3-.8c-.6-.7-.8-1.7-.8-3.1c.01.03 0-6.3 0-6.3l-1.8 0l0-1.6l1.8 0l0-2.8l2.1-.6zm11.8 15l-.2-1.5c0 0-.04.04 0 0c-.7.9-1.9 1.8-3.6 1.8c-2.3 0-3.5-1.7-3.5-3.4c0-2.8 2.5-4.3 6.9-4.3c0 0 0-.2 0-.2c0-1-.2-2.7-2.6-2.7c-1.1 0-2.2.3-3 .8c0 0-.5-1.3-.5-1.3c1-.7 2.4-1.1 3.8-1.1c3.6 0 4.4 2.4 4.4 4.8c0 0 0 4.3 0 4.3c0 1 .1 2 .2 2.8c.02 0-1.9 0-1.9 0zm-.3-5.9c-2.3-.1-4.9.3-4.9 2.6c0 1.4.9 2 2 2c1.5 0 2.4-1 2.8-1.9c0-.3.1-.5.1-.7c0 0 0-2 0-2zm6.4-5.7c0 0 1.68 2.48 1.7 2.5c.4.6.8 1.2 1.2 1.9c0 0 0 0 0 0c.4-.7.8-1.3 1.2-1.9c-.02-.04 1.6-2.5 1.6-2.5l2.3 0l-4 5.6l4.1 6l-2.4 0c0 0-1.69-2.62-1.7-2.6c-.4-.7-.8-1.3-1.2-2c0 0-.1 0-.1 0c-.4.7-.8 1.3-1.2 2c-.01-.02-1.7 2.6-1.7 2.6l-2.3 0l4.1-5.9l-3.9-5.7l2.3 0zm15.2-5.4l2.2 0l0 7.2c0 0 0 .01 0 0c.3-.6.9-1.1 1.5-1.5c.6-.3 1.4-.6 2.2-.6c1.5 0 4 1 4 5c.03-.01 0 6.9 0 6.9l-2.1 0c0 0 .01-6.67 0-6.7c0-1.8-.7-3.4-2.7-3.4c-1.3 0-2.4.9-2.8 2.1c-.1.3-.1.6-.1 1c-.05-.01 0 7 0 7l-2.2 0l0-17zm19.8 17l-.2-1.5c0 0-.05.04 0 0c-.7.9-1.9 1.8-3.6 1.8c-2.4 0-3.6-1.7-3.6-3.4c0-2.8 2.5-4.3 7-4.3c0 0 0-.2 0-.2c0-1-.2-2.7-2.6-2.7c-1.1 0-2.2.3-3 .8c0 0-.5-1.3-.5-1.3c.9-.7 2.3-1.1 3.8-1.1c3.6 0 4.4 2.4 4.4 4.8c0 0 0 4.3 0 4.3c0 1 .1 2 .2 2.8c.01 0-1.9 0-1.9 0zm-.3-5.9c-2.3-.1-4.9.3-4.9 2.6c0 1.4.9 2 2 2c1.5 0 2.4-1 2.8-1.9c0-.3.1-.5.1-.7c0 0 0-2 0-2zm6.1-5.7c0 0 2.23 6.51 2.2 6.5c.4 1.1.7 2 1 3c0 0 0 0 0 0c.3-1 .6-1.9 1-3c.02.01 2.3-6.5 2.3-6.5l2.2 0l-4.6 11.6l-2 0l-4.4-11.6l2.3 0zm10.7 11.6l0-11.6l2.1 0l0 11.6l-2.1 0zm2.3-14.9c.1.7-.5 1.3-1.3 1.3c-.8 0-1.3-.6-1.3-1.3c0-.7.6-1.3 1.3-1.3c.8 0 1.3.6 1.3 1.3zm3.3 6.4c0-1.2 0-2.2-.1-3.1c0-.02 1.9 0 1.9 0l.1 1.9c0 0 .04 0 0 0c.6-1.1 2-2.2 3.9-2.2c1.6 0 4.1 1 4.1 5c-.02-.04 0 6.9 0 6.9l-2.1 0c0 0-.03-6.7 0-6.7c0-1.9-.7-3.4-2.7-3.4c-1.4 0-2.5 1-2.8 2.1c-.1.3-.2.7-.2 1c.01.02 0 7 0 7l-2.1 0c0 0-.01-8.47 0-8.5zm23.3-3.1c0 .8-.1 1.8-.1 3.2c0 0 0 6.7 0 6.7c0 2.7-.5 4.3-1.6 5.3c-1.2 1.1-2.8 1.4-4.3 1.4c-1.3 0-2.9-.3-3.8-.9c0 0 .5-1.7.5-1.7c.8.5 2 1 3.4 1c2.2 0 3.8-1.2 3.8-4.1c-.04 0 0-1.3 0-1.3c0 0-.09.01-.1 0c-.6 1.1-1.9 2-3.7 2c-2.9 0-4.9-2.5-4.9-5.7c0-3.9 2.5-6.2 5.2-6.2c2 0 3.1 1.1 3.6 2c.03.04.1 0 .1 0l.1-1.7c0 0 1.82-.02 1.8 0zm-2.2 4.6c0-.4 0-.7-.1-1c-.4-1.2-1.4-2.2-2.9-2.2c-2.1 0-3.5 1.7-3.5 4.4c0 2.2 1.2 4.1 3.4 4.1c1.3 0 2.5-.8 3-2.1c.1-.4.1-.8.1-1.1c0 0 0-2.1 0-2.1zm10.6 7c.1-.8.1-2 .1-3c.02 0 0-14 0-14l2.1 0l0 7.3c0 0 .05-.04.1 0c.7-1.3 2-2.2 3.9-2.2c2.9 0 4.9 2.4 4.9 5.9c0 4.2-2.6 6.3-5.2 6.3c-1.7 0-3-.7-3.9-2.2c.01-.02-.1 0-.1 0l-.1 1.9c0 0-1.78 0-1.8 0zm2.2-4.7c0 .3.1.6.1.8c.4 1.5 1.6 2.5 3.2 2.5c2.2 0 3.5-1.8 3.5-4.5c0-2.3-1.2-4.3-3.5-4.3c-1.4 0-2.7 1-3.2 2.6c0 .2-.1.5-.1.9c0 0 0 2 0 2zm12.7-.7c.1 2.8 1.9 4 4 4c1.5 0 2.5-.3 3.2-.6c0 0 .4 1.5.4 1.5c-.7.4-2 .7-3.9.7c-3.5 0-5.7-2.3-5.7-5.8c0-3.5 2.1-6.3 5.5-6.3c3.8 0 4.8 3.4 4.8 5.5c0 .4-.1.8-.1 1c0 0-8.2 0-8.2 0zm6.2-1.5c.1-1.4-.5-3.5-2.9-3.5c-2.1 0-3.1 2-3.2 3.5c0 0 6.1 0 6.1 0zm5.9 1.5c0 2.8 1.8 4 4 4c1.5 0 2.4-.3 3.2-.6c0 0 .3 1.5.3 1.5c-.7.4-2 .7-3.8.7c-3.6 0-5.7-2.3-5.7-5.8c0-3.5 2-6.3 5.4-6.3c3.8 0 4.8 3.4 4.8 5.5c0 .4 0 .8-.1 1c0 0-8.1 0-8.1 0zm6.2-1.5c0-1.4-.6-3.5-3-3.5c-2.1 0-3 2-3.2 3.5c0 0 6.2 0 6.2 0zm4.6-1.6c0-1.2 0-2.2-.1-3.1c.02-.02 1.9 0 1.9 0l.1 1.9c0 0 .06 0 .1 0c.5-1.1 1.9-2.2 3.8-2.2c1.6 0 4.1 1 4.1 5c.01-.04 0 6.9 0 6.9l-2.1 0c0 0 0-6.7 0-6.7c0-1.9-.7-3.4-2.7-3.4c-1.4 0-2.5 1-2.8 2.1c-.1.3-.2.7-.2 1c.03.02 0 7 0 7l-2.1 0c0 0 .02-8.47 0-8.5zm18.4.7c0-1.5 0-2.7-.1-3.8c.03-.02 1.9 0 1.9 0l.1 2c0 0 .07-.02.1 0c.8-1.4 2.2-2.3 4.1-2.3c2.8 0 4.9 2.4 4.9 5.9c0 4.2-2.5 6.3-5.3 6.3c-1.5 0-2.8-.7-3.5-1.9c-.04.04-.1 0-.1 0l0 6.4l-2.1 0c0 0 .03-12.62 0-12.6zm2.1 3.1c0 .3.1.6.1.8c.4 1.5 1.7 2.5 3.2 2.5c2.2 0 3.5-1.8 3.5-4.5c0-2.3-1.2-4.3-3.4-4.3c-1.5 0-2.8 1-3.2 2.6c-.1.3-.2.6-.2.9c0 0 0 2 0 2zm18 4.7l-.2-1.5c0 0-.02.04 0 0c-.7.9-1.9 1.8-3.6 1.8c-2.3 0-3.5-1.7-3.5-3.4c0-2.8 2.5-4.3 7-4.3c0 0 0-.2 0-.2c0-1-.3-2.7-2.7-2.7c-1.1 0-2.2.3-3 .8c0 0-.5-1.3-.5-1.3c1-.7 2.4-1.1 3.8-1.1c3.6 0 4.4 2.4 4.4 4.8c0 0 0 4.3 0 4.3c0 1 .1 2 .2 2.8c.04 0-1.9 0-1.9 0zm-.3-5.9c-2.3-.1-4.9.3-4.9 2.6c0 1.4.9 2 2 2c1.5 0 2.4-1 2.8-1.9c.1-.3.1-.5.1-.7c0 0 0-2 0-2zm5.5 5.9l0-11.6l2.1 0l0 11.6l-2.1 0zm2.3-14.9c0 .7-.5 1.3-1.3 1.3c-.8 0-1.3-.6-1.3-1.3c0-.7.5-1.3 1.3-1.3c.8 0 1.3.6 1.3 1.3zm13.3-2.1c0 0 0 14 0 14c0 1 0 2.2.1 3c0 0-1.9 0-1.9 0l-.1-2c0 0-.04-.02 0 0c-.7 1.3-2.1 2.3-4 2.3c-2.8 0-5-2.4-5-5.9c0-3.9 2.4-6.3 5.2-6.3c1.8 0 3 .9 3.5 1.8c.04 0 .1 0 .1 0l0-6.9l2.1 0zm-2.1 10.1c0-.3 0-.6-.1-.9c-.3-1.3-1.5-2.4-3.1-2.4c-2.1 0-3.4 1.9-3.4 4.5c0 2.3 1.1 4.3 3.4 4.3c1.4 0 2.7-1 3.1-2.6c.1-.2.1-.5.1-.9c0 0 0-2 0-2zm10.6 6.9c0-.8.1-2 .1-3c-.01 0 0-14 0-14l2.1 0l0 7.3c0 0 .03-.04 0 0c.8-1.3 2.1-2.2 4-2.2c2.9 0 4.9 2.4 4.9 5.9c0 4.2-2.6 6.3-5.2 6.3c-1.7 0-3-.7-3.9-2.2c-.01-.02-.1 0-.1 0l-.1 1.9c0 0-1.8 0-1.8 0zm2.2-4.7c0 .3 0 .6.1.8c.4 1.5 1.6 2.5 3.1 2.5c2.3 0 3.6-1.8 3.6-4.5c0-2.3-1.2-4.3-3.5-4.3c-1.4 0-2.8 1-3.2 2.6c0 .2-.1.5-.1.9c0 0 0 2 0 2zm12.1-6.9c0 0 2.59 6.85 2.6 6.8c.3.8.5 1.7.7 2.4c0 0 .1 0 .1 0c.2-.7.4-1.6.7-2.4c.03 0 2.3-6.8 2.3-6.8l2.3 0c0 0-3.2 8.26-3.2 8.3c-1.5 3.9-2.5 6-4 7.2c-1 .9-2.1 1.3-2.6 1.4c0 0-.5-1.8-.5-1.8c.5-.1 1.2-.5 1.8-1c.6-.5 1.3-1.3 1.8-2.4c.1-.2.2-.3.2-.5c0-.1-.1-.2-.2-.5c.04-.01-4.3-10.7-4.3-10.7l2.3 0zm18.2-3.4l0 3.4l3 0l0 1.6l-3 0c0 0 .01 6.26 0 6.3c0 1.4.4 2.2 1.6 2.2c.6 0 1-.1 1.2-.1c0 0 .1 1.6.1 1.6c-.4.1-1 .2-1.9.2c-.9 0-1.7-.3-2.2-.8c-.6-.7-.8-1.7-.8-3.1c-.05.03 0-6.3 0-6.3l-1.8 0l0-1.6l1.8 0l0-2.8l2-.6zm5.4-2l2.1 0l0 7.2c0 0 .07.01.1 0c.3-.6.8-1.1 1.5-1.5c.6-.3 1.4-.6 2.1-.6c1.6 0 4.1 1 4.1 5c0-.01 0 6.9 0 6.9l-2.1 0c0 0-.01-6.67 0-6.7c0-1.8-.7-3.4-2.7-3.4c-1.4 0-2.4.9-2.8 2.1c-.1.3-.2.6-.2 1c.03-.01 0 7 0 7l-2.1 0l0-17zm14.5 11.6c.1 2.8 1.9 4 4 4c1.5 0 2.4-.3 3.2-.6c0 0 .4 1.5.4 1.5c-.8.4-2 .7-3.9.7c-3.6 0-5.7-2.3-5.7-5.8c0-3.5 2.1-6.3 5.4-6.3c3.8 0 4.8 3.4 4.8 5.5c0 .4 0 .8 0 1c0 0-8.2 0-8.2 0zm6.2-1.5c0-1.4-.5-3.5-2.9-3.5c-2.2 0-3.1 2-3.3 3.5c0 0 6.2 0 6.2 0zm9.5 4.7c.6.4 1.7.9 2.7.9c1.6 0 2.3-.8 2.3-1.7c0-1.1-.6-1.6-2.2-2.2c-2-.7-3-1.9-3-3.3c0-1.8 1.5-3.4 4-3.4c1.1 0 2.2.4 2.8.7c0 0-.5 1.6-.5 1.6c-.5-.3-1.3-.7-2.4-.7c-1.2 0-1.9.7-1.9 1.6c0 .9.7 1.4 2.2 2c2 .7 3 1.7 3 3.5c0 2-1.5 3.4-4.3 3.4c-1.3 0-2.5-.3-3.3-.8c0 0 .6-1.6.6-1.6zm19.5-1c0 1.2 0 2.3.1 3.2c-.03 0-1.9 0-1.9 0l-.1-1.9c0 0-.07 0-.1 0c-.5.9-1.8 2.2-3.8 2.2c-1.8 0-4-1-4-5.1c-.02-.02 0-6.8 0-6.8l2.1 0c0 0-.01 6.42 0 6.4c0 2.2.7 3.7 2.6 3.7c1.4 0 2.4-1 2.8-1.9c.1-.3.2-.7.2-1.1c-.04.01 0-7.1 0-7.1l2.1 0c0 0-.03 8.43 0 8.4zm3.5-4.6c0-1.5-.1-2.7-.1-3.8c-.02-.02 1.9 0 1.9 0l.1 2c0 0 .02-.02 0 0c.9-1.4 2.2-2.3 4.1-2.3c2.9 0 5 2.4 5 5.9c0 4.2-2.6 6.3-5.3 6.3c-1.6 0-2.9-.7-3.6-1.9c.01.04 0 0 0 0l0 6.4l-2.1 0c0 0-.03-12.62 0-12.6zm2.1 3.1c0 .3 0 .6.1.8c.3 1.5 1.6 2.5 3.1 2.5c2.3 0 3.6-1.8 3.6-4.5c0-2.3-1.3-4.3-3.5-4.3c-1.4 0-2.8 1-3.2 2.6c-.1.3-.1.6-.1.9c0 0 0 2 0 2zm11.5-3.1c0-1.5 0-2.7-.1-3.8c.03-.02 1.9 0 1.9 0l.1 2c0 0 .07-.02.1 0c.8-1.4 2.2-2.3 4.1-2.3c2.8 0 4.9 2.4 4.9 5.9c0 4.2-2.5 6.3-5.3 6.3c-1.5 0-2.8-.7-3.5-1.9c-.03.04-.1 0-.1 0l0 6.4l-2.1 0c0 0 .03-12.62 0-12.6zm2.1 3.1c0 .3.1.6.1.8c.4 1.5 1.7 2.5 3.2 2.5c2.2 0 3.5-1.8 3.5-4.5c0-2.3-1.2-4.3-3.4-4.3c-1.5 0-2.8 1-3.2 2.6c-.1.3-.2.6-.2.9c0 0 0 2 0 2zm11.6-12.3l2.1 0l0 17l-2.1 0l0-17zm5.6 17l0-11.6l2.2 0l0 11.6l-2.2 0zm2.4-14.9c0 .7-.5 1.3-1.3 1.3c-.8 0-1.3-.6-1.3-1.3c0-.7.5-1.3 1.3-1.3c.8 0 1.3.6 1.3 1.3zm4.4 9.5c.1 2.8 1.9 4 4 4c1.5 0 2.4-.3 3.2-.6c0 0 .4 1.5.4 1.5c-.7.4-2 .7-3.9.7c-3.5 0-5.7-2.3-5.7-5.8c0-3.5 2.1-6.3 5.5-6.3c3.8 0 4.8 3.4 4.8 5.5c0 .4-.1.8-.1 1c0 0-8.2 0-8.2 0zm6.2-1.5c.1-1.4-.5-3.5-2.9-3.5c-2.1 0-3.1 2-3.2 3.5c0 0 6.1 0 6.1 0zm4.7-1.1c0-1.4 0-2.5-.1-3.6c-.01-.02 1.8 0 1.8 0l.1 2.3c0 0 .11-.04.1 0c.5-1.6 1.8-2.6 3.2-2.6c.3 0 .4 0 .6.1c0 0 0 2 0 2c-.2-.1-.4-.1-.7-.1c-1.5 0-2.5 1.1-2.8 2.7c-.1.3-.1.6-.1 1c-.02.01 0 6.2 0 6.2l-2.1 0c0 0-.01-7.99 0-8zm5.2 11c.5-1.5 1.2-4 1.4-5.8c0 0 2.4-.2 2.4-.2c-.6 2-1.6 4.7-2.3 5.8c0 0-1.5.2-1.5.2zm17.9-3l-.2-1.5c0 0-.09.04-.1 0c-.6.9-1.9 1.8-3.5 1.8c-2.4 0-3.6-1.7-3.6-3.4c0-2.8 2.5-4.3 7-4.3c0 0 0-.2 0-.2c0-1-.3-2.7-2.6-2.7c-1.1 0-2.3.3-3.1.8c0 0-.5-1.3-.5-1.3c1-.7 2.4-1.1 3.9-1.1c3.5 0 4.4 2.4 4.4 4.8c0 0 0 4.3 0 4.3c0 1 0 2 .2 2.8c-.03 0-1.9 0-1.9 0zm-.4-5.9c-2.3-.1-4.9.3-4.9 2.6c0 1.4.9 2 2 2c1.5 0 2.5-1 2.8-1.9c.1-.3.1-.5.1-.7c0 0 0-2 0-2zm5.5-2.6c0-1.2 0-2.2-.1-3.1c-.01-.02 1.9 0 1.9 0l.1 1.9c0 0 .03 0 0 0c.6-1.1 2-2.2 3.9-2.2c1.6 0 4.1 1 4.1 5c-.02-.04 0 6.9 0 6.9l-2.1 0c0 0-.04-6.7 0-6.7c0-1.9-.7-3.4-2.7-3.4c-1.4 0-2.5 1-2.9 2.1c-.1.3-.1.7-.1 1c0 .02 0 7 0 7l-2.1 0c0 0-.01-8.47 0-8.5zm23.3-8.5c0 0 .04 14 0 14c0 1 .1 2.2.1 3c.04 0-1.9 0-1.9 0l-.1-2c0 0 0-.02 0 0c-.7 1.3-2.1 2.3-4 2.3c-2.8 0-4.9-2.4-4.9-5.9c-.1-3.9 2.3-6.3 5.2-6.3c1.8 0 3 .9 3.5 1.8c-.02 0 0 0 0 0l0-6.9l2.1 0zm-2.1 10.1c0-.3 0-.6-.1-.9c-.3-1.3-1.4-2.4-3-2.4c-2.2 0-3.5 1.9-3.5 4.5c0 2.3 1.2 4.3 3.4 4.3c1.5 0 2.7-1 3.1-2.6c.1-.2.1-.5.1-.9c0 0 0-2 0-2zm13.3-8.1l0 3.4l3 0l0 1.6l-3 0c0 0-.02 6.26 0 6.3c0 1.4.4 2.2 1.6 2.2c.5 0 .9-.1 1.2-.1c0 0 .1 1.6.1 1.6c-.4.1-1.1.2-1.9.2c-1 0-1.8-.3-2.3-.8c-.6-.7-.8-1.7-.8-3.1c.01.03 0-6.3 0-6.3l-1.8 0l0-1.6l1.8 0l0-2.8l2.1-.6zm5.4-2l2.1 0l0 7.2c0 0 .04.01 0 0c.4-.6.9-1.1 1.5-1.5c.7-.3 1.4-.6 2.2-.6c1.6 0 4.1 1 4.1 5c-.04-.01 0 6.9 0 6.9l-2.1 0c0 0-.05-6.67 0-6.7c0-1.8-.7-3.4-2.7-3.4c-1.4 0-2.5.9-2.9 2.1c-.1.3-.1.6-.1 1c-.01-.01 0 7 0 7l-2.1 0l0-17zm19.7 17l-.1-1.5c0 0-.11.04-.1 0c-.7.9-1.9 1.8-3.6 1.8c-2.3 0-3.5-1.7-3.5-3.4c0-2.8 2.5-4.3 7-4.3c0 0 0-.2 0-.2c0-1-.3-2.7-2.7-2.7c-1.1 0-2.2.3-3 .8c0 0-.5-1.3-.5-1.3c1-.7 2.4-1.1 3.8-1.1c3.6 0 4.5 2.4 4.5 4.8c0 0 0 4.3 0 4.3c0 1 0 2 .1 2.8c.05 0-1.9 0-1.9 0zm-.3-5.9c-2.3-.1-4.9.3-4.9 2.6c0 1.4.9 2 2 2c1.5 0 2.5-1 2.8-1.9c.1-.3.1-.5.1-.7c0 0 0-2 0-2zm7.9-9.1l0 3.4l3 0l0 1.6l-3 0c0 0 .01 6.26 0 6.3c0 1.4.4 2.2 1.6 2.2c.5 0 1-.1 1.2-.1c0 0 .1 1.6.1 1.6c-.4.1-1 .2-1.9.2c-.9 0-1.7-.3-2.2-.8c-.6-.7-.9-1.7-.9-3.1c.05.03 0-6.3 0-6.3l-1.8 0l0-1.6l1.8 0l0-2.8l2.1-.6zm12.7-1.2l0 16.2l-2.1 0l0-16.2l2.1 0zm6.7 1.8l-4.9 0l0-1.8l11.9 0l0 1.8l-4.9 0l0 14.4l-2.1 0l0-14.4zm19.5 13.9c-.8.4-2.3.7-4.3.7c-4.5 0-8-2.8-8-8.1c0-5.1 3.5-8.5 8.5-8.5c2 0 3.3.4 3.8.7c0 0-.5 1.7-.5 1.7c-.8-.4-1.9-.7-3.3-.7c-3.7 0-6.3 2.4-6.3 6.7c0 3.9 2.3 6.5 6.3 6.5c1.2 0 2.5-.3 3.4-.7c0 0 .4 1.7.4 1.7zm18.1-5.4c0 4.3-2.9 6.2-5.8 6.2c-3.1 0-5.5-2.3-5.5-6c0-3.9 2.5-6.2 5.7-6.2c3.4 0 5.6 2.4 5.6 6zm-9.2.1c0 2.6 1.5 4.5 3.5 4.5c2.1 0 3.6-1.9 3.6-4.5c0-2-1-4.5-3.5-4.5c-2.5 0-3.6 2.3-3.6 4.5zm11.9-2.7c0-1.2 0-2.2-.1-3.1c0-.02 1.9 0 1.9 0l.1 1.9c0 0 .04 0 0 0c.6-1.1 2-2.2 3.9-2.2c1.6 0 4.1 1 4.1 5c-.01-.04 0 6.9 0 6.9l-2.1 0c0 0-.03-6.7 0-6.7c0-1.9-.7-3.4-2.7-3.4c-1.4 0-2.5 1-2.8 2.1c-.1.3-.2.7-.2 1c.01.02 0 7 0 7l-2.1 0c0 0 0-8.47 0-8.5z" stroke="none" fill="#3c3c3b"/></g><g id="Polygon5333"><path d="m1.8 88l0-11.6l2.1 0l0 11.6l-2.1 0zm2.3-14.9c0 .7-.5 1.3-1.3 1.3c-.8 0-1.3-.6-1.3-1.3c0-.7.5-1.3 1.3-1.3c.8 0 1.3.6 1.3 1.3zm3.3 6.4c0-1.2-.1-2.2-.1-3.1c-.03-.02 1.8 0 1.8 0l.2 1.9c0 0 .01 0 0 0c.6-1.1 1.9-2.2 3.9-2.2c1.6 0 4.1 1 4.1 5c-.04-.04 0 6.9 0 6.9l-2.2 0c0 0 .04-6.7 0-6.7c0-1.9-.7-3.4-2.6-3.4c-1.4 0-2.5 1-2.9 2.1c-.1.3-.1.7-.1 1c-.02.02 0 7 0 7l-2.1 0c0 0-.03-8.47 0-8.5zm13.8-3.1c0 0 2.27 6.51 2.3 6.5c.4 1.1.7 2 .9 3c0 0 .1 0 .1 0c.2-1 .6-1.9 1-3c-.04.01 2.2-6.5 2.2-6.5l2.2 0l-4.5 11.6l-2 0l-4.5-11.6l2.3 0zm21 5.7c0 4.3-3 6.2-5.8 6.2c-3.1 0-5.6-2.3-5.6-6c0-3.9 2.6-6.2 5.8-6.2c3.3 0 5.6 2.4 5.6 6zm-9.2.1c0 2.6 1.4 4.5 3.5 4.5c2 0 3.5-1.9 3.5-4.5c0-2-1-4.5-3.4-4.5c-2.5 0-3.6 2.3-3.6 4.5zm11.9 5.8l0-11.6l2.1 0l0 11.6l-2.1 0zm2.3-14.9c0 .7-.5 1.3-1.3 1.3c-.8 0-1.3-.6-1.3-1.3c0-.7.5-1.3 1.3-1.3c.8 0 1.3.6 1.3 1.3zm11.6 14.5c-.6.3-1.8.6-3.4.6c-3.5 0-5.8-2.3-5.8-5.9c0-3.6 2.5-6.2 6.3-6.2c1.2 0 2.3.4 2.9.6c0 0-.5 1.7-.5 1.7c-.5-.3-1.3-.6-2.4-.6c-2.7 0-4.1 2-4.1 4.4c0 2.7 1.7 4.4 4 4.4c1.2 0 2-.4 2.6-.6c0 0 .4 1.6.4 1.6zm3.5-5c0 2.8 1.8 4 3.9 4c1.6 0 2.5-.3 3.3-.6c0 0 .3 1.5.3 1.5c-.7.4-2 .7-3.8.7c-3.6 0-5.8-2.3-5.8-5.8c0-3.5 2.1-6.3 5.5-6.3c3.8 0 4.8 3.4 4.8 5.5c0 .4-.1.8-.1 1c0 0-8.1 0-8.1 0zm6.1-1.5c.1-1.4-.5-3.5-2.9-3.5c-2.1 0-3.1 2-3.2 3.5c0 0 6.1 0 6.1 0zm2.9 7.9l6.7-17.4l1.7 0l-6.8 17.4l-1.6 0zm20.1-18c0 0-.03 14 0 14c0 1 0 2.2.1 3c-.04 0-1.9 0-1.9 0l-.1-2c0 0-.08-.02-.1 0c-.6 1.3-2 2.3-3.9 2.3c-2.8 0-5-2.4-5-5.9c0-3.9 2.4-6.3 5.2-6.3c1.8 0 3 .9 3.5 1.8c.01 0 .1 0 .1 0l0-6.9l2.1 0zm-2.1 10.1c0-.3-.1-.6-.1-.9c-.4-1.3-1.5-2.4-3.1-2.4c-2.2 0-3.5 1.9-3.5 4.5c0 2.3 1.2 4.3 3.5 4.3c1.4 0 2.7-1 3.1-2.6c0-.2.1-.5.1-.9c0 0 0-2 0-2zm6.7 1.5c.1 2.8 1.9 4 4 4c1.5 0 2.5-.3 3.2-.6c0 0 .4 1.5.4 1.5c-.7.4-2 .7-3.9.7c-3.5 0-5.7-2.3-5.7-5.8c0-3.5 2.1-6.3 5.5-6.3c3.8 0 4.8 3.4 4.8 5.5c0 .4-.1.8-.1 1c0 0-8.2 0-8.2 0zm6.2-1.5c.1-1.4-.5-3.5-2.9-3.5c-2.1 0-3.1 2-3.2 3.5c0 0 6.1 0 6.1 0zm4.6 6.9c0-.8.1-2 .1-3c-.01 0 0-14 0-14l2.1 0l0 7.3c0 0 .03-.04 0 0c.8-1.3 2.1-2.2 4-2.2c2.9 0 4.9 2.4 4.9 5.9c0 4.2-2.6 6.3-5.2 6.3c-1.7 0-3-.7-3.9-2.2c-.01-.02-.1 0-.1 0l-.1 1.9c0 0-1.8 0-1.8 0zm2.2-4.7c0 .3 0 .6.1.8c.4 1.5 1.6 2.5 3.1 2.5c2.3 0 3.6-1.8 3.6-4.5c0-2.3-1.2-4.3-3.5-4.3c-1.4 0-2.8 1-3.2 2.6c0 .2-.1.5-.1.9c0 0 0 2 0 2zm11.6 4.7l0-11.6l2.1 0l0 11.6l-2.1 0zm2.3-14.9c0 .7-.5 1.3-1.3 1.3c-.8 0-1.3-.6-1.3-1.3c0-.7.5-1.3 1.3-1.3c.8 0 1.3.6 1.3 1.3zm5.8-.1l0 3.4l3 0l0 1.6l-3 0c0 0 .01 6.26 0 6.3c0 1.4.4 2.2 1.6 2.2c.5 0 1-.1 1.2-.1c0 0 .1 1.6.1 1.6c-.4.1-1 .2-1.9.2c-.9 0-1.7-.3-2.2-.8c-.6-.7-.9-1.7-.9-3.1c.05.03 0-6.3 0-6.3l-1.8 0l0-1.6l1.8 0l0-2.8l2.1-.6zm10.5 6.5c0-1.2 0-2.2-.1-3.1c0-.02 1.9 0 1.9 0l.1 1.9c0 0 .04 0 0 0c.6-1.1 2-2.2 3.9-2.2c1.6 0 4.1 1 4.1 5c-.01-.04 0 6.9 0 6.9l-2.1 0c0 0-.03-6.7 0-6.7c0-1.9-.7-3.4-2.7-3.4c-1.4 0-2.5 1-2.8 2.1c-.1.3-.2.7-.2 1c.01.02 0 7 0 7l-2.1 0c0 0 0-8.47 0-8.5zm23.8 2.6c0 4.3-2.9 6.2-5.8 6.2c-3.1 0-5.5-2.3-5.5-6c0-3.9 2.5-6.2 5.7-6.2c3.4 0 5.6 2.4 5.6 6zm-9.2.1c0 2.6 1.5 4.5 3.5 4.5c2.1 0 3.6-1.9 3.6-4.5c0-2-1-4.5-3.5-4.5c-2.5 0-3.6 2.3-3.6 4.5zm14.4-9.2l0 3.4l3.1 0l0 1.6l-3.1 0c0 0 .04 6.26 0 6.3c0 1.4.4 2.2 1.6 2.2c.6 0 1-.1 1.2-.1c0 0 .1 1.6.1 1.6c-.4.1-1 .2-1.8.2c-1 0-1.8-.3-2.3-.8c-.6-.7-.8-1.7-.8-3.1c-.03.03 0-6.3 0-6.3l-1.8 0l0-1.6l1.8 0l0-2.8l2-.6zm6.5 9.6c0 2.8 1.8 4 4 4c1.5 0 2.4-.3 3.2-.6c0 0 .3 1.5.3 1.5c-.7.4-2 .7-3.8.7c-3.6 0-5.7-2.3-5.7-5.8c0-3.5 2-6.3 5.4-6.3c3.8 0 4.8 3.4 4.8 5.5c0 .4 0 .8-.1 1c0 0-8.1 0-8.1 0zm6.2-1.5c0-1.4-.6-3.5-3-3.5c-2.1 0-3 2-3.2 3.5c0 0 6.2 0 6.2 0zm12.2-8.1l0 3.4l3.1 0l0 1.6l-3.1 0c0 0 .05 6.26 0 6.3c0 1.4.5 2.2 1.6 2.2c.6 0 1-.1 1.3-.1c0 0 .1 1.6.1 1.6c-.5.1-1.1.2-1.9.2c-1 0-1.8-.3-2.3-.8c-.6-.7-.8-1.7-.8-3.1c-.01.03 0-6.3 0-6.3l-1.8 0l0-1.6l1.8 0l0-2.8l2-.6zm15.8 9.1c0 4.3-3 6.2-5.8 6.2c-3.1 0-5.5-2.3-5.5-6c0-3.9 2.5-6.2 5.7-6.2c3.4 0 5.6 2.4 5.6 6zm-9.2.1c0 2.6 1.5 4.5 3.5 4.5c2 0 3.6-1.9 3.6-4.5c0-2-1-4.5-3.5-4.5c-2.5 0-3.6 2.3-3.6 4.5zm16.9 5.8c0-.8.1-2 .1-3c-.03 0 0-14 0-14l2.1 0l0 7.3c0 0 0-.04 0 0c.7-1.3 2.1-2.2 4-2.2c2.8 0 4.9 2.4 4.9 5.9c0 4.2-2.7 6.3-5.2 6.3c-1.7 0-3.1-.7-3.9-2.2c-.04-.02-.1 0-.1 0l-.1 1.9c0 0-1.83 0-1.8 0zm2.2-4.7c0 .3 0 .6.1.8c.4 1.5 1.6 2.5 3.1 2.5c2.2 0 3.5-1.8 3.5-4.5c0-2.3-1.2-4.3-3.4-4.3c-1.4 0-2.8 1-3.2 2.6c-.1.2-.1.5-.1.9c0 0 0 2 0 2zm12.7-.7c0 2.8 1.9 4 4 4c1.5 0 2.4-.3 3.2-.6c0 0 .4 1.5.4 1.5c-.8.4-2.1.7-3.9.7c-3.6 0-5.7-2.3-5.7-5.8c0-3.5 2-6.3 5.4-6.3c3.8 0 4.8 3.4 4.8 5.5c0 .4 0 .8 0 1c0 0-8.2 0-8.2 0zm6.2-1.5c0-1.4-.6-3.5-2.9-3.5c-2.2 0-3.1 2-3.3 3.5c0 0 6.2 0 6.2 0zm18 6.5c-.5.3-1.8.6-3.3.6c-3.5 0-5.8-2.3-5.8-5.9c0-3.6 2.4-6.2 6.2-6.2c1.3 0 2.4.4 3 .6c0 0-.5 1.7-.5 1.7c-.5-.3-1.3-.6-2.5-.6c-2.6 0-4.1 2-4.1 4.4c0 2.7 1.8 4.4 4.1 4.4c1.2 0 2-.4 2.6-.6c0 0 .3 1.6.3 1.6zm12.9-5.5c0 4.3-3 6.2-5.8 6.2c-3.2 0-5.6-2.3-5.6-6c0-3.9 2.5-6.2 5.8-6.2c3.3 0 5.6 2.4 5.6 6zm-9.3.1c0 2.6 1.5 4.5 3.6 4.5c2 0 3.5-1.9 3.5-4.5c0-2-1-4.5-3.5-4.5c-2.5 0-3.6 2.3-3.6 4.5zm11.9-2.7c0-1.2 0-2.2-.1-3.1c.02-.02 1.9 0 1.9 0l.1 1.9c0 0 .04-.04 0 0c.7-1.1 1.8-2.2 3.7-2.2c1.6 0 2.8 1 3.3 2.3c0 0 0 0 0 0c.4-.6.8-1.1 1.3-1.5c.7-.5 1.5-.8 2.6-.8c1.5 0 3.8 1 3.8 5.1c0-.04 0 6.8 0 6.8l-2.1 0c0 0 .04-6.58 0-6.6c0-2.2-.8-3.6-2.5-3.6c-1.2 0-2.1.9-2.5 2c-.1.3-.1.6-.1 1c-.04.02 0 7.2 0 7.2l-2.1 0c0 0-.01-6.96 0-7c0-1.8-.8-3.2-2.4-3.2c-1.4 0-2.3 1.1-2.6 2.2c-.2.3-.2.6-.2 1c-.02-.01 0 7 0 7l-2.1 0c0 0 .02-8.47 0-8.5zm20 0c0-1.2 0-2.2-.1-3.1c.04-.02 1.9 0 1.9 0l.1 1.9c0 0 .06-.04.1 0c.6-1.1 1.7-2.2 3.6-2.2c1.6 0 2.8 1 3.3 2.3c0 0 0 0 0 0c.4-.6.9-1.1 1.3-1.5c.7-.5 1.5-.8 2.6-.8c1.5 0 3.8 1 3.8 5.1c.02-.04 0 6.8 0 6.8l-2 0c0 0-.04-6.58 0-6.6c0-2.2-.9-3.6-2.6-3.6c-1.2 0-2.1.9-2.5 2c-.1.3-.1.6-.1 1c-.03.02 0 7.2 0 7.2l-2.1 0c0 0 .01-6.96 0-7c0-1.8-.8-3.2-2.4-3.2c-1.3 0-2.3 1.1-2.6 2.2c-.2.3-.2.6-.2 1c0-.01 0 7 0 7l-2.1 0c0 0 .04-8.47 0-8.5zm29.8 5.3c0 1.2 0 2.3.1 3.2c-.03 0-1.9 0-1.9 0l-.1-1.9c0 0-.07 0-.1 0c-.5.9-1.7 2.2-3.8 2.2c-1.8 0-4-1-4-5.1c-.02-.02 0-6.8 0-6.8l2.1 0c0 0-.01 6.42 0 6.4c0 2.2.7 3.7 2.6 3.7c1.4 0 2.4-1 2.8-1.9c.1-.3.2-.7.2-1.1c-.04.01 0-7.1 0-7.1l2.1 0c0 0-.03 8.43 0 8.4zm3.5-5.3c0-1.2 0-2.2-.1-3.1c-.02-.02 1.9 0 1.9 0l.1 1.9c0 0 .02 0 0 0c.6-1.1 1.9-2.2 3.9-2.2c1.6 0 4.1 1 4.1 5c-.04-.04 0 6.9 0 6.9l-2.1 0c0 0-.05-6.7 0-6.7c0-1.9-.7-3.4-2.7-3.4c-1.4 0-2.5 1-2.9 2.1c-.1.3-.1.7-.1 1c-.01.02 0 7 0 7l-2.1 0c0 0-.02-8.47 0-8.5zm13.3 8.5l0-11.6l2.1 0l0 11.6l-2.1 0zm2.3-14.9c.1.7-.5 1.3-1.3 1.3c-.7 0-1.3-.6-1.3-1.3c0-.7.6-1.3 1.4-1.3c.7 0 1.2.6 1.2 1.3zm11.6 14.5c-.6.3-1.8.6-3.3.6c-3.5 0-5.8-2.3-5.8-5.9c0-3.6 2.4-6.2 6.2-6.2c1.3 0 2.4.4 2.9.6c0 0-.4 1.7-.4 1.7c-.5-.3-1.3-.6-2.5-.6c-2.7 0-4.1 2-4.1 4.4c0 2.7 1.7 4.4 4 4.4c1.2 0 2-.4 2.6-.6c0 0 .4 1.6.4 1.6zm8.9.4l-.2-1.5c0 0-.04.04 0 0c-.7.9-1.9 1.8-3.6 1.8c-2.3 0-3.5-1.7-3.5-3.4c0-2.8 2.4-4.3 6.9-4.3c0 0 0-.2 0-.2c0-1-.2-2.7-2.6-2.7c-1.1 0-2.2.3-3 .8c0 0-.5-1.3-.5-1.3c1-.7 2.3-1.1 3.8-1.1c3.6 0 4.4 2.4 4.4 4.8c0 0 0 4.3 0 4.3c0 1 .1 2 .2 2.8c.02 0-1.9 0-1.9 0zm-.3-5.9c-2.3-.1-4.9.3-4.9 2.6c0 1.4.9 2 2 2c1.5 0 2.4-1 2.8-1.9c0-.3.1-.5.1-.7c0 0 0-2 0-2zm7.9-9.1l0 3.4l3 0l0 1.6l-3 0c0 0-.02 6.26 0 6.3c0 1.4.4 2.2 1.6 2.2c.5 0 .9-.1 1.2-.1c0 0 .1 1.6.1 1.6c-.4.1-1.1.2-1.9.2c-1 0-1.8-.3-2.3-.8c-.6-.7-.8-1.7-.8-3.1c.02.03 0-6.3 0-6.3l-1.8 0l0-1.6l1.8 0l0-2.8l2.1-.6zm6.4 9.6c.1 2.8 1.9 4 4 4c1.5 0 2.4-.3 3.2-.6c0 0 .4 1.5.4 1.5c-.8.4-2 .7-3.9.7c-3.6 0-5.7-2.3-5.7-5.8c0-3.5 2.1-6.3 5.4-6.3c3.8 0 4.8 3.4 4.8 5.5c0 .4 0 .8 0 1c0 0-8.2 0-8.2 0zm6.2-1.5c0-1.4-.5-3.5-2.9-3.5c-2.2 0-3.1 2-3.3 3.5c0 0 6.2 0 6.2 0zm14.7-10.1c0 0-.01 14 0 14c0 1 0 2.2.1 3c-.01 0-1.9 0-1.9 0l-.1-2c0 0-.05-.02-.1 0c-.6 1.3-2 2.3-3.9 2.3c-2.8 0-5-2.4-5-5.9c0-3.9 2.4-6.3 5.2-6.3c1.8 0 3 .9 3.5 1.8c.03 0 .1 0 .1 0l0-6.9l2.1 0zm-2.1 10.1c0-.3 0-.6-.1-.9c-.3-1.3-1.5-2.4-3.1-2.4c-2.1 0-3.4 1.9-3.4 4.5c0 2.3 1.1 4.3 3.4 4.3c1.4 0 2.7-1 3.1-2.6c.1-.2.1-.5.1-.9c0 0 0-2 0-2zm13.2-8.1l0 3.4l3.1 0l0 1.6l-3.1 0c0 0 .03 6.26 0 6.3c0 1.4.4 2.2 1.6 2.2c.6 0 1-.1 1.2-.1c0 0 .1 1.6.1 1.6c-.4.1-1 .2-1.8.2c-1 0-1.8-.3-2.3-.8c-.6-.7-.8-1.7-.8-3.1c-.04.03 0-6.3 0-6.3l-1.8 0l0-1.6l1.8 0l0-2.8l2-.6zm15.8 9.1c0 4.3-3 6.2-5.8 6.2c-3.1 0-5.6-2.3-5.6-6c0-3.9 2.6-6.2 5.8-6.2c3.3 0 5.6 2.4 5.6 6zm-9.2.1c0 2.6 1.4 4.5 3.5 4.5c2 0 3.5-1.9 3.5-4.5c0-2-.9-4.5-3.4-4.5c-2.5 0-3.6 2.3-3.6 4.5zm19.5-9.2l0 3.4l3 0l0 1.6l-3 0c0 0-.01 6.26 0 6.3c0 1.4.4 2.2 1.6 2.2c.5 0 .9-.1 1.2-.1c0 0 .1 1.6.1 1.6c-.4.1-1.1.2-1.9.2c-1 0-1.8-.3-2.3-.8c-.6-.7-.8-1.7-.8-3.1c.03.03 0-6.3 0-6.3l-1.8 0l0-1.6l1.8 0l0-2.8l2.1-.6zm5.4-2l2.1 0l0 7.2c0 0 .05.01.1 0c.3-.6.8-1.1 1.5-1.5c.6-.3 1.3-.6 2.1-.6c1.6 0 4.1 1 4.1 5c-.02-.01 0 6.9 0 6.9l-2.1 0c0 0-.03-6.67 0-6.7c0-1.8-.7-3.4-2.7-3.4c-1.4 0-2.5.9-2.9 2.1c-.1.3-.1.6-.1 1c0-.01 0 7 0 7l-2.1 0l0-17zm14.5 11.6c0 2.8 1.9 4 4 4c1.5 0 2.4-.3 3.2-.6c0 0 .3 1.5.3 1.5c-.7.4-2 .7-3.8.7c-3.6 0-5.7-2.3-5.7-5.8c0-3.5 2-6.3 5.4-6.3c3.8 0 4.8 3.4 4.8 5.5c0 .4 0 .8-.1 1c0 0-8.1 0-8.1 0zm6.2-1.5c0-1.4-.6-3.5-3-3.5c-2.1 0-3 2-3.2 3.5c0 0 6.2 0 6.2 0zm9.7-1.1c0-1.4 0-2.5-.1-3.6c.03-.02 1.9 0 1.9 0l0 2.3c0 0 .14-.04.1 0c.6-1.6 1.8-2.6 3.3-2.6c.2 0 .4 0 .6.1c0 0 0 2 0 2c-.3-.1-.5-.1-.8-.1c-1.5 0-2.5 1.1-2.8 2.7c0 .3-.1.6-.1 1c.01.01 0 6.2 0 6.2l-2.1 0c0 0 .02-7.99 0-8zm8.8 2.6c.1 2.8 1.9 4 4 4c1.5 0 2.4-.3 3.2-.6c0 0 .4 1.5.4 1.5c-.8.4-2.1.7-3.9.7c-3.6 0-5.7-2.3-5.7-5.8c0-3.5 2.1-6.3 5.4-6.3c3.8 0 4.8 3.4 4.8 5.5c0 .4 0 .8 0 1c0 0-8.2 0-8.2 0zm6.2-1.5c0-1.4-.6-3.5-2.9-3.5c-2.2 0-3.1 2-3.3 3.5c0 0 6.2 0 6.2 0zm12.9 6.5c-.5.3-1.7.6-3.3.6c-3.5 0-5.8-2.3-5.8-5.9c0-3.6 2.5-6.2 6.3-6.2c1.2 0 2.3.4 2.9.6c0 0-.5 1.7-.5 1.7c-.5-.3-1.3-.6-2.4-.6c-2.7 0-4.2 2-4.2 4.4c0 2.7 1.8 4.4 4.1 4.4c1.2 0 2-.4 2.6-.6c0 0 .3 1.6.3 1.6zm2.5.4l0-11.6l2.1 0l0 11.6l-2.1 0zm2.4-14.9c0 .7-.5 1.3-1.4 1.3c-.7 0-1.3-.6-1.3-1.3c0-.7.6-1.3 1.4-1.3c.8 0 1.3.6 1.3 1.3zm3.2 7.1c0-1.5 0-2.7-.1-3.8c.03-.02 1.9 0 1.9 0l.1 2c0 0 .07-.02.1 0c.8-1.4 2.2-2.3 4.1-2.3c2.8 0 4.9 2.4 4.9 5.9c0 4.2-2.5 6.3-5.3 6.3c-1.5 0-2.8-.7-3.5-1.9c-.04.04-.1 0-.1 0l0 6.4l-2.1 0c0 0 .02-12.62 0-12.6zm2.1 3.1c0 .3.1.6.1.8c.4 1.5 1.7 2.5 3.2 2.5c2.2 0 3.5-1.8 3.5-4.5c0-2.3-1.2-4.3-3.5-4.3c-1.4 0-2.7 1-3.1 2.6c-.1.3-.2.6-.2.9c0 0 0 2 0 2zm11.6 4.7l0-11.6l2.1 0l0 11.6l-2.1 0zm2.3-14.9c.1.7-.5 1.3-1.3 1.3c-.8 0-1.3-.6-1.3-1.3c0-.7.6-1.3 1.3-1.3c.8 0 1.3.6 1.3 1.3zm4.5 9.5c0 2.8 1.8 4 4 4c1.5 0 2.4-.3 3.2-.6c0 0 .3 1.5.3 1.5c-.7.4-2 .7-3.8.7c-3.6 0-5.7-2.3-5.7-5.8c0-3.5 2-6.3 5.4-6.3c3.8 0 4.8 3.4 4.8 5.5c0 .4 0 .8-.1 1c0 0-8.1 0-8.1 0zm6.2-1.5c0-1.4-.6-3.5-3-3.5c-2.1 0-3 2-3.2 3.5c0 0 6.2 0 6.2 0zm4.6-1.6c0-1.2 0-2.2-.1-3.1c.02-.02 1.9 0 1.9 0l.1 1.9c0 0 .06 0 .1 0c.5-1.1 1.9-2.2 3.8-2.2c1.6 0 4.1 1 4.1 5c0-.04 0 6.9 0 6.9l-2.1 0c0 0-.01-6.7 0-6.7c0-1.9-.7-3.4-2.7-3.4c-1.4 0-2.5 1-2.8 2.1c-.1.3-.2.7-.2 1c.03.02 0 7 0 7l-2.1 0c0 0 .02-8.47 0-8.5zm15.8-6.5l0 3.4l3 0l0 1.6l-3 0c0 0-.02 6.26 0 6.3c0 1.4.4 2.2 1.6 2.2c.5 0 .9-.1 1.2-.1c0 0 .1 1.6.1 1.6c-.4.1-1.1.2-1.9.2c-1 0-1.8-.3-2.3-.8c-.6-.7-.8-1.7-.8-3.1c.02.03 0-6.3 0-6.3l-1.8 0l0-1.6l1.8 0l0-2.8l2.1-.6zm3.9 18c.6-1.5 1.2-4 1.5-5.8c0 0 2.3-.2 2.3-.2c-.5 2-1.6 4.7-2.2 5.8c0 0-1.6.2-1.6.2z" stroke="none" fill="#3c3c3b"/></g><g id="Polygon5332"><path d="m1.5 50.8c.6.4 1.7.9 2.7.9c1.6 0 2.3-.8 2.3-1.7c0-1.1-.6-1.6-2.2-2.2c-2-.7-3-1.9-3-3.3c0-1.8 1.5-3.4 4-3.4c1.2 0 2.2.4 2.8.7c0 0-.5 1.6-.5 1.6c-.4-.3-1.3-.7-2.4-.7c-1.2 0-1.9.7-1.9 1.6c0 .9.7 1.4 2.2 2c2 .7 3 1.7 3 3.5c0 2-1.5 3.4-4.3 3.4c-1.3 0-2.4-.3-3.3-.8c0 0 .6-1.6.6-1.6zm12.3-12.8l0 3.4l3 0l0 1.6l-3 0c0 0 0 6.26 0 6.3c0 1.4.4 2.2 1.6 2.2c.5 0 .9-.1 1.2-.1c0 0 .1 1.6.1 1.6c-.4.1-1.1.2-1.9.2c-1 0-1.7-.3-2.2-.8c-.6-.7-.9-1.7-.9-3.1c.04.03 0-6.3 0-6.3l-1.8 0l0-1.6l1.8 0l0-2.8l2.1-.6zm5.4 7c0-1.4 0-2.5-.1-3.6c0-.02 1.9 0 1.9 0l0 2.3c0 0 .12-.04.1 0c.5-1.6 1.8-2.6 3.2-2.6c.3 0 .4 0 .6.1c0 0 0 2 0 2c-.2-.1-.4-.1-.7-.1c-1.5 0-2.5 1.1-2.8 2.7c-.1.3-.1.6-.1 1c-.01.01 0 6.2 0 6.2l-2.1 0c0 0 0-7.99 0-8zm7.9 8l0-11.6l2.2 0l0 11.6l-2.2 0zm2.4-14.9c0 .7-.5 1.3-1.3 1.3c-.8 0-1.3-.6-1.3-1.3c0-.7.5-1.3 1.3-1.3c.8 0 1.3.6 1.3 1.3zm3.3 6.4c0-1.2-.1-2.2-.1-3.1c-.04-.02 1.8 0 1.8 0l.2 1.9c0 0 0 0 0 0c.6-1.1 1.9-2.2 3.8-2.2c1.7 0 4.1 1 4.1 5c.05-.04 0 6.9 0 6.9l-2.1 0c0 0 .04-6.7 0-6.7c0-1.9-.7-3.4-2.7-3.4c-1.3 0-2.4 1-2.8 2.1c-.1.3-.1.7-.1 1c-.03.02 0 7 0 7l-2.1 0c0 0-.04-8.47 0-8.5zm23.3-3.1c-.1.8-.1 1.8-.1 3.2c0 0 0 6.7 0 6.7c0 2.7-.5 4.3-1.7 5.3c-1.1 1.1-2.7 1.4-4.2 1.4c-1.4 0-2.9-.3-3.9-.9c0 0 .6-1.7.6-1.7c.7.5 1.9 1 3.4 1c2.1 0 3.7-1.2 3.7-4.1c.03 0 0-1.3 0-1.3c0 0-.02.01 0 0c-.7 1.1-1.9 2-3.7 2c-2.9 0-5-2.5-5-5.7c0-3.9 2.6-6.2 5.3-6.2c2 0 3.1 1.1 3.6 2c0 .04 0 0 0 0l.1-1.7c0 0 1.89-.02 1.9 0zm-2.2 4.6c0-.4 0-.7-.1-1c-.4-1.2-1.4-2.2-3-2.2c-2 0-3.4 1.7-3.4 4.4c0 2.2 1.1 4.1 3.4 4.1c1.3 0 2.5-.8 2.9-2.1c.2-.4.2-.8.2-1.1c0 0 0-2.1 0-2.1zm6.8 1.6c0 2.8 1.8 4 4 4c1.5 0 2.4-.3 3.2-.6c0 0 .3 1.5.3 1.5c-.7.4-2 .7-3.8.7c-3.6 0-5.7-2.3-5.7-5.8c0-3.5 2-6.3 5.4-6.3c3.8 0 4.8 3.4 4.8 5.5c0 .4 0 .8-.1 1c0 0-8.1 0-8.1 0zm6.2-1.5c0-1.4-.6-3.5-3-3.5c-2.1 0-3 2-3.2 3.5c0 0 6.2 0 6.2 0zm4.6-1.6c0-1.2 0-2.2-.1-3.1c.02-.02 1.9 0 1.9 0l.1 1.9c0 0 .06 0 .1 0c.5-1.1 1.9-2.2 3.8-2.2c1.6 0 4.1 1 4.1 5c.01-.04 0 6.9 0 6.9l-2.1 0c0 0-.01-6.7 0-6.7c0-1.9-.7-3.4-2.7-3.4c-1.4 0-2.5 1-2.8 2.1c-.1.3-.2.7-.2 1c.03.02 0 7 0 7l-2.1 0c0 0 .02-8.47 0-8.5zm15.8-6.5l0 3.4l3 0l0 1.6l-3 0c0 0-.01 6.26 0 6.3c0 1.4.4 2.2 1.6 2.2c.5 0 .9-.1 1.2-.1c0 0 .1 1.6.1 1.6c-.4.1-1.1.2-1.9.2c-1 0-1.8-.3-2.3-.8c-.6-.7-.8-1.7-.8-3.1c.02.03 0-6.3 0-6.3l-1.8 0l0-1.6l1.8 0l0-2.8l2.1-.6zm10.5 7.2c0-1.5-.1-2.7-.1-3.8c-.02-.02 1.9 0 1.9 0l.1 2c0 0 .02-.02 0 0c.9-1.4 2.3-2.3 4.1-2.3c2.9 0 5 2.4 5 5.9c0 4.2-2.6 6.3-5.3 6.3c-1.5 0-2.9-.7-3.6-1.9c.01.04 0 0 0 0l0 6.4l-2.1 0c0 0-.03-12.62 0-12.6zm2.1 3.1c0 .3 0 .6.1.8c.3 1.5 1.6 2.5 3.1 2.5c2.3 0 3.6-1.8 3.6-4.5c0-2.3-1.3-4.3-3.5-4.3c-1.4 0-2.8 1-3.2 2.6c-.1.3-.1.6-.1.9c0 0 0 2 0 2zm11.5-3.3c0-1.4 0-2.5-.1-3.6c.03-.02 1.9 0 1.9 0l.1 2.3c0 0 .05-.04 0 0c.6-1.6 1.8-2.6 3.3-2.6c.2 0 .4 0 .6.1c0 0 0 2 0 2c-.3-.1-.5-.1-.8-.1c-1.4 0-2.5 1.1-2.8 2.7c0 .3-.1.6-.1 1c.02.01 0 6.2 0 6.2l-2.1 0c0 0 .03-7.99 0-8zm18.2 2.1c0 4.3-3 6.2-5.8 6.2c-3.2 0-5.6-2.3-5.6-6c0-3.9 2.5-6.2 5.8-6.2c3.3 0 5.6 2.4 5.6 6zm-9.3.1c0 2.6 1.5 4.5 3.6 4.5c2 0 3.5-1.9 3.5-4.5c0-2-1-4.5-3.5-4.5c-2.5 0-3.6 2.3-3.6 4.5zm12.6-5.8c0 0 2.24 6.51 2.2 6.5c.4 1.1.7 2 1 3c0 0 .1 0 .1 0c.2-1 .6-1.9.9-3c.03.01 2.3-6.5 2.3-6.5l2.2 0l-4.6 11.6l-2 0l-4.4-11.6l2.3 0zm10.7 11.6l0-11.6l2.1 0l0 11.6l-2.1 0zm2.3-14.9c.1.7-.5 1.3-1.3 1.3c-.7 0-1.3-.6-1.3-1.3c0-.7.6-1.3 1.3-1.3c.8 0 1.3.6 1.3 1.3zm3 12.7c.6.4 1.7.9 2.8.9c1.5 0 2.3-.8 2.3-1.7c0-1.1-.6-1.6-2.2-2.2c-2.1-.7-3.1-1.9-3.1-3.3c0-1.8 1.5-3.4 4-3.4c1.2 0 2.2.4 2.9.7c0 0-.5 1.6-.5 1.6c-.5-.3-1.3-.7-2.4-.7c-1.3 0-2 .7-2 1.6c0 .9.7 1.4 2.2 2c2.1.7 3.1 1.7 3.1 3.5c0 2-1.6 3.4-4.3 3.4c-1.3 0-2.5-.3-3.3-.8c0 0 .5-1.6.5-1.6zm9.8 2.2l0-11.6l2.1 0l0 11.6l-2.1 0zm2.4-14.9c0 .7-.5 1.3-1.4 1.3c-.7 0-1.3-.6-1.3-1.3c0-.7.6-1.3 1.4-1.3c.8 0 1.3.6 1.3 1.3zm13.7 9c0 4.3-2.9 6.2-5.7 6.2c-3.2 0-5.6-2.3-5.6-6c0-3.9 2.5-6.2 5.7-6.2c3.4 0 5.6 2.4 5.6 6zm-9.2.1c0 2.6 1.5 4.5 3.5 4.5c2.1 0 3.6-1.9 3.6-4.5c0-2-1-4.5-3.5-4.5c-2.5 0-3.6 2.3-3.6 4.5zm11.9-2.7c0-1.2 0-2.2-.1-3.1c.01-.02 1.9 0 1.9 0l.1 1.9c0 0 .05 0 0 0c.6-1.1 2-2.2 3.9-2.2c1.6 0 4.1 1 4.1 5c-.01-.04 0 6.9 0 6.9l-2.1 0c0 0-.02-6.7 0-6.7c0-1.9-.7-3.4-2.7-3.4c-1.4 0-2.5 1-2.8 2.1c-.1.3-.2.7-.2 1c.01.02 0 7 0 7l-2.1 0c0 0 0-8.47 0-8.5zm13 6.3c.7.4 1.8.9 2.8.9c1.6 0 2.3-.8 2.3-1.7c0-1.1-.6-1.6-2.2-2.2c-2.1-.7-3.1-1.9-3.1-3.3c0-1.8 1.6-3.4 4-3.4c1.2 0 2.3.4 2.9.7c0 0-.5 1.6-.5 1.6c-.5-.3-1.3-.7-2.4-.7c-1.2 0-1.9.7-1.9 1.6c0 .9.7 1.4 2.2 2c2 .7 3 1.7 3 3.5c0 2-1.6 3.4-4.3 3.4c-1.3 0-2.5-.3-3.3-.8c0 0 .5-1.6.5-1.6zm15.8-9.4c0 0 1.49 5.89 1.5 5.9c.3 1.3.6 2.5.9 3.7c0 0 0 0 0 0c.3-1.2.7-2.4 1.1-3.7c-.04.01 1.9-5.9 1.9-5.9l1.7 0c0 0 1.83 5.79 1.8 5.8c.5 1.4.8 2.6 1.1 3.8c0 0 0 0 0 0c.2-1.2.5-2.4.9-3.8c.02.02 1.7-5.8 1.7-5.8l2.1 0l-3.8 11.6l-1.9 0c0 0-1.78-5.54-1.8-5.5c-.4-1.3-.7-2.5-1-3.9c0 0-.1 0-.1 0c-.2 1.4-.6 2.6-1 3.9c-.01-.02-1.9 5.5-1.9 5.5l-1.9 0l-3.5-11.6l2.2 0zm16.8-5.4l2.1 0l0 7.2c0 0 .04.01 0 0c.4-.6.9-1.1 1.5-1.5c.7-.3 1.4-.6 2.2-.6c1.6 0 4.1 1 4.1 5c-.04-.01 0 6.9 0 6.9l-2.1 0c0 0-.05-6.67 0-6.7c0-1.8-.7-3.4-2.7-3.4c-1.4 0-2.5.9-2.9 2.1c-.1.3-.1.6-.1 1c-.01-.01 0 7 0 7l-2.1 0l0-17zm13.3 17l0-11.6l2.1 0l0 11.6l-2.1 0zm2.3-14.9c.1.7-.5 1.3-1.3 1.3c-.7 0-1.3-.6-1.3-1.3c0-.7.6-1.3 1.4-1.3c.7 0 1.2.6 1.2 1.3zm11.6 14.5c-.6.3-1.8.6-3.3.6c-3.5 0-5.8-2.3-5.8-5.9c0-3.6 2.4-6.2 6.2-6.2c1.3 0 2.4.4 2.9.6c0 0-.4 1.7-.4 1.7c-.5-.3-1.3-.6-2.5-.6c-2.7 0-4.1 2-4.1 4.4c0 2.7 1.7 4.4 4 4.4c1.2 0 2-.4 2.6-.6c0 0 .4 1.6.4 1.6zm2.5-16.6l2.1 0l0 7.2c0 0 .02.01 0 0c.4-.6.9-1.1 1.5-1.5c.7-.3 1.4-.6 2.2-.6c1.6 0 4.1 1 4.1 5c-.05-.01 0 6.9 0 6.9l-2.2 0c0 0 .04-6.67 0-6.7c0-1.8-.7-3.4-2.6-3.4c-1.4 0-2.5.9-2.9 2.1c-.1.3-.1.6-.1 1c-.02-.01 0 7 0 7l-2.1 0l0-17zm18.4 9c0-1.4-.1-2.5-.1-3.6c-.02-.02 1.8 0 1.8 0l.1 2.3c0 0 .09-.04.1 0c.5-1.6 1.8-2.6 3.2-2.6c.2 0 .4 0 .6.1c0 0 0 2 0 2c-.2-.1-.4-.1-.7-.1c-1.5 0-2.6 1.1-2.8 2.7c-.1.3-.1.6-.1 1c-.04.01 0 6.2 0 6.2l-2.1 0c0 0-.03-7.99 0-8zm8.8 2.6c0 2.8 1.8 4 3.9 4c1.6 0 2.5-.3 3.3-.6c0 0 .3 1.5.3 1.5c-.7.4-2 .7-3.8.7c-3.6 0-5.8-2.3-5.8-5.8c0-3.5 2.1-6.3 5.5-6.3c3.8 0 4.8 3.4 4.8 5.5c0 .4-.1.8-.1 1c0 0-8.1 0-8.1 0zm6.1-1.5c.1-1.4-.5-3.5-2.9-3.5c-2.1 0-3.1 2-3.2 3.5c0 0 6.1 0 6.1 0zm12.6 5.1c0 0-.02 0 0 0c-.6 1.2-1.9 2.1-3.8 2.1c-2.7 0-4.9-2.4-4.9-5.9c0-4.4 2.8-6.3 5.2-6.3c1.8 0 3 .9 3.6 2c0 .04 0 0 0 0l.1-1.7c0 0 2.01-.02 2 0c0 1-.1 2-.1 3.2c.04-.02 0 13.2 0 13.2l-2.1 0l0-6.6zm0-5.1c0-.3 0-.6-.1-.9c-.3-1.3-1.4-2.4-3-2.4c-2.2 0-3.5 1.8-3.5 4.5c0 2.3 1.1 4.3 3.4 4.3c1.4 0 2.6-.9 3.1-2.3c.1-.3.1-.7.1-1c0 0 0-2.2 0-2.2zm15.3 3.7c0 1.2.1 2.3.1 3.2c.03 0-1.8 0-1.8 0l-.2-1.9c0 0-.01 0 0 0c-.6.9-1.8 2.2-3.8 2.2c-1.9 0-4.1-1-4.1-5.1c.04-.02 0-6.8 0-6.8l2.2 0c0 0-.04 6.42 0 6.4c0 2.2.6 3.7 2.5 3.7c1.5 0 2.4-1 2.8-1.9c.2-.3.2-.7.2-1.1c.02.01 0-7.1 0-7.1l2.1 0c0 0 .04 8.43 0 8.4zm3.5 3.2l0-11.6l2.2 0l0 11.6l-2.2 0zm2.4-14.9c0 .7-.5 1.3-1.4 1.3c-.7 0-1.2-.6-1.2-1.3c0-.7.5-1.3 1.3-1.3c.8 0 1.3.6 1.3 1.3zm3.3 6.9c0-1.4-.1-2.5-.1-3.6c-.04-.02 1.8 0 1.8 0l.1 2.3c0 0 .08-.04.1 0c.5-1.6 1.8-2.6 3.2-2.6c.2 0 .4 0 .6.1c0 0 0 2 0 2c-.2-.1-.4-.1-.7-.1c-1.5 0-2.6 1.1-2.9 2.7c0 .3-.1.6-.1 1c.04.01 0 6.2 0 6.2l-2 0c0 0-.04-7.99 0-8zm8.7 2.6c.1 2.8 1.9 4 4 4c1.5 0 2.4-.3 3.2-.6c0 0 .4 1.5.4 1.5c-.7.4-2 .7-3.9.7c-3.5 0-5.7-2.3-5.7-5.8c0-3.5 2.1-6.3 5.5-6.3c3.8 0 4.8 3.4 4.8 5.5c0 .4-.1.8-.1 1c0 0-8.2 0-8.2 0zm6.2-1.5c.1-1.4-.5-3.5-2.9-3.5c-2.1 0-3.1 2-3.2 3.5c0 0 6.1 0 6.1 0zm12.3-8.1l0 3.4l3 0l0 1.6l-3 0c0 0 .02 6.26 0 6.3c0 1.4.4 2.2 1.6 2.2c.6 0 1-.1 1.2-.1c0 0 .1 1.6.1 1.6c-.4.1-1 .2-1.8.2c-1 0-1.8-.3-2.3-.8c-.6-.7-.8-1.7-.8-3.1c-.05.03 0-6.3 0-6.3l-1.8 0l0-1.6l1.8 0l0-2.8l2-.6zm5.4-2l2.1 0l0 7.2c0 0 .08.01.1 0c.3-.6.8-1.1 1.5-1.5c.6-.3 1.4-.6 2.2-.6c1.5 0 4 1 4 5c.01-.01 0 6.9 0 6.9l-2.1 0c0 0-.01-6.67 0-6.7c0-1.8-.7-3.4-2.7-3.4c-1.4 0-2.4.9-2.8 2.1c-.1.3-.2.6-.2 1c.03-.01 0 7 0 7l-2.1 0l0-17zm14.5 11.6c.1 2.8 1.9 4 4 4c1.5 0 2.4-.3 3.2-.6c0 0 .4 1.5.4 1.5c-.8.4-2 .7-3.9.7c-3.6 0-5.7-2.3-5.7-5.8c0-3.5 2.1-6.3 5.4-6.3c3.8 0 4.8 3.4 4.8 5.5c0 .4 0 .8 0 1c0 0-8.2 0-8.2 0zm6.2-1.5c0-1.4-.5-3.5-2.9-3.5c-2.2 0-3.1 2-3.3 3.5c0 0 6.2 0 6.2 0zm19.8-10.1c0 0-.02 14 0 14c0 1 0 2.2.1 3c-.02 0-1.9 0-1.9 0l-.1-2c0 0-.06-.02-.1 0c-.6 1.3-2 2.3-3.9 2.3c-2.8 0-5-2.4-5-5.9c0-3.9 2.4-6.3 5.2-6.3c1.8 0 3 .9 3.5 1.8c.02 0 .1 0 .1 0l0-6.9l2.1 0zm-2.1 10.1c0-.3-.1-.6-.1-.9c-.3-1.3-1.5-2.4-3.1-2.4c-2.2 0-3.5 1.9-3.5 4.5c0 2.3 1.2 4.3 3.5 4.3c1.4 0 2.7-1 3.1-2.6c0-.2.1-.5.1-.9c0 0 0-2 0-2zm6.8 1.5c0 2.8 1.8 4 3.9 4c1.6 0 2.5-.3 3.3-.6c0 0 .3 1.5.3 1.5c-.7.4-2 .7-3.8.7c-3.6 0-5.8-2.3-5.8-5.8c0-3.5 2.1-6.3 5.5-6.3c3.8 0 4.8 3.4 4.8 5.5c0 .4-.1.8-.1 1c0 0-8.1 0-8.1 0zm6.2-1.5c0-1.4-.6-3.5-3-3.5c-2.1 0-3 2-3.2 3.5c0 0 6.2 0 6.2 0zm7.2-8.1l0 3.4l3 0l0 1.6l-3 0c0 0-.05 6.26 0 6.3c0 1.4.4 2.2 1.5 2.2c.6 0 1-.1 1.3-.1c0 0 .1 1.6.1 1.6c-.5.1-1.1.2-1.9.2c-1 0-1.8-.3-2.3-.8c-.6-.7-.8-1.7-.8-3.1c-.01.03 0-6.3 0-6.3l-1.8 0l0-1.6l1.8 0l0-2.8l2.1-.6zm11.8 15l-.2-1.5c0 0-.05.04-.1 0c-.6.9-1.9 1.8-3.5 1.8c-2.4 0-3.6-1.7-3.6-3.4c0-2.8 2.5-4.3 7-4.3c0 0 0-.2 0-.2c0-1-.2-2.7-2.6-2.7c-1.1 0-2.2.3-3 .8c0 0-.5-1.3-.5-1.3c.9-.7 2.3-1.1 3.8-1.1c3.5 0 4.4 2.4 4.4 4.8c0 0 0 4.3 0 4.3c0 1 .1 2 .2 2.8c.01 0-1.9 0-1.9 0zm-.3-5.9c-2.3-.1-4.9.3-4.9 2.6c0 1.4.9 2 1.9 2c1.6 0 2.5-1 2.9-1.9c0-.3.1-.5.1-.7c0 0 0-2 0-2zm5.4 5.9l0-11.6l2.1 0l0 11.6l-2.1 0zm2.4-14.9c0 .7-.5 1.3-1.4 1.3c-.7 0-1.2-.6-1.2-1.3c0-.7.5-1.3 1.3-1.3c.8 0 1.3.6 1.3 1.3zm3.2-2.1l2.1 0l0 17l-2.1 0l0-17zm5.4 14.8c.6.4 1.7.9 2.8.9c1.5 0 2.3-.8 2.3-1.7c0-1.1-.6-1.6-2.2-2.2c-2.1-.7-3.1-1.9-3.1-3.3c0-1.8 1.5-3.4 4-3.4c1.2 0 2.2.4 2.9.7c0 0-.5 1.6-.5 1.6c-.5-.3-1.3-.7-2.4-.7c-1.3 0-2 .7-2 1.6c0 .9.7 1.4 2.2 2c2.1.7 3.1 1.7 3.1 3.5c0 2-1.6 3.4-4.4 3.4c-1.2 0-2.4-.3-3.2-.8c0 0 .5-1.6.5-1.6zm25.4-3.7c0 4.3-3 6.2-5.8 6.2c-3.1 0-5.5-2.3-5.5-6c0-3.9 2.5-6.2 5.7-6.2c3.3 0 5.6 2.4 5.6 6zm-9.2.1c0 2.6 1.5 4.5 3.5 4.5c2 0 3.5-1.9 3.5-4.5c0-2-.9-4.5-3.4-4.5c-2.5 0-3.6 2.3-3.6 4.5zm12.1 5.8l0-10l-1.6 0l0-1.6l1.6 0c0 0-.02-.57 0-.6c0-1.6.3-3.1 1.3-4c.8-.8 1.9-1.1 2.9-1.1c.7 0 1.4.2 1.8.3c0 0-.3 1.7-.3 1.7c-.3-.2-.8-.3-1.4-.3c-1.8 0-2.2 1.6-2.2 3.4c-.03-.04 0 .6 0 .6l2.8 0l0 1.6l-2.8 0l0 10l-2.1 0zm14.4-15l0 3.4l3 0l0 1.6l-3 0c0 0 .01 6.26 0 6.3c0 1.4.4 2.2 1.6 2.2c.5 0 1-.1 1.2-.1c0 0 .1 1.6.1 1.6c-.4.1-1 .2-1.9.2c-.9 0-1.7-.3-2.2-.8c-.6-.7-.9-1.7-.9-3.1c.04.03 0-6.3 0-6.3l-1.8 0l0-1.6l1.8 0l0-2.8l2.1-.6zm5.4-2l2.1 0l0 7.2c0 0 .07.01.1 0c.3-.6.8-1.1 1.5-1.5c.6-.3 1.3-.6 2.1-.6c1.6 0 4.1 1 4.1 5c0-.01 0 6.9 0 6.9l-2.1 0c0 0-.02-6.67 0-6.7c0-1.8-.7-3.4-2.7-3.4c-1.4 0-2.5.9-2.8 2.1c-.2.3-.2.6-.2 1c.02-.01 0 7 0 7l-2.1 0l0-17zm14.5 11.6c.1 2.8 1.9 4 4 4c1.5 0 2.4-.3 3.2-.6c0 0 .4 1.5.4 1.5c-.8.4-2.1.7-3.9.7c-3.6 0-5.7-2.3-5.7-5.8c0-3.5 2.1-6.3 5.4-6.3c3.8 0 4.8 3.4 4.8 5.5c0 .4 0 .8 0 1c0 0-8.2 0-8.2 0zm6.2-1.5c0-1.4-.6-3.5-2.9-3.5c-2.2 0-3.1 2-3.3 3.5c0 0 6.2 0 6.2 0z" stroke="none" fill="#3c3c3b"/></g><g id="Polygon5331"><path d="m4.9 3.6l-4.9 0l0-1.8l12 0l0 1.8l-5 0l0 14.4l-2.1 0l0-14.4zm8.6-2.6l2.1 0l0 7.2c0 0 .07.01.1 0c.3-.6.8-1.1 1.5-1.5c.6-.3 1.4-.6 2.1-.6c1.6 0 4.1 1 4.1 5c0-.01 0 6.9 0 6.9l-2.1 0c0 0-.01-6.67 0-6.7c0-1.8-.7-3.4-2.7-3.4c-1.4 0-2.4.9-2.8 2.1c-.2.3-.2.6-.2 1c.02-.01 0 7 0 7l-2.1 0l0-17zm14.5 11.6c.1 2.8 1.9 4 4 4c1.5 0 2.4-.3 3.2-.6c0 0 .4 1.5.4 1.5c-.8.4-2 .7-3.9.7c-3.6 0-5.7-2.3-5.7-5.8c0-3.5 2.1-6.3 5.4-6.3c3.8 0 4.8 3.4 4.8 5.5c0 .4 0 .8 0 1c0 0-8.2 0-8.2 0zm6.2-1.5c0-1.4-.6-3.5-2.9-3.5c-2.2 0-3.1 2-3.3 3.5c0 0 6.2 0 6.2 0zm18 6.5c-.5.3-1.8.6-3.3.6c-3.5 0-5.8-2.3-5.8-5.9c0-3.6 2.5-6.2 6.2-6.2c1.3 0 2.4.4 3 .6c0 0-.5 1.7-.5 1.7c-.5-.3-1.3-.6-2.5-.6c-2.6 0-4.1 2-4.1 4.4c0 2.7 1.8 4.4 4.1 4.4c1.2 0 2-.4 2.6-.6c0 0 .3 1.6.3 1.6zm2.5-16.6l2.1 0l0 17l-2.1 0l0-17zm12.1 17l-.2-1.5c0 0-.05.04 0 0c-.7.9-1.9 1.8-3.6 1.8c-2.4 0-3.6-1.7-3.6-3.4c0-2.8 2.5-4.3 7-4.3c0 0 0-.2 0-.2c0-1-.2-2.7-2.6-2.7c-1.1 0-2.2.3-3 .8c0 0-.5-1.3-.5-1.3c.9-.7 2.3-1.1 3.8-1.1c3.6 0 4.4 2.4 4.4 4.8c0 0 0 4.3 0 4.3c0 1 .1 2 .2 2.8c.01 0-1.9 0-1.9 0zm-.3-5.9c-2.3-.1-4.9.3-4.9 2.6c0 1.4.9 2 2 2c1.5 0 2.4-1 2.8-1.9c0-.3.1-.5.1-.7c0 0 0-2 0-2zm5.4 5.9l0-11.6l2.1 0l0 11.6l-2.1 0zm2.4-14.9c0 .7-.5 1.3-1.4 1.3c-.7 0-1.2-.6-1.2-1.3c0-.7.5-1.3 1.3-1.3c.8 0 1.3.6 1.3 1.3zm3.2 6.4c0-1.2 0-2.2-.1-3.1c.05-.02 1.9 0 1.9 0l.1 1.9c0 0 .06-.04.1 0c.6-1.1 1.7-2.2 3.6-2.2c1.6 0 2.8 1 3.3 2.3c0 0 0 0 0 0c.4-.6.9-1.1 1.3-1.5c.7-.5 1.5-.8 2.6-.8c1.5 0 3.8 1 3.8 5.1c.03-.04 0 6.8 0 6.8l-2 0c0 0-.04-6.58 0-6.6c0-2.2-.9-3.6-2.6-3.6c-1.2 0-2.1.9-2.5 2c0 .3-.1.6-.1 1c-.02.02 0 7.2 0 7.2l-2.1 0c0 0 .02-6.96 0-7c0-1.8-.8-3.2-2.4-3.2c-1.3 0-2.3 1.1-2.6 2.2c-.1.3-.2.6-.2 1c.01-.01 0 7 0 7l-2.1 0c0 0 .04-8.47 0-8.5zm35.7 2.6c0 4.3-3 6.2-5.8 6.2c-3.2 0-5.6-2.3-5.6-6c0-3.9 2.6-6.2 5.8-6.2c3.3 0 5.6 2.4 5.6 6zm-9.3.1c0 2.6 1.5 4.5 3.6 4.5c2 0 3.5-1.9 3.5-4.5c0-2-1-4.5-3.5-4.5c-2.5 0-3.6 2.3-3.6 4.5zm12.1 5.8l0-10l-1.6 0l0-1.6l1.6 0c0 0 .04-.57 0-.6c0-1.6.4-3.1 1.4-4c.8-.8 1.8-1.1 2.8-1.1c.8 0 1.4.2 1.8.3c0 0-.3 1.7-.3 1.7c-.3-.2-.7-.3-1.3-.3c-1.8 0-2.3 1.6-2.3 3.4c.03-.04 0 .6 0 .6l2.8 0l0 1.6l-2.8 0l0 10l-2.1 0zm14.1-16.2l0 16.2l-2.1 0l0-16.2l2.1 0zm3.8 7.7c0-1.2 0-2.2-.1-3.1c0-.02 1.9 0 1.9 0l.1 1.9c0 0 .04 0 0 0c.6-1.1 2-2.2 3.9-2.2c1.6 0 4.1 1 4.1 5c-.02-.04 0 6.9 0 6.9l-2.1 0c0 0-.03-6.7 0-6.7c0-1.9-.7-3.4-2.7-3.4c-1.4 0-2.5 1-2.8 2.1c-.1.3-.2.7-.2 1c.01.02 0 7 0 7l-2.1 0c0 0-.01-8.47 0-8.5zm13.3.7c0-1.5 0-2.7-.1-3.8c.02-.02 1.9 0 1.9 0l.1 2c0 0 .06-.02.1 0c.8-1.4 2.2-2.3 4.1-2.3c2.8 0 4.9 2.4 4.9 5.9c0 4.2-2.5 6.3-5.3 6.3c-1.5 0-2.9-.7-3.6-1.9c.05.04 0 0 0 0l0 6.4l-2.1 0c0 0 .01-12.62 0-12.6zm2.1 3.1c0 .3 0 .6.1.8c.4 1.5 1.7 2.5 3.2 2.5c2.2 0 3.5-1.8 3.5-4.5c0-2.3-1.2-4.3-3.5-4.3c-1.4 0-2.7 1-3.2 2.6c0 .3-.1.6-.1.9c0 0 0 2 0 2zm21.3 1.5c0 1.2 0 2.3.1 3.2c-.01 0-1.9 0-1.9 0l-.1-1.9c0 0-.05 0-.1 0c-.5.9-1.7 2.2-3.8 2.2c-1.8 0-4-1-4-5.1c0-.02 0-6.8 0-6.8l2.1 0c0 0 .01 6.42 0 6.4c0 2.2.7 3.7 2.6 3.7c1.4 0 2.4-1 2.8-1.9c.1-.3.2-.7.2-1.1c-.02.01 0-7.1 0-7.1l2.1 0c0 0-.01 8.43 0 8.4zm6-11.8l0 3.4l3.1 0l0 1.6l-3.1 0c0 0 .04 6.26 0 6.3c0 1.4.4 2.2 1.6 2.2c.6 0 1-.1 1.2-.1c0 0 .1 1.6.1 1.6c-.4.1-1 .2-1.8.2c-1 0-1.8-.3-2.3-.8c-.6-.7-.8-1.7-.8-3.1c-.03.03 0-6.3 0-6.3l-1.8 0l0-1.6l1.8 0l0-2.8l2-.6zm12.7.6l-4.9 0l0-1.8l11.9 0l0 1.8l-4.9 0l0 14.4l-2.1 0l0-14.4zm13.7 14.4l-.2-1.5c0 0-.07.04-.1 0c-.6.9-1.9 1.8-3.5 1.8c-2.4 0-3.6-1.7-3.6-3.4c0-2.8 2.5-4.3 7-4.3c0 0 0-.2 0-.2c0-1-.3-2.7-2.6-2.7c-1.1 0-2.2.3-3.1.8c0 0-.4-1.3-.4-1.3c.9-.7 2.3-1.1 3.8-1.1c3.5 0 4.4 2.4 4.4 4.8c0 0 0 4.3 0 4.3c0 1 0 2 .2 2.8c-.01 0-1.9 0-1.9 0zm-.3-5.9c-2.4-.1-5 .3-5 2.6c0 1.4.9 2 2 2c1.5 0 2.5-1 2.8-1.9c.1-.3.2-.5.2-.7c0 0 0-2 0-2zm6.4-5.7c0 0 1.64 2.48 1.6 2.5c.5.6.8 1.2 1.2 1.9c0 0 .1 0 .1 0c.4-.7.8-1.3 1.1-1.9c.04-.04 1.7-2.5 1.7-2.5l2.3 0l-4 5.6l4.1 6l-2.4 0c0 0-1.73-2.62-1.7-2.6c-.5-.7-.9-1.3-1.3-2c0 0 0 0 0 0c-.4.7-.8 1.3-1.3 2c.05-.02-1.6 2.6-1.6 2.6l-2.4 0l4.2-5.9l-4-5.7l2.4 0zm26.6 11.1c-.8.4-2.3.7-4.3.7c-4.6 0-8-2.8-8-8.1c0-5.1 3.4-8.5 8.5-8.5c2 0 3.2.4 3.8.7c0 0-.5 1.7-.5 1.7c-.8-.4-1.9-.7-3.3-.7c-3.8 0-6.3 2.4-6.3 6.7c0 3.9 2.3 6.5 6.2 6.5c1.3 0 2.6-.3 3.4-.7c0 0 .5 1.7.5 1.7zm2.4-7.5c0-1.4 0-2.5 0-3.6c-.05-.02 1.8 0 1.8 0l.1 2.3c0 0 .07-.04.1 0c.5-1.6 1.8-2.6 3.2-2.6c.2 0 .4 0 .6.1c0 0 0 2 0 2c-.2-.1-.4-.1-.7-.1c-1.5 0-2.6 1.1-2.9 2.7c0 .3-.1.6-.1 1c.04.01 0 6.2 0 6.2l-2.1 0c0 0 .05-7.99 0-8zm8.8 2.6c.1 2.8 1.9 4 4 4c1.5 0 2.4-.3 3.2-.6c0 0 .4 1.5.4 1.5c-.8.4-2 .7-3.9.7c-3.5 0-5.7-2.3-5.7-5.8c0-3.5 2.1-6.3 5.5-6.3c3.8 0 4.8 3.4 4.8 5.5c0 .4-.1.8-.1 1c0 0-8.2 0-8.2 0zm6.2-1.5c0-1.4-.5-3.5-2.9-3.5c-2.1 0-3.1 2-3.2 3.5c0 0 6.1 0 6.1 0zm14.7-10.1c0 0 .01 14 0 14c0 1 0 2.2.1 3c.01 0-1.9 0-1.9 0l-.1-2c0 0-.03-.02 0 0c-.7 1.3-2.1 2.3-4 2.3c-2.8 0-5-2.4-5-5.9c0-3.9 2.4-6.3 5.2-6.3c1.8 0 3 .9 3.6 1.8c-.05 0 0 0 0 0l0-6.9l2.1 0zm-2.1 10.1c0-.3 0-.6-.1-.9c-.3-1.3-1.5-2.4-3-2.4c-2.2 0-3.5 1.9-3.5 4.5c0 2.3 1.1 4.3 3.4 4.3c1.4 0 2.7-1 3.1-2.6c.1-.2.1-.5.1-.9c0 0 0-2 0-2zm5.6 6.9l0-11.6l2.1 0l0 11.6l-2.1 0zm2.4-14.9c0 .7-.5 1.3-1.4 1.3c-.7 0-1.2-.6-1.2-1.3c0-.7.5-1.3 1.3-1.3c.8 0 1.3.6 1.3 1.3zm5.8-.1l0 3.4l3 0l0 1.6l-3 0c0 0-.02 6.26 0 6.3c0 1.4.4 2.2 1.6 2.2c.5 0 .9-.1 1.2-.1c0 0 .1 1.6.1 1.6c-.4.1-1.1.2-1.9.2c-1 0-1.8-.3-2.3-.8c-.6-.7-.8-1.7-.8-3.1c.01.03 0-6.3 0-6.3l-1.8 0l0-1.6l1.8 0l0-2.8l2.1-.6zm5.1 12.8c.6.4 1.7.9 2.8.9c1.5 0 2.2-.8 2.2-1.7c0-1.1-.6-1.6-2.1-2.2c-2.1-.7-3.1-1.9-3.1-3.3c0-1.8 1.5-3.4 4-3.4c1.2 0 2.2.4 2.9.7c0 0-.6 1.6-.6 1.6c-.4-.3-1.3-.7-2.3-.7c-1.3 0-2 .7-2 1.6c0 .9.7 1.4 2.2 2c2 .7 3.1 1.7 3.1 3.5c0 2-1.6 3.4-4.4 3.4c-1.2 0-2.4-.3-3.2-.8c0 0 .5-1.6.5-1.6zm19.5-14.5c-1.8 2.4-3.1 5.5-3.1 9.9c0 4.2 1.3 7.3 3.1 9.7c0 0-1.7 0-1.7 0c-1.5-2-3.1-5.1-3.1-9.7c0-4.8 1.6-7.8 3.1-9.9c0 0 1.7 0 1.7 0zm4.3.5l0 16.2l-2 0l0-16.2l2 0zm6.8 1.8l-5 0l0-1.8l12 0l0 1.8l-4.9 0l0 14.4l-2.1 0l0-14.4zm19.5 13.9c-.8.4-2.3.7-4.3.7c-4.6 0-8-2.8-8-8.1c0-5.1 3.4-8.5 8.5-8.5c2 0 3.2.4 3.8.7c0 0-.5 1.7-.5 1.7c-.8-.4-1.9-.7-3.3-.7c-3.8 0-6.3 2.4-6.3 6.7c0 3.9 2.3 6.5 6.2 6.5c1.3 0 2.6-.3 3.4-.7c0 0 .5 1.7.5 1.7zm1.7 3.4c1.7-2.4 3-5.5 3-9.8c0-4.3-1.3-7.4-3-9.8c0 0 1.6 0 1.6 0c1.5 2 3.1 5.1 3.1 9.8c0 4.7-1.6 7.8-3.1 9.8c0 0-1.6 0-1.6 0zm13.1-2.9l0-11.6l2.1 0l0 11.6l-2.1 0zm2.4-14.9c0 .7-.5 1.3-1.4 1.3c-.7 0-1.2-.6-1.2-1.3c0-.7.5-1.3 1.3-1.3c.8 0 1.3.6 1.3 1.3zm3 12.7c.6.4 1.7.9 2.7.9c1.6 0 2.3-.8 2.3-1.7c0-1.1-.6-1.6-2.2-2.2c-2-.7-3-1.9-3-3.3c0-1.8 1.5-3.4 4-3.4c1.2 0 2.2.4 2.8.7c0 0-.5 1.6-.5 1.6c-.5-.3-1.3-.7-2.4-.7c-1.2 0-1.9.7-1.9 1.6c0 .9.7 1.4 2.2 2c2 .7 3 1.7 3 3.5c0 2-1.5 3.4-4.3 3.4c-1.3 0-2.5-.3-3.3-.8c0 0 .6-1.6.6-1.6zm24.8-9.4c0 .8 0 1.8 0 3.2c0 0 0 6.7 0 6.7c0 2.7-.6 4.3-1.7 5.3c-1.1 1.1-2.8 1.4-4.2 1.4c-1.4 0-3-.3-3.9-.9c0 0 .5-1.7.5-1.7c.8.5 2 1 3.4 1c2.2 0 3.8-1.2 3.8-4.1c-.01 0 0-1.3 0-1.3c0 0-.06.01-.1 0c-.6 1.1-1.9 2-3.7 2c-2.8 0-4.9-2.5-4.9-5.7c0-3.9 2.6-6.2 5.2-6.2c2 0 3.2 1.1 3.7 2c-.05.04 0 0 0 0l.1-1.7c0 0 1.85-.02 1.8 0zm-2.1 4.6c0-.4-.1-.7-.2-1c-.3-1.2-1.4-2.2-2.9-2.2c-2 0-3.5 1.7-3.5 4.4c0 2.2 1.2 4.1 3.5 4.1c1.3 0 2.4-.8 2.9-2.1c.1-.4.2-.8.2-1.1c0 0 0-2.1 0-2.1zm16.1 1.1c0 4.3-3 6.2-5.8 6.2c-3.2 0-5.6-2.3-5.6-6c0-3.9 2.6-6.2 5.8-6.2c3.3 0 5.6 2.4 5.6 6zm-9.2.1c0 2.6 1.4 4.5 3.5 4.5c2 0 3.5-1.9 3.5-4.5c0-2-1-4.5-3.5-4.5c-2.5 0-3.5 2.3-3.5 4.5zm12.5-5.8c0 0 2.26 6.51 2.3 6.5c.3 1.1.7 2 .9 3c0 0 .1 0 .1 0c.2-1 .6-1.9 1-3c-.05.01 2.2-6.5 2.2-6.5l2.2 0l-4.5 11.6l-2.1 0l-4.4-11.6l2.3 0zm11.6 6.2c.1 2.8 1.9 4 4 4c1.5 0 2.5-.3 3.2-.6c0 0 .4 1.5.4 1.5c-.7.4-2 .7-3.9.7c-3.5 0-5.7-2.3-5.7-5.8c0-3.5 2.1-6.3 5.5-6.3c3.8 0 4.8 3.4 4.8 5.5c0 .4-.1.8-.1 1c0 0-8.2 0-8.2 0zm6.2-1.5c.1-1.4-.5-3.5-2.9-3.5c-2.1 0-3.1 2-3.2 3.5c0 0 6.1 0 6.1 0zm4.7-1.1c0-1.4 0-2.5-.1-3.6c-.01-.02 1.8 0 1.8 0l.1 2.3c0 0 .11-.04.1 0c.5-1.6 1.8-2.6 3.2-2.6c.3 0 .4 0 .6.1c0 0 0 2 0 2c-.2-.1-.4-.1-.7-.1c-1.5 0-2.5 1.1-2.8 2.7c-.1.3-.1.6-.1 1c-.02.01 0 6.2 0 6.2l-2.1 0c0 0-.01-7.99 0-8zm7.9-.5c0-1.2 0-2.2-.1-3.1c.04-.02 1.9 0 1.9 0l.1 1.9c0 0 .08 0 .1 0c.6-1.1 1.9-2.2 3.8-2.2c1.6 0 4.1 1 4.1 5c.02-.04 0 6.9 0 6.9l-2.1 0c0 0 .01-6.7 0-6.7c0-1.9-.7-3.4-2.7-3.4c-1.4 0-2.4 1-2.8 2.1c-.1.3-.2.7-.2 1c.05.02 0 7 0 7l-2.1 0c0 0 .03-8.47 0-8.5zm14.5 3.1c.1 2.8 1.9 4 4 4c1.5 0 2.4-.3 3.2-.6c0 0 .4 1.5.4 1.5c-.8.4-2 .7-3.9.7c-3.6 0-5.7-2.3-5.7-5.8c0-3.5 2.1-6.3 5.5-6.3c3.8 0 4.8 3.4 4.8 5.5c0 .4-.1.8-.1 1c0 0-8.2 0-8.2 0zm6.2-1.5c0-1.4-.5-3.5-2.9-3.5c-2.1 0-3.1 2-3.2 3.5c0 0 6.1 0 6.1 0zm14.7-10.1c0 0 .01 14 0 14c0 1 0 2.2.1 3c.01 0-1.9 0-1.9 0l-.1-2c0 0-.03-.02 0 0c-.7 1.3-2.1 2.3-4 2.3c-2.8 0-5-2.4-5-5.9c0-3.9 2.4-6.3 5.2-6.3c1.8 0 3 .9 3.5 1.8c.05 0 .1 0 .1 0l0-6.9l2.1 0zm-2.1 10.1c0-.3 0-.6-.1-.9c-.3-1.3-1.5-2.4-3-2.4c-2.2 0-3.5 1.9-3.5 4.5c0 2.3 1.1 4.3 3.4 4.3c1.4 0 2.7-1 3.1-2.6c.1-.2.1-.5.1-.9c0 0 0-2 0-2zm10.6 6.9c.1-.8.1-2 .1-3c0 0 0-14 0-14l2.1 0l0 7.3c0 0 .04-.04 0 0c.8-1.3 2.1-2.2 4-2.2c2.9 0 4.9 2.4 4.9 5.9c0 4.2-2.6 6.3-5.2 6.3c-1.7 0-3-.7-3.9-2.2c0-.02-.1 0-.1 0l-.1 1.9c0 0-1.79 0-1.8 0zm2.2-4.7c0 .3 0 .6.1.8c.4 1.5 1.6 2.5 3.2 2.5c2.2 0 3.5-1.8 3.5-4.5c0-2.3-1.2-4.3-3.5-4.3c-1.4 0-2.8 1-3.2 2.6c0 .2-.1.5-.1.9c0 0 0 2 0 2zm12.2-6.9c0 0 2.5 6.85 2.5 6.8c.3.8.6 1.7.7 2.4c0 0 .1 0 .1 0c.2-.7.4-1.6.7-2.4c.04 0 2.3-6.8 2.3-6.8l2.3 0c0 0-3.19 8.26-3.2 8.3c-1.5 3.9-2.5 6-4 7.2c-1 .9-2 1.3-2.6 1.4c0 0-.5-1.8-.5-1.8c.5-.1 1.2-.5 1.8-1c.6-.5 1.3-1.3 1.8-2.4c.1-.2.2-.3.2-.5c0-.1-.1-.2-.2-.5c.05-.01-4.2-10.7-4.2-10.7l2.3 0z" stroke="none" fill="#3c3c3b"/></g></svg>