<?xml version="1.0" standalone="no"?><!DOCTYPE svg PUBLIC "-//W3C//DTD SVG 1.1//EN" "http://www.w3.org/Graphics/SVG/1.1/DTD/svg11.dtd"><svg xmlns="http://www.w3.org/2000/svg" version="1.1" width="555px" height="205.5px" viewBox="0 -7 555 205.5" style="top:-7px"><desc>Unblock ITC is a unique end-to-end solution combining the tax and technology to increase the efficiency from the reco...</desc><defs/><g id="Polygon6589"><path d="m2.2 172.5c0-1.7 0-3.2-.1-4.5c-.03-.02 2.3 0 2.3 0l.1 2.8c0 0 .09.03.1 0c.7-1.9 2.2-3.1 4-3.1c.3 0 .5 0 .8 0c0 0 0 2.5 0 2.5c-.3 0-.6-.1-.9-.1c-1.9 0-3.2 1.5-3.6 3.4c0 .4-.1.8-.1 1.3c0-.04 0 7.7 0 7.7l-2.6 0c0 0-.01-9.99 0-10zm11 3.2c0 3.6 2.3 5.1 5 5.1c1.8 0 3-.4 4-.8c0 0 .4 1.9.4 1.9c-.9.4-2.5.9-4.8.9c-4.5 0-7.1-2.9-7.1-7.3c0-4.4 2.5-7.8 6.8-7.8c4.7 0 6 4.1 6 6.8c0 .5-.1 1-.1 1.2c0 0-10.2 0-10.2 0zm7.7-1.9c0-1.6-.7-4.3-3.6-4.3c-2.7 0-3.9 2.5-4.1 4.3c0 0 7.7 0 7.7 0zm16.2 8.2c-.7.3-2.2.8-4.2.8c-4.4 0-7.2-3-7.2-7.4c0-4.5 3-7.7 7.8-7.7c1.5 0 2.9.4 3.6.7c0 0-.6 2.1-.6 2.1c-.6-.4-1.6-.7-3-.7c-3.4 0-5.2 2.4-5.2 5.5c0 3.3 2.2 5.4 5.1 5.4c1.5 0 2.5-.4 3.2-.7c0 0 .5 2 .5 2zm16-6.9c0 5.4-3.7 7.7-7.2 7.7c-3.9 0-7-2.8-7-7.4c0-4.9 3.2-7.7 7.2-7.7c4.2 0 7 3 7 7.4zm-11.5.2c0 3.2 1.8 5.6 4.4 5.6c2.5 0 4.4-2.4 4.4-5.7c0-2.4-1.2-5.6-4.3-5.6c-3.1 0-4.5 2.9-4.5 5.7zm15.7-7.3c0 0 2.82 8.14 2.8 8.1c.5 1.4.9 2.6 1.2 3.8c0 0 .1 0 .1 0c.3-1.2.7-2.4 1.2-3.8c.01.04 2.8-8.1 2.8-8.1l2.8 0l-5.7 14.5l-2.5 0l-5.5-14.5l2.8 0zm14.5 7.7c.1 3.6 2.4 5.1 5 5.1c1.9 0 3.1-.4 4-.8c0 0 .5 1.9.5 1.9c-.9.4-2.5.9-4.8.9c-4.5 0-7.2-2.9-7.2-7.3c0-4.4 2.6-7.8 6.8-7.8c4.8 0 6 4.1 6 6.8c0 .5 0 1-.1 1.2c0 0-10.2 0-10.2 0zm7.8-1.9c0-1.6-.7-4.3-3.7-4.3c-2.6 0-3.8 2.5-4 4.3c0 0 7.7 0 7.7 0zm5.8-1.3c0-1.7 0-3.2-.1-4.5c-.01-.02 2.3 0 2.3 0l.1 2.8c0 0 .11.03.1 0c.7-1.9 2.3-3.1 4-3.1c.3 0 .5 0 .8 0c0 0 0 2.5 0 2.5c-.3 0-.6-.1-.9-.1c-1.9 0-3.2 1.5-3.6 3.4c0 .4-.1.8-.1 1.3c.02-.04 0 7.7 0 7.7l-2.6 0c0 0 .01-9.99 0-10zm11.5-4.5c0 0 3.21 8.56 3.2 8.6c.3.9.7 2.1.9 2.9c0 0 .1 0 .1 0c.3-.8.6-1.9.9-3c.03 0 2.9-8.5 2.9-8.5l2.8 0c0 0-3.96 10.33-4 10.3c-1.9 5-3.1 7.6-4.9 9.1c-1.3 1.2-2.6 1.6-3.3 1.7c0 0-.6-2.2-.6-2.2c.6-.2 1.5-.6 2.3-1.3c.7-.6 1.6-1.6 2.2-2.9c.1-.3.2-.5.2-.6c0-.2-.1-.4-.2-.7c.02-.04-5.4-13.4-5.4-13.4l2.9 0zm32.7 7.1c0 5.4-3.7 7.7-7.2 7.7c-4 0-7-2.8-7-7.4c0-4.9 3.2-7.7 7.2-7.7c4.2 0 7 3 7 7.4zm-11.5.2c0 3.2 1.8 5.6 4.4 5.6c2.5 0 4.4-2.4 4.4-5.7c0-2.4-1.2-5.6-4.4-5.6c-3.1 0-4.4 2.9-4.4 5.7zm15.1 7.2l0-12.5l-2 0l0-2l2 0c0 0 0-.71 0-.7c0-2 .4-3.9 1.7-5.1c1-.9 2.3-1.3 3.5-1.3c.9 0 1.8.2 2.3.4c0 0-.4 2-.4 2c-.4-.2-.9-.3-1.7-.3c-2.2 0-2.8 2-2.8 4.2c.01 0 0 .8 0 .8l3.5 0l0 2l-3.5 0l0 12.5l-2.6 0zm14.7 0c.1-1 .1-2.5.1-3.7c.05-.05 0-17.6 0-17.6l2.7 0l0 9.1c0 0 .02.02 0 0c.9-1.6 2.6-2.6 5-2.6c3.6 0 6.1 3 6.1 7.4c0 5.2-3.3 7.7-6.5 7.7c-2.1 0-3.8-.8-4.9-2.7c.02 0-.1 0-.1 0l-.1 2.4c0 0-2.27 0-2.3 0zm2.8-5.8c0 .3 0 .6.1.9c.5 1.9 2 3.1 3.9 3.1c2.8 0 4.4-2.2 4.4-5.5c0-3-1.5-5.4-4.3-5.4c-1.8 0-3.5 1.2-4 3.2c-.1.3-.1.7-.1 1.1c0 0 0 2.6 0 2.6zm14.4-15.5l2.7 0l0 21.3l-2.7 0l0-21.3zm20.2 13.9c0 5.4-3.7 7.7-7.2 7.7c-3.9 0-7-2.8-7-7.4c0-4.9 3.2-7.7 7.2-7.7c4.2 0 7 3 7 7.4zm-11.5.2c0 3.2 1.8 5.6 4.4 5.6c2.5 0 4.4-2.4 4.4-5.7c0-2.4-1.2-5.6-4.3-5.6c-3.1 0-4.5 2.9-4.5 5.7zm25.2 6.7c-.7.3-2.2.8-4.2.8c-4.3 0-7.2-3-7.2-7.4c0-4.5 3.1-7.7 7.8-7.7c1.6 0 3 .4 3.7.7c0 0-.6 2.1-.6 2.1c-.7-.4-1.6-.7-3.1-.7c-3.3 0-5.1 2.4-5.1 5.5c0 3.3 2.1 5.4 5 5.4c1.5 0 2.5-.4 3.3-.7c0 0 .4 2 .4 2zm5.7-7.4c0 0 .08.04.1 0c.3-.5.8-1.1 1.3-1.6c-.03-.01 4.2-5 4.2-5l3.2 0l-5.6 5.9l6.4 8.6l-3.2 0l-5-7l-1.4 1.5l0 5.5l-2.6 0l0-21.3l2.6 0l0 13.4zm12.9 1.1c.1 3.6 2.4 5.1 5 5.1c1.9 0 3.1-.4 4-.8c0 0 .5 1.9.5 1.9c-.9.4-2.5.9-4.8.9c-4.5 0-7.2-2.9-7.2-7.3c0-4.4 2.6-7.8 6.8-7.8c4.8 0 6 4.1 6 6.8c0 .5 0 1-.1 1.2c0 0-10.2 0-10.2 0zm7.8-1.9c0-1.6-.7-4.3-3.7-4.3c-2.6 0-3.8 2.5-4 4.3c0 0 7.7 0 7.7 0zm18.3-12.6c0 0 .05 17.55 0 17.6c0 1.2.1 2.7.2 3.7c-.03 0-2.4 0-2.4 0l-.1-2.5c0 0-.08-.02-.1 0c-.8 1.6-2.6 2.8-4.9 2.8c-3.5 0-6.2-2.9-6.2-7.3c-.1-4.9 2.9-7.8 6.5-7.8c2.2 0 3.7 1 4.3 2.2c.05-.03.1 0 .1 0l0-8.7l2.6 0zm-2.6 12.7c0-.3 0-.8-.1-1.1c-.4-1.7-1.8-3.1-3.8-3.1c-2.8 0-4.4 2.4-4.4 5.6c0 3 1.5 5.4 4.3 5.4c1.8 0 3.4-1.2 3.9-3.1c.1-.4.1-.8.1-1.2c0 0 0-2.5 0-2.5zm16.1-11.6l0 20.2l-2.6 0l0-20.2l2.6 0zm8.4 2.2l-6.2 0l0-2.2l15 0l0 2.2l-6.2 0l0 18l-2.6 0l0-18zm24.4 17.3c-1 .5-2.9 1-5.4 1c-5.7 0-10-3.6-10-10.2c0-6.4 4.3-10.6 10.6-10.6c2.5 0 4.1.5 4.8.9c0 0-.6 2.1-.6 2.1c-1-.5-2.4-.9-4.1-.9c-4.7 0-7.9 3.1-7.9 8.4c0 4.9 2.9 8.1 7.8 8.1c1.6 0 3.2-.3 4.2-.8c0 0 .6 2 .6 2zm2.5-.9c0-1.1.8-1.8 1.8-1.8c1.1 0 1.8.7 1.8 1.8c0 1.1-.7 1.9-1.8 1.9c-1.1 0-1.8-.8-1.8-1.9z" stroke="none" fill="#3c3c3b"/></g><g id="Polygon6588"><path d="m15.3 135.1c0 5.4-3.7 7.7-7.2 7.7c-3.9 0-7-2.8-7-7.4c0-4.9 3.2-7.7 7.2-7.7c4.2 0 7 3 7 7.4zm-11.5.2c0 3.2 1.8 5.6 4.4 5.6c2.5 0 4.4-2.4 4.4-5.7c0-2.4-1.2-5.6-4.3-5.6c-3.1 0-4.5 2.9-4.5 5.7zm15.1 7.2l0-12.5l-2 0l0-2l2 0c0 0 .03-.71 0-.7c0-2 .5-3.9 1.7-5.1c1-.9 2.3-1.3 3.5-1.3c1 0 1.8.2 2.3.4c0 0-.4 2-.4 2c-.4-.2-.9-.3-1.6-.3c-2.3 0-2.9 2-2.9 4.2c.04 0 0 .8 0 .8l3.5 0l0 2l-3.5 0l0 12.5l-2.6 0zm18.1-18.7l0 4.2l3.7 0l0 2l-3.7 0c0 0-.04 7.82 0 7.8c0 1.8.5 2.8 1.9 2.8c.7 0 1.2 0 1.6-.1c0 0 .1 1.9.1 1.9c-.5.2-1.3.4-2.4.4c-1.2 0-2.2-.4-2.8-1.1c-.8-.8-1-2.1-1-3.8c-.02.01 0-7.9 0-7.9l-2.3 0l0-2l2.3 0l0-3.5l2.6-.7zm6.7-2.6l2.6 0l0 9.1c0 0 .11-.04.1 0c.4-.8 1.1-1.4 1.9-1.9c.8-.4 1.7-.7 2.7-.7c1.9 0 5.1 1.2 5.1 6.2c-.03-.04 0 8.6 0 8.6l-2.7 0c0 0 .03-8.34 0-8.3c0-2.4-.8-4.4-3.3-4.4c-1.7 0-3.1 1.2-3.6 2.7c-.1.3-.2.7-.2 1.2c.05.04 0 8.8 0 8.8l-2.6 0l0-21.3zm18.1 14.5c.1 3.6 2.4 5.1 5 5.1c1.9 0 3-.4 4-.8c0 0 .5 1.9.5 1.9c-1 .4-2.5.9-4.9.9c-4.4 0-7.1-2.9-7.1-7.3c0-4.4 2.6-7.8 6.8-7.8c4.8 0 6 4.1 6 6.8c0 .5 0 1-.1 1.2c0 0-10.2 0-10.2 0zm7.8-1.9c0-1.6-.7-4.3-3.7-4.3c-2.7 0-3.8 2.5-4 4.3c0 0 7.7 0 7.7 0zm12.1 8.7l0-14.5l2.7 0l0 14.5l-2.7 0zm3-18.6c0 .9-.6 1.6-1.7 1.6c-.9 0-1.6-.7-1.6-1.6c0-.9.7-1.6 1.7-1.6c1 0 1.6.7 1.6 1.6zm4.1 8c0-1.5-.1-2.7-.2-3.9c.05-.02 2.4 0 2.4 0l.1 2.4c0 0 .1-.02.1 0c.7-1.4 2.4-2.7 4.8-2.7c2 0 5.1 1.2 5.1 6.1c.03.03 0 8.7 0 8.7l-2.6 0c0 0-.01-8.37 0-8.4c0-2.3-.9-4.3-3.4-4.3c-1.7 0-3.1 1.3-3.5 2.7c-.1.4-.2.8-.2 1.3c.01-.03 0 8.7 0 8.7l-2.6 0c0 0-.03-10.59 0-10.6zm17.2-3.9c0 0 2.9 8.14 2.9 8.1c.5 1.4.9 2.6 1.2 3.8c0 0 .1 0 .1 0c.3-1.2.7-2.4 1.2-3.8c-.01.04 2.8-8.1 2.8-8.1l2.8 0l-5.7 14.5l-2.6 0l-5.5-14.5l2.8 0zm26.3 7.1c0 5.4-3.7 7.7-7.2 7.7c-4 0-7-2.8-7-7.4c0-4.9 3.2-7.7 7.2-7.7c4.2 0 7 3 7 7.4zm-11.5.2c0 3.2 1.8 5.6 4.4 5.6c2.5 0 4.4-2.4 4.4-5.7c0-2.4-1.2-5.6-4.4-5.6c-3.1 0-4.4 2.9-4.4 5.7zm14.8 7.2l0-14.5l2.7 0l0 14.5l-2.7 0zm3-18.6c0 .9-.7 1.6-1.7 1.6c-.9 0-1.6-.7-1.6-1.6c0-.9.7-1.6 1.6-1.6c1 0 1.7.7 1.7 1.6zm14.4 18.1c-.7.3-2.2.8-4.2.8c-4.4 0-7.2-3-7.2-7.4c0-4.5 3.1-7.7 7.8-7.7c1.6 0 2.9.4 3.7.7c0 0-.6 2.1-.6 2.1c-.7-.4-1.7-.7-3.1-.7c-3.3 0-5.1 2.4-5.1 5.5c0 3.3 2.1 5.4 5 5.4c1.5 0 2.5-.4 3.2-.7c0 0 .5 2 .5 2zm4.4-6.3c0 3.6 2.3 5.1 5 5.1c1.8 0 3-.4 4-.8c0 0 .4 1.9.4 1.9c-.9.4-2.5.9-4.8.9c-4.5 0-7.1-2.9-7.1-7.3c0-4.4 2.5-7.8 6.8-7.8c4.7 0 6 4.1 6 6.8c0 .5-.1 1-.1 1.2c0 0-10.2 0-10.2 0zm7.7-1.9c0-1.6-.7-4.3-3.6-4.3c-2.7 0-3.9 2.5-4.1 4.3c0 0 7.7 0 7.7 0zm5.5 6c.8.5 2.1 1.1 3.5 1.1c1.9 0 2.8-1 2.8-2.2c0-1.3-.8-2-2.7-2.7c-2.6-.9-3.9-2.3-3.9-4.1c0-2.3 1.9-4.2 5-4.2c1.5 0 2.8.4 3.6.9c0 0-.6 1.9-.6 1.9c-.6-.4-1.7-.9-3-.9c-1.6 0-2.4.9-2.4 2c0 1.2.8 1.8 2.7 2.5c2.5.9 3.8 2.2 3.8 4.4c0 2.5-2 4.3-5.4 4.3c-1.6 0-3.1-.4-4.1-1c0 0 .7-2 .7-2zm10.2 6.4c.6-1.8 1.4-5 1.8-7.2c0 0 2.9-.3 2.9-.3c-.7 2.6-2 5.9-2.8 7.3c0 0-1.9.2-1.9.2zm14.3-14.3c0-1.5-.1-2.7-.2-3.9c.04-.02 2.3 0 2.3 0l.2 2.3c0 0 .06.02.1 0c.8-1.4 2.1-2.6 4.5-2.6c2 0 3.5 1.2 4.1 2.9c0 0 .1 0 .1 0c.4-.8 1-1.5 1.6-1.9c.9-.7 1.8-1 3.2-1c1.9 0 4.8 1.2 4.8 6.2c-.01.05 0 8.6 0 8.6l-2.6 0c0 0 .01-8.22 0-8.2c0-2.8-1-4.5-3.1-4.5c-1.5 0-2.7 1.1-3.2 2.4c-.1.4-.2.9-.2 1.3c.03.03 0 9 0 9l-2.6 0c0 0 .05-8.7 0-8.7c0-2.3-1-4-3-4c-1.6 0-2.8 1.3-3.3 2.6c-.1.4-.2.9-.2 1.3c.04.04 0 8.8 0 8.8l-2.5 0c0 0-.04-10.59 0-10.6zm33 10.6l-.2-1.8c0 0-.08-.03-.1 0c-.8 1.1-2.4 2.1-4.4 2.1c-3 0-4.5-2-4.5-4.1c0-3.5 3.2-5.5 8.8-5.4c0 0 0-.3 0-.3c0-1.2-.4-3.4-3.3-3.4c-1.4 0-2.8.4-3.8 1.1c0 0-.6-1.8-.6-1.8c1.2-.7 2.9-1.2 4.8-1.2c4.4 0 5.5 3 5.5 5.9c0 0 0 5.4 0 5.4c0 1.3 0 2.5.2 3.5c.02 0-2.4 0-2.4 0zm-.4-7.4c-2.9-.1-6.1.4-6.1 3.3c0 1.7 1.1 2.5 2.5 2.5c1.9 0 3.1-1.2 3.5-2.4c.1-.3.1-.6.1-.9c0 0 0-2.5 0-2.5zm8.1-7.1c0 0 2.04 3.1 2 3.1c.6.8 1 1.6 1.5 2.4c0 0 .1 0 .1 0c.5-.9 1-1.6 1.4-2.4c.04-.03 2.1-3.1 2.1-3.1l2.8 0l-4.9 7l5.1 7.5l-3 0c0 0-2.15-3.27-2.2-3.3c-.5-.8-1-1.6-1.5-2.5c0 0-.1 0-.1 0c-.5.9-1 1.7-1.5 2.5c0 .03-2.1 3.3-2.1 3.3l-2.9 0l5.1-7.4l-4.9-7.1l3 0zm12.6 14.5l0-14.5l2.7 0l0 14.5l-2.7 0zm3-18.6c0 .9-.7 1.6-1.7 1.6c-.9 0-1.6-.7-1.6-1.6c0-.9.7-1.6 1.6-1.6c1 0 1.7.7 1.7 1.6zm4 8c0-1.5 0-2.7-.1-3.9c.03-.02 2.3 0 2.3 0l.2 2.3c0 0 .05.02 0 0c.9-1.4 2.2-2.6 4.6-2.6c2 0 3.5 1.2 4.1 2.9c0 0 .1 0 .1 0c.4-.8 1-1.5 1.6-1.9c.9-.7 1.8-1 3.2-1c1.9 0 4.8 1.2 4.8 6.2c-.02.05 0 8.6 0 8.6l-2.6 0c0 0 0-8.22 0-8.2c0-2.8-1-4.5-3.2-4.5c-1.5 0-2.6 1.1-3.1 2.4c-.1.4-.2.9-.2 1.3c.02.03 0 9 0 9l-2.6 0c0 0 .04-8.7 0-8.7c0-2.3-1-4-3-4c-1.6 0-2.8 1.3-3.3 2.6c-.1.4-.2.9-.2 1.3c.03.04 0 8.8 0 8.8l-2.6 0c0 0 .05-10.59 0-10.6zm25.1 10.6l0-14.5l2.6 0l0 14.5l-2.6 0zm2.9-18.6c0 .9-.6 1.6-1.7 1.6c-.9 0-1.6-.7-1.6-1.6c0-.9.7-1.6 1.7-1.6c1 0 1.6.7 1.6 1.6zm2.4 17.1c0 0 6.61-8.58 6.6-8.6c.6-.8 1.2-1.5 1.9-2.2c0-.03 0-.1 0-.1l-7.9 0l0-2.1l11.1 0l0 1.6c0 0-6.5 8.46-6.5 8.5c-.6.8-1.2 1.5-1.9 2.2c.04.04 0 .1 0 .1l8.5 0l0 2.1l-11.8 0l0-1.5zm14.5 1.5l0-14.5l2.7 0l0 14.5l-2.7 0zm3-18.6c0 .9-.7 1.6-1.7 1.6c-.9 0-1.6-.7-1.6-1.6c0-.9.7-1.6 1.6-1.6c1 0 1.7.7 1.7 1.6zm4 8c0-1.5 0-2.7-.1-3.9c.03-.02 2.4 0 2.4 0l.1 2.4c0 0 .08-.02.1 0c.7-1.4 2.4-2.7 4.8-2.7c2 0 5.1 1.2 5.1 6.1c.01.03 0 8.7 0 8.7l-2.6 0c0 0-.03-8.37 0-8.4c0-2.3-.9-4.3-3.4-4.3c-1.7 0-3.1 1.3-3.5 2.7c-.2.4-.2.8-.2 1.3c-.01-.03 0 8.7 0 8.7l-2.7 0c0 0 .05-10.59 0-10.6zm29.2-3.9c-.1 1-.1 2.2-.1 4c0 0 0 8.4 0 8.4c0 3.3-.7 5.4-2.1 6.6c-1.4 1.3-3.4 1.8-5.3 1.8c-1.7 0-3.6-.5-4.8-1.2c0 0 .7-2 .7-2c.9.6 2.4 1.1 4.2 1.1c2.7 0 4.7-1.4 4.7-5.1c.01.03 0-1.6 0-1.6c0 0-.05.01-.1 0c-.8 1.4-2.3 2.4-4.6 2.4c-3.6 0-6.2-3-6.2-7c0-5 3.3-7.7 6.6-7.7c2.5 0 3.9 1.3 4.5 2.5c.02-.03.1 0 .1 0l.1-2.2c0 0 2.31-.02 2.3 0zm-2.7 5.7c0-.4-.1-.8-.2-1.2c-.5-1.5-1.7-2.8-3.7-2.8c-2.5 0-4.3 2.2-4.3 5.5c0 2.9 1.5 5.2 4.3 5.2c1.6 0 3.1-1 3.7-2.7c.1-.4.2-.9.2-1.4c0 0 0-2.6 0-2.6zm13.3-1.8c0-1.5 0-2.7-.1-3.9c.01-.02 2.3 0 2.3 0l.1 2.3c0 0 .13.02.1 0c.8-1.4 2.2-2.6 4.6-2.6c2 0 3.5 1.2 4.1 2.9c0 0 .1 0 .1 0c.4-.8 1-1.5 1.6-1.9c.8-.7 1.8-1 3.2-1c1.9 0 4.8 1.2 4.8 6.2c-.04.05 0 8.6 0 8.6l-2.6 0c0 0-.02-8.22 0-8.2c0-2.8-1-4.5-3.2-4.5c-1.5 0-2.6 1.1-3.1 2.4c-.1.4-.2.9-.2 1.3c0 .03 0 9 0 9l-2.6 0c0 0 .02-8.7 0-8.7c0-2.3-1-4-3-4c-1.7 0-2.9 1.3-3.3 2.6c-.1.4-.2.9-.2 1.3c.01.04 0 8.8 0 8.8l-2.6 0c0 0 .03-10.59 0-10.6zm33.1 10.6l-.2-1.8c0 0-.11-.03-.1 0c-.8 1.1-2.4 2.1-4.5 2.1c-2.9 0-4.4-2-4.4-4.1c0-3.5 3.1-5.5 8.7-5.4c0 0 0-.3 0-.3c0-1.2-.3-3.4-3.3-3.4c-1.3 0-2.7.4-3.7 1.1c0 0-.6-1.8-.6-1.8c1.2-.7 2.9-1.2 4.7-1.2c4.5 0 5.5 3 5.5 5.9c0 0 0 5.4 0 5.4c0 1.3.1 2.5.3 3.5c-.01 0-2.4 0-2.4 0zm-.4-7.4c-2.9-.1-6.2.4-6.2 3.3c0 1.7 1.2 2.5 2.5 2.5c1.9 0 3.1-1.2 3.5-2.4c.1-.3.2-.6.2-.9c0 0 0-2.5 0-2.5zm9.9-11.3l0 4.2l3.7 0l0 2l-3.7 0c0 0-.03 7.82 0 7.8c0 1.8.5 2.8 1.9 2.8c.7 0 1.2 0 1.6-.1c0 0 .1 1.9.1 1.9c-.5.2-1.3.4-2.3.4c-1.3 0-2.3-.4-2.9-1.1c-.7-.8-1-2.1-1-3.8c-.01.01 0-7.9 0-7.9l-2.3 0l0-2l2.3 0l0-3.5l2.6-.7zm16.9 18.2c-.7.3-2.2.8-4.2.8c-4.4 0-7.2-3-7.2-7.4c0-4.5 3-7.7 7.8-7.7c1.5 0 2.9.4 3.6.7c0 0-.6 2.1-.6 2.1c-.6-.4-1.6-.7-3-.7c-3.3 0-5.1 2.4-5.1 5.5c0 3.3 2.1 5.4 5 5.4c1.5 0 2.5-.4 3.2-.7c0 0 .5 2 .5 2zm3.1-20.8l2.6 0l0 9.1c0 0 .08-.04.1 0c.4-.8 1.1-1.4 1.9-1.9c.7-.4 1.7-.7 2.7-.7c1.9 0 5 1.2 5 6.2c.04-.04 0 8.6 0 8.6l-2.6 0c0 0 0-8.34 0-8.3c0-2.4-.9-4.4-3.4-4.4c-1.7 0-3 1.2-3.5 2.7c-.2.3-.2.7-.2 1.2c.02.04 0 8.8 0 8.8l-2.6 0l0-21.3zm16.6 21.3l0-14.5l2.7 0l0 14.5l-2.7 0zm3-18.6c0 .9-.7 1.6-1.7 1.6c-.9 0-1.6-.7-1.6-1.6c0-.9.7-1.6 1.6-1.6c1 0 1.7.7 1.7 1.6zm4 8c0-1.5 0-2.7-.1-3.9c.02-.02 2.4 0 2.4 0l.1 2.4c0 0 .07-.02.1 0c.7-1.4 2.4-2.7 4.8-2.7c2 0 5.1 1.2 5.1 6.1c0 .03 0 8.7 0 8.7l-2.6 0c0 0-.04-8.37 0-8.4c0-2.3-.9-4.3-3.4-4.3c-1.7 0-3.1 1.3-3.5 2.7c-.2.4-.2.8-.2 1.3c-.02-.03 0 8.7 0 8.7l-2.7 0c0 0 .04-10.59 0-10.6zm29.2-3.9c-.1 1-.1 2.2-.1 4c0 0 0 8.4 0 8.4c0 3.3-.7 5.4-2.1 6.6c-1.4 1.3-3.4 1.8-5.3 1.8c-1.7 0-3.6-.5-4.8-1.2c0 0 .7-2 .7-2c.9.6 2.4 1.1 4.2 1.1c2.7 0 4.7-1.4 4.7-5.1c0 .03 0-1.6 0-1.6c0 0-.06.01-.1 0c-.8 1.4-2.3 2.4-4.6 2.4c-3.6 0-6.2-3-6.2-7c0-5 3.3-7.7 6.6-7.7c2.5 0 3.9 1.3 4.5 2.5c.01-.03.1 0 .1 0l.1-2.2c0 0 2.3-.02 2.3 0zm-2.7 5.7c0-.4-.1-.8-.2-1.2c-.5-1.5-1.7-2.8-3.7-2.8c-2.5 0-4.3 2.2-4.3 5.5c0 2.9 1.5 5.2 4.3 5.2c1.6 0 3.1-1 3.7-2.7c.1-.4.2-.9.2-1.4c0 0 0-2.6 0-2.6zm21.4 8.8l-.2-1.8c0 0-.14-.03-.1 0c-.8 1.1-2.4 2.1-4.5 2.1c-2.9 0-4.4-2-4.4-4.1c0-3.5 3.1-5.5 8.7-5.4c0 0 0-.3 0-.3c0-1.2-.3-3.4-3.3-3.4c-1.3 0-2.7.4-3.8 1.1c0 0-.6-1.8-.6-1.8c1.2-.7 3-1.2 4.8-1.2c4.4 0 5.5 3 5.5 5.9c0 0 0 5.4 0 5.4c0 1.3.1 2.5.3 3.5c-.04 0-2.4 0-2.4 0zm-.4-7.4c-2.9-.1-6.2.4-6.2 3.3c0 1.7 1.2 2.5 2.5 2.5c1.9 0 3.1-1.2 3.5-2.4c.1-.3.2-.6.2-.9c0 0 0-2.5 0-2.5zm6.8-3.2c0-1.5 0-2.7-.1-3.9c-.04-.02 2.3 0 2.3 0l.2 2.4c0 0 .01-.02 0 0c.7-1.4 2.4-2.7 4.8-2.7c2 0 5.1 1.2 5.1 6.1c.04.03 0 8.7 0 8.7l-2.6 0c0 0 0-8.37 0-8.4c0-2.3-.9-4.3-3.4-4.3c-1.7 0-3 1.3-3.5 2.7c-.1.4-.2.8-.2 1.3c.02-.03 0 8.7 0 8.7l-2.6 0c0 0-.02-10.59 0-10.6zm29.2-10.7c0 0-.03 17.55 0 17.6c0 1.2 0 2.7.1 3.7c-.01 0-2.4 0-2.4 0l-.1-2.5c0 0-.06-.02-.1 0c-.8 1.6-2.5 2.8-4.9 2.8c-3.5 0-6.2-2.9-6.2-7.3c0-4.9 3-7.8 6.5-7.8c2.2 0 3.7 1 4.4 2.2c-.03-.03 0 0 0 0l0-8.7l2.7 0zm-2.7 12.7c0-.3 0-.8-.1-1.1c-.4-1.7-1.8-3.1-3.8-3.1c-2.7 0-4.3 2.4-4.3 5.6c0 3 1.4 5.4 4.2 5.4c1.8 0 3.4-1.2 3.9-3.1c.1-.4.1-.8.1-1.2c0 0 0-2.5 0-2.5z" stroke="none" fill="#3c3c3b"/></g><g id="Polygon6587"><path d="m2.2 102.5l0-14.5l2.6 0l0 14.5l-2.6 0zm2.9-18.6c.1.9-.6 1.6-1.7 1.6c-.9 0-1.5-.7-1.5-1.6c0-.9.6-1.6 1.6-1.6c1 0 1.6.7 1.6 1.6zm4.1 8c0-1.5 0-2.7-.1-3.9c-.01-.02 2.3 0 2.3 0l.2 2.4c0 0 .04-.02 0 0c.8-1.4 2.4-2.7 4.8-2.7c2 0 5.2 1.2 5.2 6.1c-.03.03 0 8.7 0 8.7l-2.7 0c0 0 .03-8.37 0-8.4c0-2.3-.8-4.3-3.3-4.3c-1.8 0-3.1 1.3-3.6 2.7c-.1.4-.2.8-.2 1.3c.05-.03 0 8.7 0 8.7l-2.6 0c0 0 .01-10.59 0-10.6zm27 10.1c-.7.3-2.2.8-4.2.8c-4.3 0-7.2-3-7.2-7.4c0-4.5 3.1-7.7 7.8-7.7c1.6 0 2.9.4 3.7.7c0 0-.6 2.1-.6 2.1c-.7-.4-1.7-.7-3.1-.7c-3.3 0-5.1 2.4-5.1 5.5c0 3.3 2.1 5.4 5 5.4c1.5 0 2.5-.4 3.3-.7c0 0 .4 2 .4 2zm3.1-9.5c0-1.7 0-3.2-.1-4.5c-.02-.02 2.3 0 2.3 0l.1 2.8c0 0 .1.03.1 0c.7-1.9 2.2-3.1 4-3.1c.3 0 .5 0 .8 0c0 0 0 2.5 0 2.5c-.3 0-.6-.1-.9-.1c-1.9 0-3.2 1.5-3.6 3.4c0 .4-.1.8-.1 1.3c.01-.04 0 7.7 0 7.7l-2.6 0c0 0 0-9.99 0-10zm11 3.2c0 3.6 2.3 5.1 5 5.1c1.8 0 3-.4 4-.8c0 0 .4 1.9.4 1.9c-.9.4-2.5.9-4.8.9c-4.5 0-7.1-2.9-7.1-7.3c0-4.4 2.5-7.8 6.8-7.8c4.7 0 6 4.1 6 6.8c0 .5-.1 1-.1 1.2c0 0-10.2 0-10.2 0zm7.7-1.9c0-1.6-.7-4.3-3.6-4.3c-2.7 0-3.9 2.5-4.1 4.3c0 0 7.7 0 7.7 0zm13.9 8.7l-.2-1.8c0 0-.12-.03-.1 0c-.8 1.1-2.4 2.1-4.5 2.1c-2.9 0-4.4-2-4.4-4.1c0-3.5 3.1-5.5 8.7-5.4c0 0 0-.3 0-.3c0-1.2-.3-3.4-3.3-3.4c-1.3 0-2.7.4-3.8 1.1c0 0-.6-1.8-.6-1.8c1.2-.7 3-1.2 4.8-1.2c4.5 0 5.5 3 5.5 5.9c0 0 0 5.4 0 5.4c0 1.3.1 2.5.3 3.5c-.02 0-2.4 0-2.4 0zm-.4-7.4c-2.9-.1-6.2.4-6.2 3.3c0 1.7 1.2 2.5 2.5 2.5c1.9 0 3.1-1.2 3.5-2.4c.1-.3.2-.6.2-.9c0 0 0-2.5 0-2.5zm6.4 4.7c.8.5 2.2 1.1 3.5 1.1c1.9 0 2.8-1 2.8-2.2c0-1.3-.7-2-2.7-2.7c-2.6-.9-3.8-2.3-3.8-4.1c0-2.3 1.9-4.2 5-4.2c1.5 0 2.8.4 3.6.9c0 0-.7 1.9-.7 1.9c-.6-.4-1.6-.9-3-.9c-1.5 0-2.4.9-2.4 2c0 1.2.9 1.8 2.8 2.5c2.5.9 3.8 2.2 3.8 4.4c0 2.5-2 4.3-5.4 4.3c-1.6 0-3.1-.4-4.1-1c0 0 .6-2 .6-2zm13.7-4.1c.1 3.6 2.4 5.1 5 5.1c1.9 0 3.1-.4 4-.8c0 0 .5 1.9.5 1.9c-.9.4-2.5.9-4.8.9c-4.5 0-7.2-2.9-7.2-7.3c0-4.4 2.6-7.8 6.8-7.8c4.8 0 6 4.1 6 6.8c0 .5 0 1-.1 1.2c0 0-10.2 0-10.2 0zm7.8-1.9c0-1.6-.7-4.3-3.7-4.3c-2.6 0-3.8 2.5-4 4.3c0 0 7.7 0 7.7 0zm15.3-10l0 4.2l3.8 0l0 2l-3.8 0c0 0 .05 7.82 0 7.8c0 1.8.6 2.8 2 2.8c.7 0 1.2 0 1.6-.1c0 0 .1 1.9.1 1.9c-.5.2-1.3.4-2.4.4c-1.2 0-2.2-.4-2.8-1.1c-.8-.8-1-2.1-1-3.8c-.03.01 0-7.9 0-7.9l-2.3 0l0-2l2.3 0l0-3.5l2.5-.7zm6.8-2.6l2.6 0l0 9.1c0 0 .1-.04.1 0c.4-.8 1.1-1.4 1.9-1.9c.8-.4 1.7-.7 2.7-.7c1.9 0 5.1 1.2 5.1 6.2c-.04-.04 0 8.6 0 8.6l-2.7 0c0 0 .02-8.34 0-8.3c0-2.4-.9-4.4-3.3-4.4c-1.8 0-3.1 1.2-3.6 2.7c-.1.3-.2.7-.2 1.2c.04.04 0 8.8 0 8.8l-2.6 0l0-21.3zm18.1 14.5c.1 3.6 2.4 5.1 5 5.1c1.9 0 3-.4 4-.8c0 0 .5 1.9.5 1.9c-1 .4-2.6.9-4.9.9c-4.4 0-7.1-2.9-7.1-7.3c0-4.4 2.6-7.8 6.8-7.8c4.7 0 6 4.1 6 6.8c0 .5-.1 1-.1 1.2c0 0-10.2 0-10.2 0zm7.8-1.9c0-1.6-.7-4.3-3.7-4.3c-2.7 0-3.8 2.5-4.1 4.3c0 0 7.8 0 7.8 0zm13.6 1.9c.1 3.6 2.3 5.1 5 5.1c1.9 0 3-.4 4-.8c0 0 .5 1.9.5 1.9c-1 .4-2.6.9-4.9.9c-4.4 0-7.1-2.9-7.1-7.3c0-4.4 2.6-7.8 6.8-7.8c4.7 0 6 4.1 6 6.8c0 .5-.1 1-.1 1.2c0 0-10.2 0-10.2 0zm7.7-1.9c.1-1.6-.6-4.3-3.6-4.3c-2.7 0-3.9 2.5-4.1 4.3c0 0 7.7 0 7.7 0zm24-10c-.6-.4-1.7-.8-2.9-.8c-2.8 0-3.6 2-3.6 4.3c-.02-.04 0 .7 0 .7l8.4 0l0 14.5l-2.6 0l0-12.5l-5.8 0l0 12.5l-2.6 0l0-12.5l-6.2 0l0 12.5l-2.6 0l0-12.5l-2 0l0-2l2 0c0 0 .04-.56 0-.6c0-1.8.5-3.6 1.8-4.8c.8-.9 2.1-1.4 3.7-1.4c1 0 2 .4 2.5.6c0 0-.7 2-.7 2c-.4-.3-1.1-.5-1.8-.5c-.8 0-1.4.3-1.9.8c-.7.7-1 2-1 3.3c.05.01 0 .6 0 .6l6.2 0c0 0-.03-.8 0-.8c0-3.8 2.2-6.3 6.3-6.3c1.3 0 2.8.4 3.6.9c0 0-.8 2-.8 2zm16.7 18.2c-.7.3-2.3.8-4.2.8c-4.4 0-7.2-3-7.2-7.4c0-4.5 3-7.7 7.8-7.7c1.5 0 2.9.4 3.6.7c0 0-.6 2.1-.6 2.1c-.6-.4-1.6-.7-3-.7c-3.4 0-5.2 2.4-5.2 5.5c0 3.3 2.2 5.4 5.1 5.4c1.5 0 2.5-.4 3.2-.7c0 0 .5 2 .5 2zm3.1.5l0-14.5l2.6 0l0 14.5l-2.6 0zm2.9-18.6c0 .9-.6 1.6-1.7 1.6c-.9 0-1.6-.7-1.6-1.6c0-.9.7-1.6 1.7-1.6c1 0 1.6.7 1.6 1.6zm5.5 11.8c.1 3.6 2.4 5.1 5 5.1c1.9 0 3.1-.4 4-.8c0 0 .5 1.9.5 1.9c-.9.4-2.5.9-4.8.9c-4.5 0-7.2-2.9-7.2-7.3c0-4.4 2.6-7.8 6.8-7.8c4.8 0 6 4.1 6 6.8c0 .5 0 1-.1 1.2c0 0-10.2 0-10.2 0zm7.8-1.9c0-1.6-.7-4.3-3.7-4.3c-2.6 0-3.8 2.5-4 4.3c0 0 7.7 0 7.7 0zm5.8-1.9c0-1.5 0-2.7-.1-3.9c-.01-.02 2.3 0 2.3 0l.2 2.4c0 0 .04-.02 0 0c.8-1.4 2.4-2.7 4.8-2.7c2 0 5.2 1.2 5.2 6.1c-.03.03 0 8.7 0 8.7l-2.7 0c0 0 .03-8.37 0-8.4c0-2.3-.8-4.3-3.3-4.3c-1.8 0-3.1 1.3-3.6 2.7c-.1.4-.2.8-.2 1.3c.05-.03 0 8.7 0 8.7l-2.6 0c0 0 .01-10.59 0-10.6zm27 10.1c-.7.3-2.2.8-4.2.8c-4.3 0-7.2-3-7.2-7.4c0-4.5 3.1-7.7 7.8-7.7c1.6 0 2.9.4 3.7.7c0 0-.6 2.1-.6 2.1c-.7-.4-1.7-.7-3.1-.7c-3.3 0-5.1 2.4-5.1 5.5c0 3.3 2.1 5.4 5 5.4c1.5 0 2.5-.4 3.3-.7c0 0 .4 2 .4 2zm4.6-14c0 0 3.18 8.56 3.2 8.6c.3.9.7 2.1.9 2.9c0 0 .1 0 .1 0c.2-.8.5-1.9.9-3c0 0 2.9-8.5 2.9-8.5l2.8 0c0 0-3.99 10.33-4 10.3c-1.9 5-3.2 7.6-5 9.1c-1.3 1.2-2.6 1.6-3.2 1.7c0 0-.7-2.2-.7-2.2c.7-.2 1.6-.6 2.3-1.3c.8-.6 1.7-1.6 2.3-2.9c.1-.3.2-.5.2-.6c0-.2-.1-.4-.2-.7c-.01-.04-5.4-13.4-5.4-13.4l2.9 0zm19.8 14.5l0-12.5l-2 0l0-2l2 0c0 0 0-.71 0-.7c0-2 .4-3.9 1.7-5.1c1-.9 2.3-1.3 3.5-1.3c.9 0 1.8.2 2.3.4c0 0-.4 2-.4 2c-.4-.2-.9-.3-1.7-.3c-2.2 0-2.8 2-2.8 4.2c.01 0 0 .8 0 .8l3.5 0l0 2l-3.5 0l0 12.5l-2.6 0zm8.5-10c0-1.7 0-3.2-.1-4.5c-.03-.02 2.3 0 2.3 0l.1 2.8c0 0 .09.03.1 0c.6-1.9 2.2-3.1 4-3.1c.3 0 .5 0 .8 0c0 0 0 2.5 0 2.5c-.3 0-.6-.1-.9-.1c-1.9 0-3.2 1.5-3.6 3.4c0 .4-.1.8-.1 1.3c0-.04 0 7.7 0 7.7l-2.6 0c0 0-.01-9.99 0-10zm22.6 2.6c0 5.4-3.7 7.7-7.2 7.7c-3.9 0-7-2.8-7-7.4c0-4.9 3.2-7.7 7.2-7.7c4.2 0 7 3 7 7.4zm-11.5.2c0 3.2 1.8 5.6 4.4 5.6c2.5 0 4.4-2.4 4.4-5.7c0-2.4-1.2-5.6-4.3-5.6c-3.1 0-4.5 2.9-4.5 5.7zm14.9-3.4c0-1.5-.1-2.7-.2-3.9c.05-.02 2.4 0 2.4 0l.1 2.3c0 0 .07.02.1 0c.8-1.4 2.1-2.6 4.5-2.6c2 0 3.5 1.2 4.1 2.9c0 0 .1 0 .1 0c.4-.8 1-1.5 1.6-1.9c.9-.7 1.8-1 3.2-1c1.9 0 4.8 1.2 4.8 6.2c0 .05 0 8.6 0 8.6l-2.6 0c0 0 .02-8.22 0-8.2c0-2.8-1-4.5-3.1-4.5c-1.5 0-2.7 1.1-3.2 2.4c-.1.4-.2.9-.2 1.3c.04.03 0 9 0 9l-2.5 0c0 0-.04-8.7 0-8.7c0-2.3-1.1-4-3.1-4c-1.6 0-2.8 1.3-3.2 2.6c-.2.4-.3.9-.3 1.3c.05.04 0 8.8 0 8.8l-2.5 0c0 0-.03-10.59 0-10.6zm34.5-8.1l0 4.2l3.8 0l0 2l-3.8 0c0 0 .02 7.82 0 7.8c0 1.8.5 2.8 2 2.8c.7 0 1.2 0 1.5-.1c0 0 .2 1.9.2 1.9c-.6.2-1.4.4-2.4.4c-1.2 0-2.2-.4-2.8-1.1c-.8-.8-1.1-2.1-1.1-3.8c.04.01 0-7.9 0-7.9l-2.2 0l0-2l2.2 0l0-3.5l2.6-.7zm6.8-2.6l2.6 0l0 9.1c0 0 .07-.04.1 0c.4-.8 1.1-1.4 1.9-1.9c.7-.4 1.7-.7 2.7-.7c1.9 0 5 1.2 5 6.2c.03-.04 0 8.6 0 8.6l-2.6 0c0 0-.01-8.34 0-8.3c0-2.4-.9-4.4-3.4-4.4c-1.7 0-3 1.2-3.5 2.7c-.2.3-.2.7-.2 1.2c.01.04 0 8.8 0 8.8l-2.6 0l0-21.3zm18.1 14.5c.1 3.6 2.3 5.1 5 5.1c1.9 0 3-.4 4-.8c0 0 .4 1.9.4 1.9c-.9.4-2.5.9-4.8.9c-4.5 0-7.1-2.9-7.1-7.3c0-4.4 2.6-7.8 6.8-7.8c4.7 0 6 4.1 6 6.8c0 .5-.1 1-.1 1.2c0 0-10.2 0-10.2 0zm7.7-1.9c.1-1.6-.7-4.3-3.6-4.3c-2.7 0-3.9 2.5-4.1 4.3c0 0 7.7 0 7.7 0zm12.2-1.3c0-1.7 0-3.2-.1-4.5c-.01-.02 2.3 0 2.3 0l.1 2.8c0 0 .11.03.1 0c.7-1.9 2.3-3.1 4-3.1c.3 0 .5 0 .8 0c0 0 0 2.5 0 2.5c-.3 0-.6-.1-.9-.1c-1.9 0-3.2 1.5-3.6 3.4c0 .4-.1.8-.1 1.3c.02-.04 0 7.7 0 7.7l-2.6 0c0 0 .01-9.99 0-10zm11 3.2c.1 3.6 2.3 5.1 5 5.1c1.9 0 3-.4 4-.8c0 0 .4 1.9.4 1.9c-.9.4-2.5.9-4.8.9c-4.5 0-7.1-2.9-7.1-7.3c0-4.4 2.6-7.8 6.8-7.8c4.7 0 6 4.1 6 6.8c0 .5-.1 1-.1 1.2c0 0-10.2 0-10.2 0zm7.7-1.9c.1-1.6-.7-4.3-3.6-4.3c-2.7 0-3.9 2.5-4.1 4.3c0 0 7.7 0 7.7 0zm16.2 8.2c-.7.3-2.2.8-4.2.8c-4.3 0-7.2-3-7.2-7.4c0-4.5 3.1-7.7 7.8-7.7c1.6 0 2.9.4 3.7.7c0 0-.6 2.1-.6 2.1c-.7-.4-1.7-.7-3.1-.7c-3.3 0-5.1 2.4-5.1 5.5c0 3.3 2.1 5.4 5 5.4c1.5 0 2.5-.4 3.3-.7c0 0 .4 2 .4 2zm16.1-6.9c0 5.4-3.8 7.7-7.3 7.7c-3.9 0-6.9-2.8-6.9-7.4c0-4.9 3.1-7.7 7.2-7.7c4.1 0 7 3 7 7.4zm-11.6.2c0 3.2 1.9 5.6 4.4 5.6c2.6 0 4.5-2.4 4.5-5.7c0-2.4-1.3-5.6-4.4-5.6c-3.1 0-4.5 2.9-4.5 5.7zm14.9-2.8c0-1.7 0-3.2-.1-4.5c-.04-.02 2.3 0 2.3 0l.1 2.8c0 0 .08.03.1 0c.6-1.9 2.2-3.1 4-3.1c.3 0 .5 0 .8 0c0 0 0 2.5 0 2.5c-.3 0-.6-.1-.9-.1c-1.9 0-3.2 1.5-3.6 3.4c0 .4-.1.8-.1 1.3c-.01-.04 0 7.7 0 7.7l-2.6 0c0 0-.02-9.99 0-10zm22-11.3c0 0 .03 17.55 0 17.6c0 1.2.1 2.7.2 3.7c-.05 0-2.4 0-2.4 0l-.1-2.5c0 0-.1-.02-.1 0c-.8 1.6-2.6 2.8-4.9 2.8c-3.6 0-6.3-2.9-6.3-7.3c0-4.9 3-7.8 6.6-7.8c2.2 0 3.7 1 4.3 2.2c.03-.03.1 0 .1 0l0-8.7l2.6 0zm-2.6 12.7c0-.3 0-.8-.1-1.1c-.4-1.7-1.9-3.1-3.8-3.1c-2.8 0-4.4 2.4-4.4 5.6c0 3 1.5 5.4 4.3 5.4c1.8 0 3.4-1.2 3.9-3.1c.1-.4.1-.8.1-1.2c0 0 0-2.5 0-2.5zm7 8.6l0-14.5l2.7 0l0 14.5l-2.7 0zm3-18.6c0 .9-.7 1.6-1.7 1.6c-1 0-1.6-.7-1.6-1.6c0-.9.7-1.6 1.6-1.6c1 0 1.7.7 1.7 1.6zm4 8c0-1.5 0-2.7-.1-3.9c.01-.02 2.4 0 2.4 0l.1 2.4c0 0 .06-.02.1 0c.7-1.4 2.4-2.7 4.8-2.7c2 0 5.1 1.2 5.1 6.1c-.01.03 0 8.7 0 8.7l-2.6 0c0 0-.05-8.37 0-8.4c0-2.3-.9-4.3-3.4-4.3c-1.7 0-3.1 1.3-3.5 2.7c-.2.4-.2.8-.2 1.3c-.03-.03 0 8.7 0 8.7l-2.7 0c0 0 .03-10.59 0-10.6zm29.2-3.9c-.1 1-.1 2.2-.1 4c0 0 0 8.4 0 8.4c0 3.3-.7 5.4-2.1 6.6c-1.4 1.3-3.4 1.8-5.3 1.8c-1.7 0-3.6-.5-4.8-1.2c0 0 .7-2 .7-2c.9.6 2.4 1.1 4.2 1.1c2.7 0 4.7-1.4 4.7-5.1c-.01.03 0-1.6 0-1.6c0 0-.07.01-.1 0c-.8 1.4-2.3 2.4-4.6 2.4c-3.6 0-6.2-3-6.2-7c0-5 3.2-7.7 6.6-7.7c2.5 0 3.9 1.3 4.5 2.5c0-.03.1 0 .1 0l.1-2.2c0 0 2.29-.02 2.3 0zm-2.7 5.7c0-.4-.1-.8-.2-1.2c-.5-1.5-1.8-2.8-3.7-2.8c-2.5 0-4.3 2.2-4.3 5.5c0 2.9 1.4 5.2 4.3 5.2c1.6 0 3.1-1 3.7-2.7c.1-.4.2-.9.2-1.4c0 0 0-2.6 0-2.6z" stroke="none" fill="#3c3c3b"/></g><g id="Polygon6586"><path d="m12.5 62c-.7.3-2.2.8-4.1.8c-4.4 0-7.3-3-7.3-7.4c0-4.5 3.1-7.7 7.8-7.7c1.6 0 3 .4 3.7.7c0 0-.6 2.1-.6 2.1c-.6-.4-1.6-.7-3.1-.7c-3.3 0-5.1 2.4-5.1 5.5c0 3.3 2.2 5.4 5 5.4c1.5 0 2.5-.4 3.3-.7c0 0 .4 2 .4 2zm16.1-6.9c0 5.4-3.7 7.7-7.2 7.7c-4 0-7-2.8-7-7.4c0-4.9 3.2-7.7 7.2-7.7c4.2 0 7 3 7 7.4zm-11.5.2c0 3.2 1.8 5.6 4.4 5.6c2.5 0 4.4-2.4 4.4-5.7c0-2.4-1.2-5.6-4.4-5.6c-3.1 0-4.4 2.9-4.4 5.7zm14.8-3.4c0-1.5 0-2.7-.1-3.9c0-.02 2.3 0 2.3 0l.1 2.3c0 0 .12.02.1 0c.8-1.4 2.2-2.6 4.6-2.6c2 0 3.5 1.2 4.1 2.9c0 0 0 0 0 0c.5-.8 1.1-1.5 1.7-1.9c.8-.7 1.8-1 3.2-1c1.9 0 4.7 1.2 4.7 6.2c.05.05 0 8.6 0 8.6l-2.5 0c0 0-.03-8.22 0-8.2c0-2.8-1.1-4.5-3.2-4.5c-1.5 0-2.7 1.1-3.1 2.4c-.1.4-.2.9-.2 1.3c-.01.03 0 9 0 9l-2.6 0c0 0 .01-8.7 0-8.7c0-2.3-1-4-3-4c-1.7 0-2.9 1.3-3.3 2.6c-.1.4-.2.9-.2 1.3c0 .04 0 8.8 0 8.8l-2.6 0c0 0 .02-10.59 0-10.6zm24.9 10.6c.1-1 .1-2.5.1-3.7c.04-.05 0-17.6 0-17.6l2.6 0l0 9.1c0 0 .11.02.1 0c.9-1.6 2.6-2.6 5-2.6c3.6 0 6.1 3 6.1 7.4c0 5.2-3.3 7.7-6.5 7.7c-2.1 0-3.8-.8-4.9-2.7c.01 0-.1 0-.1 0l-.1 2.4c0 0-2.28 0-2.3 0zm2.7-5.8c0 .3.1.6.2.9c.5 1.9 2 3.1 3.9 3.1c2.8 0 4.4-2.2 4.4-5.5c0-3-1.5-5.4-4.3-5.4c-1.8 0-3.5 1.2-4 3.2c-.1.3-.2.7-.2 1.1c0 0 0 2.6 0 2.6zm14.5 5.8l0-14.5l2.6 0l0 14.5l-2.6 0zm2.9-18.6c.1.9-.6 1.6-1.6 1.6c-1 0-1.6-.7-1.6-1.6c0-.9.7-1.6 1.6-1.6c1 0 1.6.7 1.6 1.6zm4.1 8c0-1.5 0-2.7-.1-3.9c.01-.02 2.3 0 2.3 0l.2 2.4c0 0 .06-.02.1 0c.7-1.4 2.4-2.7 4.8-2.7c2 0 5.1 1.2 5.1 6.1c-.01.03 0 8.7 0 8.7l-2.7 0c0 0 .05-8.37 0-8.4c0-2.3-.8-4.3-3.3-4.3c-1.8 0-3.1 1.3-3.6 2.7c-.1.4-.1.8-.1 1.3c-.03-.03 0 8.7 0 8.7l-2.7 0c0 0 .03-10.59 0-10.6zm16.7 10.6l0-14.5l2.6 0l0 14.5l-2.6 0zm2.9-18.6c0 .9-.6 1.6-1.7 1.6c-.9 0-1.6-.7-1.6-1.6c0-.9.7-1.6 1.7-1.6c1 0 1.6.7 1.6 1.6zm4.1 8c0-1.5 0-2.7-.1-3.9c-.02-.02 2.3 0 2.3 0l.2 2.4c0 0 .03-.02 0 0c.7-1.4 2.4-2.7 4.8-2.7c2 0 5.2 1.2 5.2 6.1c-.04.03 0 8.7 0 8.7l-2.7 0c0 0 .02-8.37 0-8.4c0-2.3-.9-4.3-3.3-4.3c-1.8 0-3.1 1.3-3.6 2.7c-.1.4-.2.8-.2 1.3c.04-.03 0 8.7 0 8.7l-2.6 0c0 0 0-10.59 0-10.6zm29.2-3.9c-.1 1-.2 2.2-.2 4c0 0 0 8.4 0 8.4c0 3.3-.6 5.4-2 6.6c-1.4 1.3-3.5 1.8-5.3 1.8c-1.8 0-3.7-.5-4.8-1.2c0 0 .6-2 .6-2c1 .6 2.5 1.1 4.3 1.1c2.7 0 4.7-1.4 4.7-5.1c-.04.03 0-1.6 0-1.6c0 0-.1.01-.1 0c-.8 1.4-2.4 2.4-4.6 2.4c-3.6 0-6.2-3-6.2-7c0-5 3.2-7.7 6.5-7.7c2.6 0 3.9 1.3 4.6 2.5c-.03-.03 0 0 0 0l.1-2.2c0 0 2.36-.02 2.4 0zm-2.8 5.7c0-.4 0-.8-.1-1.2c-.5-1.5-1.8-2.8-3.7-2.8c-2.5 0-4.3 2.2-4.3 5.5c0 2.9 1.4 5.2 4.3 5.2c1.6 0 3-1 3.6-2.7c.2-.4.2-.9.2-1.4c0 0 0-2.6 0-2.6zm16.6-9.9l0 4.2l3.7 0l0 2l-3.7 0c0 0-.04 7.82 0 7.8c0 1.8.5 2.8 1.9 2.8c.7 0 1.2 0 1.6-.1c0 0 .1 1.9.1 1.9c-.5.2-1.3.4-2.4.4c-1.2 0-2.2-.4-2.8-1.1c-.8-.8-1-2.1-1-3.8c-.02.01 0-7.9 0-7.9l-2.3 0l0-2l2.3 0l0-3.5l2.6-.7zm6.7-2.6l2.6 0l0 9.1c0 0 .11-.04.1 0c.4-.8 1.1-1.4 1.9-1.9c.8-.4 1.7-.7 2.7-.7c1.9 0 5.1 1.2 5.1 6.2c-.03-.04 0 8.6 0 8.6l-2.7 0c0 0 .03-8.34 0-8.3c0-2.4-.8-4.4-3.3-4.4c-1.7 0-3.1 1.2-3.6 2.7c-.1.3-.2.7-.2 1.2c.05.04 0 8.8 0 8.8l-2.6 0l0-21.3zm18.1 14.5c.1 3.6 2.4 5.1 5 5.1c1.9 0 3-.4 4-.8c0 0 .5 1.9.5 1.9c-1 .4-2.5.9-4.9.9c-4.4 0-7.1-2.9-7.1-7.3c0-4.4 2.6-7.8 6.8-7.8c4.8 0 6 4.1 6 6.8c0 .5 0 1-.1 1.2c0 0-10.2 0-10.2 0zm7.8-1.9c0-1.6-.7-4.3-3.7-4.3c-2.7 0-3.8 2.5-4 4.3c0 0 7.7 0 7.7 0zm15.3-10l0 4.2l3.8 0l0 2l-3.8 0c0 0 .03 7.82 0 7.8c0 1.8.5 2.8 2 2.8c.7 0 1.2 0 1.5-.1c0 0 .2 1.9.2 1.9c-.6.2-1.4.4-2.4.4c-1.2 0-2.2-.4-2.8-1.1c-.8-.8-1.1-2.1-1.1-3.8c.05.01 0-7.9 0-7.9l-2.2 0l0-2l2.2 0l0-3.5l2.6-.7zm14.8 18.7l-.2-1.8c0 0-.08-.03-.1 0c-.8 1.1-2.4 2.1-4.4 2.1c-3 0-4.5-2-4.5-4.1c0-3.5 3.2-5.5 8.8-5.4c0 0 0-.3 0-.3c0-1.2-.4-3.4-3.3-3.4c-1.4 0-2.8.4-3.8 1.1c0 0-.6-1.8-.6-1.8c1.2-.7 2.9-1.2 4.8-1.2c4.4 0 5.5 3 5.5 5.9c0 0 0 5.4 0 5.4c0 1.3 0 2.5.2 3.5c.02 0-2.4 0-2.4 0zm-.4-7.4c-2.9-.1-6.1.4-6.1 3.3c0 1.7 1.1 2.5 2.5 2.5c1.9 0 3.1-1.2 3.5-2.4c.1-.3.1-.6.1-.9c0 0 0-2.5 0-2.5zm8.1-7.1c0 0 2.04 3.1 2 3.1c.6.8 1 1.6 1.5 2.4c0 0 .1 0 .1 0c.5-.9 1-1.6 1.4-2.4c.04-.03 2.1-3.1 2.1-3.1l2.8 0l-4.9 7l5.1 7.5l-3 0c0 0-2.15-3.27-2.2-3.3c-.5-.8-1-1.6-1.5-2.5c0 0-.1 0-.1 0c-.5.9-1 1.7-1.5 2.5c0 .03-2.1 3.3-2.1 3.3l-2.9 0l5.1-7.4l-4.9-7.1l3 0zm27 14.5l-.2-1.8c0 0-.07-.03-.1 0c-.8 1.1-2.3 2.1-4.4 2.1c-3 0-4.5-2-4.5-4.1c0-3.5 3.2-5.5 8.8-5.4c0 0 0-.3 0-.3c0-1.2-.4-3.4-3.3-3.4c-1.4 0-2.8.4-3.8 1.1c0 0-.6-1.8-.6-1.8c1.2-.7 2.9-1.2 4.8-1.2c4.4 0 5.5 3 5.5 5.9c0 0 0 5.4 0 5.4c0 1.3 0 2.5.2 3.5c.03 0-2.4 0-2.4 0zm-.4-7.4c-2.8-.1-6.1.4-6.1 3.3c0 1.7 1.1 2.5 2.5 2.5c1.9 0 3.1-1.2 3.5-2.4c.1-.3.1-.6.1-.9c0 0 0-2.5 0-2.5zm6.8-3.2c0-1.5 0-2.7-.1-3.9c.03-.02 2.4 0 2.4 0l.1 2.4c0 0 .08-.02.1 0c.7-1.4 2.4-2.7 4.8-2.7c2 0 5.1 1.2 5.1 6.1c.01.03 0 8.7 0 8.7l-2.6 0c0 0-.03-8.37 0-8.4c0-2.3-.9-4.3-3.4-4.3c-1.7 0-3.1 1.3-3.5 2.7c-.2.4-.2.8-.2 1.3c-.01-.03 0 8.7 0 8.7l-2.7 0c0 0 .05-10.59 0-10.6zm29.2-10.7c0 0 .04 17.55 0 17.6c0 1.2.1 2.7.2 3.7c-.04 0-2.4 0-2.4 0l-.1-2.5c0 0-.09-.02-.1 0c-.8 1.6-2.6 2.8-4.9 2.8c-3.6 0-6.3-2.9-6.3-7.3c0-4.9 3-7.8 6.6-7.8c2.2 0 3.7 1 4.3 2.2c.04-.03.1 0 .1 0l0-8.7l2.6 0zm-2.6 12.7c0-.3 0-.8-.1-1.1c-.4-1.7-1.9-3.1-3.8-3.1c-2.8 0-4.4 2.4-4.4 5.6c0 3 1.5 5.4 4.3 5.4c1.8 0 3.4-1.2 3.9-3.1c.1-.4.1-.8.1-1.2c0 0 0-2.5 0-2.5zm16.6-10.1l0 4.2l3.7 0l0 2l-3.7 0c0 0-.04 7.82 0 7.8c0 1.8.5 2.8 1.9 2.8c.7 0 1.2 0 1.6-.1c0 0 .1 1.9.1 1.9c-.5.2-1.3.4-2.4.4c-1.2 0-2.2-.4-2.8-1.1c-.8-.8-1-2.1-1-3.8c-.02.01 0-7.9 0-7.9l-2.3 0l0-2l2.3 0l0-3.5l2.6-.7zm8 11.9c.1 3.6 2.3 5.1 5 5.1c1.9 0 3-.4 4-.8c0 0 .4 1.9.4 1.9c-.9.4-2.5.9-4.8.9c-4.5 0-7.1-2.9-7.1-7.3c0-4.4 2.6-7.8 6.8-7.8c4.7 0 6 4.1 6 6.8c0 .5-.1 1-.1 1.2c0 0-10.2 0-10.2 0zm7.7-1.9c.1-1.6-.7-4.3-3.6-4.3c-2.7 0-3.9 2.5-4.1 4.3c0 0 7.7 0 7.7 0zm16.2 8.2c-.7.3-2.2.8-4.2.8c-4.3 0-7.2-3-7.2-7.4c0-4.5 3.1-7.7 7.8-7.7c1.6 0 2.9.4 3.7.7c0 0-.6 2.1-.6 2.1c-.7-.4-1.7-.7-3.1-.7c-3.3 0-5.1 2.4-5.1 5.5c0 3.3 2.1 5.4 5 5.4c1.5 0 2.5-.4 3.3-.7c0 0 .4 2 .4 2zm3.1-20.8l2.6 0l0 9.1c0 0 .1-.04.1 0c.4-.8 1.1-1.4 1.9-1.9c.8-.4 1.7-.7 2.7-.7c1.9 0 5.1 1.2 5.1 6.2c-.04-.04 0 8.6 0 8.6l-2.7 0c0 0 .02-8.34 0-8.3c0-2.4-.9-4.4-3.3-4.4c-1.8 0-3.1 1.2-3.6 2.7c-.1.3-.2.7-.2 1.2c.04.04 0 8.8 0 8.8l-2.6 0l0-21.3zm16.6 10.7c0-1.5 0-2.7-.1-3.9c.02-.02 2.4 0 2.4 0l.1 2.4c0 0 .07-.02.1 0c.7-1.4 2.4-2.7 4.8-2.7c2 0 5.1 1.2 5.1 6.1c0 .03 0 8.7 0 8.7l-2.6 0c0 0-.04-8.37 0-8.4c0-2.3-.9-4.3-3.4-4.3c-1.7 0-3.1 1.3-3.5 2.7c-.2.4-.2.8-.2 1.3c-.02-.03 0 8.7 0 8.7l-2.7 0c0 0 .04-10.59 0-10.6zm29.8 3.2c0 5.4-3.7 7.7-7.2 7.7c-3.9 0-7-2.8-7-7.4c0-4.9 3.2-7.7 7.2-7.7c4.2 0 7 3 7 7.4zm-11.5.2c0 3.2 1.8 5.6 4.4 5.6c2.5 0 4.4-2.4 4.4-5.7c0-2.4-1.2-5.6-4.3-5.6c-3.1 0-4.5 2.9-4.5 5.7zm14.9-14.1l2.6 0l0 21.3l-2.6 0l0-21.3zm20.2 13.9c0 5.4-3.7 7.7-7.2 7.7c-4 0-7-2.8-7-7.4c0-4.9 3.2-7.7 7.2-7.7c4.2 0 7 3 7 7.4zm-11.5.2c0 3.2 1.8 5.6 4.4 5.6c2.5 0 4.4-2.4 4.4-5.7c0-2.4-1.2-5.6-4.4-5.6c-3.1 0-4.4 2.9-4.4 5.7zm27.3-7.3c0 1-.1 2.2-.1 4c0 0 0 8.4 0 8.4c0 3.3-.7 5.4-2.1 6.6c-1.4 1.3-3.4 1.8-5.2 1.8c-1.8 0-3.7-.5-4.9-1.2c0 0 .7-2 .7-2c.9.6 2.4 1.1 4.2 1.1c2.7 0 4.7-1.4 4.7-5.1c.02.03 0-1.6 0-1.6c0 0-.04.01 0 0c-.8 1.4-2.4 2.4-4.7 2.4c-3.6 0-6.1-3-6.1-7c0-5 3.2-7.7 6.5-7.7c2.5 0 3.9 1.3 4.5 2.5c.03-.03.1 0 .1 0l.1-2.2c0 0 2.32-.02 2.3 0zm-2.7 5.7c0-.4 0-.8-.2-1.2c-.4-1.5-1.7-2.8-3.6-2.8c-2.6 0-4.4 2.2-4.4 5.5c0 2.9 1.5 5.2 4.3 5.2c1.6 0 3.1-1 3.7-2.7c.1-.4.2-.9.2-1.4c0 0 0-2.6 0-2.6zm7.9-5.7c0 0 3.22 8.56 3.2 8.6c.4.9.7 2.1 1 2.9c0 0 0 0 0 0c.3-.8.6-1.9.9-3c.04 0 2.9-8.5 2.9-8.5l2.8 0c0 0-3.95 10.33-3.9 10.3c-1.9 5-3.2 7.6-5 9.1c-1.3 1.2-2.6 1.6-3.3 1.7c0 0-.6-2.2-.6-2.2c.6-.2 1.5-.6 2.3-1.3c.7-.6 1.6-1.6 2.2-2.9c.1-.3.2-.5.2-.6c0-.2 0-.4-.2-.7c.03-.04-5.3-13.4-5.3-13.4l2.8 0zm22.8-4.2l0 4.2l3.7 0l0 2l-3.7 0c0 0-.05 7.82 0 7.8c0 1.8.5 2.8 1.9 2.8c.7 0 1.2 0 1.6-.1c0 0 .1 1.9.1 1.9c-.5.2-1.3.4-2.4.4c-1.2 0-2.2-.4-2.8-1.1c-.8-.8-1-2.1-1-3.8c-.03.01 0-7.9 0-7.9l-2.3 0l0-2l2.3 0l0-3.5l2.6-.7zm19.7 11.3c0 5.4-3.8 7.7-7.3 7.7c-3.9 0-6.9-2.8-6.9-7.4c0-4.9 3.2-7.7 7.2-7.7c4.1 0 7 3 7 7.4zm-11.6.2c0 3.2 1.9 5.6 4.5 5.6c2.5 0 4.4-2.4 4.4-5.7c0-2.4-1.3-5.6-4.4-5.6c-3.1 0-4.5 2.9-4.5 5.7z" stroke="none" fill="#3c3c3b"/></g><g id="Polygon6585"><path d="m4.9 2.3c0 0-.01 11.95 0 12c0 4.5 2 6.4 4.7 6.4c3 0 4.9-2 4.9-6.4c.02-.05 0-12 0-12l2.7 0c0 0-.04 11.77 0 11.8c0 6.2-3.3 8.7-7.7 8.7c-4.1 0-7.2-2.3-7.2-8.6c-.05-.01 0-11.9 0-11.9l2.6 0zm16.7 9.6c0-1.5 0-2.7-.1-3.9c-.02-.02 2.3 0 2.3 0l.2 2.4c0 0 .03-.02 0 0c.7-1.4 2.4-2.7 4.8-2.7c2 0 5.2 1.2 5.2 6.1c-.04.03 0 8.7 0 8.7l-2.7 0c0 0 .02-8.37 0-8.4c0-2.3-.9-4.3-3.3-4.3c-1.8 0-3.1 1.3-3.6 2.7c-.1.4-.2.8-.2 1.3c.04-.03 0 8.7 0 8.7l-2.6 0c0 0 0-10.59 0-10.6zm16.5 10.6c.1-1 .1-2.5.1-3.7c.05-.05 0-17.6 0-17.6l2.7 0l0 9.1c0 0 .02.02 0 0c.9-1.6 2.6-2.6 5-2.6c3.6 0 6.1 3 6.1 7.4c0 5.2-3.3 7.7-6.5 7.7c-2.1 0-3.8-.8-4.9-2.7c.02 0-.1 0-.1 0l-.1 2.4c0 0-2.27 0-2.3 0zm2.8-5.8c0 .3 0 .6.1.9c.5 1.9 2 3.1 3.9 3.1c2.8 0 4.4-2.2 4.4-5.5c0-3-1.5-5.4-4.3-5.4c-1.8 0-3.5 1.2-4 3.2c-.1.3-.1.7-.1 1.1c0 0 0 2.6 0 2.6zm14.4-15.5l2.7 0l0 21.3l-2.7 0l0-21.3zm20.2 13.9c0 5.4-3.7 7.7-7.2 7.7c-3.9 0-7-2.8-7-7.4c0-4.9 3.2-7.7 7.2-7.7c4.2 0 7 3 7 7.4zm-11.5.2c0 3.2 1.8 5.6 4.4 5.6c2.5 0 4.4-2.4 4.4-5.7c0-2.4-1.2-5.6-4.3-5.6c-3.1 0-4.5 2.9-4.5 5.7zm25.2 6.7c-.7.3-2.2.8-4.2.8c-4.3 0-7.2-3-7.2-7.4c0-4.5 3.1-7.7 7.8-7.7c1.6 0 3 .4 3.7.7c0 0-.6 2.1-.6 2.1c-.7-.4-1.6-.7-3.1-.7c-3.3 0-5.1 2.4-5.1 5.5c0 3.3 2.1 5.4 5 5.4c1.5 0 2.5-.4 3.3-.7c0 0 .4 2 .4 2zm5.7-7.4c0 0 .08.04.1 0c.3-.5.8-1.1 1.3-1.6c-.03-.01 4.2-5 4.2-5l3.2 0l-5.6 5.9l6.4 8.6l-3.2 0l-5-7l-1.4 1.5l0 5.5l-2.6 0l0-21.3l2.6 0l0 13.4zm20.5-12.3l0 20.2l-2.6 0l0-20.2l2.6 0zm8.4 2.2l-6.1 0l0-2.2l15 0l0 2.2l-6.2 0l0 18l-2.7 0l0-18zm24.4 17.3c-.9.5-2.9 1-5.3 1c-5.7 0-10-3.6-10-10.2c0-6.4 4.3-10.6 10.6-10.6c2.5 0 4.1.5 4.8.9c0 0-.7 2.1-.7 2.1c-1-.5-2.4-.9-4.1-.9c-4.7 0-7.8 3.1-7.8 8.4c0 4.9 2.8 8.1 7.7 8.1c1.6 0 3.2-.3 4.3-.8c0 0 .5 2 .5 2zm9.6.7l0-14.5l2.6 0l0 14.5l-2.6 0zm2.9-18.6c0 .9-.6 1.6-1.7 1.6c-.9 0-1.6-.7-1.6-1.6c0-.9.7-1.6 1.7-1.6c1 0 1.6.7 1.6 1.6zm3.7 15.9c.8.5 2.2 1.1 3.5 1.1c1.9 0 2.8-1 2.8-2.2c0-1.3-.7-2-2.7-2.7c-2.6-.9-3.8-2.3-3.8-4.1c0-2.3 1.9-4.2 5-4.2c1.5 0 2.8.4 3.6.9c0 0-.7 1.9-.7 1.9c-.6-.4-1.6-.9-3-.9c-1.5 0-2.4.9-2.4 2c0 1.2.9 1.8 2.8 2.5c2.5.9 3.8 2.2 3.8 4.4c0 2.5-2 4.3-5.5 4.3c-1.5 0-3-.4-4-1c0 0 .6-2 .6-2zm26.7 2.7l-.2-1.8c0 0-.13-.03-.1 0c-.8 1.1-2.4 2.1-4.5 2.1c-2.9 0-4.4-2-4.4-4.1c0-3.5 3.1-5.5 8.7-5.4c0 0 0-.3 0-.3c0-1.2-.3-3.4-3.3-3.4c-1.3 0-2.7.4-3.8 1.1c0 0-.6-1.8-.6-1.8c1.2-.7 3-1.2 4.8-1.2c4.4 0 5.5 3 5.5 5.9c0 0 0 5.4 0 5.4c0 1.3.1 2.5.3 3.5c-.03 0-2.4 0-2.4 0zm-.4-7.4c-2.9-.1-6.2.4-6.2 3.3c0 1.7 1.2 2.5 2.5 2.5c1.9 0 3.1-1.2 3.5-2.4c.1-.3.2-.6.2-.9c0 0 0-2.5 0-2.5zm25.3 3.4c0 1.5 0 2.9.1 4c.02 0-2.3 0-2.3 0l-.2-2.4c0 0-.03.03 0 0c-.7 1.2-2.3 2.7-4.8 2.7c-2.3 0-5-1.2-5-6.3c-.04-.03 0-8.5 0-8.5l2.6 0c0 0 0 8.02 0 8c0 2.8.8 4.6 3.2 4.6c1.8 0 3-1.2 3.5-2.4c.2-.4.3-.8.3-1.3c-.04-.01 0-8.9 0-8.9l2.6 0c0 0 0 10.54 0 10.5zm4.4-6.6c0-1.5-.1-2.7-.1-3.9c-.04-.02 2.3 0 2.3 0l.1 2.4c0 0 .11-.02.1 0c.7-1.4 2.4-2.7 4.8-2.7c2 0 5.1 1.2 5.1 6.1c.04.03 0 8.7 0 8.7l-2.6 0c0 0 0-8.37 0-8.4c0-2.3-.9-4.3-3.4-4.3c-1.7 0-3.1 1.3-3.5 2.7c-.1.4-.2.8-.2 1.3c.02-.03 0 8.7 0 8.7l-2.6 0c0 0-.02-10.59 0-10.6zm16.6 10.6l0-14.5l2.7 0l0 14.5l-2.7 0zm3-18.6c0 .9-.7 1.6-1.7 1.6c-.9 0-1.6-.7-1.6-1.6c0-.9.7-1.6 1.6-1.6c1 0 1.7.7 1.7 1.6zm13.9 16.4c0 0-.01-.05 0 0c-.8 1.4-2.4 2.5-4.8 2.5c-3.3 0-6.1-2.9-6.1-7.3c0-5.4 3.5-7.8 6.6-7.8c2.2 0 3.7 1.1 4.4 2.5c.04-.03.1 0 .1 0l.1-2.2c0 0 2.48-.02 2.5 0c-.1 1.2-.1 2.5-.1 4c-.01-.03 0 16.4 0 16.4l-2.7 0l0-8.1zm0-6.4c0-.4 0-.8-.1-1.1c-.4-1.7-1.8-3-3.8-3c-2.7 0-4.3 2.3-4.3 5.5c0 2.9 1.3 5.4 4.3 5.4c1.7 0 3.1-1 3.7-2.9c.2-.3.2-.8.2-1.2c0 0 0-2.7 0-2.7zm19.2 4.6c0 1.5 0 2.9.1 4c.01 0-2.3 0-2.3 0l-.2-2.4c0 0-.04.03 0 0c-.7 1.2-2.3 2.7-4.8 2.7c-2.3 0-5.1-1.2-5.1-6.3c.05-.03 0-8.5 0-8.5l2.7 0c0 0-.01 8.02 0 8c0 2.8.8 4.6 3.2 4.6c1.8 0 3-1.2 3.5-2.4c.2-.4.2-.8.2-1.3c.05-.01 0-8.9 0-8.9l2.7 0c0 0-.01 10.54 0 10.5zm5.8-2.8c.1 3.6 2.4 5.1 5 5.1c1.9 0 3-.4 4-.8c0 0 .5 1.9.5 1.9c-.9.4-2.5.9-4.8.9c-4.5 0-7.2-2.9-7.2-7.3c0-4.4 2.6-7.8 6.8-7.8c4.8 0 6 4.1 6 6.8c0 .5 0 1-.1 1.2c0 0-10.2 0-10.2 0zm7.8-1.9c0-1.6-.7-4.3-3.7-4.3c-2.7 0-3.8 2.5-4 4.3c0 0 7.7 0 7.7 0zm13.6 1.9c.1 3.6 2.4 5.1 5 5.1c1.9 0 3-.4 4-.8c0 0 .5 1.9.5 1.9c-1 .4-2.5.9-4.9.9c-4.4 0-7.1-2.9-7.1-7.3c0-4.4 2.6-7.8 6.8-7.8c4.8 0 6 4.1 6 6.8c0 .5 0 1-.1 1.2c0 0-10.2 0-10.2 0zm7.8-1.9c0-1.6-.7-4.3-3.7-4.3c-2.7 0-3.8 2.5-4 4.3c0 0 7.7 0 7.7 0zm5.8-1.9c0-1.5 0-2.7-.1-3.9c-.04-.02 2.3 0 2.3 0l.2 2.4c0 0 .01-.02 0 0c.7-1.4 2.4-2.7 4.8-2.7c2 0 5.1 1.2 5.1 6.1c.04.03 0 8.7 0 8.7l-2.6 0c0 0 0-8.37 0-8.4c0-2.3-.9-4.3-3.4-4.3c-1.7 0-3 1.3-3.5 2.7c-.1.4-.2.8-.2 1.3c.02-.03 0 8.7 0 8.7l-2.6 0c0 0-.02-10.59 0-10.6zm29.2-10.7c0 0-.03 17.55 0 17.6c0 1.2 0 2.7.1 3.7c-.01 0-2.4 0-2.4 0l-.1-2.5c0 0-.06-.02-.1 0c-.8 1.6-2.5 2.8-4.9 2.8c-3.5 0-6.2-2.9-6.2-7.3c0-4.9 3-7.8 6.5-7.8c2.2 0 3.7 1 4.4 2.2c-.03-.03 0 0 0 0l0-8.7l2.7 0zm-2.7 12.7c0-.3 0-.8-.1-1.1c-.4-1.7-1.8-3.1-3.8-3.1c-2.7 0-4.3 2.4-4.3 5.6c0 3 1.4 5.4 4.2 5.4c1.8 0 3.4-1.2 3.9-3.1c.1-.4.1-.8.1-1.2c0 0 0-2.5 0-2.5zm13.2-.5l0 2l-7.4 0l0-2l7.4 0zm6.2-9.6l0 4.2l3.8 0l0 2l-3.8 0c0 0 .04 7.82 0 7.8c0 1.8.6 2.8 2 2.8c.7 0 1.2 0 1.6-.1c0 0 .1 1.9.1 1.9c-.5.2-1.3.4-2.4.4c-1.2 0-2.2-.4-2.8-1.1c-.8-.8-1-2.1-1-3.8c-.04.01 0-7.9 0-7.9l-2.3 0l0-2l2.3 0l0-3.5l2.5-.7zm19.8 11.3c0 5.4-3.8 7.7-7.3 7.7c-3.9 0-6.9-2.8-6.9-7.4c0-4.9 3.1-7.7 7.2-7.7c4.1 0 7 3 7 7.4zm-11.6.2c0 3.2 1.9 5.6 4.4 5.6c2.6 0 4.5-2.4 4.5-5.7c0-2.4-1.3-5.6-4.4-5.6c-3.1 0-4.5 2.9-4.5 5.7zm21.5-1.9l0 2l-7.5 0l0-2l7.5 0zm5.1 2.3c0 3.6 2.3 5.1 4.9 5.1c1.9 0 3.1-.4 4.1-.8c0 0 .4 1.9.4 1.9c-.9.4-2.5.9-4.8.9c-4.5 0-7.2-2.9-7.2-7.3c0-4.4 2.6-7.8 6.8-7.8c4.8 0 6 4.1 6 6.8c0 .5 0 1 0 1.2c0 0-10.2 0-10.2 0zm7.7-1.9c0-1.6-.7-4.3-3.7-4.3c-2.6 0-3.8 2.5-4 4.3c0 0 7.7 0 7.7 0zm5.8-1.9c0-1.5 0-2.7-.1-3.9c-.01-.02 2.3 0 2.3 0l.2 2.4c0 0 .04-.02 0 0c.8-1.4 2.4-2.7 4.8-2.7c2.1 0 5.2 1.2 5.2 6.1c-.03.03 0 8.7 0 8.7l-2.7 0c0 0 .03-8.37 0-8.4c0-2.3-.8-4.3-3.3-4.3c-1.8 0-3.1 1.3-3.6 2.7c-.1.4-.1.8-.1 1.3c-.05-.03 0 8.7 0 8.7l-2.7 0c0 0 .01-10.59 0-10.6zm29.2-10.7c0 0 0 17.55 0 17.6c0 1.2 0 2.7.1 3.7c.02 0-2.3 0-2.3 0l-.2-2.5c0 0-.03-.02 0 0c-.8 1.6-2.6 2.8-5 2.8c-3.5 0-6.2-2.9-6.2-7.3c0-4.9 3-7.8 6.5-7.8c2.2 0 3.7 1 4.4 2.2c0-.03.1 0 .1 0l0-8.7l2.6 0zm-2.6 12.7c0-.3-.1-.8-.2-1.1c-.3-1.7-1.8-3.1-3.8-3.1c-2.7 0-4.3 2.4-4.3 5.6c0 3 1.4 5.4 4.3 5.4c1.7 0 3.4-1.2 3.8-3.1c.1-.4.2-.8.2-1.2c0 0 0-2.5 0-2.5zm13 5.9c.8.5 2.1 1.1 3.5 1.1c1.9 0 2.8-1 2.8-2.2c0-1.3-.8-2-2.7-2.7c-2.6-.9-3.9-2.3-3.9-4.1c0-2.3 1.9-4.2 5.1-4.2c1.4 0 2.7.4 3.5.9c0 0-.6 1.9-.6 1.9c-.6-.4-1.7-.9-3-.9c-1.6 0-2.4.9-2.4 2c0 1.2.8 1.8 2.7 2.5c2.5.9 3.8 2.2 3.8 4.4c0 2.5-1.9 4.3-5.4 4.3c-1.6 0-3.1-.4-4.1-1c0 0 .7-2 .7-2zm25.4-4.7c0 5.4-3.8 7.7-7.3 7.7c-3.9 0-6.9-2.8-6.9-7.4c0-4.9 3.2-7.7 7.2-7.7c4.1 0 7 3 7 7.4zm-11.6.2c0 3.2 1.9 5.6 4.5 5.6c2.5 0 4.4-2.4 4.4-5.7c0-2.4-1.3-5.6-4.4-5.6c-3.1 0-4.5 2.9-4.5 5.7zm14.9-14.1l2.6 0l0 21.3l-2.6 0l0-21.3zm19.2 17.3c0 1.5.1 2.9.1 4c.04 0-2.3 0-2.3 0l-.1-2.4c0 0-.11.03-.1 0c-.7 1.2-2.2 2.7-4.8 2.7c-2.3 0-5-1.2-5-6.3c-.02-.03 0-8.5 0-8.5l2.6 0c0 0 .02 8.02 0 8c0 2.8.9 4.6 3.3 4.6c1.7 0 3-1.2 3.4-2.4c.2-.4.3-.8.3-1.3c-.02-.01 0-8.9 0-8.9l2.6 0c0 0 .02 10.54 0 10.5zm7.6-14.7l0 4.2l3.8 0l0 2l-3.8 0c0 0-.02 7.82 0 7.8c0 1.8.5 2.8 2 2.8c.7 0 1.2 0 1.5-.1c0 0 .1 1.9.1 1.9c-.5.2-1.3.4-2.3.4c-1.3 0-2.2-.4-2.9-1.1c-.7-.8-1-2.1-1-3.8c0 .01 0-7.9 0-7.9l-2.2 0l0-2l2.2 0l0-3.5l2.6-.7zm6.7 18.7l0-14.5l2.7 0l0 14.5l-2.7 0zm3-18.6c0 .9-.7 1.6-1.7 1.6c-.9 0-1.6-.7-1.6-1.6c0-.9.7-1.6 1.7-1.6c.9 0 1.6.7 1.6 1.6zm17.2 11.2c0 5.4-3.7 7.7-7.2 7.7c-4 0-7-2.8-7-7.4c0-4.9 3.2-7.7 7.2-7.7c4.2 0 7 3 7 7.4zm-11.5.2c0 3.2 1.8 5.6 4.4 5.6c2.5 0 4.4-2.4 4.4-5.7c0-2.4-1.2-5.6-4.4-5.6c-3.1 0-4.4 2.9-4.4 5.7zm14.8-3.4c0-1.5 0-2.7-.1-3.9c0-.02 2.3 0 2.3 0l.2 2.4c0 0 .05-.02.1 0c.7-1.4 2.4-2.7 4.8-2.7c2 0 5.1 1.2 5.1 6.1c-.02.03 0 8.7 0 8.7l-2.7 0c0 0 .04-8.37 0-8.4c0-2.3-.8-4.3-3.3-4.3c-1.8 0-3.1 1.3-3.6 2.7c-.1.4-.1.8-.1 1.3c-.04-.03 0 8.7 0 8.7l-2.7 0c0 0 .02-10.59 0-10.6z" stroke="none" fill="#3c3c3b"/></g></svg>