<?xml version="1.0" standalone="no"?><!DOCTYPE svg PUBLIC "-//W3C//DTD SVG 1.1//EN" "http://www.w3.org/Graphics/SVG/1.1/DTD/svg11.dtd"><svg xmlns="http://www.w3.org/2000/svg" version="1.1" width="239px" height="114px" viewBox="0 -10 239 114" style="top:-10px"><desc>What’s in it for you?</desc><defs/><g id="Polygon9468"><path d="m52.9 75l0-15.8l-2.6 0l0-3.7l2.6 0c0 0 .05-.82 0-.8c0-2.5.7-5.1 2.4-6.7c1.4-1.3 3.4-1.8 5.1-1.8c1.3 0 2.3.2 3.1.4c0 0-.3 3.8-.3 3.8c-.5-.2-1.2-.3-2.1-.3c-2.4 0-3.3 2-3.3 4.4c.03.02 0 1 0 1l4.3 0l0 3.7l-4.2 0l0 15.8l-5 0zm30.3-9.9c0 7.1-5 10.3-10 10.3c-5.5 0-9.7-3.8-9.7-10c0-6.4 4.2-10.3 10-10.3c5.8 0 9.7 4.1 9.7 10zm-14.7.2c0 3.7 1.9 6.6 4.9 6.6c2.8 0 4.7-2.8 4.7-6.7c0-3-1.3-6.5-4.7-6.5c-3.5 0-4.9 3.3-4.9 6.6zm18.8-3.5c0-2.6-.1-4.5-.2-6.3c.01.02 4.3 0 4.3 0l.1 3.7c0 0 .21.04.2 0c1-2.7 3.2-4.1 5.3-4.1c.5 0 .8 0 1.2.1c0 0 0 4.6 0 4.6c-.4 0-.9-.1-1.5-.1c-2.3 0-3.9 1.5-4.4 3.7c0 .4-.1 1-.1 1.5c-.01.02 0 10.1 0 10.1l-4.9 0c0 0-.03-13.2 0-13.2zm25.6-6.3c0 0 3.49 10.46 3.5 10.5c.4 1.2.8 2.6 1.1 3.8c0 0 .1 0 .1 0c.3-1.2.7-2.6 1-3.9c.03.02 3.1-10.4 3.1-10.4l5.2 0c0 0-4.83 13.3-4.8 13.3c-2.7 7.3-4.5 10.5-6.8 12.5c-2 1.7-4 2.4-5.2 2.5c0 0-1.1-4.1-1.1-4.1c.8-.2 1.9-.7 2.9-1.4c.9-.6 2-1.7 2.6-3.1c.2-.3.4-.6.4-.8c0-.2-.1-.5-.3-1c-.01 0-7.1-17.9-7.1-17.9l5.4 0zm34.9 9.6c0 7.1-5.1 10.3-10 10.3c-5.5 0-9.8-3.8-9.8-10c0-6.4 4.2-10.3 10.1-10.3c5.8 0 9.7 4.1 9.7 10zm-14.7.2c0 3.7 1.8 6.6 4.8 6.6c2.8 0 4.8-2.8 4.8-6.7c0-3-1.4-6.5-4.7-6.5c-3.5 0-4.9 3.3-4.9 6.6zm36.2 3.9c0 2.3 0 4.2.1 5.8c.03 0-4.3 0-4.3 0l-.2-3c0 0-.11.04-.1 0c-.9 1.4-2.8 3.4-6.3 3.4c-3.5 0-6.8-2.1-6.8-8.4c.05-.04 0-11.5 0-11.5l5 0c0 0-.03 10.62 0 10.6c0 3.3 1 5.3 3.6 5.3c2 0 3.2-1.4 3.8-2.6c.1-.4.2-1 .2-1.5c.05-.02 0-11.8 0-11.8l5 0c0 0-.03 13.66 0 13.7zm8.2-2.4c0 0-.03-1.08 0-1.1c-.2-2.1.5-4.3 2.4-6.5c1.5-1.8 2.5-3.2 2.5-4.8c0-1.7-1.1-2.8-3.3-2.8c-1.4 0-3 .4-4 1.2c0 0-1.2-3.6-1.2-3.6c1.4-.9 3.8-1.6 6.3-1.6c4.9 0 7.2 2.9 7.2 6.1c0 2.9-1.7 4.9-3.5 6.8c-1.5 1.9-2.2 3.5-2.1 5.4c.03.02.1.9.1.9l-4.4 0zm-1 5.5c0-1.8 1.3-3.1 3.1-3.1c1.8 0 3 1.3 3 3.1c0 1.8-1.2 3.1-3 3.1c-1.8 0-3.1-1.3-3.1-3.1z" stroke="none" fill="#fff"/></g><g id="Polygon9467"><path d="m32.2 30l-6.6-27l5.2 0c0 0 2.57 12.28 2.6 12.3c.6 3.3 1.3 6.7 1.7 9.4c0 0 .1 0 .1 0c.4-2.9 1.2-6.1 2-9.5c-.03.04 2.9-12.2 2.9-12.2l5.1 0c0 0 2.73 12.44 2.7 12.4c.7 3.2 1.3 6.2 1.7 9.2c0 0 0 0 0 0c.5-3 1.2-6.1 1.9-9.4c-.01.04 2.8-12.2 2.8-12.2l5 0l-7.3 27l-5.2 0c0 0-2.83-12.68-2.8-12.7c-.7-3.1-1.2-5.6-1.5-8.5c0 0-.1 0-.1 0c-.5 2.8-1 5.4-1.8 8.5c.01.02-3.1 12.7-3.1 12.7l-5.3 0zm29.9-28.4l4.9 0l0 11.6c0 0 .13 0 .1 0c.6-.9 1.4-1.7 2.5-2.2c.9-.6 2.1-.9 3.3-.9c3.3 0 6.8 2.2 6.8 8.4c.03.02 0 11.5 0 11.5l-4.9 0c0 0 .01-10.92 0-10.9c0-2.9-1-5-3.8-5c-1.9 0-3.2 1.3-3.8 2.8c-.1.4-.2.9-.2 1.5c.05-.04 0 11.6 0 11.6l-4.9 0l0-28.4zm33.8 28.4l-.3-2.2c0 0-.11.04-.1 0c-1.2 1.6-3.3 2.6-5.8 2.6c-3.9 0-6.1-2.8-6.1-5.8c0-4.9 4.4-7.4 11.6-7.3c0 0 0-.3 0-.3c0-1.3-.6-3.4-4-3.4c-1.9 0-3.9.6-5.2 1.4c0 0-1-3.2-1-3.2c1.4-.9 4-1.7 7-1.7c6.3 0 8.1 3.9 8.1 8.2c0 0 0 7 0 7c0 1.8.1 3.5.3 4.7c-.03 0-4.5 0-4.5 0zm-.6-9.5c-3.5-.1-6.8.7-6.8 3.6c0 1.9 1.2 2.8 2.8 2.8c1.9 0 3.4-1.3 3.8-2.7c.1-.3.2-.7.2-1c0 0 0-2.7 0-2.7zm15.4-15.5l0 5.5l4.7 0l0 3.7l-4.7 0c0 0-.01 8.6 0 8.6c0 2.4.6 3.6 2.5 3.6c.8 0 1.5-.1 1.9-.2c0 0 .1 3.7.1 3.7c-.7.3-2 .5-3.6.5c-1.8 0-3.3-.6-4.2-1.6c-1-1.1-1.5-2.9-1.5-5.4c-.01-.04 0-9.2 0-9.2l-2.8 0l0-3.7l2.8 0l0-4.4l4.8-1.1zm14.9-2.4c-1.1 3.6-2.8 7.8-4.3 10.2c0 0-3 .3-3 .3c1-2.9 2.1-6.9 2.5-10.1c0 0 4.8-.4 4.8-.4zm0 22.9c1.1.7 3.2 1.4 5 1.4c2.2 0 3.1-.9 3.1-2.2c0-1.3-.8-2-3.2-2.8c-3.8-1.3-5.4-3.4-5.3-5.7c0-3.4 2.8-6.1 7.3-6.1c2.2 0 4.1.5 5.2 1.1c0 0-1 3.5-1 3.5c-.8-.5-2.4-1.1-4.1-1.1c-1.8 0-2.7.8-2.7 2c0 1.3.9 1.9 3.4 2.8c3.5 1.2 5.1 3 5.2 5.9c0 3.5-2.8 6.1-7.9 6.1c-2.4 0-4.5-.6-6-1.4c0 0 1-3.5 1-3.5zm25.2 4.5l0-19.5l5 0l0 19.5l-5 0zm5.2-24.9c0 1.5-1 2.6-2.8 2.6c-1.6 0-2.7-1.1-2.7-2.6c0-1.5 1.1-2.7 2.8-2.7c1.7 0 2.7 1.2 2.7 2.7zm5 11.2c0-2.2 0-4.1-.1-5.8c-.01.02 4.3 0 4.3 0l.2 2.9c0 0 .17.04.2 0c.8-1.5 2.9-3.3 6.2-3.3c3.4 0 6.9 2.2 6.9 8.3c-.01.04 0 11.6 0 11.6l-4.9 0c0 0-.03-11 0-11c0-2.8-1.1-4.9-3.8-4.9c-1.9 0-3.3 1.4-3.8 2.9c-.2.4-.2 1-.2 1.6c.01-.04 0 11.4 0 11.4l-5 0c0 0 .05-13.68 0-13.7zm31.2 13.7l0-19.5l5 0l0 19.5l-5 0zm5.2-24.9c0 1.5-1 2.6-2.8 2.6c-1.6 0-2.7-1.1-2.7-2.6c0-1.5 1.1-2.7 2.8-2.7c1.7 0 2.7 1.2 2.7 2.7zm10.7-.1l0 5.5l4.7 0l0 3.7l-4.7 0c0 0-.01 8.6 0 8.6c0 2.4.6 3.6 2.5 3.6c.8 0 1.5-.1 1.9-.2c0 0 .1 3.7.1 3.7c-.7.3-2 .5-3.6.5c-1.8 0-3.3-.6-4.2-1.6c-1-1.1-1.5-2.9-1.5-5.4c-.01-.04 0-9.2 0-9.2l-2.8 0l0-3.7l2.8 0l0-4.4l4.8-1.1z" stroke="none" fill="#fff"/></g></svg>