<?xml version="1.0" standalone="no"?><!DOCTYPE svg PUBLIC "-//W3C//DTD SVG 1.1//EN" "http://www.w3.org/Graphics/SVG/1.1/DTD/svg11.dtd"><svg xmlns="http://www.w3.org/2000/svg" version="1.1" width="226px" height="38px" viewBox="0 -7 226 38" style="top:-7px"><desc>ITC reclaimed</desc><defs/><g id="Polygon8083"><path d="m46.1 1.8l0 16.2l-3.7 0l0-16.2l3.7 0zm6.3 3.1l-4.4 0l0-3.1l12.5 0l0 3.1l-4.4 0l0 13.1l-3.7 0l0-13.1zm21.2 12.6c-.7.4-2.2.7-4.1.7c-5.6 0-8.5-3.4-8.5-8c0-5.6 3.9-8.6 8.8-8.6c1.9 0 3.3.3 4 .7c0 0-.7 2.9-.7 2.9c-.8-.3-1.8-.6-3.1-.6c-2.9 0-5.2 1.7-5.2 5.3c0 3.3 1.9 5.3 5.2 5.3c1.1 0 2.3-.2 3.1-.5c0 0 .5 2.8.5 2.8zm7.1-7.4c0-1.7 0-2.8-.1-3.8c.04-.04 3.2 0 3.2 0l.1 2.1c0 0 .1.02.1 0c.6-1.7 2-2.4 3.2-2.4c.3 0 .5 0 .7 0c0 0 0 3.5 0 3.5c-.2-.1-.5-.1-1-.1c-1.3 0-2.2.7-2.4 1.8c-.1.3-.1.6-.1.8c-.02.05 0 6 0 6l-3.7 0c0 0 .03-7.87 0-7.9zm11.8 3.2c.1 1.5 1.6 2.2 3.3 2.2c1.2 0 2.2-.1 3.2-.5c0 0 .5 2.5.5 2.5c-1.2.5-2.7.7-4.2.7c-4 0-6.3-2.3-6.3-5.9c0-3 1.8-6.3 5.9-6.3c3.8 0 5.2 3 5.2 5.9c0 .6 0 1.1-.1 1.4c0 0-7.5 0-7.5 0zm4.3-2.5c0-.9-.4-2.4-2.1-2.4c-1.5 0-2.2 1.4-2.3 2.4c0 0 4.4 0 4.4 0zm14.3 6.9c-.6.3-1.8.5-3.2.5c-3.8 0-6.2-2.3-6.2-6c0-3.4 2.3-6.2 6.7-6.2c.9 0 2 .2 2.8.5c0 0-.6 2.7-.6 2.7c-.4-.2-1.1-.4-2.1-.4c-1.9 0-3.1 1.4-3.1 3.3c0 2.2 1.4 3.3 3.2 3.3c.9 0 1.6-.2 2.1-.4c0 0 .4 2.7.4 2.7zm2.1-16.7l3.6 0l0 17l-3.6 0l0-17zm13.2 17l-.2-1.2c0 0-.06.02-.1 0c-.7 1-1.9 1.5-3.3 1.5c-2.4 0-3.8-1.8-3.8-3.6c0-3.1 2.7-4.5 6.9-4.5c0 0 0-.2 0-.2c0-.6-.4-1.5-2.2-1.5c-1.2 0-2.4.4-3.2.9c0 0-.7-2.4-.7-2.4c.8-.4 2.5-1 4.6-1c3.9 0 5.1 2.3 5.1 5.1c0 0 0 4 0 4c0 1.2.1 2.3.2 2.9c.02 0-3.3 0-3.3 0zm-.4-5.5c-1.9-.1-3.4.4-3.4 1.8c0 .9.6 1.4 1.4 1.4c.9 0 1.7-.6 1.9-1.3c.1-.2.1-.5.1-.7c0 0 0-1.2 0-1.2zm6.4 5.5l0-11.7l3.7 0l0 11.7l-3.7 0zm3.8-15c0 1-.8 1.8-2 1.8c-1.1 0-1.9-.8-1.9-1.8c0-1.1.8-1.8 2-1.8c1.1 0 1.9.7 1.9 1.8zm2.8 7c0-1.5 0-2.7-.1-3.7c.01-.04 3.1 0 3.1 0l.1 1.5c0 0 .12.05.1 0c.5-.7 1.6-1.8 3.6-1.8c1.5 0 2.7.8 3.2 2c0 0 0 0 0 0c.5-.6 1-1.1 1.5-1.4c.7-.4 1.4-.6 2.3-.6c2.2 0 3.9 1.6 3.9 5.1c.04-.01 0 6.9 0 6.9l-3.5 0c0 0-.01-6.38 0-6.4c0-1.7-.6-2.7-1.7-2.7c-.9 0-1.5.6-1.7 1.3c-.1.3-.2.6-.2.9c.04.04 0 6.9 0 6.9l-3.5 0c0 0-.02-6.58 0-6.6c0-1.5-.5-2.5-1.7-2.5c-.9 0-1.5.7-1.7 1.3c-.1.3-.1.7-.1 1c-.04-.04 0 6.8 0 6.8l-3.6 0c0 0 0-7.99 0-8zm23.5 3.3c.1 1.5 1.6 2.2 3.3 2.2c1.2 0 2.2-.1 3.2-.5c0 0 .5 2.5.5 2.5c-1.2.5-2.7.7-4.3.7c-3.9 0-6.2-2.3-6.2-5.9c0-3 1.8-6.3 5.9-6.3c3.8 0 5.2 3 5.2 5.9c0 .6 0 1.1-.1 1.4c0 0-7.5 0-7.5 0zm4.2-2.5c0-.9-.3-2.4-2-2.4c-1.6 0-2.2 1.4-2.3 2.4c0 0 4.3 0 4.3 0zm17-9.8c0 0-.01 13.5 0 13.5c0 1.3 0 2.7.1 3.5c-.01 0-3.3 0-3.3 0l-.1-1.7c0 0-.07-.03-.1 0c-.7 1.3-2.1 2-3.6 2c-2.8 0-5.1-2.4-5.1-6.1c0-3.9 2.5-6.2 5.3-6.2c1.4 0 2.6.5 3.1 1.3c0 .02 0 0 0 0l0-6.3l3.7 0zm-3.7 10.2c0-.2 0-.4 0-.6c-.2-1-1-1.8-2.1-1.8c-1.7 0-2.6 1.5-2.6 3.3c0 2 1 3.3 2.5 3.3c1.1 0 1.9-.8 2.1-1.8c.1-.3.1-.5.1-.8c0 0 0-1.6 0-1.6z" stroke="none" fill="#15345e"/></g></svg>