<?xml version="1.0" standalone="no"?><!DOCTYPE svg PUBLIC "-//W3C//DTD SVG 1.1//EN" "http://www.w3.org/Graphics/SVG/1.1/DTD/svg11.dtd"><svg xmlns="http://www.w3.org/2000/svg" version="1.1" width="276.2px" height="260px" viewBox="0 -6 276.2 260" style="top:-6px"><desc>Two-way communication between ERP &amp; portal Robust reconciliation engine Automated notifications for mismatches/invoic...</desc><defs/><g id="Polygon7746"><path d="m26.8 232.6c0-1.1-.1-2.1-.1-3.1c-.04.01 1.8 0 1.8 0l.1 1.9c0 0 .1.03.1 0c.6-1.1 1.9-2.2 3.8-2.2c1.6 0 4.1 1 4.1 5c.04-.01 0 6.9 0 6.9l-2.1 0c0 0 .03-6.67 0-6.7c0-1.8-.7-3.4-2.7-3.4c-1.4 0-2.4 1-2.8 2.2c-.1.2-.1.6-.1.9c-.04.04 0 7 0 7l-2.1 0c0 0-.05-8.45 0-8.5zm23.8 2.6c0 4.3-3 6.2-5.8 6.2c-3.1 0-5.6-2.3-5.6-6c0-3.9 2.6-6.2 5.8-6.2c3.3 0 5.6 2.5 5.6 6zm-9.2.1c0 2.6 1.4 4.5 3.5 4.5c2 0 3.5-1.9 3.5-4.5c0-2-1-4.5-3.5-4.5c-2.5 0-3.5 2.3-3.5 4.5zm14.4-9.1l0 3.3l3 0l0 1.6l-3 0c0 0-.01 6.28 0 6.3c0 1.4.4 2.2 1.6 2.2c.5 0 .9 0 1.2-.1c0 0 .1 1.6.1 1.6c-.4.1-1.1.3-1.9.3c-1 0-1.8-.3-2.3-.9c-.6-.6-.8-1.7-.8-3c.03-.05 0-6.4 0-6.4l-1.8 0l0-1.6l1.8 0l0-2.8l2.1-.5zm10.5 6.9c0-1.3 0-2.5-.1-3.6c-.02.01 1.8 0 1.8 0l.1 2.3c0 0 .1-.01.1 0c.5-1.6 1.8-2.6 3.2-2.6c.3 0 .4.1.6.1c0 0 0 2 0 2c-.2 0-.4-.1-.7-.1c-1.5 0-2.5 1.2-2.8 2.7c-.1.3-.1.7-.1 1c-.03.03 0 6.2 0 6.2l-2.1 0c0 0-.02-7.97 0-8zm8.8 2.6c0 2.9 1.8 4 3.9 4c1.6 0 2.5-.2 3.3-.6c0 0 .3 1.5.3 1.5c-.7.4-2 .8-3.8.8c-3.6 0-5.8-2.4-5.8-5.9c0-3.5 2.1-6.3 5.5-6.3c3.8 0 4.8 3.4 4.8 5.5c0 .4-.1.8-.1 1c0 0-8.1 0-8.1 0zm6.2-1.5c0-1.4-.6-3.4-3-3.4c-2.1 0-3 1.9-3.2 3.4c0 0 6.2 0 6.2 0zm4.6-.9c0-1.5 0-2.7-.1-3.8c.02.01 1.9 0 1.9 0l.1 2c0 0 .06 0 .1 0c.8-1.4 2.2-2.3 4.1-2.3c2.8 0 4.9 2.4 4.9 5.9c0 4.2-2.5 6.3-5.3 6.3c-1.5 0-2.9-.7-3.6-1.8c.05-.04 0 0 0 0l0 6.3l-2.1 0c0 0 .01-12.6 0-12.6zm2.1 3.1c0 .3 0 .6.1.9c.4 1.4 1.7 2.4 3.2 2.4c2.2 0 3.5-1.8 3.5-4.5c0-2.3-1.2-4.3-3.5-4.3c-1.4 0-2.7 1.1-3.2 2.6c0 .3-.1.6-.1.9c0 0 0 2 0 2zm22.1-1.2c0 4.3-3 6.2-5.8 6.2c-3.1 0-5.6-2.3-5.6-6c0-3.9 2.6-6.2 5.8-6.2c3.3 0 5.6 2.5 5.6 6zm-9.2.1c0 2.6 1.4 4.5 3.5 4.5c2 0 3.5-1.9 3.5-4.5c0-2-1-4.5-3.5-4.5c-2.5 0-3.5 2.3-3.5 4.5zm11.8-2.2c0-1.3 0-2.5-.1-3.6c.05.01 1.9 0 1.9 0l.1 2.3c0 0 .06-.01.1 0c.5-1.6 1.8-2.6 3.2-2.6c.2 0 .4.1.6.1c0 0 0 2 0 2c-.2 0-.5-.1-.7-.1c-1.5 0-2.6 1.2-2.9 2.7c0 .3-.1.7-.1 1c.03.03 0 6.2 0 6.2l-2.1 0c0 0 .04-7.97 0-8zm11-6.9l0 3.3l3 0l0 1.6l-3 0c0 0 .01 6.28 0 6.3c0 1.4.4 2.2 1.6 2.2c.5 0 1 0 1.2-.1c0 0 .1 1.6.1 1.6c-.4.1-1 .3-1.9.3c-.9 0-1.7-.3-2.2-.9c-.6-.6-.9-1.7-.9-3c.05-.05 0-6.4 0-6.4l-1.8 0l0-1.6l1.8 0l0-2.8l2.1-.5zm6.4 9.5c.1 2.9 1.9 4 4 4c1.5 0 2.5-.2 3.2-.6c0 0 .4 1.5.4 1.5c-.7.4-2 .8-3.9.8c-3.5 0-5.7-2.4-5.7-5.9c0-3.5 2.1-6.3 5.5-6.3c3.8 0 4.8 3.4 4.8 5.5c0 .4-.1.8-.1 1c0 0-8.2 0-8.2 0zm6.2-1.5c.1-1.4-.5-3.4-2.9-3.4c-2.1 0-3.1 1.9-3.2 3.4c0 0 6.1 0 6.1 0zm14.7-10.1c0 0 .02 14.02 0 14c0 1.1 0 2.2.1 3c.02.02-1.9 0-1.9 0l-.1-2c0 0-.02.01 0 0c-.7 1.3-2.1 2.3-4 2.3c-2.8 0-4.9-2.4-4.9-5.9c-.1-3.9 2.3-6.3 5.2-6.3c1.7 0 2.9.9 3.5 1.8c-.04.02 0 0 0 0l0-6.9l2.1 0zm-2.1 10.1c0-.2 0-.6-.1-.9c-.3-1.3-1.4-2.4-3-2.4c-2.2 0-3.5 1.9-3.5 4.5c0 2.3 1.1 4.3 3.4 4.3c1.4 0 2.7-1 3.1-2.5c.1-.3.1-.6.1-1c0 0 0-2 0-2z" stroke="none" fill="#3c3c3b"/></g><g id="Polygon7745"><path d="m27 206.1l0-10l-1.7 0l0-1.6l1.7 0c0 0-.03-.55 0-.5c0-1.7.3-3.2 1.3-4.1c.8-.8 1.9-1.1 2.8-1.1c.8 0 1.4.2 1.8.4c0 0-.2 1.6-.2 1.6c-.4-.2-.8-.3-1.4-.3c-1.8 0-2.2 1.6-2.2 3.4c-.04-.02 0 .6 0 .6l2.8 0l0 1.6l-2.8 0l0 10l-2.1 0zm17-5.9c0 4.3-3 6.2-5.8 6.2c-3.2 0-5.6-2.3-5.6-6c0-3.9 2.6-6.2 5.8-6.2c3.3 0 5.6 2.5 5.6 6zm-9.3.1c0 2.6 1.5 4.5 3.6 4.5c2 0 3.5-1.9 3.5-4.5c0-2-1-4.5-3.5-4.5c-2.5 0-3.6 2.3-3.6 4.5zm11.9-2.2c0-1.3 0-2.5-.1-3.6c.03.01 1.9 0 1.9 0l0 2.3c0 0 .14-.01.1 0c.6-1.6 1.8-2.6 3.3-2.6c.2 0 .4.1.6.1c0 0 0 2 0 2c-.3 0-.5-.1-.8-.1c-1.4 0-2.5 1.2-2.8 2.7c0 .3-.1.7-.1 1c.01.03 0 6.2 0 6.2l-2.1 0c0 0 .02-7.97 0-8zm13-.5c0-1.1-.1-2.1-.1-3.1c-.04.01 1.8 0 1.8 0l.1 1.9c0 0 .08-.02.1 0c.6-1.1 1.7-2.2 3.6-2.2c1.6 0 2.8 1 3.3 2.4c0 0 .1 0 .1 0c.3-.7.8-1.2 1.3-1.5c.7-.6 1.4-.9 2.5-.9c1.6 0 3.8 1.1 3.8 5.1c.04-.02 0 6.8 0 6.8l-2 0c0 0-.02-6.55 0-6.6c0-2.2-.8-3.5-2.5-3.5c-1.2 0-2.2.9-2.5 1.9c-.1.3-.2.7-.2 1c0 .05 0 7.2 0 7.2l-2.1 0c0 0 .03-6.94 0-6.9c0-1.9-.8-3.2-2.4-3.2c-1.3 0-2.3 1-2.6 2.1c-.1.3-.2.7-.2 1c.02.01 0 7 0 7l-2 0c0 0-.04-8.45 0-8.5zm20 8.5l0-11.6l2.1 0l0 11.6l-2.1 0zm2.3-14.9c.1.8-.5 1.3-1.3 1.3c-.8 0-1.3-.5-1.3-1.3c0-.7.6-1.3 1.3-1.3c.8 0 1.3.6 1.3 1.3zm3 12.8c.6.4 1.7.8 2.8.8c1.5 0 2.2-.8 2.2-1.7c0-1-.6-1.6-2.1-2.2c-2.1-.7-3.1-1.9-3.1-3.3c0-1.8 1.5-3.4 4-3.4c1.2 0 2.2.4 2.9.8c0 0-.6 1.5-.6 1.5c-.4-.3-1.2-.7-2.3-.7c-1.3 0-2 .7-2 1.6c0 1 .7 1.4 2.2 2c2.1.7 3.1 1.8 3.1 3.5c0 2-1.6 3.5-4.4 3.5c-1.2 0-2.4-.3-3.2-.8c0 0 .5-1.6.5-1.6zm9.8-6.4c0-1.1 0-2.1-.1-3.1c0 .01 1.8 0 1.8 0l.1 1.9c0 0 .12-.02.1 0c.7-1.1 1.7-2.2 3.7-2.2c1.5 0 2.7 1 3.3 2.4c0 0 0 0 0 0c.4-.7.8-1.2 1.3-1.5c.7-.6 1.5-.9 2.6-.9c1.5 0 3.8 1.1 3.8 5.1c-.02-.02 0 6.8 0 6.8l-2.1 0c0 0 .02-6.55 0-6.6c0-2.2-.8-3.5-2.5-3.5c-1.2 0-2.1.9-2.5 1.9c-.1.3-.2.7-.2 1c.03.05 0 7.2 0 7.2l-2 0c0 0-.03-6.94 0-6.9c0-1.9-.8-3.2-2.5-3.2c-1.3 0-2.2 1-2.6 2.1c-.1.3-.1.7-.1 1c-.04.01 0 7 0 7l-2.1 0c0 0 0-8.45 0-8.5zm26.4 8.5l-.1-1.4c0 0-.1-.04-.1 0c-.6.9-1.9 1.7-3.5 1.7c-2.4 0-3.6-1.7-3.6-3.4c0-2.8 2.5-4.3 7-4.3c0 0 0-.2 0-.2c0-1-.3-2.7-2.7-2.7c-1 0-2.2.3-3 .9c0 0-.5-1.4-.5-1.4c1-.7 2.4-1.1 3.9-1.1c3.5 0 4.4 2.5 4.4 4.8c0 0 0 4.3 0 4.3c0 1 0 2 .2 2.8c-.04.02-2 0-2 0zm-.3-5.9c-2.3-.1-4.9.4-4.9 2.6c0 1.4.9 2 2 2c1.5 0 2.5-.9 2.8-1.9c.1-.2.1-.5.1-.7c0 0 0-2 0-2zm7.9-9l0 3.3l3.1 0l0 1.6l-3.1 0c0 0 .03 6.28 0 6.3c0 1.4.4 2.2 1.6 2.2c.6 0 1 0 1.2-.1c0 0 .1 1.6.1 1.6c-.4.1-1 .3-1.8.3c-1 0-1.8-.3-2.3-.9c-.6-.6-.8-1.7-.8-3c-.04-.05 0-6.4 0-6.4l-1.8 0l0-1.6l1.8 0l0-2.8l2-.5zm13.6 14.5c-.6.3-1.8.7-3.4.7c-3.5 0-5.8-2.4-5.8-6c0-3.5 2.5-6.1 6.3-6.1c1.2 0 2.3.3 2.9.6c0 0-.5 1.6-.5 1.6c-.5-.3-1.3-.6-2.4-.6c-2.7 0-4.1 2-4.1 4.4c0 2.7 1.7 4.4 4 4.4c1.2 0 2-.3 2.6-.6c0 0 .4 1.6.4 1.6zm2.4-16.6l2.1 0l0 7.2c0 0 .1.03.1 0c.3-.6.9-1.1 1.5-1.5c.6-.3 1.4-.6 2.2-.6c1.5 0 4 1 4 5c.02.01 0 6.9 0 6.9l-2.1 0c0 0 .01-6.65 0-6.6c0-1.9-.7-3.5-2.7-3.5c-1.3 0-2.4 1-2.8 2.1c-.1.3-.2.6-.2 1c.05.01 0 7 0 7l-2.1 0l0-17zm14.5 11.6c.1 2.9 1.9 4 4 4c1.5 0 2.4-.2 3.2-.6c0 0 .4 1.5.4 1.5c-.8.4-2 .8-3.9.8c-3.5 0-5.7-2.4-5.7-5.9c0-3.5 2.1-6.3 5.5-6.3c3.8 0 4.8 3.4 4.8 5.5c0 .4-.1.8-.1 1c0 0-8.2 0-8.2 0zm6.2-1.5c0-1.4-.5-3.4-2.9-3.4c-2.1 0-3.1 1.9-3.2 3.4c0 0 6.1 0 6.1 0zm4.4 4.8c.6.4 1.7.8 2.8.8c1.5 0 2.2-.8 2.2-1.7c0-1-.6-1.6-2.1-2.2c-2.1-.7-3.1-1.9-3.1-3.3c0-1.8 1.5-3.4 4-3.4c1.2 0 2.2.4 2.9.8c0 0-.6 1.5-.6 1.5c-.4-.3-1.3-.7-2.3-.7c-1.3 0-2 .7-2 1.6c0 1 .7 1.4 2.2 2c2 .7 3.1 1.8 3.1 3.5c0 2-1.6 3.5-4.4 3.5c-1.2 0-2.4-.3-3.2-.8c0 0 .5-1.6.5-1.6zm8 3.1l6.7-17.4l1.6 0l-6.7 17.4l-1.6 0zm10-1l0-11.6l2.1 0l0 11.6l-2.1 0zm2.4-14.9c0 .8-.5 1.3-1.4 1.3c-.7 0-1.2-.5-1.2-1.3c0-.7.5-1.3 1.3-1.3c.8 0 1.3.6 1.3 1.3zm3.2 6.4c0-1.1 0-2.1-.1-3.1c.03.01 1.9 0 1.9 0l.1 1.9c0 0 .07.03.1 0c.6-1.1 1.9-2.2 3.8-2.2c1.6 0 4.1 1 4.1 5c.02-.01 0 6.9 0 6.9l-2.1 0c0 0 .01-6.67 0-6.7c0-1.8-.7-3.4-2.7-3.4c-1.4 0-2.5 1-2.8 2.2c-.1.2-.2.6-.2.9c.04.04 0 7 0 7l-2.1 0c0 0 .03-8.45 0-8.5zm13.9-3.1c0 0 2.23 6.53 2.2 6.5c.4 1.1.7 2 1 3c0 0 0 0 0 0c.3-1 .6-1.9 1-3c.03.03 2.3-6.5 2.3-6.5l2.2 0l-4.6 11.6l-2 0l-4.4-11.6l2.3 0zm21 5.7c0 4.3-3 6.2-5.8 6.2c-3.2 0-5.6-2.3-5.6-6c0-3.9 2.5-6.2 5.8-6.2c3.3 0 5.6 2.5 5.6 6zm-9.3.1c0 2.6 1.5 4.5 3.6 4.5c2 0 3.5-1.9 3.5-4.5c0-2-1-4.5-3.5-4.5c-2.5 0-3.6 2.3-3.6 4.5zm11.9 5.8l0-11.6l2.1 0l0 11.6l-2.1 0zm2.4-14.9c0 .8-.5 1.3-1.4 1.3c-.7 0-1.2-.5-1.2-1.3c0-.7.5-1.3 1.3-1.3c.8 0 1.3.6 1.3 1.3zm11.5 14.5c-.5.3-1.8.7-3.3.7c-3.5 0-5.8-2.4-5.8-6c0-3.5 2.4-6.1 6.2-6.1c1.3 0 2.4.3 3 .6c0 0-.5 1.6-.5 1.6c-.5-.3-1.3-.6-2.5-.6c-2.6 0-4.1 2-4.1 4.4c0 2.7 1.8 4.4 4.1 4.4c1.2 0 2-.3 2.6-.6c0 0 .3 1.6.3 1.6zm3.5-5c.1 2.9 1.9 4 4 4c1.5 0 2.4-.2 3.2-.6c0 0 .4 1.5.4 1.5c-.8.4-2 .8-3.9.8c-3.6 0-5.7-2.4-5.7-5.9c0-3.5 2.1-6.3 5.5-6.3c3.7 0 4.8 3.4 4.8 5.5c0 .4-.1.8-.1 1c0 0-8.2 0-8.2 0zm6.2-1.5c0-1.4-.5-3.4-2.9-3.4c-2.2 0-3.1 1.9-3.3 3.4c0 0 6.2 0 6.2 0zm4.4 4.8c.6.4 1.7.8 2.8.8c1.5 0 2.2-.8 2.2-1.7c0-1-.6-1.6-2.1-2.2c-2.1-.7-3.1-1.9-3.1-3.3c0-1.8 1.5-3.4 4-3.4c1.2 0 2.2.4 2.8.8c0 0-.5 1.5-.5 1.5c-.4-.3-1.3-.7-2.4-.7c-1.2 0-1.9.7-1.9 1.6c0 1 .7 1.4 2.2 2c2 .7 3.1 1.8 3.1 3.5c0 2-1.6 3.5-4.4 3.5c-1.3 0-2.4-.3-3.3-.8c0 0 .6-1.6.6-1.6z" stroke="none" fill="#3c3c3b"/></g><g id="Polygon7744"><path d="m.9 164.9c-.1-1.5 1.1-2.6 2.5-2.6c1.4 0 2.5 1.1 2.5 2.5c0 1.4-1.1 2.6-2.5 2.6c-1.4 0-2.5-1.1-2.5-2.5zm28.5 1.1l-1.6 5.1l-2.2 0l5.5-16.2l2.5 0l5.5 16.2l-2.2 0l-1.7-5.1l-5.8 0zm5.3-1.6c0 0-1.54-4.65-1.5-4.7c-.4-1-.6-2-.9-2.9c0 0 0 0 0 0c-.3 1-.5 1.9-.8 2.9c-.04.02-1.6 4.7-1.6 4.7l4.8 0zm16.2 3.6c0 1.2 0 2.2.1 3.1c-.03.02-1.9 0-1.9 0l-.1-1.9c0 0-.07.03-.1 0c-.5 1-1.7 2.2-3.8 2.2c-1.8 0-4-1-4-5.1c-.02 0 0-6.8 0-6.8l2.1 0c0 0-.01 6.44 0 6.4c0 2.2.7 3.7 2.6 3.7c1.4 0 2.4-1 2.8-1.9c.1-.3.2-.7.2-1.1c-.04.03 0-7.1 0-7.1l2.1 0c0 0-.03 8.45 0 8.5zm6-11.8l0 3.3l3 0l0 1.6l-3 0c0 0 .02 6.28 0 6.3c0 1.4.4 2.2 1.6 2.2c.6 0 1 0 1.2-.1c0 0 .1 1.6.1 1.6c-.4.1-1 .3-1.8.3c-1 0-1.8-.3-2.3-.9c-.6-.6-.8-1.7-.8-3c-.04-.05 0-6.4 0-6.4l-1.8 0l0-1.6l1.8 0l0-2.8l2-.5zm15.8 9c0 4.3-3 6.2-5.8 6.2c-3.1 0-5.6-2.3-5.6-6c0-3.9 2.6-6.2 5.8-6.2c3.3 0 5.6 2.5 5.6 6zm-9.2.1c0 2.6 1.4 4.5 3.5 4.5c2 0 3.5-1.9 3.5-4.5c0-2-1-4.5-3.5-4.5c-2.4 0-3.5 2.3-3.5 4.5zm11.9-2.7c0-1.1-.1-2.1-.1-3.1c-.04.01 1.8 0 1.8 0l.1 1.9c0 0 .07-.02.1 0c.6-1.1 1.7-2.2 3.6-2.2c1.6 0 2.8 1 3.3 2.4c0 0 .1 0 .1 0c.3-.7.8-1.2 1.3-1.5c.6-.6 1.4-.9 2.5-.9c1.6 0 3.8 1.1 3.8 5.1c.04-.02 0 6.8 0 6.8l-2 0c0 0-.03-6.55 0-6.6c0-2.2-.8-3.5-2.5-3.5c-1.2 0-2.2.9-2.5 1.9c-.1.3-.2.7-.2 1c-.01.05 0 7.2 0 7.2l-2.1 0c0 0 .02-6.94 0-6.9c0-1.9-.8-3.2-2.4-3.2c-1.3 0-2.3 1-2.6 2.1c-.1.3-.2.7-.2 1c.02.01 0 7 0 7l-2 0c0 0-.05-8.45 0-8.5zm26.4 8.5l-.2-1.4c0 0-.04-.04 0 0c-.7.9-1.9 1.7-3.6 1.7c-2.3 0-3.5-1.7-3.5-3.4c0-2.8 2.5-4.3 6.9-4.3c0 0 0-.2 0-.2c0-1-.2-2.7-2.6-2.7c-1.1 0-2.2.3-3 .9c0 0-.5-1.4-.5-1.4c1-.7 2.3-1.1 3.8-1.1c3.6 0 4.4 2.5 4.4 4.8c0 0 0 4.3 0 4.3c0 1 .1 2 .2 2.8c.02.02-1.9 0-1.9 0zm-.3-5.9c-2.3-.1-4.9.4-4.9 2.6c0 1.4.9 2 2 2c1.5 0 2.4-.9 2.8-1.9c0-.2.1-.5.1-.7c0 0 0-2 0-2zm7.9-9l0 3.3l3 0l0 1.6l-3 0c0 0-.02 6.28 0 6.3c0 1.4.4 2.2 1.6 2.2c.5 0 .9 0 1.2-.1c0 0 .1 1.6.1 1.6c-.4.1-1.1.3-1.9.3c-1 0-1.8-.3-2.3-.9c-.6-.6-.8-1.7-.8-3c.02-.05 0-6.4 0-6.4l-1.8 0l0-1.6l1.8 0l0-2.8l2.1-.5zm6.4 9.5c.1 2.9 1.9 4 4 4c1.5 0 2.4-.2 3.2-.6c0 0 .4 1.5.4 1.5c-.8.4-2 .8-3.9.8c-3.6 0-5.7-2.4-5.7-5.9c0-3.5 2.1-6.3 5.4-6.3c3.8 0 4.8 3.4 4.8 5.5c0 .4 0 .8 0 1c0 0-8.2 0-8.2 0zm6.2-1.5c0-1.4-.5-3.4-2.9-3.4c-2.2 0-3.1 1.9-3.3 3.4c0 0 6.2 0 6.2 0zm14.7-10.1c0 0 0 14.02 0 14c0 1.1 0 2.2.1 3c-.01.02-1.9 0-1.9 0l-.1-2c0 0-.05.01 0 0c-.7 1.3-2.1 2.3-4 2.3c-2.8 0-5-2.4-5-5.9c0-3.9 2.4-6.3 5.2-6.3c1.8 0 3 .9 3.5 1.8c.04.02.1 0 .1 0l0-6.9l2.1 0zm-2.1 10.1c0-.2 0-.6-.1-.9c-.3-1.3-1.5-2.4-3.1-2.4c-2.1 0-3.4 1.9-3.4 4.5c0 2.3 1.1 4.3 3.4 4.3c1.4 0 2.7-1 3.1-2.5c.1-.3.1-.6.1-1c0 0 0-2 0-2zm10.7-1.6c0-1.1 0-2.1-.1-3.1c-.01.01 1.9 0 1.9 0l.1 1.9c0 0 .03.03 0 0c.6-1.1 2-2.2 3.9-2.2c1.6 0 4.1 1 4.1 5c-.02-.01 0 6.9 0 6.9l-2.1 0c0 0-.04-6.67 0-6.7c0-1.8-.7-3.4-2.7-3.4c-1.4 0-2.5 1-2.9 2.2c-.1.2-.1.6-.1.9c0 .04 0 7 0 7l-2.1 0c0 0-.01-8.45 0-8.5zm23.8 2.6c0 4.3-3 6.2-5.8 6.2c-3.1 0-5.5-2.3-5.5-6c0-3.9 2.5-6.2 5.7-6.2c3.4 0 5.6 2.5 5.6 6zm-9.2.1c0 2.6 1.5 4.5 3.5 4.5c2 0 3.6-1.9 3.6-4.5c0-2-1-4.5-3.5-4.5c-2.5 0-3.6 2.3-3.6 4.5zm14.4-9.1l0 3.3l3.1 0l0 1.6l-3.1 0c0 0 .03 6.28 0 6.3c0 1.4.4 2.2 1.6 2.2c.6 0 1 0 1.2-.1c0 0 .1 1.6.1 1.6c-.4.1-1 .3-1.8.3c-1 0-1.8-.3-2.3-.9c-.6-.6-.8-1.7-.8-3c-.04-.05 0-6.4 0-6.4l-1.8 0l0-1.6l1.8 0l0-2.8l2-.5zm5.4 14.9l0-11.6l2.1 0l0 11.6l-2.1 0zm2.4-14.9c0 .8-.5 1.3-1.4 1.3c-.7 0-1.2-.5-1.2-1.3c0-.7.5-1.3 1.3-1.3c.8 0 1.3.6 1.3 1.3zm3.5 14.9l0-10l-1.7 0l0-1.6l1.7 0c0 0-.04-.62 0-.6c0-3.1 1.8-5.1 5-5.1c1.1 0 2.4.4 3 .8c0 0-.6 1.6-.6 1.6c-.5-.4-1.4-.7-2.5-.7c-2.2 0-2.9 1.6-2.9 3.4c.05.03 0 .6 0 .6l6.8 0l0 11.6l-2.1 0l0-10l-4.7 0l0 10l-2 0zm20.6-.4c-.6.3-1.8.7-3.4.7c-3.5 0-5.7-2.4-5.7-6c0-3.5 2.4-6.1 6.2-6.1c1.2 0 2.3.3 2.9.6c0 0-.5 1.6-.5 1.6c-.5-.3-1.3-.6-2.4-.6c-2.7 0-4.1 2-4.1 4.4c0 2.7 1.7 4.4 4 4.4c1.2 0 2-.3 2.6-.6c0 0 .4 1.6.4 1.6zm8.9.4l-.2-1.4c0 0-.06-.04-.1 0c-.6.9-1.9 1.7-3.5 1.7c-2.4 0-3.6-1.7-3.6-3.4c0-2.8 2.5-4.3 7-4.3c0 0 0-.2 0-.2c0-1-.2-2.7-2.6-2.7c-1.1 0-2.2.3-3 .9c0 0-.5-1.4-.5-1.4c.9-.7 2.3-1.1 3.8-1.1c3.5 0 4.4 2.5 4.4 4.8c0 0 0 4.3 0 4.3c0 1 .1 2 .2 2.8c0 .02-1.9 0-1.9 0zm-.3-5.9c-2.3-.1-5 .4-5 2.6c0 1.4 1 2 2 2c1.6 0 2.5-.9 2.8-1.9c.1-.2.2-.5.2-.7c0 0 0-2 0-2zm7.9-9l0 3.3l3 0l0 1.6l-3 0c0 0-.04 6.28 0 6.3c0 1.4.4 2.2 1.5 2.2c.6 0 1 0 1.3-.1c0 0 .1 1.6.1 1.6c-.4.1-1.1.3-1.9.3c-1 0-1.8-.3-2.3-.9c-.6-.6-.8-1.7-.8-3c0-.05 0-6.4 0-6.4l-1.8 0l0-1.6l1.8 0l0-2.8l2.1-.5zm5.4 14.9l0-11.6l2.1 0l0 11.6l-2.1 0zm2.3-14.9c0 .8-.5 1.3-1.3 1.3c-.8 0-1.3-.5-1.3-1.3c0-.7.6-1.3 1.3-1.3c.8 0 1.3.6 1.3 1.3zm13.8 9c0 4.3-3 6.2-5.8 6.2c-3.1 0-5.6-2.3-5.6-6c0-3.9 2.6-6.2 5.8-6.2c3.3 0 5.6 2.5 5.6 6zm-9.2.1c0 2.6 1.4 4.5 3.5 4.5c2 0 3.5-1.9 3.5-4.5c0-2-1-4.5-3.4-4.5c-2.5 0-3.6 2.3-3.6 4.5zm11.9-2.7c0-1.1-.1-2.1-.1-3.1c-.04.01 1.8 0 1.8 0l.1 1.9c0 0 .1.03.1 0c.6-1.1 1.9-2.2 3.8-2.2c1.6 0 4.1 1 4.1 5c.04-.01 0 6.9 0 6.9l-2.1 0c0 0 .03-6.67 0-6.7c0-1.8-.7-3.4-2.7-3.4c-1.4 0-2.4 1-2.8 2.2c-.1.2-.1.6-.1.9c-.03.04 0 7 0 7l-2.1 0c0 0-.05-8.45 0-8.5zm13 6.4c.6.4 1.7.8 2.8.8c1.5 0 2.2-.8 2.2-1.7c0-1-.6-1.6-2.1-2.2c-2.1-.7-3.1-1.9-3.1-3.3c0-1.8 1.5-3.4 4-3.4c1.2 0 2.2.4 2.9.8c0 0-.6 1.5-.6 1.5c-.4-.3-1.3-.7-2.3-.7c-1.3 0-2 .7-2 1.6c0 1 .7 1.4 2.2 2c2 .7 3.1 1.8 3.1 3.5c0 2-1.6 3.5-4.4 3.5c-1.3 0-2.4-.3-3.2-.8c0 0 .5-1.6.5-1.6z" stroke="none" fill="#3c3c3b"/></g><g id="Polygon7743"><path d="m27.9 124.1c.1 2.9 1.9 4.1 4 4.1c1.5 0 2.4-.3 3.2-.6c0 0 .4 1.5.4 1.5c-.8.3-2 .7-3.9.7c-3.6 0-5.7-2.4-5.7-5.9c0-3.5 2.1-6.2 5.5-6.2c3.8 0 4.8 3.3 4.8 5.5c0 .4-.1.7-.1.9c0 0-8.2 0-8.2 0zm6.2-1.5c0-1.3-.5-3.4-2.9-3.4c-2.1 0-3.1 2-3.2 3.4c0 0 6.1 0 6.1 0zm4.7-1.5c0-1.2 0-2.2-.1-3.2c-.02.04 1.9 0 1.9 0l.1 2c0 0 .02-.04 0 0c.6-1.1 1.9-2.2 3.9-2.2c1.6 0 4.1.9 4.1 4.9c-.04.03 0 7 0 7l-2.1 0c0 0-.05-6.74 0-6.7c0-1.9-.7-3.5-2.7-3.5c-1.4 0-2.5 1-2.9 2.2c-.1.3-.1.6-.1 1c-.01-.02 0 7 0 7l-2.1 0c0 0-.02-8.51 0-8.5zm23.3-3.2c0 .9-.1 1.8-.1 3.2c0 0 0 6.8 0 6.8c0 2.6-.5 4.3-1.6 5.3c-1.2 1-2.8 1.4-4.3 1.4c-1.4 0-2.9-.4-3.8-1c0 0 .5-1.6.5-1.6c.8.5 2 .9 3.4.9c2.2 0 3.7-1.1 3.7-4c.04-.03 0-1.3 0-1.3c0 0 0-.03 0 0c-.7 1-1.9 1.9-3.7 1.9c-2.9 0-4.9-2.4-4.9-5.7c0-3.9 2.5-6.1 5.2-6.1c2 0 3.1 1 3.6 2c.01 0 .1 0 .1 0l.1-1.8c0 0 1.8.04 1.8 0zm-2.2 4.6c0-.3 0-.6-.1-.9c-.4-1.3-1.4-2.3-3-2.3c-2 0-3.4 1.7-3.4 4.4c0 2.3 1.1 4.2 3.4 4.2c1.3 0 2.5-.8 3-2.2c.1-.3.1-.7.1-1.1c0 0 0-2.1 0-2.1zm5.5 7.1l0-11.7l2.1 0l0 11.7l-2.1 0zm2.3-14.9c0 .7-.5 1.3-1.3 1.3c-.8 0-1.3-.6-1.3-1.3c0-.8.6-1.3 1.3-1.3c.8 0 1.3.5 1.3 1.3zm3.3 6.4c0-1.2 0-2.2-.1-3.2c-.01.04 1.9 0 1.9 0l.1 2c0 0 .03-.04 0 0c.6-1.1 1.9-2.2 3.9-2.2c1.6 0 4.1.9 4.1 4.9c-.03.03 0 7 0 7l-2.1 0c0 0-.04-6.74 0-6.7c0-1.9-.7-3.5-2.7-3.5c-1.4 0-2.5 1-2.9 2.2c-.1.3-.1.6-.1 1c0-.02 0 7 0 7l-2.1 0c0 0-.02-8.51 0-8.5zm14.5 3c0 2.9 1.9 4.1 4 4.1c1.5 0 2.4-.3 3.2-.6c0 0 .3 1.5.3 1.5c-.7.3-2 .7-3.8.7c-3.6 0-5.7-2.4-5.7-5.9c0-3.5 2-6.2 5.4-6.2c3.8 0 4.8 3.3 4.8 5.5c0 .4 0 .7-.1.9c0 0-8.1 0-8.1 0zm6.2-1.5c0-1.3-.6-3.4-3-3.4c-2.1 0-3 2-3.2 3.4c0 0 6.2 0 6.2 0z" stroke="none" fill="#3c3c3b"/></g><g id="Polygon7742"><path d="m.9 88.3c-.1-1.4 1.1-2.5 2.5-2.5c1.4 0 2.5 1.1 2.5 2.5c0 1.4-1.1 2.5-2.5 2.5c-1.4 0-2.5-1.1-2.5-2.5zm25.9-9.7c1.1-.2 2.6-.3 4-.3c2.3 0 3.7.4 4.7 1.3c.8.7 1.3 1.8 1.3 3.1c0 2.1-1.4 3.5-3.1 4.1c0 0 0 .1 0 .1c1.3.4 2 1.5 2.4 3.2c.5 2.3.9 3.8 1.3 4.5c0 0-2.2 0-2.2 0c-.3-.5-.6-1.9-1.1-3.9c-.5-2.2-1.3-3.1-3.2-3.1c-.02-.05-2 0-2 0l0 7l-2.1 0c0 0 .02-16 0-16zm2.1 7.4c0 0 2.15-.03 2.1 0c2.3 0 3.7-1.3 3.7-3.1c0-2.1-1.5-3-3.7-3c-1 0-1.8.1-2.1.2c.01-.04 0 5.9 0 5.9zm21.4 2.7c0 4.3-3 6.1-5.8 6.1c-3.2 0-5.6-2.3-5.6-6c0-3.8 2.6-6.1 5.8-6.1c3.3 0 5.6 2.4 5.6 6zm-9.2.1c0 2.5 1.4 4.4 3.5 4.4c2 0 3.5-1.9 3.5-4.5c0-1.9-1-4.4-3.5-4.4c-2.5 0-3.5 2.3-3.5 4.5zm11.7 5.8c.1-.8.1-2 .1-3c.04-.04 0-14.1 0-14.1l2.1 0l0 7.3c0 0 .07.02.1 0c.7-1.3 2.1-2.1 3.9-2.1c2.9 0 5 2.4 4.9 5.9c0 4.2-2.6 6.2-5.2 6.2c-1.7 0-3-.6-3.9-2.2c.03.04 0 0 0 0l-.1 2c0 0-1.86-.04-1.9 0zm2.2-4.7c0 .3.1.5.1.8c.4 1.4 1.7 2.4 3.2 2.4c2.2 0 3.5-1.8 3.5-4.4c0-2.3-1.2-4.3-3.4-4.3c-1.5 0-2.8.9-3.3 2.6c0 .2-.1.5-.1.8c0 0 0 2.1 0 2.1zm21.3 1.5c0 1.2 0 2.2.1 3.2c.01-.04-1.9 0-1.9 0l-.1-1.9c0 0-.03-.04 0 0c-.6.9-1.8 2.1-3.9 2.1c-1.8 0-4-1-4-5.1c.02.04 0-6.8 0-6.8l2.1 0c0 0 .03 6.48 0 6.5c0 2.2.7 3.7 2.6 3.7c1.4 0 2.4-1 2.8-1.9c.1-.4.2-.7.2-1.1c0-.03 0-7.2 0-7.2l2.1 0c0 0 .01 8.49 0 8.5zm3.2 1c.7.4 1.8.8 2.8.8c1.5 0 2.3-.7 2.3-1.7c0-1-.6-1.5-2.2-2.1c-2.1-.8-3.1-1.9-3.1-3.3c0-1.9 1.5-3.4 4-3.4c1.2 0 2.3.3 2.9.7c0 0-.5 1.5-.5 1.5c-.5-.3-1.3-.6-2.4-.6c-1.3 0-1.9.7-1.9 1.5c0 1 .6 1.4 2.2 2c2 .8 3 1.8 3 3.5c0 2.1-1.6 3.5-4.3 3.5c-1.3 0-2.5-.3-3.3-.8c0 0 .5-1.6.5-1.6zm12.4-12.8l0 3.3l3 0l0 1.7l-3 0c0 0-.04 6.22 0 6.2c0 1.5.4 2.3 1.5 2.3c.6 0 1-.1 1.3-.2c0 0 .1 1.6.1 1.6c-.4.2-1.1.3-1.9.3c-1 0-1.8-.3-2.3-.9c-.6-.6-.8-1.6-.8-3c0-.01 0-6.3 0-6.3l-1.8 0l0-1.7l1.8 0l0-2.7l2.1-.6zm10.5 7c0-1.4-.1-2.6-.1-3.7c-.05.04 1.8 0 1.8 0l.1 2.3c0 0 .07.02.1 0c.5-1.5 1.8-2.5 3.2-2.5c.2 0 .4 0 .6.1c0 0 0 1.9 0 1.9c-.2 0-.4 0-.7 0c-1.5 0-2.6 1.1-2.9 2.7c0 .3-.1.6-.1 1c.04-.03 0 6.2 0 6.2l-2 0c0 0-.05-8.03 0-8zm8.7 2.5c.1 2.9 1.9 4.1 4 4.1c1.5 0 2.4-.3 3.2-.6c0 0 .4 1.5.4 1.5c-.7.3-2 .7-3.9.7c-3.5 0-5.7-2.4-5.7-5.9c0-3.5 2.1-6.2 5.5-6.2c3.8 0 4.8 3.3 4.8 5.5c0 .4-.1.7-.1.9c0 0-8.2 0-8.2 0zm6.2-1.5c.1-1.3-.5-3.4-2.9-3.4c-2.1 0-3.1 2-3.2 3.4c0 0 6.1 0 6.1 0zm13 6.5c-.6.3-1.8.7-3.4.7c-3.5 0-5.8-2.4-5.8-5.9c0-3.6 2.5-6.2 6.3-6.2c1.2 0 2.3.3 2.9.6c0 0-.5 1.6-.5 1.6c-.5-.3-1.3-.5-2.4-.5c-2.7 0-4.1 2-4.1 4.4c0 2.7 1.7 4.3 4 4.3c1.2 0 2-.3 2.6-.6c0 0 .4 1.6.4 1.6zm12.8-5.4c0 4.3-3 6.1-5.8 6.1c-3.1 0-5.5-2.3-5.5-6c0-3.8 2.5-6.1 5.7-6.1c3.3 0 5.6 2.4 5.6 6zm-9.2.1c0 2.5 1.5 4.4 3.5 4.4c2 0 3.5-1.9 3.5-4.5c0-1.9-.9-4.4-3.4-4.4c-2.5 0-3.6 2.3-3.6 4.5zm11.9-2.7c0-1.2-.1-2.2-.1-3.2c-.03.04 1.8 0 1.8 0l.2 2c0 0 .01-.04 0 0c.6-1.1 1.9-2.2 3.9-2.2c1.6 0 4.1.9 4.1 4.9c-.05.03 0 7 0 7l-2.2 0c0 0 .04-6.74 0-6.7c0-1.9-.7-3.5-2.6-3.5c-1.4 0-2.5 1-2.9 2.2c-.1.3-.1.6-.1 1c-.02-.02 0 7 0 7l-2.1 0c0 0-.03-8.51 0-8.5zm21.6 8c-.6.3-1.8.7-3.4.7c-3.5 0-5.8-2.4-5.8-5.9c0-3.6 2.5-6.2 6.3-6.2c1.2 0 2.3.3 2.9.6c0 0-.5 1.6-.5 1.6c-.5-.3-1.3-.5-2.4-.5c-2.7 0-4.1 2-4.1 4.4c0 2.7 1.7 4.3 4 4.3c1.2 0 2-.3 2.6-.6c0 0 .4 1.6.4 1.6zm2.4.5l0-11.7l2.2 0l0 11.7l-2.2 0zm2.4-14.9c0 .7-.5 1.3-1.4 1.3c-.7 0-1.2-.6-1.2-1.3c0-.8.5-1.3 1.3-1.3c.8 0 1.3.5 1.3 1.3zm3.3-2.2l2.1 0l0 17.1l-2.1 0l0-17.1zm5.6 17.1l0-11.7l2.1 0l0 11.7l-2.1 0zm2.4-14.9c0 .7-.5 1.3-1.4 1.3c-.7 0-1.2-.6-1.2-1.3c0-.8.5-1.3 1.3-1.3c.8 0 1.3.5 1.3 1.3zm9.7 14.9l-.2-1.5c0 0-.07 0-.1 0c-.6.9-1.9 1.7-3.5 1.7c-2.4 0-3.6-1.6-3.6-3.3c0-2.8 2.5-4.4 7-4.3c0 0 0-.3 0-.3c0-.9-.3-2.7-2.6-2.7c-1.1 0-2.2.4-3.1.9c0 0-.4-1.4-.4-1.4c.9-.6 2.3-1 3.8-1c3.5 0 4.4 2.4 4.4 4.7c0 0 0 4.4 0 4.4c0 1 0 2 .2 2.8c-.01-.04-1.9 0-1.9 0zm-.3-6c-2.4 0-5 .4-5 2.6c0 1.4.9 2.1 2 2.1c1.5 0 2.5-1 2.8-2c.1-.2.2-.4.2-.7c0 0 0-2 0-2zm7.8-9l0 3.3l3.1 0l0 1.7l-3.1 0c0 0 .05 6.22 0 6.2c0 1.5.5 2.3 1.6 2.3c.6 0 1-.1 1.3-.2c0 0 .1 1.6.1 1.6c-.5.2-1.1.3-1.9.3c-1 0-1.8-.3-2.3-.9c-.6-.6-.8-1.6-.8-3c-.01-.01 0-6.3 0-6.3l-1.8 0l0-1.7l1.8 0l0-2.7l2-.6zm5.4 15l0-11.7l2.2 0l0 11.7l-2.2 0zm2.4-14.9c0 .7-.5 1.3-1.3 1.3c-.8 0-1.3-.6-1.3-1.3c0-.8.5-1.3 1.3-1.3c.8 0 1.3.5 1.3 1.3zm13.8 9c0 4.3-3 6.1-5.8 6.1c-3.2 0-5.6-2.3-5.6-6c0-3.8 2.6-6.1 5.8-6.1c3.3 0 5.6 2.4 5.6 6zm-9.2.1c0 2.5 1.4 4.4 3.5 4.4c2 0 3.5-1.9 3.5-4.5c0-1.9-1-4.4-3.5-4.4c-2.5 0-3.5 2.3-3.5 4.5zm11.8-2.7c0-1.2 0-2.2-.1-3.2c.05.04 1.9 0 1.9 0l.1 2c0 0 .09-.04.1 0c.6-1.1 1.9-2.2 3.8-2.2c1.6 0 4.1.9 4.1 4.9c.03.03 0 7 0 7l-2.1 0c0 0 .02-6.74 0-6.7c0-1.9-.7-3.5-2.7-3.5c-1.4 0-2.4 1-2.8 2.2c-.1.3-.1.6-.1 1c-.05-.02 0 7 0 7l-2.2 0c0 0 .04-8.51 0-8.5z" stroke="none" fill="#3c3c3b"/></g><g id="Polygon7741"><path d="m26.7 53c0-.8.1-2 .1-3c-.05 0 0-14 0-14l2 0l0 7.3c0 0 .09-.04.1 0c.7-1.3 2.1-2.2 3.9-2.2c2.9 0 5 2.4 4.9 5.9c0 4.2-2.6 6.3-5.2 6.3c-1.6 0-3-.7-3.9-2.2c.05-.02 0 0 0 0l-.1 1.9c0 0-1.84 0-1.8 0zm2.1-4.7c0 .3.1.6.1.8c.4 1.5 1.7 2.5 3.2 2.5c2.2 0 3.5-1.8 3.5-4.5c0-2.3-1.2-4.3-3.4-4.3c-1.5 0-2.8 1-3.2 2.6c-.1.2-.2.5-.2.9c0 0 0 2 0 2zm12.8-.7c0 2.8 1.9 4 4 4c1.5 0 2.4-.3 3.2-.6c0 0 .3 1.5.3 1.5c-.7.4-2 .7-3.8.7c-3.6 0-5.7-2.3-5.7-5.8c0-3.5 2-6.3 5.4-6.3c3.8 0 4.8 3.4 4.8 5.5c0 .4 0 .8-.1 1c0 0-8.1 0-8.1 0zm6.2-1.5c0-1.4-.6-3.5-3-3.5c-2.1 0-3 2-3.2 3.5c0 0 6.2 0 6.2 0zm7.2-8.1l0 3.4l3 0l0 1.6l-3 0c0 0-.02 6.26 0 6.3c0 1.4.4 2.2 1.6 2.2c.5 0 .9-.1 1.2-.1c0 0 .1 1.6.1 1.6c-.4.1-1.1.2-1.9.2c-1 0-1.8-.3-2.3-.8c-.6-.7-.8-1.7-.8-3.1c.01.03 0-6.3 0-6.3l-1.8 0l0-1.6l1.8 0l0-2.8l2.1-.6zm6.4 3.4c0 0 1.57 5.89 1.6 5.9c.3 1.3.6 2.5.8 3.7c0 0 .1 0 .1 0c.3-1.2.7-2.4 1-3.7c.03.01 1.9-5.9 1.9-5.9l1.8 0c0 0 1.81 5.79 1.8 5.8c.4 1.4.8 2.6 1 3.8c0 0 .1 0 .1 0c.2-1.2.5-2.4.9-3.8c0 .02 1.7-5.8 1.7-5.8l2 0l-3.7 11.6l-1.9 0c0 0-1.8-5.54-1.8-5.5c-.4-1.3-.7-2.5-1-3.9c0 0-.1 0-.1 0c-.3 1.4-.6 2.6-1 3.9c-.03-.02-1.9 5.5-1.9 5.5l-1.9 0l-3.5-11.6l2.1 0zm17.8 6.2c0 2.8 1.9 4 4 4c1.5 0 2.4-.3 3.2-.6c0 0 .4 1.5.4 1.5c-.8.4-2.1.7-3.9.7c-3.6 0-5.7-2.3-5.7-5.8c0-3.5 2-6.3 5.4-6.3c3.8 0 4.8 3.4 4.8 5.5c0 .4 0 .8 0 1c0 0-8.2 0-8.2 0zm6.2-1.5c0-1.4-.6-3.5-2.9-3.5c-2.2 0-3.1 2-3.3 3.5c0 0 6.2 0 6.2 0zm5.8 1.5c.1 2.8 1.9 4 4 4c1.5 0 2.4-.3 3.2-.6c0 0 .4 1.5.4 1.5c-.8.4-2 .7-3.9.7c-3.6 0-5.7-2.3-5.7-5.8c0-3.5 2.1-6.3 5.4-6.3c3.8 0 4.8 3.4 4.8 5.5c0 .4 0 .8 0 1c0 0-8.2 0-8.2 0zm6.2-1.5c0-1.4-.5-3.5-2.9-3.5c-2.2 0-3.1 2-3.3 3.5c0 0 6.2 0 6.2 0zm4.7-1.6c0-1.2-.1-2.2-.1-3.1c-.03-.02 1.8 0 1.8 0l.2 1.9c0 0 .01 0 0 0c.6-1.1 1.9-2.2 3.8-2.2c1.7 0 4.2 1 4.2 5c-.05-.04 0 6.9 0 6.9l-2.2 0c0 0 .04-6.7 0-6.7c0-1.9-.7-3.4-2.6-3.4c-1.4 0-2.5 1-2.9 2.1c-.1.3-.1.7-.1 1c-.03.02 0 7 0 7l-2.1 0c0 0-.04-8.47 0-8.5zm26.8.9l-6.3 0l0 5.8l7 0l0 1.8l-9.1 0l0-16.2l8.8 0l0 1.8l-6.7 0l0 5.1l6.3 0l0 1.7zm3.4-8.4c1.1-.2 2.6-.3 4.1-.3c2.2 0 3.6.4 4.6 1.3c.9.7 1.3 1.8 1.3 3.1c0 2.1-1.3 3.5-3 4.1c0 0 0 .1 0 .1c1.2.4 2 1.6 2.3 3.3c.6 2.2.9 3.8 1.3 4.4c0 0-2.2 0-2.2 0c-.2-.5-.6-1.8-1.1-3.9c-.4-2.2-1.3-3-3.2-3.1c.01-.01-2 0-2 0l0 7l-2.1 0c0 0 .05-15.96 0-16zm2.1 7.4c0 0 2.17.01 2.2 0c2.2 0 3.6-1.2 3.6-3.1c0-2.1-1.5-3-3.7-3c-1 0-1.7.1-2.1.2c.04 0 0 5.9 0 5.9zm10.9-7.4c1-.2 2.3-.3 4-.3c2 0 3.5.5 4.5 1.3c.9.8 1.4 2 1.4 3.4c0 1.5-.4 2.6-1.2 3.5c-1.1 1.2-2.9 1.8-5 1.8c-.6 0-1.2-.1-1.7-.2c.05.02 0 6.5 0 6.5l-2 0c0 0-.04-15.98 0-16zm2 7.8c.5.1 1.1.2 1.8.2c2.5 0 4-1.2 4-3.5c0-2.1-1.5-3.1-3.8-3.1c-.9 0-1.6 0-2 .1c0 0 0 6.3 0 6.3zm25.9 8.2c-.4-.5-.8-.9-1.5-1.6c-1.4 1.3-2.9 1.9-4.7 1.9c-3.1 0-5-2.1-5-4.6c0-2.2 1.4-3.7 3.2-4.7c0 0 0-.1 0-.1c-.8-1-1.3-2.2-1.3-3.4c0-1.9 1.4-3.9 4.1-3.9c2 0 3.5 1.3 3.5 3.4c0 1.7-.9 3-3.5 4.3c0 0 0 .1 0 .1c1.4 1.6 2.9 3.3 3.9 4.5c.8-1.1 1.3-2.7 1.6-4.7c0 0 1.9 0 1.9 0c-.4 2.5-1.1 4.5-2.3 5.9c.8 1 1.7 1.9 2.6 2.9c0 0-2.5 0-2.5 0zm-2.5-2.8c-1-1-2.8-3-4.6-5.1c-.8.6-2 1.6-2 3.3c0 1.9 1.3 3.3 3.3 3.3c1.4 0 2.5-.6 3.3-1.5zm-4.9-9.8c0 1.1.5 2 1.2 2.9c1.6-1 2.7-1.8 2.7-3.2c0-1-.6-2.1-1.9-2.1c-1.3 0-2 1.1-2 2.4zm16.9 4.8c0-1.5-.1-2.7-.1-3.8c-.04-.02 1.9 0 1.9 0l0 2c0 0 .1-.02.1 0c.9-1.4 2.2-2.3 4.1-2.3c2.8 0 4.9 2.4 4.9 5.9c0 4.2-2.5 6.3-5.2 6.3c-1.6 0-2.9-.7-3.6-1.9c-.01.04-.1 0-.1 0l0 6.4l-2 0c0 0-.05-12.62 0-12.6zm2 3.1c0 .3.1.6.1.8c.4 1.5 1.7 2.5 3.2 2.5c2.2 0 3.5-1.8 3.5-4.5c0-2.3-1.2-4.3-3.4-4.3c-1.5 0-2.8 1-3.2 2.6c-.1.3-.2.6-.2.9c0 0 0 2 0 2zm22.1-1.2c0 4.3-3 6.2-5.8 6.2c-3.1 0-5.5-2.3-5.5-6c0-3.9 2.5-6.2 5.7-6.2c3.4 0 5.6 2.4 5.6 6zm-9.2.1c0 2.6 1.5 4.5 3.5 4.5c2 0 3.6-1.9 3.6-4.5c0-2-1-4.5-3.5-4.5c-2.5 0-3.6 2.3-3.6 4.5zm11.9-2.2c0-1.4 0-2.5-.1-3.6c-.01-.02 1.8 0 1.8 0l.1 2.3c0 0 .1-.04.1 0c.5-1.6 1.8-2.6 3.2-2.6c.3 0 .4 0 .6.1c0 0 0 2 0 2c-.2-.1-.4-.1-.7-.1c-1.5 0-2.5 1.1-2.8 2.7c-.1.3-.1.6-.1 1c-.03.01 0 6.2 0 6.2l-2.1 0c0 0-.02-7.99 0-8zm11-7l0 3.4l3 0l0 1.6l-3 0c0 0-.05 6.26 0 6.3c0 1.4.4 2.2 1.5 2.2c.6 0 1-.1 1.3-.1c0 0 .1 1.6.1 1.6c-.5.1-1.1.2-1.9.2c-1 0-1.8-.3-2.3-.8c-.6-.7-.8-1.7-.8-3.1c-.01.03 0-6.3 0-6.3l-1.8 0l0-1.6l1.8 0l0-2.8l2.1-.6zm11.8 15l-.2-1.5c0 0-.06.04-.1 0c-.6.9-1.9 1.8-3.5 1.8c-2.4 0-3.6-1.7-3.6-3.4c0-2.8 2.5-4.3 7-4.3c0 0 0-.2 0-.2c0-1-.2-2.7-2.6-2.7c-1.1 0-2.2.3-3 .8c0 0-.5-1.3-.5-1.3c.9-.7 2.3-1.1 3.8-1.1c3.5 0 4.4 2.4 4.4 4.8c0 0 0 4.3 0 4.3c0 1 .1 2 .2 2.8c0 0-1.9 0-1.9 0zm-.3-5.9c-2.3-.1-4.9.3-4.9 2.6c0 1.4.9 2 1.9 2c1.6 0 2.5-1 2.9-1.9c0-.3.1-.5.1-.7c0 0 0-2 0-2zm5.4-11.1l2.1 0l0 17l-2.1 0l0-17z" stroke="none" fill="#3c3c3b"/></g><g id="Polygon7740"><path d="m.9 11.7c-.1-1.4 1.1-2.5 2.5-2.5c1.4 0 2.5 1.1 2.5 2.5c0 1.4-1.1 2.5-2.5 2.5c-1.4 0-2.5-1-2.5-2.5zm29-8.1l-4.9 0l0-1.8l12 0l0 1.8l-5 0l0 14.4l-2.1 0l0-14.4zm8.7 2.8c0 0 1.5 5.89 1.5 5.9c.3 1.3.6 2.5.9 3.7c0 0 0 0 0 0c.3-1.2.7-2.4 1.1-3.7c-.04.01 1.9-5.9 1.9-5.9l1.7 0c0 0 1.84 5.79 1.8 5.8c.5 1.4.8 2.6 1.1 3.8c0 0 0 0 0 0c.2-1.2.5-2.4.9-3.8c.03.02 1.7-5.8 1.7-5.8l2.1 0l-3.8 11.6l-1.9 0c0 0-1.77-5.54-1.8-5.5c-.4-1.3-.7-2.5-1-3.9c0 0 0 0 0 0c-.3 1.4-.7 2.6-1.1 3.9c0-.02-1.9 5.5-1.9 5.5l-1.9 0l-3.5-11.6l2.2 0zm27.1 5.7c0 4.3-3 6.2-5.8 6.2c-3.2 0-5.6-2.3-5.6-6c0-3.9 2.5-6.2 5.8-6.2c3.3 0 5.6 2.4 5.6 6zm-9.3.1c0 2.6 1.5 4.5 3.6 4.5c2 0 3.5-1.9 3.5-4.5c0-2-1-4.5-3.5-4.5c-2.5 0-3.6 2.3-3.6 4.5zm17.2-1.5l0 1.6l-6 0l0-1.6l6 0zm3.2-4.3c0 0 1.5 5.89 1.5 5.9c.3 1.3.7 2.5.9 3.7c0 0 0 0 0 0c.3-1.2.7-2.4 1.1-3.7c-.03.01 1.9-5.9 1.9-5.9l1.7 0c0 0 1.84 5.79 1.8 5.8c.5 1.4.8 2.6 1.1 3.8c0 0 0 0 0 0c.2-1.2.6-2.4.9-3.8c.04.02 1.7-5.8 1.7-5.8l2.1 0l-3.8 11.6l-1.9 0c0 0-1.76-5.54-1.8-5.5c-.4-1.3-.7-2.5-1-3.9c0 0 0 0 0 0c-.3 1.4-.7 2.6-1.1 3.9c0-.02-1.9 5.5-1.9 5.5l-1.9 0l-3.5-11.6l2.2 0zm23.1 11.6l-.1-1.5c0 0-.11.04-.1 0c-.7.9-1.9 1.8-3.6 1.8c-2.3 0-3.5-1.7-3.5-3.4c0-2.8 2.5-4.3 7-4.3c0 0 0-.2 0-.2c0-1-.3-2.7-2.7-2.7c-1.1 0-2.2.3-3 .8c0 0-.5-1.3-.5-1.3c1-.7 2.4-1.1 3.8-1.1c3.6 0 4.5 2.4 4.5 4.8c0 0 0 4.3 0 4.3c0 1 0 2 .1 2.8c.05 0-1.9 0-1.9 0zm-.3-5.9c-2.3-.1-4.9.3-4.9 2.6c0 1.4.9 2 2 2c1.5 0 2.5-1 2.8-1.9c.1-.3.1-.5.1-.7c0 0 0-2 0-2zm6-5.7c0 0 2.58 6.85 2.6 6.8c.2.8.5 1.7.7 2.4c0 0 .1 0 .1 0c.2-.7.4-1.6.7-2.4c.02 0 2.3-6.8 2.3-6.8l2.3 0c0 0-3.21 8.26-3.2 8.3c-1.5 3.9-2.6 6-4 7.2c-1 .9-2.1 1.3-2.6 1.4c0 0-.5-1.8-.5-1.8c.5-.1 1.2-.5 1.8-1c.6-.5 1.3-1.3 1.8-2.4c.1-.2.2-.3.2-.5c0-.1-.1-.2-.2-.5c.03-.01-4.3-10.7-4.3-10.7l2.3 0zm22.4 11.2c-.6.3-1.8.6-3.3.6c-3.6 0-5.8-2.3-5.8-5.9c0-3.6 2.4-6.2 6.2-6.2c1.3 0 2.4.4 2.9.6c0 0-.4 1.7-.4 1.7c-.5-.3-1.3-.6-2.5-.6c-2.7 0-4.1 2-4.1 4.4c0 2.7 1.7 4.4 4 4.4c1.2 0 2-.4 2.6-.6c0 0 .4 1.6.4 1.6zm12.8-5.5c0 4.3-2.9 6.2-5.8 6.2c-3.1 0-5.5-2.3-5.5-6c0-3.9 2.5-6.2 5.7-6.2c3.4 0 5.6 2.4 5.6 6zm-9.2.1c0 2.6 1.5 4.5 3.5 4.5c2.1 0 3.6-1.9 3.6-4.5c0-2-1-4.5-3.5-4.5c-2.5 0-3.6 2.3-3.6 4.5zm11.9-2.7c0-1.2 0-2.2-.1-3.1c0-.02 1.8 0 1.8 0l.1 1.9c0 0 .11-.04.1 0c.7-1.1 1.7-2.2 3.7-2.2c1.5 0 2.7 1 3.2 2.3c0 0 .1 0 .1 0c.4-.6.8-1.1 1.3-1.5c.7-.5 1.5-.8 2.6-.8c1.5 0 3.8 1 3.8 5.1c-.02-.04 0 6.8 0 6.8l-2.1 0c0 0 .01-6.58 0-6.6c0-2.2-.8-3.6-2.5-3.6c-1.2 0-2.1.9-2.5 2c-.1.3-.2.6-.2 1c.03.02 0 7.2 0 7.2l-2 0c0 0-.03-6.96 0-7c0-1.8-.9-3.2-2.5-3.2c-1.3 0-2.2 1.1-2.6 2.2c-.1.3-.1.6-.1 1c-.04-.01 0 7 0 7l-2.1 0c0 0-.01-8.47 0-8.5zm20 0c0-1.2 0-2.2-.1-3.1c.01-.02 1.9 0 1.9 0l.1 1.9c0 0 .03-.04 0 0c.7-1.1 1.8-2.2 3.7-2.2c1.6 0 2.8 1 3.3 2.3c0 0 0 0 0 0c.4-.6.8-1.1 1.3-1.5c.7-.5 1.5-.8 2.6-.8c1.5 0 3.8 1 3.8 5.1c-.01-.04 0 6.8 0 6.8l-2.1 0c0 0 .03-6.58 0-6.6c0-2.2-.8-3.6-2.5-3.6c-1.2 0-2.1.9-2.5 2c-.1.3-.2.6-.2 1c.05.02 0 7.2 0 7.2l-2 0c0 0-.02-6.96 0-7c0-1.8-.8-3.2-2.4-3.2c-1.4 0-2.3 1.1-2.7 2.2c-.1.3-.1.6-.1 1c-.03-.01 0 7 0 7l-2.1 0c0 0 .01-8.47 0-8.5zm29.7 5.3c0 1.2.1 2.3.1 3.2c.04 0-1.8 0-1.8 0l-.2-1.9c0 0 0 0 0 0c-.6.9-1.8 2.2-3.8 2.2c-1.9 0-4-1-4-5.1c-.05-.02 0-6.8 0-6.8l2.1 0c0 0-.03 6.42 0 6.4c0 2.2.6 3.7 2.6 3.7c1.4 0 2.4-1 2.7-1.9c.2-.3.2-.7.2-1.1c.03.01 0-7.1 0-7.1l2.1 0c0 0 .05 8.43 0 8.4zm3.5-5.3c0-1.2 0-2.2 0-3.1c-.05-.02 1.8 0 1.8 0l.1 1.9c0 0 .09 0 .1 0c.6-1.1 1.9-2.2 3.8-2.2c1.6 0 4.1 1 4.1 5c.04-.04 0 6.9 0 6.9l-2.1 0c0 0 .03-6.7 0-6.7c0-1.9-.7-3.4-2.7-3.4c-1.4 0-2.4 1-2.8 2.1c-.1.3-.1.7-.1 1c-.04.02 0 7 0 7l-2.2 0c0 0 .05-8.47 0-8.5zm13.4 8.5l0-11.6l2.1 0l0 11.6l-2.1 0zm2.3-14.9c0 .7-.5 1.3-1.3 1.3c-.8 0-1.3-.6-1.3-1.3c0-.7.6-1.3 1.3-1.3c.8 0 1.3.6 1.3 1.3zm11.6 14.5c-.6.3-1.8.6-3.4.6c-3.5 0-5.8-2.3-5.8-5.9c0-3.6 2.5-6.2 6.3-6.2c1.2 0 2.3.4 2.9.6c0 0-.5 1.7-.5 1.7c-.5-.3-1.3-.6-2.4-.6c-2.7 0-4.1 2-4.1 4.4c0 2.7 1.7 4.4 4 4.4c1.2 0 2-.4 2.6-.6c0 0 .4 1.6.4 1.6zm8.9.4l-.2-1.5c0 0-.07.04-.1 0c-.6.9-1.9 1.8-3.5 1.8c-2.4 0-3.6-1.7-3.6-3.4c0-2.8 2.5-4.3 7-4.3c0 0 0-.2 0-.2c0-1-.3-2.7-2.6-2.7c-1.1 0-2.2.3-3.1.8c0 0-.4-1.3-.4-1.3c.9-.7 2.3-1.1 3.8-1.1c3.5 0 4.4 2.4 4.4 4.8c0 0 0 4.3 0 4.3c0 1 0 2 .2 2.8c-.01 0-1.9 0-1.9 0zm-.3-5.9c-2.3-.1-5 .3-5 2.6c0 1.4.9 2 2 2c1.5 0 2.5-1 2.8-1.9c.1-.3.2-.5.2-.7c0 0 0-2 0-2zm7.9-9.1l0 3.4l3 0l0 1.6l-3 0c0 0-.05 6.26 0 6.3c0 1.4.4 2.2 1.5 2.2c.6 0 1-.1 1.3-.1c0 0 .1 1.6.1 1.6c-.5.1-1.1.2-1.9.2c-1 0-1.8-.3-2.3-.8c-.6-.7-.8-1.7-.8-3.1c-.01.03 0-6.3 0-6.3l-1.8 0l0-1.6l1.8 0l0-2.8l2.1-.6zm5.4 15l0-11.6l2.1 0l0 11.6l-2.1 0zm2.3-14.9c0 .7-.5 1.3-1.3 1.3c-.8 0-1.3-.6-1.3-1.3c0-.7.5-1.3 1.3-1.3c.8 0 1.3.6 1.3 1.3zm13.8 9c0 4.3-3 6.2-5.8 6.2c-3.1 0-5.6-2.3-5.6-6c0-3.9 2.6-6.2 5.8-6.2c3.3 0 5.6 2.4 5.6 6zm-9.2.1c0 2.6 1.4 4.5 3.5 4.5c2 0 3.5-1.9 3.5-4.5c0-2-1-4.5-3.5-4.5c-2.5 0-3.5 2.3-3.5 4.5zm11.8-2.7c0-1.2 0-2.2-.1-3.1c.05-.02 1.9 0 1.9 0l.1 1.9c0 0 .09 0 .1 0c.6-1.1 1.9-2.2 3.8-2.2c1.6 0 4.1 1 4.1 5c.03-.04 0 6.9 0 6.9l-2.1 0c0 0 .02-6.7 0-6.7c0-1.9-.7-3.4-2.7-3.4c-1.4 0-2.4 1-2.8 2.1c-.1.3-.1.7-.1 1c-.04.02 0 7 0 7l-2.2 0c0 0 .04-8.47 0-8.5z" stroke="none" fill="#3c3c3b"/></g></svg>