<?xml version="1.0" standalone="no"?><!DOCTYPE svg PUBLIC "-//W3C//DTD SVG 1.1//EN" "http://www.w3.org/Graphics/SVG/1.1/DTD/svg11.dtd"><svg xmlns="http://www.w3.org/2000/svg" version="1.1" width="560.1px" height="73px" viewBox="0 -7 560.1 73" style="top:-7px"><desc>Minimize exposure to interest due to wrongful availment of ITC</desc><defs/><g id="Polygon9192"><path d="m8.1 53l-.2-1.2c0 0-.05.02-.1 0c-.7 1-1.9 1.5-3.3 1.5c-2.4 0-3.8-1.8-3.8-3.6c0-3.1 2.7-4.5 6.9-4.5c0 0 0-.2 0-.2c0-.6-.4-1.5-2.2-1.5c-1.2 0-2.4.4-3.2.9c0 0-.7-2.4-.7-2.4c.9-.4 2.5-1 4.6-1c3.9 0 5.2 2.3 5.2 5.1c0 0 0 4 0 4c0 1.2 0 2.3.1 2.9c.02 0-3.3 0-3.3 0zm-.4-5.5c-1.9-.1-3.4.4-3.4 1.8c0 .9.6 1.4 1.4 1.4c.9 0 1.7-.6 1.9-1.3c.1-.2.1-.5.1-.7c0 0 0-1.2 0-1.2zm8.9-6.2c0 0 1.54 5.41 1.5 5.4c.3 1 .5 1.9.7 2.9c0 0 .1 0 .1 0c.2-1 .4-1.9.6-2.9c.04.01 1.5-5.4 1.5-5.4l3.9 0l-4.4 11.7l-3.6 0l-4.3-11.7l4 0zm16.5 11.7l-.2-1.2c0 0-.12.02-.1 0c-.8 1-2 1.5-3.4 1.5c-2.4 0-3.8-1.8-3.8-3.6c0-3.1 2.8-4.5 6.9-4.5c0 0 0-.2 0-.2c0-.6-.3-1.5-2.1-1.5c-1.2 0-2.5.4-3.3.9c0 0-.6-2.4-.6-2.4c.8-.4 2.4-1 4.5-1c3.9 0 5.2 2.3 5.2 5.1c0 0 0 4 0 4c0 1.2 0 2.3.2 2.9c-.04 0-3.3 0-3.3 0zm-.5-5.5c-1.9-.1-3.4.4-3.4 1.8c0 .9.7 1.4 1.5 1.4c.9 0 1.6-.6 1.9-1.3c0-.2 0-.5 0-.7c0 0 0-1.2 0-1.2zm6.5 5.5l0-11.7l3.6 0l0 11.7l-3.6 0zm3.7-15c0 1-.7 1.8-1.9 1.8c-1.2 0-1.9-.8-1.9-1.8c0-1.1.7-1.8 1.9-1.8c1.2 0 1.9.7 1.9 1.8zm2.8-2l3.7 0l0 17l-3.7 0l0-17zm6.6 9c0-1.5 0-2.7 0-3.7c-.05-.04 3 0 3 0l.2 1.5c0 0 .06.05.1 0c.5-.7 1.5-1.8 3.5-1.8c1.5 0 2.7.8 3.2 2c0 0 .1 0 .1 0c.4-.6.9-1.1 1.5-1.4c.6-.4 1.4-.6 2.2-.6c2.3 0 4 1.6 4 5.1c-.02-.01 0 6.9 0 6.9l-3.6 0c0 0 .03-6.38 0-6.4c0-1.7-.5-2.7-1.7-2.7c-.8 0-1.4.6-1.7 1.3c-.1.3-.1.6-.1.9c-.02.04 0 6.9 0 6.9l-3.6 0c0 0 .03-6.58 0-6.6c0-1.5-.5-2.5-1.7-2.5c-.9 0-1.4.7-1.7 1.3c-.1.3-.1.7-.1 1c0-.04 0 6.8 0 6.8l-3.6 0c0 0 .05-7.99 0-8zm23.5 3.3c.1 1.5 1.6 2.2 3.3 2.2c1.3 0 2.3-.1 3.2-.5c0 0 .5 2.5.5 2.5c-1.2.5-2.6.7-4.2.7c-4 0-6.3-2.3-6.3-5.9c0-3 1.9-6.3 5.9-6.3c3.8 0 5.3 3 5.3 5.9c0 .6-.1 1.1-.1 1.4c0 0-7.6 0-7.6 0zm4.3-2.5c0-.9-.4-2.4-2.1-2.4c-1.5 0-2.1 1.4-2.2 2.4c0 0 4.3 0 4.3 0zm5.6-.8c0-1.5-.1-2.7-.1-3.7c-.04-.04 3.1 0 3.1 0l.2 1.6c0 0 .07-.03.1 0c.5-.8 1.7-1.9 3.6-1.9c2.4 0 4.2 1.6 4.2 5c0 .04 0 7 0 7l-3.7 0c0 0 .05-6.5 0-6.5c0-1.5-.5-2.5-1.8-2.5c-1 0-1.6.6-1.8 1.3c-.1.2-.2.6-.2.9c.01.03 0 6.8 0 6.8l-3.6 0c0 0-.04-7.99 0-8zm18-7.1l0 3.4l2.6 0l0 2.7l-2.6 0c0 0-.04 4.2 0 4.2c0 1.4.3 2.1 1.4 2.1c.5 0 .8-.1 1.1-.1c0 0 0 2.7 0 2.7c-.5.2-1.3.3-2.4.3c-1.1 0-2.1-.4-2.7-1c-.7-.7-1-1.8-1-3.4c-.02-.05 0-4.8 0-4.8l-1.6 0l0-2.7l1.6 0l0-2.6l3.6-.8zm21.1 9.1c0 4.3-3 6.3-6.2 6.3c-3.4 0-6-2.3-6-6.1c0-3.8 2.5-6.2 6.2-6.2c3.6 0 6 2.5 6 6zm-8.5.1c0 2 .9 3.5 2.4 3.5c1.4 0 2.4-1.4 2.4-3.5c0-1.7-.7-3.5-2.4-3.5c-1.7 0-2.4 1.8-2.4 3.5zm11.2 5.9l0-9l-1.5 0l0-2.7l1.5 0c0 0-.01-.49 0-.5c0-1.4.4-3 1.5-3.9c.9-.9 2.2-1.2 3.2-1.2c.8 0 1.5.1 2 .2c0 0-.2 2.8-.2 2.8c-.3-.1-.7-.1-1.2-.1c-1.2 0-1.7.9-1.7 2.1c.04-.04 0 .6 0 .6l2.4 0l0 2.7l-2.3 0l0 9l-3.7 0zm16.4-16.2l0 16.2l-3.7 0l0-16.2l3.7 0zm6.3 3.1l-4.3 0l0-3.1l12.4 0l0 3.1l-4.4 0l0 13.1l-3.7 0l0-13.1zm21.2 12.6c-.7.4-2.2.7-4.1.7c-5.6 0-8.5-3.4-8.5-8c0-5.6 3.9-8.6 8.8-8.6c1.9 0 3.4.3 4 .7c0 0-.7 2.9-.7 2.9c-.8-.3-1.8-.6-3.1-.6c-2.9 0-5.2 1.7-5.2 5.3c0 3.3 1.9 5.3 5.2 5.3c1.1 0 2.3-.2 3.1-.5c0 0 .5 2.8.5 2.8z" stroke="none" fill="#15345e"/></g><g id="Polygon9191"><path d="m15.3 11.8c-.1-1.9-.2-4.3-.2-6.6c0 0-.1 0-.1 0c-.5 2-1.1 4.3-1.8 6.2c.05.02-1.9 6.3-1.9 6.3l-2.9 0c0 0-1.7-6.23-1.7-6.2c-.5-1.9-1.1-4.2-1.5-6.3c0 0 0 0 0 0c-.1 2.1-.2 4.6-.3 6.7c0-.04-.3 6.1-.3 6.1l-3.4 0l1.1-16.2l4.8 0c0 0 1.61 5.42 1.6 5.4c.5 1.9 1 3.9 1.4 5.8c0 0 .1 0 .1 0c.4-1.9 1-4 1.5-5.8c-.01 0 1.7-5.4 1.7-5.4l4.8 0l.9 16.2l-3.6 0c0 0-.24-6.19-.2-6.2zm6.6 6.2l0-11.7l3.7 0l0 11.7l-3.7 0zm3.8-15c0 1-.8 1.8-2 1.8c-1.1 0-1.9-.8-1.9-1.8c0-1.1.8-1.8 1.9-1.8c1.2 0 2 .7 2 1.8zm2.8 7c0-1.5-.1-2.7-.1-3.7c-.01-.04 3.2 0 3.2 0l.1 1.6c0 0 .1-.03.1 0c.5-.8 1.7-1.9 3.6-1.9c2.4 0 4.2 1.6 4.2 5c.02.04 0 7 0 7l-3.6 0c0 0-.02-6.5 0-6.5c0-1.5-.6-2.5-1.9-2.5c-1 0-1.6.6-1.8 1.3c-.1.2-.2.6-.2.9c.04.03 0 6.8 0 6.8l-3.6 0c0 0-.01-7.99 0-8zm14.1 8l0-11.7l3.6 0l0 11.7l-3.6 0zm3.7-15c0 1-.7 1.8-1.9 1.8c-1.2 0-2-.8-1.9-1.8c-.1-1.1.7-1.8 1.9-1.8c1.2 0 1.9.7 1.9 1.8zm2.8 7c0-1.5 0-2.7-.1-3.7c.03-.04 3.1 0 3.1 0l.2 1.5c0 0 .04.05 0 0c.5-.7 1.6-1.8 3.6-1.8c1.5 0 2.7.8 3.2 2c0 0 .1 0 .1 0c.4-.6.9-1.1 1.5-1.4c.6-.4 1.3-.6 2.2-.6c2.3 0 4 1.6 4 5.1c-.04-.01 0 6.9 0 6.9l-3.6 0c0 0 .01-6.38 0-6.4c0-1.7-.5-2.7-1.7-2.7c-.9 0-1.5.6-1.7 1.3c-.1.3-.1.6-.1.9c-.04.04 0 6.9 0 6.9l-3.6 0c0 0 .01-6.58 0-6.6c0-1.5-.5-2.5-1.7-2.5c-.9 0-1.5.7-1.7 1.3c-.1.3-.1.7-.1 1c-.02-.04 0 6.8 0 6.8l-3.6 0c0 0 .03-7.99 0-8zm20.7 8l0-11.7l3.6 0l0 11.7l-3.6 0zm3.7-15c0 1-.7 1.8-1.9 1.8c-1.2 0-2-.8-1.9-1.8c-.1-1.1.7-1.8 1.9-1.8c1.2 0 1.9.7 1.9 1.8zm1.9 12.9c0 0 3.7-4.62 3.7-4.6c.7-.8 1.2-1.4 1.9-2.1c-.03-.01 0-.1 0-.1l-5.2 0l0-2.8l9.6 0l0 2.1c0 0-3.51 4.49-3.5 4.5c-.7.8-1.3 1.5-1.9 2.1c-.03.05 0 .1 0 .1l5.6 0l0 2.9l-10.2 0l0-2.1zm14.8-2.6c.2 1.5 1.6 2.2 3.4 2.2c1.2 0 2.2-.1 3.2-.5c0 0 .5 2.5.5 2.5c-1.2.5-2.7.7-4.3.7c-4 0-6.2-2.3-6.2-5.9c0-3 1.8-6.3 5.9-6.3c3.8 0 5.2 3 5.2 5.9c0 .6-.1 1.1-.1 1.4c0 0-7.6 0-7.6 0zm4.3-2.5c0-.9-.3-2.4-2-2.4c-1.6 0-2.2 1.4-2.3 2.4c0 0 4.3 0 4.3 0zm13.3 2.5c.1 1.5 1.6 2.2 3.3 2.2c1.2 0 2.2-.1 3.2-.5c0 0 .5 2.5.5 2.5c-1.2.5-2.7.7-4.3.7c-3.9 0-6.2-2.3-6.2-5.9c0-3 1.8-6.3 5.9-6.3c3.8 0 5.2 3 5.2 5.9c0 .6 0 1.1-.1 1.4c0 0-7.5 0-7.5 0zm4.3-2.5c0-.9-.4-2.4-2.1-2.4c-1.5 0-2.2 1.4-2.3 2.4c0 0 4.4 0 4.4 0zm8-4.5c0 0 1.17 1.91 1.2 1.9c.3.6.6 1.2.9 1.8c0 0 .1 0 .1 0c.3-.7.6-1.3.9-1.8c-.01-.04 1-1.9 1-1.9l4 0l-3.9 5.6l3.9 6.1l-4.1 0c0 0-1.17-2.11-1.2-2.1c-.3-.6-.6-1.2-.9-1.8c0 0-.1 0-.1 0c-.2.6-.6 1.2-.8 1.8c-.05-.01-1.1 2.1-1.1 2.1l-4.1 0l4-6l-3.9-5.7l4.1 0zm9.7 3.9c0-1.5-.1-2.9-.1-3.9c-.01-.04 3.2 0 3.2 0l.1 1.6c0 0 .08 0 .1 0c.8-1.3 2.2-1.9 3.9-1.9c2.6 0 4.9 2.2 4.9 6c0 4.2-2.7 6.3-5.4 6.3c-1.4 0-2.5-.6-3-1.4c-.01.02-.1 0-.1 0l0 5.9l-3.6 0c0 0-.01-12.6 0-12.6zm3.6 2.8c0 .2.1.5.1.7c.3 1 1.1 1.8 2.1 1.8c1.6 0 2.6-1.4 2.6-3.4c0-1.8-.9-3.2-2.5-3.2c-1 0-1.9.7-2.2 1.8c0 .2-.1.4-.1.7c0 0 0 1.6 0 1.6zm22.4-1c0 4.3-3 6.3-6.2 6.3c-3.4 0-6.1-2.3-6.1-6.1c0-3.8 2.5-6.2 6.3-6.2c3.6 0 6 2.5 6 6zm-8.5.1c0 2 .9 3.5 2.4 3.5c1.4 0 2.3-1.4 2.3-3.5c0-1.7-.6-3.5-2.3-3.5c-1.7 0-2.4 1.8-2.4 3.5zm10.7 2.7c.7.4 2.1.9 3.2.9c1.1 0 1.5-.4 1.5-1c0-.6-.3-.9-1.7-1.3c-2.4-.8-3.3-2.2-3.3-3.6c0-2.1 1.9-3.8 4.8-3.8c1.3 0 2.5.3 3.3.7c0 0-.7 2.5-.7 2.5c-.5-.3-1.5-.7-2.5-.7c-.9 0-1.4.4-1.4 1c0 .5.4.8 1.9 1.3c2.2.8 3.1 1.9 3.2 3.6c0 2.2-1.8 3.8-5.1 3.8c-1.6 0-2.9-.3-3.8-.8c0 0 .6-2.6.6-2.6zm21.5-.6c0 1.6.1 2.8.1 3.8c.04 0-3.1 0-3.1 0l-.2-1.7c0 0-.07.04-.1 0c-.4.8-1.5 2-3.6 2c-2.4 0-4.2-1.5-4.2-5.1c.03-.05 0-6.9 0-6.9l3.7 0c0 0 0 6.28 0 6.3c0 1.7.6 2.7 1.8 2.7c1 0 1.6-.7 1.8-1.3c.1-.2.2-.5.2-.8c-.03.05 0-6.9 0-6.9l3.6 0c0 0 .04 7.93 0 7.9zm3-4.1c0-1.7-.1-2.8-.1-3.8c-.03-.04 3.1 0 3.1 0l.1 2.1c0 0 .13.02.1 0c.6-1.7 2.1-2.4 3.2-2.4c.3 0 .5 0 .8 0c0 0 0 3.5 0 3.5c-.3-.1-.6-.1-1-.1c-1.4 0-2.3.7-2.5 1.8c-.1.3-.1.6-.1.8c.02.05 0 6 0 6l-3.6 0c0 0-.03-7.87 0-7.9zm11.7 3.2c.1 1.5 1.6 2.2 3.3 2.2c1.3 0 2.3-.1 3.3-.5c0 0 .4 2.5.4 2.5c-1.2.5-2.6.7-4.2.7c-4 0-6.3-2.3-6.3-5.9c0-3 1.9-6.3 6-6.3c3.7 0 5.2 3 5.2 5.9c0 .6-.1 1.1-.1 1.4c0 0-7.6 0-7.6 0zm4.3-2.5c0-.9-.4-2.4-2.1-2.4c-1.5 0-2.1 1.4-2.2 2.4c0 0 4.3 0 4.3 0zm14.5-7.9l0 3.4l2.6 0l0 2.7l-2.6 0c0 0 0 4.2 0 4.2c0 1.4.3 2.1 1.4 2.1c.5 0 .9-.1 1.1-.1c0 0 0 2.7 0 2.7c-.4.2-1.3.3-2.3.3c-1.2 0-2.2-.4-2.8-1c-.6-.7-1-1.8-1-3.4c.02-.05 0-4.8 0-4.8l-1.5 0l0-2.7l1.5 0l0-2.6l3.6-.8zm16.2 9.1c0 4.3-3.1 6.3-6.2 6.3c-3.4 0-6.1-2.3-6.1-6.1c0-3.8 2.5-6.2 6.3-6.2c3.6 0 6 2.5 6 6zm-8.5.1c0 2 .8 3.5 2.4 3.5c1.4 0 2.3-1.4 2.3-3.5c0-1.7-.6-3.5-2.3-3.5c-1.8 0-2.4 1.8-2.4 3.5zm15.6 5.9l0-11.7l3.6 0l0 11.7l-3.6 0zm3.8-15c0 1-.8 1.8-2 1.8c-1.2 0-1.9-.8-1.9-1.8c0-1.1.7-1.8 1.9-1.8c1.2 0 1.9.7 2 1.8zm2.8 7c0-1.5-.1-2.7-.1-3.7c-.02-.04 3.1 0 3.1 0l.2 1.6c0 0 .09-.03.1 0c.5-.8 1.7-1.9 3.6-1.9c2.4 0 4.2 1.6 4.2 5c.01.04 0 7 0 7l-3.6 0c0 0-.04-6.5 0-6.5c0-1.5-.6-2.5-1.9-2.5c-1 0-1.6.6-1.8 1.3c-.1.2-.2.6-.2.9c.02.03 0 6.8 0 6.8l-3.6 0c0 0-.02-7.99 0-8zm18-7.1l0 3.4l2.6 0l0 2.7l-2.6 0c0 0-.02 4.2 0 4.2c0 1.4.3 2.1 1.4 2.1c.5 0 .8-.1 1.1-.1c0 0 0 2.7 0 2.7c-.5.2-1.3.3-2.4.3c-1.1 0-2.1-.4-2.7-1c-.7-.7-1-1.8-1-3.4c0-.05 0-4.8 0-4.8l-1.6 0l0-2.7l1.6 0l0-2.6l3.6-.8zm7.4 10.4c.1 1.5 1.6 2.2 3.3 2.2c1.3 0 2.3-.1 3.2-.5c0 0 .5 2.5.5 2.5c-1.2.5-2.6.7-4.2.7c-4 0-6.3-2.3-6.3-5.9c0-3 1.9-6.3 5.9-6.3c3.8 0 5.3 3 5.3 5.9c0 .6-.1 1.1-.1 1.4c0 0-7.6 0-7.6 0zm4.3-2.5c0-.9-.4-2.4-2.1-2.4c-1.5 0-2.1 1.4-2.2 2.4c0 0 4.3 0 4.3 0zm5.6-.7c0-1.7-.1-2.8-.1-3.8c-.04-.04 3.1 0 3.1 0l.1 2.1c0 0 .12.02.1 0c.6-1.7 2.1-2.4 3.2-2.4c.3 0 .5 0 .8 0c0 0 0 3.5 0 3.5c-.3-.1-.6-.1-1-.1c-1.4 0-2.3.7-2.5 1.8c-.1.3-.1.6-.1.8c0 .05 0 6 0 6l-3.6 0c0 0-.04-7.87 0-7.9zm11.7 3.2c.1 1.5 1.6 2.2 3.3 2.2c1.3 0 2.3-.1 3.2-.5c0 0 .5 2.5.5 2.5c-1.2.5-2.6.7-4.2.7c-4 0-6.3-2.3-6.3-5.9c0-3 1.9-6.3 5.9-6.3c3.8 0 5.3 3 5.3 5.9c0 .6-.1 1.1-.1 1.4c0 0-7.6 0-7.6 0zm4.3-2.5c0-.9-.4-2.4-2.1-2.4c-1.5 0-2.1 1.4-2.2 2.4c0 0 4.3 0 4.3 0zm5.5 4c.7.4 2.1.9 3.2.9c1.1 0 1.5-.4 1.5-1c0-.6-.3-.9-1.7-1.3c-2.4-.8-3.4-2.2-3.3-3.6c0-2.1 1.8-3.8 4.7-3.8c1.4 0 2.6.3 3.4.7c0 0-.7 2.5-.7 2.5c-.5-.3-1.5-.7-2.5-.7c-.9 0-1.4.4-1.4 1c0 .5.4.8 1.9 1.3c2.2.8 3.1 1.9 3.2 3.6c0 2.2-1.8 3.8-5.1 3.8c-1.6 0-2.9-.3-3.8-.8c0 0 .6-2.6.6-2.6zm14.6-11.9l0 3.4l2.6 0l0 2.7l-2.6 0c0 0-.05 4.2 0 4.2c0 1.4.3 2.1 1.4 2.1c.4 0 .8-.1 1.1-.1c0 0 0 2.7 0 2.7c-.5.2-1.3.3-2.4.3c-1.2 0-2.1-.4-2.7-1c-.7-.7-1-1.8-1-3.4c-.02-.05 0-4.8 0-4.8l-1.6 0l0-2.7l1.6 0l0-2.6l3.6-.8zm20.9-1.9c0 0 0 13.5 0 13.5c0 1.3.1 2.7.1 3.5c0 0-3.2 0-3.2 0l-.2-1.7c0 0-.06-.03-.1 0c-.7 1.3-2.1 2-3.6 2c-2.8 0-5-2.4-5-6.1c-.1-3.9 2.4-6.2 5.2-6.2c1.5 0 2.6.5 3.1 1.3c.01.02.1 0 .1 0l0-6.3l3.6 0zm-3.6 10.2c0-.2-.1-.4-.1-.6c-.2-1-1-1.8-2.1-1.8c-1.7 0-2.5 1.5-2.5 3.3c0 2 .9 3.3 2.4 3.3c1.1 0 1.9-.8 2.2-1.8c0-.3.1-.5.1-.8c0 0 0-1.6 0-1.6zm17.6 3c0 1.6 0 2.8.1 3.8c-.01 0-3.2 0-3.2 0l-.1-1.7c0 0-.12.04-.1 0c-.5.8-1.6 2-3.7 2c-2.4 0-4.1-1.5-4.1-5.1c-.02-.05 0-6.9 0-6.9l3.7 0c0 0-.04 6.28 0 6.3c0 1.7.5 2.7 1.8 2.7c1 0 1.6-.7 1.8-1.3c.1-.2.1-.5.1-.8c.02.05 0-6.9 0-6.9l3.7 0c0 0 0 7.93 0 7.9zm5.7-.9c.2 1.5 1.6 2.2 3.3 2.2c1.3 0 2.3-.1 3.3-.5c0 0 .5 2.5.5 2.5c-1.2.5-2.7.7-4.3.7c-4 0-6.2-2.3-6.2-5.9c0-3 1.8-6.3 5.9-6.3c3.8 0 5.2 3 5.2 5.9c0 .6-.1 1.1-.1 1.4c0 0-7.6 0-7.6 0zm4.3-2.5c0-.9-.4-2.4-2-2.4c-1.6 0-2.2 1.4-2.3 2.4c0 0 4.3 0 4.3 0zm14.5-7.9l0 3.4l2.6 0l0 2.7l-2.6 0c0 0 .02 4.2 0 4.2c0 1.4.4 2.1 1.5 2.1c.4 0 .8-.1 1-.1c0 0 .1 2.7.1 2.7c-.5.2-1.4.3-2.4.3c-1.2 0-2.2-.4-2.7-1c-.7-.7-1.1-1.8-1.1-3.4c.05-.05 0-4.8 0-4.8l-1.5 0l0-2.7l1.5 0l0-2.6l3.6-.8zm16.2 9.1c0 4.3-3 6.3-6.2 6.3c-3.4 0-6-2.3-6-6.1c0-3.8 2.5-6.2 6.2-6.2c3.6 0 6 2.5 6 6zm-8.5.1c0 2 .9 3.5 2.4 3.5c1.4 0 2.4-1.4 2.4-3.5c0-1.7-.7-3.5-2.4-3.5c-1.7 0-2.4 1.8-2.4 3.5zm18.1-5.8c0 0 .98 4.76 1 4.8c.2 1.2.5 2.5.7 3.8c0 0 0 0 0 0c.2-1.3.6-2.7.9-3.8c-.03-.01 1.2-4.8 1.2-4.8l2.9 0c0 0 1.17 4.64 1.2 4.6c.3 1.4.6 2.7.8 4c0 0 .1 0 .1 0c.2-1.3.4-2.6.7-4c-.04.02 1-4.6 1-4.6l3.5 0l-3.6 11.7l-3.4 0c0 0-1.1-4.13-1.1-4.1c-.3-1.2-.5-2.2-.7-3.7c0 0-.1 0-.1 0c-.2 1.5-.4 2.6-.8 3.7c.04-.03-1.1 4.1-1.1 4.1l-3.5 0l-3.4-11.7l3.7 0zm15.7 3.8c0-1.7 0-2.8-.1-3.8c.05-.04 3.2 0 3.2 0l.1 2.1c0 0 .11.02.1 0c.6-1.7 2-2.4 3.2-2.4c.3 0 .5 0 .7 0c0 0 0 3.5 0 3.5c-.2-.1-.5-.1-.9-.1c-1.4 0-2.3.7-2.5 1.8c-.1.3-.1.6-.1.8c-.01.05 0 6 0 6l-3.7 0c0 0 .04-7.87 0-7.9zm20.6 1.9c0 4.3-3.1 6.3-6.2 6.3c-3.5 0-6.1-2.3-6.1-6.1c0-3.8 2.5-6.2 6.3-6.2c3.6 0 6 2.5 6 6zm-8.5.1c0 2 .8 3.5 2.4 3.5c1.4 0 2.3-1.4 2.3-3.5c0-1.7-.7-3.5-2.3-3.5c-1.8 0-2.4 1.8-2.4 3.5zm10.7-2.1c0-1.5 0-2.7-.1-3.7c.02-.04 3.2 0 3.2 0l.2 1.6c0 0 .03-.03 0 0c.5-.8 1.7-1.9 3.7-1.9c2.4 0 4.2 1.6 4.2 5c-.05.04 0 7 0 7l-3.7 0c0 0 .01-6.5 0-6.5c0-1.5-.5-2.5-1.8-2.5c-1 0-1.6.6-1.9 1.3c-.1.2-.1.6-.1.9c-.03.03 0 6.8 0 6.8l-3.7 0c0 0 .02-7.99 0-8zm25.3-3.7c-.1.7-.1 1.7-.1 3.4c0 0 0 6.6 0 6.6c0 2.3-.5 4.1-1.8 5.3c-1.3 1.1-3 1.4-4.8 1.4c-1.5 0-3.1-.3-4.2-.9c0 0 .7-2.8.7-2.8c.8.5 2.1.9 3.4.9c1.8 0 3.1-.9 3.1-3.1c-.01.04 0-.7 0-.7c0 0-.05-.03-.1 0c-.6 1-1.8 1.5-3.1 1.5c-2.9 0-5-2.3-5-5.7c0-3.8 2.5-6.2 5.3-6.2c1.6 0 2.7.7 3.3 1.7c-.05-.04 0 0 0 0l.1-1.4c0 0 3.19-.04 3.2 0zm-3.8 4.7c0-.2 0-.4 0-.6c-.3-1-1-1.6-2-1.6c-1.3 0-2.4 1.2-2.4 3.3c0 1.7.9 3.1 2.4 3.1c.9 0 1.7-.6 1.9-1.5c.1-.2.1-.6.1-.9c0 0 0-1.8 0-1.8zm7 7l0-9l-1.5 0l0-2.7l1.5 0c0 0 .03-.49 0-.5c0-1.4.5-3 1.5-3.9c.9-.9 2.2-1.2 3.3-1.2c.8 0 1.4.1 1.9.2c0 0-.1 2.8-.1 2.8c-.4-.1-.7-.1-1.2-.1c-1.2 0-1.7.9-1.7 2.1c-.02-.04 0 .6 0 .6l2.3 0l0 2.7l-2.3 0l0 9l-3.7 0zm18.9-3.8c0 1.6 0 2.8.1 3.8c-.03 0-3.2 0-3.2 0l-.2-1.7c0 0-.04.04 0 0c-.5.8-1.6 2-3.7 2c-2.4 0-4.1-1.5-4.1-5.1c-.04-.05 0-6.9 0-6.9l3.6 0c0 0 .03 6.28 0 6.3c0 1.7.6 2.7 1.9 2.7c1 0 1.5-.7 1.8-1.3c.1-.2.1-.5.1-.8c0 .05 0-6.9 0-6.9l3.7 0c0 0-.03 7.93 0 7.9zm2.9-13.2l3.6 0l0 17l-3.6 0l0-17z" stroke="none" fill="#15345e"/></g></svg>