<?xml version="1.0" standalone="no"?><!DOCTYPE svg PUBLIC "-//W3C//DTD SVG 1.1//EN" "http://www.w3.org/Graphics/SVG/1.1/DTD/svg11.dtd"><svg xmlns="http://www.w3.org/2000/svg" version="1.1" width="382px" height="187.5px" viewBox="0 -12 382 187.5" style="top:-12px"><desc>The challenges in claiming Input Tax Credits?</desc><defs/><g id="Polygon5265"><path d="m9.7 115.8l0 33.7l-6.2 0l0-33.7l6.2 0zm7.1 16.6c0-2.8-.1-5.1-.2-7.3c0 .05 5.4 0 5.4 0l.3 3.7c0 0 .15 0 .1 0c1.1-1.9 3.7-4.2 7.8-4.2c4.2 0 8.6 2.8 8.6 10.5c.05-.05 0 14.4 0 14.4l-6.1 0c0 0 0-13.75 0-13.7c0-3.5-1.3-6.2-4.7-6.2c-2.4 0-4.1 1.8-4.8 3.6c-.2.6-.2 1.3-.2 2c0 0 0 14.3 0 14.3l-6.2 0c0 0 0-17.1 0-17.1zm28.6.9c0-3.3-.1-5.9-.2-8.2c0 .05 5.4 0 5.4 0l.3 3.8c0 0 .1 0 .1 0c1.8-2.8 4.6-4.3 8.3-4.3c5.6 0 10.3 4.8 10.3 12.4c0 8.8-5.6 13.1-11.1 13.1c-3.1 0-5.6-1.3-6.9-3.3c.05 0-.1 0-.1 0l0 12.6l-6.1 0c0 0 0-26.15 0-26.1zm6.1 6c0 .6.1 1.1.2 1.7c.6 2.5 2.8 4.3 5.4 4.3c3.9 0 6.2-3.3 6.2-8c0-4.4-2.1-7.9-6-7.9c-2.6 0-4.9 1.9-5.5 4.6c-.2.5-.3 1.1-.3 1.6c0 0 0 3.7 0 3.7zm44.9 2.9c0 2.9.1 5.3.2 7.3c.05 0-5.4 0-5.4 0l-.3-3.7c0 0-.05 0-.1 0c-1 1.7-3.4 4.3-7.8 4.3c-4.4 0-8.5-2.7-8.5-10.7c.05.05 0-14.3 0-14.3l6.2 0c0 0 0 13.3 0 13.3c0 4 1.3 6.6 4.5 6.6c2.5 0 4.1-1.7 4.7-3.2c.2-.6.4-1.2.4-2c0 .05 0-14.7 0-14.7l6.1 0c0 0 .05 17.1 0 17.1zm13.7-24l0 6.9l5.9 0l0 4.7l-5.9 0c0 0 .05 10.7 0 10.7c0 2.9.8 4.5 3.2 4.5c1 0 1.8-.2 2.4-.3c0 0 .1 4.7.1 4.7c-.9.4-2.5.6-4.5.6c-2.2 0-4.1-.7-5.3-2c-1.3-1.4-1.9-3.6-1.9-6.8c.05 0 0-11.4 0-11.4l-3.5 0l0-4.7l3.5 0l0-5.5l6-1.4zm24.9 2.7l-9.6 0l0-5.1l25.5 0l0 5.1l-9.7 0l0 28.6l-6.2 0l0-28.6zm30 28.6l-.4-2.7c0 0-.11 0-.1 0c-1.5 1.9-4.1 3.3-7.2 3.3c-4.9 0-7.7-3.6-7.7-7.3c0-6.2 5.5-9.2 14.5-9.2c0 0 0-.4 0-.4c0-1.6-.7-4.3-5-4.3c-2.4 0-4.9.8-6.5 1.9c0 0-1.2-4-1.2-4c1.8-1.2 4.9-2.2 8.8-2.2c7.8 0 10 4.9 10 10.2c0 0 0 8.9 0 8.9c0 2.1.1 4.3.4 5.8c-.01 0-5.6 0-5.6 0zm-.8-11.9c-4.3-.1-8.5.8-8.5 4.6c0 2.3 1.6 3.4 3.5 3.4c2.5 0 4.3-1.6 4.8-3.3c.2-.5.2-1 .2-1.4c0 0 0-3.3 0-3.3zm16.6-12.5c0 0 2.94 4.65 2.9 4.7c.8 1.2 1.5 2.5 2.2 3.7c0 0 .2 0 .2 0c.7-1.4 1.4-2.6 2.1-3.9c-.01.05 2.7-4.5 2.7-4.5l6.7 0l-8.2 11.7l8.3 12.7l-6.9 0c0 0-3.01-4.85-3-4.8c-.8-1.4-1.5-2.7-2.2-4c0 0-.1 0-.1 0c-.7 1.4-1.4 2.6-2.2 4c-.01-.05-2.8 4.8-2.8 4.8l-6.8 0l8.4-12.4l-8.1-12l6.8 0zm54.7 23.4c-1.4.8-4.6 1.5-8.7 1.5c-10.7 0-17.2-6.7-17.2-17c0-11.1 7.7-17.7 18-17.7c4.1 0 7 .8 8.2 1.5c0 0-1.3 4.8-1.3 4.8c-1.6-.7-3.8-1.2-6.6-1.2c-6.9 0-11.8 4.2-11.8 12.4c0 7.3 4.3 12.1 11.7 12.1c2.5 0 5.1-.5 6.7-1.2c0 0 1 4.8 1 4.8zm4.9-15.5c0-3.3-.1-5.6-.2-7.9c-.01.05 5.3 0 5.3 0l.2 4.7c0 0 .24 0 .2 0c1.2-3.4 4.1-5.2 6.7-5.2c.6 0 .9 0 1.4.2c0 0 0 5.7 0 5.7c-.5-.1-1-.1-1.8-.1c-2.9 0-4.9 1.9-5.5 4.6c-.1.6-.2 1.2-.2 1.9c.04 0 0 12.6 0 12.6l-6.1 0c0 0-.01-16.5 0-16.5zm21.7 6.1c.1 4.3 3.6 6.2 7.5 6.2c2.8 0 4.9-.4 6.7-1c0 0 .9 4.2.9 4.2c-2.1.8-5 1.5-8.5 1.5c-7.9 0-12.5-4.8-12.5-12.3c0-6.8 4.1-13.1 11.9-13.1c7.9 0 10.5 6.5 10.5 11.8c0 1.2-.1 2.1-.2 2.7c0 0-16.3 0-16.3 0zm10.7-4.3c0-2.3-1-6-5.1-6c-3.8 0-5.4 3.5-5.6 6c0 0 10.7 0 10.7 0zm33.2-20.8c0 0-.01 28.65 0 28.7c0 2.5.1 5.2.2 6.8c-.01 0-5.5 0-5.5 0l-.3-3.9c0 0-.06.05-.1 0c-1.4 2.8-4.4 4.5-7.9 4.5c-5.8 0-10.4-5-10.4-12.5c-.1-8.2 5-13 10.9-13c3.3 0 5.7 1.4 6.8 3.2c.04 0 .1 0 .1 0l0-13.8l6.2 0zm-6.2 21.3c0-.5 0-1.1-.1-1.6c-.6-2.4-2.5-4.3-5.3-4.3c-4 0-6.2 3.5-6.2 8c0 4.4 2.2 7.7 6.1 7.7c2.5 0 4.7-1.7 5.3-4.3c.2-.6.2-1.2.2-1.9c0 0 0-3.6 0-3.6zm12.8 14.2l0-24.4l6.2 0l0 24.4l-6.2 0zm6.5-31.1c0 1.8-1.3 3.2-3.5 3.2c-2 0-3.4-1.4-3.4-3.2c0-1.9 1.4-3.4 3.5-3.4c2.1 0 3.4 1.5 3.4 3.4zm13.3-.2l0 6.9l5.9 0l0 4.7l-5.9 0c0 0 .04 10.7 0 10.7c0 2.9.8 4.5 3.2 4.5c1 0 1.8-.2 2.4-.3c0 0 .1 4.7.1 4.7c-.9.4-2.5.6-4.5.6c-2.2 0-4.1-.7-5.3-2c-1.3-1.4-1.9-3.6-1.9-6.8c.04 0 0-11.4 0-11.4l-3.5 0l0-4.7l3.5 0l0-5.5l6-1.4zm10.2 25.6c1.4.9 4.1 1.8 6.3 1.8c2.7 0 3.9-1.1 3.9-2.7c0-1.6-1-2.5-4-3.6c-4.8-1.6-6.8-4.2-6.7-7c0-4.4 3.5-7.7 9.2-7.7c2.7 0 5 .7 6.4 1.4c0 0-1.2 4.4-1.2 4.4c-1-.6-3-1.4-5.1-1.4c-2.2 0-3.4 1-3.4 2.5c0 1.6 1.1 2.3 4.2 3.4c4.4 1.7 6.5 3.9 6.5 7.5c0 4.4-3.4 7.6-9.9 7.6c-2.9 0-5.6-.7-7.4-1.7c0 0 1.2-4.5 1.2-4.5zm24.9-4.6c0 0-.11-1.3-.1-1.3c-.3-2.6.6-5.4 3-8.2c1.9-2.3 3.1-4 3.1-5.9c0-2.2-1.3-3.5-4.1-3.6c-1.7 0-3.7.6-5 1.5c0 0-1.5-4.4-1.5-4.4c1.8-1.2 4.7-2 7.9-2c6.2 0 9 3.6 9 7.6c0 3.5-2.2 6-4.3 8.5c-2 2.3-2.8 4.4-2.7 6.7c.04.05.1 1.1.1 1.1l-5.4 0zm-1.3 6.9c0-2.3 1.6-3.8 3.8-3.8c2.3 0 3.8 1.5 3.8 3.8c0 2.3-1.5 4-3.8 4c-2.2 0-3.8-1.7-3.8-4z" stroke="none" fill="#fff"/></g><g id="Polygon5264"><path d="m75.4 93.5l0-24.4l6.2 0l0 24.4l-6.2 0zm6.5-31.1c0 1.8-1.3 3.2-3.5 3.2c-2 0-3.4-1.4-3.4-3.2c0-1.9 1.4-3.4 3.5-3.4c2.1 0 3.4 1.5 3.4 3.4zm6.3 14c0-2.8-.1-5.1-.2-7.3c0 .05 5.4 0 5.4 0l.3 3.7c0 0 .15 0 .1 0c1.1-1.9 3.7-4.2 7.8-4.2c4.2 0 8.6 2.8 8.6 10.5c.05-.05 0 14.4 0 14.4l-6.1 0c0 0 0-13.75 0-13.7c0-3.5-1.3-6.2-4.7-6.2c-2.4 0-4.1 1.8-4.8 3.6c-.2.6-.2 1.3-.2 2c0 0 0 14.3 0 14.3l-6.2 0c0 0 0-17.1 0-17.1zm56.8 16.4c-1.3.5-3.8 1.2-6.9 1.2c-7.6 0-12.5-4.8-12.5-12.4c0-7.3 5-13 13.5-13c2.3 0 4.6.5 6 1.2c0 0-1.1 4.6-1.1 4.6c-1-.5-2.5-1-4.7-1c-4.7 0-7.5 3.5-7.4 7.9c0 5 3.2 7.9 7.4 7.9c2.2 0 3.7-.5 4.9-1c0 0 .8 4.6.8 4.6zm4.6-34.8l6.2 0l0 35.5l-6.2 0l0-35.5zm26.5 35.5l-.4-2.7c0 0-.11 0-.1 0c-1.5 1.9-4.1 3.3-7.2 3.3c-4.9 0-7.7-3.6-7.7-7.3c0-6.2 5.5-9.2 14.5-9.2c0 0 0-.4 0-.4c0-1.6-.7-4.3-5-4.3c-2.4 0-4.9.8-6.5 1.9c0 0-1.2-4-1.2-4c1.8-1.2 4.9-2.2 8.8-2.2c7.8 0 10 4.9 10 10.2c0 0 0 8.9 0 8.9c0 2.1.1 4.3.4 5.8c-.01 0-5.6 0-5.6 0zm-.8-11.9c-4.3-.1-8.5.8-8.5 4.6c0 2.3 1.6 3.4 3.5 3.4c2.5 0 4.3-1.6 4.8-3.3c.2-.5.2-1 .2-1.4c0 0 0-3.3 0-3.3zm12.5 11.9l0-24.4l6.2 0l0 24.4l-6.2 0zm6.6-31.1c0 1.8-1.4 3.2-3.5 3.2c-2.1 0-3.4-1.4-3.4-3.2c0-1.9 1.4-3.4 3.4-3.4c2.1 0 3.4 1.5 3.5 3.4zm6.2 14c0-2.8 0-5.1-.2-7.3c.04.05 5.3 0 5.3 0l.3 3.7c0 0 .14-.05.1 0c1.2-1.9 3.4-4.2 7.5-4.2c3.2 0 5.7 1.8 6.8 4.5c0 0 .1 0 .1 0c.8-1.3 1.8-2.3 3-3.1c1.3-.9 2.9-1.4 4.9-1.4c4 0 8.1 2.8 8.1 10.5c.04.05 0 14.4 0 14.4l-6 0c0 0 .04-13.45 0-13.4c0-4.1-1.4-6.5-4.3-6.5c-2.1 0-3.7 1.5-4.3 3.3c-.2.5-.3 1.3-.3 2c-.01 0 0 14.6 0 14.6l-6 0c0 0-.01-14.1 0-14.1c0-3.4-1.4-5.8-4.2-5.8c-2.3 0-3.9 1.8-4.4 3.5c-.3.6-.4 1.3-.4 2c.04 0 0 14.4 0 14.4l-6 0c0 0 .04-17.1 0-17.1zm42.4 17.1l0-24.4l6.2 0l0 24.4l-6.2 0zm6.6-31.1c0 1.8-1.4 3.2-3.5 3.2c-2.1 0-3.4-1.4-3.4-3.2c0-1.9 1.4-3.4 3.4-3.4c2.1 0 3.4 1.5 3.5 3.4zm6.2 14c0-2.8 0-5.1-.2-7.3c.04.05 5.4 0 5.4 0l.3 3.7c0 0 .19 0 .2 0c1-1.9 3.7-4.2 7.7-4.2c4.3 0 8.7 2.8 8.7 10.5c-.01-.05 0 14.4 0 14.4l-6.2 0c0 0 .04-13.75 0-13.7c0-3.5-1.3-6.2-4.6-6.2c-2.5 0-4.2 1.8-4.8 3.6c-.2.6-.3 1.3-.3 2c.04 0 0 14.3 0 14.3l-6.2 0c0 0 .04-17.1 0-17.1zm50.9-7.3c-.1 1.7-.2 3.7-.2 7c0 0 0 13.9 0 13.9c0 5.1-1.1 8.7-3.6 11c-2.6 2.3-6.1 2.9-9.4 2.9c-3.1 0-6.4-.6-8.5-1.9c0 0 1.3-4.6 1.3-4.6c1.6.9 4.2 1.8 7.1 1.8c4 0 7-2.1 7-7.3c.04-.05 0-2.1 0-2.1c0 0-.06-.05-.1 0c-1.4 2.1-3.9 3.5-7.1 3.5c-6 0-10.3-5-10.3-11.9c0-8 5.2-12.8 11-12.8c3.7 0 5.9 1.8 7.1 3.8c-.01 0 .1 0 .1 0l.2-3.3c0 0 5.39.05 5.4 0zm-6.4 9.8c0-.6 0-1.1-.2-1.6c-.6-2.3-2.4-4-5-4c-3.4 0-6 3-6 8c0 4.1 2.1 7.5 6 7.5c2.3 0 4.3-1.5 5-3.7c.1-.7.2-1.5.2-2.3c0 0 0-3.9 0-3.9z" stroke="none" fill="#fff"/></g><g id="Polygon5263"><path d="m39.8 8.9l-9.6 0l0-5.1l25.4 0l0 5.1l-9.7 0l0 28.6l-6.1 0l0-28.6zm19-6.9l6.2 0l0 14.5c0 0 .12 0 .1 0c.8-1.1 1.8-2.1 3.1-2.8c1.2-.7 2.6-1.1 4.2-1.1c4.1 0 8.5 2.8 8.5 10.5c-.03.05 0 14.4 0 14.4l-6.2 0c0 0 .02-13.65 0-13.7c0-3.5-1.3-6.2-4.7-6.2c-2.4 0-4.1 1.7-4.7 3.5c-.2.5-.3 1.2-.3 1.8c.02.05 0 14.6 0 14.6l-6.2 0l0-35.5zm33 25.1c.1 4.3 3.6 6.2 7.5 6.2c2.8 0 4.9-.4 6.7-1c0 0 .9 4.2.9 4.2c-2.1.8-5 1.5-8.5 1.5c-7.9 0-12.5-4.8-12.5-12.3c0-6.8 4.1-13.1 11.9-13.1c7.9 0 10.5 6.5 10.5 11.8c0 1.2-.1 2.1-.2 2.7c0 0-16.3 0-16.3 0zm10.7-4.3c0-2.3-1-6-5.1-6c-3.8 0-5.4 3.5-5.6 6c0 0 10.7 0 10.7 0zm39 14c-1.3.5-3.9 1.2-6.9 1.2c-7.6 0-12.6-4.8-12.6-12.4c0-7.3 5-13 13.6-13c2.2 0 4.5.5 5.9 1.2c0 0-1.1 4.6-1.1 4.6c-1-.5-2.4-1-4.6-1c-4.7 0-7.5 3.5-7.5 7.9c0 5 3.3 7.9 7.5 7.9c2.1 0 3.6-.5 4.8-1c0 0 .9 4.6.9 4.6zm4.5-34.8l6.2 0l0 14.5c0 0 .12 0 .1 0c.8-1.1 1.8-2.1 3.1-2.8c1.2-.7 2.6-1.1 4.2-1.1c4.1 0 8.5 2.8 8.5 10.5c-.03.05 0 14.4 0 14.4l-6.2 0c0 0 .02-13.65 0-13.7c0-3.5-1.3-6.2-4.7-6.2c-2.4 0-4.1 1.7-4.7 3.5c-.2.5-.3 1.2-.3 1.8c.02.05 0 14.6 0 14.6l-6.2 0l0-35.5zm42.3 35.5l-.4-2.7c0 0-.13 0-.1 0c-1.5 1.9-4.1 3.3-7.2 3.3c-4.9 0-7.7-3.6-7.7-7.3c0-6.2 5.5-9.2 14.5-9.2c0 0 0-.4 0-.4c0-1.6-.7-4.3-5-4.3c-2.4 0-4.9.8-6.5 1.9c0 0-1.2-4-1.2-4c1.8-1.2 4.9-2.2 8.8-2.2c7.8 0 10 4.9 10 10.2c0 0 0 8.9 0 8.9c0 2.1.1 4.3.4 5.8c-.03 0-5.6 0-5.6 0zm-.8-11.9c-4.3-.1-8.5.8-8.5 4.6c0 2.3 1.6 3.4 3.5 3.4c2.5 0 4.3-1.6 4.8-3.3c.2-.5.2-1 .2-1.4c0 0 0-3.3 0-3.3zm12.5-23.6l6.2 0l0 35.5l-6.2 0l0-35.5zm12.9 0l6.2 0l0 35.5l-6.2 0l0-35.5zm17.2 25.1c.1 4.3 3.6 6.2 7.5 6.2c2.8 0 4.9-.4 6.7-1c0 0 .9 4.2.9 4.2c-2.1.8-5 1.5-8.5 1.5c-7.9 0-12.5-4.8-12.5-12.3c0-6.8 4.1-13.1 11.9-13.1c7.9 0 10.5 6.5 10.5 11.8c0 1.2-.1 2.1-.2 2.7c0 0-16.3 0-16.3 0zm10.7-4.3c0-2.3-1-6-5.1-6c-3.8 0-5.4 3.5-5.6 6c0 0 10.7 0 10.7 0zm10.7-2.4c0-2.8 0-5.1-.2-7.3c.02.05 5.4 0 5.4 0l.3 3.7c0 0 .17 0 .2 0c1-1.9 3.7-4.2 7.7-4.2c4.3 0 8.7 2.8 8.7 10.5c-.03-.05 0 14.4 0 14.4l-6.2 0c0 0 .02-13.75 0-13.7c0-3.5-1.3-6.2-4.6-6.2c-2.5 0-4.2 1.8-4.8 3.6c-.2.6-.3 1.3-.3 2c.02 0 0 14.3 0 14.3l-6.2 0c0 0 .02-17.1 0-17.1zm50.9-7.3c-.1 1.7-.2 3.7-.2 7c0 0 0 13.9 0 13.9c0 5.1-1.1 8.7-3.6 11c-2.6 2.3-6.1 2.9-9.4 2.9c-3.1 0-6.4-.6-8.5-1.9c0 0 1.3-4.6 1.3-4.6c1.6.9 4.2 1.8 7.1 1.8c4 0 7-2.1 7-7.3c.02-.05 0-2.1 0-2.1c0 0-.08-.05-.1 0c-1.4 2.1-3.9 3.5-7.1 3.5c-6 0-10.3-5-10.3-11.9c0-8 5.2-12.8 11-12.8c3.7 0 5.9 1.8 7.1 3.8c-.03 0 .1 0 .1 0l.2-3.3c0 0 5.37.05 5.4 0zm-6.4 9.8c0-.6 0-1.1-.2-1.6c-.6-2.3-2.4-4-5-4c-3.4 0-6 3-6 8c0 4.1 2.1 7.5 6 7.5c2.3 0 4.3-1.5 5-3.7c.1-.7.2-1.5.2-2.3c0 0 0-3.9 0-3.9zm17.1 4.2c.2 4.3 3.6 6.2 7.5 6.2c2.9 0 4.9-.4 6.8-1c0 0 .9 4.2.9 4.2c-2.1.8-5 1.5-8.5 1.5c-7.9 0-12.6-4.8-12.6-12.3c0-6.8 4.1-13.1 11.9-13.1c7.9 0 10.5 6.5 10.5 11.8c0 1.2-.1 2.1-.2 2.7c0 0-16.3 0-16.3 0zm10.7-4.3c.1-2.3-.9-6-5-6c-3.8 0-5.4 3.5-5.7 6c0 0 10.7 0 10.7 0zm10.5 9c1.4.9 4 1.8 6.2 1.8c2.7 0 3.9-1.1 3.9-2.7c0-1.6-1-2.5-4-3.6c-4.7-1.6-6.7-4.2-6.7-7c0-4.4 3.6-7.7 9.2-7.7c2.7 0 5.1.7 6.5 1.4c0 0-1.2 4.4-1.2 4.4c-1.1-.6-3-1.4-5.2-1.4c-2.2 0-3.4 1-3.4 2.5c0 1.6 1.2 2.3 4.3 3.4c4.4 1.7 6.4 3.9 6.5 7.5c0 4.4-3.5 7.6-9.9 7.6c-3 0-5.6-.7-7.4-1.7c0 0 1.2-4.5 1.2-4.5z" stroke="none" fill="#fff"/></g></svg>