<?xml version="1.0" standalone="no"?><!DOCTYPE svg PUBLIC "-//W3C//DTD SVG 1.1//EN" "http://www.w3.org/Graphics/SVG/1.1/DTD/svg11.dtd"><svg xmlns="http://www.w3.org/2000/svg" version="1.1" width="430.4px" height="275px" viewBox="0 -7 430.4 275" style="top:-7px"><desc>Two-way communication between ERP &amp; portal Robust reconciliation engine Automated notifications for mismatches/invoic...</desc><defs/><g id="Polygon8519"><path d="m28.9 239.5c0-1.8-.1-3.4-.2-4.8c.04 0 2.5 0 2.5 0l.1 3c0 0 .11.03.1 0c.7-2 2.4-3.3 4.3-3.3c.3 0 .5 0 .8 0c0 0 0 2.7 0 2.7c-.3-.1-.6-.1-1-.1c-2 0-3.4 1.5-3.7 3.6c-.1.4-.2.8-.2 1.3c.03 0 0 8.2 0 8.2l-2.7 0c0 0-.04-10.59 0-10.6zm11.6 3.4c.1 3.8 2.5 5.4 5.3 5.4c2 0 3.2-.4 4.3-.8c0 0 .4 2 .4 2c-.9.4-2.6.9-5.1.9c-4.7 0-7.6-3.1-7.6-7.7c0-4.7 2.8-8.3 7.3-8.3c5 0 6.3 4.4 6.3 7.2c0 .6 0 1-.1 1.3c0 0-10.8 0-10.8 0zm8.2-2c.1-1.8-.7-4.5-3.9-4.5c-2.8 0-4 2.6-4.2 4.5c0 0 8.1 0 8.1 0zm6.2-1.2c0-1.9-.1-3.5-.1-5c-.02 0 2.5 0 2.5 0l.1 2.6c0 0 .09.05.1 0c1.1-1.8 3-2.9 5.5-2.9c3.7 0 6.5 3.1 6.5 7.8c0 5.5-3.4 8.3-7 8.3c-2 0-3.8-.9-4.8-2.5c.05.05 0 0 0 0l0 8.4l-2.8 0c0 0 .01-16.66 0-16.7zm2.8 4.1c0 .5 0 .8.1 1.2c.5 1.9 2.2 3.3 4.2 3.3c3 0 4.7-2.4 4.7-6c0-3.1-1.6-5.7-4.6-5.7c-1.9 0-3.7 1.4-4.2 3.5c-.1.3-.2.7-.2 1.1c0 0 0 2.6 0 2.6zm29.3-1.5c0 5.7-4 8.2-7.7 8.2c-4.2 0-7.4-3.1-7.4-8c0-5.1 3.4-8.1 7.7-8.1c4.4 0 7.4 3.2 7.4 7.9zm-12.2.1c0 3.4 1.9 6 4.6 6c2.7 0 4.7-2.5 4.7-6c0-2.6-1.3-5.9-4.6-5.9c-3.3 0-4.7 3-4.7 5.9zm15.7-2.9c0-1.8 0-3.4-.1-4.8c-.01 0 2.4 0 2.4 0l.1 3c0 0 .16.03.2 0c.7-2 2.4-3.3 4.2-3.3c.3 0 .6 0 .8 0c0 0 0 2.7 0 2.7c-.3-.1-.5-.1-.9-.1c-2 0-3.4 1.5-3.8 3.6c-.1.4-.1.8-.1 1.3c-.01 0 0 8.2 0 8.2l-2.8 0c0 0 .02-10.59 0-10.6zm14.6-9.2l0 4.4l4 0l0 2.1l-4 0c0 0-.03 8.35 0 8.3c0 2 .5 3 2.1 3c.7 0 1.2-.1 1.6-.1c0 0 .1 2.1.1 2.1c-.5.2-1.4.3-2.5.3c-1.3 0-2.3-.4-3-1.1c-.8-.9-1.1-2.2-1.1-4.1c.03.05 0-8.4 0-8.4l-2.4 0l0-2.1l2.4 0l0-3.7l2.8-.7zm8.5 12.6c.1 3.8 2.5 5.4 5.3 5.4c2 0 3.2-.4 4.3-.8c0 0 .4 2 .4 2c-1 .4-2.6.9-5.1.9c-4.7 0-7.6-3.1-7.6-7.7c0-4.7 2.8-8.3 7.3-8.3c5 0 6.3 4.4 6.3 7.2c0 .6 0 1-.1 1.3c0 0-10.8 0-10.8 0zm8.2-2c.1-1.8-.7-4.5-3.9-4.5c-2.8 0-4 2.6-4.3 4.5c0 0 8.2 0 8.2 0zm19.5-13.4c0 0 .01 18.64 0 18.6c0 1.4 0 3 .1 4c.04.02-2.5 0-2.5 0l-.1-2.7c0 0-.07.04-.1 0c-.8 1.8-2.7 3.1-5.2 3.1c-3.8 0-6.6-3.2-6.6-7.9c-.1-5.1 3.1-8.2 6.9-8.2c2.3 0 3.9 1.1 4.6 2.3c.04.01.1 0 .1 0l0-9.2l2.8 0zm-2.8 13.5c0-.4 0-.9-.1-1.2c-.4-1.8-2-3.2-4.1-3.2c-2.9 0-4.6 2.5-4.6 5.9c0 3.1 1.5 5.7 4.6 5.7c1.8 0 3.6-1.2 4.1-3.3c.1-.4.1-.8.1-1.2c0 0 0-2.7 0-2.7z" stroke="none" fill="#3c3c3b"/></g><g id="Polygon8518"><path d="m28.9 196.4c0-1.6-.1-2.9-.2-4.2c.04.04 2.5 0 2.5 0l.1 2.5c0 0 .11.03.1 0c.9-1.4 2.3-2.8 4.9-2.8c2.1 0 3.6 1.3 4.3 3.1c0 0 .1 0 .1 0c.5-.9 1.1-1.5 1.7-2c.9-.7 1.9-1.1 3.4-1.1c2 0 5.1 1.3 5.1 6.7c-.03-.02 0 9.1 0 9.1l-2.8 0c0 0 .03-8.77 0-8.8c0-2.9-1.1-4.7-3.3-4.7c-1.6 0-2.8 1.2-3.3 2.5c-.2.4-.2.9-.2 1.4c-.05.03 0 9.6 0 9.6l-2.8 0c0 0 .01-9.28 0-9.3c0-2.4-1.1-4.2-3.2-4.2c-1.8 0-3 1.4-3.5 2.8c-.1.4-.2.9-.2 1.4c0-.04 0 9.3 0 9.3l-2.7 0c0 0-.04-11.28 0-11.3zm26.5 11.3l0-15.5l2.8 0l0 15.5l-2.8 0zm3.1-19.8c.1 1-.6 1.7-1.7 1.7c-1 0-1.7-.7-1.7-1.7c0-1 .7-1.7 1.7-1.7c1.1 0 1.7.7 1.7 1.7zm4 16.9c.8.5 2.3 1.1 3.7 1.1c2 0 3-1 3-2.3c0-1.3-.8-2.1-2.9-2.8c-2.8-1-4.1-2.5-4.1-4.4c0-2.5 2-4.5 5.4-4.5c1.5 0 2.9.4 3.7.9c0 0-.7 2.1-.7 2.1c-.6-.4-1.7-.9-3.1-.9c-1.7 0-2.6 1-2.6 2.1c0 1.3.9 1.8 2.9 2.6c2.7 1 4.1 2.4 4.1 4.7c0 2.7-2.1 4.6-5.8 4.6c-1.7 0-3.2-.4-4.3-1.1c0 0 .7-2.1.7-2.1zm13-8.4c0-1.6 0-2.9-.1-4.2c-.04.04 2.4 0 2.4 0l.1 2.5c0 0 .13.03.1 0c.9-1.4 2.3-2.8 4.9-2.8c2.1 0 3.7 1.3 4.3 3.1c0 0 .1 0 .1 0c.5-.9 1.1-1.5 1.7-2c.9-.7 2-1.1 3.4-1.1c2.1 0 5.1 1.3 5.1 6.7c-.01-.02 0 9.1 0 9.1l-2.7 0c0 0-.05-8.77 0-8.8c0-2.9-1.1-4.7-3.4-4.7c-1.6 0-2.8 1.2-3.3 2.5c-.1.4-.2.9-.2 1.4c-.03.03 0 9.6 0 9.6l-2.8 0c0 0 .03-9.28 0-9.3c0-2.4-1-4.2-3.2-4.2c-1.7 0-3 1.4-3.5 2.8c-.1.4-.2.9-.2 1.4c.02-.04 0 9.3 0 9.3l-2.7 0c0 0-.02-11.28 0-11.3zm35.1 11.3l-.2-2c0 0-.14.01-.1 0c-.9 1.2-2.6 2.3-4.8 2.3c-3.1 0-4.7-2.2-4.7-4.4c0-3.7 3.3-5.8 9.3-5.8c0 0 0-.3 0-.3c0-1.2-.3-3.5-3.5-3.5c-1.4 0-2.9.4-4 1.1c0 0-.7-1.8-.7-1.8c1.3-.9 3.2-1.4 5.1-1.4c4.7 0 5.9 3.2 5.9 6.3c0 0 0 5.8 0 5.8c0 1.3 0 2.6.2 3.7c.03-.04-2.5 0-2.5 0zm-.4-7.9c-3.1-.1-6.6.5-6.6 3.5c0 1.8 1.2 2.6 2.7 2.6c2 0 3.3-1.2 3.7-2.5c.1-.3.2-.6.2-.9c0 0 0-2.7 0-2.7zm10.4-12l0 4.4l4.1 0l0 2.2l-4.1 0c0 0 .04 8.29 0 8.3c0 1.9.6 3 2.1 3c.8 0 1.3-.1 1.7-.2c0 0 .1 2.1.1 2.1c-.5.2-1.4.4-2.5.4c-1.3 0-2.3-.4-3-1.2c-.8-.8-1.1-2.2-1.1-4c0-.02 0-8.4 0-8.4l-2.4 0l0-2.2l2.4 0l0-3.7l2.7-.7zm18 19.3c-.7.4-2.4.9-4.4.9c-4.7 0-7.7-3.2-7.7-7.9c0-4.7 3.2-8.2 8.3-8.2c1.6 0 3.1.4 3.9.8c0 0-.7 2.2-.7 2.2c-.6-.4-1.7-.7-3.2-.7c-3.6 0-5.5 2.6-5.5 5.8c0 3.5 2.3 5.7 5.4 5.7c1.6 0 2.6-.4 3.4-.7c0 0 .5 2.1.5 2.1zm3.3-22.1l2.8 0l0 9.7c0 0 .05-.04 0 0c.5-.8 1.2-1.5 2.1-2c.8-.5 1.8-.8 2.8-.8c2.1 0 5.4 1.3 5.4 6.6c0-.01 0 9.2 0 9.2l-2.8 0c0 0 0-8.9 0-8.9c0-2.5-.9-4.6-3.6-4.6c-1.8 0-3.2 1.3-3.7 2.8c-.2.4-.2.8-.2 1.4c-.02-.04 0 9.3 0 9.3l-2.8 0l0-22.7zm19.2 15.5c.1 3.7 2.5 5.3 5.3 5.3c2 0 3.2-.3 4.3-.8c0 0 .4 2 .4 2c-.9.5-2.6 1-5.1 1c-4.7 0-7.6-3.1-7.6-7.8c0-4.6 2.8-8.3 7.3-8.3c5 0 6.3 4.4 6.3 7.3c0 .5 0 1-.1 1.3c0 0-10.8 0-10.8 0zm8.2-2c.1-1.8-.7-4.6-3.9-4.6c-2.8 0-4 2.6-4.3 4.6c0 0 8.2 0 8.2 0zm5.8 6.3c.9.5 2.3 1.1 3.7 1.1c2.1 0 3-1 3-2.3c0-1.3-.8-2.1-2.9-2.8c-2.7-1-4-2.5-4-4.4c0-2.5 2-4.5 5.3-4.5c1.6 0 2.9.4 3.8.9c0 0-.7 2.1-.7 2.1c-.6-.4-1.7-.9-3.2-.9c-1.6 0-2.6 1-2.6 2.1c0 1.3 1 1.8 3 2.6c2.7 1 4 2.4 4 4.7c0 2.7-2.1 4.6-5.7 4.6c-1.7 0-3.3-.4-4.4-1.1c0 0 .7-2.1.7-2.1zm10.7 4.1l8.8-23.1l2.2 0l-8.9 23.1l-2.1 0zm13.2-1.2l0-15.5l2.8 0l0 15.5l-2.8 0zm3.2-19.8c0 1-.7 1.7-1.8 1.7c-1 0-1.7-.7-1.7-1.7c0-1 .7-1.7 1.7-1.7c1.1 0 1.8.7 1.8 1.7zm4.3 8.5c0-1.6 0-2.9-.1-4.2c-.03.04 2.5 0 2.5 0l.1 2.6c0 0 .08-.01.1 0c.7-1.5 2.5-2.9 5.1-2.9c2.1 0 5.4 1.3 5.4 6.6c.02-.05 0 9.2 0 9.2l-2.8 0c0 0 .01-8.93 0-8.9c0-2.5-.9-4.6-3.6-4.6c-1.8 0-3.2 1.3-3.7 2.9c-.1.3-.2.8-.2 1.3c0-.01 0 9.3 0 9.3l-2.8 0c0 0 0-11.28 0-11.3zm18.3-4.2c0 0 3.06 8.71 3.1 8.7c.5 1.4.9 2.7 1.2 4c0 0 .1 0 .1 0c.4-1.3.8-2.6 1.3-4c.01.01 3-8.7 3-8.7l2.9 0l-6 15.5l-2.7 0l-5.9-15.5l3 0zm27.9 7.6c0 5.7-3.9 8.2-7.7 8.2c-4.1 0-7.4-3.1-7.4-7.9c0-5.2 3.4-8.2 7.7-8.2c4.4 0 7.4 3.2 7.4 7.9zm-12.2.2c0 3.4 1.9 5.9 4.7 5.9c2.6 0 4.6-2.5 4.6-6c0-2.6-1.3-5.9-4.6-5.9c-3.3 0-4.7 3.1-4.7 6zm15.7 7.7l0-15.5l2.8 0l0 15.5l-2.8 0zm3.2-19.8c0 1-.7 1.7-1.8 1.7c-1 0-1.7-.7-1.7-1.7c0-1 .7-1.7 1.7-1.7c1.1 0 1.8.7 1.8 1.7zm15.3 19.2c-.8.4-2.4.9-4.4.9c-4.7 0-7.7-3.2-7.7-7.9c0-4.7 3.2-8.2 8.3-8.2c1.6 0 3.1.4 3.8.8c0 0-.6 2.2-.6 2.2c-.7-.4-1.7-.7-3.2-.7c-3.6 0-5.5 2.6-5.5 5.8c0 3.5 2.3 5.7 5.4 5.7c1.6 0 2.6-.4 3.4-.7c0 0 .5 2.1.5 2.1zm4.6-6.6c.1 3.7 2.5 5.3 5.3 5.3c2 0 3.2-.3 4.3-.8c0 0 .5 2 .5 2c-1 .5-2.7 1-5.2 1c-4.7 0-7.5-3.1-7.5-7.8c0-4.6 2.7-8.3 7.2-8.3c5 0 6.3 4.4 6.3 7.3c0 .5 0 1 0 1.3c0 0-10.9 0-10.9 0zm8.2-2c.1-1.8-.7-4.6-3.8-4.6c-2.9 0-4.1 2.6-4.3 4.6c0 0 8.1 0 8.1 0zm5.8 6.3c.9.5 2.3 1.1 3.7 1.1c2.1 0 3-1 3-2.3c0-1.3-.8-2.1-2.8-2.8c-2.8-1-4.1-2.5-4.1-4.4c0-2.5 2-4.5 5.3-4.5c1.6 0 2.9.4 3.8.9c0 0-.7 2.1-.7 2.1c-.6-.4-1.7-.9-3.2-.9c-1.6 0-2.5 1-2.5 2.1c0 1.3.9 1.8 2.9 2.6c2.7 1 4 2.4 4 4.7c0 2.7-2.1 4.6-5.7 4.6c-1.7 0-3.3-.4-4.4-1.1c0 0 .7-2.1.7-2.1zm19.8-8.4c0-1.6 0-2.9-.1-4.2c-.05.04 2.4 0 2.4 0l.2 2.6c0 0 .06-.01.1 0c.7-1.5 2.5-2.9 5.1-2.9c2.1 0 5.4 1.3 5.4 6.6c0-.05 0 9.2 0 9.2l-2.8 0c0 0 0-8.93 0-8.9c0-2.5-.9-4.6-3.6-4.6c-1.8 0-3.2 1.3-3.7 2.9c-.2.3-.2.8-.2 1.3c-.02-.01 0 9.3 0 9.3l-2.8 0c0 0-.02-11.28 0-11.3zm31.6 3.4c0 5.7-3.9 8.2-7.7 8.2c-4.1 0-7.4-3.1-7.4-7.9c0-5.2 3.4-8.2 7.7-8.2c4.4 0 7.4 3.2 7.4 7.9zm-12.2.2c0 3.4 1.9 5.9 4.7 5.9c2.6 0 4.6-2.5 4.6-6c0-2.6-1.3-5.9-4.6-5.9c-3.3 0-4.7 3.1-4.7 6zm19.1-12.2l0 4.4l4 0l0 2.2l-4 0c0 0 .01 8.29 0 8.3c0 1.9.6 3 2.1 3c.7 0 1.3-.1 1.6-.2c0 0 .2 2.1.2 2.1c-.6.2-1.4.4-2.5.4c-1.3 0-2.4-.4-3-1.2c-.8-.8-1.1-2.2-1.1-4c-.02-.02 0-8.4 0-8.4l-2.4 0l0-2.2l2.4 0l0-3.7l2.7-.7z" stroke="none" fill="#3c3c3b"/></g><g id="Polygon8517"><path d="m1.1 156.9c0-1.9 1.5-3.4 3.4-3.4c1.8 0 3.3 1.5 3.3 3.4c0 1.8-1.4 3.3-3.3 3.3c-1.9 0-3.4-1.4-3.4-3.3zm31.3 1.5l-2.2 6.8l-2.9 0l7.3-21.5l3.4 0l7.3 21.5l-3 0l-2.3-6.8l-7.6 0zm7.1-2.1c0 0-2.13-6.2-2.1-6.2c-.5-1.4-.8-2.7-1.1-3.9c0 0-.1 0-.1 0c-.3 1.3-.7 2.6-1.1 3.9c0-.03-2.1 6.2-2.1 6.2l6.5 0zm21.4 4.7c0 1.6 0 3 .1 4.2c0 0-2.5 0-2.5 0l-.1-2.5c0 0-.11-.02-.1 0c-.7 1.2-2.4 2.8-5.1 2.8c-2.4 0-5.3-1.3-5.3-6.7c-.03-.01 0-9 0-9l2.8 0c0 0-.02 8.52 0 8.5c0 2.9.9 4.9 3.4 4.9c1.9 0 3.2-1.3 3.7-2.5c.2-.4.3-.9.3-1.5c-.03.04 0-9.4 0-9.4l2.8 0c0 0-.03 11.19 0 11.2zm8-15.6l0 4.4l4 0l0 2.1l-4 0c0 0-.01 8.33 0 8.3c0 1.9.5 3 2.1 3c.7 0 1.3-.1 1.6-.2c0 0 .1 2.1.1 2.1c-.5.3-1.4.4-2.4.4c-1.3 0-2.4-.4-3.1-1.2c-.8-.8-1-2.2-1-4c-.05.02 0-8.4 0-8.4l-2.4 0l0-2.1l2.4 0l0-3.7l2.7-.7zm20.9 12c0 5.7-3.9 8.1-7.7 8.1c-4.1 0-7.3-3-7.3-7.9c0-5.1 3.3-8.2 7.6-8.2c4.4 0 7.4 3.2 7.4 8zm-12.2.1c0 3.4 1.9 5.9 4.7 5.9c2.6 0 4.6-2.5 4.6-5.9c0-2.7-1.3-6-4.6-6c-3.3 0-4.7 3.1-4.7 6zm15.7-3.5c0-1.6 0-2.9-.1-4.2c.02-.02 2.5 0 2.5 0l.1 2.5c0 0 .1-.03.1 0c.9-1.5 2.3-2.9 4.8-2.9c2.1 0 3.7 1.3 4.4 3.1c0 0 .1 0 .1 0c.4-.8 1-1.5 1.7-2c.9-.7 1.9-1.1 3.4-1.1c2 0 5.1 1.4 5.1 6.7c-.04.02 0 9.1 0 9.1l-2.8 0c0 0 .02-8.73 0-8.7c0-3-1.1-4.8-3.3-4.8c-1.6 0-2.9 1.2-3.3 2.6c-.2.4-.3.9-.3 1.4c.04-.03 0 9.5 0 9.5l-2.7 0c0 0 0-9.24 0-9.2c0-2.5-1.1-4.3-3.2-4.3c-1.8 0-3 1.4-3.5 2.8c-.1.4-.2.9-.2 1.4c-.01 0 0 9.3 0 9.3l-2.8 0c0 0 .05-11.25 0-11.2zm35.1 11.2l-.2-1.9c0 0-.07-.05-.1 0c-.8 1.2-2.5 2.2-4.7 2.2c-3.1 0-4.7-2.2-4.7-4.4c0-3.7 3.3-5.7 9.3-5.7c0 0 0-.3 0-.3c0-1.3-.4-3.6-3.5-3.6c-1.5 0-3 .4-4 1.1c0 0-.7-1.8-.7-1.8c1.3-.8 3.1-1.4 5.1-1.4c4.7 0 5.8 3.2 5.8 6.3c0 0 0 5.8 0 5.8c0 1.3.1 2.6.3 3.7c-.01 0-2.6 0-2.6 0zm-.4-7.9c-3 0-6.5.5-6.5 3.5c0 1.8 1.2 2.7 2.6 2.7c2.1 0 3.3-1.3 3.8-2.6c.1-.3.1-.6.1-.9c0 0 0-2.7 0-2.7zm10.5-11.9l0 4.4l4 0l0 2.1l-4 0c0 0 .01 8.33 0 8.3c0 1.9.5 3 2.1 3c.7 0 1.3-.1 1.6-.2c0 0 .2 2.1.2 2.1c-.6.3-1.4.4-2.5.4c-1.3 0-2.4-.4-3-1.2c-.8-.8-1.1-2.2-1.1-4c-.03.02 0-8.4 0-8.4l-2.4 0l0-2.1l2.4 0l0-3.7l2.7-.7zm8.5 12.6c.1 3.8 2.5 5.3 5.3 5.3c2 0 3.2-.3 4.3-.7c0 0 .5 2 .5 2c-1 .4-2.7.9-5.2.9c-4.7 0-7.5-3.1-7.5-7.8c0-4.6 2.7-8.3 7.2-8.3c5 0 6.4 4.5 6.4 7.3c0 .6-.1 1-.1 1.3c0 0-10.9 0-10.9 0zm8.3-2c0-1.8-.8-4.6-3.9-4.6c-2.9 0-4.1 2.6-4.3 4.6c0 0 8.2 0 8.2 0zm19.4-13.4c0 0 .05 18.62 0 18.6c0 1.4.1 2.9.2 4c-.03 0-2.5 0-2.5 0l-.2-2.7c0 0-.03.02 0 0c-.9 1.7-2.8 3-5.3 3c-3.7 0-6.6-3.1-6.6-7.8c0-5.1 3.2-8.3 6.9-8.3c2.4 0 4 1.1 4.7 2.4c-.02-.01 0 0 0 0l0-9.2l2.8 0zm-2.8 13.5c0-.4 0-.9-.1-1.2c-.4-1.8-1.9-3.3-4-3.3c-2.9 0-4.6 2.6-4.6 6c0 3.1 1.5 5.7 4.5 5.7c1.9 0 3.6-1.3 4.1-3.4c.1-.3.1-.7.1-1.2c0 0 0-2.6 0-2.6zm14.2-2.1c0-1.6 0-2.9-.1-4.2c.02-.02 2.5 0 2.5 0l.2 2.5c0 0 .03.03 0 0c.8-1.4 2.6-2.9 5.1-2.9c2.2 0 5.5 1.3 5.5 6.6c-.03-.01 0 9.2 0 9.2l-2.8 0c0 0-.03-8.89 0-8.9c0-2.5-1-4.5-3.6-4.5c-1.8 0-3.3 1.3-3.8 2.8c-.1.4-.2.9-.2 1.3c.05.03 0 9.3 0 9.3l-2.8 0c0 0 .05-11.25 0-11.2zm31.7 3.4c0 5.7-4 8.1-7.7 8.1c-4.2 0-7.4-3-7.4-7.9c0-5.1 3.4-8.2 7.6-8.2c4.5 0 7.5 3.2 7.5 8zm-12.3.1c0 3.4 2 5.9 4.7 5.9c2.7 0 4.7-2.5 4.7-5.9c0-2.7-1.3-6-4.6-6c-3.3 0-4.8 3.1-4.8 6zm19.2-12.1l0 4.4l4 0l0 2.1l-4 0c0 0-.02 8.33 0 8.3c0 1.9.5 3 2.1 3c.7 0 1.3-.1 1.6-.2c0 0 .1 2.1.1 2.1c-.5.3-1.4.4-2.5.4c-1.3 0-2.3-.4-3-1.2c-.8-.8-1.1-2.2-1.1-4c.04.02 0-8.4 0-8.4l-2.3 0l0-2.1l2.3 0l0-3.7l2.8-.7zm7.1 19.8l0-15.4l2.8 0l0 15.4l-2.8 0zm3.2-19.7c0 .9-.7 1.7-1.8 1.7c-1 0-1.7-.8-1.7-1.7c0-1 .7-1.8 1.7-1.8c1.1 0 1.8.8 1.8 1.8zm4.6 19.7l0-13.3l-2.2 0l0-2.1l2.2 0c0 0-.02-.85 0-.8c0-4.1 2.4-6.8 6.7-6.8c1.4 0 3.1.5 3.9 1.1c0 0-.8 2.1-.8 2.1c-.6-.5-1.9-.9-3.2-.9c-3 0-3.8 2.1-3.8 4.5c-.05.02 0 .8 0 .8l8.9 0l0 15.4l-2.8 0l0-13.3l-6.1 0l0 13.3l-2.8 0zm27.3-.6c-.7.4-2.3.9-4.4.9c-4.6 0-7.7-3.1-7.7-7.9c0-4.7 3.3-8.1 8.3-8.1c1.7 0 3.1.4 3.9.8c0 0-.6 2.1-.6 2.1c-.7-.4-1.8-.7-3.3-.7c-3.5 0-5.4 2.6-5.4 5.8c0 3.6 2.3 5.8 5.3 5.8c1.6 0 2.7-.4 3.5-.8c0 0 .4 2.1.4 2.1zm11.9.6l-.3-1.9c0 0-.07-.05-.1 0c-.8 1.2-2.5 2.2-4.7 2.2c-3.1 0-4.7-2.2-4.7-4.4c0-3.7 3.3-5.7 9.3-5.7c0 0 0-.3 0-.3c0-1.3-.4-3.6-3.5-3.6c-1.5 0-3 .4-4 1.1c0 0-.7-1.8-.7-1.8c1.3-.8 3.1-1.4 5.1-1.4c4.7 0 5.8 3.2 5.8 6.3c0 0 0 5.8 0 5.8c0 1.3.1 2.6.3 3.7c0 0-2.5 0-2.5 0zm-.5-7.9c-3 0-6.5.5-6.5 3.5c0 1.8 1.2 2.7 2.7 2.7c2 0 3.2-1.3 3.7-2.6c.1-.3.1-.6.1-.9c0 0 0-2.7 0-2.7zm10.5-11.9l0 4.4l4 0l0 2.1l-4 0c0 0 .02 8.33 0 8.3c0 1.9.6 3 2.1 3c.8 0 1.3-.1 1.6-.2c0 0 .2 2.1.2 2.1c-.6.3-1.4.4-2.5.4c-1.3 0-2.4-.4-3-1.2c-.8-.8-1.1-2.2-1.1-4c-.02.02 0-8.4 0-8.4l-2.4 0l0-2.1l2.4 0l0-3.7l2.7-.7zm7.2 19.8l0-15.4l2.8 0l0 15.4l-2.8 0zm3.1-19.7c0 .9-.7 1.7-1.8 1.7c-1 0-1.7-.8-1.7-1.7c0-1 .8-1.8 1.8-1.8c1 0 1.7.8 1.7 1.8zm18.3 11.9c0 5.7-4 8.1-7.7 8.1c-4.2 0-7.4-3-7.4-7.9c0-5.1 3.4-8.2 7.7-8.2c4.4 0 7.4 3.2 7.4 8zm-12.2.1c0 3.4 1.9 5.9 4.6 5.9c2.7 0 4.7-2.5 4.7-5.9c0-2.7-1.3-6-4.6-6c-3.3 0-4.7 3.1-4.7 6zm15.7-3.5c0-1.6 0-2.9-.1-4.2c-.01-.02 2.5 0 2.5 0l.1 2.5c0 0 .1.03.1 0c.8-1.4 2.5-2.9 5.1-2.9c2.1 0 5.4 1.3 5.4 6.6c.04-.01 0 9.2 0 9.2l-2.8 0c0 0 .03-8.89 0-8.9c0-2.5-.9-4.5-3.5-4.5c-1.9 0-3.3 1.3-3.8 2.8c-.1.4-.2.9-.2 1.3c.02.03 0 9.3 0 9.3l-2.8 0c0 0 .02-11.25 0-11.2zm17.3 8.3c.8.6 2.3 1.1 3.7 1.1c2 0 3-1 3-2.2c0-1.4-.8-2.1-2.9-2.9c-2.7-1-4-2.5-4-4.3c0-2.5 2-4.6 5.3-4.6c1.5 0 2.9.5 3.8 1c0 0-.7 2-.7 2c-.6-.4-1.8-.9-3.2-.9c-1.6 0-2.6 1-2.6 2.1c0 1.3 1 1.9 3 2.6c2.6 1.1 4 2.4 4 4.7c0 2.7-2.1 4.6-5.8 4.6c-1.6 0-3.2-.4-4.3-1c0 0 .7-2.2.7-2.2zm20 2.9l0-13.3l-2.1 0l0-2.1l2.1 0c0 0 .04-.75 0-.7c0-2.2.5-4.2 1.8-5.4c1.1-1.1 2.5-1.5 3.8-1.5c1 0 1.8.3 2.4.5c0 0-.4 2.1-.4 2.1c-.4-.1-1-.3-1.8-.3c-2.4 0-3 2.1-3 4.5c.01-.05 0 .8 0 .8l3.7 0l0 2.1l-3.7 0l0 13.3l-2.8 0zm22.6-7.8c0 5.7-4 8.1-7.7 8.1c-4.2 0-7.4-3-7.4-7.9c0-5.1 3.4-8.2 7.7-8.2c4.4 0 7.4 3.2 7.4 8zm-12.2.1c0 3.4 1.9 5.9 4.6 5.9c2.7 0 4.7-2.5 4.7-5.9c0-2.7-1.3-6-4.6-6c-3.3 0-4.7 3.1-4.7 6zm15.7-2.9c0-1.8 0-3.4-.1-4.8c-.01-.02 2.4 0 2.4 0l.1 3c0 0 .17.01.2 0c.7-2.1 2.4-3.4 4.2-3.4c.4 0 .6.1.8.1c0 0 0 2.7 0 2.7c-.3-.1-.5-.1-.9-.1c-2 0-3.4 1.5-3.8 3.6c0 .4-.1.8-.1 1.3c-.01-.02 0 8.2 0 8.2l-2.8 0c0 0 .02-10.61 0-10.6z" stroke="none" fill="#3c3c3b"/></g><g id="Polygon8516"><path d="m1.1 107.5c0-1.9 1.5-3.4 3.4-3.4c1.8 0 3.3 1.5 3.3 3.3c0 1.9-1.4 3.4-3.3 3.4c-1.9 0-3.4-1.5-3.4-3.3zm27.9-12.9c1.4-.3 3.4-.5 5.3-.5c2.9 0 4.8.6 6.2 1.8c1.1 1 1.7 2.4 1.7 4.1c0 2.8-1.8 4.7-4.1 5.5c0 0 0 0 0 0c1.7.6 2.7 2.1 3.2 4.4c.7 3 1.2 5 1.6 5.9c0 0-2.8 0-2.8 0c-.4-.6-.9-2.5-1.5-5.2c-.6-2.9-1.7-4-4.3-4.1c.04-.03-2.6 0-2.6 0l0 9.3l-2.7 0c0 0-.04-21.21 0-21.2zm2.7 9.8c0 0 2.86-.03 2.9 0c2.9 0 4.8-1.7 4.8-4.1c0-2.8-2-4-4.9-4c-1.4 0-2.3.1-2.8.2c.03.04 0 7.9 0 7.9zm28.4 3.5c0 5.7-4 8.2-7.7 8.2c-4.2 0-7.4-3-7.4-7.9c0-5.2 3.4-8.2 7.7-8.2c4.4 0 7.4 3.2 7.4 7.9zm-12.3.2c0 3.4 2 5.9 4.7 5.9c2.7 0 4.7-2.5 4.7-6c0-2.6-1.3-5.9-4.6-5.9c-3.3 0-4.8 3.1-4.8 6zm15.7 7.7c0-1.1.1-2.6.1-4c.01-.01 0-18.6 0-18.6l2.8 0l0 9.6c0 0 .04.04 0 0c1-1.7 2.8-2.8 5.3-2.8c3.8 0 6.5 3.2 6.5 7.9c0 5.5-3.5 8.2-6.9 8.2c-2.2 0-4-.8-5.2-2.9c.02.02-.1 0-.1 0l-.1 2.6c0 0-2.42-.03-2.4 0zm2.9-6.2c0 .3 0 .7.1 1c.5 2 2.2 3.3 4.2 3.3c2.9 0 4.7-2.4 4.7-5.9c0-3.1-1.6-5.8-4.6-5.8c-1.9 0-3.7 1.3-4.3 3.5c0 .3-.1.7-.1 1.1c0 0 0 2.8 0 2.8zm28.2 2c0 1.6.1 3 .2 4.2c-.05-.03-2.5 0-2.5 0l-.2-2.5c0 0-.06-.05-.1 0c-.7 1.2-2.3 2.8-5.1 2.8c-2.4 0-5.3-1.3-5.3-6.7c.03-.03 0-9 0-9l2.8 0c0 0 .03 8.49 0 8.5c0 2.9.9 4.9 3.5 4.9c1.9 0 3.2-1.3 3.7-2.6c.1-.4.2-.9.2-1.4c.02.02 0-9.4 0-9.4l2.8 0c0 0 .02 11.17 0 11.2zm4.3 1.3c.8.5 2.3 1.1 3.7 1.1c2 0 3-1 3-2.3c0-1.3-.8-2-2.9-2.8c-2.8-1-4.1-2.5-4.1-4.4c0-2.5 2-4.5 5.4-4.5c1.5 0 2.9.5 3.7 1c0 0-.7 2-.7 2c-.6-.4-1.7-.9-3.1-.9c-1.7 0-2.6 1-2.6 2.1c0 1.3.9 1.9 2.9 2.6c2.7 1 4.1 2.4 4.1 4.7c0 2.7-2.1 4.6-5.8 4.6c-1.7 0-3.2-.4-4.3-1.1c0 0 .7-2.1.7-2.1zm16.4-17l0 4.5l4 0l0 2.1l-4 0c0 0-.04 8.3 0 8.3c0 1.9.5 3 2.1 3c.7 0 1.2-.1 1.6-.2c0 0 .1 2.1.1 2.1c-.5.2-1.4.4-2.5.4c-1.3 0-2.3-.4-3-1.2c-.8-.8-1.1-2.2-1.1-4c.02 0 0-8.4 0-8.4l-2.4 0l0-2.1l2.4 0l0-3.7l2.8-.8zm13.9 9.3c0-1.8-.1-3.4-.2-4.8c.05-.04 2.5 0 2.5 0l.1 3c0 0 .12-.02.1 0c.7-2.1 2.4-3.4 4.3-3.4c.3 0 .5 0 .8.1c0 0 0 2.6 0 2.6c-.3 0-.6 0-1 0c-1.9 0-3.3 1.4-3.7 3.5c-.1.4-.2.9-.2 1.4c.05-.05 0 8.2 0 8.2l-2.7 0c0 0-.03-10.63 0-10.6zm11.6 3.4c.1 3.8 2.5 5.3 5.3 5.3c2 0 3.2-.3 4.3-.8c0 0 .5 2 .5 2c-1 .5-2.7 1-5.2 1c-4.7 0-7.5-3.1-7.5-7.8c0-4.6 2.7-8.3 7.2-8.3c5 0 6.4 4.4 6.4 7.3c0 .5-.1 1-.1 1.3c0 0-10.9 0-10.9 0zm8.2-2c.1-1.8-.7-4.6-3.8-4.6c-2.9 0-4.1 2.6-4.3 4.6c0 0 8.1 0 8.1 0zm17.2 8.6c-.7.4-2.3.9-4.4.9c-4.7 0-7.7-3.2-7.7-7.9c0-4.7 3.3-8.2 8.3-8.2c1.6 0 3.1.5 3.9.8c0 0-.7 2.2-.7 2.2c-.6-.4-1.7-.7-3.2-.7c-3.5 0-5.5 2.6-5.5 5.8c0 3.6 2.3 5.8 5.4 5.8c1.6 0 2.6-.5 3.4-.8c0 0 .5 2.1.5 2.1zm17-7.3c0 5.7-3.9 8.2-7.6 8.2c-4.2 0-7.4-3-7.4-7.9c0-5.2 3.4-8.2 7.6-8.2c4.5 0 7.4 3.2 7.4 7.9zm-12.2.2c0 3.4 2 5.9 4.7 5.9c2.7 0 4.7-2.5 4.7-6c0-2.6-1.3-5.9-4.6-5.9c-3.3 0-4.8 3.1-4.8 6zm15.8-3.6c0-1.6 0-2.9-.1-4.1c-.04-.04 2.4 0 2.4 0l.2 2.5c0 0 .06 0 .1 0c.7-1.5 2.5-2.9 5.1-2.9c2.1 0 5.4 1.3 5.4 6.6c0-.03 0 9.2 0 9.2l-2.8 0c0 0 0-8.91 0-8.9c0-2.5-.9-4.6-3.6-4.6c-1.8 0-3.2 1.3-3.7 2.9c-.2.3-.2.8-.2 1.3c-.01 0 0 9.3 0 9.3l-2.8 0c0 0-.02-11.27 0-11.3zm28.6 10.7c-.7.4-2.3.9-4.4.9c-4.6 0-7.7-3.2-7.7-7.9c0-4.7 3.3-8.2 8.3-8.2c1.7 0 3.1.5 3.9.8c0 0-.6 2.2-.6 2.2c-.7-.4-1.7-.7-3.3-.7c-3.5 0-5.4 2.6-5.4 5.8c0 3.6 2.3 5.8 5.3 5.8c1.6 0 2.7-.5 3.5-.8c0 0 .4 2.1.4 2.1zm3.3.6l0-15.4l2.8 0l0 15.4l-2.8 0zm3.1-19.8c.1 1-.6 1.7-1.7 1.7c-1 0-1.7-.7-1.7-1.7c0-1 .7-1.7 1.7-1.7c1.1 0 1.7.7 1.7 1.7zm4.4-2.8l2.8 0l0 22.6l-2.8 0l0-22.6zm7.5 22.6l0-15.4l2.8 0l0 15.4l-2.8 0zm3.1-19.8c0 1-.7 1.7-1.8 1.7c-1 0-1.7-.7-1.7-1.7c0-1 .8-1.7 1.8-1.7c1 0 1.7.7 1.7 1.7zm12.9 19.8l-.2-2c0 0-.14.03-.1 0c-.9 1.2-2.6 2.3-4.8 2.3c-3.1 0-4.7-2.2-4.7-4.4c0-3.7 3.3-5.8 9.3-5.7c0 0 0-.4 0-.4c0-1.2-.4-3.5-3.5-3.5c-1.4 0-2.9.4-4 1.1c0 0-.7-1.8-.7-1.8c1.3-.9 3.2-1.4 5.1-1.4c4.7 0 5.9 3.2 5.9 6.3c0 0 0 5.8 0 5.8c0 1.3 0 2.6.2 3.7c.02-.03-2.5 0-2.5 0zm-.4-7.9c-3.1-.1-6.6.5-6.6 3.5c0 1.8 1.2 2.7 2.7 2.7c2 0 3.3-1.3 3.7-2.6c.1-.3.2-.6.2-.9c0 0 0-2.7 0-2.7zm10.4-12l0 4.5l4.1 0l0 2.1l-4.1 0c0 0 .04 8.3 0 8.3c0 1.9.6 3 2.1 3c.8 0 1.3-.1 1.7-.2c0 0 .1 2.1.1 2.1c-.5.2-1.4.4-2.5.4c-1.3 0-2.3-.4-3-1.2c-.8-.8-1.1-2.2-1.1-4c0 0 0-8.4 0-8.4l-2.4 0l0-2.1l2.4 0l0-3.7l2.7-.8zm7.2 19.9l0-15.4l2.8 0l0 15.4l-2.8 0zm3.1-19.8c.1 1-.6 1.7-1.8 1.7c-.9 0-1.6-.7-1.6-1.7c0-1 .7-1.7 1.7-1.7c1.1 0 1.7.7 1.7 1.7zm18.3 11.9c0 5.7-3.9 8.2-7.7 8.2c-4.1 0-7.4-3-7.4-7.9c0-5.2 3.4-8.2 7.7-8.2c4.4 0 7.4 3.2 7.4 7.9zm-12.2.2c0 3.4 1.9 5.9 4.7 5.9c2.6 0 4.6-2.5 4.6-6c0-2.6-1.3-5.9-4.6-5.9c-3.3 0-4.7 3.1-4.7 6zm15.7-3.6c0-1.6 0-2.9-.1-4.1c.01-.04 2.5 0 2.5 0l.2 2.5c0 0 .02 0 0 0c.8-1.5 2.6-2.9 5.1-2.9c2.1 0 5.5 1.3 5.5 6.6c-.04-.03 0 9.2 0 9.2l-2.8 0c0 0-.04-8.91 0-8.9c0-2.5-1-4.6-3.6-4.6c-1.9 0-3.3 1.3-3.8 2.9c-.1.3-.2.8-.2 1.3c.04 0 0 9.3 0 9.3l-2.8 0c0 0 .04-11.27 0-11.3zm26 4.1c.1 3.8 2.5 5.3 5.3 5.3c2 0 3.2-.3 4.3-.8c0 0 .5 2 .5 2c-1 .5-2.7 1-5.2 1c-4.7 0-7.5-3.1-7.5-7.8c0-4.6 2.7-8.3 7.2-8.3c5 0 6.3 4.4 6.3 7.3c0 .5 0 1 0 1.3c0 0-10.9 0-10.9 0zm8.2-2c.1-1.8-.7-4.6-3.8-4.6c-2.9 0-4.1 2.6-4.3 4.6c0 0 8.1 0 8.1 0zm6.2-2.1c0-1.6 0-2.9-.1-4.1c-.01-.04 2.5 0 2.5 0l.1 2.5c0 0 .1 0 .1 0c.8-1.5 2.5-2.9 5.1-2.9c2.1 0 5.4 1.3 5.4 6.6c.04-.03 0 9.2 0 9.2l-2.8 0c0 0 .04-8.91 0-8.9c0-2.5-.9-4.6-3.5-4.6c-1.9 0-3.3 1.3-3.8 2.9c-.1.3-.2.8-.2 1.3c.02 0 0 9.3 0 9.3l-2.8 0c0 0 .02-11.27 0-11.3zm31-4.1c-.1 1.1-.2 2.3-.2 4.2c0 0 0 8.9 0 8.9c0 3.6-.7 5.7-2.2 7.1c-1.4 1.4-3.6 1.8-5.6 1.8c-1.8 0-3.8-.4-5.1-1.2c0 0 .7-2.2.7-2.2c1 .7 2.6 1.2 4.5 1.2c2.9 0 5-1.5 5-5.4c.01.05 0-1.7 0-1.7c0 0-.06.03-.1 0c-.8 1.5-2.5 2.6-4.9 2.6c-3.8 0-6.5-3.2-6.5-7.5c0-5.2 3.4-8.2 6.9-8.2c2.7 0 4.2 1.4 4.8 2.7c.03-.02.1 0 .1 0l.1-2.3c0 0 2.47-.04 2.5 0zm-2.9 6c0-.4-.1-.9-.2-1.2c-.5-1.7-1.9-3-3.9-3c-2.7 0-4.6 2.3-4.6 5.8c0 3.1 1.5 5.6 4.6 5.6c1.7 0 3.2-1.1 3.9-2.9c.1-.5.2-1 .2-1.5c0 0 0-2.8 0-2.8zm7.2 9.4l0-15.4l2.8 0l0 15.4l-2.8 0zm3.1-19.8c.1 1-.6 1.7-1.8 1.7c-.9 0-1.6-.7-1.6-1.7c0-1 .7-1.7 1.7-1.7c1.1 0 1.7.7 1.7 1.7zm4.4 8.5c0-1.6-.1-2.9-.2-4.1c.03-.04 2.5 0 2.5 0l.2 2.5c0 0 .04 0 0 0c.8-1.5 2.6-2.9 5.1-2.9c2.2 0 5.5 1.3 5.5 6.6c-.02-.03 0 9.2 0 9.2l-2.8 0c0 0-.03-8.91 0-8.9c0-2.5-.9-4.6-3.6-4.6c-1.8 0-3.3 1.3-3.8 2.9c-.1.3-.1.8-.1 1.3c-.04 0 0 9.3 0 9.3l-2.8 0c0 0-.04-11.27 0-11.3zm19.2 4.1c.1 3.8 2.5 5.3 5.3 5.3c2 0 3.2-.3 4.2-.8c0 0 .5 2 .5 2c-1 .5-2.7 1-5.1 1c-4.8 0-7.6-3.1-7.6-7.8c0-4.6 2.8-8.3 7.2-8.3c5.1 0 6.4 4.4 6.4 7.3c0 .5-.1 1-.1 1.3c0 0-10.8 0-10.8 0zm8.2-2c0-1.8-.7-4.6-3.9-4.6c-2.8 0-4.1 2.6-4.3 4.6c0 0 8.2 0 8.2 0z" stroke="none" fill="#3c3c3b"/></g><g id="Polygon8515"><path d="m28.7 66.3c.1-1 .2-2.6.2-3.9c-.04-.04 0-18.7 0-18.7l2.7 0l0 9.7c0 0 .1.02.1 0c1-1.7 2.8-2.8 5.3-2.8c3.8 0 6.5 3.2 6.4 7.8c0 5.6-3.4 8.3-6.9 8.3c-2.2 0-4-.9-5.1-2.9c-.02 0-.1 0-.1 0l-.1 2.5c0 0-2.46.05-2.5 0zm2.9-6.1c0 .3.1.7.2 1c.5 1.9 2.1 3.3 4.2 3.3c2.9 0 4.6-2.4 4.6-6c0-3-1.5-5.7-4.5-5.7c-2 0-3.7 1.3-4.3 3.4c-.1.4-.2.8-.2 1.2c0 0 0 2.8 0 2.8zm16.9-1.1c.1 3.8 2.5 5.4 5.3 5.4c2 0 3.2-.4 4.3-.8c0 0 .5 2 .5 2c-1 .5-2.7 1-5.2 1c-4.7 0-7.5-3.2-7.5-7.8c0-4.7 2.7-8.3 7.2-8.3c5 0 6.4 4.4 6.4 7.2c0 .6-.1 1.1-.1 1.3c0 0-10.9 0-10.9 0zm8.3-2c0-1.7-.8-4.5-3.9-4.5c-2.9 0-4.1 2.6-4.3 4.5c0 0 8.2 0 8.2 0zm9.5-10.6l0 4.4l4 0l0 2.2l-4 0c0 0 .01 8.28 0 8.3c0 1.9.6 3 2.1 3c.7 0 1.3-.1 1.6-.2c0 0 .2 2.1.2 2.1c-.6.2-1.4.4-2.5.4c-1.3 0-2.4-.5-3-1.2c-.8-.8-1.1-2.2-1.1-4c-.03-.03 0-8.4 0-8.4l-2.4 0l0-2.2l2.4 0l0-3.7l2.7-.7zm8.6 4.4c0 0 2.02 7.87 2 7.9c.5 1.7.9 3.3 1.2 4.9c0 0 .1 0 .1 0c.3-1.6.8-3.2 1.3-4.9c.03 0 2.5-7.9 2.5-7.9l2.4 0c0 0 2.39 7.74 2.4 7.7c.6 1.9 1 3.5 1.4 5.1c0 0 .1 0 .1 0c.2-1.6.6-3.2 1.1-5c.03-.03 2.2-7.8 2.2-7.8l2.8 0l-5 15.4l-2.5 0c0 0-2.37-7.31-2.4-7.3c-.5-1.7-1-3.3-1.3-5.1c0 0-.1 0-.1 0c-.4 1.9-.9 3.5-1.4 5.1c-.01.02-2.5 7.3-2.5 7.3l-2.5 0l-4.7-15.4l2.9 0zm23.5 8.2c.1 3.8 2.5 5.4 5.3 5.4c2 0 3.2-.4 4.3-.8c0 0 .5 2 .5 2c-1 .5-2.7 1-5.2 1c-4.7 0-7.5-3.2-7.5-7.8c0-4.7 2.7-8.3 7.2-8.3c5 0 6.4 4.4 6.4 7.2c0 .6-.1 1.1-.1 1.3c0 0-10.9 0-10.9 0zm8.3-2c0-1.7-.8-4.5-3.9-4.5c-2.9 0-4.1 2.6-4.3 4.5c0 0 8.2 0 8.2 0zm7.7 2c.1 3.8 2.5 5.4 5.3 5.4c2 0 3.2-.4 4.3-.8c0 0 .4 2 .4 2c-1 .5-2.6 1-5.1 1c-4.7 0-7.6-3.2-7.6-7.8c0-4.7 2.8-8.3 7.3-8.3c5 0 6.3 4.4 6.3 7.2c0 .6 0 1.1-.1 1.3c0 0-10.8 0-10.8 0zm8.2-2c0-1.7-.7-4.5-3.9-4.5c-2.8 0-4 2.6-4.3 4.5c0 0 8.2 0 8.2 0zm6.2-2c0-1.6 0-2.9-.1-4.2c-.04.03 2.4 0 2.4 0l.2 2.6c0 0 .07-.02.1 0c.7-1.5 2.5-2.9 5.1-2.9c2.1 0 5.4 1.3 5.4 6.5c.01.04 0 9.2 0 9.2l-2.8 0c0 0 .01-8.84 0-8.8c0-2.5-.9-4.6-3.6-4.6c-1.8 0-3.2 1.3-3.7 2.9c-.1.3-.2.8-.2 1.3c-.01-.02 0 9.2 0 9.2l-2.8 0c0 0-.01-11.2 0-11.2zm35.6 1.2l-8.3 0l0 7.7l9.3 0l0 2.3l-12.1 0l0-21.4l11.6 0l0 2.3l-8.8 0l0 6.8l8.3 0l0 2.3zm4.6-11.1c1.4-.3 3.4-.5 5.3-.5c3 0 4.9.6 6.2 1.8c1.1.9 1.7 2.4 1.7 4c0 2.9-1.8 4.8-4 5.5c0 0 0 .1 0 .1c1.6.6 2.6 2.1 3.1 4.4c.7 2.9 1.2 5 1.7 5.8c0 0-2.9 0-2.9 0c-.4-.6-.8-2.4-1.4-5.1c-.7-2.9-1.8-4.1-4.3-4.2c-.04.05-2.6 0-2.6 0l0 9.3l-2.8 0c0 0-.02-21.13 0-21.1zm2.8 9.7c0 0 2.79.04 2.8 0c2.9 0 4.8-1.6 4.8-4c0-2.8-2-4-4.9-4c-1.3 0-2.3.1-2.7.2c-.05.01 0 7.8 0 7.8zm14.3-9.8c1.4-.2 3.1-.4 5.3-.4c2.8 0 4.8.7 6.1 1.8c1.1 1 1.8 2.6 1.8 4.5c0 1.9-.5 3.5-1.6 4.6c-1.5 1.5-3.9 2.3-6.6 2.3c-.8 0-1.6 0-2.2-.2c-.02.05 0 8.6 0 8.6l-2.8 0c0 0 .01-21.16 0-21.2zm2.8 10.4c.6.1 1.4.2 2.3.2c3.3 0 5.4-1.6 5.4-4.6c0-2.8-2-4.2-5.1-4.2c-1.2 0-2.1.1-2.6.2c0 0 0 8.4 0 8.4zm34.3 10.8c-.6-.6-1.1-1.2-2-2.1c-1.8 1.8-3.9 2.5-6.2 2.5c-4.2 0-6.6-2.8-6.6-6c0-3 1.7-5 4.2-6.3c0 0 0-.1 0-.1c-1.1-1.4-1.8-3-1.8-4.5c0-2.6 1.9-5.3 5.4-5.3c2.7 0 4.8 1.8 4.8 4.6c0 2.2-1.3 4-4.7 5.7c0 0 0 .1 0 .1c1.8 2.1 3.8 4.5 5.2 6c1-1.5 1.6-3.6 2.1-6.3c0 0 2.5 0 2.5 0c-.6 3.4-1.5 6.1-3.1 8c1.2 1.2 2.3 2.4 3.6 3.7c0 0-3.4 0-3.4 0zm-3.3-3.6c-1.3-1.5-3.7-4.1-6.1-6.8c-1.1.7-2.8 2.1-2.8 4.4c0 2.4 1.9 4.3 4.4 4.3c1.9 0 3.5-.8 4.5-1.9zm-6.6-13.1c0 1.5.7 2.7 1.7 3.8c2.1-1.2 3.5-2.4 3.5-4.2c0-1.3-.7-2.8-2.5-2.8c-1.7 0-2.7 1.5-2.7 3.2zm22.4 6.4c0-2 0-3.6-.1-5.1c0 .03 2.5 0 2.5 0l.1 2.7c0 0 .11-.03.1 0c1.2-1.9 3-3 5.5-3c3.7 0 6.5 3.1 6.5 7.8c0 5.6-3.4 8.3-7 8.3c-2 0-3.8-.9-4.7-2.4c-.04-.02-.1 0-.1 0l0 8.4l-2.8 0c0 0 .03-16.74 0-16.7zm2.8 4.1c0 .4.1.8.1 1.1c.5 2 2.2 3.3 4.2 3.3c3 0 4.7-2.4 4.7-6c0-3-1.6-5.7-4.6-5.7c-1.9 0-3.7 1.4-4.2 3.5c-.1.3-.2.7-.2 1.1c0 0 0 2.7 0 2.7zm29.3-1.6c0 5.7-4 8.2-7.7 8.2c-4.2 0-7.4-3.1-7.4-7.9c0-5.2 3.4-8.2 7.7-8.2c4.4 0 7.4 3.2 7.4 7.9zm-12.2.2c0 3.3 1.9 5.9 4.6 5.9c2.7 0 4.7-2.5 4.7-6c0-2.6-1.3-5.9-4.6-5.9c-3.3 0-4.7 3-4.7 6zm15.7-3c0-1.8 0-3.3-.1-4.8c0 .03 2.5 0 2.5 0l.1 3.1c0 0 .08-.04.1 0c.7-2.1 2.4-3.4 4.2-3.4c.4 0 .6 0 .8.1c0 0 0 2.6 0 2.6c-.2 0-.5-.1-.9-.1c-2 0-3.4 1.5-3.8 3.6c0 .4-.1.9-.1 1.3c0 .03 0 8.2 0 8.2l-2.8 0c0 0 .03-10.56 0-10.6zm14.6-9.2l0 4.4l4 0l0 2.2l-4 0c0 0-.02 8.28 0 8.3c0 1.9.5 3 2.1 3c.7 0 1.3-.1 1.6-.2c0 0 .1 2.1.1 2.1c-.5.2-1.4.4-2.4.4c-1.4 0-2.4-.5-3.1-1.2c-.8-.8-1.1-2.2-1.1-4c.04-.03 0-8.4 0-8.4l-2.3 0l0-2.2l2.3 0l0-3.7l2.8-.7zm15.7 19.8l-.2-1.9c0 0-.14 0-.1 0c-.9 1.2-2.6 2.3-4.7 2.3c-3.2 0-4.8-2.2-4.8-4.4c0-3.8 3.4-5.8 9.3-5.8c0 0 0-.3 0-.3c0-1.3-.3-3.5-3.5-3.5c-1.4 0-2.9.4-4 1.1c0 0-.6-1.8-.6-1.8c1.2-.9 3.1-1.4 5-1.4c4.7 0 5.9 3.2 5.9 6.3c0 0 0 5.8 0 5.8c0 1.3 0 2.6.2 3.6c.03.05-2.5 0-2.5 0zm-.4-7.8c-3.1-.1-6.6.5-6.6 3.5c0 1.8 1.3 2.6 2.7 2.6c2 0 3.3-1.2 3.7-2.6c.1-.2.2-.6.2-.8c0 0 0-2.7 0-2.7zm7.2-14.8l2.8 0l0 22.6l-2.8 0l0-22.6z" stroke="none" fill="#3c3c3b"/></g><g id="Polygon8514"><path d="m1.1 15.6c0-1.9 1.5-3.4 3.4-3.4c1.8 0 3.3 1.5 3.3 3.3c0 1.9-1.4 3.4-3.3 3.4c-1.9 0-3.4-1.4-3.4-3.3zm31.9-10.8l-6.5 0l0-2.4l15.9 0l0 2.4l-6.6 0l0 19.1l-2.8 0l0-19.1zm11.5 3.7c0 0 2.07 7.8 2.1 7.8c.4 1.7.8 3.3 1.1 4.9c0 0 .1 0 .1 0c.4-1.6.9-3.2 1.4-4.9c-.02.04 2.5-7.8 2.5-7.8l2.4 0c0 0 2.34 7.68 2.3 7.7c.6 1.8 1.1 3.4 1.4 5c0 0 .1 0 .1 0c.3-1.6.7-3.2 1.2-5c-.02.01 2.2-7.7 2.2-7.7l2.8 0l-5 15.4l-2.6 0c0 0-2.32-7.37-2.3-7.4c-.6-1.7-1-3.2-1.4-5c0 0-.1 0-.1 0c-.3 1.8-.8 3.4-1.4 5.1c.05-.04-2.4 7.3-2.4 7.3l-2.6 0l-4.6-15.4l2.8 0zm36 7.6c0 5.7-4 8.1-7.7 8.1c-4.2 0-7.4-3-7.4-7.9c0-5.2 3.4-8.2 7.7-8.2c4.4 0 7.4 3.2 7.4 8zm-12.2.1c0 3.4 1.9 5.9 4.6 5.9c2.7 0 4.7-2.5 4.7-6c0-2.6-1.3-5.9-4.6-5.9c-3.3 0-4.7 3.1-4.7 6zm22.7-2l0 2.1l-7.9 0l0-2.1l7.9 0zm4.2-5.7c0 0 2.07 7.8 2.1 7.8c.4 1.7.8 3.3 1.1 4.9c0 0 .1 0 .1 0c.4-1.6.9-3.2 1.4-4.9c-.02.04 2.5-7.8 2.5-7.8l2.4 0c0 0 2.34 7.68 2.3 7.7c.6 1.8 1.1 3.4 1.4 5c0 0 .1 0 .1 0c.3-1.6.7-3.2 1.2-5c-.02.01 2.2-7.7 2.2-7.7l2.8 0l-5 15.4l-2.6 0c0 0-2.32-7.37-2.3-7.4c-.6-1.7-1-3.2-1.4-5c0 0-.1 0-.1 0c-.3 1.8-.8 3.4-1.4 5.1c.04-.04-2.4 7.3-2.4 7.3l-2.6 0l-4.6-15.4l2.8 0zm30.8 15.4l-.3-2c0 0-.06.04-.1 0c-.8 1.3-2.5 2.3-4.7 2.3c-3.1 0-4.7-2.2-4.7-4.4c0-3.7 3.3-5.8 9.3-5.7c0 0 0-.3 0-.3c0-1.3-.4-3.6-3.5-3.6c-1.5 0-3 .4-4 1.1c0 0-.7-1.8-.7-1.8c1.3-.8 3.2-1.4 5.1-1.4c4.7 0 5.9 3.2 5.9 6.3c0 0 0 5.8 0 5.8c0 1.3 0 2.6.2 3.7c.01-.02-2.5 0-2.5 0zm-.5-7.9c-3 0-6.5.5-6.5 3.5c0 1.8 1.2 2.7 2.7 2.7c2 0 3.2-1.3 3.7-2.6c.1-.3.1-.6.1-.9c0 0 0-2.7 0-2.7zm8-7.5c0 0 3.41 9.08 3.4 9.1c.4 1 .7 2.2 1 3.1c0 0 .1 0 .1 0c.3-.9.6-2.1 1-3.2c-.05.02 3-9 3-9l3 0c0 0-4.23 10.96-4.2 11c-2 5.2-3.4 8-5.3 9.6c-1.4 1.2-2.8 1.7-3.5 1.8c0 0-.7-2.3-.7-2.3c.7-.3 1.7-.7 2.5-1.4c.8-.6 1.7-1.7 2.4-3.1c.1-.3.2-.5.2-.7c0-.2-.1-.4-.2-.7c-.02-.03-5.7-14.2-5.7-14.2l3 0zm31.8 14.8c-.8.4-2.4.9-4.5.9c-4.6 0-7.6-3.2-7.6-7.9c0-4.7 3.2-8.1 8.2-8.1c1.7 0 3.2.4 3.9.7c0 0-.6 2.2-.6 2.2c-.7-.4-1.7-.7-3.3-.7c-3.5 0-5.4 2.6-5.4 5.8c0 3.6 2.3 5.8 5.3 5.8c1.6 0 2.7-.4 3.5-.8c0 0 .5 2.1.5 2.1zm17-7.2c0 5.7-4 8.1-7.7 8.1c-4.2 0-7.4-3-7.4-7.9c0-5.2 3.4-8.2 7.7-8.2c4.4 0 7.4 3.2 7.4 8zm-12.2.1c0 3.4 1.9 5.9 4.6 5.9c2.7 0 4.7-2.5 4.7-6c0-2.6-1.3-5.9-4.6-5.9c-3.3 0-4.7 3.1-4.7 6zm15.7-3.6c0-1.5 0-2.9-.1-4.1c0-.03 2.5 0 2.5 0l.1 2.5c0 0 .08-.05.1 0c.8-1.5 2.3-2.9 4.8-2.9c2.1 0 3.7 1.3 4.4 3.1c0 0 0 0 0 0c.5-.9 1.1-1.5 1.8-2c.9-.7 1.9-1.1 3.4-1.1c2 0 5 1.4 5 6.7c.03.01 0 9.1 0 9.1l-2.7 0c0 0 0-8.74 0-8.7c0-3-1.1-4.8-3.3-4.8c-1.6 0-2.9 1.2-3.4 2.6c-.1.3-.2.9-.2 1.4c.02-.04 0 9.5 0 9.5l-2.7 0c0 0-.02-9.25 0-9.3c0-2.4-1.1-4.2-3.2-4.2c-1.8 0-3.1 1.4-3.5 2.8c-.2.4-.2.9-.2 1.4c-.03-.01 0 9.3 0 9.3l-2.8 0c0 0 .03-11.26 0-11.3zm26.6 0c0-1.5 0-2.9-.1-4.1c-.04-.03 2.4 0 2.4 0l.1 2.5c0 0 .14-.05.1 0c.9-1.5 2.3-2.9 4.9-2.9c2.1 0 3.7 1.3 4.3 3.1c0 0 .1 0 .1 0c.5-.9 1.1-1.5 1.7-2c.9-.7 2-1.1 3.4-1.1c2.1 0 5.1 1.4 5.1 6.7c-.01.01 0 9.1 0 9.1l-2.7 0c0 0-.05-8.74 0-8.7c0-3-1.1-4.8-3.4-4.8c-1.6 0-2.8 1.2-3.3 2.6c-.1.3-.2.9-.2 1.4c-.02-.04 0 9.5 0 9.5l-2.8 0c0 0 .04-9.25 0-9.3c0-2.4-1-4.2-3.2-4.2c-1.7 0-3 1.4-3.5 2.8c-.1.4-.2.9-.2 1.4c.03-.01 0 9.3 0 9.3l-2.7 0c0 0-.01-11.26 0-11.3zm39.4 7.1c0 1.6.1 3 .2 4.2c-.03-.02-2.5 0-2.5 0l-.2-2.5c0 0-.03-.03 0 0c-.8 1.2-2.4 2.8-5.1 2.8c-2.5 0-5.3-1.3-5.3-6.7c-.05-.02 0-9 0-9l2.8 0c0 0-.05 8.51 0 8.5c0 2.9.8 4.9 3.4 4.9c1.9 0 3.2-1.3 3.7-2.5c.1-.5.2-1 .2-1.5c.04.03 0-9.4 0-9.4l2.8 0c0 0 .04 11.18 0 11.2zm4.7-7.1c0-1.5 0-2.9-.1-4.1c-.03-.03 2.5 0 2.5 0l.1 2.5c0 0 .07.02.1 0c.7-1.4 2.5-2.9 5.1-2.9c2.1 0 5.4 1.3 5.4 6.6c.01-.02 0 9.2 0 9.2l-2.8 0c0 0 .01-8.9 0-8.9c0-2.5-.9-4.6-3.6-4.6c-1.8 0-3.2 1.4-3.7 2.9c-.1.4-.2.8-.2 1.3c0 .02 0 9.3 0 9.3l-2.8 0c0 0-.01-11.26 0-11.3zm17.7 11.3l0-15.4l2.8 0l0 15.4l-2.8 0zm3.1-19.8c0 1-.7 1.8-1.8 1.8c-1 0-1.7-.8-1.7-1.8c0-.9.8-1.7 1.8-1.7c1 0 1.7.8 1.7 1.7zm15.3 19.2c-.7.4-2.4.9-4.4.9c-4.7 0-7.7-3.2-7.7-7.9c0-4.7 3.3-8.1 8.3-8.1c1.6 0 3.1.4 3.9.7c0 0-.7 2.2-.7 2.2c-.6-.4-1.7-.7-3.2-.7c-3.5 0-5.5 2.6-5.5 5.8c0 3.6 2.3 5.8 5.4 5.8c1.6 0 2.6-.4 3.4-.8c0 0 .5 2.1.5 2.1zm11.8.6l-.2-2c0 0-.1.04-.1 0c-.9 1.3-2.5 2.3-4.7 2.3c-3.1 0-4.7-2.2-4.7-4.4c0-3.7 3.3-5.8 9.2-5.7c0 0 0-.3 0-.3c0-1.3-.3-3.6-3.5-3.6c-1.4 0-2.9.4-4 1.1c0 0-.6-1.8-.6-1.8c1.3-.8 3.1-1.4 5.1-1.4c4.7 0 5.8 3.2 5.8 6.3c0 0 0 5.8 0 5.8c0 1.3.1 2.6.3 3.7c-.03-.02-2.6 0-2.6 0zm-.4-7.9c-3.1 0-6.5.5-6.5 3.5c0 1.8 1.2 2.7 2.6 2.7c2 0 3.3-1.3 3.7-2.6c.1-.3.2-.6.2-.9c0 0 0-2.7 0-2.7zm10.5-12l0 4.5l4 0l0 2.1l-4 0c0 0-.02 8.32 0 8.3c0 1.9.5 3 2.1 3c.7 0 1.3-.1 1.6-.2c0 0 .1 2.1.1 2.1c-.5.2-1.4.4-2.4.4c-1.4 0-2.4-.4-3.1-1.2c-.8-.8-1.1-2.2-1.1-4c.05.01 0-8.4 0-8.4l-2.3 0l0-2.1l2.3 0l0-3.7l2.8-.8zm7.1 19.9l0-15.4l2.9 0l0 15.4l-2.9 0zm3.2-19.8c0 1-.7 1.8-1.8 1.8c-1 0-1.7-.8-1.7-1.8c0-.9.7-1.7 1.8-1.7c1 0 1.7.8 1.7 1.7zm18.2 12c0 5.7-3.9 8.1-7.6 8.1c-4.2 0-7.4-3-7.4-7.9c0-5.2 3.4-8.2 7.6-8.2c4.5 0 7.4 3.2 7.4 8zm-12.2.1c0 3.4 2 5.9 4.7 5.9c2.7 0 4.7-2.5 4.7-6c0-2.6-1.3-5.9-4.6-5.9c-3.3 0-4.8 3.1-4.8 6zm15.8-3.6c0-1.5 0-2.9-.1-4.1c-.04-.03 2.4 0 2.4 0l.2 2.5c0 0 .06.02.1 0c.7-1.4 2.5-2.9 5.1-2.9c2.1 0 5.4 1.3 5.4 6.6c0-.02 0 9.2 0 9.2l-2.8 0c0 0 0-8.9 0-8.9c0-2.5-.9-4.6-3.6-4.6c-1.8 0-3.2 1.4-3.7 2.9c-.1.4-.2.8-.2 1.3c-.01.02 0 9.3 0 9.3l-2.8 0c0 0-.02-11.26 0-11.3z" stroke="none" fill="#3c3c3b"/></g></svg>