<?xml version="1.0" standalone="no"?><!DOCTYPE svg PUBLIC "-//W3C//DTD SVG 1.1//EN" "http://www.w3.org/Graphics/SVG/1.1/DTD/svg11.dtd"><svg xmlns="http://www.w3.org/2000/svg" version="1.1" width="158.3px" height="75.5px" viewBox="0 -12 158.3 75.5" style="top:-12px"><desc>What is</desc><defs/><g id="Polygon7261"><path d="m9 37.5l-8.3-33.7l6.6 0c0 0 3.2 15.3 3.2 15.3c.9 4.1 1.7 8.4 2.2 11.7c0 0 .1 0 .1 0c.6-3.5 1.5-7.5 2.4-11.8c.05.05 3.7-15.2 3.7-15.2l6.5 0c0 0 3.3 15.5 3.3 15.5c.9 4 1.5 7.8 2 11.4c0 0 .2 0 .2 0c.6-3.7 1.3-7.6 2.3-11.7c-.05.05 3.5-15.2 3.5-15.2l6.2 0l-9 33.7l-6.7 0c0 0-3.45-15.85-3.5-15.9c-.8-3.8-1.4-7-1.8-10.7c0 0-.1 0-.1 0c-.6 3.6-1.2 6.9-2.2 10.7c-.05.05-3.9 15.9-3.9 15.9l-6.7 0zm37.4-35.5l6.2 0l0 14.5c0 0 .1 0 .1 0c.7-1.1 1.7-2.1 3-2.8c1.2-.7 2.7-1.1 4.2-1.1c4.2 0 8.5 2.8 8.5 10.5c.05.05 0 14.4 0 14.4l-6.1 0c0 0 0-13.65 0-13.7c0-3.5-1.3-6.2-4.7-6.2c-2.4 0-4.1 1.7-4.8 3.5c-.2.5-.2 1.2-.2 1.8c0 .05 0 14.6 0 14.6l-6.2 0l0-35.5zm42.3 35.5l-.4-2.7c0 0-.15 0-.2 0c-1.5 1.9-4 3.3-7.2 3.3c-4.9 0-7.6-3.6-7.6-7.3c0-6.2 5.4-9.2 14.4-9.2c0 0 0-.4 0-.4c0-1.6-.6-4.3-4.9-4.3c-2.4 0-4.9.8-6.6 1.9c0 0-1.2-4-1.2-4c1.8-1.2 5-2.2 8.8-2.2c7.8 0 10.1 4.9 10.1 10.2c0 0 0 8.9 0 8.9c0 2.1.1 4.3.3 5.8c.05 0-5.5 0-5.5 0zm-.8-11.9c-4.4-.1-8.5.8-8.5 4.6c0 2.3 1.5 3.4 3.5 3.4c2.4 0 4.2-1.6 4.8-3.3c.1-.5.2-1 .2-1.4c0 0 0-3.3 0-3.3zm19.2-19.4l0 6.9l5.9 0l0 4.7l-5.9 0c0 0 .05 10.7 0 10.7c0 2.9.8 4.5 3.2 4.5c1 0 1.8-.2 2.4-.3c0 0 .1 4.7.1 4.7c-.9.4-2.5.6-4.5.6c-2.2 0-4.1-.7-5.3-2c-1.3-1.4-1.9-3.6-1.9-6.8c.05 0 0-11.4 0-11.4l-3.5 0l0-4.7l3.5 0l0-5.5l6-1.4zm20.9 31.3l0-24.4l6.2 0l0 24.4l-6.2 0zm6.5-31.1c0 1.8-1.3 3.2-3.5 3.2c-2 0-3.4-1.4-3.4-3.2c0-1.9 1.4-3.4 3.5-3.4c2.1 0 3.4 1.5 3.4 3.4zm6 25.4c1.4.9 4 1.8 6.2 1.8c2.7 0 3.9-1.1 3.9-2.7c0-1.6-1-2.5-4-3.6c-4.7-1.6-6.7-4.2-6.7-7c0-4.4 3.6-7.7 9.2-7.7c2.7 0 5.1.7 6.5 1.4c0 0-1.2 4.4-1.2 4.4c-1.1-.6-3-1.4-5.2-1.4c-2.2 0-3.4 1-3.4 2.5c0 1.6 1.2 2.3 4.3 3.4c4.4 1.7 6.4 3.9 6.5 7.5c0 4.4-3.5 7.6-9.9 7.6c-3 0-5.6-.7-7.4-1.7c0 0 1.2-4.5 1.2-4.5z" stroke="none" fill="#fff"/></g></svg>