<?xml version="1.0" standalone="no"?><!DOCTYPE svg PUBLIC "-//W3C//DTD SVG 1.1//EN" "http://www.w3.org/Graphics/SVG/1.1/DTD/svg11.dtd"><svg xmlns="http://www.w3.org/2000/svg" version="1.1" width="271px" height="49px" viewBox="0 -9 271 49" style="top:-9px"><desc>ERP/Source System</desc><defs/><g id="Polygon8217"><path d="m14.9 14.8l-7.9 0l0 5.1l8.8 0l0 4l-13.7 0l0-21.5l13.2 0l0 4l-8.3 0l0 4.5l7.9 0l0 3.9zm4.2-12.1c1.6-.2 3.9-.4 6.5-.4c3.2 0 5.4.4 6.9 1.6c1.3 1.1 2 2.6 2 4.5c0 2.8-2 4.7-3.8 5.3c0 0 0 .1 0 .1c1.5.6 2.3 2.1 2.9 4c.6 2.5 1.3 5.3 1.7 6.1c0 0-5 0-5 0c-.3-.6-.8-2.4-1.4-5c-.6-2.7-1.5-3.4-3.5-3.5c-.02.05-1.5 0-1.5 0l0 8.5l-4.8 0c0 0 .01-21.19 0-21.2zm4.8 9.2c0 0 1.93.04 1.9 0c2.4 0 3.9-1.2 3.9-3c0-2-1.4-3-3.6-3c-1.2 0-1.8.1-2.2.1c.02.02 0 5.9 0 5.9zm14.1-9.2c1.5-.2 3.6-.4 6.6-.4c2.9 0 5.1.5 6.5 1.7c1.4 1.1 2.3 2.8 2.3 4.9c0 2.2-.7 3.9-2 5.1c-1.6 1.6-4.1 2.3-6.9 2.3c-.7 0-1.3 0-1.7-.1c0 .01 0 7.7 0 7.7l-4.8 0c0 0-.01-21.19 0-21.2zm4.8 9.8c.4 0 .9.1 1.6.1c2.6 0 4.2-1.3 4.2-3.5c0-2-1.4-3.2-3.8-3.2c-1 0-1.6.1-2 .2c0 0 0 6.4 0 6.4zm12.1 12.7l6.8-23.1l3.2 0l-6.8 23.1l-3.2 0zm12.3-6.3c1.3.7 3.3 1.3 5.4 1.3c2.2 0 3.4-.9 3.4-2.3c0-1.3-1-2.1-3.6-3c-3.6-1.3-5.9-3.2-5.9-6.4c0-3.6 3-6.4 8.1-6.4c2.4 0 4.2.5 5.5 1.1c0 0-1.1 3.9-1.1 3.9c-.9-.4-2.4-1-4.5-1c-2.1 0-3.1.9-3.1 2c0 1.4 1.2 2 4 3c3.8 1.4 5.6 3.4 5.6 6.4c0 3.6-2.8 6.7-8.7 6.7c-2.5 0-4.9-.6-6.1-1.3c0 0 1-4 1-4zm32.5-3c0 5.7-4.1 8.3-8.2 8.3c-4.6 0-8.1-3-8.1-8c0-5 3.3-8.2 8.3-8.2c4.8 0 8 3.2 8 7.9zm-11.3.2c0 2.7 1.1 4.7 3.2 4.7c1.9 0 3.1-1.9 3.1-4.7c0-2.3-.9-4.7-3.1-4.7c-2.3 0-3.2 2.4-3.2 4.7zm28.9 2.8c0 2 .1 3.7.2 5c-.02-.02-4.2 0-4.2 0l-.2-2.2c0 0-.15-.01-.1 0c-.7.9-2.1 2.5-4.9 2.5c-3.2 0-5.5-1.9-5.5-6.7c0-.05 0-9.2 0-9.2l4.9 0c0 0-.02 8.39 0 8.4c0 2.2.7 3.6 2.4 3.6c1.3 0 2.1-.9 2.4-1.7c.1-.3.2-.6.2-1c-.02-.02 0-9.3 0-9.3l4.8 0c0 0 .05 10.58 0 10.6zm3.9-5.5c0-2.3 0-3.8-.1-5.1c.01.01 4.2 0 4.2 0l.1 2.9c0 0 .17-.02.2 0c.8-2.3 2.7-3.2 4.2-3.2c.4 0 .6 0 1 0c0 0 0 4.6 0 4.6c-.4-.1-.8-.1-1.3-.1c-1.8 0-3 .9-3.3 2.4c-.1.3-.1.7-.1 1.1c-.03-.01 0 7.9 0 7.9l-4.9 0c0 0 .03-10.46 0-10.5zm23.6 10.1c-.9.4-2.5.7-4.4.7c-5 0-8.2-3.1-8.2-8c0-4.5 3.1-8.2 8.9-8.2c1.3 0 2.7.2 3.7.6c0 0-.8 3.6-.8 3.6c-.5-.3-1.4-.5-2.7-.5c-2.5 0-4.2 1.8-4.1 4.4c0 2.8 1.9 4.3 4.2 4.3c1.2 0 2.1-.2 2.8-.5c0 0 .6 3.6.6 3.6zm6-5.9c.2 2 2.2 3 4.4 3c1.7 0 3-.2 4.3-.6c0 0 .6 3.2.6 3.2c-1.5.7-3.5 1-5.6 1c-5.3 0-8.3-3.1-8.3-7.9c0-4 2.5-8.3 7.9-8.3c5 0 6.9 3.9 6.9 7.7c0 .9-.1 1.6-.1 1.9c0 0-10.1 0-10.1 0zm5.7-3.3c0-1.1-.5-3.1-2.7-3.1c-2.1 0-2.9 1.8-3 3.1c0 0 5.7 0 5.7 0zm14.2 4.6c1.3.7 3.3 1.3 5.3 1.3c2.3 0 3.4-.9 3.4-2.3c0-1.3-1-2.1-3.6-3c-3.5-1.3-5.8-3.2-5.8-6.4c0-3.6 3-6.4 8.1-6.4c2.4 0 4.2.5 5.5 1.1c0 0-1.1 3.9-1.1 3.9c-.9-.4-2.4-1-4.5-1c-2.1 0-3.1.9-3.1 2c0 1.4 1.2 2 3.9 3c3.8 1.4 5.6 3.4 5.6 6.4c0 3.6-2.8 6.7-8.6 6.7c-2.5 0-4.9-.6-6.1-1.3c0 0 1-4 1-4zm20-10.6c0 0 2.31 7.65 2.3 7.7c.3.9.6 2 .8 2.9c0 0 .1 0 .1 0c.2-.9.5-2.1.7-2.9c-.03-.05 1.9-7.7 1.9-7.7l5.2 0c0 0-3.65 10.27-3.7 10.3c-2.2 6.1-3.7 8.6-5.4 10.2c-1.7 1.5-3.5 2-4.7 2.1c0 0-1-4.1-1-4.1c.6-.1 1.3-.4 2.1-.8c.7-.4 1.5-1.2 2-2c.1-.2.2-.4.2-.7c0-.1 0-.4-.2-.8c.01.05-5.7-14.2-5.7-14.2l5.4 0zm12.5 11.3c.9.6 2.7 1.2 4.1 1.2c1.5 0 2.1-.5 2.1-1.3c0-.8-.5-1.2-2.3-1.8c-3.2-1-4.4-2.8-4.4-4.6c0-2.9 2.5-5.1 6.3-5.1c1.8 0 3.5.4 4.4.9c0 0-.8 3.3-.8 3.3c-.7-.4-2.1-.9-3.4-.9c-1.2 0-1.9.5-1.9 1.3c0 .7.6 1.1 2.6 1.8c2.9 1 4.2 2.5 4.2 4.8c0 2.9-2.3 5-6.8 5c-2 0-3.8-.4-5-1.1c0 0 .9-3.5.9-3.5zm19.2-15.7l0 4.4l3.5 0l0 3.6l-3.5 0c0 0 .04 5.62 0 5.6c0 1.9.5 2.8 1.9 2.8c.7 0 1.1-.1 1.5-.2c0 0 0 3.7 0 3.7c-.6.2-1.8.4-3.1.4c-1.6 0-2.9-.5-3.7-1.3c-.9-1-1.3-2.5-1.3-4.7c-.01.05 0-6.3 0-6.3l-2.1 0l0-3.6l2.1 0l0-3.4l4.7-1zm9.9 13.7c.1 2 2.1 3 4.4 3c1.6 0 3-.2 4.3-.6c0 0 .6 3.2.6 3.2c-1.6.7-3.5 1-5.6 1c-5.3 0-8.3-3.1-8.3-7.9c0-4 2.4-8.3 7.8-8.3c5.1 0 7 3.9 7 7.7c0 .9-.1 1.6-.2 1.9c0 0-10 0-10 0zm5.7-3.3c0-1.1-.5-3.1-2.8-3.1c-2 0-2.8 1.8-3 3.1c0 0 5.8 0 5.8 0zm7.4-1c0-2-.1-3.6-.2-5c.04.01 4.1 0 4.1 0l.2 2.1c0 0 .14.01.1 0c.7-1 2.1-2.4 4.7-2.4c2.1 0 3.6 1 4.3 2.6c0 0 .1 0 .1 0c.6-.8 1.3-1.4 2-1.9c.8-.5 1.8-.7 2.9-.7c3 0 5.3 2.1 5.3 6.7c0 .01 0 9.2 0 9.2l-4.7 0c0 0-.01-8.49 0-8.5c0-2.2-.7-3.6-2.3-3.6c-1.1 0-1.9.8-2.2 1.7c-.2.4-.2.9-.2 1.3c-.02-.02 0 9.1 0 9.1l-4.7 0c0 0-.04-8.74 0-8.7c0-2-.7-3.4-2.3-3.4c-1.2 0-1.9 1-2.2 1.8c-.2.4-.2.8-.2 1.2c-.02.01 0 9.1 0 9.1l-4.7 0c0 0-.03-10.62 0-10.6z" stroke="none" fill="#15345e"/></g></svg>