<?xml version="1.0" standalone="no"?><!DOCTYPE svg PUBLIC "-//W3C//DTD SVG 1.1//EN" "http://www.w3.org/Graphics/SVG/1.1/DTD/svg11.dtd"><svg xmlns="http://www.w3.org/2000/svg" version="1.1" width="332px" height="140px" viewBox="0 -7 332 140" style="top:-7px"><desc>Payment block Targetted follow-ups with vendors</desc><defs/><g id="Polygon8654"><path d="m30 100.4c0 0 2.02 7.79 2 7.8c.5 1.7.9 3.3 1.2 4.9c0 0 .1 0 .1 0c.3-1.6.8-3.2 1.3-4.9c.03.02 2.5-7.8 2.5-7.8l2.4 0c0 0 2.39 7.66 2.4 7.7c.6 1.8 1 3.4 1.4 5c0 0 .1 0 .1 0c.2-1.6.6-3.2 1.1-5c.03 0 2.2-7.7 2.2-7.7l2.8 0l-5 15.4l-2.5 0c0 0-2.37-7.39-2.4-7.4c-.5-1.7-1-3.2-1.3-5c0 0-.1 0-.1 0c-.4 1.8-.9 3.4-1.4 5c-.01.05-2.5 7.4-2.5 7.4l-2.5 0l-4.7-15.4l2.9 0zm22.3 15.4l0-15.4l2.8 0l0 15.4l-2.8 0zm3.1-19.8c.1 1-.6 1.7-1.8 1.7c-.9 0-1.6-.7-1.6-1.7c0-1 .7-1.7 1.7-1.7c1.1 0 1.7.7 1.7 1.7zm7.7-.1l0 4.5l4 0l0 2.1l-4 0c0 0 .03 8.3 0 8.3c0 1.9.6 3 2.1 3c.8 0 1.3-.1 1.7-.2c0 0 .1 2.1.1 2.1c-.6.2-1.4.4-2.5.4c-1.3 0-2.4-.4-3-1.2c-.8-.8-1.1-2.2-1.1-4c-.01 0 0-8.4 0-8.4l-2.4 0l0-2.1l2.4 0l0-3.7l2.7-.8zm7.2-2.7l2.8 0l0 9.6c0 0 .06-.02.1 0c.4-.8 1.1-1.5 2-2c.8-.5 1.8-.8 2.8-.8c2.1 0 5.4 1.3 5.4 6.6c.01 0 0 9.2 0 9.2l-2.8 0c0 0 .01-8.88 0-8.9c0-2.5-.9-4.6-3.6-4.6c-1.8 0-3.2 1.3-3.7 2.8c-.2.4-.2.8-.2 1.4c0-.03 0 9.3 0 9.3l-2.8 0l0-22.6zm25.5 7.2c0 0 3.03 8.62 3 8.6c.5 1.4.9 2.7 1.3 4c0 0 .1 0 .1 0c.3-1.3.8-2.6 1.3-4c-.03.02 3-8.6 3-8.6l2.9 0l-6.1 15.4l-2.6 0l-5.9-15.4l3 0zm15.5 8.2c0 3.8 2.5 5.3 5.3 5.3c2 0 3.2-.3 4.2-.8c0 0 .5 2 .5 2c-1 .5-2.7 1-5.1 1c-4.8 0-7.6-3.1-7.6-7.8c0-4.6 2.7-8.3 7.2-8.3c5.1 0 6.4 4.4 6.4 7.3c0 .5-.1 1-.1 1.3c0 0-10.8 0-10.8 0zm8.2-2c0-1.8-.7-4.6-3.9-4.6c-2.8 0-4.1 2.6-4.3 4.6c0 0 8.2 0 8.2 0zm6.2-2.1c0-1.6-.1-2.9-.2-4.1c.04-.04 2.5 0 2.5 0l.2 2.5c0 0 .05 0 .1 0c.7-1.5 2.5-2.9 5-2.9c2.2 0 5.5 1.3 5.5 6.6c-.01-.03 0 9.2 0 9.2l-2.8 0c0 0-.01-8.91 0-8.9c0-2.5-.9-4.6-3.6-4.6c-1.8 0-3.3 1.3-3.7 2.9c-.2.3-.2.8-.2 1.3c-.03 0 0 9.3 0 9.3l-2.8 0c0 0-.03-11.27 0-11.3zm31-11.3c0 0-.04 18.59 0 18.6c0 1.4 0 2.9.1 4c-.02-.03-2.5 0-2.5 0l-.2-2.7c0 0-.02 0 0 0c-.9 1.7-2.8 3-5.3 3c-3.7 0-6.6-3.1-6.6-7.8c0-5.1 3.2-8.3 6.9-8.3c2.4 0 4 1.1 4.7 2.4c-.01-.04.1 0 .1 0l0-9.2l2.8 0zm-2.8 13.4c0-.3-.1-.8-.2-1.1c-.4-1.8-1.9-3.3-4-3.3c-2.9 0-4.6 2.6-4.6 6c0 3.1 1.5 5.7 4.5 5.7c1.9 0 3.6-1.3 4.1-3.4c.1-.4.2-.7.2-1.2c0 0 0-2.7 0-2.7zm21.4 1.3c0 5.7-4 8.2-7.7 8.2c-4.2 0-7.4-3-7.4-7.9c0-5.2 3.4-8.2 7.6-8.2c4.5 0 7.5 3.2 7.5 7.9zm-12.3.2c0 3.4 2 5.9 4.7 5.9c2.7 0 4.7-2.5 4.7-6c0-2.6-1.3-5.9-4.6-5.9c-3.3 0-4.8 3.1-4.8 6zm15.8-2.9c0-1.8 0-3.4-.1-4.8c-.04-.04 2.4 0 2.4 0l.1 3c0 0 .14-.02.1 0c.7-2.1 2.4-3.4 4.3-3.4c.3 0 .5 0 .8.1c0 0 0 2.6 0 2.6c-.3 0-.6 0-1 0c-1.9 0-3.3 1.4-3.7 3.5c-.1.4-.1.9-.1 1.4c-.04-.05 0 8.2 0 8.2l-2.8 0c0 0-.01-10.63 0-10.6zm10 7.7c.8.5 2.3 1.1 3.7 1.1c2.1 0 3-1 3-2.3c0-1.3-.8-2-2.9-2.8c-2.7-1-4-2.5-4-4.4c0-2.5 2-4.5 5.3-4.5c1.5 0 2.9.5 3.8 1c0 0-.7 2-.7 2c-.6-.4-1.7-.9-3.2-.9c-1.6 0-2.6 1-2.6 2.1c0 1.3 1 1.9 3 2.6c2.6 1 4 2.4 4 4.7c0 2.7-2.1 4.6-5.7 4.6c-1.7 0-3.3-.4-4.4-1.1c0 0 .7-2.1.7-2.1z" stroke="none" fill="#3c3c3b"/></g><g id="Polygon8653"><path d="m1.1 65c0-1.9 1.5-3.3 3.4-3.3c1.8 0 3.3 1.4 3.3 3.3c0 1.8-1.4 3.3-3.3 3.3c-1.9 0-3.4-1.4-3.4-3.3zm31.9-10.8l-6.5 0l0-2.4l15.9 0l0 2.4l-6.6 0l0 19.1l-2.8 0l0-19.1zm18.2 19.1l-.2-1.9c0 0-.13-.03-.1 0c-.9 1.2-2.5 2.3-4.7 2.3c-3.2 0-4.8-2.2-4.8-4.5c0-3.7 3.4-5.7 9.3-5.7c0 0 0-.3 0-.3c0-1.3-.3-3.6-3.5-3.6c-1.4 0-2.9.5-4 1.2c0 0-.6-1.9-.6-1.9c1.2-.8 3.1-1.4 5-1.4c4.7 0 5.9 3.3 5.9 6.4c0 0 0 5.7 0 5.7c0 1.4 0 2.7.2 3.7c.03.01-2.5 0-2.5 0zm-.4-7.9c-3.1 0-6.6.5-6.6 3.5c0 1.8 1.3 2.7 2.7 2.7c2 0 3.3-1.3 3.7-2.6c.1-.3.2-.6.2-.9c0 0 0-2.7 0-2.7zm7.2-2.7c0-1.8 0-3.4-.1-4.8c-.03 0 2.4 0 2.4 0l.1 3c0 0 .15.02.1 0c.7-2 2.4-3.4 4.3-3.4c.3 0 .6.1.8.1c0 0 0 2.7 0 2.7c-.3-.1-.6-.1-.9-.1c-2 0-3.4 1.5-3.8 3.6c-.1.4-.1.8-.1 1.3c-.03-.01 0 8.2 0 8.2l-2.8 0c0 0 0-10.59 0-10.6zm23.4-4.8c0 1.1-.1 2.4-.1 4.2c0 0 0 9 0 9c0 3.5-.7 5.7-2.2 7c-1.5 1.4-3.6 1.9-5.6 1.9c-1.8 0-3.9-.5-5.1-1.3c0 0 .7-2.1.7-2.1c1 .6 2.6 1.2 4.5 1.2c2.9 0 5-1.5 5-5.4c-.03-.01 0-1.7 0-1.7c0 0-.09-.03-.1 0c-.9 1.4-2.5 2.5-4.9 2.5c-3.8 0-6.6-3.2-6.6-7.5c0-5.2 3.5-8.2 7-8.2c2.7 0 4.1 1.4 4.8 2.7c0 .02.1 0 .1 0l.1-2.3c0 0 2.44 0 2.4 0zm-2.9 6.1c0-.5 0-.9-.1-1.3c-.5-1.6-1.9-3-3.9-3c-2.7 0-4.6 2.3-4.6 5.9c0 3 1.5 5.5 4.5 5.5c1.8 0 3.3-1.1 3.9-2.9c.2-.4.2-1 .2-1.5c0 0 0-2.7 0-2.7zm9 2.1c.1 3.8 2.5 5.4 5.3 5.4c2 0 3.2-.4 4.3-.8c0 0 .5 2 .5 2c-1 .4-2.7.9-5.2.9c-4.7 0-7.6-3.1-7.6-7.7c0-4.7 2.8-8.4 7.3-8.4c5 0 6.3 4.5 6.3 7.3c0 .6 0 1-.1 1.3c0 0-10.8 0-10.8 0zm8.2-2c.1-1.8-.7-4.5-3.8-4.5c-2.9 0-4.1 2.6-4.3 4.5c0 0 8.1 0 8.1 0zm9.6-10.6l0 4.4l4 0l0 2.1l-4 0c0 0-.01 8.34 0 8.3c0 2 .5 3 2.1 3c.7 0 1.3-.1 1.6-.2c0 0 .1 2.1.1 2.1c-.5.3-1.4.4-2.4.4c-1.3 0-2.4-.4-3.1-1.2c-.8-.8-1-2.1-1-4c-.05.04 0-8.4 0-8.4l-2.4 0l0-2.1l2.4 0l0-3.7l2.7-.7zm10.5 0l0 4.4l4 0l0 2.1l-4 0c0 0 .03 8.34 0 8.3c0 2 .6 3 2.1 3c.8 0 1.3-.1 1.7-.2c0 0 .1 2.1.1 2.1c-.6.3-1.4.4-2.5.4c-1.3 0-2.4-.4-3-1.2c-.8-.8-1.1-2.1-1.1-4c-.01.04 0-8.4 0-8.4l-2.4 0l0-2.1l2.4 0l0-3.7l2.7-.7zm8.6 12.6c0 3.8 2.5 5.4 5.3 5.4c2 0 3.2-.4 4.2-.8c0 0 .5 2 .5 2c-1 .4-2.7.9-5.1.9c-4.8 0-7.6-3.1-7.6-7.7c0-4.7 2.7-8.4 7.2-8.4c5.1 0 6.4 4.5 6.4 7.3c0 .6-.1 1-.1 1.3c0 0-10.8 0-10.8 0zm8.2-2c0-1.8-.7-4.5-3.9-4.5c-2.8 0-4.1 2.6-4.3 4.5c0 0 8.2 0 8.2 0zm19.5-13.4c0 0-.03 18.63 0 18.6c0 1.4 0 3 .1 4c0 .01-2.5 0-2.5 0l-.1-2.7c0 0-.11.03-.1 0c-.9 1.8-2.7 3.1-5.3 3.1c-3.7 0-6.6-3.2-6.6-7.9c0-5.1 3.2-8.3 7-8.3c2.3 0 3.9 1.2 4.6 2.4c.01 0 .1 0 .1 0l0-9.2l2.8 0zm-2.8 13.5c0-.4-.1-.9-.2-1.2c-.4-1.8-1.9-3.3-4-3.3c-2.9 0-4.6 2.6-4.6 6c0 3.1 1.5 5.7 4.5 5.7c1.9 0 3.6-1.2 4.1-3.3c.1-.4.2-.8.2-1.3c0 0 0-2.6 0-2.6zm14.5 9.1l0-13.3l-2.2 0l0-2.1l2.2 0c0 0-.04-.74 0-.7c0-2.2.4-4.2 1.7-5.4c1.1-1 2.5-1.5 3.8-1.5c1 0 1.8.3 2.4.5c0 0-.4 2.2-.4 2.2c-.4-.2-1-.4-1.8-.4c-2.4 0-3 2.1-3 4.5c.03-.03 0 .8 0 .8l3.8 0l0 2.1l-3.8 0l0 13.3l-2.7 0zm22.5-7.8c0 5.7-3.9 8.2-7.7 8.2c-4.1 0-7.4-3.1-7.4-8c0-5.1 3.4-8.2 7.7-8.2c4.4 0 7.4 3.3 7.4 8zm-12.2.1c0 3.4 1.9 6 4.7 6c2.6 0 4.6-2.6 4.6-6c0-2.6-1.3-6-4.6-6c-3.3 0-4.7 3.1-4.7 6zm15.7-14.9l2.8 0l0 22.6l-2.8 0l0-22.6zm7.6 0l2.8 0l0 22.6l-2.8 0l0-22.6zm21.4 14.8c0 5.7-3.9 8.2-7.7 8.2c-4.1 0-7.3-3.1-7.3-8c0-5.1 3.3-8.2 7.6-8.2c4.4 0 7.4 3.3 7.4 8zm-12.2.1c0 3.4 1.9 6 4.7 6c2.6 0 4.7-2.6 4.7-6c0-2.6-1.4-6-4.7-6c-3.3 0-4.7 3.1-4.7 6zm16.6-7.7c0 0 2.08 7.83 2.1 7.8c.4 1.8.8 3.3 1.1 4.9c0 0 .1 0 .1 0c.4-1.5.9-3.2 1.4-4.8c0-.04 2.5-7.9 2.5-7.9l2.4 0c0 0 2.36 7.7 2.4 7.7c.5 1.9 1 3.5 1.3 5c0 0 .1 0 .1 0c.3-1.5.7-3.1 1.2-5c0 .03 2.2-7.7 2.2-7.7l2.8 0l-5 15.4l-2.5 0c0 0-2.4-7.35-2.4-7.3c-.5-1.8-1-3.3-1.4-5.1c0 0 0 0 0 0c-.4 1.8-.9 3.4-1.4 5.1c-.04-.01-2.5 7.3-2.5 7.3l-2.6 0l-4.6-15.4l2.8 0zm28.7 5.8l0 2l-7.8 0l0-2l7.8 0zm16.2 5.4c0 1.6 0 3 .1 4.2c.04.01-2.4 0-2.4 0l-.2-2.5c0 0-.06-.01-.1 0c-.7 1.2-2.3 2.9-5.1 2.9c-2.4 0-5.3-1.4-5.3-6.8c.02.01 0-9 0-9l2.8 0c0 0 .03 8.53 0 8.5c0 3 .9 4.9 3.5 4.9c1.8 0 3.1-1.3 3.7-2.5c.1-.4.2-.9.2-1.4c.01-.05 0-9.5 0-9.5l2.8 0c0 0 .02 11.21 0 11.2zm4.7-6.2c0-1.9-.1-3.5-.2-5c.04 0 2.6 0 2.6 0l.1 2.6c0 0 .05.04 0 0c1.2-1.8 3-3 5.5-3c3.7 0 6.6 3.2 6.6 7.9c0 5.5-3.4 8.3-7.1 8.3c-2 0-3.8-.9-4.7-2.5c0 .04-.1 0-.1 0l0 8.4l-2.7 0c0 0-.03-16.67 0-16.7zm2.7 4.1c0 .5.1.8.2 1.2c.5 1.9 2.2 3.3 4.2 3.3c2.9 0 4.6-2.5 4.6-6c0-3.1-1.6-5.7-4.5-5.7c-1.9 0-3.7 1.3-4.3 3.4c-.1.4-.2.8-.2 1.2c0 0 0 2.6 0 2.6zm15 3.4c.8.6 2.3 1.2 3.7 1.2c2 0 3-1.1 3-2.3c0-1.4-.8-2.1-2.9-2.9c-2.7-1-4.1-2.5-4.1-4.3c0-2.5 2.1-4.6 5.4-4.6c1.5 0 2.9.5 3.8 1c0 0-.7 2-.7 2c-.6-.3-1.8-.9-3.2-.9c-1.7 0-2.6 1-2.6 2.1c0 1.3.9 1.9 3 2.7c2.6 1 4 2.3 4 4.6c0 2.7-2.1 4.6-5.8 4.6c-1.7 0-3.2-.4-4.3-1c0 0 .7-2.2.7-2.2z" stroke="none" fill="#3c3c3b"/></g><g id="Polygon8652"><path d="m1.1 15.6c0-1.9 1.5-3.4 3.4-3.4c1.8 0 3.3 1.5 3.3 3.3c0 1.9-1.4 3.4-3.3 3.4c-1.9 0-3.4-1.4-3.4-3.3zm27.9-12.9c1.3-.2 3-.4 5.3-.4c2.7 0 4.7.6 6 1.7c1.2 1.1 1.9 2.6 1.9 4.5c0 2-.6 3.5-1.7 4.6c-1.4 1.6-3.8 2.4-6.5 2.4c-.9 0-1.6-.1-2.3-.2c.03-.01 0 8.6 0 8.6l-2.7 0c0 0-.04-21.22 0-21.2zm2.7 10.3c.6.2 1.4.2 2.3.2c3.4 0 5.4-1.6 5.4-4.5c0-2.9-2-4.2-5.1-4.2c-1.2 0-2.1.1-2.6.2c0 0 0 8.3 0 8.3zm21.8 10.9l-.2-2c0 0-.11.04-.1 0c-.9 1.3-2.5 2.3-4.7 2.3c-3.1 0-4.7-2.2-4.7-4.4c0-3.7 3.3-5.8 9.2-5.7c0 0 0-.3 0-.3c0-1.3-.3-3.6-3.5-3.6c-1.4 0-2.9.4-4 1.1c0 0-.6-1.8-.6-1.8c1.3-.8 3.1-1.4 5-1.4c4.8 0 5.9 3.2 5.9 6.3c0 0 0 5.8 0 5.8c0 1.3.1 2.6.3 3.7c-.04-.02-2.6 0-2.6 0zm-.4-7.9c-3.1 0-6.5.5-6.5 3.5c0 1.8 1.2 2.7 2.6 2.7c2 0 3.3-1.3 3.7-2.6c.1-.3.2-.6.2-.9c0 0 0-2.7 0-2.7zm8-7.5c0 0 3.37 9.08 3.4 9.1c.3 1 .7 2.2 1 3.1c0 0 0 0 0 0c.3-.9.6-2.1 1-3.2c0 .02 3.1-9 3.1-9l2.9 0c0 0-4.18 10.96-4.2 11c-2 5.2-3.4 8-5.3 9.6c-1.3 1.2-2.7 1.7-3.4 1.8c0 0-.7-2.3-.7-2.3c.7-.3 1.6-.7 2.4-1.4c.8-.6 1.8-1.7 2.4-3.1c.1-.3.2-.5.2-.7c0-.2 0-.4-.2-.7c.03-.03-5.7-14.2-5.7-14.2l3.1 0zm14 4.1c0-1.5-.1-2.9-.2-4.1c.04-.03 2.5 0 2.5 0l.1 2.5c0 0 .12-.05.1 0c.9-1.5 2.3-2.9 4.9-2.9c2.1 0 3.7 1.3 4.3 3.1c0 0 .1 0 .1 0c.5-.9 1.1-1.5 1.7-2c.9-.7 1.9-1.1 3.4-1.1c2.1 0 5.1 1.4 5.1 6.7c-.02.01 0 9.1 0 9.1l-2.8 0c0 0 .04-8.74 0-8.7c0-3-1-4.8-3.3-4.8c-1.6 0-2.8 1.2-3.3 2.6c-.1.3-.2.9-.2 1.4c-.04-.04 0 9.5 0 9.5l-2.8 0c0 0 .02-9.25 0-9.3c0-2.4-1.1-4.2-3.2-4.2c-1.7 0-3 1.4-3.5 2.8c-.1.4-.2.9-.2 1.4c.01-.01 0 9.3 0 9.3l-2.7 0c0 0-.03-11.26 0-11.3zm28.1 4.1c.1 3.8 2.5 5.3 5.3 5.3c2 0 3.2-.3 4.2-.8c0 0 .5 2 .5 2c-1 .5-2.7 1-5.1 1c-4.8 0-7.6-3.1-7.6-7.8c0-4.6 2.8-8.3 7.2-8.3c5.1 0 6.4 4.4 6.4 7.3c0 .6-.1 1-.1 1.3c0 0-10.8 0-10.8 0zm8.2-2c0-1.8-.7-4.6-3.9-4.6c-2.8 0-4.1 2.6-4.3 4.6c0 0 8.2 0 8.2 0zm6.2-2.1c0-1.5 0-2.9-.1-4.1c-.04-.03 2.4 0 2.4 0l.2 2.5c0 0 .06.02.1 0c.7-1.4 2.5-2.9 5.1-2.9c2.1 0 5.4 1.3 5.4 6.6c0-.02 0 9.2 0 9.2l-2.8 0c0 0 0-8.9 0-8.9c0-2.5-.9-4.6-3.6-4.6c-1.8 0-3.2 1.4-3.7 2.9c-.1.4-.2.8-.2 1.3c-.01.02 0 9.3 0 9.3l-2.8 0c0 0-.02-11.26 0-11.3zm20.9-8.6l0 4.5l4 0l0 2.1l-4 0c0 0 .01 8.32 0 8.3c0 1.9.5 3 2.1 3c.7 0 1.3-.1 1.6-.2c0 0 .2 2.1.2 2.1c-.6.2-1.4.4-2.5.4c-1.3 0-2.4-.4-3-1.2c-.8-.8-1.1-2.2-1.1-4c-.03.01 0-8.4 0-8.4l-2.4 0l0-2.1l2.4 0l0-3.7l2.7-.8zm13.8 19.9c.1-1.1.1-2.6.1-4c.02 0 0-18.6 0-18.6l2.8 0l0 9.7c0 0 .06-.05.1 0c.9-1.8 2.7-2.9 5.2-2.9c3.8 0 6.5 3.2 6.5 7.9c0 5.5-3.5 8.2-6.9 8.2c-2.2 0-4-.8-5.2-2.9c.04.04-.1 0-.1 0l-.1 2.6c0 0-2.4-.02-2.4 0zm2.9-6.2c0 .4.1.7.1 1c.6 2 2.2 3.3 4.2 3.3c3 0 4.7-2.4 4.7-5.9c0-3.1-1.6-5.8-4.6-5.8c-1.9 0-3.7 1.4-4.2 3.5c-.1.3-.2.7-.2 1.1c0 0 0 2.8 0 2.8zm15.3-16.4l2.8 0l0 22.6l-2.8 0l0-22.6zm21.5 14.8c0 5.7-3.9 8.1-7.7 8.1c-4.1 0-7.4-3-7.4-7.9c0-5.2 3.4-8.2 7.7-8.2c4.4 0 7.4 3.2 7.4 8zm-12.2.1c0 3.4 1.9 5.9 4.7 5.9c2.6 0 4.6-2.5 4.6-6c0-2.6-1.3-5.9-4.6-5.9c-3.3 0-4.7 3.1-4.7 6zm26.7 7.1c-.7.4-2.3.9-4.4.9c-4.6 0-7.7-3.2-7.7-7.9c0-4.7 3.3-8.1 8.3-8.1c1.7 0 3.1.4 3.9.7c0 0-.6 2.2-.6 2.2c-.7-.4-1.8-.7-3.3-.7c-3.5 0-5.4 2.6-5.4 5.8c0 3.6 2.3 5.8 5.3 5.8c1.6 0 2.7-.4 3.5-.8c0 0 .4 2.1.4 2.1zm6.1-7.8c0 0 .04.04 0 0c.4-.5 1-1.2 1.4-1.7c.01-.01 4.5-5.3 4.5-5.3l3.4 0l-5.9 6.3l6.7 9.1l-3.4 0l-5.3-7.4l-1.4 1.6l0 5.8l-2.8 0l0-22.6l2.8 0l0 14.2z" stroke="none" fill="#3c3c3b"/></g></svg>