<?xml version="1.0" standalone="no"?><!DOCTYPE svg PUBLIC "-//W3C//DTD SVG 1.1//EN" "http://www.w3.org/Graphics/SVG/1.1/DTD/svg11.dtd"><svg xmlns="http://www.w3.org/2000/svg" version="1.1" width="143.1px" height="49px" viewBox="0 -9 143.1 49" style="top:-9px"><desc>Purchases</desc><defs/><g id="Polygon8278"><path d="m2.2 2.7c1.5-.2 3.6-.4 6.6-.4c3 0 5.1.5 6.5 1.7c1.4 1.1 2.3 2.8 2.3 4.9c0 2.2-.7 3.9-2 5.1c-1.6 1.6-4.1 2.3-6.9 2.3c-.7 0-1.2 0-1.7-.1c.01.01 0 7.7 0 7.7l-4.8 0c0 0 0-21.19 0-21.2zm4.8 9.8c.4 0 .9.1 1.6.1c2.6 0 4.2-1.3 4.2-3.5c0-2-1.4-3.2-3.8-3.2c-1 0-1.6.1-2 .2c0 0 0 6.4 0 6.4zm27.9 6.4c0 2 .1 3.7.1 5c.03-.02-4.2 0-4.2 0l-.2-2.2c0 0-.09-.01-.1 0c-.6.9-2.1 2.5-4.9 2.5c-3.1 0-5.4-1.9-5.4-6.7c-.04-.05 0-9.2 0-9.2l4.8 0c0 0 .04 8.39 0 8.4c0 2.2.8 3.6 2.5 3.6c1.3 0 2.1-.9 2.4-1.7c.1-.3.1-.6.1-1c.03-.02 0-9.3 0-9.3l4.9 0c0 0 .01 10.58 0 10.6zm3.9-5.5c0-2.3-.1-3.8-.1-5.1c-.04.01 4.1 0 4.1 0l.2 2.9c0 0 .12-.02.1 0c.8-2.3 2.7-3.2 4.2-3.2c.5 0 .7 0 1 0c0 0 0 4.6 0 4.6c-.3-.1-.7-.1-1.3-.1c-1.7 0-3 .9-3.3 2.4c0 .3-.1.7-.1 1.1c.03-.01 0 7.9 0 7.9l-4.8 0c0 0-.01-10.46 0-10.5zm23.5 10.1c-.8.4-2.5.7-4.3.7c-5 0-8.3-3.1-8.3-8c0-4.5 3.2-8.2 9-8.2c1.2 0 2.6.2 3.7.6c0 0-.8 3.6-.8 3.6c-.6-.3-1.4-.5-2.7-.5c-2.6 0-4.2 1.8-4.2 4.4c0 2.8 1.9 4.3 4.3 4.3c1.1 0 2-.2 2.8-.5c0 0 .5 3.6.5 3.6zm2.7-22.2l4.8 0l0 8.9c0 0 .1-.04.1 0c.5-.7 1.2-1.2 1.9-1.6c.7-.4 1.6-.6 2.5-.6c3.1 0 5.5 2.1 5.5 6.8c-.02-.02 0 9.1 0 9.1l-4.9 0c0 0 .04-8.58 0-8.6c0-2-.7-3.4-2.5-3.4c-1.3 0-2 .8-2.4 1.7c-.1.3-.2.7-.2 1c.04.05 0 9.3 0 9.3l-4.8 0l0-22.6zm27.5 22.6l-.3-1.6c0 0-.07.02-.1 0c-1 1.3-2.6 1.9-4.4 1.9c-3.2 0-5.1-2.3-5.1-4.7c0-4.1 3.7-6 9.2-6c0 0 0-.2 0-.2c0-.8-.5-2-2.9-2c-1.5 0-3.2.5-4.3 1.2c0 0-.8-3.2-.8-3.2c1-.6 3.2-1.3 6-1.3c5.2 0 6.9 3 6.9 6.7c0 0 0 5.4 0 5.4c0 1.5 0 2.9.2 3.8c-.02-.02-4.4 0-4.4 0zm-.6-7.4c-2.5 0-4.5.6-4.5 2.5c0 1.2.8 1.8 1.9 1.8c1.2 0 2.2-.8 2.5-1.8c.1-.2.1-.5.1-.8c0 0 0-1.7 0-1.7zm8.5 3.1c.9.6 2.8 1.2 4.2 1.2c1.5 0 2.1-.5 2.1-1.3c0-.8-.5-1.2-2.3-1.8c-3.2-1-4.5-2.8-4.4-4.6c0-2.9 2.5-5.1 6.3-5.1c1.8 0 3.4.4 4.4.9c0 0-.9 3.3-.9 3.3c-.7-.4-2-.9-3.3-.9c-1.2 0-1.9.5-1.9 1.3c0 .7.6 1.1 2.5 1.8c3 1 4.2 2.5 4.3 4.8c0 2.9-2.3 5-6.8 5c-2 0-3.8-.4-5-1.1c0 0 .8-3.5.8-3.5zm17.6-2c.2 2 2.2 3 4.4 3c1.7 0 3-.2 4.3-.6c0 0 .7 3.2.7 3.2c-1.6.7-3.6 1-5.7 1c-5.3 0-8.3-3.1-8.3-7.9c0-4 2.5-8.3 7.9-8.3c5 0 6.9 3.9 6.9 7.7c0 .9-.1 1.6-.1 1.9c0 0-10.1 0-10.1 0zm5.7-3.3c0-1.1-.5-3.1-2.7-3.1c-2.1 0-2.9 1.8-3 3.1c0 0 5.7 0 5.7 0zm7.4 5.3c.9.6 2.7 1.2 4.2 1.2c1.4 0 2-.5 2-1.3c0-.8-.5-1.2-2.3-1.8c-3.2-1-4.4-2.8-4.4-4.6c0-2.9 2.5-5.1 6.3-5.1c1.9 0 3.5.4 4.4.9c0 0-.8 3.3-.8 3.3c-.7-.4-2.1-.9-3.4-.9c-1.2 0-1.8.5-1.8 1.3c0 .7.6 1.1 2.5 1.8c2.9 1 4.2 2.5 4.2 4.8c0 2.9-2.3 5-6.7 5c-2.1 0-3.9-.4-5.1-1.1c0 0 .9-3.5.9-3.5z" stroke="none" fill="#15345e"/></g></svg>