<?xml version="1.0" standalone="no"?><!DOCTYPE svg PUBLIC "-//W3C//DTD SVG 1.1//EN" "http://www.w3.org/Graphics/SVG/1.1/DTD/svg11.dtd"><svg xmlns="http://www.w3.org/2000/svg" version="1.1" width="204.1px" height="67px" viewBox="0 -7 204.1 67" style="top:-7px"><desc>Interventions to reclaim ITC</desc><defs/><g id="Polygon7821"><path d="m44.8 38.9c0-1.7 0-2.8-.1-3.8c.05-.04 3.2 0 3.2 0l.1 2.1c0 0 .11.02.1 0c.6-1.7 2-2.4 3.2-2.4c.3 0 .5 0 .7 0c0 0 0 3.5 0 3.5c-.2-.1-.5-.1-.9-.1c-1.4 0-2.3.7-2.5 1.8c-.1.3-.1.6-.1.8c-.01.05 0 6 0 6l-3.7 0c0 0 .04-7.87 0-7.9zm11.8 3.2c.1 1.5 1.6 2.2 3.3 2.2c1.2 0 2.2-.1 3.2-.5c0 0 .5 2.5.5 2.5c-1.2.5-2.7.7-4.2.7c-4 0-6.3-2.3-6.3-5.9c0-3 1.8-6.3 5.9-6.3c3.8 0 5.3 3 5.3 5.9c0 .6-.1 1.1-.2 1.4c0 0-7.5 0-7.5 0zm4.3-2.5c0-.9-.4-2.4-2.1-2.4c-1.5 0-2.1 1.4-2.2 2.4c0 0 4.3 0 4.3 0zm14.4 6.9c-.7.3-1.9.5-3.3.5c-3.8 0-6.2-2.3-6.2-6c0-3.4 2.3-6.2 6.7-6.2c1 0 2 .2 2.8.5c0 0-.6 2.7-.6 2.7c-.4-.2-1.1-.4-2-.4c-2 0-3.2 1.4-3.2 3.3c0 2.2 1.5 3.3 3.2 3.3c.9 0 1.6-.2 2.1-.4c0 0 .5 2.7.5 2.7zm2-16.7l3.6 0l0 17l-3.6 0l0-17zm13.2 17l-.2-1.2c0 0-.05.02 0 0c-.8 1-2 1.5-3.4 1.5c-2.4 0-3.8-1.8-3.8-3.6c0-3.1 2.7-4.5 6.9-4.5c0 0 0-.2 0-.2c0-.6-.3-1.5-2.1-1.5c-1.2 0-2.5.4-3.3.9c0 0-.7-2.4-.7-2.4c.9-.4 2.5-1 4.6-1c3.9 0 5.2 2.3 5.2 5.1c0 0 0 4 0 4c0 1.2 0 2.3.1 2.9c.03 0-3.3 0-3.3 0zm-.4-5.5c-1.9-.1-3.4.4-3.4 1.8c0 .9.6 1.4 1.4 1.4c1 0 1.7-.6 1.9-1.3c.1-.2.1-.5.1-.7c0 0 0-1.2 0-1.2zm6.4 5.5l0-11.7l3.7 0l0 11.7l-3.7 0zm3.8-15c0 1-.8 1.8-2 1.8c-1.1 0-1.9-.8-1.9-1.8c0-1.1.8-1.8 2-1.8c1.1 0 1.9.7 1.9 1.8zm2.8 7c0-1.5 0-2.7-.1-3.7c.02-.04 3.1 0 3.1 0l.2 1.5c0 0 .03.05 0 0c.5-.7 1.6-1.8 3.6-1.8c1.5 0 2.7.8 3.2 2c0 0 0 0 0 0c.5-.6 1-1.1 1.6-1.4c.6-.4 1.3-.6 2.2-.6c2.2 0 4 1.6 4 5.1c-.05-.01 0 6.9 0 6.9l-3.6 0c0 0 0-6.38 0-6.4c0-1.7-.6-2.7-1.7-2.7c-.9 0-1.5.6-1.7 1.3c-.1.3-.2.6-.2.9c.05.04 0 6.9 0 6.9l-3.5 0c0 0-.01-6.58 0-6.6c0-1.5-.5-2.5-1.7-2.5c-.9 0-1.5.7-1.7 1.3c-.1.3-.1.7-.1 1c-.03-.04 0 6.8 0 6.8l-3.6 0c0 0 .02-7.99 0-8zm29.3-8.2l0 16.2l-3.7 0l0-16.2l3.7 0zm6.3 3.1l-4.4 0l0-3.1l12.5 0l0 3.1l-4.4 0l0 13.1l-3.7 0l0-13.1zm21.2 12.6c-.7.4-2.2.7-4.2.7c-5.5 0-8.4-3.4-8.4-8c0-5.6 3.9-8.6 8.8-8.6c1.9 0 3.3.3 4 .7c0 0-.8 2.9-.8 2.9c-.7-.3-1.7-.6-3-.6c-2.9 0-5.2 1.7-5.2 5.3c0 3.3 1.9 5.3 5.2 5.3c1.1 0 2.3-.2 3-.5c0 0 .6 2.8.6 2.8z" stroke="none" fill="#15345e"/></g><g id="Polygon7820"><path d="m21.4 1.8l0 16.2l-3.7 0l0-16.2l3.7 0zm3.1 8.2c0-1.5 0-2.7-.1-3.7c.03-.04 3.2 0 3.2 0l.2 1.6c0 0 .04-.03 0 0c.5-.8 1.7-1.9 3.7-1.9c2.4 0 4.2 1.6 4.2 5c-.04.04 0 7 0 7l-3.7 0c0 0 .02-6.5 0-6.5c0-1.5-.5-2.5-1.8-2.5c-1 0-1.6.6-1.9 1.3c-.1.2-.1.6-.1.9c-.02.03 0 6.8 0 6.8l-3.7 0c0 0 .03-7.99 0-8zm18-7.1l0 3.4l2.6 0l0 2.7l-2.6 0c0 0 .03 4.2 0 4.2c0 1.4.4 2.1 1.5 2.1c.4 0 .8-.1 1-.1c0 0 .1 2.7.1 2.7c-.5.2-1.4.3-2.4.3c-1.2 0-2.2-.4-2.7-1c-.7-.7-1-1.8-1-3.4c-.05-.05 0-4.8 0-4.8l-1.6 0l0-2.7l1.6 0l0-2.6l3.5-.8zm7.4 10.4c.2 1.5 1.7 2.2 3.4 2.2c1.2 0 2.2-.1 3.2-.5c0 0 .5 2.5.5 2.5c-1.2.5-2.7.7-4.3.7c-4 0-6.2-2.3-6.2-5.9c0-3 1.8-6.3 5.9-6.3c3.8 0 5.2 3 5.2 5.9c0 .6 0 1.1-.1 1.4c0 0-7.6 0-7.6 0zm4.3-2.5c0-.9-.3-2.4-2-2.4c-1.6 0-2.2 1.4-2.3 2.4c0 0 4.3 0 4.3 0zm5.6-.7c0-1.7 0-2.8-.1-3.8c.01-.04 3.2 0 3.2 0l.1 2.1c0 0 .07.02.1 0c.6-1.7 2-2.4 3.1-2.4c.4 0 .5 0 .8 0c0 0 0 3.5 0 3.5c-.3-.1-.6-.1-1-.1c-1.3 0-2.2.7-2.5 1.8c0 .3 0 .6 0 .8c-.04.05 0 6 0 6l-3.7 0c0 0 .01-7.87 0-7.9zm12.3-3.8c0 0 1.55 5.41 1.6 5.4c.2 1 .5 1.9.6 2.9c0 0 .1 0 .1 0c.2-1 .4-1.9.6-2.9c.05.01 1.6-5.4 1.6-5.4l3.8 0l-4.4 11.7l-3.6 0l-4.3-11.7l4 0zm12.4 7c.1 1.5 1.6 2.2 3.3 2.2c1.3 0 2.3-.1 3.3-.5c0 0 .5 2.5.5 2.5c-1.2.5-2.7.7-4.3.7c-4 0-6.3-2.3-6.3-5.9c0-3 1.9-6.3 6-6.3c3.8 0 5.2 3 5.2 5.9c0 .6-.1 1.1-.1 1.4c0 0-7.6 0-7.6 0zm4.3-2.5c0-.9-.4-2.4-2-2.4c-1.6 0-2.2 1.4-2.3 2.4c0 0 4.3 0 4.3 0zm5.6-.8c0-1.5-.1-2.7-.1-3.7c-.01-.04 3.2 0 3.2 0l.1 1.6c0 0 .1-.03.1 0c.5-.8 1.7-1.9 3.6-1.9c2.4 0 4.2 1.6 4.2 5c.03.04 0 7 0 7l-3.6 0c0 0-.02-6.5 0-6.5c0-1.5-.5-2.5-1.9-2.5c-1 0-1.6.6-1.8 1.3c-.1.2-.2.6-.2.9c.04.03 0 6.8 0 6.8l-3.6 0c0 0-.01-7.99 0-8zm18-7.1l0 3.4l2.6 0l0 2.7l-2.6 0c0 0-.01 4.2 0 4.2c0 1.4.3 2.1 1.4 2.1c.5 0 .8-.1 1.1-.1c0 0 0 2.7 0 2.7c-.4.2-1.3.3-2.3.3c-1.2 0-2.2-.4-2.8-1c-.6-.7-1-1.8-1-3.4c.01-.05 0-4.8 0-4.8l-1.5 0l0-2.7l1.5 0l0-2.6l3.6-.8zm4.7 15.1l0-11.7l3.7 0l0 11.7l-3.7 0zm3.8-15c0 1-.8 1.8-2 1.8c-1.1 0-1.9-.8-1.9-1.8c0-1.1.8-1.8 1.9-1.8c1.2 0 2 .7 2 1.8zm14.4 9c0 4.3-3.1 6.3-6.2 6.3c-3.4 0-6.1-2.3-6.1-6.1c0-3.8 2.5-6.2 6.3-6.2c3.6 0 6 2.5 6 6zm-8.5.1c0 2 .8 3.5 2.4 3.5c1.4 0 2.3-1.4 2.3-3.5c0-1.7-.7-3.5-2.3-3.5c-1.8 0-2.4 1.8-2.4 3.5zm10.7-2.1c0-1.5 0-2.7-.1-3.7c.05-.04 3.2 0 3.2 0l.2 1.6c0 0 .05-.03.1 0c.4-.8 1.6-1.9 3.6-1.9c2.4 0 4.2 1.6 4.2 5c-.02.04 0 7 0 7l-3.7 0c0 0 .03-6.5 0-6.5c0-1.5-.5-2.5-1.8-2.5c-1 0-1.6.6-1.9 1.3c-.1.2-.1.6-.1.9c-.01.03 0 6.8 0 6.8l-3.7 0c0 0 .04-7.99 0-8zm14.1 4.8c.7.4 2 .9 3.1.9c1.1 0 1.6-.4 1.6-1c0-.6-.4-.9-1.7-1.3c-2.5-.8-3.4-2.2-3.4-3.6c0-2.1 1.9-3.8 4.8-3.8c1.4 0 2.6.3 3.3.7c0 0-.6 2.5-.6 2.5c-.6-.3-1.6-.7-2.6-.7c-.9 0-1.4.4-1.4 1c0 .5.5.8 1.9 1.3c2.3.8 3.2 1.9 3.2 3.6c0 2.2-1.7 3.8-5.1 3.8c-1.5 0-2.9-.3-3.8-.8c0 0 .7-2.6.7-2.6zm19.3-11.9l0 3.4l2.7 0l0 2.7l-2.7 0c0 0 .05 4.2 0 4.2c0 1.4.4 2.1 1.5 2.1c.4 0 .8-.1 1.1-.1c0 0 0 2.7 0 2.7c-.5.2-1.4.3-2.4.3c-1.2 0-2.1-.4-2.7-1c-.7-.7-1-1.8-1-3.4c-.03-.05 0-4.8 0-4.8l-1.6 0l0-2.7l1.6 0l0-2.6l3.5-.8zm16.2 9.1c0 4.3-3 6.3-6.1 6.3c-3.5 0-6.1-2.3-6.1-6.1c0-3.8 2.5-6.2 6.2-6.2c3.6 0 6 2.5 6 6zm-8.4.1c0 2 .8 3.5 2.4 3.5c1.4 0 2.3-1.4 2.3-3.5c0-1.7-.7-3.5-2.3-3.5c-1.8 0-2.4 1.8-2.4 3.5z" stroke="none" fill="#15345e"/></g></svg>