<?xml version="1.0" standalone="no"?><!DOCTYPE svg PUBLIC "-//W3C//DTD SVG 1.1//EN" "http://www.w3.org/Graphics/SVG/1.1/DTD/svg11.dtd"><svg xmlns="http://www.w3.org/2000/svg" version="1.1" width="90px" height="60px" viewBox="0 -6 90 60" style="top:-6px"><desc>real-time sync</desc><defs/><g id="Polygon7323"><path d="m24 38.8c.6.4 1.8.9 2.8.9c1.5 0 2.3-.8 2.3-1.7c0-1.1-.6-1.6-2.2-2.2c-2.1-.7-3.1-1.9-3.1-3.3c0-1.8 1.5-3.4 4-3.4c1.2 0 2.2.4 2.9.7c0 0-.5 1.6-.5 1.6c-.5-.3-1.3-.7-2.4-.7c-1.3 0-2 .7-2 1.6c0 .9.7 1.4 2.3 2c2 .7 3 1.7 3 3.5c0 2-1.6 3.4-4.3 3.4c-1.3 0-2.5-.3-3.3-.8c0 0 .5-1.6.5-1.6zm10.6-9.4c0 0 2.53 6.85 2.5 6.8c.3.8.6 1.7.8 2.4c0 0 0 0 0 0c.2-.7.5-1.6.8-2.4c-.04 0 2.3-6.8 2.3-6.8l2.2 0c0 0-3.17 8.26-3.2 8.3c-1.5 3.9-2.5 6-4 7.2c-1 .9-2 1.3-2.5 1.4c0 0-.6-1.8-.6-1.8c.6-.1 1.3-.5 1.9-1c.6-.5 1.3-1.3 1.8-2.4c0-.2.1-.3.1-.5c0-.1 0-.2-.1-.5c-.02-.01-4.3-10.7-4.3-10.7l2.3 0zm10.5 3.1c0-1.2 0-2.2-.1-3.1c.02-.02 1.9 0 1.9 0l.1 1.9c0 0 .06 0 .1 0c.5-1.1 1.9-2.2 3.8-2.2c1.6 0 4.1 1 4.1 5c.01-.04 0 6.9 0 6.9l-2.1 0c0 0 0-6.7 0-6.7c0-1.9-.7-3.4-2.7-3.4c-1.4 0-2.5 1-2.8 2.1c-.1.3-.2.7-.2 1c.03.02 0 7 0 7l-2.1 0c0 0 .02-8.47 0-8.5zm21.6 8.1c-.5.3-1.8.6-3.3.6c-3.5 0-5.8-2.3-5.8-5.9c0-3.6 2.4-6.2 6.2-6.2c1.3 0 2.4.4 3 .6c0 0-.5 1.7-.5 1.7c-.5-.3-1.3-.6-2.5-.6c-2.6 0-4.1 2-4.1 4.4c0 2.7 1.8 4.4 4.1 4.4c1.2 0 2-.4 2.6-.6c0 0 .3 1.6.3 1.6z" stroke="none" fill="#3c3c3b"/></g><g id="Polygon7322"><path d="m1.8 10c0-1.4 0-2.5-.1-3.6c.04-.02 1.9 0 1.9 0l.1 2.3c0 0 .06-.04.1 0c.5-1.6 1.8-2.6 3.2-2.6c.2 0 .4 0 .6.1c0 0 0 2 0 2c-.2-.1-.5-.1-.7-.1c-1.5 0-2.6 1.1-2.9 2.7c0 .3-.1.6-.1 1c.02.01 0 6.2 0 6.2l-2.1 0c0 0 .04-7.99 0-8zm8.8 2.6c.1 2.8 1.9 4 4 4c1.5 0 2.4-.3 3.2-.6c0 0 .4 1.5.4 1.5c-.8.4-2 .7-3.9.7c-3.6 0-5.7-2.3-5.7-5.8c0-3.5 2.1-6.3 5.5-6.3c3.7 0 4.8 3.4 4.8 5.5c0 .4-.1.8-.1 1c0 0-8.2 0-8.2 0zm6.2-1.5c0-1.4-.5-3.5-2.9-3.5c-2.2 0-3.1 2-3.3 3.5c0 0 6.2 0 6.2 0zm11.1 6.9l-.2-1.5c0 0-.04.04 0 0c-.7.9-1.9 1.8-3.6 1.8c-2.3 0-3.5-1.7-3.5-3.4c0-2.8 2.5-4.3 6.9-4.3c0 0 0-.2 0-.2c0-1-.2-2.7-2.6-2.7c-1.1 0-2.2.3-3 .8c0 0-.5-1.3-.5-1.3c1-.7 2.3-1.1 3.8-1.1c3.6 0 4.4 2.4 4.4 4.8c0 0 0 4.3 0 4.3c0 1 .1 2 .2 2.8c.02 0-1.9 0-1.9 0zm-.3-5.9c-2.3-.1-4.9.3-4.9 2.6c0 1.4.9 2 2 2c1.5 0 2.4-1 2.8-1.9c0-.3.1-.5.1-.7c0 0 0-2 0-2zm5.4-11.1l2.1 0l0 17l-2.1 0l0-17zm10.6 9.7l0 1.6l-5.9 0l0-1.6l5.9 0zm5-7.7l0 3.4l3 0l0 1.6l-3 0c0 0 .01 6.26 0 6.3c0 1.4.4 2.2 1.6 2.2c.5 0 1-.1 1.2-.1c0 0 .1 1.6.1 1.6c-.4.1-1 .2-1.9.2c-.9 0-1.7-.3-2.2-.8c-.6-.7-.9-1.7-.9-3.1c.05.03 0-6.3 0-6.3l-1.8 0l0-1.6l1.8 0l0-2.8l2.1-.6zm5.4 15l0-11.6l2.1 0l0 11.6l-2.1 0zm2.4-14.9c0 .7-.5 1.3-1.4 1.3c-.7 0-1.3-.6-1.3-1.3c0-.7.6-1.3 1.4-1.3c.8 0 1.3.6 1.3 1.3zm3.2 6.4c0-1.2 0-2.2-.1-3.1c.03-.02 1.9 0 1.9 0l.1 1.9c0 0 .05-.04 0 0c.7-1.1 1.8-2.2 3.7-2.2c1.6 0 2.8 1 3.3 2.3c0 0 0 0 0 0c.4-.6.8-1.1 1.3-1.5c.7-.5 1.5-.8 2.6-.8c1.5 0 3.8 1 3.8 5.1c.01-.04 0 6.8 0 6.8l-2.1 0c0 0 .05-6.58 0-6.6c0-2.2-.8-3.6-2.5-3.6c-1.2 0-2.1.9-2.5 2c-.1.3-.1.6-.1 1c-.04.02 0 7.2 0 7.2l-2.1 0c0 0 0-6.96 0-7c0-1.8-.8-3.2-2.4-3.2c-1.3 0-2.3 1.1-2.6 2.2c-.2.3-.2.6-.2 1c-.01-.01 0 7 0 7l-2.1 0c0 0 .03-8.47 0-8.5zm21.2 3.1c.1 2.8 1.9 4 4 4c1.5 0 2.4-.3 3.2-.6c0 0 .4 1.5.4 1.5c-.8.4-2 .7-3.9.7c-3.6 0-5.7-2.3-5.7-5.8c0-3.5 2.1-6.3 5.5-6.3c3.7 0 4.8 3.4 4.8 5.5c0 .4-.1.8-.1 1c0 0-8.2 0-8.2 0zm6.2-1.5c0-1.4-.5-3.5-2.9-3.5c-2.2 0-3.1 2-3.3 3.5c0 0 6.2 0 6.2 0z" stroke="none" fill="#3c3c3b"/></g></svg>