<?xml version="1.0" standalone="no"?><!DOCTYPE svg PUBLIC "-//W3C//DTD SVG 1.1//EN" "http://www.w3.org/Graphics/SVG/1.1/DTD/svg11.dtd"><svg xmlns="http://www.w3.org/2000/svg" xmlns:xlink="http://www.w3.org/1999/xlink" version="1.1" width="779px" height="54.5px" viewBox="0 -9 779 54.5" style="top:-9px"><desc>| +91 63589 76018</desc><defs/><g class="svg-textframe-underlines"><rect class="svg-underline" x="111.4" y="24.8" width="320.6" height="1.5" style="fill:#fff;"/></g><g id="Polygon9869"><path d="m443 0l0 30l-2 0l0-30l2 0zm18.8 6.5l0 7.1l6.8 0l0 1.8l-6.8 0l0 7.1l-1.9 0l0-7.1l-6.8 0l0-1.8l6.8 0l0-7.1l1.9 0zm10.9 14.1c.6.1 1.2 0 2.1 0c1.6-.3 3-.9 4.1-1.9c1.3-1.2 2.2-2.9 2.6-5.2c0 0-.1 0-.1 0c-1.1 1.3-2.6 2.1-4.6 2.1c-3.5 0-5.7-2.7-5.7-6c0-3.7 2.6-6.9 6.6-6.9c4 0 6.5 3.2 6.5 8.2c0 4.3-1.5 7.3-3.4 9.1c-1.5 1.5-3.6 2.4-5.7 2.6c-.9.2-1.8.2-2.4.2c0 0 0-2.2 0-2.2zm1-11.2c0 2.5 1.4 4.2 3.7 4.2c1.8 0 3.2-.9 3.9-2.1c.1-.2.2-.5.2-.9c0-3.4-1.2-5.9-4-5.9c-2.2 0-3.8 2-3.8 4.7zm18.6-3.9l-.1 0l-3.4 1.8l-.5-2l4.3-2.3l2.2 0l0 19.5l-2.5 0l0-17zm27.1-.6c-.5-.1-1.2 0-1.9.1c-4.2.7-6.4 3.7-6.8 6.9c0 0 .1 0 .1 0c.9-1.2 2.5-2.2 4.7-2.2c3.4 0 5.9 2.5 5.9 6.3c0 3.5-2.5 6.8-6.5 6.8c-4.2 0-6.9-3.2-6.9-8.3c0-3.8 1.4-6.8 3.3-8.8c1.6-1.6 3.8-2.6 6.2-2.8c.8-.2 1.5-.2 1.9-.2c0 0 0 2.2 0 2.2zm-.7 11.2c0-2.8-1.6-4.5-4-4.5c-1.6 0-3.1 1-3.8 2.4c-.2.3-.3.7-.3 1.2c.1 3.2 1.5 5.6 4.3 5.6c2.3 0 3.8-1.9 3.8-4.7zm5.6 3.4c.8.5 2.5 1.2 4.4 1.2c3.3 0 4.4-2.2 4.4-3.8c-.1-2.7-2.5-3.9-5.1-3.9c.02.02-1.4 0-1.4 0l0-2c0 0 1.42.04 1.4 0c1.9 0 4.4-.9 4.4-3.3c0-1.5-1-2.9-3.4-2.9c-1.6 0-3.1.7-3.9 1.3c0 0-.7-1.9-.7-1.9c1-.8 3-1.5 5.1-1.5c3.8 0 5.5 2.3 5.5 4.6c0 2-1.2 3.7-3.6 4.6c0 0 0 .1 0 .1c2.4.4 4.4 2.3 4.4 5c0 3.1-2.4 5.8-7.1 5.8c-2.2 0-4.1-.7-5.1-1.3c0 0 .7-2 .7-2zm26.4-14.3l-7.4 0c0 0-.76 5.03-.8 5c.5 0 .9-.1 1.6-.1c1.5 0 3 .3 4.2 1.1c1.6.8 2.8 2.5 2.8 5c0 3.8-3 6.6-7.2 6.6c-2.2 0-4-.6-4.9-1.2c0 0 .7-2 .7-2c.8.5 2.4 1.1 4.1 1.1c2.5 0 4.7-1.6 4.7-4.2c-.1-2.6-1.8-4.3-5.7-4.3c-1.1 0-1.9.1-2.7.2c.04-.04 1.3-9.4 1.3-9.4l9.3 0l0 2.2zm3.5 12.4c0-2.5 1.5-4.2 3.9-5.3c0 0 0-.1 0-.1c-2.2-1-3.1-2.7-3.1-4.3c0-3.1 2.6-5.2 6-5.2c3.8 0 5.7 2.3 5.7 4.8c0 1.6-.8 3.4-3.2 4.5c0 0 0 .1 0 .1c2.4 1 3.9 2.7 3.9 5.1c0 3.4-2.9 5.6-6.6 5.6c-4.1 0-6.6-2.4-6.6-5.2zm10.5-.2c0-2.3-1.6-3.5-4.2-4.2c-2.3.6-3.6 2.1-3.6 4c0 2 1.5 3.7 3.9 3.7c2.4 0 3.9-1.5 3.9-3.5zm-7.2-9.7c0 1.9 1.5 3 3.7 3.6c1.7-.6 3-1.8 3-3.6c0-1.5-1-3.1-3.3-3.1c-2.2 0-3.4 1.4-3.4 3.1zm13.9 12.9c.6.1 1.2 0 2.1 0c1.6-.3 3-.9 4.1-1.9c1.3-1.2 2.2-2.9 2.6-5.2c0 0-.1 0-.1 0c-1.1 1.3-2.6 2.1-4.6 2.1c-3.5 0-5.8-2.7-5.8-6c0-3.7 2.7-6.9 6.7-6.9c4 0 6.5 3.2 6.5 8.2c0 4.3-1.5 7.3-3.4 9.1c-1.5 1.5-3.6 2.4-5.7 2.6c-.9.2-1.8.2-2.4.2c0 0 0-2.2 0-2.2zm1-11.2c0 2.5 1.4 4.2 3.7 4.2c1.8 0 3.2-.9 3.8-2.1c.2-.2.3-.5.3-.9c0-3.4-1.2-5.9-4-5.9c-2.3 0-3.8 2-3.8 4.7zm31.9-6.4l0 1.7l-8.5 17.8l-2.7 0l8.4-17.2l0-.1l-9.5 0l0-2.2l12.3 0zm13.8 1.9c-.5-.1-1.2 0-1.9.1c-4.2.7-6.4 3.7-6.8 6.9c0 0 .1 0 .1 0c.9-1.2 2.5-2.2 4.7-2.2c3.4 0 5.9 2.5 5.9 6.3c0 3.5-2.5 6.8-6.5 6.8c-4.2 0-6.9-3.2-6.9-8.3c0-3.8 1.4-6.8 3.3-8.8c1.6-1.6 3.8-2.6 6.2-2.8c.8-.2 1.5-.2 1.9-.2c0 0 0 2.2 0 2.2zm-.7 11.2c0-2.8-1.6-4.5-4-4.5c-1.6 0-3.1 1-3.8 2.4c-.2.3-.3.7-.3 1.2c0 3.2 1.5 5.6 4.3 5.6c2.3 0 3.8-1.9 3.8-4.7zm18-3.6c0 6.7-2.5 10.3-6.8 10.3c-3.8 0-6.4-3.5-6.5-10c0-6.5 2.8-10.1 6.8-10.1c4.1 0 6.5 3.6 6.5 9.8zm-10.6.3c0 5.1 1.5 8 3.9 8c2.7 0 4-3.2 4-8.1c0-4.8-1.2-8-3.9-8c-2.4 0-4 2.8-4 8.1zm18.7-7.3l0 0l-3.4 1.8l-.5-2l4.2-2.3l2.3 0l0 19.5l-2.6 0l0-17zm9.4 12.1c0-2.5 1.5-4.2 3.9-5.3c0 0 0-.1 0-.1c-2.2-1-3.1-2.7-3.1-4.3c0-3.1 2.6-5.2 6-5.2c3.8 0 5.7 2.3 5.7 4.8c0 1.6-.8 3.4-3.2 4.5c0 0 0 .1 0 .1c2.4 1 3.9 2.7 3.9 5.1c0 3.4-2.9 5.6-6.6 5.6c-4.1 0-6.6-2.4-6.6-5.2zm10.5-.2c0-2.3-1.6-3.5-4.3-4.2c-2.2.6-3.5 2.1-3.5 4c-.1 2 1.4 3.7 3.9 3.7c2.4 0 3.9-1.5 3.9-3.5zm-7.2-9.7c0 1.9 1.4 3 3.7 3.6c1.7-.6 3-1.8 3-3.6c0-1.5-1-3.1-3.3-3.1c-2.2 0-3.4 1.4-3.4 3.1z" stroke="none" fill="#fff"/></g><g id="Polygon9868"><path d="m111.4 1.2l2.7 0l0 9.1c0 0 .02-.04 0 0c.4-.8 1.1-1.4 1.9-1.9c.8-.4 1.7-.7 2.7-.7c2 0 5.1 1.2 5.1 6.2c-.02-.04 0 8.6 0 8.6l-2.7 0c0 0 .04-8.34 0-8.3c0-2.4-.8-4.4-3.3-4.4c-1.7 0-3.1 1.2-3.6 2.7c-.1.3-.1.7-.1 1.2c-.04.04 0 8.8 0 8.8l-2.7 0l0-21.3zm18.1 14.5c.1 3.6 2.4 5.1 5 5.1c1.9 0 3-.4 4-.8c0 0 .5 1.9.5 1.9c-.9.4-2.5.9-4.8.9c-4.5 0-7.2-2.9-7.2-7.3c0-4.4 2.6-7.8 6.8-7.8c4.8 0 6 4.1 6 6.8c0 .5 0 1-.1 1.2c0 0-10.2 0-10.2 0zm7.8-1.9c0-1.6-.7-4.3-3.7-4.3c-2.7 0-3.8 2.5-4 4.3c0 0 7.7 0 7.7 0zm5.8-12.6l2.6 0l0 21.3l-2.6 0l0-21.3zm7.1 0l2.6 0l0 21.3l-2.6 0l0-21.3zm20.2 13.9c0 5.4-3.7 7.7-7.2 7.7c-4 0-7-2.8-7-7.4c0-4.9 3.2-7.7 7.2-7.7c4.2 0 7 3 7 7.4zm-11.5.2c0 3.2 1.8 5.6 4.4 5.6c2.5 0 4.4-2.4 4.4-5.7c0-2.4-1.2-5.6-4.4-5.6c-3.1 0-4.4 2.9-4.4 5.7zm26.7-3.8c-.3-.1-.8-.2-1.5-.2c-2.6 0-4.8 2.4-4.8 5.4c0 1.3.7 2.2 2 2.2c1.8 0 3.3-2.2 3.7-4c0 0 .6-3.4.6-3.4zm1.7 12.9c-1.7.9-3.4 1.2-5.4 1.2c-4.9 0-9.1-3.6-9.1-9.3c0-6.2 4.3-11.6 11-11.6c5.2 0 8.7 3.7 8.7 8.7c0 4.5-2.5 7.2-5.3 7.2c-1.2 0-2.3-.9-2.3-2.7c0 0-.1 0-.1 0c-1 1.8-2.4 2.7-4.2 2.7c-1.7 0-3.2-1.5-3.2-3.8c0-3.7 2.9-7.1 7.1-7.1c1.3 0 2.4.2 3.2.6c0 0-1 5.4-1 5.4c-.5 2.3-.1 3.4.9 3.4c1.5 0 3.2-2 3.2-5.5c0-4.4-2.6-7.5-7.3-7.5c-4.9 0-9 3.9-9 10c0 5 3.3 8.1 7.7 8.1c1.8 0 3.3-.4 4.6-1.1c0 0 .5 1.3.5 1.3zm18.9-2.4c-.7.3-2.2.8-4.2.8c-4.4 0-7.2-3-7.2-7.4c0-4.5 3-7.7 7.8-7.7c1.5 0 2.9.4 3.6.7c0 0-.6 2.1-.6 2.1c-.6-.4-1.6-.7-3-.7c-3.3 0-5.1 2.4-5.1 5.5c0 3.3 2.1 5.4 5 5.4c1.5 0 2.5-.4 3.2-.7c0 0 .5 2 .5 2zm4.6-14c0 0 3.16 8.56 3.2 8.6c.3.9.6 2.1.9 2.9c0 0 0 0 0 0c.3-.8.6-1.9 1-3c-.02 0 2.9-8.5 2.9-8.5l2.7 0c0 0-3.91 10.33-3.9 10.3c-1.9 5-3.2 7.6-5 9.1c-1.3 1.2-2.6 1.6-3.2 1.7c0 0-.7-2.2-.7-2.2c.7-.2 1.5-.6 2.3-1.3c.7-.6 1.6-1.6 2.2-2.9c.2-.3.2-.5.2-.6c0-.2 0-.4-.1-.7c-.03-.04-5.4-13.4-5.4-13.4l2.9 0zm25.4 0c-.1 1-.2 2.2-.2 4c0 0 0 8.4 0 8.4c0 3.3-.6 5.4-2 6.6c-1.4 1.3-3.5 1.8-5.3 1.8c-1.8 0-3.7-.5-4.8-1.2c0 0 .6-2 .6-2c1 .6 2.5 1.1 4.3 1.1c2.7 0 4.7-1.4 4.7-5.1c-.04.03 0-1.6 0-1.6c0 0-.1.01-.1 0c-.8 1.4-2.4 2.4-4.6 2.4c-3.6 0-6.2-3-6.2-7c0-5 3.2-7.7 6.5-7.7c2.6 0 3.9 1.3 4.6 2.5c-.03-.03 0 0 0 0l.1-2.2c0 0 2.36-.02 2.4 0zm-2.8 5.7c0-.4 0-.8-.1-1.2c-.5-1.5-1.8-2.8-3.7-2.8c-2.5 0-4.3 2.2-4.3 5.5c0 2.9 1.4 5.2 4.3 5.2c1.6 0 3-1 3.6-2.7c.2-.4.2-.9.2-1.4c0 0 0-2.6 0-2.6zm6.8-1.8c0-1.5 0-2.7-.1-3.9c.02-.02 2.4 0 2.4 0l.1 2.4c0 0 .07-.02.1 0c.7-1.4 2.4-2.7 4.8-2.7c2 0 5.1 1.2 5.1 6.1c0 .03 0 8.7 0 8.7l-2.6 0c0 0-.04-8.37 0-8.4c0-2.3-.9-4.3-3.4-4.3c-1.7 0-3.1 1.3-3.5 2.7c-.2.4-.2.8-.2 1.3c-.02-.03 0 8.7 0 8.7l-2.7 0c0 0 .04-10.59 0-10.6zm18.2 3.8c0 3.6 2.3 5.1 4.9 5.1c1.9 0 3.1-.4 4.1-.8c0 0 .4 1.9.4 1.9c-.9.4-2.5.9-4.8.9c-4.5 0-7.2-2.9-7.2-7.3c0-4.4 2.6-7.8 6.8-7.8c4.8 0 6 4.1 6 6.8c0 .5 0 1 0 1.2c0 0-10.2 0-10.2 0zm7.7-1.9c0-1.6-.7-4.3-3.7-4.3c-2.6 0-3.8 2.5-4 4.3c0 0 7.7 0 7.7 0zm9-10l0 4.2l3.8 0l0 2l-3.8 0c0 0 0 7.82 0 7.8c0 1.8.5 2.8 2 2.8c.7 0 1.2 0 1.5-.1c0 0 .1 1.9.1 1.9c-.5.2-1.3.4-2.3.4c-1.2 0-2.2-.4-2.9-1.1c-.7-.8-1-2.1-1-3.8c.02.01 0-7.9 0-7.9l-2.2 0l0-2l2.2 0l0-3.5l2.6-.7zm9.9 0l0 4.2l3.8 0l0 2l-3.8 0c0 0 .03 7.82 0 7.8c0 1.8.5 2.8 2 2.8c.7 0 1.2 0 1.5-.1c0 0 .2 1.9.2 1.9c-.6.2-1.4.4-2.4.4c-1.2 0-2.2-.4-2.8-1.1c-.8-.8-1.1-2.1-1.1-3.8c.05.01 0-7.9 0-7.9l-2.2 0l0-2l2.2 0l0-3.5l2.6-.7zm14.8 18.7l-.2-1.8c0 0-.08-.03-.1 0c-.8 1.1-2.4 2.1-4.4 2.1c-3 0-4.5-2-4.5-4.1c0-3.5 3.2-5.5 8.8-5.4c0 0 0-.3 0-.3c0-1.2-.4-3.4-3.3-3.4c-1.4 0-2.8.4-3.8 1.1c0 0-.6-1.8-.6-1.8c1.2-.7 2.9-1.2 4.8-1.2c4.4 0 5.5 3 5.5 5.9c0 0 0 5.4 0 5.4c0 1.3 0 2.5.2 3.5c.02 0-2.4 0-2.4 0zm-.4-7.4c-2.9-.1-6.1.4-6.1 3.3c0 1.7 1.1 2.5 2.5 2.5c1.9 0 3.1-1.2 3.5-2.4c.1-.3.1-.6.1-.9c0 0 0-2.5 0-2.5zm8.1-7.1c0 0 2.04 3.1 2 3.1c.6.8 1 1.6 1.5 2.4c0 0 .1 0 .1 0c.5-.9 1-1.6 1.4-2.4c.04-.03 2.1-3.1 2.1-3.1l2.8 0l-4.9 7l5.1 7.5l-3 0c0 0-2.15-3.27-2.2-3.3c-.5-.8-1-1.6-1.5-2.5c0 0-.1 0-.1 0c-.5.9-1 1.7-1.5 2.5c0 .03-2.1 3.3-2.1 3.3l-2.9 0l5.1-7.4l-4.9-7.1l3 0zm16.2-4.2l0 4.2l3.8 0l0 2l-3.8 0c0 0-.01 7.82 0 7.8c0 1.8.5 2.8 2 2.8c.7 0 1.2 0 1.5-.1c0 0 .1 1.9.1 1.9c-.5.2-1.3.4-2.3.4c-1.2 0-2.2-.4-2.9-1.1c-.7-.8-1-2.1-1-3.8c.01.01 0-7.9 0-7.9l-2.2 0l0-2l2.2 0l0-3.5l2.6-.7zm8 11.9c.1 3.6 2.4 5.1 5 5.1c1.9 0 3-.4 4-.8c0 0 .5 1.9.5 1.9c-.9.4-2.5.9-4.8.9c-4.5 0-7.2-2.9-7.2-7.3c0-4.4 2.6-7.8 6.8-7.8c4.8 0 6 4.1 6 6.8c0 .5 0 1-.1 1.2c0 0-10.2 0-10.2 0zm7.8-1.9c0-1.6-.7-4.3-3.7-4.3c-2.7 0-3.8 2.5-4 4.3c0 0 7.7 0 7.7 0zm16.1 8.2c-.6.3-2.2.8-4.1.8c-4.4 0-7.3-3-7.3-7.4c0-4.5 3.1-7.7 7.8-7.7c1.6 0 3 .4 3.7.7c0 0-.6 2.1-.6 2.1c-.6-.4-1.6-.7-3.1-.7c-3.3 0-5.1 2.4-5.1 5.5c0 3.3 2.2 5.4 5.1 5.4c1.5 0 2.4-.4 3.2-.7c0 0 .4 2 .4 2zm3.1-20.8l2.7 0l0 9.1c0 0 .03-.04 0 0c.5-.8 1.1-1.4 1.9-1.9c.8-.4 1.7-.7 2.7-.7c2 0 5.1 1.2 5.1 6.2c-.01-.04 0 8.6 0 8.6l-2.6 0c0 0-.05-8.34 0-8.3c0-2.4-.9-4.4-3.4-4.4c-1.7 0-3.1 1.2-3.5 2.7c-.2.3-.2.7-.2 1.2c-.03.04 0 8.8 0 8.8l-2.7 0l0-21.3zm16.1 19.7c0-1.1.7-1.8 1.8-1.8c1 0 1.7.7 1.7 1.8c0 1.1-.7 1.9-1.8 1.9c-1 0-1.7-.8-1.7-1.9zm17.1 1.1c-.6.3-2.2.8-4.1.8c-4.4 0-7.3-3-7.3-7.4c0-4.5 3.1-7.7 7.8-7.7c1.6 0 3 .4 3.7.7c0 0-.6 2.1-.6 2.1c-.6-.4-1.6-.7-3.1-.7c-3.3 0-5.1 2.4-5.1 5.5c0 3.3 2.2 5.4 5.1 5.4c1.5 0 2.4-.4 3.2-.7c0 0 .4 2 .4 2zm16.1-6.9c0 5.4-3.7 7.7-7.2 7.7c-4 0-7-2.8-7-7.4c0-4.9 3.2-7.7 7.2-7.7c4.2 0 7 3 7 7.4zm-11.5.2c0 3.2 1.8 5.6 4.4 5.6c2.5 0 4.4-2.4 4.4-5.7c0-2.4-1.2-5.6-4.4-5.6c-3.1 0-4.4 2.9-4.4 5.7zm14.8-3.4c0-1.5 0-2.7-.1-3.9c0-.02 2.3 0 2.3 0l.1 2.3c0 0 .12.02.1 0c.8-1.4 2.2-2.6 4.6-2.6c2 0 3.5 1.2 4.1 2.9c0 0 .1 0 .1 0c.4-.8 1-1.5 1.6-1.9c.8-.7 1.8-1 3.2-1c1.9 0 4.8 1.2 4.8 6.2c-.05.05 0 8.6 0 8.6l-2.6 0c0 0-.03-8.22 0-8.2c0-2.8-1-4.5-3.2-4.5c-1.5 0-2.6 1.1-3.1 2.4c-.1.4-.2.9-.2 1.3c-.01.03 0 9 0 9l-2.6 0c0 0 .01-8.7 0-8.7c0-2.3-1-4-3-4c-1.7 0-2.9 1.3-3.3 2.6c-.1.4-.2.9-.2 1.3c0 .04 0 8.8 0 8.8l-2.6 0c0 0 .02-10.59 0-10.6z" stroke="none" fill="#fff"/><a xlink:href="mailto:hello@cygnettaxtech.com" xlink:title="hello@cygnettaxtech.com"><rect style="fill:transparent;" x="110" y="0" width="322" height="29"/></a></g></svg>