<?xml version="1.0" standalone="no"?><!DOCTYPE svg PUBLIC "-//W3C//DTD SVG 1.1//EN" "http://www.w3.org/Graphics/SVG/1.1/DTD/svg11.dtd"><svg xmlns="http://www.w3.org/2000/svg" version="1.1" width="240px" height="134px" viewBox="0 -9 240 134" style="top:-9px"><desc>Reconciled Invoices/ITC available</desc><defs/><g id="Polygon8787"><path d="m66.3 108.8l-.2-1.6c0 0-.14.05-.1 0c-1.1 1.3-2.7 2-4.5 2c-3.2 0-5-2.3-5-4.8c0-4.1 3.6-6 9.1-6c0 0 0-.2 0-.2c0-.8-.4-2-2.8-2c-1.6 0-3.3.5-4.3 1.2c0 0-.9-3.1-.9-3.1c1.1-.7 3.2-1.4 6-1.4c5.2 0 6.9 3 6.9 6.7c0 0 0 5.4 0 5.4c0 1.5 0 2.9.2 3.8c0 .01-4.4 0-4.4 0zm-.5-7.4c-2.6 0-4.6.6-4.6 2.5c0 1.2.9 1.8 2 1.8c1.2 0 2.2-.7 2.5-1.7c0-.3.1-.6.1-.9c0 0 0-1.7 0-1.7zm11.7-8.2c0 0 2.12 7.26 2.1 7.3c.4 1.3.7 2.5.9 3.8c0 0 .1 0 .1 0c.3-1.3.5-2.5.9-3.8c-.03-.04 2-7.3 2-7.3l5.1 0l-5.8 15.6l-4.9 0l-5.6-15.6l5.2 0zm21.9 15.6l-.3-1.6c0 0-.05.05-.1 0c-1 1.3-2.6 2-4.4 2c-3.2 0-5-2.3-5-4.8c0-4.1 3.6-6 9.1-6c0 0 0-.2 0-.2c0-.8-.5-2-2.8-2c-1.6 0-3.3.5-4.3 1.2c0 0-.9-3.1-.9-3.1c1.1-.7 3.2-1.4 6-1.4c5.2 0 6.9 3 6.9 6.7c0 0 0 5.4 0 5.4c0 1.5 0 2.9.2 3.8c-.01.01-4.4 0-4.4 0zm-.5-7.4c-2.6 0-4.6.6-4.6 2.5c0 1.2.9 1.8 1.9 1.8c1.3 0 2.2-.7 2.6-1.7c0-.3.1-.6.1-.9c0 0 0-1.7 0-1.7zm8.5 7.4l0-15.6l4.8 0l0 15.6l-4.8 0zm5-19.9c0 1.3-1 2.4-2.6 2.4c-1.6 0-2.6-1.1-2.5-2.4c-.1-1.4.9-2.4 2.5-2.4c1.6 0 2.6 1 2.6 2.4zm3.7-2.7l4.9 0l0 22.6l-4.9 0l0-22.6zm17.6 22.6l-.3-1.6c0 0-.06.05-.1 0c-1 1.3-2.6 2-4.4 2c-3.2 0-5-2.3-5-4.8c0-4.1 3.6-6 9.1-6c0 0 0-.2 0-.2c0-.8-.5-2-2.8-2c-1.6 0-3.3.5-4.3 1.2c0 0-.9-3.1-.9-3.1c1.1-.7 3.2-1.4 6-1.4c5.2 0 6.9 3 6.9 6.7c0 0 0 5.4 0 5.4c0 1.5 0 2.9.2 3.8c-.01.01-4.4 0-4.4 0zm-.5-7.4c-2.6 0-4.6.6-4.6 2.5c0 1.2.9 1.8 1.9 1.8c1.3 0 2.2-.7 2.6-1.7c0-.3.1-.6.1-.9c0 0 0-1.7 0-1.7zm8.4 7.4c0-1 .1-2.9.1-4.6c-.01-.04 0-18 0-18l4.8 0l0 8.9c0 0 .09-.02.1 0c.9-1.4 2.5-2.2 4.7-2.2c3.7 0 6.5 3.1 6.4 7.8c0 5.7-3.5 8.5-7.1 8.5c-1.8 0-3.6-.7-4.7-2.6c.02.04 0 0 0 0l-.2 2.2c0 0-4.14.01-4.1 0zm4.9-6.6c0 .3.1.6.1.8c.3 1.3 1.5 2.3 2.9 2.3c2 0 3.3-1.6 3.3-4.4c0-2.4-1.1-4.3-3.3-4.3c-1.3 0-2.6 1-2.9 2.4c0 .3-.1.6-.1.9c0 0 0 2.3 0 2.3zm14.2-16l4.9 0l0 22.6l-4.9 0l0-22.6zm12.5 16.4c.2 2 2.1 2.9 4.4 2.9c1.7 0 3-.2 4.3-.6c0 0 .6 3.3.6 3.3c-1.5.6-3.5.9-5.6.9c-5.3 0-8.3-3-8.3-7.9c0-4 2.4-8.3 7.9-8.3c5 0 6.9 3.9 6.9 7.8c0 .8-.1 1.5-.2 1.9c0 0-10 0-10 0zm5.7-3.3c0-1.2-.5-3.2-2.7-3.2c-2.1 0-2.9 1.8-3 3.2c0 0 5.7 0 5.7 0z" stroke="none" fill="#15345e"/></g><g id="Polygon8786"><path d="m41.7 44.9l0 21.4l-4.9 0l0-21.4l4.9 0zm4.1 10.8c0-1.9 0-3.6-.1-4.9c0-.03 4.2 0 4.2 0l.2 2.1c0 0 .13.01.1 0c.7-1 2.3-2.5 4.8-2.5c3.2 0 5.6 2.1 5.6 6.7c.01.01 0 9.2 0 9.2l-4.8 0c0 0-.03-8.59 0-8.6c0-2-.7-3.4-2.5-3.4c-1.3 0-2.1 1-2.4 1.9c-.2.2-.2.7-.2 1.2c-.03-.04 0 8.9 0 8.9l-4.9 0c0 0 .03-10.56 0-10.6zm21.7-4.9c0 0 2.09 7.2 2.1 7.2c.4 1.3.7 2.5.9 3.8c0 0 .1 0 .1 0c.2-1.3.5-2.5.8-3.8c.04 0 2-7.2 2-7.2l5.1 0l-5.8 15.5l-4.8 0l-5.7-15.5l5.3 0zm28.2 7.6c0 5.7-4.1 8.3-8.2 8.3c-4.6 0-8.1-3-8.1-8c0-5.1 3.3-8.3 8.3-8.3c4.8 0 8 3.3 8 8zm-11.3.1c0 2.7 1.1 4.7 3.2 4.7c1.9 0 3.1-1.9 3.1-4.7c0-2.3-.9-4.6-3.1-4.6c-2.3 0-3.2 2.3-3.2 4.6zm14.3 7.8l0-15.5l4.8 0l0 15.5l-4.8 0zm5-19.9c0 1.4-1.1 2.5-2.6 2.5c-1.6 0-2.6-1.1-2.6-2.5c0-1.4 1-2.4 2.6-2.4c1.5 0 2.5 1 2.6 2.4zm15.4 19.6c-.9.3-2.5.7-4.4.7c-5 0-8.2-3.1-8.2-8c0-4.6 3.1-8.3 8.9-8.3c1.3 0 2.7.2 3.7.6c0 0-.8 3.6-.8 3.6c-.5-.2-1.4-.5-2.7-.5c-2.5 0-4.2 1.9-4.1 4.4c0 2.9 1.9 4.4 4.2 4.4c1.2 0 2.1-.2 2.8-.5c0 0 .6 3.6.6 3.6zm6-5.9c.2 2 2.2 3 4.4 3c1.7 0 3-.3 4.3-.7c0 0 .7 3.3.7 3.3c-1.6.6-3.6 1-5.7 1c-5.3 0-8.3-3.1-8.3-8c0-3.9 2.5-8.3 7.9-8.3c5 0 6.9 3.9 6.9 7.8c0 .8-.1 1.6-.1 1.9c0 0-10.1 0-10.1 0zm5.7-3.3c0-1.2-.5-3.2-2.7-3.2c-2 0-2.9 1.9-3 3.2c0 0 5.7 0 5.7 0zm7.4 5.3c.9.6 2.7 1.2 4.2 1.2c1.4 0 2-.5 2-1.3c0-.8-.5-1.2-2.3-1.8c-3.2-1.1-4.4-2.8-4.4-4.7c0-2.9 2.5-5.1 6.3-5.1c1.9 0 3.5.4 4.4.9c0 0-.8 3.4-.8 3.4c-.7-.4-2.1-.9-3.4-.9c-1.2 0-1.8.4-1.8 1.2c0 .8.6 1.2 2.5 1.8c2.9 1 4.2 2.5 4.2 4.8c0 2.9-2.3 5.1-6.7 5.1c-2.1 0-3.9-.5-5.1-1.1c0 0 .9-3.5.9-3.5zm12.4 5.5l6.8-23.1l3.2 0l-6.8 23.1l-3.2 0zm17-22.7l0 21.4l-4.9 0l0-21.4l4.9 0zm8.4 4.1l-5.8 0l0-4.1l16.5 0l0 4.1l-5.9 0l0 17.3l-4.8 0l0-17.3zm28.1 16.7c-.9.5-2.9 1-5.5 1c-7.4 0-11.2-4.7-11.2-10.8c0-7.3 5.2-11.4 11.7-11.4c2.5 0 4.4.5 5.3 1c0 0-1 3.8-1 3.8c-1-.4-2.4-.8-4.1-.8c-3.9 0-6.9 2.4-6.9 7.1c0 4.3 2.6 7.1 6.9 7.1c1.5 0 3.1-.4 4.1-.7c0 0 .7 3.7.7 3.7z" stroke="none" fill="#15345e"/></g><g id="Polygon8785"><path d="m44.9 2.7c1.5-.2 3.8-.4 6.4-.4c3.2 0 5.4.4 7 1.6c1.2 1.1 1.9 2.6 1.9 4.5c0 2.8-1.9 4.7-3.7 5.3c0 0 0 .1 0 .1c1.4.6 2.3 2.1 2.8 4c.7 2.5 1.4 5.3 1.8 6.1c0 0-5 0-5 0c-.3-.6-.9-2.4-1.5-5c-.6-2.7-1.5-3.4-3.5-3.5c.03.05-1.4 0-1.4 0l0 8.5l-4.8 0c0 0-.04-21.19 0-21.2zm4.8 9.2c0 0 1.88.04 1.9 0c2.4 0 3.8-1.2 3.8-3c0-2-1.3-3-3.5-3c-1.2 0-1.9.1-2.2.1c-.03.02 0 5.9 0 5.9zm17.6 5.7c.2 2 2.1 3 4.4 3c1.7 0 3-.2 4.3-.6c0 0 .6 3.2.6 3.2c-1.6.7-3.5 1-5.6 1c-5.3 0-8.3-3.1-8.3-7.9c0-4 2.4-8.3 7.9-8.3c5 0 6.9 3.9 6.9 7.7c0 .9-.1 1.6-.2 1.9c0 0-10 0-10 0zm5.7-3.3c0-1.1-.5-3.1-2.7-3.1c-2.1 0-2.9 1.8-3 3.1c0 0 5.7 0 5.7 0zm19.1 9.2c-.9.4-2.5.7-4.3.7c-5.1 0-8.3-3.1-8.3-8c0-4.5 3.1-8.2 8.9-8.2c1.3 0 2.7.2 3.7.6c0 0-.7 3.6-.7 3.6c-.6-.3-1.5-.5-2.8-.5c-2.5 0-4.2 1.8-4.1 4.4c0 2.8 1.9 4.3 4.2 4.3c1.2 0 2.1-.2 2.8-.5c0 0 .6 3.6.6 3.6zm17.7-7.6c0 5.7-4.1 8.3-8.2 8.3c-4.6 0-8.1-3-8.1-8c0-5 3.3-8.2 8.3-8.2c4.8 0 8 3.2 8 7.9zm-11.3.2c0 2.7 1.1 4.7 3.2 4.7c1.9 0 3.1-1.9 3.1-4.7c0-2.3-.9-4.7-3.1-4.7c-2.3 0-3.2 2.4-3.2 4.7zm14.3-2.8c0-2-.1-3.6-.1-5c-.04.01 4.2 0 4.2 0l.2 2.1c0 0 .08.05.1 0c.6-.9 2.2-2.4 4.8-2.4c3.2 0 5.6 2.1 5.6 6.6c-.04.05 0 9.3 0 9.3l-4.9 0c0 0 .02-8.65 0-8.6c0-2.1-.7-3.4-2.4-3.4c-1.4 0-2.2.9-2.5 1.8c-.1.3-.2.8-.2 1.2c.03 0 0 9 0 9l-4.8 0c0 0-.01-10.62 0-10.6zm30.3 10.2c-.8.4-2.4.7-4.3.7c-5 0-8.2-3.1-8.2-8c0-4.5 3.1-8.2 8.9-8.2c1.2 0 2.6.2 3.7.6c0 0-.8 3.6-.8 3.6c-.6-.3-1.4-.5-2.7-.5c-2.6 0-4.2 1.8-4.2 4.4c0 2.8 1.9 4.3 4.3 4.3c1.1 0 2-.2 2.8-.5c0 0 .5 3.6.5 3.6zm2.7.4l0-15.6l4.9 0l0 15.6l-4.9 0zm5-19.9c0 1.3-1 2.4-2.6 2.4c-1.5 0-2.5-1.1-2.5-2.4c0-1.4 1-2.5 2.5-2.5c1.6 0 2.6 1.1 2.6 2.5zm3.7-2.7l4.9 0l0 22.6l-4.9 0l0-22.6zm12.5 16.3c.2 2 2.2 3 4.4 3c1.7 0 3-.2 4.3-.6c0 0 .6 3.2.6 3.2c-1.5.7-3.5 1-5.6 1c-5.3 0-8.3-3.1-8.3-7.9c0-4 2.5-8.3 7.9-8.3c5 0 6.9 3.9 6.9 7.7c0 .9-.1 1.6-.1 1.9c0 0-10.1 0-10.1 0zm5.7-3.3c0-1.1-.5-3.1-2.7-3.1c-2.1 0-2.9 1.8-3 3.1c0 0 5.7 0 5.7 0zm22.5-13c0 0 0 17.93 0 17.9c0 1.8.1 3.6.1 4.7c.03-.02-4.3 0-4.3 0l-.2-2.3c0 0-.06-.01-.1 0c-.9 1.7-2.8 2.6-4.8 2.6c-3.7 0-6.7-3.1-6.7-8c0-5.2 3.3-8.2 7-8.2c1.9 0 3.4.6 4.1 1.7c0 .01.1 0 .1 0l0-8.4l4.8 0zm-4.8 13.6c0-.3-.1-.6-.1-.9c-.3-1.3-1.3-2.3-2.8-2.3c-2.2 0-3.4 1.9-3.4 4.4c0 2.6 1.3 4.3 3.3 4.3c1.4 0 2.5-1 2.8-2.3c.1-.4.2-.7.2-1.2c0 0 0-2 0-2z" stroke="none" fill="#15345e"/></g></svg>