<?xml version="1.0" standalone="no"?><!DOCTYPE svg PUBLIC "-//W3C//DTD SVG 1.1//EN" "http://www.w3.org/Graphics/SVG/1.1/DTD/svg11.dtd"><svg xmlns="http://www.w3.org/2000/svg" version="1.1" width="503.3px" height="188px" viewBox="0 -8 503.3 188" style="top:-8px"><desc>Unblock ITC is more than just reconciliation! Experience the synergy between the integration experts, account managem...</desc><defs/><g id="Polygon6454"><path d="m17.8 167.6l-.2-1.5c0 0-.03 0 0 0c-.7.9-1.9 1.7-3.6 1.7c-2.3 0-3.5-1.6-3.5-3.3c0-2.8 2.5-4.4 7-4.3c0 0 0-.3 0-.3c0-.9-.3-2.7-2.7-2.7c-1.1 0-2.2.4-3 .9c0 0-.5-1.4-.5-1.4c1-.6 2.4-1 3.8-1c3.6 0 4.4 2.4 4.4 4.7c0 0 0 4.4 0 4.4c0 1 .1 2 .2 2.8c.03-.04-1.9 0-1.9 0zm-.3-6c-2.3 0-4.9.4-4.9 2.6c0 1.4.9 2.1 2 2.1c1.5 0 2.4-1 2.8-2c.1-.2.1-.4.1-.7c0 0 0-2 0-2zm5.4-2.5c0-1.2 0-2.2 0-3.2c-.05.04 1.8 0 1.8 0l.1 2c0 0 .09-.04.1 0c.6-1.1 1.9-2.2 3.8-2.2c1.6 0 4.1.9 4.1 4.9c.04.03 0 7 0 7l-2.1 0c0 0 .02-6.74 0-6.7c0-1.9-.7-3.5-2.7-3.5c-1.4 0-2.4 1-2.8 2.2c-.1.3-.1.6-.1 1c-.04-.02 0 7 0 7l-2.2 0c0 0 .05-8.51 0-8.5zm23.4-8.6c0 0 0 14.06 0 14.1c0 1 0 2.2.1 3c0-.04-1.9 0-1.9 0l-.1-2.1c0 0-.04.04 0 0c-.7 1.3-2.1 2.3-4 2.3c-2.8 0-5-2.4-5-5.9c0-3.8 2.4-6.2 5.2-6.2c1.8 0 3 .8 3.5 1.8c.04-.04.1 0 .1 0l0-7l2.1 0zm-2.1 10.2c0-.3 0-.7-.1-.9c-.3-1.4-1.5-2.5-3.1-2.5c-2.1 0-3.4 2-3.4 4.5c0 2.4 1.1 4.3 3.4 4.3c1.4 0 2.7-.9 3.1-2.5c.1-.3.1-.6.1-.9c0 0 0-2 0-2zm10.9 6.9l0-10l-1.6 0l0-1.7l1.6 0c0 0 .01-.51 0-.5c0-1.6.4-3.1 1.4-4.1c.7-.7 1.8-1 2.8-1c.7 0 1.4.1 1.8.3c0 0-.3 1.6-.3 1.6c-.3-.1-.7-.2-1.3-.2c-1.8 0-2.3 1.5-2.3 3.3c0 .02 0 .6 0 .6l2.8 0l0 1.7l-2.8 0l0 10l-2.1 0zm17-5.9c0 4.3-3 6.1-5.8 6.1c-3.1 0-5.6-2.3-5.6-6c0-3.8 2.6-6.1 5.8-6.1c3.3 0 5.6 2.4 5.6 6zm-9.2.1c0 2.5 1.4 4.4 3.5 4.4c2 0 3.5-1.9 3.5-4.5c0-1.9-.9-4.4-3.4-4.4c-2.5 0-3.6 2.3-3.6 4.5zm11.9-11.3l2.1 0l0 17.1l-2.1 0l0-17.1zm5.6 0l2.1 0l0 17.1l-2.1 0l0-17.1zm16.2 11.2c0 4.3-3 6.1-5.8 6.1c-3.1 0-5.5-2.3-5.5-6c0-3.8 2.5-6.1 5.7-6.1c3.3 0 5.6 2.4 5.6 6zm-9.2.1c0 2.5 1.5 4.4 3.5 4.4c2 0 3.5-1.9 3.5-4.5c0-1.9-.9-4.4-3.4-4.4c-2.5 0-3.6 2.3-3.6 4.5zm12.5-5.9c0 0 1.58 5.95 1.6 5.9c.3 1.3.6 2.5.8 3.7c0 0 .1 0 .1 0c.3-1.1.7-2.4 1-3.6c.04-.03 1.9-6 1.9-6l1.8 0c0 0 1.82 5.85 1.8 5.9c.4 1.3.8 2.6 1 3.7c0 0 .1 0 .1 0c.2-1.1.5-2.4.9-3.7c.01-.02 1.7-5.9 1.7-5.9l2.1 0l-3.8 11.7l-1.9 0c0 0-1.79-5.58-1.8-5.6c-.4-1.3-.7-2.4-1-3.8c0 0-.1 0-.1 0c-.3 1.4-.6 2.6-1 3.8c-.02.04-1.9 5.6-1.9 5.6l-1.9 0l-3.5-11.7l2.1 0zm21.7 4.4l0 1.5l-6 0l0-1.5l6 0zm12.2 4.1c0 1.2 0 2.2.1 3.2c-.05-.04-1.9 0-1.9 0l-.1-1.9c0 0-.09-.04-.1 0c-.5.9-1.8 2.1-3.8 2.1c-1.9 0-4-1-4-5.1c-.04.04 0-6.8 0-6.8l2.1 0c0 0-.02 6.48 0 6.5c0 2.2.6 3.7 2.6 3.7c1.4 0 2.4-1 2.8-1.9c.1-.4.1-.7.1-1.1c.04-.03 0-7.2 0-7.2l2.2 0c0 0-.04 8.49 0 8.5zm3.5-4.7c0-1.5-.1-2.7-.1-3.8c-.04.04 1.9 0 1.9 0l.1 2c0 0 0 .04 0 0c.9-1.4 2.2-2.2 4.1-2.2c2.8 0 5 2.4 5 5.9c0 4.2-2.6 6.2-5.3 6.2c-1.6 0-2.9-.6-3.6-1.8c0 0-.1 0-.1 0l0 6.3l-2 0c0 0-.04-12.56 0-12.6zm2 3.1c0 .3.1.6.1.9c.4 1.5 1.7 2.5 3.2 2.5c2.2 0 3.5-1.9 3.5-4.5c0-2.3-1.2-4.3-3.4-4.3c-1.5 0-2.8 1-3.2 2.6c-.1.2-.2.6-.2.8c0 0 0 2 0 2zm11.3 2.6c.7.4 1.8.8 2.8.8c1.5 0 2.3-.7 2.3-1.7c0-1-.6-1.5-2.2-2.1c-2.1-.8-3.1-1.9-3.1-3.3c0-1.9 1.5-3.4 4-3.4c1.2 0 2.3.3 2.9.7c0 0-.5 1.5-.5 1.5c-.5-.3-1.3-.6-2.4-.6c-1.3 0-1.9.7-1.9 1.5c0 1 .6 1.4 2.2 2c2 .8 3 1.8 3 3.5c0 2.1-1.6 3.5-4.3 3.5c-1.3 0-2.5-.3-3.3-.8c0 0 .5-1.6.5-1.6zm17.5-12.8l0 3.3l3 0l0 1.7l-3 0c0 0-.05 6.22 0 6.2c0 1.5.4 2.3 1.5 2.3c.6 0 1-.1 1.3-.2c0 0 .1 1.6.1 1.6c-.5.2-1.1.3-1.9.3c-1 0-1.8-.3-2.3-.9c-.6-.6-.8-1.6-.8-3c-.01-.01 0-6.3 0-6.3l-1.8 0l0-1.7l1.8 0l0-2.7l2.1-.6zm15.7 9.1c0 4.3-3 6.1-5.8 6.1c-3.1 0-5.5-2.3-5.5-6c0-3.8 2.5-6.1 5.7-6.1c3.4 0 5.6 2.4 5.6 6zm-9.2.1c0 2.5 1.5 4.4 3.5 4.4c2 0 3.6-1.9 3.6-4.5c0-1.9-1-4.4-3.5-4.4c-2.5 0-3.6 2.3-3.6 4.5zm26.7 2.6c0 1.2 0 2.2.1 3.2c-.01-.04-1.9 0-1.9 0l-.1-1.9c0 0-.05-.04-.1 0c-.5.9-1.7 2.1-3.8 2.1c-1.8 0-4-1-4-5.1c0 .04 0-6.8 0-6.8l2.1 0c0 0 .01 6.48 0 6.5c0 2.2.7 3.7 2.6 3.7c1.4 0 2.4-1 2.8-1.9c.1-.4.2-.7.2-1.1c-.02-.03 0-7.2 0-7.2l2.1 0c0 0-.01 8.49 0 8.5zm3.5-5.3c0-1.2 0-2.2-.1-3.2c0 .04 1.9 0 1.9 0l.1 2c0 0 .04-.04 0 0c.6-1.1 2-2.2 3.9-2.2c1.6 0 4.1.9 4.1 4.9c-.02.03 0 7 0 7l-2.1 0c0 0-.03-6.74 0-6.7c0-1.9-.7-3.5-2.7-3.5c-1.4 0-2.5 1-2.8 2.2c-.1.3-.2.6-.2 1c.01-.02 0 7 0 7l-2.1 0c0 0-.01-8.51 0-8.5zm13.2 8.5c.1-.8.1-2 .1-3c.01-.04 0-14.1 0-14.1l2.1 0l0 7.3c0 0 .05.02.1 0c.7-1.3 2-2.1 3.9-2.1c2.9 0 4.9 2.4 4.9 5.9c0 4.2-2.6 6.2-5.2 6.2c-1.7 0-3-.6-3.9-2.2c.01.04-.1 0-.1 0l-.1 2c0 0-1.78-.04-1.8 0zm2.2-4.7c0 .3.1.5.1.8c.4 1.4 1.6 2.4 3.2 2.4c2.2 0 3.5-1.8 3.5-4.4c0-2.3-1.2-4.3-3.5-4.3c-1.4 0-2.7.9-3.2 2.6c0 .2-.1.5-.1.8c0 0 0 2.1 0 2.1zm11.6-12.4l2.1 0l0 17.1l-2.1 0l0-17.1zm16.1 11.2c0 4.3-2.9 6.1-5.7 6.1c-3.2 0-5.6-2.3-5.6-6c0-3.8 2.5-6.1 5.8-6.1c3.3 0 5.5 2.4 5.5 6zm-9.2.1c0 2.5 1.5 4.4 3.6 4.4c2 0 3.5-1.9 3.5-4.5c0-1.9-1-4.4-3.5-4.4c-2.5 0-3.6 2.3-3.6 4.5zm20.2 5.3c-.6.3-1.8.7-3.3.7c-3.6 0-5.8-2.4-5.8-5.9c0-3.6 2.4-6.2 6.2-6.2c1.3 0 2.4.3 2.9.6c0 0-.4 1.6-.4 1.6c-.5-.3-1.3-.5-2.5-.5c-2.7 0-4.1 2-4.1 4.4c0 2.7 1.7 4.3 4 4.3c1.2 0 2-.3 2.6-.6c0 0 .4 1.6.4 1.6zm4.5-5.8c0 0 .1-.03.1 0c.3-.4.7-.9 1-1.3c.03-.05 3.4-4.1 3.4-4.1l2.6 0l-4.5 4.8l5.1 6.9l-2.6 0l-4-5.6l-1.1 1.2l0 4.4l-2 0l0-17.1l2 0l0 10.8zm14.3-2.2c0-1.2 0-2.2-.1-3.2c.01.04 1.9 0 1.9 0l.1 1.9c0 0 .03.02 0 0c.7-1.1 1.8-2.1 3.7-2.1c1.6 0 2.8.9 3.3 2.3c0 0 0 0 0 0c.4-.6.8-1.1 1.3-1.5c.7-.5 1.5-.8 2.6-.8c1.5 0 3.8 1 3.8 5c-.01.02 0 6.9 0 6.9l-2.1 0c0 0 .03-6.62 0-6.6c0-2.2-.8-3.6-2.5-3.6c-1.2 0-2.1.9-2.5 1.9c-.1.3-.2.7-.2 1.1c.04-.02 0 7.2 0 7.2l-2 0c0 0-.02-7 0-7c0-1.8-.8-3.2-2.4-3.2c-1.4 0-2.3 1.1-2.7 2.1c-.1.3-.1.7-.1 1.1c-.03-.05 0 7 0 7l-2.1 0c0 0 .01-8.51 0-8.5zm26.5 8.5l-.2-1.5c0 0-.09 0-.1 0c-.6.9-1.9 1.7-3.5 1.7c-2.4 0-3.6-1.6-3.6-3.3c0-2.8 2.5-4.4 7-4.3c0 0 0-.3 0-.3c0-.9-.3-2.7-2.6-2.7c-1.1 0-2.3.4-3.1.9c0 0-.5-1.4-.5-1.4c1-.6 2.4-1 3.9-1c3.5 0 4.4 2.4 4.4 4.7c0 0 0 4.4 0 4.4c0 1 0 2 .2 2.8c-.03-.04-1.9 0-1.9 0zm-.4-6c-2.3 0-4.9.4-4.9 2.6c0 1.4.9 2.1 2 2.1c1.5 0 2.5-1 2.8-2c.1-.2.1-.4.1-.7c0 0 0-2 0-2zm6.5-5.7c0 0 1.63 2.54 1.6 2.5c.5.7.8 1.3 1.2 1.9c0 0 .1 0 .1 0c.4-.7.7-1.3 1.1-1.9c.03.02 1.7-2.5 1.7-2.5l2.2 0l-3.9 5.7l4.1 6l-2.4 0c0 0-1.74-2.65-1.7-2.7c-.5-.6-.9-1.3-1.3-2c0 0 0 0 0 0c-.4.7-.8 1.3-1.3 2c.04.05-1.6 2.7-1.6 2.7l-2.4 0l4.2-6l-4-5.7l2.4 0zm10.1 11.7l0-11.7l2.1 0l0 11.7l-2.1 0zm2.4-14.9c0 .7-.6 1.3-1.4 1.3c-.7 0-1.3-.6-1.3-1.3c0-.8.6-1.3 1.4-1.3c.7 0 1.3.5 1.3 1.3zm3.2 6.4c0-1.2 0-2.2-.1-3.2c.02.04 1.9 0 1.9 0l.1 1.9c0 0 .04.02 0 0c.7-1.1 1.8-2.1 3.7-2.1c1.6 0 2.8.9 3.3 2.3c0 0 0 0 0 0c.4-.6.8-1.1 1.3-1.5c.7-.5 1.5-.8 2.6-.8c1.5 0 3.8 1 3.8 5c0 .02 0 6.9 0 6.9l-2.1 0c0 0 .04-6.62 0-6.6c0-2.2-.8-3.6-2.5-3.6c-1.2 0-2.1.9-2.5 1.9c-.1.3-.1.7-.1 1.1c-.05-.02 0 7.2 0 7.2l-2.1 0c0 0-.01-7 0-7c0-1.8-.8-3.2-2.4-3.2c-1.4 0-2.3 1.1-2.7 2.1c-.1.3-.1.7-.1 1.1c-.02-.05 0 7 0 7l-2.1 0c0 0 .02-8.51 0-8.5zm29.8 5.3c0 1.2 0 2.2 0 3.2c.05-.04-1.8 0-1.8 0l-.1-1.9c0 0-.09-.04-.1 0c-.5.9-1.8 2.1-3.8 2.1c-1.9 0-4-1-4-5.1c-.04.04 0-6.8 0-6.8l2.1 0c0 0-.03 6.48 0 6.5c0 2.2.6 3.7 2.6 3.7c1.4 0 2.4-1 2.7-1.9c.2-.4.2-.7.2-1.1c.04-.03 0-7.2 0-7.2l2.2 0c0 0-.05 8.49 0 8.5zm3.5-5.3c0-1.2-.1-2.2-.1-3.2c-.04.04 1.8 0 1.8 0l.1 1.9c0 0 .08.02.1 0c.6-1.1 1.7-2.1 3.6-2.1c1.6 0 2.8.9 3.3 2.3c0 0 .1 0 .1 0c.3-.6.8-1.1 1.3-1.5c.7-.5 1.4-.8 2.5-.8c1.6 0 3.8 1 3.8 5c.04.02 0 6.9 0 6.9l-2 0c0 0-.02-6.62 0-6.6c0-2.2-.8-3.6-2.5-3.6c-1.2 0-2.2.9-2.5 1.9c-.1.3-.2.7-.2 1.1c-.01-.02 0 7.2 0 7.2l-2.1 0c0 0 .03-7 0-7c0-1.8-.8-3.2-2.4-3.2c-1.3 0-2.3 1.1-2.6 2.1c-.1.3-.2.7-.2 1.1c.02-.05 0 7 0 7l-2 0c0 0-.04-8.51 0-8.5zm27.2-7.7l0 16.2l-2.1 0l0-16.2l2.1 0zm6.7 1.8l-4.9 0l0-1.8l12 0l0 1.8l-4.9 0l0 14.4l-2.2 0l0-14.4zm19.6 13.8c-.8.4-2.4.8-4.3.8c-4.6 0-8-2.9-8-8.2c0-5 3.4-8.5 8.4-8.5c2.1 0 3.3.5 3.9.7c0 0-.5 1.7-.5 1.7c-.8-.3-1.9-.6-3.3-.6c-3.8 0-6.3 2.4-6.3 6.6c0 4 2.3 6.5 6.2 6.5c1.3 0 2.6-.2 3.4-.6c0 0 .5 1.6.5 1.6zm7.8.6l0-10l-1.6 0l0-1.7l1.6 0c0 0 0-.51 0-.5c0-1.6.4-3.1 1.3-4.1c.8-.7 1.9-1 2.9-1c.7 0 1.4.1 1.8.3c0 0-.3 1.6-.3 1.6c-.3-.1-.8-.2-1.4-.2c-1.8 0-2.2 1.5-2.2 3.3c-.01.02 0 .6 0 .6l2.8 0l0 1.7l-2.8 0l0 10l-2.1 0zm17-5.9c0 4.3-3 6.1-5.8 6.1c-3.1 0-5.6-2.3-5.6-6c0-3.8 2.6-6.1 5.8-6.1c3.3 0 5.6 2.4 5.6 6zm-9.2.1c0 2.5 1.4 4.4 3.5 4.4c2 0 3.5-1.9 3.5-4.5c0-1.9-1-4.4-3.4-4.4c-2.5 0-3.6 2.3-3.6 4.5zm11.9-2.2c0-1.4-.1-2.6-.1-3.7c-.04.04 1.8 0 1.8 0l.1 2.3c0 0 .08.02.1 0c.5-1.5 1.8-2.5 3.2-2.5c.2 0 .4 0 .6.1c0 0 0 1.9 0 1.9c-.2 0-.4 0-.7 0c-1.5 0-2.6 1.1-2.9 2.7c0 .3-.1.6-.1 1c.04-.03 0 6.2 0 6.2l-2 0c0 0-.04-8.03 0-8zm13.7-3.7c0 0 2.5 6.91 2.5 6.9c.3.8.6 1.7.7 2.4c0 0 .1 0 .1 0c.2-.7.5-1.6.7-2.4c.04-.04 2.3-6.9 2.3-6.9l2.3 0c0 0-3.19 8.33-3.2 8.3c-1.5 4-2.5 6-4 7.3c-1 .9-2 1.3-2.6 1.4c0 0-.5-1.8-.5-1.8c.5-.2 1.2-.5 1.9-1c.5-.5 1.2-1.3 1.7-2.4c.1-.2.2-.4.2-.5c0-.1-.1-.3-.1-.6c-.05.05-4.3-10.7-4.3-10.7l2.3 0zm20.8 5.8c0 4.3-3 6.1-5.8 6.1c-3.2 0-5.6-2.3-5.6-6c0-3.8 2.6-6.1 5.8-6.1c3.3 0 5.6 2.4 5.6 6zm-9.2.1c0 2.5 1.4 4.4 3.5 4.4c2 0 3.5-1.9 3.5-4.5c0-1.9-1-4.4-3.5-4.4c-2.5 0-3.5 2.3-3.5 4.5zm21.6 2.6c0 1.2 0 2.2 0 3.2c.05-.04-1.8 0-1.8 0l-.1-1.9c0 0-.09-.04-.1 0c-.5.9-1.8 2.1-3.8 2.1c-1.9 0-4-1-4-5.1c-.04.04 0-6.8 0-6.8l2.1 0c0 0-.03 6.48 0 6.5c0 2.2.6 3.7 2.6 3.7c1.4 0 2.4-1 2.7-1.9c.2-.4.2-.7.2-1.1c.04-.03 0-7.2 0-7.2l2.2 0c0 0-.05 8.49 0 8.5zm2.8 1.9c0-.9.6-1.5 1.4-1.5c.8 0 1.4.6 1.4 1.5c0 .9-.5 1.5-1.4 1.5c-.9 0-1.4-.6-1.4-1.5z" stroke="none" fill="#fff"/></g><g id="Polygon6453"><path d="m2.9 127.1c.1 2.9 1.9 4.1 4 4.1c1.5 0 2.4-.3 3.2-.6c0 0 .4 1.5.4 1.5c-.8.3-2 .7-3.9.7c-3.6 0-5.7-2.4-5.7-5.9c0-3.5 2.1-6.2 5.5-6.2c3.8 0 4.8 3.3 4.8 5.5c0 .4-.1.7-.1.9c0 0-8.2 0-8.2 0zm6.2-1.5c0-1.3-.5-3.4-2.9-3.4c-2.1 0-3.1 2-3.2 3.4c0 0 6.1 0 6.1 0zm5.6-4.7c0 0 1.64 2.54 1.6 2.5c.5.7.8 1.3 1.2 1.9c0 0 .1 0 .1 0c.4-.7.8-1.3 1.1-1.9c.04.02 1.7-2.5 1.7-2.5l2.3 0l-4 5.7l4.1 6l-2.4 0c0 0-1.73-2.65-1.7-2.7c-.5-.6-.9-1.3-1.3-2c0 0 0 0 0 0c-.4.7-.8 1.3-1.2 2c-.05.05-1.7 2.7-1.7 2.7l-2.4 0l4.2-6l-4-5.7l2.4 0zm10.1 3.8c0-1.5 0-2.7-.1-3.8c.02.04 1.9 0 1.9 0l.1 2c0 0 .06.04.1 0c.8-1.4 2.2-2.2 4.1-2.2c2.8 0 4.9 2.4 4.9 5.9c0 4.2-2.5 6.2-5.3 6.2c-1.5 0-2.9-.6-3.5-1.8c-.05 0-.1 0-.1 0l0 6.3l-2.1 0c0 0 .02-12.56 0-12.6zm2.1 3.1c0 .3.1.6.1.9c.4 1.5 1.7 2.5 3.2 2.5c2.2 0 3.5-1.9 3.5-4.5c0-2.3-1.2-4.3-3.5-4.3c-1.4 0-2.7 1-3.2 2.6c0 .2-.1.6-.1.8c0 0 0 2 0 2zm12.7-.7c.1 2.9 1.9 4.1 4 4.1c1.5 0 2.5-.3 3.2-.6c0 0 .4 1.5.4 1.5c-.7.3-2 .7-3.9.7c-3.5 0-5.7-2.4-5.7-5.9c0-3.5 2.1-6.2 5.5-6.2c3.8 0 4.8 3.3 4.8 5.5c0 .4-.1.7-.1.9c0 0-8.2 0-8.2 0zm6.2-1.5c.1-1.3-.5-3.4-2.9-3.4c-2.1 0-3.1 2-3.2 3.4c0 0 6.1 0 6.1 0zm4.7-1c0-1.4 0-2.6-.1-3.7c0 .04 1.8 0 1.8 0l.1 2.3c0 0 .12.02.1 0c.5-1.5 1.8-2.5 3.2-2.5c.3 0 .4 0 .6.1c0 0 0 1.9 0 1.9c-.2 0-.4 0-.7 0c-1.5 0-2.5 1.1-2.8 2.7c-.1.3-.1.6-.1 1c-.02-.03 0 6.2 0 6.2l-2.1 0c0 0 0-8.03 0-8zm11-7l0 3.3l3 0l0 1.7l-3 0c0 0-.04 6.22 0 6.2c0 1.5.4 2.3 1.5 2.3c.6 0 1-.1 1.3-.2c0 0 .1 1.6.1 1.6c-.4.2-1.1.3-1.9.3c-1 0-1.8-.3-2.3-.9c-.6-.6-.8-1.6-.8-3c0-.01 0-6.3 0-6.3l-1.8 0l0-1.7l1.8 0l0-2.7l2.1-.6zm5.1 12.8c.6.4 1.7.8 2.8.8c1.5 0 2.2-.7 2.2-1.7c0-1-.6-1.5-2.1-2.1c-2.1-.8-3.1-1.9-3.1-3.3c0-1.9 1.5-3.4 4-3.4c1.2 0 2.2.3 2.8.7c0 0-.5 1.5-.5 1.5c-.4-.3-1.3-.6-2.4-.6c-1.2 0-1.9.7-1.9 1.5c0 1 .7 1.4 2.2 2c2 .8 3.1 1.8 3.1 3.5c0 2.1-1.6 3.5-4.4 3.5c-1.3 0-2.4-.3-3.3-.8c0 0 .6-1.6.6-1.6zm8.1 5.1c.6-1.4 1.2-4 1.5-5.7c0 0 2.3-.3 2.3-.3c-.5 2.1-1.6 4.7-2.3 5.9c0 0-1.5.1-1.5.1zm17.7-2.9l-.2-1.5c0 0-.04 0 0 0c-.7.9-1.9 1.7-3.6 1.7c-2.3 0-3.5-1.6-3.5-3.3c0-2.8 2.5-4.4 6.9-4.3c0 0 0-.3 0-.3c0-.9-.2-2.7-2.6-2.7c-1.1 0-2.2.4-3 .9c0 0-.5-1.4-.5-1.4c1-.6 2.3-1 3.8-1c3.6 0 4.4 2.4 4.4 4.7c0 0 0 4.4 0 4.4c0 1 .1 2 .2 2.8c.02-.04-1.9 0-1.9 0zm-.3-6c-2.3 0-4.9.4-4.9 2.6c0 1.4.9 2.1 2 2.1c1.5 0 2.4-1 2.8-2c0-.2.1-.4.1-.7c0 0 0-2 0-2zm13.7 5.5c-.5.3-1.8.7-3.3.7c-3.5 0-5.8-2.4-5.8-5.9c0-3.6 2.4-6.2 6.2-6.2c1.3 0 2.4.3 3 .6c0 0-.5 1.6-.5 1.6c-.5-.3-1.3-.5-2.5-.5c-2.6 0-4.1 2-4.1 4.4c0 2.7 1.8 4.3 4.1 4.3c1.2 0 2-.3 2.6-.6c0 0 .3 1.6.3 1.6zm10.6 0c-.5.3-1.8.7-3.3.7c-3.5 0-5.8-2.4-5.8-5.9c0-3.6 2.5-6.2 6.2-6.2c1.3 0 2.4.3 3 .6c0 0-.5 1.6-.5 1.6c-.5-.3-1.3-.5-2.5-.5c-2.6 0-4.1 2-4.1 4.4c0 2.7 1.8 4.3 4.1 4.3c1.2 0 2-.3 2.6-.6c0 0 .3 1.6.3 1.6zm12.9-5.4c0 4.3-3 6.1-5.8 6.1c-3.2 0-5.6-2.3-5.6-6c0-3.8 2.6-6.1 5.8-6.1c3.3 0 5.6 2.4 5.6 6zm-9.3.1c0 2.5 1.5 4.4 3.6 4.4c2 0 3.5-1.9 3.5-4.5c0-1.9-1-4.4-3.5-4.4c-2.5 0-3.6 2.3-3.6 4.5zm21.6 2.6c0 1.2.1 2.2.1 3.2c.04-.04-1.8 0-1.8 0l-.1-1.9c0 0-.1-.04-.1 0c-.5.9-1.8 2.1-3.8 2.1c-1.9 0-4-1-4-5.1c-.04.04 0-6.8 0-6.8l2.1 0c0 0-.03 6.48 0 6.5c0 2.2.6 3.7 2.6 3.7c1.4 0 2.4-1 2.7-1.9c.2-.4.2-.7.2-1.1c.04-.03 0-7.2 0-7.2l2.1 0c0 0 .05 8.49 0 8.5zm3.6-5.3c0-1.2-.1-2.2-.1-3.2c-.04.04 1.8 0 1.8 0l.1 2c0 0 .1-.04.1 0c.6-1.1 1.9-2.2 3.8-2.2c1.6 0 4.1.9 4.1 4.9c.04.03 0 7 0 7l-2.1 0c0 0 .03-6.74 0-6.7c0-1.9-.7-3.5-2.7-3.5c-1.4 0-2.4 1-2.8 2.2c-.1.3-.1.6-.1 1c-.04-.02 0 7 0 7l-2.1 0c0 0-.05-8.51 0-8.5zm15.7-6.5l0 3.3l3 0l0 1.7l-3 0c0 0 .02 6.22 0 6.2c0 1.5.4 2.3 1.6 2.3c.6 0 1-.1 1.2-.2c0 0 .1 1.6.1 1.6c-.4.2-1 .3-1.8.3c-1 0-1.8-.3-2.3-.9c-.6-.6-.8-1.6-.8-3c-.04-.01 0-6.3 0-6.3l-1.8 0l0-1.7l1.8 0l0-2.7l2-.6zm10.3 6.5c0-1.2 0-2.2-.1-3.2c.02.04 1.9 0 1.9 0l.1 1.9c0 0 .04.02 0 0c.7-1.1 1.8-2.1 3.7-2.1c1.6 0 2.8.9 3.3 2.3c0 0 0 0 0 0c.4-.6.8-1.1 1.3-1.5c.7-.5 1.5-.8 2.6-.8c1.5 0 3.8 1 3.8 5c0 .02 0 6.9 0 6.9l-2.1 0c0 0 .04-6.62 0-6.6c0-2.2-.8-3.6-2.5-3.6c-1.2 0-2.1.9-2.5 1.9c-.1.3-.1.7-.1 1.1c-.05-.02 0 7.2 0 7.2l-2.1 0c0 0-.01-7 0-7c0-1.8-.8-3.2-2.4-3.2c-1.4 0-2.3 1.1-2.6 2.1c-.2.3-.2.7-.2 1.1c-.02-.05 0 7 0 7l-2.1 0c0 0 .02-8.51 0-8.5zm26.5 8.5l-.2-1.5c0 0-.07 0-.1 0c-.6.9-1.9 1.7-3.5 1.7c-2.4 0-3.6-1.6-3.6-3.3c0-2.8 2.5-4.4 7-4.3c0 0 0-.3 0-.3c0-.9-.3-2.7-2.6-2.7c-1.1 0-2.2.4-3.1.9c0 0-.4-1.4-.4-1.4c.9-.6 2.3-1 3.8-1c3.5 0 4.4 2.4 4.4 4.7c0 0 0 4.4 0 4.4c0 1 0 2 .2 2.8c-.01-.04-1.9 0-1.9 0zm-.3-6c-2.3 0-5 .4-5 2.6c0 1.4.9 2.1 2 2.1c1.5 0 2.5-1 2.8-2c.1-.2.2-.4.2-.7c0 0 0-2 0-2zm5.4-2.5c0-1.2 0-2.2-.1-3.2c.01.04 1.9 0 1.9 0l.1 2c0 0 .05-.04 0 0c.6-1.1 2-2.2 3.9-2.2c1.6 0 4.1.9 4.1 4.9c-.01.03 0 7 0 7l-2.1 0c0 0-.02-6.74 0-6.7c0-1.9-.7-3.5-2.7-3.5c-1.4 0-2.5 1-2.8 2.2c-.1.3-.2.6-.2 1c.01-.02 0 7 0 7l-2.1 0c0 0 0-8.51 0-8.5zm19.8 8.5l-.2-1.5c0 0-.09 0-.1 0c-.6.9-1.9 1.7-3.5 1.7c-2.4 0-3.6-1.6-3.6-3.3c0-2.8 2.5-4.4 7-4.3c0 0 0-.3 0-.3c0-.9-.3-2.7-2.6-2.7c-1.1 0-2.3.4-3.1.9c0 0-.4-1.4-.4-1.4c.9-.6 2.3-1 3.8-1c3.5 0 4.4 2.4 4.4 4.7c0 0 0 4.4 0 4.4c0 1 0 2 .2 2.8c-.03-.04-1.9 0-1.9 0zm-.4-6c-2.3 0-4.9.4-4.9 2.6c0 1.4.9 2.1 2 2.1c1.5 0 2.5-1 2.8-2c.1-.2.1-.4.1-.7c0 0 0-2 0-2zm15.5-5.7c0 .9-.1 1.8-.1 3.2c0 0 0 6.8 0 6.8c0 2.6-.5 4.3-1.7 5.3c-1.1 1-2.7 1.4-4.2 1.4c-1.4 0-2.9-.4-3.8-1c0 0 .5-1.6.5-1.6c.8.5 2 .9 3.4.9c2.2 0 3.7-1.1 3.7-4c.04-.03 0-1.3 0-1.3c0 0-.01-.03 0 0c-.7 1-1.9 1.9-3.7 1.9c-2.9 0-4.9-2.4-4.9-5.7c0-3.9 2.5-6.1 5.2-6.1c2 0 3.1 1 3.6 2c.01 0 .1 0 .1 0l.1-1.8c0 0 1.8.04 1.8 0zm-2.2 4.6c0-.3 0-.6-.1-.9c-.4-1.3-1.4-2.3-3-2.3c-2 0-3.4 1.7-3.4 4.4c0 2.3 1.1 4.2 3.4 4.2c1.3 0 2.5-.8 2.9-2.2c.2-.3.2-.7.2-1.1c0 0 0-2.1 0-2.1zm6.8 1.6c0 2.9 1.9 4.1 4 4.1c1.5 0 2.4-.3 3.2-.6c0 0 .3 1.5.3 1.5c-.7.3-2 .7-3.8.7c-3.6 0-5.7-2.4-5.7-5.9c0-3.5 2-6.2 5.4-6.2c3.8 0 4.8 3.3 4.8 5.5c0 .4 0 .7-.1.9c0 0-8.1 0-8.1 0zm6.2-1.5c0-1.3-.6-3.4-3-3.4c-2.1 0-3 2-3.2 3.4c0 0 6.2 0 6.2 0zm4.6-1.5c0-1.2 0-2.2-.1-3.2c.03.04 1.9 0 1.9 0l.1 1.9c0 0 .05.02 0 0c.7-1.1 1.8-2.1 3.7-2.1c1.6 0 2.8.9 3.3 2.3c0 0 0 0 0 0c.4-.6.8-1.1 1.3-1.5c.7-.5 1.5-.8 2.6-.8c1.5 0 3.8 1 3.8 5c.01.02 0 6.9 0 6.9l-2.1 0c0 0 .05-6.62 0-6.6c0-2.2-.8-3.6-2.5-3.6c-1.2 0-2.1.9-2.5 1.9c-.1.3-.1.7-.1 1.1c-.03-.02 0 7.2 0 7.2l-2.1 0c0 0 0-7 0-7c0-1.8-.8-3.2-2.4-3.2c-1.3 0-2.3 1.1-2.6 2.1c-.2.3-.2.7-.2 1.1c-.01-.05 0 7 0 7l-2.1 0c0 0 .03-8.51 0-8.5zm21.2 3c.1 2.9 1.9 4.1 4 4.1c1.5 0 2.4-.3 3.2-.6c0 0 .4 1.5.4 1.5c-.8.3-2 .7-3.9.7c-3.6 0-5.7-2.4-5.7-5.9c0-3.5 2.1-6.2 5.5-6.2c3.7 0 4.8 3.3 4.8 5.5c0 .4-.1.7-.1.9c0 0-8.2 0-8.2 0zm6.2-1.5c0-1.3-.5-3.4-2.9-3.4c-2.2 0-3.1 2-3.3 3.4c0 0 6.2 0 6.2 0zm4.7-1.5c0-1.2-.1-2.2-.1-3.2c-.03.04 1.8 0 1.8 0l.2 2c0 0 .01-.04 0 0c.6-1.1 1.9-2.2 3.9-2.2c1.6 0 4.1.9 4.1 4.9c-.04.03 0 7 0 7l-2.2 0c0 0 .05-6.74 0-6.7c0-1.9-.7-3.5-2.6-3.5c-1.4 0-2.5 1-2.9 2.2c-.1.3-.1.6-.1 1c-.02-.02 0 7 0 7l-2.1 0c0 0-.03-8.51 0-8.5zm15.7-6.5l0 3.3l3.1 0l0 1.7l-3.1 0c0 0 .04 6.22 0 6.2c0 1.5.4 2.3 1.6 2.3c.6 0 1-.1 1.2-.2c0 0 .1 1.6.1 1.6c-.4.2-1 .3-1.8.3c-1 0-1.8-.3-2.3-.9c-.6-.6-.8-1.6-.8-3c-.03-.01 0-6.3 0-6.3l-1.8 0l0-1.7l1.8 0l0-2.7l2-.6zm5.1 12.8c.7.4 1.8.8 2.8.8c1.6 0 2.3-.7 2.3-1.7c0-1-.6-1.5-2.2-2.1c-2.1-.8-3-1.9-3-3.3c0-1.9 1.5-3.4 4-3.4c1.1 0 2.2.3 2.8.7c0 0-.5 1.5-.5 1.5c-.5-.3-1.3-.6-2.4-.6c-1.2 0-1.9.7-1.9 1.5c0 1 .7 1.4 2.2 2c2 .8 3 1.8 3 3.5c0 2.1-1.6 3.5-4.3 3.5c-1.3 0-2.5-.3-3.3-.8c0 0 .5-1.6.5-1.6zm8.2 5.1c.5-1.4 1.2-4 1.4-5.7c0 0 2.4-.3 2.4-.3c-.6 2.1-1.6 4.7-2.3 5.9c0 0-1.5.1-1.5.1zm11.2-11.4c0-1.2 0-2.2-.1-3.2c.05.04 1.9 0 1.9 0l.1 1.9c0 0 .06.02.1 0c.6-1.1 1.7-2.1 3.6-2.1c1.6 0 2.8.9 3.3 2.3c0 0 0 0 0 0c.4-.6.9-1.1 1.3-1.5c.7-.5 1.5-.8 2.6-.8c1.5 0 3.8 1 3.8 5c.03.02 0 6.9 0 6.9l-2 0c0 0-.04-6.62 0-6.6c0-2.2-.9-3.6-2.6-3.6c-1.2 0-2.1.9-2.5 1.9c0 .3-.1.7-.1 1.1c-.02-.02 0 7.2 0 7.2l-2.1 0c0 0 .02-7 0-7c0-1.8-.8-3.2-2.4-3.2c-1.3 0-2.3 1.1-2.6 2.1c-.1.3-.2.7-.2 1.1c.01-.05 0 7 0 7l-2.1 0c0 0 .04-8.51 0-8.5zm26.5 8.5l-.2-1.5c0 0-.05 0 0 0c-.7.9-1.9 1.7-3.6 1.7c-2.4 0-3.6-1.6-3.6-3.3c0-2.8 2.5-4.4 7-4.3c0 0 0-.3 0-.3c0-.9-.2-2.7-2.6-2.7c-1.1 0-2.2.4-3 .9c0 0-.5-1.4-.5-1.4c.9-.6 2.3-1 3.8-1c3.6 0 4.4 2.4 4.4 4.7c0 0 0 4.4 0 4.4c0 1 .1 2 .2 2.8c.01-.04-1.9 0-1.9 0zm-.3-6c-2.3 0-4.9.4-4.9 2.6c0 1.4.9 2.1 2 2.1c1.5 0 2.4-1 2.8-2c0-.2.1-.4.1-.7c0 0 0-2 0-2zm5.4-2.5c0-1.2 0-2.2-.1-3.2c.03.04 1.9 0 1.9 0l.1 2c0 0 .07-.04.1 0c.5-1.1 1.9-2.2 3.8-2.2c1.6 0 4.1.9 4.1 4.9c.02.03 0 7 0 7l-2.1 0c0 0 0-6.74 0-6.7c0-1.9-.7-3.5-2.7-3.5c-1.4 0-2.5 1-2.8 2.2c-.1.3-.2.6-.2 1c.04-.02 0 7 0 7l-2.1 0c0 0 .03-8.51 0-8.5zm19.8 8.5l-.2-1.5c0 0-.06 0-.1 0c-.6.9-1.9 1.7-3.5 1.7c-2.4 0-3.6-1.6-3.6-3.3c0-2.8 2.5-4.4 7-4.3c0 0 0-.3 0-.3c0-.9-.2-2.7-2.6-2.7c-1.1 0-2.2.4-3 .9c0 0-.5-1.4-.5-1.4c.9-.6 2.3-1 3.8-1c3.5 0 4.4 2.4 4.4 4.7c0 0 0 4.4 0 4.4c0 1 .1 2 .2 2.8c0-.04-1.9 0-1.9 0zm-.3-6c-2.3 0-5 .4-5 2.6c0 1.4 1 2.1 2 2.1c1.6 0 2.5-1 2.8-2c.1-.2.2-.4.2-.7c0 0 0-2 0-2zm15.4-5.7c0 .9-.1 1.8-.1 3.2c0 0 0 6.8 0 6.8c0 2.6-.5 4.3-1.6 5.3c-1.2 1-2.8 1.4-4.3 1.4c-1.3 0-2.9-.4-3.8-1c0 0 .5-1.6.5-1.6c.8.5 2 .9 3.4.9c2.2 0 3.8-1.1 3.8-4c-.04-.03 0-1.3 0-1.3c0 0-.08-.03-.1 0c-.6 1-1.9 1.9-3.7 1.9c-2.9 0-4.9-2.4-4.9-5.7c0-3.9 2.5-6.1 5.2-6.1c2 0 3.1 1 3.6 2c.03 0 .1 0 .1 0l.1-1.8c0 0 1.82.04 1.8 0zm-2.2 4.6c0-.3 0-.6-.1-.9c-.4-1.3-1.4-2.3-2.9-2.3c-2 0-3.5 1.7-3.5 4.4c0 2.3 1.2 4.2 3.4 4.2c1.3 0 2.5-.8 3-2.2c.1-.3.1-.7.1-1.1c0 0 0-2.1 0-2.1zm6.8 1.6c.1 2.9 1.9 4.1 4 4.1c1.5 0 2.4-.3 3.2-.6c0 0 .4 1.5.4 1.5c-.8.3-2 .7-3.9.7c-3.6 0-5.7-2.4-5.7-5.9c0-3.5 2.1-6.2 5.4-6.2c3.8 0 4.8 3.3 4.8 5.5c0 .4 0 .7 0 .9c0 0-8.2 0-8.2 0zm6.2-1.5c0-1.3-.6-3.4-2.9-3.4c-2.2 0-3.1 2-3.3 3.4c0 0 6.2 0 6.2 0zm14.7-10.1c0 0-.01 14.06 0 14.1c0 1 0 2.2.1 3c-.02-.04-1.9 0-1.9 0l-.1-2.1c0 0-.06.04-.1 0c-.6 1.3-2 2.3-3.9 2.3c-2.8 0-5-2.4-5-5.9c0-3.8 2.4-6.2 5.2-6.2c1.8 0 3 .8 3.5 1.8c.03-.04.1 0 .1 0l0-7l2.1 0zm-2.1 10.2c0-.3 0-.7-.1-.9c-.3-1.4-1.5-2.5-3.1-2.5c-2.2 0-3.4 2-3.4 4.5c0 2.4 1.1 4.3 3.4 4.3c1.4 0 2.7-.9 3.1-2.5c.1-.3.1-.6.1-.9c0 0 0-2 0-2zm10.2 4.7c.6.4 1.7.8 2.8.8c1.5 0 2.2-.7 2.2-1.7c0-1-.6-1.5-2.1-2.1c-2.1-.8-3.1-1.9-3.1-3.3c0-1.9 1.5-3.4 4-3.4c1.2 0 2.2.3 2.9.7c0 0-.6 1.5-.6 1.5c-.4-.3-1.3-.6-2.3-.6c-1.3 0-2 .7-2 1.5c0 1 .7 1.4 2.2 2c2 .8 3.1 1.8 3.1 3.5c0 2.1-1.6 3.5-4.4 3.5c-1.2 0-2.4-.3-3.2-.8c0 0 .5-1.6.5-1.6zm11-3.3c0 2.9 1.8 4.1 4 4.1c1.5 0 2.4-.3 3.2-.6c0 0 .3 1.5.3 1.5c-.7.3-2 .7-3.8.7c-3.6 0-5.7-2.4-5.7-5.9c0-3.5 2-6.2 5.4-6.2c3.8 0 4.8 3.3 4.8 5.5c0 .4 0 .7-.1.9c0 0-8.1 0-8.1 0zm6.2-1.5c0-1.3-.6-3.4-3-3.4c-2.1 0-3 2-3.2 3.4c0 0 6.2 0 6.2 0zm4.6-1c0-1.4 0-2.6-.1-3.7c.02.04 1.9 0 1.9 0l0 2.3c0 0 .14.02.1 0c.6-1.5 1.8-2.5 3.3-2.5c.2 0 .4 0 .6.1c0 0 0 1.9 0 1.9c-.3 0-.5 0-.8 0c-1.5 0-2.5 1.1-2.8 2.7c0 .3-.1.6-.1 1c0-.03 0 6.2 0 6.2l-2.1 0c0 0 .02-8.03 0-8zm9.3-3.7c0 0 2.26 6.57 2.3 6.6c.3 1 .7 2 .9 2.9c0 0 .1 0 .1 0c.2-.9.6-1.9 1-2.9c-.05-.03 2.2-6.6 2.2-6.6l2.2 0l-4.5 11.7l-2.1 0l-4.4-11.7l2.3 0zm10.7 11.7l0-11.7l2.1 0l0 11.7l-2.1 0zm2.4-14.9c0 .7-.5 1.3-1.4 1.3c-.7 0-1.3-.6-1.3-1.3c0-.8.6-1.3 1.4-1.3c.8 0 1.3.5 1.3 1.3zm11.5 14.4c-.5.3-1.8.7-3.3.7c-3.5 0-5.8-2.4-5.8-5.9c0-3.6 2.4-6.2 6.2-6.2c1.3 0 2.4.3 3 .6c0 0-.5 1.6-.5 1.6c-.5-.3-1.3-.5-2.5-.5c-2.6 0-4.1 2-4.1 4.4c0 2.7 1.7 4.3 4.1 4.3c1.2 0 1.9-.3 2.5-.6c0 0 .4 1.6.4 1.6zm3.5-5c.1 2.9 1.9 4.1 4 4.1c1.5 0 2.4-.3 3.2-.6c0 0 .4 1.5.4 1.5c-.8.3-2 .7-3.9.7c-3.6 0-5.7-2.4-5.7-5.9c0-3.5 2.1-6.2 5.4-6.2c3.8 0 4.8 3.3 4.8 5.5c0 .4 0 .7 0 .9c0 0-8.2 0-8.2 0zm6.2-1.5c0-1.3-.6-3.4-2.9-3.4c-2.2 0-3.1 2-3.3 3.4c0 0 6.2 0 6.2 0zm4.4 4.8c.6.4 1.7.8 2.8.8c1.5 0 2.2-.7 2.2-1.7c0-1-.6-1.5-2.2-2.1c-2-.8-3-1.9-3-3.3c0-1.9 1.5-3.4 4-3.4c1.2 0 2.2.3 2.8.7c0 0-.5 1.5-.5 1.5c-.4-.3-1.3-.6-2.4-.6c-1.2 0-1.9.7-1.9 1.5c0 1 .7 1.4 2.2 2c2 .8 3 1.8 3 3.5c0 2.1-1.5 3.5-4.3 3.5c-1.3 0-2.4-.3-3.3-.8c0 0 .6-1.6.6-1.6z" stroke="none" fill="#fff"/></g><g id="Polygon6452"><path d="m21.6 90l-6.3 0l0 5.8l7 0l0 1.8l-9.1 0l0-16.2l8.8 0l0 1.7l-6.7 0l0 5.1l6.3 0l0 1.8zm4.3-4.1c0 0 1.71 2.54 1.7 2.5c.4.7.8 1.3 1.2 1.9c0 0 .1 0 .1 0c.3-.7.7-1.3 1.1-1.9c.01.02 1.6-2.5 1.6-2.5l2.3 0l-3.9 5.7l4 6l-2.4 0c0 0-1.67-2.65-1.7-2.7c-.4-.6-.8-1.3-1.2-2c0 0-.1 0-.1 0c-.3.7-.8 1.3-1.2 2c.01.05-1.7 2.7-1.7 2.7l-2.3 0l4.1-6l-3.9-5.7l2.3 0zm10.2 3.8c0-1.5-.1-2.7-.1-3.8c-.02.04 1.9 0 1.9 0l.1 2c0 0 .02.04 0 0c.9-1.4 2.3-2.2 4.1-2.2c2.9 0 5 2.4 5 5.9c0 4.2-2.6 6.2-5.3 6.2c-1.5 0-2.9-.6-3.6-1.8c.01 0 0 0 0 0l0 6.3l-2.1 0c0 0-.02-12.56 0-12.6zm2.1 3.1c0 .3 0 .6.1.9c.3 1.5 1.6 2.5 3.1 2.5c2.3 0 3.6-1.9 3.6-4.5c0-2.3-1.3-4.3-3.5-4.3c-1.4 0-2.8 1-3.2 2.6c-.1.2-.1.6-.1.8c0 0 0 2 0 2zm12.7-.7c.1 2.9 1.9 4.1 4 4.1c1.5 0 2.4-.3 3.2-.6c0 0 .4 1.5.4 1.5c-.8.3-2 .7-3.9.7c-3.6 0-5.7-2.4-5.7-5.9c0-3.5 2.1-6.2 5.4-6.2c3.8 0 4.8 3.3 4.8 5.5c0 .4 0 .7 0 .9c0 0-8.2 0-8.2 0zm6.2-1.5c0-1.3-.6-3.4-2.9-3.4c-2.2 0-3.1 2-3.3 3.4c0 0 6.2 0 6.2 0zm4.7-1c0-1.4-.1-2.6-.1-3.7c-.04.04 1.8 0 1.8 0l.1 2.3c0 0 .08.02.1 0c.5-1.5 1.8-2.5 3.2-2.5c.2 0 .4 0 .6.1c0 0 0 1.9 0 1.9c-.2 0-.4 0-.7 0c-1.5 0-2.6 1.1-2.9 2.7c0 .3-.1.6-.1 1c.04-.03 0 6.2 0 6.2l-2 0c0 0-.04-8.03 0-8zm7.9 8l0-11.7l2.1 0l0 11.7l-2.1 0zm2.4-14.9c0 .7-.6 1.3-1.4 1.3c-.7 0-1.3-.6-1.3-1.3c0-.8.6-1.3 1.4-1.3c.7 0 1.3.5 1.3 1.3zm4.4 9.4c0 2.9 1.9 4.1 4 4.1c1.5 0 2.4-.3 3.2-.6c0 0 .4 1.5.4 1.5c-.8.3-2.1.7-3.9.7c-3.6 0-5.7-2.4-5.7-5.9c0-3.5 2-6.2 5.4-6.2c3.8 0 4.8 3.3 4.8 5.5c0 .4 0 .7 0 .9c0 0-8.2 0-8.2 0zm6.2-1.5c0-1.3-.6-3.4-2.9-3.4c-2.2 0-3.1 2-3.3 3.4c0 0 6.2 0 6.2 0zm4.6-1.5c0-1.2 0-2.2-.1-3.2c.04.04 1.9 0 1.9 0l.1 2c0 0 .08-.04.1 0c.6-1.1 1.9-2.2 3.8-2.2c1.6 0 4.1.9 4.1 4.9c.03.03 0 7 0 7l-2.1 0c0 0 .02-6.74 0-6.7c0-1.9-.7-3.5-2.7-3.5c-1.4 0-2.4 1-2.8 2.2c-.1.3-.1.6-.1 1c-.05-.02 0 7 0 7l-2.2 0c0 0 .04-8.51 0-8.5zm21.6 8c-.5.3-1.7.7-3.3.7c-3.5 0-5.8-2.4-5.8-5.9c0-3.6 2.5-6.2 6.3-6.2c1.2 0 2.3.3 2.9.6c0 0-.5 1.6-.5 1.6c-.5-.3-1.3-.5-2.4-.5c-2.7 0-4.1 2-4.1 4.4c0 2.7 1.7 4.3 4 4.3c1.2 0 2-.3 2.6-.6c0 0 .3 1.6.3 1.6zm3.5-5c.1 2.9 1.9 4.1 4 4.1c1.5 0 2.5-.3 3.2-.6c0 0 .4 1.5.4 1.5c-.7.3-2 .7-3.9.7c-3.5 0-5.7-2.4-5.7-5.9c0-3.5 2.1-6.2 5.5-6.2c3.8 0 4.8 3.3 4.8 5.5c0 .4-.1.7-.1.9c0 0-8.2 0-8.2 0zm6.2-1.5c.1-1.3-.5-3.4-2.9-3.4c-2.1 0-3.1 2-3.2 3.4c0 0 6.1 0 6.1 0zm12.3-8l0 3.3l3 0l0 1.7l-3 0c0 0 .02 6.22 0 6.2c0 1.5.4 2.3 1.6 2.3c.6 0 1-.1 1.2-.2c0 0 .1 1.6.1 1.6c-.4.2-1 .3-1.8.3c-1 0-1.8-.3-2.3-.9c-.6-.6-.8-1.6-.8-3c-.04-.01 0-6.3 0-6.3l-1.8 0l0-1.7l1.8 0l0-2.7l2-.6zm5.4-2.1l2.1 0l0 7.3c0 0 .08-.03.1 0c.3-.6.8-1.2 1.5-1.5c.6-.4 1.4-.6 2.2-.6c1.5 0 4 .9 4 4.9c.01.05 0 7 0 7l-2.1 0c0 0 0-6.71 0-6.7c0-1.9-.7-3.5-2.7-3.5c-1.4 0-2.4 1-2.8 2.1c-.1.3-.2.6-.2 1.1c.04-.05 0 7 0 7l-2.1 0l0-17.1zm14.5 11.6c.1 2.9 1.9 4.1 4 4.1c1.5 0 2.4-.3 3.2-.6c0 0 .4 1.5.4 1.5c-.8.3-2 .7-3.9.7c-3.6 0-5.7-2.4-5.7-5.9c0-3.5 2.1-6.2 5.5-6.2c3.7 0 4.8 3.3 4.8 5.5c0 .4-.1.7-.1.9c0 0-8.2 0-8.2 0zm6.2-1.5c0-1.3-.5-3.4-2.9-3.4c-2.2 0-3.1 2-3.3 3.4c0 0 6.2 0 6.2 0zm9.5 4.8c.6.4 1.7.8 2.8.8c1.5 0 2.2-.7 2.2-1.7c0-1-.6-1.5-2.2-2.1c-2-.8-3-1.9-3-3.3c0-1.9 1.5-3.4 4-3.4c1.2 0 2.2.3 2.8.7c0 0-.5 1.5-.5 1.5c-.4-.3-1.3-.6-2.4-.6c-1.2 0-1.9.7-1.9 1.5c0 1 .7 1.4 2.2 2c2 .8 3 1.8 3 3.5c0 2.1-1.5 3.5-4.3 3.5c-1.3 0-2.4-.3-3.3-.8c0 0 .6-1.6.6-1.6zm10.5-9.5c0 0 2.57 6.91 2.6 6.9c.2.8.5 1.7.7 2.4c0 0 .1 0 .1 0c.2-.7.4-1.6.7-2.4c.01-.04 2.3-6.9 2.3-6.9l2.2 0c0 0-3.12 8.33-3.1 8.3c-1.5 4-2.6 6-4 7.3c-1 .9-2.1 1.3-2.6 1.4c0 0-.5-1.8-.5-1.8c.5-.2 1.2-.5 1.8-1c.6-.5 1.3-1.3 1.8-2.4c.1-.2.2-.4.2-.5c0-.1-.1-.3-.2-.6c.02.05-4.3-10.7-4.3-10.7l2.3 0zm10.6 3.2c0-1.2-.1-2.2-.1-3.2c-.03.04 1.8 0 1.8 0l.2 2c0 0 .01-.04 0 0c.6-1.1 1.9-2.2 3.8-2.2c1.7 0 4.2.9 4.2 4.9c-.05.03 0 7 0 7l-2.2 0c0 0 .04-6.74 0-6.7c0-1.9-.7-3.5-2.6-3.5c-1.4 0-2.5 1-2.9 2.2c-.1.3-.1.6-.1 1c-.03-.02 0 7 0 7l-2.1 0c0 0-.04-8.51 0-8.5zm14.5 3c0 2.9 1.8 4.1 3.9 4.1c1.6 0 2.5-.3 3.3-.6c0 0 .3 1.5.3 1.5c-.7.3-2 .7-3.8.7c-3.6 0-5.8-2.4-5.8-5.9c0-3.5 2.1-6.2 5.5-6.2c3.8 0 4.8 3.3 4.8 5.5c0 .4-.1.7-.1.9c0 0-8.1 0-8.1 0zm6.2-1.5c0-1.3-.6-3.4-3-3.4c-2.1 0-3 2-3.2 3.4c0 0 6.2 0 6.2 0zm4.6-1c0-1.4 0-2.6-.1-3.7c.01.04 1.9 0 1.9 0l0 2.3c0 0 .13.02.1 0c.6-1.5 1.8-2.5 3.2-2.5c.3 0 .5 0 .6.1c0 0 0 1.9 0 1.9c-.2 0-.4 0-.7 0c-1.5 0-2.5 1.1-2.8 2.7c-.1.3-.1.6-.1 1c-.01-.03 0 6.2 0 6.2l-2.1 0c0 0 .01-8.03 0-8zm17.7-3.7c-.1.9-.1 1.8-.1 3.2c0 0 0 6.8 0 6.8c0 2.6-.6 4.3-1.7 5.3c-1.1 1-2.7 1.4-4.2 1.4c-1.4 0-2.9-.4-3.9-1c0 0 .6-1.6.6-1.6c.7.5 1.9.9 3.4.9c2.1 0 3.7-1.1 3.7-4c.01-.03 0-1.3 0-1.3c0 0-.04-.03 0 0c-.7 1-1.9 1.9-3.7 1.9c-2.9 0-5-2.4-5-5.7c0-3.9 2.6-6.1 5.3-6.1c2 0 3.1 1 3.6 2c-.02 0 0 0 0 0l.1-1.8c0 0 1.87.04 1.9 0zm-2.2 4.6c0-.3 0-.6-.1-.9c-.4-1.3-1.4-2.3-3-2.3c-2 0-3.4 1.7-3.4 4.4c0 2.3 1.1 4.2 3.4 4.2c1.3 0 2.5-.8 2.9-2.2c.1-.3.2-.7.2-1.1c0 0 0-2.1 0-2.1zm6.3-4.6c0 0 2.59 6.91 2.6 6.9c.3.8.5 1.7.7 2.4c0 0 .1 0 .1 0c.2-.7.4-1.6.7-2.4c.03-.04 2.3-6.9 2.3-6.9l2.3 0c0 0-3.21 8.33-3.2 8.3c-1.5 4-2.5 6-4 7.3c-1 .9-2.1 1.3-2.6 1.4c0 0-.5-1.8-.5-1.8c.5-.2 1.2-.5 1.8-1c.6-.5 1.3-1.3 1.8-2.4c.1-.2.2-.4.2-.5c0-.1-.1-.3-.2-.6c.04.05-4.3-10.7-4.3-10.7l2.3 0zm15.6 11.7c0-.8.1-2 .1-3c-.03-.04 0-14.1 0-14.1l2.1 0l0 7.3c0 0 .01.02 0 0c.7-1.3 2.1-2.1 4-2.1c2.8 0 4.9 2.4 4.9 5.9c0 4.2-2.7 6.2-5.2 6.2c-1.7 0-3.1-.6-3.9-2.2c-.03.04-.1 0-.1 0l-.1 2c0 0-1.83-.04-1.8 0zm2.2-4.7c0 .3 0 .5.1.8c.4 1.4 1.6 2.4 3.1 2.4c2.2 0 3.5-1.8 3.5-4.4c0-2.3-1.2-4.3-3.4-4.3c-1.4 0-2.8.9-3.2 2.6c-.1.2-.1.5-.1.8c0 0 0 2.1 0 2.1zm12.7-.8c0 2.9 1.9 4.1 4 4.1c1.5 0 2.4-.3 3.2-.6c0 0 .4 1.5.4 1.5c-.8.3-2.1.7-3.9.7c-3.6 0-5.7-2.4-5.7-5.9c0-3.5 2-6.2 5.4-6.2c3.8 0 4.8 3.3 4.8 5.5c0 .4 0 .7 0 .9c0 0-8.2 0-8.2 0zm6.2-1.5c0-1.3-.6-3.4-2.9-3.4c-2.2 0-3.1 2-3.3 3.4c0 0 6.2 0 6.2 0zm7.2-8l0 3.3l3 0l0 1.7l-3 0c0 0-.01 6.22 0 6.2c0 1.5.4 2.3 1.6 2.3c.5 0 .9-.1 1.2-.2c0 0 .1 1.6.1 1.6c-.4.2-1.1.3-1.9.3c-1 0-1.8-.3-2.3-.9c-.6-.6-.8-1.6-.8-3c.03-.01 0-6.3 0-6.3l-1.8 0l0-1.7l1.8 0l0-2.7l2.1-.6zm6.4 3.3c0 0 1.58 5.95 1.6 5.9c.3 1.3.6 2.5.8 3.7c0 0 .1 0 .1 0c.3-1.1.7-2.4 1.1-3.6c-.05-.03 1.8-6 1.8-6l1.8 0c0 0 1.82 5.85 1.8 5.9c.5 1.3.8 2.6 1.1 3.7c0 0 0 0 0 0c.2-1.1.5-2.4.9-3.7c.02-.02 1.7-5.9 1.7-5.9l2.1 0l-3.8 11.7l-1.9 0c0 0-1.78-5.58-1.8-5.6c-.4-1.3-.7-2.4-1-3.8c0 0-.1 0-.1 0c-.2 1.4-.6 2.6-1 3.8c-.02.04-1.9 5.6-1.9 5.6l-1.9 0l-3.5-11.7l2.1 0zm17.8 6.2c.1 2.9 1.9 4.1 4 4.1c1.5 0 2.4-.3 3.2-.6c0 0 .4 1.5.4 1.5c-.8.3-2 .7-3.9.7c-3.6 0-5.7-2.4-5.7-5.9c0-3.5 2.1-6.2 5.4-6.2c3.8 0 4.8 3.3 4.8 5.5c0 .4 0 .7 0 .9c0 0-8.2 0-8.2 0zm6.2-1.5c0-1.3-.6-3.4-2.9-3.4c-2.2 0-3.1 2-3.3 3.4c0 0 6.2 0 6.2 0zm5.8 1.5c.1 2.9 1.9 4.1 4 4.1c1.5 0 2.4-.3 3.2-.6c0 0 .4 1.5.4 1.5c-.8.3-2 .7-3.9.7c-3.5 0-5.7-2.4-5.7-5.9c0-3.5 2.1-6.2 5.5-6.2c3.8 0 4.8 3.3 4.8 5.5c0 .4-.1.7-.1.9c0 0-8.2 0-8.2 0zm6.2-1.5c0-1.3-.5-3.4-2.9-3.4c-2.1 0-3.1 2-3.2 3.4c0 0 6.1 0 6.1 0zm4.7-1.5c0-1.2 0-2.2-.1-3.2c-.02.04 1.9 0 1.9 0l.1 2c0 0 .02-.04 0 0c.6-1.1 1.9-2.2 3.9-2.2c1.6 0 4.1.9 4.1 4.9c-.03.03 0 7 0 7l-2.1 0c0 0-.04-6.74 0-6.7c0-1.9-.7-3.5-2.7-3.5c-1.4 0-2.5 1-2.9 2.2c-.1.3-.1.6-.1 1c-.01-.02 0 7 0 7l-2.1 0c0 0-.02-8.51 0-8.5zm20.9-6.5l0 3.3l3.1 0l0 1.7l-3.1 0c0 0 .03 6.22 0 6.2c0 1.5.4 2.3 1.6 2.3c.6 0 1-.1 1.2-.2c0 0 .1 1.6.1 1.6c-.4.2-1 .3-1.8.3c-1 0-1.8-.3-2.3-.9c-.6-.6-.8-1.6-.8-3c-.03-.01 0-6.3 0-6.3l-1.8 0l0-1.7l1.8 0l0-2.7l2-.6zm5.4-2.1l2.1 0l0 7.3c0 0 .09-.03.1 0c.3-.6.9-1.2 1.5-1.5c.6-.4 1.4-.6 2.2-.6c1.5 0 4 .9 4 4.9c.02.05 0 7 0 7l-2.1 0c0 0 .01-6.71 0-6.7c0-1.9-.7-3.5-2.7-3.5c-1.3 0-2.4 1-2.8 2.1c-.1.3-.2.6-.2 1.1c.04-.05 0 7 0 7l-2.1 0l0-17.1zm14.5 11.6c.1 2.9 1.9 4.1 4 4.1c1.5 0 2.4-.3 3.2-.6c0 0 .4 1.5.4 1.5c-.8.3-2 .7-3.9.7c-3.6 0-5.7-2.4-5.7-5.9c0-3.5 2.1-6.2 5.5-6.2c3.8 0 4.8 3.3 4.8 5.5c0 .4-.1.7-.1.9c0 0-8.2 0-8.2 0zm6.2-1.5c0-1.3-.5-3.4-2.9-3.4c-2.1 0-3.1 2-3.2 3.4c0 0 6.1 0 6.1 0zm9.8 7l0-11.7l2.1 0l0 11.7l-2.1 0zm2.3-14.9c0 .7-.5 1.3-1.3 1.3c-.8 0-1.3-.6-1.3-1.3c0-.8.6-1.3 1.3-1.3c.8 0 1.3.5 1.3 1.3zm3.3 6.4c0-1.2 0-2.2-.1-3.2c-.02.04 1.9 0 1.9 0l.1 2c0 0 .02-.04 0 0c.6-1.1 1.9-2.2 3.9-2.2c1.6 0 4.1.9 4.1 4.9c-.03.03 0 7 0 7l-2.1 0c0 0-.04-6.74 0-6.7c0-1.9-.7-3.5-2.7-3.5c-1.4 0-2.5 1-2.9 2.2c-.1.3-.1.6-.1 1c-.01-.02 0 7 0 7l-2.1 0c0 0-.02-8.51 0-8.5zm15.7-6.5l0 3.3l3.1 0l0 1.7l-3.1 0c0 0 .05 6.22 0 6.2c0 1.5.5 2.3 1.6 2.3c.6 0 1-.1 1.3-.2c0 0 .1 1.6.1 1.6c-.5.2-1.1.3-1.9.3c-1 0-1.8-.3-2.3-.9c-.6-.6-.8-1.6-.8-3c-.02-.01 0-6.3 0-6.3l-1.8 0l0-1.7l1.8 0l0-2.7l2-.6zm6.5 9.5c0 2.9 1.9 4.1 4 4.1c1.5 0 2.4-.3 3.2-.6c0 0 .3 1.5.3 1.5c-.7.3-2 .7-3.8.7c-3.6 0-5.7-2.4-5.7-5.9c0-3.5 2-6.2 5.4-6.2c3.8 0 4.8 3.3 4.8 5.5c0 .4 0 .7-.1.9c0 0-8.1 0-8.1 0zm6.2-1.5c0-1.3-.6-3.4-3-3.4c-2.1 0-3 2-3.2 3.4c0 0 6.2 0 6.2 0zm14.6-4.7c0 .9-.1 1.8-.1 3.2c0 0 0 6.8 0 6.8c0 2.6-.5 4.3-1.6 5.3c-1.1 1-2.8 1.4-4.2 1.4c-1.4 0-3-.4-3.9-1c0 0 .5-1.6.5-1.6c.8.5 2 .9 3.4.9c2.2 0 3.8-1.1 3.8-4c-.03-.03 0-1.3 0-1.3c0 0-.07-.03-.1 0c-.6 1-1.9 1.9-3.7 1.9c-2.8 0-4.9-2.4-4.9-5.7c0-3.9 2.6-6.1 5.2-6.1c2 0 3.1 1 3.6 2c.04 0 .1 0 .1 0l.1-1.8c0 0 1.83.04 1.8 0zm-2.1 4.6c0-.3-.1-.6-.2-.9c-.4-1.3-1.4-2.3-2.9-2.3c-2 0-3.5 1.7-3.5 4.4c0 2.3 1.2 4.2 3.5 4.2c1.3 0 2.4-.8 2.9-2.2c.1-.3.2-.7.2-1.1c0 0 0-2.1 0-2.1zm5.4-.9c0-1.4 0-2.6-.1-3.7c0 .04 1.9 0 1.9 0l0 2.3c0 0 .12.02.1 0c.5-1.5 1.8-2.5 3.2-2.5c.3 0 .4 0 .6.1c0 0 0 1.9 0 1.9c-.2 0-.4 0-.7 0c-1.5 0-2.5 1.1-2.8 2.7c-.1.3-.1.6-.1 1c-.01-.03 0 6.2 0 6.2l-2.1 0c0 0 0-8.03 0-8zm14.2 8l-.2-1.5c0 0-.08 0-.1 0c-.6.9-1.9 1.7-3.5 1.7c-2.4 0-3.6-1.6-3.6-3.3c0-2.8 2.5-4.4 7-4.3c0 0 0-.3 0-.3c0-.9-.3-2.7-2.6-2.7c-1.1 0-2.2.4-3.1.9c0 0-.4-1.4-.4-1.4c.9-.6 2.3-1 3.8-1c3.5 0 4.4 2.4 4.4 4.7c0 0 0 4.4 0 4.4c0 1 0 2 .2 2.8c-.02-.04-1.9 0-1.9 0zm-.4-6c-2.3 0-4.9.4-4.9 2.6c0 1.4.9 2.1 2 2.1c1.5 0 2.5-1 2.8-2c.1-.2.1-.4.1-.7c0 0 0-2 0-2zm7.9-9l0 3.3l3.1 0l0 1.7l-3.1 0c0 0 .04 6.22 0 6.2c0 1.5.5 2.3 1.6 2.3c.6 0 1-.1 1.3-.2c0 0 0 1.6 0 1.6c-.4.2-1 .3-1.8.3c-1 0-1.8-.3-2.3-.9c-.6-.6-.8-1.6-.8-3c-.02-.01 0-6.3 0-6.3l-1.8 0l0-1.7l1.8 0l0-2.7l2-.6zm5.4 15l0-11.7l2.2 0l0 11.7l-2.2 0zm2.4-14.9c0 .7-.5 1.3-1.3 1.3c-.8 0-1.3-.6-1.3-1.3c0-.8.5-1.3 1.3-1.3c.8 0 1.3.5 1.3 1.3zm13.8 9c0 4.3-3 6.1-5.8 6.1c-3.2 0-5.6-2.3-5.6-6c0-3.8 2.6-6.1 5.8-6.1c3.3 0 5.6 2.4 5.6 6zm-9.2.1c0 2.5 1.4 4.4 3.5 4.4c2 0 3.5-1.9 3.5-4.5c0-1.9-1-4.4-3.5-4.4c-2.5 0-3.5 2.3-3.5 4.5zm11.8-2.7c0-1.2 0-2.2-.1-3.2c.04.04 1.9 0 1.9 0l.1 2c0 0 .08-.04.1 0c.6-1.1 1.9-2.2 3.8-2.2c1.6 0 4.1.9 4.1 4.9c.02.03 0 7 0 7l-2.1 0c0 0 .01-6.74 0-6.7c0-1.9-.7-3.5-2.7-3.5c-1.4 0-2.4 1-2.8 2.2c-.1.3-.2.6-.2 1c.05-.02 0 7 0 7l-2.1 0c0 0 .03-8.51 0-8.5z" stroke="none" fill="#fff"/></g><g id="Polygon6451"><path d="m135.1 58.5c1.1-.1 2-.3 2.5-.9c.6-.6.9-1.7.9-4.4c-.05-.03 0-10.9 0-10.9l4.2 0c0 0 .04 11.88 0 11.9c0 3-.6 4.8-1.9 6c-1.3 1.1-3.2 1.7-5.3 1.7c0 0-.4-3.4-.4-3.4zm7.7-20c0 1.2-.8 2.1-2.2 2.1c-1.4 0-2.3-.9-2.3-2.1c0-1.2.9-2.2 2.3-2.2c1.4 0 2.2 1 2.2 2.2zm16.2 13.1c0 1.8 0 3.3.1 4.4c-.01 0-3.7 0-3.7 0l-.2-1.9c0 0-.09-.03-.1 0c-.5.8-1.8 2.2-4.3 2.2c-2.7 0-4.8-1.7-4.8-6c.01.04 0-8 0-8l4.3 0c0 0 0 7.37 0 7.4c0 2 .6 3.2 2.1 3.2c1.2 0 1.9-.8 2.2-1.5c.1-.3.1-.6.1-.9c-.01-.04 0-8.2 0-8.2l4.3 0c0 0-.02 9.3 0 9.3zm3.4.7c.7.5 2.4 1 3.6 1c1.3 0 1.9-.4 1.9-1.1c0-.7-.5-1.1-2.1-1.6c-2.8-1-3.9-2.5-3.9-4.1c0-2.6 2.2-4.5 5.6-4.5c1.6 0 3 .4 3.9.8c0 0-.8 2.9-.8 2.9c-.6-.3-1.8-.8-2.9-.8c-1.1 0-1.7.5-1.7 1.2c0 .6.6.9 2.2 1.5c2.6.9 3.7 2.2 3.8 4.3c0 2.5-2 4.4-6 4.4c-1.8 0-3.4-.4-4.4-1c0 0 .8-3 .8-3zm16.9-13.9l0 3.9l3.1 0l0 3.1l-3.1 0c0 0 0 5 0 5c0 1.7.4 2.4 1.7 2.4c.5 0 .9 0 1.2-.1c0 0 .1 3.2.1 3.2c-.6.2-1.6.4-2.8.4c-1.4 0-2.5-.5-3.2-1.2c-.8-.8-1.2-2.1-1.2-4.1c.03.04 0-5.6 0-5.6l-1.8 0l0-3.1l1.8 0l0-3l4.2-.9zm11.2 8.4c0-2-.1-3.3-.1-4.5c-.04.01 3.6 0 3.6 0l.2 2.5c0 0 .08.03.1 0c.7-2 2.4-2.8 3.7-2.8c.4 0 .6 0 .9.1c0 0 0 4 0 4c-.3-.1-.7-.2-1.2-.2c-1.5 0-2.6.9-2.9 2.2c0 .3-.1.6-.1 1c.03-.04 0 6.9 0 6.9l-4.2 0c0 0-.03-9.18 0-9.2zm13.7 3.7c.1 1.8 1.8 2.6 3.8 2.6c1.5 0 2.7-.2 3.8-.5c0 0 .6 2.8.6 2.8c-1.4.6-3.1.9-5 .9c-4.6 0-7.3-2.7-7.3-7c0-3.5 2.2-7.3 6.9-7.3c4.4 0 6.1 3.4 6.1 6.8c0 .8-.1 1.4-.1 1.7c0 0-8.8 0-8.8 0zm5-2.9c0-1-.5-2.8-2.4-2.8c-1.8 0-2.5 1.7-2.7 2.8c0 0 5.1 0 5.1 0zm16.8 8.1c-.8.3-2.2.6-3.9.6c-4.4 0-7.2-2.7-7.2-7c0-4 2.7-7.3 7.8-7.3c1.2 0 2.4.2 3.3.5c0 0-.7 3.2-.7 3.2c-.5-.2-1.3-.4-2.4-.4c-2.2 0-3.7 1.6-3.6 3.8c0 2.5 1.6 3.8 3.7 3.8c1 0 1.8-.1 2.4-.4c0 0 .6 3.2.6 3.2zm15.5-6.7c0 5-3.5 7.3-7.2 7.3c-4 0-7.1-2.6-7.1-7c0-4.5 2.9-7.3 7.3-7.3c4.2 0 7 2.9 7 7zm-9.9.1c0 2.4 1 4.2 2.8 4.2c1.7 0 2.7-1.7 2.7-4.2c0-2-.8-4.1-2.7-4.1c-2 0-2.8 2.1-2.8 4.1zm12.6-2.4c0-1.7-.1-3.2-.2-4.4c.04.01 3.7 0 3.7 0l.2 1.9c0 0 .11-.02.1 0c.6-.9 2-2.2 4.2-2.2c2.8 0 4.9 1.8 4.9 5.9c.04-.02 0 8.1 0 8.1l-4.2 0c0 0-.01-7.59 0-7.6c0-1.8-.6-3-2.2-3c-1.1 0-1.8.9-2.1 1.6c-.1.3-.2.7-.2 1.1c.01 0 0 7.9 0 7.9l-4.2 0c0 0-.05-9.32 0-9.3zm26.6 9c-.7.3-2.1.6-3.8.6c-4.4 0-7.2-2.7-7.2-7c0-4 2.7-7.3 7.8-7.3c1.1 0 2.4.2 3.3.5c0 0-.7 3.2-.7 3.2c-.5-.2-1.3-.4-2.4-.4c-2.2 0-3.7 1.6-3.7 3.8c0 2.5 1.7 3.8 3.8 3.8c1 0 1.8-.1 2.4-.4c0 0 .5 3.2.5 3.2zm2.4.3l0-13.7l4.2 0l0 13.7l-4.2 0zm4.4-17.5c0 1.2-.9 2.1-2.3 2.1c-1.4 0-2.3-.9-2.2-2.1c-.1-1.2.8-2.2 2.2-2.2c1.4 0 2.3 1 2.3 2.2zm3.3-2.4l4.2 0l0 19.9l-4.2 0l0-19.9zm7.7 19.9l0-13.7l4.2 0l0 13.7l-4.2 0zm4.4-17.5c0 1.2-.9 2.1-2.3 2.1c-1.4 0-2.3-.9-2.3-2.1c0-1.2.9-2.2 2.3-2.2c1.4 0 2.2 1 2.3 2.2zm11 17.5l-.2-1.4c0 0-.12.03-.1 0c-.9 1.1-2.3 1.7-3.9 1.7c-2.8 0-4.5-2-4.5-4.2c0-3.5 3.2-5.3 8.1-5.2c0 0 0-.2 0-.2c0-.8-.4-1.8-2.5-1.8c-1.4 0-2.9.5-3.8 1c0 0-.8-2.7-.8-2.7c1-.5 2.8-1.2 5.3-1.2c4.6 0 6.1 2.7 6.1 5.9c0 0 0 4.8 0 4.8c0 1.3 0 2.5.1 3.3c.05 0-3.8 0-3.8 0zm-.5-6.5c-2.2 0-4 .5-4 2.2c0 1.1.8 1.6 1.7 1.6c1.1 0 1.9-.7 2.2-1.6c.1-.2.1-.4.1-.7c0 0 0-1.5 0-1.5zm12-11.1l0 3.9l3.1 0l0 3.1l-3.1 0c0 0 .05 5 0 5c0 1.7.4 2.4 1.7 2.4c.6 0 1 0 1.3-.1c0 0 0 3.2 0 3.2c-.5.2-1.6.4-2.8.4c-1.3 0-2.5-.5-3.1-1.2c-.8-.8-1.2-2.1-1.2-4.1c-.02.04 0-5.6 0-5.6l-1.8 0l0-3.1l1.8 0l0-3l4.1-.9zm5.6 17.6l0-13.7l4.2 0l0 13.7l-4.2 0zm4.4-17.5c0 1.2-.9 2.1-2.3 2.1c-1.4 0-2.3-.9-2.2-2.1c-.1-1.2.8-2.2 2.2-2.2c1.4 0 2.2 1 2.3 2.2zm16.8 10.5c0 5-3.6 7.3-7.3 7.3c-4 0-7-2.6-7-7c0-4.5 2.9-7.3 7.3-7.3c4.2 0 7 2.9 7 7zm-10 .1c0 2.4 1 4.2 2.8 4.2c1.7 0 2.8-1.7 2.8-4.2c0-2-.8-4.1-2.8-4.1c-2 0-2.8 2.1-2.8 4.1zm12.6-2.4c0-1.7-.1-3.2-.1-4.4c-.02.01 3.7 0 3.7 0l.2 1.9c0 0 .06-.02.1 0c.5-.9 1.9-2.2 4.2-2.2c2.8 0 4.9 1.8 4.9 5.9c-.02-.02 0 8.1 0 8.1l-4.3 0c0 0 .03-7.59 0-7.6c0-1.8-.6-3-2.1-3c-1.2 0-1.9.9-2.2 1.6c-.1.3-.2.7-.2 1.1c.05 0 0 7.9 0 7.9l-4.2 0c0 0-.01-9.32 0-9.3zm16.8 3.1l-.6-12.7l4.5 0l-.7 12.7l-3.2 0zm-.9 4c0-1.5 1.1-2.6 2.5-2.6c1.5 0 2.5 1.1 2.5 2.6c0 1.4-.9 2.5-2.5 2.5c-1.5 0-2.5-1.1-2.5-2.5z" stroke="none" fill="#15345e"/></g><g id="Polygon6450"><path d="m103.3 2.1c0 0 0 10.89 0 10.9c0 3.2 1.2 4.9 3.4 4.9c2.3 0 3.5-1.6 3.5-4.9c-.01-.01 0-10.9 0-10.9l4.2 0c0 0 .04 10.61 0 10.6c0 5.8-2.9 8.6-7.8 8.6c-4.8 0-7.6-2.6-7.6-8.6c.01-.04 0-10.6 0-10.6l4.3 0zm14.7 9.6c0-1.7-.1-3.2-.1-4.4c-.01.01 3.7 0 3.7 0l.2 1.9c0 0 .06-.02.1 0c.5-.9 1.9-2.2 4.2-2.2c2.8 0 4.9 1.8 4.9 5.9c-.01-.02 0 8.1 0 8.1l-4.3 0c0 0 .03-7.59 0-7.6c0-1.8-.6-3-2.1-3c-1.2 0-1.9.9-2.2 1.6c-.1.3-.1.7-.1 1.1c-.05 0 0 7.9 0 7.9l-4.3 0c0 0 0-9.32 0-9.3zm16.3 9.3c0-.9.1-2.5.1-4.1c.01.01 0-15.8 0-15.8l4.3 0l0 7.8c0 0 .02.03 0 0c.8-1.1 2.3-1.9 4.2-1.9c3.2 0 5.6 2.7 5.6 6.9c0 4.9-3.1 7.4-6.3 7.4c-1.6 0-3.1-.6-4.1-2.2c.03 0 0 0 0 0l-.2 1.9c0 0-3.61 0-3.6 0zm4.4-5.8c0 .3 0 .5 0 .7c.3 1.2 1.3 2 2.5 2c1.9 0 3-1.4 3-3.8c0-2.1-1-3.8-3-3.8c-1.1 0-2.2.8-2.5 2.1c0 .2 0 .5 0 .8c0 0 0 2 0 2zm12.4-14.1l4.3 0l0 19.9l-4.3 0l0-19.9zm21.3 12.9c0 5-3.6 7.3-7.3 7.3c-4 0-7-2.6-7-7c0-4.5 2.9-7.3 7.3-7.3c4.2 0 7 2.9 7 7zm-9.9.1c0 2.4.9 4.2 2.8 4.2c1.6 0 2.7-1.7 2.7-4.2c0-2-.8-4.1-2.7-4.1c-2.1 0-2.8 2.1-2.8 4.1zm22.9 6.6c-.8.3-2.2.6-3.8.6c-4.5 0-7.3-2.7-7.3-7c0-4 2.7-7.3 7.8-7.3c1.2 0 2.4.2 3.3.5c0 0-.7 3.2-.7 3.2c-.5-.2-1.2-.4-2.4-.4c-2.2 0-3.7 1.6-3.6 3.8c0 2.5 1.7 3.8 3.7 3.8c1 0 1.8-.1 2.5-.4c0 0 .5 3.2.5 3.2zm6.6-7.6c0 0 .03-.02 0 0c.3-.6.7-1.1 1-1.7c.01.02 2.8-4.1 2.8-4.1l5.1 0l-4.9 5.6l5.6 8.1l-5.2 0l-3.3-5.6l-1.1 1.3l0 4.3l-4.3 0l0-19.9l4.3 0l0 12zm21-11l0 18.9l-4.3 0l0-18.9l4.3 0zm7.3 3.6l-5.1 0l0-3.6l14.5 0l0 3.6l-5.1 0l0 15.3l-4.3 0l0-15.3zm24.8 14.8c-.8.4-2.6.8-4.9.8c-6.5 0-9.9-4.1-9.9-9.5c0-6.4 4.6-10 10.3-10c2.2 0 3.9.5 4.7.9c0 0-.9 3.3-.9 3.3c-.9-.3-2.1-.7-3.6-.7c-3.4 0-6 2.1-6 6.3c0 3.8 2.3 6.2 6.1 6.2c1.2 0 2.7-.3 3.5-.7c0 0 .7 3.4.7 3.4zm8.3.5l0-13.7l4.2 0l0 13.7l-4.2 0zm4.4-17.5c0 1.2-.9 2.1-2.3 2.1c-1.4 0-2.3-.9-2.2-2.1c-.1-1.2.8-2.2 2.2-2.2c1.4 0 2.2 1 2.3 2.2zm3.2 13.8c.8.5 2.4 1 3.7 1c1.3 0 1.8-.4 1.8-1.1c0-.7-.4-1.1-2-1.6c-2.8-1-3.9-2.5-3.9-4.1c0-2.6 2.2-4.5 5.6-4.5c1.6 0 3 .4 3.8.8c0 0-.7 2.9-.7 2.9c-.6-.3-1.8-.8-3-.8c-1 0-1.6.5-1.6 1.2c0 .6.5.9 2.2 1.5c2.6.9 3.7 2.2 3.7 4.3c0 2.5-2 4.4-5.9 4.4c-1.8 0-3.4-.4-4.4-1c0 0 .7-3 .7-3zm17.9-5.6c0-1.7-.1-3.2-.2-4.4c.04.01 3.6 0 3.6 0l.2 1.9c0 0 .11-.04.1 0c.6-.9 1.8-2.2 4.2-2.2c1.7 0 3.1.9 3.7 2.3c0 0 .1 0 .1 0c.5-.7 1.1-1.2 1.7-1.6c.8-.5 1.6-.7 2.6-.7c2.7 0 4.6 1.8 4.6 5.9c.05.04 0 8.1 0 8.1l-4.1 0c0 0 0-7.45 0-7.4c0-2-.6-3.2-2-3.2c-1 0-1.7.7-2 1.5c-.1.3-.1.8-.1 1.1c-.04-.01 0 8 0 8l-4.2 0c0 0 .01-7.67 0-7.7c0-1.7-.6-2.9-1.9-2.9c-1.1 0-1.8.9-2 1.6c-.2.3-.2.7-.2 1c0 .02 0 8 0 8l-4.1 0c0 0-.05-9.32 0-9.3zm37.6 2.3c0 5-3.6 7.3-7.3 7.3c-4 0-7-2.6-7-7c0-4.5 2.9-7.3 7.3-7.3c4.2 0 7 2.9 7 7zm-10 .1c0 2.4 1 4.2 2.8 4.2c1.7 0 2.8-1.7 2.8-4.2c0-2-.8-4.1-2.8-4.1c-2 0-2.8 2.1-2.8 4.1zm12.6-2.3c0-2-.1-3.3-.1-4.5c-.02.01 3.6 0 3.6 0l.2 2.5c0 0 .1.03.1 0c.7-2 2.4-2.8 3.7-2.8c.4 0 .6 0 .9.1c0 0 0 4 0 4c-.3-.1-.7-.2-1.2-.2c-1.5 0-2.6.9-2.9 2.2c0 .3-.1.6-.1 1c.05-.04 0 6.9 0 6.9l-4.2 0c0 0-.01-9.18 0-9.2zm13.7 3.7c.1 1.8 1.9 2.6 3.8 2.6c1.5 0 2.7-.2 3.8-.5c0 0 .6 2.8.6 2.8c-1.4.6-3.1.9-5 .9c-4.6 0-7.3-2.7-7.3-7c0-3.5 2.2-7.3 6.9-7.3c4.5 0 6.1 3.4 6.1 6.8c0 .8 0 1.4-.1 1.7c0 0-8.8 0-8.8 0zm5-2.9c0-1-.5-2.8-2.4-2.8c-1.8 0-2.5 1.7-2.6 2.8c0 0 5 0 5 0zm16.9-9.2l0 3.9l3.1 0l0 3.1l-3.1 0c0 0 .01 5 0 5c0 1.7.4 2.4 1.7 2.4c.5 0 .9 0 1.2-.1c0 0 .1 3.2.1 3.2c-.6.2-1.6.4-2.8.4c-1.4 0-2.5-.5-3.2-1.2c-.8-.8-1.2-2.1-1.2-4.1c.03.04 0-5.6 0-5.6l-1.8 0l0-3.1l1.8 0l0-3l4.2-.9zm5.5-2.3l4.3 0l0 7.8c0 0 .03.03 0 0c.5-.6 1-1 1.7-1.4c.6-.3 1.4-.5 2.2-.5c2.7 0 4.8 1.9 4.8 6c.01-.01 0 8 0 8l-4.2 0c0 0-.04-7.53 0-7.5c0-1.8-.7-3.1-2.3-3.1c-1.1 0-1.8.8-2.1 1.5c-.1.3-.1.7-.1 1c-.02-.02 0 8.1 0 8.1l-4.3 0l0-19.9zm24.2 19.9l-.2-1.4c0 0-.12.03-.1 0c-.9 1.1-2.3 1.7-3.9 1.7c-2.8 0-4.5-2-4.5-4.2c0-3.5 3.2-5.3 8.1-5.2c0 0 0-.2 0-.2c0-.8-.4-1.8-2.5-1.8c-1.4 0-2.9.5-3.8 1c0 0-.8-2.7-.8-2.7c1-.5 2.8-1.2 5.3-1.2c4.6 0 6.1 2.7 6.1 5.9c0 0 0 4.8 0 4.8c0 1.3 0 2.5.1 3.3c.05 0-3.8 0-3.8 0zm-.5-6.5c-2.2 0-4 .5-4 2.2c0 1.1.8 1.6 1.7 1.6c1.1 0 1.9-.7 2.2-1.6c.1-.2.1-.4.1-.7c0 0 0-1.5 0-1.5zm7.5-2.8c0-1.7 0-3.2-.1-4.4c0 .01 3.7 0 3.7 0l.2 1.9c0 0 .08-.02.1 0c.5-.9 1.9-2.2 4.2-2.2c2.8 0 4.9 1.8 4.9 5.9c.01-.02 0 8.1 0 8.1l-4.3 0c0 0 .05-7.59 0-7.6c0-1.8-.6-3-2.1-3c-1.2 0-1.9.9-2.2 1.6c-.1.3-.1.7-.1 1.1c-.03 0 0 7.9 0 7.9l-4.3 0c0 0 .01-9.32 0-9.3z" stroke="none" fill="#15345e"/></g></svg>