<?xml version="1.0" standalone="no"?><!DOCTYPE svg PUBLIC "-//W3C//DTD SVG 1.1//EN" "http://www.w3.org/Graphics/SVG/1.1/DTD/svg11.dtd"><svg xmlns="http://www.w3.org/2000/svg" version="1.1" width="294.4px" height="86px" viewBox="0 -7 294.4 86" style="top:-7px"><desc>mismatches/unreconcilied invoices</desc><defs/><g id="Polygon8721"><path d="m15.2 57.9c0 1.6.1 3 .1 4.2c.05 0-2.4 0-2.4 0l-.2-2.5c0 0-.06-.02-.1 0c-.7 1.2-2.3 2.8-5.1 2.8c-2.4 0-5.3-1.3-5.3-6.7c.03 0 0-9 0-9l2.8 0c0 0 .03 8.52 0 8.5c0 3 .9 4.9 3.5 4.9c1.8 0 3.2-1.3 3.7-2.5c.1-.4.2-.9.2-1.5c.02.04 0-9.4 0-9.4l2.8 0c0 0 .02 11.2 0 11.2zm4.7-7c0-1.6-.1-2.9-.2-4.2c.04-.01 2.5 0 2.5 0l.2 2.5c0 0 .05.03.1 0c.7-1.4 2.5-2.9 5-2.9c2.2 0 5.5 1.3 5.5 6.6c-.01 0 0 9.2 0 9.2l-2.8 0c0 0-.01-8.89 0-8.9c0-2.5-.9-4.5-3.6-4.5c-1.8 0-3.3 1.3-3.7 2.8c-.2.4-.2.9-.2 1.3c-.03.03 0 9.3 0 9.3l-2.8 0c0 0-.03-11.24 0-11.2zm17.6.6c0-1.8 0-3.4-.1-4.8c.02-.01 2.5 0 2.5 0l.1 3c0 0 .09.01.1 0c.7-2.1 2.4-3.4 4.3-3.4c.3 0 .5.1.8.1c0 0 0 2.7 0 2.7c-.3-.1-.6-.1-1-.1c-2 0-3.4 1.5-3.8 3.6c0 .4-.1.8-.1 1.3c.02-.02 0 8.2 0 8.2l-2.8 0c0 0 .05-10.61 0-10.6zm11.7 3.4c.1 3.8 2.5 5.4 5.3 5.4c2 0 3.2-.4 4.3-.8c0 0 .4 2 .4 2c-1 .4-2.6.9-5.1.9c-4.7 0-7.6-3.1-7.6-7.8c0-4.6 2.8-8.3 7.3-8.3c5 0 6.3 4.5 6.3 7.3c0 .6 0 1-.1 1.3c0 0-10.8 0-10.8 0zm8.2-2c0-1.8-.7-4.6-3.9-4.6c-2.8 0-4 2.7-4.3 4.6c0 0 8.2 0 8.2 0zm17.2 8.6c-.8.4-2.4.9-4.4.9c-4.7 0-7.7-3.1-7.7-7.8c0-4.8 3.2-8.2 8.3-8.2c1.6 0 3.1.4 3.8.8c0 0-.6 2.1-.6 2.1c-.7-.4-1.7-.7-3.2-.7c-3.6 0-5.5 2.6-5.5 5.8c0 3.6 2.3 5.8 5.4 5.8c1.6 0 2.6-.4 3.4-.8c0 0 .5 2.1.5 2.1zm17-7.2c0 5.7-3.9 8.1-7.7 8.1c-4.1 0-7.3-3-7.3-7.9c0-5.1 3.3-8.2 7.6-8.2c4.4 0 7.4 3.3 7.4 8zm-12.2.1c0 3.4 1.9 5.9 4.7 5.9c2.6 0 4.7-2.5 4.7-5.9c0-2.7-1.4-6-4.7-6c-3.3 0-4.7 3.1-4.7 6zm15.8-3.5c0-1.6-.1-2.9-.2-4.2c.03-.01 2.5 0 2.5 0l.2 2.5c0 0 .03.03 0 0c.8-1.4 2.6-2.9 5.1-2.9c2.2 0 5.5 1.3 5.5 6.6c-.03 0 0 9.2 0 9.2l-2.8 0c0 0-.03-8.89 0-8.9c0-2.5-1-4.5-3.6-4.5c-1.8 0-3.3 1.3-3.8 2.8c-.1.4-.1.9-.1 1.3c-.04.03 0 9.3 0 9.3l-2.8 0c0 0-.05-11.24 0-11.2zm28.6 10.6c-.7.4-2.3.9-4.4.9c-4.7 0-7.7-3.1-7.7-7.8c0-4.8 3.3-8.2 8.3-8.2c1.6 0 3.1.4 3.9.8c0 0-.7 2.1-.7 2.1c-.6-.4-1.7-.7-3.2-.7c-3.5 0-5.5 2.6-5.5 5.8c0 3.6 2.3 5.8 5.4 5.8c1.6 0 2.6-.4 3.4-.8c0 0 .5 2.1.5 2.1zm3.3.6l0-15.4l2.8 0l0 15.4l-2.8 0zm3.1-19.7c0 .9-.7 1.7-1.8 1.7c-1 0-1.7-.8-1.7-1.7c0-1 .8-1.8 1.8-1.8c1 0 1.7.8 1.7 1.8zm4.3-2.9l2.8 0l0 22.6l-2.8 0l0-22.6zm7.6 22.6l0-15.4l2.8 0l0 15.4l-2.8 0zm3.1-19.7c0 .9-.7 1.7-1.8 1.7c-1 0-1.7-.8-1.7-1.7c0-1 .7-1.8 1.8-1.8c1 0 1.7.8 1.7 1.8zm5.9 12.5c0 3.8 2.5 5.4 5.3 5.4c2 0 3.2-.4 4.2-.8c0 0 .5 2 .5 2c-1 .4-2.7.9-5.1.9c-4.8 0-7.6-3.1-7.6-7.8c0-4.6 2.7-8.3 7.2-8.3c5.1 0 6.4 4.5 6.4 7.3c0 .6-.1 1-.1 1.3c0 0-10.8 0-10.8 0zm8.2-2c0-1.8-.7-4.6-3.9-4.6c-2.8 0-4.1 2.7-4.3 4.6c0 0 8.2 0 8.2 0zm19.5-13.4c0 0-.02 18.62 0 18.6c0 1.4 0 2.9.1 4c.01 0-2.5 0-2.5 0l-.1-2.7c0 0-.1.02-.1 0c-.9 1.7-2.7 3-5.3 3c-3.7 0-6.5-3.1-6.5-7.8c-.1-5.1 3.1-8.3 6.9-8.3c2.3 0 3.9 1.1 4.6 2.4c.01-.01.1 0 .1 0l0-9.2l2.8 0zm-2.8 13.5c0-.4-.1-.9-.2-1.2c-.4-1.8-1.9-3.3-4-3.3c-2.9 0-4.6 2.6-4.6 6c0 3.1 1.5 5.7 4.5 5.7c1.9 0 3.6-1.3 4.1-3.4c.1-.3.2-.7.2-1.2c0 0 0-2.6 0-2.6zm13.4 9.1l0-15.4l2.8 0l0 15.4l-2.8 0zm3.1-19.7c.1.9-.6 1.7-1.8 1.7c-.9 0-1.6-.8-1.6-1.7c0-1 .7-1.8 1.7-1.8c1.1 0 1.7.8 1.7 1.8zm4.4 8.5c0-1.6-.1-2.9-.2-4.2c.03-.01 2.5 0 2.5 0l.2 2.5c0 0 .04.03 0 0c.8-1.4 2.6-2.9 5.1-2.9c2.2 0 5.5 1.3 5.5 6.6c-.02 0 0 9.2 0 9.2l-2.8 0c0 0-.02-8.89 0-8.9c0-2.5-.9-4.5-3.6-4.5c-1.8 0-3.3 1.3-3.7 2.8c-.2.4-.2.9-.2 1.3c-.04.03 0 9.3 0 9.3l-2.8 0c0 0-.04-11.24 0-11.2zm18.3-4.2c0 0 3.03 8.65 3 8.6c.5 1.4.9 2.7 1.3 4c0 0 .1 0 .1 0c.3-1.3.8-2.6 1.3-4c-.03.05 3-8.6 3-8.6l2.9 0l-6.1 15.4l-2.6 0l-5.9-15.4l3 0zm27.9 7.6c0 5.7-4 8.1-7.7 8.1c-4.2 0-7.4-3-7.4-7.9c0-5.1 3.4-8.2 7.6-8.2c4.5 0 7.5 3.3 7.5 8zm-12.3.1c0 3.4 2 5.9 4.7 5.9c2.7 0 4.7-2.5 4.7-5.9c0-2.7-1.3-6-4.6-6c-3.3 0-4.8 3.1-4.8 6zm15.8 7.7l0-15.4l2.8 0l0 15.4l-2.8 0zm3.1-19.7c.1.9-.6 1.7-1.8 1.7c-.9 0-1.7-.8-1.7-1.7c0-1 .8-1.8 1.8-1.8c1.1 0 1.7.8 1.7 1.8zm15.3 19.1c-.7.4-2.3.9-4.4.9c-4.6 0-7.7-3.1-7.7-7.8c0-4.8 3.3-8.2 8.3-8.2c1.7 0 3.1.4 3.9.8c0 0-.6 2.1-.6 2.1c-.7-.4-1.8-.7-3.3-.7c-3.5 0-5.4 2.6-5.4 5.8c0 3.6 2.3 5.8 5.3 5.8c1.6 0 2.7-.4 3.5-.8c0 0 .4 2.1.4 2.1zm4.7-6.6c.1 3.8 2.5 5.4 5.3 5.4c2 0 3.2-.4 4.2-.8c0 0 .5 2 .5 2c-1 .4-2.7.9-5.1.9c-4.8 0-7.6-3.1-7.6-7.8c0-4.6 2.8-8.3 7.2-8.3c5.1 0 6.4 4.5 6.4 7.3c0 .6-.1 1-.1 1.3c0 0-10.8 0-10.8 0zm8.2-2c0-1.8-.7-4.6-3.9-4.6c-2.8 0-4.1 2.7-4.3 4.6c0 0 8.2 0 8.2 0zm5.8 6.3c.8.6 2.3 1.1 3.7 1.1c2 0 3-1 3-2.2c0-1.4-.8-2.1-2.9-2.9c-2.7-1-4.1-2.5-4.1-4.3c0-2.5 2.1-4.6 5.4-4.6c1.5 0 2.9.5 3.8 1c0 0-.7 2-.7 2c-.7-.4-1.8-.9-3.2-.9c-1.7 0-2.6 1-2.6 2.1c0 1.3.9 1.9 2.9 2.7c2.7 1 4.1 2.3 4.1 4.6c0 2.7-2.1 4.6-5.8 4.6c-1.7 0-3.2-.4-4.3-1c0 0 .7-2.2.7-2.2z" stroke="none" fill="#fff"/></g><g id="Polygon8720"><path d="m64.4 12.6c0-1.5 0-2.9-.1-4.1c-.01-.03 2.4 0 2.4 0l.2 2.5c0 0 .07-.05.1 0c.8-1.5 2.3-2.9 4.8-2.9c2.1 0 3.7 1.3 4.4 3.1c0 0 0 0 0 0c.5-.9 1.1-1.5 1.8-2c.9-.7 1.9-1.1 3.4-1.1c2 0 5 1.4 5 6.7c.02.01 0 9.1 0 9.1l-2.7 0c0 0-.02-8.74 0-8.7c0-3-1.1-4.8-3.4-4.8c-1.6 0-2.8 1.2-3.3 2.6c-.1.3-.2.9-.2 1.4c.01-.04 0 9.5 0 9.5l-2.7 0c0 0-.03-9.25 0-9.3c0-2.4-1.1-4.2-3.2-4.2c-1.8 0-3.1 1.4-3.5 2.8c-.2.4-.2.9-.2 1.4c-.04-.01 0 9.3 0 9.3l-2.8 0c0 0 .02-11.26 0-11.3zm26.6 11.3l0-15.4l2.8 0l0 15.4l-2.8 0zm3.1-19.8c0 1-.7 1.8-1.8 1.8c-1 0-1.7-.8-1.7-1.8c0-.9.8-1.7 1.8-1.7c1 0 1.7.8 1.7 1.7zm3.9 16.9c.9.6 2.3 1.1 3.7 1.1c2.1 0 3-1 3-2.3c0-1.3-.8-2-2.8-2.8c-2.8-1-4.1-2.5-4.1-4.4c0-2.4 2-4.5 5.3-4.5c1.6 0 2.9.5 3.8 1c0 0-.7 2-.7 2c-.6-.4-1.7-.9-3.2-.9c-1.6 0-2.5 1-2.5 2.1c0 1.3.9 1.9 2.9 2.6c2.7 1.1 4 2.4 4 4.7c0 2.7-2.1 4.6-5.7 4.6c-1.7 0-3.3-.4-4.4-1c0 0 .7-2.2.7-2.2zm13-8.4c0-1.5 0-2.9-.1-4.1c.01-.03 2.5 0 2.5 0l.1 2.5c0 0 .09-.05.1 0c.8-1.5 2.3-2.9 4.8-2.9c2.1 0 3.7 1.3 4.4 3.1c0 0 .1 0 .1 0c.4-.9 1-1.5 1.7-2c.9-.7 1.9-1.1 3.4-1.1c2 0 5 1.4 5 6.7c.04.01 0 9.1 0 9.1l-2.7 0c0 0 .01-8.74 0-8.7c0-3-1.1-4.8-3.3-4.8c-1.6 0-2.9 1.2-3.3 2.6c-.2.3-.3.9-.3 1.4c.03-.04 0 9.5 0 9.5l-2.7 0c0 0-.01-9.25 0-9.3c0-2.4-1.1-4.2-3.2-4.2c-1.8 0-3.1 1.4-3.5 2.8c-.2.4-.2.9-.2 1.4c-.02-.01 0 9.3 0 9.3l-2.8 0c0 0 .04-11.26 0-11.3zm35.1 11.3l-.2-2c0 0-.08.04-.1 0c-.8 1.3-2.5 2.3-4.7 2.3c-3.1 0-4.7-2.2-4.7-4.4c0-3.7 3.3-5.8 9.3-5.7c0 0 0-.3 0-.3c0-1.3-.4-3.6-3.5-3.6c-1.5 0-3 .4-4.1 1.1c0 0-.6-1.8-.6-1.8c1.3-.8 3.1-1.4 5.1-1.4c4.7 0 5.8 3.2 5.8 6.3c0 0 0 5.8 0 5.8c0 1.3.1 2.6.3 3.7c-.02-.02-2.6 0-2.6 0zm-.4-7.9c-3 0-6.5.5-6.5 3.5c0 1.8 1.2 2.7 2.6 2.7c2 0 3.3-1.3 3.8-2.6c.1-.3.1-.6.1-.9c0 0 0-2.7 0-2.7zm10.5-12l0 4.5l4 0l0 2.1l-4 0c0 0 0 8.32 0 8.3c0 1.9.5 3 2.1 3c.7 0 1.3-.1 1.6-.2c0 0 .1 2.1.1 2.1c-.5.2-1.4.4-2.4.4c-1.3 0-2.4-.4-3.1-1.2c-.8-.8-1-2.2-1-4c-.04.01 0-8.4 0-8.4l-2.4 0l0-2.1l2.4 0l0-3.7l2.7-.8zm18 19.3c-.8.4-2.4.9-4.5.9c-4.6 0-7.6-3.2-7.6-7.9c0-4.7 3.2-8.1 8.2-8.1c1.7 0 3.2.4 3.9.7c0 0-.6 2.2-.6 2.2c-.7-.4-1.7-.7-3.3-.7c-3.5 0-5.4 2.6-5.4 5.8c0 3.6 2.3 5.8 5.3 5.8c1.6 0 2.7-.4 3.5-.8c0 0 .5 2.1.5 2.1zm3.2-22l2.8 0l0 9.6c0 0 .1-.01.1 0c.4-.8 1.2-1.5 2-2c.8-.5 1.8-.8 2.9-.8c2 0 5.4 1.3 5.4 6.6c-.04.01 0 9.2 0 9.2l-2.8 0c0 0-.04-8.87 0-8.9c0-2.5-1-4.6-3.6-4.6c-1.8 0-3.3 1.3-3.8 2.8c-.1.4-.2.8-.2 1.4c.04-.01 0 9.3 0 9.3l-2.8 0l0-22.6zm19.3 15.4c0 3.8 2.5 5.3 5.3 5.3c2 0 3.2-.3 4.2-.8c0 0 .5 2 .5 2c-1 .5-2.7 1-5.1 1c-4.8 0-7.6-3.1-7.6-7.8c0-4.6 2.7-8.3 7.2-8.3c5.1 0 6.4 4.4 6.4 7.3c0 .6-.1 1-.1 1.3c0 0-10.8 0-10.8 0zm8.2-2c0-1.8-.7-4.6-3.9-4.6c-2.8 0-4.1 2.6-4.3 4.6c0 0 8.2 0 8.2 0zm5.8 6.3c.8.6 2.3 1.1 3.7 1.1c2 0 3-1 3-2.3c0-1.3-.8-2-2.9-2.8c-2.8-1-4.1-2.5-4.1-4.4c0-2.4 2-4.5 5.3-4.5c1.6 0 3 .5 3.8 1c0 0-.7 2-.7 2c-.6-.4-1.7-.9-3.1-.9c-1.7 0-2.6 1-2.6 2.1c0 1.3.9 1.9 2.9 2.6c2.7 1.1 4.1 2.4 4.1 4.7c0 2.7-2.1 4.6-5.8 4.6c-1.7 0-3.2-.4-4.3-1c0 0 .7-2.2.7-2.2zm10.6 4.2l8.9-23.1l2.2 0l-8.9 23.1l-2.2 0z" stroke="none" fill="#fff"/></g></svg>