<?xml version="1.0" standalone="no"?><!DOCTYPE svg PUBLIC "-//W3C//DTD SVG 1.1//EN" "http://www.w3.org/Graphics/SVG/1.1/DTD/svg11.dtd"><svg xmlns="http://www.w3.org/2000/svg" xmlns:xlink="http://www.w3.org/1999/xlink" version="1.1" width="585px" height="54.5px" viewBox="0 -9 585 54.5" style="top:-9px"><desc/><defs/><g class="svg-textframe-underlines"><rect class="svg-underline" x="92.6" y="24.8" width="399.9" height="1.5" style="fill:#fff;"/></g><g id="Polygon9677"><path d="m95.3 8c0 0 1.89 7.36 1.9 7.4c.4 1.6.8 3.1 1.1 4.6c0 0 .1 0 .1 0c.3-1.5.8-3 1.2-4.6c.05-.01 2.4-7.4 2.4-7.4l2.2 0c0 0 2.29 7.24 2.3 7.2c.5 1.8.9 3.3 1.3 4.8c0 0 .1 0 .1 0c.2-1.5.6-3 1.1-4.7c-.02-.03 2-7.3 2-7.3l2.7 0l-4.7 14.5l-2.4 0c0 0-2.24-6.93-2.2-6.9c-.6-1.7-1-3.1-1.3-4.8c0 0-.1 0-.1 0c-.4 1.7-.8 3.2-1.3 4.8c-.01 0-2.4 6.9-2.4 6.9l-2.4 0l-4.3-14.5l2.7 0zm26.9 0c0 0 1.93 7.36 1.9 7.4c.4 1.6.8 3.1 1.1 4.6c0 0 .1 0 .1 0c.3-1.5.8-3 1.3-4.6c-.01-.01 2.4-7.4 2.4-7.4l2.2 0c0 0 2.23 7.24 2.2 7.2c.6 1.8 1 3.3 1.3 4.8c0 0 .1 0 .1 0c.2-1.5.6-3 1.1-4.7c.02-.03 2.1-7.3 2.1-7.3l2.6 0l-4.7 14.5l-2.4 0c0 0-2.2-6.93-2.2-6.9c-.5-1.7-.9-3.1-1.3-4.8c0 0-.1 0-.1 0c-.3 1.7-.8 3.2-1.3 4.8c.03 0-2.3 6.9-2.3 6.9l-2.4 0l-4.4-14.5l2.7 0zm26.9 0c0 0 1.97 7.36 2 7.4c.4 1.6.8 3.1 1 4.6c0 0 .1 0 .1 0c.4-1.5.8-3 1.3-4.6c.03-.01 2.4-7.4 2.4-7.4l2.2 0c0 0 2.27 7.24 2.3 7.2c.5 1.8.9 3.3 1.3 4.8c0 0 0 0 0 0c.3-1.5.7-3 1.2-4.7c-.04-.03 2-7.3 2-7.3l2.6 0l-4.6 14.5l-2.4 0c0 0-2.26-6.93-2.3-6.9c-.5-1.7-.9-3.1-1.3-4.8c0 0 0 0 0 0c-.4 1.7-.8 3.2-1.3 4.8c-.03 0-2.4 6.9-2.4 6.9l-2.4 0l-4.4-14.5l2.7 0zm23.8 12.9c0-1.1.7-1.8 1.8-1.8c1 0 1.7.7 1.7 1.8c0 1.1-.6 1.9-1.8 1.9c-1 0-1.7-.8-1.7-1.9zm21.7 1.1c-.7.3-2.3.8-4.2.8c-4.4 0-7.2-3-7.2-7.4c0-4.5 3-7.7 7.8-7.7c1.5 0 2.9.4 3.6.7c0 0-.6 2.1-.6 2.1c-.6-.4-1.6-.7-3-.7c-3.4 0-5.2 2.4-5.2 5.5c0 3.3 2.2 5.4 5.1 5.4c1.5 0 2.5-.4 3.2-.7c0 0 .5 2 .5 2zm9.1-14c0 0 3.14 8.56 3.1 8.6c.4.9.7 2.1 1 2.9c0 0 0 0 0 0c.3-.8.6-1.9 1-3c-.04 0 2.8-8.5 2.8-8.5l2.8 0c0 0-3.93 10.33-3.9 10.3c-1.9 5-3.2 7.6-5 9.1c-1.3 1.2-2.6 1.6-3.3 1.7c0 0-.6-2.2-.6-2.2c.6-.2 1.5-.6 2.3-1.3c.7-.6 1.6-1.6 2.2-2.9c.1-.3.2-.5.2-.6c0-.2 0-.4-.2-.7c.05-.04-5.3-13.4-5.3-13.4l2.9 0zm29.8 0c0 1-.1 2.2-.1 4c0 0 0 8.4 0 8.4c0 3.3-.6 5.4-2.1 6.6c-1.4 1.3-3.4 1.8-5.2 1.8c-1.8 0-3.7-.5-4.9-1.2c0 0 .7-2 .7-2c1 .6 2.5 1.1 4.3 1.1c2.7 0 4.6-1.4 4.6-5.1c.04.03 0-1.6 0-1.6c0 0-.02.01 0 0c-.8 1.4-2.4 2.4-4.6 2.4c-3.6 0-6.2-3-6.2-7c0-5 3.2-7.7 6.5-7.7c2.5 0 3.9 1.3 4.5 2.5c.05-.03.1 0 .1 0l.1-2.2c0 0 2.34-.02 2.3 0zm-2.7 5.7c0-.4 0-.8-.1-1.2c-.5-1.5-1.8-2.8-3.7-2.8c-2.6 0-4.4 2.2-4.4 5.5c0 2.9 1.5 5.2 4.3 5.2c1.7 0 3.1-1 3.7-2.7c.1-.4.2-.9.2-1.4c0 0 0-2.6 0-2.6zm11.3-1.8c0-1.5 0-2.7-.1-3.9c0-.02 2.3 0 2.3 0l.2 2.4c0 0 .05-.02 0 0c.8-1.4 2.4-2.7 4.8-2.7c2.1 0 5.2 1.2 5.2 6.1c-.02.03 0 8.7 0 8.7l-2.7 0c0 0 .04-8.37 0-8.4c0-2.3-.8-4.3-3.3-4.3c-1.8 0-3.1 1.3-3.6 2.7c-.1.4-.1.8-.1 1.3c-.04-.03 0 8.7 0 8.7l-2.7 0c0 0 .02-10.59 0-10.6zm22.6 3.8c.1 3.6 2.4 5.1 5 5.1c1.9 0 3-.4 4-.8c0 0 .5 1.9.5 1.9c-.9.4-2.5.9-4.8.9c-4.5 0-7.2-2.9-7.2-7.3c0-4.4 2.6-7.8 6.8-7.8c4.8 0 6 4.1 6 6.8c0 .5 0 1-.1 1.2c0 0-10.2 0-10.2 0zm7.8-1.9c0-1.6-.7-4.3-3.7-4.3c-2.7 0-3.8 2.5-4 4.3c0 0 7.7 0 7.7 0zm13.5-10l0 4.2l3.8 0l0 2l-3.8 0c0 0-.02 7.82 0 7.8c0 1.8.5 2.8 2 2.8c.6 0 1.2 0 1.5-.1c0 0 .1 1.9.1 1.9c-.5.2-1.3.4-2.3.4c-1.3 0-2.3-.4-2.9-1.1c-.7-.8-1-2.1-1-3.8c0 .01 0-7.9 0-7.9l-2.3 0l0-2l2.3 0l0-3.5l2.6-.7zm14.4 0l0 4.2l3.8 0l0 2l-3.8 0c0 0 0 7.82 0 7.8c0 1.8.5 2.8 2 2.8c.7 0 1.2 0 1.5-.1c0 0 .1 1.9.1 1.9c-.5.2-1.3.4-2.3.4c-1.2 0-2.2-.4-2.9-1.1c-.7-.8-1-2.1-1-3.8c.02.01 0-7.9 0-7.9l-2.2 0l0-2l2.2 0l0-3.5l2.6-.7zm19.3 18.7l-.2-1.8c0 0-.11-.03-.1 0c-.8 1.1-2.4 2.1-4.4 2.1c-3 0-4.5-2-4.5-4.1c0-3.5 3.1-5.5 8.7-5.4c0 0 0-.3 0-.3c0-1.2-.3-3.4-3.3-3.4c-1.3 0-2.7.4-3.7 1.1c0 0-.6-1.8-.6-1.8c1.2-.7 2.9-1.2 4.7-1.2c4.5 0 5.6 3 5.6 5.9c0 0 0 5.4 0 5.4c0 1.3 0 2.5.2 3.5c-.01 0-2.4 0-2.4 0zm-.4-7.4c-2.9-.1-6.1.4-6.1 3.3c0 1.7 1.1 2.5 2.4 2.5c1.9 0 3.1-1.2 3.6-2.4c0-.3.1-.6.1-.9c0 0 0-2.5 0-2.5zm12.5-7.1c0 0 2.11 3.1 2.1 3.1c.6.8 1 1.6 1.5 2.4c0 0 .1 0 .1 0c.5-.9.9-1.6 1.4-2.4c.01-.03 2.1-3.1 2.1-3.1l2.8 0l-4.9 7l5.1 7.5l-3 0c0 0-2.18-3.27-2.2-3.3c-.5-.8-1-1.6-1.5-2.5c0 0-.1 0-.1 0c-.5.9-1 1.7-1.5 2.5c-.03.03-2.1 3.3-2.1 3.3l-2.9 0l5.1-7.4l-4.9-7.1l2.9 0zm20.8-4.2l0 4.2l3.8 0l0 2l-3.8 0c0 0-.03 7.82 0 7.8c0 1.8.5 2.8 2 2.8c.6 0 1.2 0 1.5-.1c0 0 .1 1.9.1 1.9c-.5.2-1.3.4-2.3.4c-1.3 0-2.3-.4-2.9-1.1c-.7-.8-1-2.1-1-3.8c-.01.01 0-7.9 0-7.9l-2.3 0l0-2l2.3 0l0-3.5l2.6-.7zm12.5 11.9c.1 3.6 2.4 5.1 5 5.1c1.9 0 3-.4 4-.8c0 0 .5 1.9.5 1.9c-1 .4-2.6.9-4.9.9c-4.4 0-7.1-2.9-7.1-7.3c0-4.4 2.6-7.8 6.8-7.8c4.7 0 6 4.1 6 6.8c0 .5-.1 1-.1 1.2c0 0-10.2 0-10.2 0zm7.8-1.9c0-1.6-.7-4.3-3.7-4.3c-2.7 0-3.8 2.5-4.1 4.3c0 0 7.8 0 7.8 0zm20.6 8.2c-.7.3-2.2.8-4.1.8c-4.4 0-7.3-3-7.3-7.4c0-4.5 3.1-7.7 7.8-7.7c1.6 0 3 .4 3.7.7c0 0-.6 2.1-.6 2.1c-.6-.4-1.6-.7-3.1-.7c-3.3 0-5.1 2.4-5.1 5.5c0 3.3 2.2 5.4 5 5.4c1.5 0 2.5-.4 3.3-.7c0 0 .4 2 .4 2zm7.6-20.8l2.7 0l0 9.1c0 0 .01-.04 0 0c.4-.8 1.1-1.4 1.9-1.9c.8-.4 1.7-.7 2.7-.7c2 0 5.1 1.2 5.1 6.2c-.03-.04 0 8.6 0 8.6l-2.7 0c0 0 .03-8.34 0-8.3c0-2.4-.8-4.4-3.3-4.4c-1.7 0-3.1 1.2-3.6 2.7c-.1.3-.1.7-.1 1.2c-.05.04 0 8.8 0 8.8l-2.7 0l0-21.3zm20.5 19.7c0-1.1.8-1.8 1.8-1.8c1.1 0 1.8.7 1.8 1.8c0 1.1-.7 1.9-1.8 1.9c-1 0-1.8-.8-1.8-1.9zm21.7 1.1c-.7.3-2.2.8-4.1.8c-4.4 0-7.3-3-7.3-7.4c0-4.5 3.1-7.7 7.8-7.7c1.6 0 3 .4 3.7.7c0 0-.6 2.1-.6 2.1c-.6-.4-1.6-.7-3.1-.7c-3.3 0-5.1 2.4-5.1 5.5c0 3.3 2.2 5.4 5 5.4c1.5 0 2.5-.4 3.3-.7c0 0 .4 2 .4 2zm20.6-6.9c0 5.4-3.7 7.7-7.3 7.7c-3.9 0-6.9-2.8-6.9-7.4c0-4.9 3.2-7.7 7.2-7.7c4.2 0 7 3 7 7.4zm-11.5.2c0 3.2 1.8 5.6 4.4 5.6c2.5 0 4.4-2.4 4.4-5.7c0-2.4-1.3-5.6-4.4-5.6c-3.1 0-4.4 2.9-4.4 5.7zm19.3-3.4c0-1.5 0-2.7-.1-3.9c-.02-.02 2.3 0 2.3 0l.1 2.3c0 0 .1.02.1 0c.8-1.4 2.2-2.6 4.6-2.6c1.9 0 3.4 1.2 4.1 2.9c0 0 0 0 0 0c.5-.8 1.1-1.5 1.7-1.9c.8-.7 1.8-1 3.2-1c1.9 0 4.7 1.2 4.7 6.2c.03.05 0 8.6 0 8.6l-2.5 0c0 0-.05-8.22 0-8.2c0-2.8-1.1-4.5-3.2-4.5c-1.5 0-2.7 1.1-3.1 2.4c-.1.4-.2.9-.2 1.3c-.03.03 0 9 0 9l-2.6 0c0 0-.01-8.7 0-8.7c0-2.3-1-4-3-4c-1.7 0-2.9 1.3-3.3 2.6c-.2.4-.2.9-.2 1.3c-.02.04 0 8.8 0 8.8l-2.6 0c0 0 0-10.59 0-10.6z" stroke="none" fill="#fff"/><a xlink:href="http://www.cygnettaxtech.com" xlink:show="new" xlink:title="www.cygnettaxtech.com"><rect style="fill:transparent;" x="92" y="0" width="401" height="29"/></a></g></svg>