<?xml version="1.0" encoding="UTF-8"?>
<svg xmlns="http://www.w3.org/2000/svg" xmlns:xlink="http://www.w3.org/1999/xlink" id="Group_823" data-name="Group 823" width="47.97" height="48" viewBox="0 0 47.97 48">
  <defs>
    <clipPath id="clip-path">
      <rect id="Rectangle_266" data-name="Rectangle 266" width="47.97" height="48" fill="#fff"></rect>
    </clipPath>
  </defs>
  <g id="Group_690" data-name="Group 690" clip-path="url(#clip-path)">
    <path id="Path_499" data-name="Path 499" d="M29.136,27.323a1.317,1.317,0,0,0-1.863,0h0l-4.785,4.785a.262.262,0,0,1-.334.032,36.489,36.489,0,0,1-9.6-9.6.264.264,0,0,1,.031-.336l4.784-4.784a1.318,1.318,0,0,0,0-1.865L8.8,6.988a1.319,1.319,0,0,0-1.864,0L1.511,12.412a5.19,5.19,0,0,0-1.44,4.513A33.845,33.845,0,0,0,9.824,34.867a33.974,33.974,0,0,0,17.868,9.759,5.2,5.2,0,0,0,4.534-1.437l5.456-5.456a1.319,1.319,0,0,0,0-1.864Zm1.436,14.211a2.837,2.837,0,0,1-2.487.785,31.615,31.615,0,0,1-16.607-9.106,31.485,31.485,0,0,1-9.1-16.669,2.848,2.848,0,0,1,.786-2.478l4.7-4.7,7.124,7.123-4.064,4.063a2.608,2.608,0,0,0-.313,3.3A38.9,38.9,0,0,0,20.838,34.076a2.608,2.608,0,0,0,3.3-.313L28.2,29.7l7.1,7.1Z" transform="translate(0 3.301)" fill="#fff"></path>
    <path id="Path_500" data-name="Path 500" d="M38.055,5.933a20.254,20.254,0,0,0-28.646,0Q8.8,6.545,8.237,7.209a1.17,1.17,0,1,0,1.789,1.507A17.917,17.917,0,1,1,34.947,34.229a1.169,1.169,0,0,0,1.456,1.83l.009-.006a20.252,20.252,0,0,0,1.642-30.12Z" transform="translate(3.981 0)" fill="#fff"></path>
    <path id="Path_501" data-name="Path 501" d="M18.771,11.78a.77.77,0,0,0,.7.445h3.744v1.322a.77.77,0,0,0,1.541,0V12.225h.354a.77.77,0,0,0,0-1.541h-.354V6.064a.771.771,0,0,0-1.361-.495L18.879,10.96a.77.77,0,0,0-.108.819m4.442-3.6v2.5H21.118Zm3.9,16.354,4.034-6.3h-2.97a.77.77,0,0,1,0-1.541H32.55a.771.771,0,0,1,.648,1.187l-4.793,7.482a.77.77,0,1,1-1.3-.828Zm4.03-14.148a.771.771,0,0,1,0,1.089L19.79,22.828A.77.77,0,0,1,18.7,21.739l11.35-11.35A.771.771,0,0,1,31.14,10.389Zm-13.5-1.613a1.4,1.4,0,0,0-.367-1.6,1.813,1.813,0,0,0-1.86-.156A1.1,1.1,0,0,0,14.855,8.2a.77.77,0,0,1-1.533.147,2.613,2.613,0,0,1,1.35-2.673,3.36,3.36,0,0,1,3.552.3,2.921,2.921,0,0,1,.9,3.212A5,5,0,0,1,17.1,11.454a14.157,14.157,0,0,0-1.539,1.323h3.191a.77.77,0,0,1,0,1.541H14.067a.769.769,0,0,1-.693-1.107,8.954,8.954,0,0,1,2.778-2.97c.678-.53,1.377-1.076,1.483-1.464" transform="translate(6.648 2.648)" fill="#fff"></path>
  </g>
</svg>
