<?xml version="1.0" encoding="UTF-8"?>
<svg xmlns="http://www.w3.org/2000/svg" xmlns:xlink="http://www.w3.org/1999/xlink" id="Group_4521" data-name="Group 4521" width="48" height="48" viewBox="0 0 48 48">
  <defs>
    <clipPath id="clip-path">
      <rect id="Rectangle_522" data-name="Rectangle 522" width="48" height="48" fill="#fff"></rect>
    </clipPath>
  </defs>
  <g id="Group_4520" data-name="Group 4520" clip-path="url(#clip-path)">
    <path id="Path_5803" data-name="Path 5803" d="M24,30.194A6.194,6.194,0,1,0,17.806,24,6.2,6.2,0,0,0,24,30.194m0-10.839A4.645,4.645,0,1,1,19.355,24,4.649,4.649,0,0,1,24,19.355" fill="#fff"></path>
    <path id="Path_5804" data-name="Path 5804" d="M24,27.1A3.1,3.1,0,1,0,20.9,24,3.1,3.1,0,0,0,24,27.1m0-4.645A1.549,1.549,0,1,1,22.452,24,1.549,1.549,0,0,1,24,22.452" fill="#fff"></path>
    <path id="Path_5805" data-name="Path 5805" d="M18.914,33.146l1.353-.647c.121.053.242.1.365.151l.5,1.414H26.87l.5-1.414c.122-.048.244-.1.365-.151l1.353.647,4.06-4.06L32.5,27.733c.053-.121.1-.243.152-.365l1.413-.5V21.13l-1.414-.5c-.048-.121-.1-.243-.152-.364l.647-1.354-4.059-4.06-1.354.648c-.12-.054-.242-.1-.364-.152l-.5-1.413H21.13l-.5,1.414c-.122.048-.243.1-.365.151l-1.353-.647-4.06,4.06.647,1.353c-.053.121-.1.243-.151.365l-1.413.5v5.74l1.413.5c.048.121.1.243.152.364l-.647,1.354Zm-3.43-7.372v-3.55l1.078-.38.121-.354a7.588,7.588,0,0,1,.37-.888l.165-.337-.494-1.033,2.51-2.51,1.033.494.337-.165a7.588,7.588,0,0,1,.888-.37l.354-.121.38-1.077h3.549l.38,1.078.355.122a7.489,7.489,0,0,1,.888.37l.337.165,1.033-.494,2.51,2.51-.494,1.032.165.337a7.916,7.916,0,0,1,.37.888l.121.355,1.076.379v3.55l-1.077.38-.122.354a7.42,7.42,0,0,1-.37.888l-.165.337.494,1.033-2.51,2.51-1.033-.494-.336.165a7.734,7.734,0,0,1-.888.37l-.355.122-.379,1.076h-3.55l-.38-1.078-.355-.122a7.559,7.559,0,0,1-.888-.37l-.337-.165-1.032.494-2.51-2.509.494-1.033-.165-.337a7.734,7.734,0,0,1-.37-.888l-.122-.355Z" fill="#fff"></path>
    <path id="Path_5806" data-name="Path 5806" d="M10.065,35.612H2.323A2.326,2.326,0,0,0,0,37.935v7.742A2.326,2.326,0,0,0,2.323,48h7.742a2.325,2.325,0,0,0,2.322-2.323V37.935a2.326,2.326,0,0,0-2.322-2.323m.774,10.065a.775.775,0,0,1-.774.774H2.323a.775.775,0,0,1-.774-.774V37.935a.775.775,0,0,1,.774-.774h7.742a.775.775,0,0,1,.774.774Z" fill="#fff"></path>
    <path id="Path_5807" data-name="Path 5807" d="M45.678,17.806H37.936a2.326,2.326,0,0,0-2.323,2.323v7.742a2.326,2.326,0,0,0,2.323,2.323h7.742A2.325,2.325,0,0,0,48,27.871V20.129a2.326,2.326,0,0,0-2.322-2.323m.774,10.065a.775.775,0,0,1-.774.774H37.936a.775.775,0,0,1-.774-.774V20.129a.775.775,0,0,1,.774-.774h7.742a.775.775,0,0,1,.774.774Z" fill="#fff"></path>
    <path id="Path_5808" data-name="Path 5808" d="M6.967,12.388h7.742a2.326,2.326,0,0,0,2.323-2.323V2.323A2.326,2.326,0,0,0,14.709,0H6.967A2.326,2.326,0,0,0,4.645,2.323v7.742a2.327,2.327,0,0,0,2.322,2.323M6.194,2.323a.774.774,0,0,1,.773-.774h7.742a.775.775,0,0,1,.774.774v7.742a.775.775,0,0,1-.774.774H6.967a.774.774,0,0,1-.773-.774Z" fill="#fff"></path>
    <path id="Path_5809" data-name="Path 5809" d="M4.645,43.034l-1-1-1.095,1.1,2.1,2.1,5.193-5.192-1.1-1.095Z" fill="#fff"></path>
    <path id="Path_5810" data-name="Path 5810" d="M14.483,4.418l-1.1-1.095-4.1,4.1-1-1L7.195,7.515l2.1,2.1Z" fill="#fff"></path>
    <path id="Path_5811" data-name="Path 5811" d="M40.258,25.228l-1-1-1.095,1.1,2.1,2.095,5.193-5.192-1.095-1.1Z" fill="#fff"></path>
    <path id="Path_5812" data-name="Path 5812" d="M35.425,34.088l.375,1.5,4.4-1.1a19.286,19.286,0,0,1-24.314,7.088l-.649,1.405A20.831,20.831,0,0,0,41.317,35.61l.5,3.97,1.536-.192-.883-7.061Z" fill="#fff"></path>
    <path id="Path_5813" data-name="Path 5813" d="M8.495,27.276l-1.506-.36-.944,3.953A18.287,18.287,0,0,1,4.645,24a19.2,19.2,0,0,1,1.806-8.177l-1.4-.655A20.735,20.735,0,0,0,3.1,24a19.825,19.825,0,0,0,1.5,7.416l-3.447-1.9L.4,30.871,6.793,34.4Z" fill="#fff"></path>
    <path id="Path_5814" data-name="Path 5814" d="M25.2,6.324,22.686,4.646H24A19.311,19.311,0,0,1,41.175,15.067l1.372-.716A20.85,20.85,0,0,0,24,3.1H22.686L25.2,1.419,24.345.13,18.733,3.871l5.612,3.741Z" fill="#fff"></path>
  </g>
</svg>
