<?xml version="1.0" encoding="UTF-8"?>
<svg xmlns="http://www.w3.org/2000/svg" xmlns:xlink="http://www.w3.org/1999/xlink" id="Group_4519" data-name="Group 4519" width="47.992" height="48" viewBox="0 0 47.992 48">
  <defs>
    <clipPath id="clip-path">
      <rect id="Rectangle_521" data-name="Rectangle 521" width="47.992" height="48" fill="#fff"></rect>
    </clipPath>
  </defs>
  <g id="Group_4518" data-name="Group 4518" clip-path="url(#clip-path)">
    <path id="Path_5792" data-name="Path 5792" d="M37.831,25.287V22.72a1.975,1.975,0,0,0-1.975-1.976.449.449,0,0,1-.438-.307,12.043,12.043,0,0,0-.823-1.983.449.449,0,0,1,.093-.53,1.977,1.977,0,0,0,0-2.79L32.874,13.32a1.985,1.985,0,0,0-2.8,0,.449.449,0,0,1-.53.092,12.744,12.744,0,0,0-1.983-.823.459.459,0,0,1-.308-.438,1.975,1.975,0,0,0-1.975-1.975H22.713a1.98,1.98,0,0,0-1.976,2,.422.422,0,0,1-.276.408,12.041,12.041,0,0,0-2.014.83.476.476,0,0,1-.531-.092,1.975,1.975,0,0,0-2.79,0l-1.814,1.814a1.986,1.986,0,0,0,0,2.8.451.451,0,0,1,.093.531,12.608,12.608,0,0,0-.823,1.983.46.46,0,0,1-.438.307,1.975,1.975,0,0,0-1.975,1.976V25.3a1.975,1.975,0,0,0,1.975,1.975.451.451,0,0,1,.438.307A12.007,12.007,0,0,0,13.4,29.56a.451.451,0,0,1-.093.531,1.977,1.977,0,0,0,0,2.79l1.814,1.814a1.987,1.987,0,0,0,2.8,0,.448.448,0,0,1,.53-.092,12.739,12.739,0,0,0,1.983.822.46.46,0,0,1,.308.438,1.974,1.974,0,0,0,1.975,1.975h2.567a1.974,1.974,0,0,0,1.976-1.975.451.451,0,0,1,.307-.438,12.127,12.127,0,0,0,1.983-.822.475.475,0,0,1,.531.092,1.977,1.977,0,0,0,2.79,0l1.814-1.814a1.987,1.987,0,0,0,0-2.8.449.449,0,0,1-.093-.53,11.992,11.992,0,0,0,.83-2.014.433.433,0,0,1,.431-.277A1.975,1.975,0,0,0,37.831,25.287Zm-1.537,0a.448.448,0,0,1-.461.438,1.972,1.972,0,0,0-1.876,1.361,10.49,10.49,0,0,1-.722,1.752,1.98,1.98,0,0,0,.369,2.337.445.445,0,0,1,0,.622L31.79,33.611a.446.446,0,0,1-.623,0,1.987,1.987,0,0,0-2.336-.369,10.238,10.238,0,0,1-1.73.715,1.976,1.976,0,0,0-1.383,1.906.443.443,0,0,1-.438.438H22.713a.443.443,0,0,1-.439-.438,1.97,1.97,0,0,0-1.383-1.906,10.8,10.8,0,0,1-1.729-.715,1.958,1.958,0,0,0-.915-.223,2.043,2.043,0,0,0-1.422.592.446.446,0,0,1-.623,0L14.388,31.8a.445.445,0,0,1,0-.622,1.986,1.986,0,0,0,.369-2.337,10.224,10.224,0,0,1-.714-1.729,1.979,1.979,0,0,0-1.907-1.384.443.443,0,0,1-.438-.438V22.72a.443.443,0,0,1,.438-.438A1.972,1.972,0,0,0,14.043,20.9a10.889,10.889,0,0,1,.714-1.729,1.977,1.977,0,0,0-.369-2.337.445.445,0,0,1,0-.622L16.2,14.4a.446.446,0,0,1,.623,0,1.988,1.988,0,0,0,2.337.369,10.58,10.58,0,0,1,1.752-.723,1.971,1.971,0,0,0,1.36-1.9.443.443,0,0,1,.439-.438H25.28a.442.442,0,0,1,.438.438A1.97,1.97,0,0,0,27.1,14.05a10.85,10.85,0,0,1,1.73.715,1.979,1.979,0,0,0,2.336-.369.446.446,0,0,1,.623,0L33.6,16.21a.445.445,0,0,1,0,.622,1.987,1.987,0,0,0-.369,2.337A10.277,10.277,0,0,1,33.95,20.9a1.977,1.977,0,0,0,1.906,1.384.443.443,0,0,1,.438.438Z" fill="#fff"></path>
    <path id="Path_5793" data-name="Path 5793" d="M24,15.549A8.455,8.455,0,1,0,32.451,24,8.46,8.46,0,0,0,24,15.549m0,15.372A6.917,6.917,0,1,1,30.914,24,6.929,6.929,0,0,1,24,30.921" fill="#fff"></path>
    <path id="Path_5794" data-name="Path 5794" d="M27.455,23.336l-5.38-3.075a.769.769,0,0,0-1.153.669v6.149a.773.773,0,0,0,1.153.668l5.38-3.074a.774.774,0,0,0,0-1.337Zm-5,2.413v-3.5L25.518,24l-3.059,1.753Z" fill="#fff"></path>
    <path id="Path_5795" data-name="Path 5795" d="M38.123,5.526a3.076,3.076,0,1,0,4.35,0,3.081,3.081,0,0,0-4.35,0M41.382,6.61A1.549,1.549,0,1,1,40.3,6.164,1.511,1.511,0,0,1,41.382,6.61Z" fill="#fff"></path>
    <path id="Path_5796" data-name="Path 5796" d="M38.123,38.131a3.076,3.076,0,1,0,4.35,0,3.08,3.08,0,0,0-4.35,0m3.259,3.259a1.534,1.534,0,1,1,0-2.175A1.539,1.539,0,0,1,41.382,41.39Z" fill="#fff"></path>
    <path id="Path_5797" data-name="Path 5797" d="M5.519,38.131a3.076,3.076,0,1,0,4.35,0,3.08,3.08,0,0,0-4.35,0M8.778,41.39a1.538,1.538,0,1,1-1.091-2.621,1.575,1.575,0,0,1,1.091.446,1.539,1.539,0,0,1,0,2.175" fill="#fff"></path>
    <path id="Path_5798" data-name="Path 5798" d="M5.519,5.526a3.076,3.076,0,1,0,4.35,0,3.08,3.08,0,0,0-4.35,0M8.778,8.785a1.538,1.538,0,1,1,0-2.175,1.539,1.539,0,0,1,0,2.175" fill="#fff"></path>
    <path id="Path_5799" data-name="Path 5799" d="M3.482,15.319l.307,1.468L5.3,16.472,4.5,12.713a.747.747,0,0,0-.43-.538.788.788,0,0,0-.684.016L0,14,.723,15.35,2.114,14.6A23.871,23.871,0,0,0,3.267,35.749L4.6,35A22.363,22.363,0,0,1,3.482,15.319Z" fill="#fff"></path>
    <path id="Path_5800" data-name="Path 5800" d="M15.311,44.518l1.468-.307L16.464,42.7,12.7,43.5a.747.747,0,0,0-.538.43.788.788,0,0,0,.016.684L14,48l1.352-.723-.737-1.383a23.848,23.848,0,0,0,21.136-1.161L34.995,43.4a22.361,22.361,0,0,1-19.676,1.122Z" fill="#fff"></path>
    <path id="Path_5801" data-name="Path 5801" d="M31.529,5.3,35.288,4.5a.747.747,0,0,0,.538-.43.791.791,0,0,0-.016-.684L34,0,32.644.723l.745,1.391A23.881,23.881,0,0,0,12.252,3.275l.753,1.337A22.357,22.357,0,0,1,32.682,3.49L31.214,3.8,31.529,5.3Z" fill="#fff"></path>
    <path id="Path_5802" data-name="Path 5802" d="M47.27,32.651l-1.391.746A23.912,23.912,0,0,0,44.726,12.26l-1.338.753a22.358,22.358,0,0,1,1.123,19.676L44.2,31.221l-1.506.316.791,3.758a.75.75,0,0,0,.431.538.788.788,0,0,0,.323.069.757.757,0,0,0,.361-.092L47.992,34l-.722-1.353Z" fill="#fff"></path>
  </g>
</svg>
