<?xml version="1.0" encoding="UTF-8"?>
<svg xmlns="http://www.w3.org/2000/svg" xmlns:xlink="http://www.w3.org/1999/xlink" id="Group_4517" data-name="Group 4517" width="42.462" height="48" viewBox="0 0 42.462 48">
  <defs>
    <clipPath id="clip-path">
      <rect id="Rectangle_520" data-name="Rectangle 520" width="42.462" height="48" fill="none"></rect>
    </clipPath>
  </defs>
  <g id="Group_4516" data-name="Group 4516" clip-path="url(#clip-path)">
    <path id="Path_5791" data-name="Path 5791" d="M24.23,27h-6V21h6Zm.563-7.125H17.669a.563.563,0,0,0-.562.563v7.125a.562.562,0,0,0,.562.562h7.124a.563.563,0,0,0,.562-.562V20.438a.562.562,0,0,0-.561-.562h0ZM10,29.972a.452.452,0,1,1,.451.452A.452.452,0,0,1,10,29.972M8.79,24.451A.451.451,0,1,1,9.241,24a.45.45,0,0,1-.451.451M10,18.028a.452.452,0,1,1,.451.451A.452.452,0,0,1,10,18.028m5.554.291V29.681H26.912V18.319Zm-.291-4.652a.452.452,0,1,1,.451-.452.452.452,0,0,1-.451.452m5.972-2.56a.452.452,0,1,1-.452.452.452.452,0,0,1,.452-.452M27.2,12.764a.452.452,0,1,1-.452.451.451.451,0,0,1,.452-.451m4.811,4.812a.452.452,0,1,1-.451.452h0a.451.451,0,0,1,.451-.452m1.658,5.973a.451.451,0,1,1-.451.451h0a.452.452,0,0,1,.451-.451m-1.206,6.423a.452.452,0,1,1-.452-.451.452.452,0,0,1,.452.451M27.2,34.333a.452.452,0,1,1-.452.452A.451.451,0,0,1,27.2,34.333Zm-5.972,2.561a.452.452,0,1,1,.452-.453.451.451,0,0,1-.452.453m-5.973-1.658a.452.452,0,1,1,.452-.451.452.452,0,0,1-.452.451m-3.235-5.264a1.578,1.578,0,0,0-.551-1.194l.545-1.521h2.407v2.986a.562.562,0,0,0,.561.563h2.989v2.408l-1.522.545a1.574,1.574,0,1,0,.381,1.059l1.651-.592a.806.806,0,0,0,.615-.771V30.806h1.569V34.97a1.578,1.578,0,1,0,1.125,0V30.806h1.569v2.649a.8.8,0,0,0,.615.771l1.651.592a1.581,1.581,0,1,0,.38-1.059l-1.521-.545V30.806h2.987a.562.562,0,0,0,.563-.56V27.257h2.407l.545,1.521a1.577,1.577,0,1,0,1.059-.38l-.592-1.651a.8.8,0,0,0-.772-.615H28.037V24.563H32.2a1.577,1.577,0,1,0,0-1.125H28.037v-1.57h2.648a.8.8,0,0,0,.771-.615l.593-1.651a1.579,1.579,0,1,0-1.059-.38l-.545,1.521H28.037V17.757a.56.56,0,0,0-.561-.563H24.488V14.786l1.521-.544a1.576,1.576,0,1,0-.38-1.058l-1.651.591a.8.8,0,0,0-.615.772v2.647H21.794V13.029a1.577,1.577,0,1,0-1.125,0v4.165H19.1V14.547a.8.8,0,0,0-.615-.772l-1.651-.591a1.579,1.579,0,1,0-.381,1.058l1.522.544v2.408H14.988a.561.561,0,0,0-.563.56v2.989H12.018l-.545-1.521a1.575,1.575,0,1,0-1.059.38l.591,1.651a.8.8,0,0,0,.771.615h2.649v1.57H10.261a1.574,1.574,0,1,0,0,1.125h4.164v1.569H11.777a.8.8,0,0,0-.772.615L10.414,28.4a1.576,1.576,0,1,0,1.61,1.574ZM1.13,9.381c-.109,14.53,2.211,31.685,20.1,37.465,17.889-5.78,20.21-22.935,20.1-37.465A23.952,23.952,0,0,1,30.316,7.8a24.006,24.006,0,0,1-9.085-6.374A24,24,0,0,1,12.147,7.8,23.967,23.967,0,0,1,1.13,9.381ZM9.763,41.42a28.352,28.352,0,0,0,11.3,6.553.574.574,0,0,0,.17.026.544.544,0,0,0,.17-.026A28.333,28.333,0,0,0,32.7,41.42a28.067,28.067,0,0,0,6.4-9.7c3.156-7.768,3.422-16.83,3.348-22.969a.565.565,0,0,0-.572-.556.546.546,0,0,0-.057,0A22.7,22.7,0,0,1,21.662.2a.562.562,0,0,0-.79-.071A.69.69,0,0,0,20.8.2,22.705,22.705,0,0,1,.639,8.2a.564.564,0,0,0-.625.493c0,.02,0,.04,0,.059-.074,6.139.193,15.2,3.349,22.969A28.053,28.053,0,0,0,9.763,41.42Z" fill="#fff" fill-rule="evenodd"></path>
  </g>
</svg>
