<?xml version="1.0" encoding="UTF-8"?>
<svg xmlns="http://www.w3.org/2000/svg" xmlns:xlink="http://www.w3.org/1999/xlink" id="Group_4527" data-name="Group 4527" width="48" height="48" viewBox="0 0 48 48">
  <defs>
    <clipPath id="clip-path">
      <rect id="Rectangle_538" data-name="Rectangle 538" width="48" height="48" fill="#fff"></rect>
    </clipPath>
  </defs>
  <g id="Group_4526" data-name="Group 4526" clip-path="url(#clip-path)">
    <path id="Path_5832" data-name="Path 5832" d="M47.306,29.71l-2-.467a13.662,13.662,0,0,0-.4-1.513l1.491-1.4a.8.8,0,0,0,.182-.913,16.042,16.042,0,0,0-1.594-2.753.8.8,0,0,0-.883-.3l-1.939.589a13.628,13.628,0,0,0-1.115-1.114l.59-1.939a.8.8,0,0,0-.3-.881q-.646-.467-1.335-.865V4a4,4,0,0,0-4-4H4A4.005,4.005,0,0,0,0,4V24.8a4,4,0,0,0,4,4h8.459L9.84,36H5.6a.8.8,0,0,0-.8.8,4,4,0,0,0,4,4h9.876c.117.177.222.362.346.534a.8.8,0,0,0,.882.3l1.939-.589a13.485,13.485,0,0,0,1.116,1.114L22.368,44.1a.8.8,0,0,0,.3.881,15.934,15.934,0,0,0,2.753,1.595.8.8,0,0,0,.914-.182l1.4-1.491a13.487,13.487,0,0,0,1.513.405l.468,2a.8.8,0,0,0,.7.615c.54.053,1.075.08,1.589.08s1.05-.027,1.59-.08a.8.8,0,0,0,.7-.614l.467-2a13.272,13.272,0,0,0,1.513-.4l1.4,1.491a.8.8,0,0,0,.914.182,15.984,15.984,0,0,0,2.752-1.6.8.8,0,0,0,.3-.882l-.589-1.94a13.789,13.789,0,0,0,1.115-1.114l1.939.59a.8.8,0,0,0,.882-.3,15.972,15.972,0,0,0,1.6-2.753.8.8,0,0,0-.183-.913l-1.49-1.4a13.62,13.62,0,0,0,.4-1.514l2-.467a.8.8,0,0,0,.614-.7C47.973,33.052,48,32.516,48,32s-.027-1.051-.081-1.59A.8.8,0,0,0,47.306,29.71ZM4,1.6H36A2.4,2.4,0,0,1,38.4,4V17.377a.8.8,0,0,0-.732.232l-1.4,1.491a13.217,13.217,0,0,0-1.513-.4l-.467-2a.8.8,0,0,0-.7-.614,15.791,15.791,0,0,0-3.18,0,.8.8,0,0,0-.7.614l-.467,2a13.289,13.289,0,0,0-1.514.4l-1.4-1.491a.8.8,0,0,0-.913-.182,15.946,15.946,0,0,0-2.752,1.595.8.8,0,0,0-.3.882l.274.9H6.4V11.2h8V9.6h-8V4.8H33.6v9.6h1.6V4a.8.8,0,0,0-.8-.8H5.6a.8.8,0,0,0-.8.8V20.8H1.6V4A2.4,2.4,0,0,1,4,1.6ZM22.4,22.4c-.185.186-.383.361-.557.557L20.01,22.4ZM1.6,24.8V22.4H19.367a.793.793,0,0,0-.345.266,16.037,16.037,0,0,0-1.595,2.753.8.8,0,0,0,.183.913l.926.868H4A2.4,2.4,0,0,1,1.6,24.8Zm12.56,4H18.8c-.036.148-.074.294-.1.443l-2,.467a.8.8,0,0,0-.615.7c-.053.539-.08,1.074-.08,1.59s.027,1.051.081,1.591a.8.8,0,0,0,.614.7l2,.467c.087.42.207.832.332,1.242H11.543ZM8.8,39.2a2.4,2.4,0,0,1-2.263-1.6H17.682l-.073.068a.8.8,0,0,0-.182.914c.095.21.213.412.318.618Zm37.573-6.334-1.942.454a.8.8,0,0,0-.607.648,11.961,11.961,0,0,1-.6,2.249.8.8,0,0,0,.2.865l1.445,1.354a14.211,14.211,0,0,1-.867,1.5l-1.88-.572a.8.8,0,0,0-.851.257,11.984,11.984,0,0,1-1.655,1.655.8.8,0,0,0-.257.851L39.932,44a14.706,14.706,0,0,1-1.5.867l-1.353-1.446a.8.8,0,0,0-.865-.2,11.946,11.946,0,0,1-2.25.6.8.8,0,0,0-.649.607l-.452,1.942a13.9,13.9,0,0,1-1.732,0l-.452-1.942a.8.8,0,0,0-.649-.607,12.043,12.043,0,0,1-2.25-.6.8.8,0,0,0-.865.2l-1.353,1.446a14.4,14.4,0,0,1-1.5-.867l.573-1.88a.8.8,0,0,0-.257-.851,12.1,12.1,0,0,1-1.655-1.655.8.8,0,0,0-.851-.257L20,39.932a14.322,14.322,0,0,1-.868-1.5l1.446-1.354a.8.8,0,0,0,.2-.865,12,12,0,0,1-.6-2.249.8.8,0,0,0-.607-.649l-1.942-.454c-.019-.293-.029-.582-.029-.865s.01-.572.027-.865l1.942-.454a.8.8,0,0,0,.607-.649,11.934,11.934,0,0,1,.6-2.248.8.8,0,0,0-.2-.866l-1.445-1.354a14.3,14.3,0,0,1,.866-1.5l1.881.571a.8.8,0,0,0,.85-.257,12.1,12.1,0,0,1,1.655-1.655.8.8,0,0,0,.257-.851L24.068,20a14.531,14.531,0,0,1,1.5-.868l1.354,1.446a.8.8,0,0,0,.865.2,11.938,11.938,0,0,1,2.249-.6.8.8,0,0,0,.649-.607l.453-1.942a13.886,13.886,0,0,1,1.731,0l.453,1.942a.8.8,0,0,0,.649.607,11.979,11.979,0,0,1,2.249.6.8.8,0,0,0,.865-.2l1.354-1.446a14.22,14.22,0,0,1,1.5.868l-.572,1.88a.8.8,0,0,0,.256.85,12.1,12.1,0,0,1,1.656,1.655.8.8,0,0,0,.85.257L44,24.067a14.493,14.493,0,0,1,.867,1.5l-1.446,1.354a.8.8,0,0,0-.2.865,12,12,0,0,1,.6,2.25.8.8,0,0,0,.607.648l1.941.454c.02.294.029.584.029.866S46.391,32.572,46.373,32.866Z" fill="#fff"></path>
    <path id="Path_5833" data-name="Path 5833" d="M37.6,32A5.6,5.6,0,1,0,32,37.6,5.607,5.607,0,0,0,37.6,32M32,36a4,4,0,1,1,4-4,4,4,0,0,1-4,4" fill="#fff"></path>
    <path id="Path_5834" data-name="Path 5834" d="M25.516,27.314l-1.3-.938a9.547,9.547,0,0,0-.881,1.478l1.442.692a8.059,8.059,0,0,1,.734-1.232" fill="#fff"></path>
    <path id="Path_5835" data-name="Path 5835" d="M31.617,24.01l-.075-1.6a9.674,9.674,0,0,0-1.7.233L30.2,24.2a8.1,8.1,0,0,1,1.421-.194" fill="#fff"></path>
    <path id="Path_5836" data-name="Path 5836" d="M37.961,24.474l-.995,1.253a8.043,8.043,0,0,1,1.041.989l1.2-1.058a9.753,9.753,0,0,0-1.246-1.184" fill="#fff"></path>
    <path id="Path_5837" data-name="Path 5837" d="M24.291,34.145l-1.542.426a9.431,9.431,0,0,0,.607,1.61l1.441-.7A7.861,7.861,0,0,1,24.291,34.145Z" fill="#fff"></path>
    <path id="Path_5838" data-name="Path 5838" d="M28.19,24.963l-.764-1.406A9.64,9.64,0,0,0,26,24.509l1,1.248A7.962,7.962,0,0,1,28.19,24.963Z" fill="#fff"></path>
    <path id="Path_5839" data-name="Path 5839" d="M39.873,33.429l1.575.284A9.674,9.674,0,0,0,41.6,32v-.034L40,32a8.079,8.079,0,0,1-.127,1.429" fill="#fff"></path>
    <path id="Path_5840" data-name="Path 5840" d="M32.367,39.992l.072,1.6a9.681,9.681,0,0,0,1.706-.23l-.356-1.56A8.079,8.079,0,0,1,32.367,39.992Z" fill="#fff"></path>
    <path id="Path_5841" data-name="Path 5841" d="M38.475,36.7l1.294.942a9.709,9.709,0,0,0,.883-1.477l-1.441-.695A8.132,8.132,0,0,1,38.475,36.7Z" fill="#fff"></path>
    <path id="Path_5842" data-name="Path 5842" d="M39.705,29.841l1.542-.428a9.306,9.306,0,0,0-.612-1.61l-1.437.7a7.844,7.844,0,0,1,.507,1.338" fill="#fff"></path>
    <path id="Path_5843" data-name="Path 5843" d="M35.8,39.044l.759,1.408a9.51,9.51,0,0,0,1.435-.95l-1-1.249A8.081,8.081,0,0,1,35.8,39.044Z" fill="#fff"></path>
    <path id="Path_5844" data-name="Path 5844" d="M28.236,40.834a9.554,9.554,0,0,0,1.639.53l.351-1.561a7.9,7.9,0,0,1-1.362-.441Z" fill="#fff"></path>
    <path id="Path_5845" data-name="Path 5845" d="M25.983,37.272l-1.2,1.054a9.642,9.642,0,0,0,1.245,1.188l1-1.252A7.9,7.9,0,0,1,25.983,37.272Z" fill="#fff"></path>
    <path id="Path_5846" data-name="Path 5846" d="M35.746,23.158a9.413,9.413,0,0,0-1.64-.526l-.35,1.56a7.85,7.85,0,0,1,1.363.439Z" fill="#fff"></path>
    <path id="Path_5847" data-name="Path 5847" d="M24.124,30.587l-1.575-.281A9.673,9.673,0,0,0,22.4,32v.017L24,32a8.113,8.113,0,0,1,.124-1.413" fill="#fff"></path>
    <path id="Path_5848" data-name="Path 5848" d="M28.566,7.434,27.435,8.565,29.269,10.4H19.2a4,4,0,0,0-4,4v4.8h1.6V14.4A2.4,2.4,0,0,1,19.2,12H29.269l-1.834,1.834,1.131,1.131,3.2-3.2a.8.8,0,0,0,0-1.131Z" fill="#fff"></path>
    <rect id="Rectangle_535" data-name="Rectangle 535" width="1.6" height="1.6" transform="translate(8 6.4)" fill="#fff"></rect>
    <rect id="Rectangle_536" data-name="Rectangle 536" width="1.6" height="1.6" transform="translate(11.2 6.4)" fill="#fff"></rect>
    <rect id="Rectangle_537" data-name="Rectangle 537" width="1.6" height="1.6" transform="translate(14.4 6.4)" fill="#fff"></rect>
  </g>
</svg>
