<?xml version="1.0" encoding="UTF-8"?>
<svg xmlns="http://www.w3.org/2000/svg" xmlns:xlink="http://www.w3.org/1999/xlink" id="Group_4529" data-name="Group 4529" width="42.641" height="46" viewBox="0 0 42.641 46">
  <defs>
    <clipPath id="clip-path">
      <rect id="Rectangle_539" data-name="Rectangle 539" width="42.641" height="46" fill="#fff"></rect>
    </clipPath>
  </defs>
  <g id="Group_4528" data-name="Group 4528" clip-path="url(#clip-path)">
    <path id="Path_5849" data-name="Path 5849" d="M27.545,30.436a27.114,27.114,0,0,0-4.784-.747c2.293-.877,3.97-3.589,3.97-6.793,0-3.555-2.133-5.763-5.567-5.763S15.6,19.341,15.6,22.9c0,3.2,1.668,5.9,3.954,6.787a25.332,25.332,0,0,0-4.775.755c-3.292.845-5.105,2.642-5.105,5.057v9.786a.718.718,0,0,0,.719.719H31.937a.718.718,0,0,0,.719-.719V35.495c0-2.41-1.863-4.254-5.111-5.059M17.035,22.9c0-2.749,1.505-4.326,4.129-4.326s4.129,1.577,4.129,4.326c0,3.118-1.852,5.653-4.129,5.653s-4.129-2.535-4.129-5.653M31.218,44.563H27.76V37.745a.719.719,0,1,0-1.437,0v6.818H16V37.745a.718.718,0,1,0-1.437,0v6.818H11.11V35.495c0-2.174,2.189-3.193,4.025-3.665a24.37,24.37,0,0,1,12.064,0c1.5.371,4.019,1.343,4.019,3.663Z" fill="#fff"></path>
    <path id="Path_5850" data-name="Path 5850" d="M13.508,6.671h0l4.156,3.007-1.595,4.876a.719.719,0,0,0,1.107.8l4.144-3.023,4.145,3.023a.718.718,0,0,0,1.106-.8L24.977,9.678l4.156-3.007a.719.719,0,0,0-.422-1.3h0l-5.13.009L22,.5a.719.719,0,0,0-1.368,0L19.06,5.38l-5.13-.01h0a.718.718,0,0,0-.421,1.3m6.074.147h0a.718.718,0,0,0,.684-.5L21.32,3.058,22.373,6.32a.719.719,0,0,0,.684.5h0l3.427-.007-2.777,2.01a.717.717,0,0,0-.261.806l1.065,3.257-2.769-2.02a.719.719,0,0,0-.847,0l-2.77,2.02,1.066-3.257a.719.719,0,0,0-.262-.806l-2.777-2.01Z" fill="#fff"></path>
    <path id="Path_5851" data-name="Path 5851" d="M42.606,15.3a.72.72,0,0,0-.684-.5h0l-4.1.008-1.258-3.9a.719.719,0,0,0-1.368,0l-1.259,3.9-4.1-.008h0a.718.718,0,0,0-.421,1.3l3.319,2.4L31.465,22.4a.719.719,0,0,0,1.107.8l3.31-2.414L39.191,23.2a.719.719,0,0,0,1.107-.8L39.025,18.5l3.319-2.4a.721.721,0,0,0,.262-.8m-4.849,2.349a.719.719,0,0,0-.262.806l.744,2.276-1.934-1.412a.719.719,0,0,0-.847,0l-1.935,1.412.745-2.276a.719.719,0,0,0-.262-.806l-1.94-1.4,2.394,0h0a.719.719,0,0,0,.684-.5l.735-2.279.736,2.279a.719.719,0,0,0,.684.5h0l2.4,0Z" fill="#fff"></path>
    <path id="Path_5852" data-name="Path 5852" d="M10.493,23.339a.719.719,0,0,0,.683-.942L9.9,18.5l3.319-2.4a.719.719,0,0,0-.421-1.3h0l-4.1.008-1.259-3.9a.718.718,0,0,0-1.367,0l-1.259,3.9L.72,14.8h0A.719.719,0,0,0,.3,16.1l3.319,2.4L2.343,22.4a.719.719,0,0,0,1.107.8l3.309-2.415,3.31,2.415a.718.718,0,0,0,.424.138m-3.31-4.023a.719.719,0,0,0-.847,0L4.4,20.727l.745-2.276a.718.718,0,0,0-.262-.805l-1.94-1.4,2.394,0h0a.719.719,0,0,0,.684-.5l.735-2.278.736,2.278a.719.719,0,0,0,.684.5h0l2.395,0-1.94,1.4a.718.718,0,0,0-.262.805l.744,2.276Z" fill="#fff"></path>
  </g>
</svg>
