<?xml version="1.0" encoding="UTF-8"?>
<svg xmlns="http://www.w3.org/2000/svg" xmlns:xlink="http://www.w3.org/1999/xlink" id="Group_927" data-name="Group 927" width="264" height="340.015" viewBox="0 0 264 340.015">
  <defs>
    <clipPath id="clip-path">
      <rect id="Rectangle_366" data-name="Rectangle 366" width="264" height="340.015" fill="none"></rect>
    </clipPath>
    <clipPath id="clip-path-3">
      <rect id="Rectangle_361" data-name="Rectangle 361" width="200.448" height="340.015" transform="translate(58.613)" fill="none"></rect>
    </clipPath>
    <clipPath id="clip-path-4">
      <rect id="Rectangle_364" data-name="Rectangle 364" width="165.318" height="138.853" transform="translate(63.914 104.96)" fill="none"></rect>
    </clipPath>
  </defs>
  <g id="Group_926" data-name="Group 926" clip-path="url(#clip-path)">
    <g id="Group_925" data-name="Group 925">
      <g id="Group_924" data-name="Group 924" clip-path="url(#clip-path)">
        <path id="Path_685" data-name="Path 685" d="M250.11,0H94.517A16.086,16.086,0,0,0,78.74,14.818L58.645,325.2A13.758,13.758,0,0,0,72.5,340.015H228.1A16.087,16.087,0,0,0,243.874,325.2l20.1-310.379A13.758,13.758,0,0,0,250.11,0" fill="#099"></path>
        <g id="Group_920" data-name="Group 920" opacity="0.7">
          <g id="Group_919" data-name="Group 919">
            <g id="Group_918" data-name="Group 918" clip-path="url(#clip-path-3)">
              <path id="Path_686" data-name="Path 686" d="M245.17,0H94.517A16.088,16.088,0,0,0,78.739,14.818L58.644,325.2A13.759,13.759,0,0,0,72.5,340.015H223.156A16.087,16.087,0,0,0,238.934,325.2L259.029,14.818A13.758,13.758,0,0,0,245.17,0" fill="#fff"></path>
            </g>
          </g>
        </g>
        <path id="Path_687" data-name="Path 687" d="M232.469,317.082H66.748a4.531,4.531,0,0,1-4.521-4.824L80.41,31.405a4.531,4.531,0,0,1,4.521-4.238H250.652a4.531,4.531,0,0,1,4.522,4.824L236.99,312.844a4.53,4.53,0,0,1-4.521,4.238" fill="#fff"></path>
        <path id="Path_688" data-name="Path 688" d="M195.641,17.974H135.407a2.223,2.223,0,0,1-2.246-2.4,2.6,2.6,0,0,1,2.557-2.4h60.234a2.223,2.223,0,0,1,2.245,2.4,2.6,2.6,0,0,1-2.556,2.4" fill="#fff"></path>
        <path id="Path_689" data-name="Path 689" d="M148.628,328.882a6.283,6.283,0,0,1-6.205,5.9,5.548,5.548,0,0,1-5.6-5.9,6.284,6.284,0,0,1,6.205-5.9,5.546,5.546,0,0,1,5.6,5.9" fill="#fff"></path>
        <rect id="Rectangle_362" data-name="Rectangle 362" width="7.812" height="1.324" transform="matrix(0.064, -0.998, 0.998, 0.064, 257.015, 76.631)" fill="#fff"></rect>
        <rect id="Rectangle_363" data-name="Rectangle 363" width="25.669" height="1.324" transform="matrix(0.064, -0.998, 0.998, 0.064, 257.913, 62.82)" fill="#fff"></rect>
        <g id="Group_923" data-name="Group 923" opacity="0.2">
          <g id="Group_922" data-name="Group 922">
            <g id="Group_921" data-name="Group 921" clip-path="url(#clip-path-4)">
              <path id="Path_690" data-name="Path 690" d="M214.414,104.96H72.9l-8.99,138.853h150.5a14.861,14.861,0,0,0,14.818-14.818V119.778a14.861,14.861,0,0,0-14.818-14.818" fill="#099"></path>
            </g>
          </g>
        </g>
        <path id="Path_691" data-name="Path 691" d="M204.857,231.465H24.182a11.229,11.229,0,0,1-11.2-11.2V103.807a11.228,11.228,0,0,1,11.2-11.195H204.857a11.228,11.228,0,0,1,11.2,11.195V220.269a11.229,11.229,0,0,1-11.2,11.2" fill="#099"></path>
        <path id="Path_692" data-name="Path 692" d="M8.256,91.019a1.318,1.318,0,0,1-.936-.388L4.947,88.258a1.324,1.324,0,1,1,1.872-1.872L9.192,88.76a1.323,1.323,0,0,1-.936,2.259" fill="#099"></path>
        <path id="Path_693" data-name="Path 693" d="M4.679,99.324H1.324a1.323,1.323,0,1,1,0-2.647H4.679a1.323,1.323,0,1,1,0,2.647" fill="#099"></path>
        <path id="Path_694" data-name="Path 694" d="M16.679,87.439a1.323,1.323,0,0,1-1.318-1.229l-.239-3.347a1.323,1.323,0,1,1,2.639-.189L18,86.021a1.323,1.323,0,0,1-1.225,1.415l-.1,0" fill="#099"></path>
        <path id="Path_695" data-name="Path 695" d="M129.338,217.2l53.236,53.236V217.2Z" fill="#099"></path>
        <path id="Path_696" data-name="Path 696" d="M143.929,193.87l-2.578-11.242a20.284,20.284,0,0,1-.023-8.964l3.588-16.012a31.388,31.388,0,0,0-16.6-34.815,7.581,7.581,0,1,0-14.6-3.271,31.389,31.389,0,0,0-29.87,24.4l-3.587,16.012a20.275,20.275,0,0,1-3.845,8.1l-7.128,9.067A6.686,6.686,0,0,0,73.079,187.8l62.871,14.086a6.687,6.687,0,0,0,7.979-8.019" fill="#fff"></path>
        <path id="Path_697" data-name="Path 697" d="M96.448,197.341a2.976,2.976,0,0,0-3.571,3.422,10.875,10.875,0,0,0,19.638,4.4,2.976,2.976,0,0,0-1.769-4.618Z" fill="#fff"></path>
        <path id="Path_698" data-name="Path 698" d="M48.167,175.038a1.983,1.983,0,0,1-1.652-.883A42.454,42.454,0,0,1,58.25,115.268a1.985,1.985,0,0,1,2.205,3.3,38.488,38.488,0,0,0-10.639,53.38,1.986,1.986,0,0,1-1.649,3.088" fill="#fff"></path>
        <path id="Path_699" data-name="Path 699" d="M56.582,169.419a1.983,1.983,0,0,1-1.652-.883,32.339,32.339,0,0,1,8.939-44.853,1.986,1.986,0,1,1,2.206,3.3,28.367,28.367,0,0,0-7.844,39.346,1.986,1.986,0,0,1-1.649,3.088" fill="#fff"></path>
        <path id="Path_700" data-name="Path 700" d="M65,163.8a1.983,1.983,0,0,1-1.652-.883A22.221,22.221,0,0,1,69.487,132.1a1.986,1.986,0,0,1,2.205,3.3,18.253,18.253,0,0,0-5.045,25.313A1.986,1.986,0,0,1,65,163.8" fill="#fff"></path>
        <path id="Path_701" data-name="Path 701" d="M162.631,202.98a1.985,1.985,0,0,1-.912-3.75,38.484,38.484,0,0,0,16.542-51.855,1.985,1.985,0,1,1,3.528-1.821,42.458,42.458,0,0,1-18.248,57.205,1.988,1.988,0,0,1-.91.221" fill="#fff"></path>
        <path id="Path_702" data-name="Path 702" d="M157.989,193.991a1.986,1.986,0,0,1-.913-3.75,28.367,28.367,0,0,0,12.193-38.223A1.986,1.986,0,1,1,172.8,150.2a32.343,32.343,0,0,1-13.9,43.573,1.982,1.982,0,0,1-.91.221" fill="#fff"></path>
        <path id="Path_703" data-name="Path 703" d="M153.348,185a1.986,1.986,0,0,1-.913-3.75,18.248,18.248,0,0,0,7.845-24.589,1.986,1.986,0,1,1,3.529-1.823,22.25,22.25,0,0,1-9.551,29.941,1.982,1.982,0,0,1-.91.221" fill="#fff"></path>
      </g>
    </g>
  </g>
</svg>
