<?xml version="1.0" encoding="UTF-8"?>
<svg xmlns="http://www.w3.org/2000/svg" xmlns:xlink="http://www.w3.org/1999/xlink" id="Group_990" data-name="Group 990" width="264" height="402" viewBox="0 0 264 402">
  <defs>
    <clipPath id="clip-path">
      <rect id="Rectangle_416" data-name="Rectangle 416" width="264" height="402" fill="none"></rect>
    </clipPath>
  </defs>
  <g id="Group_989" data-name="Group 989" clip-path="url(#clip-path)">
    <path id="Path_877" data-name="Path 877" d="M245.936,393.445c-3.391,3.467-9.105,5.53-18.13,5.53h-9.09l-4.543,0h-4.545q-.111,1.054-.224,2.1c-.049.452-.1.9-.146,1.354H53.805c-.056-.449-.108-.9-.162-1.352-.084-.692-.166-1.389-.25-2.093H36.158c-.321,0-.638,0-.95-.008-8.45-.141-13.868-2.176-17.138-5.522-3.388-3.467-4.461-8.343-4.207-13.97s1.834-12,3.757-18.476,4.2-13.04,5.827-19.048c2.257-8.321,5.089-17.208,8.278-26.02s6.737-17.544,10.431-25.562a184.872,184.872,0,0,1,11.3-21.271,78.6,78.6,0,0,1,5.575-7.822,33.021,33.021,0,0,1,5.313-5.309v0c6.679-5.779,16.515-10.3,27.959-13.468q2.7-.749,5.511-1.4c.5-.116,1.011-.23,1.519-.339.229-.053.461-.1.7-.152.446-.1.9-.191,1.347-.278.309-.067.619-.127.931-.188q3.56-.7,7.235-1.244.467-.07.935-.136l1.19-.166c.793-.1,1.593-.207,2.394-.3.333-.042.671-.081,1.011-.119.063-.009.127-.017.19-.022q1.782-.2,3.584-.367c.017,0,.031,0,.045,0,.808-.071,1.618-.141,2.433-.2q.677-.054,1.358-.1c.362-.024.724-.049,1.083-.071.408-.028.818-.053,1.224-.075.756-.041,1.511-.08,2.267-.113h0q.414-.021.826-.033c.211-.012.418-.02.627-.025q1.261-.046,2.524-.072c.414-.008.825-.017,1.237-.022.429-.009.86-.011,1.289-.014s.858-.006,1.286-.006c.481,0,.959,0,1.44.006l.69.008c.539.006,1.078.014,1.618.028q.844.016,1.69.044.778.021,1.558.055.825.033,1.651.075c.256.011.511.025.767.041.072,0,.147.006.218.011h0c.46.025.922.053,1.382.083.543.036,1.088.072,1.629.114l.045,0c.362.028.72.056,1.082.086.222.017.44.036.658.055l.735.064c.215.019.428.038.644.061q1.181.111,2.354.24l.732.083c.342.039.683.08,1.022.121s.68.083,1.017.128q1.61.207,3.191.446c.468.072.931.144,1.393.221.153.022.308.047.459.075q.508.082,1.019.174c1.293.224,2.576.466,3.838.728a1.745,1.745,0,0,1,.18.039q.87.178,1.732.369a93.277,93.277,0,0,1,16.153,5.059,53.29,53.29,0,0,1,12.735,7.428v0c3.421,2.6,7.3,7.378,11.345,13.611a208.7,208.7,0,0,1,12.3,22.324c4.056,8.4,7.969,17.522,11.435,26.621s6.473,18.179,8.73,26.5c1.63,6.007,3.91,12.574,5.844,19.048s3.531,12.847,3.791,18.471-.807,10.5-4.2,13.967" transform="translate(0 -0.427)" fill="#099"></path>
    <rect id="Rectangle_415" data-name="Rectangle 415" width="264" height="3.453" transform="translate(0 398.547)" fill="#414042"></rect>
    <path id="Path_878" data-name="Path 878" d="M180.712,189.781a14.993,14.993,0,0,0,.345-4.952,9.476,9.476,0,0,0-1.233-3.811,8.3,8.3,0,0,0-2.5-2.646,10.048,10.048,0,0,0-3.464-1.46,7.083,7.083,0,0,0-3.844.241,10.21,10.21,0,0,0-3.587,2.194,15.05,15.05,0,0,0-2.936,3.788,19.248,19.248,0,0,0-2.322,10.362,15,15,0,0,0,1.039,4.676,10.174,10.174,0,0,0,2.309,3.511,7.081,7.081,0,0,0,3.376,1.853,5.854,5.854,0,0,0,3.932-.633,13.11,13.11,0,0,0,3.78-3.058,22.389,22.389,0,0,0,3.129-4.652,23.235,23.235,0,0,0,1.978-5.411" transform="translate(0 -0.319)" fill="#deb9a3"></path>
    <path id="Path_879" data-name="Path 879" d="M83.236,189.781a14.993,14.993,0,0,1-.345-4.952,9.507,9.507,0,0,1,1.233-3.811,8.3,8.3,0,0,1,2.5-2.646,10.057,10.057,0,0,1,3.464-1.46,7.083,7.083,0,0,1,3.844.241,10.21,10.21,0,0,1,3.587,2.194,15.024,15.024,0,0,1,2.935,3.788,19.237,19.237,0,0,1,2.323,10.362,15,15,0,0,1-1.039,4.676,10.174,10.174,0,0,1-2.309,3.511,7.073,7.073,0,0,1-3.375,1.853,5.853,5.853,0,0,1-3.932-.633,13.126,13.126,0,0,1-3.781-3.058,22.469,22.469,0,0,1-3.129-4.652,23.235,23.235,0,0,1-1.978-5.411" transform="translate(0 -0.319)" fill="#deb9a3"></path>
    <path id="Path_880" data-name="Path 880" d="M208.495,389.525a22.59,22.59,0,0,1-.282,2.54,7.3,7.3,0,0,1-.661,2.079,3.414,3.414,0,0,1-1.293,1.405,4.215,4.215,0,0,1-2.18.516H59.571a4.213,4.213,0,0,1-2.18-.516,3.423,3.423,0,0,1-1.294-1.405,7.33,7.33,0,0,1-.66-2.079,22.594,22.594,0,0,1-.282-2.54l-2.189-23.369-2.189-23.368L48.588,319.42,46.4,296.052a6.26,6.26,0,0,1,.35-2.54,6.03,6.03,0,0,1,3.269-3.485,6.28,6.28,0,0,1,2.516-.516H211.115a6.28,6.28,0,0,1,2.516.516,6.028,6.028,0,0,1,3.27,3.485,6.278,6.278,0,0,1,.35,2.54l-2.189,23.368-2.189,23.369-2.189,23.368Z" transform="translate(0 -0.522)" fill="#0f3764"></path>
    <path id="Path_881" data-name="Path 881" d="M211.078,392.542a6.741,6.741,0,0,1-.686,2.539,7.268,7.268,0,0,1-3.73,3.486,6.777,6.777,0,0,1-2.584.516H59.571a6.777,6.777,0,0,1-2.584-.516,7.268,7.268,0,0,1-3.73-3.486,6.741,6.741,0,0,1-.686-2.539l-1.543-23.369-1.543-23.368-1.543-23.369L46.4,299.069a6.241,6.241,0,0,1,.35-2.54,6.022,6.022,0,0,1,3.269-3.485,6.28,6.28,0,0,1,2.516-.516H211.115a6.28,6.28,0,0,1,2.516.516,6.022,6.022,0,0,1,3.269,3.485,6.258,6.258,0,0,1,.351,2.54l-1.543,23.368-1.544,23.369-1.543,23.368Z" transform="translate(0 -0.527)" fill="#ddd7eb"></path>
    <path id="Path_882" data-name="Path 882" d="M133.462,364.592l-.313-.671a26.216,26.216,0,0,1,5.316-1.677,18.29,18.29,0,0,1,5.926-.366l.162.023a24.355,24.355,0,0,1,2.514.427v.768c-.8-.2-1.861-.357-2.616-.463l-.164-.023a17.542,17.542,0,0,0-5.675.359,25.863,25.863,0,0,0-5.15,1.623" transform="translate(0 -0.652)" fill="#0d3862"></path>
    <path id="Path_883" data-name="Path 883" d="M147.071,340.919v2.755a17.22,17.22,0,0,0-2.584-.194,17.018,17.018,0,0,0-17.034,17,11.951,11.951,0,0,0,.246,2.893,14.243,14.243,0,0,1-.818-5.074,17.591,17.591,0,0,1,17.606-17.574,17.217,17.217,0,0,1,2.584.191" transform="translate(0 -0.614)" fill="#0d3862"></path>
    <path id="Path_884" data-name="Path 884" d="M147.071,340.919v2.755a17.062,17.062,0,0,0-16.374,3.707l.193-.243a11.986,11.986,0,0,1,2.14-2.181l.292-.246a17.568,17.568,0,0,1,11.165-3.984,17.217,17.217,0,0,1,2.584.191" transform="translate(0 -0.614)" fill="#34b4e1"></path>
    <path id="Path_885" data-name="Path 885" d="M132.073,340.058c-.1,3.82-3.266,5.026-4.687,8.693a15.98,15.98,0,0,0,.314,14.616c-3.991-4.831-4.681-11.73-1.32-16.8,1.5-2.583,3.633-4.62,3.769-6.83l0,0c.308-3.065-4.155-3.762-5.095-1.114-.3,2.147,1.342,4.512-1.431,5.653a2.9,2.9,0,0,1-1.748.158c2.306-1.19.313-3.738,1.1-5.6,1.366-4.857,9.051-3.859,9.1,1.223" transform="translate(0 -0.605)" fill="#0d3862"></path>
    <path id="Path_886" data-name="Path 886" d="M147.068,360.937c-8.073-1.68-15.6,3.216-23.554,3.642-9.3.272-5.125-6.168,1.275-3.675-7.606-.461-5.172,4.474,1.474,2.836,6.914-1.417,13.57-5.434,20.8-3.486Z" transform="translate(0 -0.649)" fill="#0d3862"></path>
    <path id="Path_887" data-name="Path 887" d="M131.974,278.455a53.514,53.514,0,0,0,15.413-2.134,36.871,36.871,0,0,0,12.6-6.475,29.84,29.84,0,0,0,8.5-10.926,36.929,36.929,0,0,0,3.12-15.488c0-.152,0-.3,0-.457s0-.306-.008-.46-.007-.307-.012-.462-.01-.308-.016-.463a130.759,130.759,0,0,0-19.037-3.366,169.113,169.113,0,0,0-20.46-.873,175.671,175.671,0,0,0-20.517,1.538,145.6,145.6,0,0,0-19.209,3.869l0,.17,0,.17c0,.056,0,.112,0,.168s0,.112,0,.168a36.929,36.929,0,0,0,3.12,15.488,29.841,29.841,0,0,0,8.5,10.926,36.871,36.871,0,0,0,12.6,6.475,53.514,53.514,0,0,0,15.413,2.134" transform="translate(0 -0.428)" fill="#fff3f3"></path>
    <path id="Path_888" data-name="Path 888" d="M131.974,272.781a49.332,49.332,0,0,0,13.316-1.7,31.527,31.527,0,0,0,10.874-5.306,24.545,24.545,0,0,0,7.332-9.2,31.663,31.663,0,0,0,2.688-13.4q0-.4-.007-.788t-.023-.784q-.015-.391-.037-.779c-.015-.26-.031-.518-.051-.776a141.592,141.592,0,0,0-16.584-2.376,171.226,171.226,0,0,0-17.463-.581c-5.874.1-11.755.491-17.5,1.165a155,155,0,0,0-16.7,2.859c-.009.171-.016.341-.023.512s-.011.342-.016.514-.008.342-.01.515,0,.344,0,.517a31.663,31.663,0,0,0,2.688,13.4,24.544,24.544,0,0,0,7.332,9.2,31.527,31.527,0,0,0,10.874,5.306,49.332,49.332,0,0,0,13.316,1.7" transform="translate(0 -0.427)" fill="#f3ccb3"></path>
    <path id="Path_889" data-name="Path 889" d="M151.071,263.2H112.877l.964-10.989.964-10.988.964-10.989.964-10.988h30.482l.964,10.988.964,10.989.964,10.988Z" transform="translate(0 -0.395)" fill="#f3ccb3"></path>
    <path id="Path_890" data-name="Path 890" d="M115.644,231.667a32.637,32.637,0,0,0,7.889,4.31,38.738,38.738,0,0,0,9.067,2.3,29.649,29.649,0,0,0,8.833-.122,16.466,16.466,0,0,0,7.185-2.96l-.351-3.989-.35-3.988-.351-3.989-.351-3.989H116.734l-.273,3.106-.272,3.105-.273,3.105Z" transform="translate(0 -0.395)" fill="#deb9a3"></path>
    <path id="Path_891" data-name="Path 891" d="M175.121,174.971a45.7,45.7,0,0,0-3.391-18.021,34.9,34.9,0,0,0-9.246-12.793,39.345,39.345,0,0,0-13.715-7.629,57.041,57.041,0,0,0-33.589,0,39.345,39.345,0,0,0-13.715,7.629,34.915,34.915,0,0,0-9.247,12.793,45.721,45.721,0,0,0-3.39,18.021,68.695,68.695,0,0,0,3.39,20.8,72.023,72.023,0,0,0,9.247,18.911,50.876,50.876,0,0,0,13.715,13.747,29.216,29.216,0,0,0,33.589,0,50.876,50.876,0,0,0,13.715-13.747,71.989,71.989,0,0,0,9.246-18.911,68.665,68.665,0,0,0,3.391-20.8" transform="translate(0 -0.242)" fill="#f3ccb3"></path>
    <path id="Path_892" data-name="Path 892" d="M180.926,155.4c-.659-.835-.744-4.643-1.169-9.632a66.634,66.634,0,0,0-3.205-16.725c-2.016-5.563-5.284-10.518-10.716-13.075s-13.028-2.717-23.7,1.313c-9.243-6.832-17.47-8.116-24.633-6.136s-13.263,7.223-18.252,13.446a95.356,95.356,0,0,0-11.587,19.32c-2.72,5.9-4.282,10.488-4.64,11.489a30.733,30.733,0,0,0-1.243,13.946,55.741,55.741,0,0,0,3.413,13.228,62.974,62.974,0,0,0,4.543,9.455c1.311,2.183,2.222,3.229,2.147,2.628a69.956,69.956,0,0,1-.556-7.924,56.872,56.872,0,0,1,.358-7.17,46.636,46.636,0,0,1,1.189-6.41,38.91,38.91,0,0,1,1.937-5.646,67.275,67.275,0,0,0,21.773,1.419A74.475,74.475,0,0,0,134.1,165.01a81.921,81.921,0,0,0,11.742-5.207c2.78-1.5,4.343-2.547,4.432-2.461a45.5,45.5,0,0,0,11.454,8.632c3.014,1.57,5.265,2.308,6.877,3.637s2.586,3.252,3.044,7.192.4,9.9-.046,19.3c-.028.606,1.329-.636,3.183-3.088a58.468,58.468,0,0,0,6.166-10.355,39.5,39.5,0,0,0,3.822-13.809,19.184,19.184,0,0,0-3.853-13.45" transform="translate(0 -0.199)" fill="#032849"></path>
    <path id="Path_893" data-name="Path 893" d="M59.571,398.258a5.853,5.853,0,0,1-1.693-.253,6.252,6.252,0,0,1-1.549-.71,6.532,6.532,0,0,1-1.312-1.1,6.347,6.347,0,0,1-.981-1.413h90.11l2.667,0,2.628,0H151.2c5.71,0,10.9-.016,15.6-.116s8.914-.284,12.683-.622a68.2,68.2,0,0,0,10.01-1.54,29.113,29.113,0,0,0,7.576-2.874,18.45,18.45,0,0,0,5.294-4.436,21.465,21.465,0,0,0,3.533-6.568,43.8,43.8,0,0,0,1.975-9.276,110.088,110.088,0,0,0,.615-12.558l.855-15.846.855-15.847.855-15.847.855-15.847a5.39,5.39,0,0,1,.881.2,5.1,5.1,0,0,1,.823.337,5.164,5.164,0,0,1,.753.471,5.243,5.243,0,0,1,.667.6,5.177,5.177,0,0,1,1.115,1.835,5.346,5.346,0,0,1,.252,1.054,5.62,5.62,0,0,1,.036,1.111l-1.544,23.369-1.543,23.368-1.543,23.369-1.543,23.368a5.979,5.979,0,0,1-.6,2.243,6.4,6.4,0,0,1-3.287,3.071,6,6,0,0,1-2.282.454H59.571Z" transform="translate(0 -0.529)" fill="#cac4d8"></path>
    <path id="Path_894" data-name="Path 894" d="M183.511,118.594V102.849a52.188,52.188,0,0,1-35.726-15.533,48.587,48.587,0,0,1-13.81-35.223A50.709,50.709,0,0,1,148.77,15.009,49.511,49.511,0,0,1,185.467.014a47.509,47.509,0,0,1,35.741,15.095,51.977,51.977,0,0,1,14.468,37.414,64.61,64.61,0,0,1-14.133,41.131,73.112,73.112,0,0,1-38.032,24.94" transform="translate(0 0)" fill="#f1f3f6"></path>
    <path id="Path_895" data-name="Path 895" d="M178.9,57.47l-.153-1.971c-.38-3.945.989-8.117,4.561-12.441,2.887-3.414,4.787-6.069,4.787-9.028,0-3.185-1.976-5.309-6.231-5.385a13.41,13.41,0,0,0-7.6,2.275l-2.28-6.675a23.192,23.192,0,0,1,11.932-3.11c9.422,0,13.755,5.462,13.755,11.531,0,5.461-3.344,9.254-6.612,12.972-2.964,3.489-4.18,6.6-4.028,10.241l.076,1.592ZM177,68.015a5.623,5.623,0,0,1,5.776-5.916c3.419,0,5.7,2.428,5.775,5.916a5.777,5.777,0,1,1-11.551,0" transform="translate(0 -0.038)" fill="#032849"></path>
  </g>
</svg>
