<?xml version="1.0" encoding="UTF-8"?>
<svg xmlns="http://www.w3.org/2000/svg" xmlns:xlink="http://www.w3.org/1999/xlink" id="Group_1683" data-name="Group 1683" width="306" height="559.529" viewBox="0 0 306 559.529">
  <defs>
    <clipPath id="clip-path">
      <rect id="Rectangle_458" data-name="Rectangle 458" width="306" height="559.529" fill="none"></rect>
    </clipPath>
    <clipPath id="clip-path-3">
      <rect id="Rectangle_455" data-name="Rectangle 455" width="57.229" height="60.759" fill="none"></rect>
    </clipPath>
    <clipPath id="clip-path-4">
      <rect id="Rectangle_456" data-name="Rectangle 456" width="49.227" height="52.571" fill="none"></rect>
    </clipPath>
  </defs>
  <g id="Group_1682" data-name="Group 1682" clip-path="url(#clip-path)">
    <g id="Group_1681" data-name="Group 1681">
      <g id="Group_1680" data-name="Group 1680" clip-path="url(#clip-path)">
        <path id="Path_2146" data-name="Path 2146" d="M132,86.826l-11.954,1.992a46.216,46.216,0,1,1,8.179-14.4l.015-.021Z" transform="translate(-7.006 -2.37)" fill="#fff"></path>
        <path id="Path_2147" data-name="Path 2147" d="M131.934,86.756s-.061-.26-.213-.79q-.241-.838-.685-2.376c-.628-2.14-1.544-5.263-2.729-9.3l-.082-.28-.168.241-.015.021.248.126a45.981,45.981,0,0,0,2.178-22.183,47.434,47.434,0,0,0-4.447-14.051,46.343,46.343,0,0,0-10.138-13.331,47.327,47.327,0,0,0-15.9-9.461,45.4,45.4,0,0,0-19.848-2.486,47.47,47.47,0,0,0-20.148,6.838A45.478,45.478,0,0,0,44.5,35.748,47.686,47.686,0,0,0,39.948,46.28c-.263.911-.435,1.845-.656,2.763a26.045,26.045,0,0,0-.56,2.766q-.169,1.4-.338,2.789l-.16,1.388-.023,1.4a47.344,47.344,0,0,0,4.2,21.076A45.288,45.288,0,0,0,54.682,94.487a47.41,47.41,0,0,0,16.361,8.953,46.527,46.527,0,0,0,16.739,1.953l3.893-.453c1.271-.179,2.493-.515,3.706-.758a41.826,41.826,0,0,0,6.8-2.176,45.94,45.94,0,0,0,17.9-13.17l-.082.047,8.9-1.564,2.279-.412c.508-.094.753-.151.753-.151s-.286.031-.812.11l-2.322.355-8.843,1.393-.049.008-.033.039A46.052,46.052,0,0,1,102.015,101.6a41.466,41.466,0,0,1-6.744,2.12c-1.2.234-2.413.562-3.67.732l-3.852.433a46.118,46.118,0,0,1-16.535-1.99,46.9,46.9,0,0,1-16.13-8.882A44.709,44.709,0,0,1,43.009,78.183a46.745,46.745,0,0,1-4.116-20.775l.023-1.374.16-1.369q.167-1.37.334-2.747a25.472,25.472,0,0,1,.554-2.725c.218-.9.387-1.825.647-2.722A47.057,47.057,0,0,1,45.093,36.1,44.859,44.859,0,0,1,60.35,20.3,46.877,46.877,0,0,1,80.2,13.543,44.813,44.813,0,0,1,99.775,15.96a46.843,46.843,0,0,1,15.722,9.3A45.926,45.926,0,0,1,125.562,38.4a47.186,47.186,0,0,1,4.466,13.884,46.057,46.057,0,0,1-2,22.024l-.336.983.584-.857.015-.022-.25-.038c1.242,3.981,2.2,7.06,2.86,9.17l.758,2.39c.173.54.277.826.277.826" transform="translate(-6.942 -2.3)" fill="#1a2e35"></path>
        <path id="Path_2148" data-name="Path 2148" d="M101.848,42.714a19.774,19.774,0,0,0-10.474-3.141,20.184,20.184,0,0,0-9.758,2.4,13.556,13.556,0,0,0-5.008,4.9,18,18,0,0,0-2.264,8.867A1.918,1.918,0,0,0,76.276,57.7l6.739-.045a1.929,1.929,0,0,0,1.89-1.663c.284-2.115,1.514-5.681,6.556-5.8a6.124,6.124,0,0,1,5.956,3.873,6.87,6.87,0,0,1-.514,6.193c-1.773,2.968-5.069,3.443-6.875,3.462A3.779,3.779,0,0,0,86.286,67.5l.05,7.251a1.922,1.922,0,0,0,1.933,1.907l6.565-.044a1.923,1.923,0,0,0,1.907-1.934l-.011-1.523a.085.085,0,0,1,.058-.081,19.037,19.037,0,0,0,6.937-4.412,17.146,17.146,0,0,0,4.909-12.677c-.049-7.289-3.718-11.243-6.787-13.277" transform="translate(-13.517 -7.195)" fill="#099"></path>
        <path id="Path_2149" data-name="Path 2149" d="M94.563,87.1l-.574,0a4.98,4.98,0,1,0,.068,9.959l.574,0a4.98,4.98,0,0,0-.068-9.959" transform="translate(-16.19 -15.837)" fill="#099"></path>
        <path id="Path_2150" data-name="Path 2150" d="M59.559,169.955c31.318-21.064,68.554-28.569,92.959-28.569,22.856,0,56.491,3.6,86.933,20.776a120.58,120.58,0,0,1,44.838,43.308c12.846,21.406,19.8,47.891,20.666,78.723A17.063,17.063,0,0,1,287.879,301.7H227.95a17.15,17.15,0,0,1-16.907-14.675c-2.658-18.794-13.813-50.436-58.66-51.209-34.164-.587-48.26,24.146-52.736,34.81-7.284,17.351-5.437,37.927,4.943,55.04,15.947,26.291,45.283,30.317,61.35,30.376A33.6,33.6,0,0,1,199.45,389.48v64.487a17.1,17.1,0,0,1-17.079,17.079h-58.39A17.1,17.1,0,0,1,106.9,453.967V440.418a.754.754,0,0,0-.517-.716,169.326,169.326,0,0,1-61.958-38.815C14.948,371.577,0,333.747,0,288.449,0,223.621,32.389,188.23,59.559,169.955" transform="translate(0 -25.707)" fill="#60d6d6"></path>
        <path id="Path_2151" data-name="Path 2151" d="M178.617,581.071H173.9a42.054,42.054,0,0,0,0,84.107h4.713a42.054,42.054,0,0,0,0-84.107" transform="translate(-23.973 -105.649)" fill="#00706d"></path>
        <path id="Path_2152" data-name="Path 2152" d="M200.188,546.807H141.824c-9.414,0-17.072-7.418-17.072-16.538V503.9a.732.732,0,0,0-.516-.693,141.2,141.2,0,0,1-27.472-13.358c37.29-.26,105.262-.641,120.5-.087v40.5c0,9.119-7.658,16.538-17.072,16.538" transform="translate(-17.593 -88.997)" fill="#00706d"></path>
        <path id="Path_2153" data-name="Path 2153" d="M164.419,169.687,201.872,60.919c7.91-27.233,30.351-45.329,57.355-36.668l2.449.946a50.7,50.7,0,0,1,30.346,61.694c-6.987,23.566-15.009,49.515-19.9,61.717-10.12,25.261-36.614,18.171-36.614,18.171-.058-.02-5.9,16.838-8.451,24.4l-13.717,13.554-5.666-6.19Z" transform="translate(-29.894 -4.012)" fill="#ffc19d"></path>
        <path id="Path_2154" data-name="Path 2154" d="M244.8,193.928s-16.362-5.243-29.275-22.539c0,0,.578,22.155,26.789,29.655Z" transform="translate(-39.187 -31.162)" fill="#ff9c6a"></path>
        <path id="Path_2155" data-name="Path 2155" d="M199.291,91.1c-.36-.354-15.447-11.9-21.6,5.671s12.755,20.118,12.962,19.625,8.635-25.3,8.635-25.3" transform="translate(-32.084 -15.828)" fill="#ffc19d"></path>
        <path id="Path_2156" data-name="Path 2156" d="M188.724,109.1c-.057-.083-.38.106-.981.163a3.242,3.242,0,0,1-2.3-.754c-1.618-1.33-2.149-4.825-1.125-8.021a10.711,10.711,0,0,1,2.39-4.082,3.749,3.749,0,0,1,3.125-1.543,1.652,1.652,0,0,1,1.513,1.472c.063.573-.172.884-.088.948.033.061.479-.164.592-.938a2.069,2.069,0,0,0-.306-1.343A2.447,2.447,0,0,0,190,93.966c-1.387-.38-3.043.439-4.151,1.6a11,11,0,0,0-2.774,4.525c-1.127,3.58-.475,7.526,1.808,9.149a3.468,3.468,0,0,0,2.961.515c.7-.244.926-.6.876-.657" transform="translate(-33.189 -17.068)" fill="#ff9c6a"></path>
        <path id="Path_2157" data-name="Path 2157" d="M339.874,70.543a4.409,4.409,0,0,0-1.1-3.117c-1.593-1.9-3.964-2.554-6.19-3.379a39.2,39.2,0,0,1-14.641-9.695,19.415,19.415,0,0,0,5.891-1.651c3.835-1.831,6.993-5.591,7.03-9.839a2.591,2.591,0,0,0-.785-2.164c-1.017-.752-2.41.016-3.517.625-3.643,2-6.5,2.4-10.262.635a16.506,16.506,0,0,1-5.978-4.325c-.048-.106-.085-.218-.134-.322-.581-1.264-1.154-2.477-1.726-3.658l0-.01v.006c-4.3-8.877-8.377-15.417-13.4-19.831C287.71,7.346,273.869.9,264.106.093s-20.343,3.618-24.811,12.336c-3.518-6-11.055-8.618-18.024-8.315l-.129-.121c-7.652.028-14.044,5.849-18.493,12.075-.243.34-.474.691-.711,1.036a28.567,28.567,0,0,1-12.3,5.712c-.792.151-1.71.354-2.056,1.082a2.327,2.327,0,0,0,.529,2.221,14.365,14.365,0,0,0,4.7,4.224,32.373,32.373,0,0,1-3.936,3.983c-1.226,1.029-2.685,2.264-2.491,3.852a3.038,3.038,0,0,0,2.54,2.365,8.9,8.9,0,0,0,3.669-.317L188.4,44.869a17.053,17.053,0,0,0,7.568,2.112c-.84,6.992-3.985,19.379-3.863,24.361,4.631,1.724,5.941,1.616,8.017,3.224,2.684,2.079-.372,7.052,4.123,6.917,2.288-.069,8.069-6.613,9.466-8.426A106.268,106.268,0,0,0,233,32.156a34.165,34.165,0,0,1,12.48-3.674l-.4.167c8.057.036,17.04.444,22.664,6.213,4.361,4.475,5.535,11.051,7.944,16.818,4.565,10.928,11.478,18.338,22.469,22.75-1.725,8.1-5.893,20.884-8.062,28.25l11.275-12.3-.016.06c.8-.672,1.511-1.382,2.211-2.1l.228-.211.011-.033a47.461,47.461,0,0,1,3.484-3.4c.016.029.031.057.047.087,2.7,4.837,10.336,1.586,8.731-3.716a10.776,10.776,0,0,0-1.411-2.966,7.581,7.581,0,0,0,6.188,4.165,5.945,5.945,0,0,0,5.92-4.148,5.055,5.055,0,0,0-1.495-4.827A17.071,17.071,0,0,0,335.14,74.5c2.172-.394,4.546-1.467,4.734-3.958" transform="translate(-33.884 0)" fill="#032849"></path>
        <path id="Path_2158" data-name="Path 2158" d="M248.012,22.278a23.55,23.55,0,0,0-3.408,1.449,19.554,19.554,0,0,0-6.949,7.14,34.385,34.385,0,0,0-2.957,6.3c-.844,2.362-1.547,4.963-2.306,7.7a71.846,71.846,0,0,1-2.776,8.493,31.49,31.49,0,0,1-2.145,4.241,9.818,9.818,0,0,1-3.332,3.672,4.111,4.111,0,0,1-4.056-.058,6.115,6.115,0,0,1-2.613-2.993c-.974-2.512-.524-5.1-.173-7.4l.516.255a22.877,22.877,0,0,1-5.023,4.281,8.118,8.118,0,0,1-5.957.961,5.225,5.225,0,0,1-2.485-1.4,4.529,4.529,0,0,1-1.176-2.407,4.675,4.675,0,0,1,.257-2.469,3.389,3.389,0,0,1,1.529-1.708l.187.339a17.555,17.555,0,0,1-6.978,2.2,15.52,15.52,0,0,1-1.945.062,3.118,3.118,0,0,1-.667-.063,3.146,3.146,0,0,1,.667-.044c.438-.022,1.087-.052,1.921-.162a18.094,18.094,0,0,0,6.808-2.324l.187.339a3.492,3.492,0,0,0-1.515,3.757,4.07,4.07,0,0,0,1.074,2.143,4.736,4.736,0,0,0,2.263,1.237,7.6,7.6,0,0,0,5.551-.952,22.519,22.519,0,0,0,4.866-4.207l.659-.693-.143.949c-.349,2.3-.737,4.8.158,7.072a5.51,5.51,0,0,0,2.338,2.677,3.469,3.469,0,0,0,3.447.053,9.291,9.291,0,0,0,3.1-3.444,31.224,31.224,0,0,0,2.11-4.15,72.956,72.956,0,0,0,2.785-8.41c.775-2.729,1.5-5.334,2.375-7.72a34.169,34.169,0,0,1,3.071-6.354,19.264,19.264,0,0,1,7.213-7.121,11.078,11.078,0,0,1,3.526-1.231" transform="translate(-35.556 -4.051)" fill="#375a64"></path>
        <path id="Path_2159" data-name="Path 2159" d="M330.727,73.054a.987.987,0,0,1-.268.1l-.806.242a9.051,9.051,0,0,1-1.334.314,14.564,14.564,0,0,1-1.853.272,24.163,24.163,0,0,1-11.694-1.9A30.872,30.872,0,0,1,301.283,60.9c-3.833-5.5-6.422-12.524-7.912-20.048-.772-3.769-1.172-7.5-1.812-11.032a36.111,36.111,0,0,0-2.986-9.844,18.588,18.588,0,0,0-5.82-7.1,13.3,13.3,0,0,0-3.745-1.825,14.619,14.619,0,0,0-3.817-.574,15.774,15.774,0,0,0-10.718,4.077,18.832,18.832,0,0,0-2.683,3.385.908.908,0,0,1,.115-.262l.4-.744a13.677,13.677,0,0,1,2-2.558,15.5,15.5,0,0,1,4.25-2.886,15.93,15.93,0,0,1,6.642-1.463,15.005,15.005,0,0,1,3.951.551,13.754,13.754,0,0,1,3.909,1.864,19.044,19.044,0,0,1,6.043,7.273,36.338,36.338,0,0,1,3.073,10c.655,3.565,1.058,7.283,1.825,11.018,1.478,7.468,4.023,14.408,7.769,19.84a30.678,30.678,0,0,0,13.181,11.108,24.513,24.513,0,0,0,11.5,2.063,38.353,38.353,0,0,0,4.283-.683" transform="translate(-47.598 -1.823)" fill="#375a64"></path>
        <path id="Path_2160" data-name="Path 2160" d="M347.647,72.33a4.281,4.281,0,0,1-1.147.317,21.151,21.151,0,0,1-3.218.424,27.978,27.978,0,0,1-4.819-.1,29.638,29.638,0,0,1-11.211-3.55,28.128,28.128,0,0,1-4-2.69,21.076,21.076,0,0,1-2.386-2.2,4.223,4.223,0,0,1-.755-.92c.085-.084,1.246,1.146,3.417,2.762a32.021,32.021,0,0,0,4,2.531,31.784,31.784,0,0,0,11,3.485,32.327,32.327,0,0,0,4.732.236c2.7-.073,4.362-.41,4.384-.292" transform="translate(-58.202 -11.564)" fill="#375a64"></path>
        <path id="Path_2161" data-name="Path 2161" d="M293.491,298.991c.23.066-2.778,15.123-5.722,30.742h-.931c2.945-15.618,6.423-30.808,6.653-30.742" transform="translate(-52.152 -54.362)" fill="#1a2e35"></path>
        <path id="Path_2162" data-name="Path 2162" d="M238.823,308.945c-8.512,0-16.349-6.133-17.539-14.487-2.675-18.766-13.383-50.528-58.525-51.3-34.39-.586-48.863,23.756-52.919,34.583-6.437,17.187-5.637,38.048,4.81,55.136,16.052,26.254,45.582,30.273,61.755,30.332,18.6.068,33.73,15.046,33.73,33.388v70.117l-93.158-1.752v-17.5a.753.753,0,0,0-.52-.715,162.581,162.581,0,0,1-49.582-27.762l6.064-80.751s-17.728-34.074-16.85-41.74c8.026-70.039,31.847-109.669,41.528-113.365,10.87-4.15,52.837-2.13,52.837-2.13s18.125,33.584,43.553,37.3c14.15,2.07,19.316-15.6,19.316-15.6l32.866,19.269c23.391,11.8,27.93,57.7,28.36,86.974Z" transform="translate(-10.192 -32.819)" fill="#099"></path>
        <path id="Path_2163" data-name="Path 2163" d="M133.962,387.912c-18.778,4.78-37.29,10.828-56.068,15.608a7.147,7.147,0,0,0-3.817,1.852c-1.383,1.6-1.072,4.03-.452,6.054,1.975,6.455,6.235,12.035,11.306,16.49,4.086,3.589,8.98,6.617,14.4,7.04,6.037.471,11.842-2.329,16.948-5.587a89.327,89.327,0,0,0,31.2-34.318s-4.4-1.811-7.771-3.612a60.288,60.288,0,0,1-5.744-3.527" transform="translate(-13.291 -70.529)" fill="#00706d"></path>
        <path id="Path_2164" data-name="Path 2164" d="M110.435,297.209c-7.508,17.326-5.6,37.871,5.095,54.96a59.281,59.281,0,0,0,21.746,20.8c-8.882,9.662-17.9,18.173-26.81,24.5-9.592,6.806-31.7,4.871-40.079-10.029-10.341-18.385-11.2-65.35-11.2-65.35l-1.964-28.313,57.827-8.858.464,1.586c-2.482,3.719-3.944,8.1-5.074,10.709" transform="translate(-10.403 -51.803)" fill="#ffc19d"></path>
        <path id="Path_2165" data-name="Path 2165" d="M244.73,272.746l3.292,5.19c2.5,1.727,4.885.779,6.431-2.43l35.6-54.183-8.672-5.515-39.318,51.96s-.553,2.756,2.668,4.979" transform="translate(-44.005 -39.238)" fill="#375a64"></path>
        <path id="Path_2166" data-name="Path 2166" d="M332.7,204.946a39.611,39.611,0,1,0-36.2,1.474,39.413,39.413,0,0,0,36.2-1.474m-37.726-66.638a36.946,36.946,0,1,1-15.33,16.6,36.95,36.95,0,0,1,15.33-16.6" transform="translate(-49.734 -23.79)" fill="#1a2e35"></path>
        <path id="Path_2167" data-name="Path 2167" d="M330.64,202.914a39.611,39.611,0,1,0-36.2,1.474,39.407,39.407,0,0,0,36.2-1.474m-37.726-66.638a36.946,36.946,0,1,1-15.33,16.6,36.954,36.954,0,0,1,15.33-16.6" transform="translate(-49.359 -23.421)" fill="#375a64"></path>
        <path id="Path_2168" data-name="Path 2168" d="M279.633,170.391a3.791,3.791,0,0,0,.04-.651c.032-.425-.019-1.055.076-1.859a28.392,28.392,0,0,1,1.312-6.688,35.634,35.634,0,0,1,1.735-4.38,38.211,38.211,0,0,1,2.711-4.678,36.475,36.475,0,0,1,3.723-4.669,34.985,34.985,0,0,1,4.756-4.29,32.633,32.633,0,0,1,5.486-3.293,35.286,35.286,0,0,1,5.617-2.01,33.6,33.6,0,0,1,10.033-1.017,32.2,32.2,0,0,1,6.743,1.046c.79.177,1.374.412,1.787.52a3.891,3.891,0,0,0,.631.166,3.718,3.718,0,0,0-.6-.247c-.4-.134-.983-.4-1.771-.6a30.1,30.1,0,0,0-6.77-1.187,33.111,33.111,0,0,0-10.147.938,35.057,35.057,0,0,0-5.695,2.012,32.573,32.573,0,0,0-5.565,3.331,34.893,34.893,0,0,0-4.807,4.346,36.344,36.344,0,0,0-3.742,4.733,37.708,37.708,0,0,0-2.7,4.745,34.682,34.682,0,0,0-1.7,4.442,26.73,26.73,0,0,0-1.19,6.767,16.815,16.815,0,0,0,0,1.87,3.734,3.734,0,0,0,.045.65" transform="translate(-50.828 -24.816)" fill="#fff"></path>
        <path id="Path_2169" data-name="Path 2169" d="M323.253,215.483c-.029-.1-1.838.575-4.889.992l-1.2.145c-.417.047-.855.047-1.306.075-.9.073-1.869.025-2.884.006a30.776,30.776,0,0,1-12.668-3.413c-.888-.493-1.747-.938-2.491-1.455-.376-.25-.754-.47-1.091-.721l-.964-.727c-2.429-1.894-3.655-3.385-3.728-3.314a8.133,8.133,0,0,0,.864,1.033A11.676,11.676,0,0,0,294,209.235a19.147,19.147,0,0,0,1.573,1.386l.958.757c.336.26.714.49,1.091.75a28.22,28.22,0,0,0,2.5,1.506,29.806,29.806,0,0,0,12.831,3.458,28.678,28.678,0,0,0,2.921-.045c.456-.036.9-.045,1.32-.1l1.208-.173a19.49,19.49,0,0,0,2.057-.408,11.66,11.66,0,0,0,1.523-.423,8.054,8.054,0,0,0,1.267-.459" transform="translate(-53.097 -37.649)" fill="#fff"></path>
        <path id="Path_2170" data-name="Path 2170" d="M296.866,181.134c.084.082,5.249-5.089,11.536-11.547s11.316-11.763,11.232-11.845-5.248,5.087-11.536,11.549-11.316,11.761-11.232,11.843" transform="translate(-53.975 -28.68)" fill="#fff"></path>
        <path id="Path_2171" data-name="Path 2171" d="M304.32,190.593a2.381,2.381,0,0,0,.376-.367l1.016-1.107,3.694-4.111c3.115-3.473,7.431-8.26,12.255-13.493s9.248-9.925,12.458-13.312l3.8-4.015c.419-.452.758-.817,1.021-1.1a2.478,2.478,0,0,0,.335-.4,2.417,2.417,0,0,0-.4.344l-1.078,1.047c-.931.916-2.262,2.255-3.895,3.922-3.266,3.334-7.724,7.994-12.554,13.232s-9.109,10.057-12.167,13.583c-1.53,1.762-2.757,3.2-3.593,4.2l-.956,1.16a2.439,2.439,0,0,0-.312.423" transform="translate(-55.331 -27.76)" fill="#fff"></path>
        <g id="Group_1676" data-name="Group 1676" transform="translate(232.644 114.299)" opacity="0.3">
          <g id="Group_1675" data-name="Group 1675">
            <g id="Group_1674" data-name="Group 1674" clip-path="url(#clip-path-3)">
              <path id="Path_2172" data-name="Path 2172" d="M333,139.7l-48.657,52.854s3.938,5.509,7.545,7.905l49.683-54.09A28.391,28.391,0,0,0,333,139.7" transform="translate(-284.343 -139.699)" fill="#fff"></path>
            </g>
          </g>
        </g>
        <g id="Group_1679" data-name="Group 1679" transform="translate(246.181 127.064)" opacity="0.3">
          <g id="Group_1678" data-name="Group 1678">
            <g id="Group_1677" data-name="Group 1677" clip-path="url(#clip-path-4)">
              <path id="Path_2173" data-name="Path 2173" d="M348.763,155.3l-47.855,51.5s-.443.243,2.853,1.075l46.354-49.957a6.576,6.576,0,0,0-1.352-2.614" transform="translate(-300.888 -155.3)" fill="#fff"></path>
            </g>
          </g>
        </g>
        <path id="Path_2174" data-name="Path 2174" d="M205.438,251.3c10.222-8.207,35.271-28.283,36.416-28.818,1.44-.673,23.487-8.506,27.709-5.99s15.546,16.729,15.546,16.729-1.076,8.84-10.952,2.513l-8.836-5.659.015.009-10.5,2.453s12.8,5.348,15.514,8.16,6.991,13.579,4.32,16.058a10.37,10.37,0,0,1-5.774,2.691s5.286,7.508-4.09,12.04c0,0-1.37,6.311-5.995,8.784s-13.243,1.6-13.243,1.6a4.059,4.059,0,0,1-1.028-6.282c2.968-3.918,8.444-4.46,8.444-4.46l-6.787-3.96s-3.531,1.082-8.763,5.123c0,0-6.2-7.933-12.385-12.418-6.945-5.033-19.614-8.571-19.614-8.571" transform="translate(-37.352 -39.272)" fill="#ffc19d"></path>
        <path id="Path_2175" data-name="Path 2175" d="M258.544,263.216a3.457,3.457,0,0,1,1.008.059,15.436,15.436,0,0,1,2.681.623,17.708,17.708,0,0,1,11.826,12.86,15.493,15.493,0,0,1,.4,2.724,3.459,3.459,0,0,1-.025,1.009c-.095.008-.115-1.434-.713-3.646a18.407,18.407,0,0,0-11.6-12.611c-2.153-.782-3.589-.924-3.574-1.017" transform="translate(-47.008 -47.854)" fill="#ff9c6a"></path>
        <path id="Path_2176" data-name="Path 2176" d="M257.992,249.254a4.441,4.441,0,0,1,1.077.076,9.984,9.984,0,0,1,1.249.205,16.6,16.6,0,0,1,1.634.388,24.587,24.587,0,0,1,4.093,1.541,25.913,25.913,0,0,1,8.447,6.506,24.594,24.594,0,0,1,2.536,3.564,16.513,16.513,0,0,1,.793,1.481,10,10,0,0,1,.517,1.156,4.458,4.458,0,0,1,.349,1.021c-.092.039-.653-1.393-1.961-3.473a27.323,27.323,0,0,0-2.581-3.445,30.145,30.145,0,0,0-3.843-3.6,35.172,35.172,0,0,0-4.644-3.148,21.493,21.493,0,0,0-3.805-1.265c-2.346-.733-3.874-.91-3.859-1.009" transform="translate(-46.908 -45.316)" fill="#ff9c6a"></path>
        <path id="Path_2177" data-name="Path 2177" d="M255.649,233.146a2.907,2.907,0,0,1,1.426-.321,7.851,7.851,0,0,1,3.479.622,6.594,6.594,0,0,1,2.863,2.072,2.907,2.907,0,0,1,.759,1.249,9.989,9.989,0,0,0-8.527-3.622" transform="translate(-46.482 -42.329)" fill="#ff9c6a"></path>
        <path id="Path_2178" data-name="Path 2178" d="M99.912,182.415s-32.351,3.1-42.621,31.21c-8.152,22.309-12.58,89.143-10.538,90.5L103.87,302.3c.752-16.3,5.14-28.863,11.293-36.993Z" transform="translate(-8.411 -33.166)" fill="#099"></path>
        <path id="Path_2179" data-name="Path 2179" d="M110.5,328.944a4.62,4.62,0,0,0-1.121.624c-.7.436-1.682,1.111-2.867,1.987a76.764,76.764,0,0,0-8.692,7.541,88.839,88.839,0,0,0-7.567,8.667c-.89,1.172-1.588,2.137-2.045,2.824a4.6,4.6,0,0,0-.656,1.1,42.226,42.226,0,0,0,3.083-3.621c1.876-2.252,4.52-5.321,7.675-8.484a104.462,104.462,0,0,1,8.5-7.643c2.282-1.836,3.751-2.908,3.689-3" transform="translate(-15.919 -59.807)" fill="#ff9c6a"></path>
        <path id="Path_2180" data-name="Path 2180" d="M123.915,244.921c-.189.032.859,7.166,2.341,15.934s2.834,15.851,3.022,15.82-.861-7.165-2.342-15.935-2.834-15.851-3.022-15.819" transform="translate(-22.526 -44.531)" fill="#1a2e35"></path>
        <path id="Path_2181" data-name="Path 2181" d="M191.023,487.256a5.046,5.046,0,0,0-.949-.143l-2.73-.276-10.046-.951c-8.48-.813-20.186-2.036-33.081-3.665s-24.541-3.365-32.957-4.688l-9.965-1.581-2.713-.413a4.96,4.96,0,0,0-.954-.1,4.909,4.909,0,0,0,.929.235l2.691.54c2.339.459,5.732,1.076,9.933,1.8,8.4,1.447,20.041,3.256,32.95,4.891s24.628,2.777,33.124,3.467c4.248.346,7.688.594,10.068.732l2.742.146a5.039,5.039,0,0,0,.959,0" transform="translate(-17.751 -86.443)" fill="#1a2e35"></path>
        <path id="Path_2182" data-name="Path 2182" d="M204.626,478.714a15.468,15.468,0,0,0-2.354-.213l-6.426-.342-21.2-1.087-21.193-1.228-6.424-.361a15.494,15.494,0,0,0-2.363-.046,15.271,15.271,0,0,0,2.342.313c1.512.158,3.7.357,6.41.58,5.416.448,12.907.979,21.19,1.431s15.784.74,21.216.884c2.716.073,4.916.115,6.436.123a15.548,15.548,0,0,0,2.363-.056" transform="translate(-26.303 -86.439)" fill="#1a2e35"></path>
        <path id="Path_2183" data-name="Path 2183" d="M319.869,330.267A7,7,0,0,0,318.836,328a6.706,6.706,0,0,0-11.283.238,4.128,4.128,0,0,0-3.078-3.973c-1.748-.478-3.1.2-4.5,1.353a6.777,6.777,0,0,0-2.317,3.8c-1.392-3.125-8.547-2.743-9.416-.4,0,0-6.156-6.738-9.3-3.425-1.308,1.376-.747,3.489.119,5.6,1.156,2.824,1.918,4,3.43,7.111l5.827.318c.492,1.824,1.525,9.239,1.744,11.115a12.921,12.921,0,0,0,1.591,5.39,5.623,5.623,0,0,0,4.619,2.833,3.651,3.651,0,0,0,3.637-3.53,8.887,8.887,0,0,0,2.209,4.22,4.781,4.781,0,0,0,4.406,1.368,3.307,3.307,0,0,0,2.474-3.61c2.077,1.438,5.148.16,6.466-2s1.352-4.835,1.271-7.361c-.071-2.239-.275-4.751.608-6.871a6.226,6.226,0,0,0,.458-.979,11.241,11.241,0,0,0,.078-1.663,12.686,12.686,0,0,1,.7-3.451c.089-.243.186-.483.293-.719.282-.627.7-1.158,1.019-1.757a1.145,1.145,0,0,0,.147-.412,2.768,2.768,0,0,0-.169-.935" transform="translate(-50.575 -58.929)" fill="#ffc19d"></path>
        <path id="Path_2184" data-name="Path 2184" d="M334.735,327.681a5.421,5.421,0,0,1,4.294,1.428c1.231,1.377,1.516,4.672,1.376,6.514-2.16.407-3.312-.074-5.471.334-.455.086-.835-.029-1.213.239-1,.708-.835,3.089-1.235,4.244a4.155,4.155,0,0,1-5.246,2.243,5.574,5.574,0,0,1-3.366-4.966,8.615,8.615,0,0,1,2.194-5.808,12.041,12.041,0,0,1,8.668-4.228" transform="translate(-58.885 -59.577)" fill="#ffc19d"></path>
        <path id="Path_2185" data-name="Path 2185" d="M291.731,347.691c.219-.047-.669-4-1.231-8.916a39.155,39.155,0,0,1-.236-6.309,20.585,20.585,0,0,0,.166-2.63,6.82,6.82,0,0,0-.653,2.586,27.577,27.577,0,0,0,.036,6.427,49.59,49.59,0,0,0,1.119,6.308,9.5,9.5,0,0,0,.8,2.534" transform="translate(-52.656 -59.97)" fill="#ff9c6a"></path>
        <path id="Path_2186" data-name="Path 2186" d="M304.351,356.32a22.646,22.646,0,0,0-.577-3.768c-.421-2.311-1.013-5.5-1.462-9.043a65.3,65.3,0,0,1-.56-9.114c.034-2.338.2-3.782.092-3.8a13.848,13.848,0,0,0-.581,3.779,48.611,48.611,0,0,0,.363,9.219,86.725,86.725,0,0,0,1.668,9.058,19.255,19.255,0,0,0,1.055,3.667" transform="translate(-54.76 -60.108)" fill="#ff9c6a"></path>
        <path id="Path_2187" data-name="Path 2187" d="M315.328,357.484a38.515,38.515,0,0,0-.728-4.193,80.8,80.8,0,0,1-1.112-20.378,38.532,38.532,0,0,0,.268-4.247,3.674,3.674,0,0,0-.291,1.113c-.149.723-.31,1.78-.463,3.09a62.193,62.193,0,0,0,1.119,20.52c.295,1.286.57,2.319.8,3.022a3.726,3.726,0,0,0,.411,1.074" transform="translate(-56.839 -59.757)" fill="#ff9c6a"></path>
        <path id="Path_2188" data-name="Path 2188" d="M329.07,332.139a3.7,3.7,0,0,0-1.816.918A9.231,9.231,0,0,0,324.3,337a7.888,7.888,0,0,0-.391,4.916c.386,1.282,1.19,1.726,1.217,1.645a6.792,6.792,0,0,1-.744-1.766,8.615,8.615,0,0,1,.56-4.544,10.506,10.506,0,0,1,2.621-3.816c.884-.819,1.556-1.193,1.5-1.293" transform="translate(-58.851 -60.387)" fill="#ff9c6a"></path>
      </g>
    </g>
  </g>
</svg>
