<?xml version="1.0" encoding="UTF-8"?>
<svg xmlns="http://www.w3.org/2000/svg" xmlns:xlink="http://www.w3.org/1999/xlink" id="Group_4818" data-name="Group 4818" width="374" height="567.566" viewBox="0 0 374 567.566">
  <defs>
    <clipPath id="clip-path">
      <rect id="Rectangle_668" data-name="Rectangle 668" width="374" height="567.566" fill="none"></rect>
    </clipPath>
    <clipPath id="clip-path-3">
      <rect id="Rectangle_641" data-name="Rectangle 641" width="105.924" height="49.276" transform="translate(31.296 254.214)" fill="none"></rect>
    </clipPath>
    <clipPath id="clip-path-4">
      <rect id="Rectangle_642" data-name="Rectangle 642" width="118.555" height="47.933" transform="translate(0 323.899)" fill="none"></rect>
    </clipPath>
    <clipPath id="clip-path-5">
      <rect id="Rectangle_643" data-name="Rectangle 643" width="18.718" height="9.034" transform="translate(351.131 227.904)" fill="none"></rect>
    </clipPath>
    <clipPath id="clip-path-6">
      <rect id="Rectangle_644" data-name="Rectangle 644" width="16.978" height="11.513" transform="translate(351.28 239.195)" fill="none"></rect>
    </clipPath>
    <clipPath id="clip-path-7">
      <rect id="Rectangle_645" data-name="Rectangle 645" width="2.323" height="4.896" transform="translate(357.913 235.265)" fill="none"></rect>
    </clipPath>
    <clipPath id="clip-path-8">
      <rect id="Rectangle_646" data-name="Rectangle 646" width="7.853" height="4.495" transform="translate(364.166 235.005)" fill="none"></rect>
    </clipPath>
    <clipPath id="clip-path-9">
      <rect id="Rectangle_647" data-name="Rectangle 647" width="52.13" height="32.114" transform="translate(56.776 535.452)" fill="none"></rect>
    </clipPath>
    <clipPath id="clip-path-10">
      <rect id="Rectangle_648" data-name="Rectangle 648" width="52.13" height="32.115" transform="translate(227.823 445.035)" fill="none"></rect>
    </clipPath>
    <clipPath id="clip-path-11">
      <rect id="Rectangle_649" data-name="Rectangle 649" width="73.135" height="49.277" transform="translate(158.548 277.889)" fill="none"></rect>
    </clipPath>
    <clipPath id="clip-path-12">
      <rect id="Rectangle_650" data-name="Rectangle 650" width="34.663" height="11.789" transform="translate(193.989 239.025)" fill="none"></rect>
    </clipPath>
    <clipPath id="clip-path-13">
      <rect id="Rectangle_651" data-name="Rectangle 651" width="14.678" height="8.168" transform="translate(230.107 245.998)" fill="none"></rect>
    </clipPath>
    <clipPath id="clip-path-14">
      <rect id="Rectangle_652" data-name="Rectangle 652" width="24.305" height="9.757" transform="translate(168.43 234.059)" fill="none"></rect>
    </clipPath>
    <clipPath id="clip-path-15">
      <rect id="Rectangle_653" data-name="Rectangle 653" width="3.515" height="5.593" transform="translate(163.886 233.242)" fill="none"></rect>
    </clipPath>
    <clipPath id="clip-path-16">
      <rect id="Rectangle_654" data-name="Rectangle 654" width="39.869" height="11.427" transform="translate(202.943 254.862)" fill="none"></rect>
    </clipPath>
    <clipPath id="clip-path-17">
      <rect id="Rectangle_655" data-name="Rectangle 655" width="25.947" height="15.457" transform="translate(286.676 319.947)" fill="none"></rect>
    </clipPath>
    <clipPath id="clip-path-18">
      <rect id="Rectangle_656" data-name="Rectangle 656" width="95.011" height="120.39" transform="translate(85.884 116.726)" fill="none"></rect>
    </clipPath>
    <clipPath id="clip-path-19">
      <rect id="Rectangle_657" data-name="Rectangle 657" width="107.199" height="133.391" transform="translate(240.669 107.357)" fill="none"></rect>
    </clipPath>
    <clipPath id="clip-path-20">
      <rect id="Rectangle_658" data-name="Rectangle 658" width="96.071" height="143.682" transform="translate(159.578 102.286)" fill="none"></rect>
    </clipPath>
    <clipPath id="clip-path-21">
      <rect id="Rectangle_659" data-name="Rectangle 659" width="4.613" height="116.007" transform="translate(212.496 122.986)" fill="none"></rect>
    </clipPath>
    <clipPath id="clip-path-22">
      <rect id="Rectangle_660" data-name="Rectangle 660" width="48.263" height="47.905" transform="translate(171.979 132.304)" fill="none"></rect>
    </clipPath>
    <clipPath id="clip-path-23">
      <rect id="Rectangle_661" data-name="Rectangle 661" width="4.437" height="44.386" transform="translate(255.633 137.519)" fill="none"></rect>
    </clipPath>
    <clipPath id="clip-path-24">
      <rect id="Rectangle_662" data-name="Rectangle 662" width="22.285" height="19.377" transform="translate(197.344 110.286)" fill="none"></rect>
    </clipPath>
    <clipPath id="clip-path-25">
      <rect id="Rectangle_663" data-name="Rectangle 663" width="11.699" height="18.011" transform="translate(220.537 108.557)" fill="none"></rect>
    </clipPath>
    <clipPath id="clip-path-26">
      <rect id="Rectangle_664" data-name="Rectangle 664" width="8.291" height="12.425" transform="translate(285.147 183.86)" fill="none"></rect>
    </clipPath>
    <clipPath id="clip-path-27">
      <rect id="Rectangle_665" data-name="Rectangle 665" width="16" height="9.715" transform="translate(208.62 92.037)" fill="none"></rect>
    </clipPath>
    <clipPath id="clip-path-28">
      <rect id="Rectangle_666" data-name="Rectangle 666" width="8.728" height="6.466" transform="translate(193.386 66.804)" fill="none"></rect>
    </clipPath>
  </defs>
  <g id="Group_4817" data-name="Group 4817" clip-path="url(#clip-path)">
    <g id="Group_4816" data-name="Group 4816">
      <g id="Group_4815" data-name="Group 4815" clip-path="url(#clip-path)">
        <path id="Path_6188" data-name="Path 6188" d="M350.649,56.243a37.978,37.978,0,1,1-15.044-51.56,37.978,37.978,0,0,1,15.044,51.56" fill="#099"></path>
        <path id="Path_6189" data-name="Path 6189" d="M298.3,60.851l-9.746.78-1.7,12.217,11.779-2.91Z" fill="#099"></path>
        <path id="Path_6190" data-name="Path 6190" d="M333.529,43.027V26.38H316.882" fill="none" stroke="#fff" stroke-linecap="round" stroke-linejoin="round" stroke-width="3"></path>
        <path id="Path_6191" data-name="Path 6191" d="M333.529,26.38,316.882,43.028l-5.656-4.451L299,49.591" fill="none" stroke="#fff" stroke-linecap="round" stroke-linejoin="round" stroke-width="3"></path>
        <path id="Path_6192" data-name="Path 6192" d="M65.152,264.437s9.973-14.957,22.484-11.791S100.9,276.161,100.9,276.161l-6.934-2.412s2.261-14.772-6.632-16.883-17.26,9.8-17.26,9.8l-3.994-2.11" fill="#1a2e35"></path>
        <path id="Path_6193" data-name="Path 6193" d="M0,335.377l3.8-9.858L31.3,254.214,137.22,286.2l-22.01,85.634Z" fill="#60d6d6"></path>
        <path id="Path_6194" data-name="Path 6194" d="M89.345,231.812c-1.6.534-10.691,11.44-12.509,14.54s-2.031,5.132-.641,6.2a12.841,12.841,0,0,0,3.421,2.138c.428,0-1.5,3.208.962,4.812s3.742,1.282,3.742,1.282-.642,4.7,2.566,5.988,4.6-.214,5.132,0,3.421-5.239,3.421-5.239l3.742,5.764a22.132,22.132,0,0,0,3.421-4.909c1.711-3.207,1.6-12.3,1.6-12.3l-1.711-8.125,2.887-11.661s-14.113-1.917-14.22-1.6-1.817,3.1-1.817,3.1" fill="#f9b384"></path>
        <g id="Group_4739" data-name="Group 4739" opacity="0.2" style="mix-blend-mode: normal;isolation: isolate">
          <g id="Group_4738" data-name="Group 4738">
            <g id="Group_4737" data-name="Group 4737" clip-path="url(#clip-path-3)">
              <path id="Path_6195" data-name="Path 6195" d="M31.3,254.214s6.415,45.625,37.314,48.914,68.61-16.93,68.61-16.93"></path>
            </g>
          </g>
        </g>
        <g id="Group_4742" data-name="Group 4742" opacity="0.2" style="mix-blend-mode: normal;isolation: isolate">
          <g id="Group_4741" data-name="Group 4741">
            <g id="Group_4740" data-name="Group 4740" clip-path="url(#clip-path-4)">
              <path id="Path_6196" data-name="Path 6196" d="M118.555,358.818,4.426,323.9,0,335.377l115.21,36.454Z"></path>
            </g>
          </g>
        </g>
        <path id="Path_6197" data-name="Path 6197" d="M368.25,243.3s.375,1.268-1.123,3.793-4.784.738-4.766,1.166a12.872,12.872,0,0,1-1.991,3.509c-1.009,1.434-3.048,1.306-6.223-.378s-14.456-10.3-15.058-11.88c0,0-2.85-1.591-3.175-1.684s.992-14.275.992-14.275l11.772,2.389,8.046-2.054s9.075-.493,12.352,1.08c.573.275,1.1.552,1.579.822a2.791,2.791,0,0,1,.219,4.7l-2.348,1.67s2.3,1.235,3.92,2.209a3.133,3.133,0,0,1,1.531,3.042,3.093,3.093,0,0,1-.169.714,1.751,1.751,0,0,1-2.127,1,3.543,3.543,0,0,1-2.529,3.714c-1.056.35-.9.461-.9.461" fill="#f9b384"></path>
        <g id="Group_4745" data-name="Group 4745" opacity="0.1">
          <g id="Group_4744" data-name="Group 4744">
            <g id="Group_4743" data-name="Group 4743" clip-path="url(#clip-path-5)">
              <path id="Path_6198" data-name="Path 6198" d="M362.206,236.938a3.53,3.53,0,0,1-1.5-.347,2.543,2.543,0,0,1-1.239-1.541,7.479,7.479,0,0,1-.158-4,13.946,13.946,0,0,1-2.676,2.23,6.659,6.659,0,0,1-2.527,1.067,3.535,3.535,0,0,1-2.8-.648.465.465,0,1,1,.585-.723,2.608,2.608,0,0,0,2.067.453,5.816,5.816,0,0,0,2.175-.932,13.17,13.17,0,0,0,3.671-3.526h0a1.362,1.362,0,0,1,.809-1.051.474.474,0,0,1,.5.158.462.462,0,0,1,.034.523q-.229.392-.487.767c-.527,1.98-.9,3.756-.316,5.364a1.746,1.746,0,0,0,.76,1.015,2.2,2.2,0,0,0,2.11-.023c1.042-.7,2.079-1.53,3.282-2.493.8-.638,1.651-1.324,2.609-2.051a.466.466,0,0,1,.563.742c-.95.721-1.8,1.4-2.591,2.034-1.217.977-2.271,1.82-3.345,2.54a2.725,2.725,0,0,1-1.524.439" fill="#1a2e35"></path>
            </g>
          </g>
        </g>
        <g id="Group_4748" data-name="Group 4748" opacity="0.1">
          <g id="Group_4747" data-name="Group 4747">
            <g id="Group_4746" data-name="Group 4746" clip-path="url(#clip-path-6)">
              <path id="Path_6199" data-name="Path 6199" d="M355.513,250.708a2.1,2.1,0,0,1-1.386-.716,14.938,14.938,0,0,1-2.068-2.514,3.229,3.229,0,0,1-.652-2.869,2.527,2.527,0,0,1,1.877-1.512,5.411,5.411,0,0,1,2.223.088,16.682,16.682,0,0,1,2.184.609,7.925,7.925,0,0,1-.557-.9c-.509-.962-.778-2.381.143-3.209a2.944,2.944,0,0,1,2.825-.25,39.626,39.626,0,0,1,7.914,3.275.465.465,0,1,1-.447.816,38.713,38.713,0,0,0-7.729-3.2c-.612-.178-1.477-.371-1.942.049-.488.441-.323,1.364.057,2.084a6.82,6.82,0,0,0,2.12,2.392c.325.177.647.364.961.563a.465.465,0,0,1-.449.812,7.665,7.665,0,0,1-1-.58,15.83,15.83,0,0,0-4.271-1.552,4.541,4.541,0,0,0-1.835-.09,1.613,1.613,0,0,0-1.2.921,2.411,2.411,0,0,0,.554,2.043,13.981,13.981,0,0,0,1.94,2.358c.342.334.6.48.8.444a.466.466,0,0,1,.167.916,1.3,1.3,0,0,1-.229.021" fill="#1a2e35"></path>
            </g>
          </g>
        </g>
        <g id="Group_4751" data-name="Group 4751" opacity="0.1">
          <g id="Group_4750" data-name="Group 4750">
            <g id="Group_4749" data-name="Group 4749" clip-path="url(#clip-path-7)">
              <path id="Path_6200" data-name="Path 6200" d="M359.108,240.161a.466.466,0,0,1-.365-.176,3.872,3.872,0,0,1-.821-2.111,2.835,2.835,0,0,1,.329-1.623,1.946,1.946,0,0,1,1.484-.984.464.464,0,1,1,.072.926,1.029,1.029,0,0,0-.752.524,1.957,1.957,0,0,0-.207,1.09,2.95,2.95,0,0,0,.625,1.6.466.466,0,0,1-.076.653.461.461,0,0,1-.289.1" fill="#1a2e35"></path>
            </g>
          </g>
        </g>
        <g id="Group_4754" data-name="Group 4754" opacity="0.1">
          <g id="Group_4753" data-name="Group 4753">
            <g id="Group_4752" data-name="Group 4752" clip-path="url(#clip-path-8)">
              <path id="Path_6201" data-name="Path 6201" d="M371.553,239.5a.476.476,0,0,1-.251-.073,35.968,35.968,0,0,0-6.845-3.525.465.465,0,1,1,.349-.863,36.816,36.816,0,0,1,7,3.6.465.465,0,0,1-.251.857" fill="#1a2e35"></path>
            </g>
          </g>
        </g>
        <path id="Path_6202" data-name="Path 6202" d="M85.574,482.726,67.966,521.158l16.108,8.805,23.949-38.8Z" fill="#f9b384"></path>
        <path id="Path_6203" data-name="Path 6203" d="M71.461,519.223c1.024,3.119,5.749,5.3,8.689,4.774l1.705-3c1.756-2.356,3.312-3.078,5.821-1.268,1.231.886,2.008,3.42,1.779,6.458-.411,5.447.924,8.461.924,8.461s8.74,12.624,12.331,16.313c2.143,2.2,4.932,5.282,5.258,9.1a16,16,0,0,1-.143,3.648,14.133,14.133,0,0,1-1.322,3.235L75.988,550.4s-2.111-3.537-3.459-4.2a4.787,4.787,0,0,0-4.586.331L56.8,540.6s.732-1.861,1.8-4.568l0,0c.482-1.22,1.033-2.609,1.611-4.079,2.489-6.3,7.035-12.956,7.753-14.733,1.257-3.113,3.5,2,3.5,2" fill="#032849"></path>
        <path id="Path_6204" data-name="Path 6204" d="M95.85,541.494a.494.494,0,0,0-.5-.316,5.616,5.616,0,0,0-2.829.973c-.454.312,0,1.088.46.774a4.959,4.959,0,0,1,2.489-.868.413.413,0,0,0,.38-.554l0-.009" fill="#007cff"></path>
        <path id="Path_6205" data-name="Path 6205" d="M94.149,538.9a.494.494,0,0,0-.5-.316,5.616,5.616,0,0,0-2.829.973c-.453.311,0,1.088.46.773a4.967,4.967,0,0,1,2.489-.867.413.413,0,0,0,.38-.554l0-.009" fill="#007cff"></path>
        <path id="Path_6206" data-name="Path 6206" d="M92.327,536.357a.494.494,0,0,0-.5-.316,5.615,5.615,0,0,0-2.829.973c-.454.312,0,1.088.46.773a4.958,4.958,0,0,1,2.489-.867.413.413,0,0,0,.38-.554l0-.009" fill="#007cff"></path>
        <g id="Group_4757" data-name="Group 4757" opacity="0.2" style="mix-blend-mode: normal;isolation: isolate">
          <g id="Group_4756" data-name="Group 4756">
            <g id="Group_4755" data-name="Group 4755" clip-path="url(#clip-path-9)">
              <path id="Path_6207" data-name="Path 6207" d="M108.906,562.557c-.022.565-.067,1.15-.153,1.771a13.835,13.835,0,0,1-1.316,3.238L76.331,550.709s-2.172-3.569-3.546-4.251a4.874,4.874,0,0,0-4.652.295l-11.357-6.045s.728-1.864,1.791-4.574l0,0c.084-.213.18-.457.267-.68Z" fill="#fff"></path>
            </g>
          </g>
        </g>
        <path id="Path_6208" data-name="Path 6208" d="M91.068,537.181l.348-.805a21.511,21.511,0,0,1,1.7-3.364,7.434,7.434,0,0,1,2.852-2.655,2.134,2.134,0,0,1,2.092-.087,2.058,2.058,0,0,1,.761,2.076,4.8,4.8,0,0,1-2.038,3.142c-1.088.775-3.994,1.368-4.857,1.531Zm6.133-6.217a2.025,2.025,0,0,0-.817.227,6.555,6.555,0,0,0-2.488,2.333,16.556,16.556,0,0,0-1.267,2.4,12.706,12.706,0,0,0,3.618-1.2,3.864,3.864,0,0,0,1.657-2.516,1.2,1.2,0,0,0-.333-1.158.7.7,0,0,0-.37-.094" fill="#007cff"></path>
        <path id="Path_6209" data-name="Path 6209" d="M92.094,537.4l-.677-.55c-.68-.56-2.941-2.478-3.52-3.681a4.79,4.79,0,0,1-.273-3.735,2.06,2.06,0,0,1,1.666-1.455,2.212,2.212,0,0,1,1.792,1.084,7.433,7.433,0,0,1,1.22,3.7,21.243,21.243,0,0,1-.127,3.765Zm-2.722-8.493a.15.15,0,0,0-.03,0c-.4.022-.705.472-.848.852a3.877,3.877,0,0,0,.24,3.005,12.637,12.637,0,0,0,2.6,2.79,16.576,16.576,0,0,0,.047-2.717,6.513,6.513,0,0,0-1.057-3.242c-.181-.259-.544-.69-.947-.69" fill="#007cff"></path>
        <path id="Path_6210" data-name="Path 6210" d="M256.62,392.31l-17.607,38.432,16.108,8.8,23.949-38.8Z" fill="#f9b384"></path>
        <path id="Path_6211" data-name="Path 6211" d="M240.711,427.834c1.024,3.119,5.749,5.3,8.689,4.774l1.705-3c1.756-2.356,3.312-3.078,5.821-1.268,1.231.886,2.008,3.42,1.779,6.458-.411,5.447.924,8.461.924,8.461s8.74,12.624,12.331,16.313c2.143,2.2,4.932,5.282,5.258,9.1a16,16,0,0,1-.143,3.648,14.133,14.133,0,0,1-1.322,3.235l-30.515-16.537s-2.111-3.537-3.459-4.2a4.787,4.787,0,0,0-4.586.331l-11.142-5.929s.732-1.861,1.8-4.568l0,0c.482-1.22,1.033-2.609,1.612-4.079,2.488-6.3,7.034-12.956,7.752-14.733,1.257-3.113,3.5,2,3.5,2" fill="#032849"></path>
        <path id="Path_6212" data-name="Path 6212" d="M266.9,451.078a.494.494,0,0,0-.5-.316,5.609,5.609,0,0,0-2.828.973c-.455.312,0,1.088.459.773a4.958,4.958,0,0,1,2.489-.867.413.413,0,0,0,.38-.554l0-.009" fill="#007cff"></path>
        <path id="Path_6213" data-name="Path 6213" d="M265.2,448.486a.5.5,0,0,0-.5-.317,5.62,5.62,0,0,0-2.828.974c-.454.311,0,1.088.459.773a4.967,4.967,0,0,1,2.489-.867.413.413,0,0,0,.38-.554l0-.009" fill="#007cff"></path>
        <path id="Path_6214" data-name="Path 6214" d="M263.373,445.941a.494.494,0,0,0-.5-.316,5.616,5.616,0,0,0-2.829.973c-.454.312,0,1.088.46.773A4.958,4.958,0,0,1,263,446.5a.413.413,0,0,0,.38-.554l0-.009" fill="#007cff"></path>
        <g id="Group_4760" data-name="Group 4760" opacity="0.2" style="mix-blend-mode: normal;isolation: isolate">
          <g id="Group_4759" data-name="Group 4759">
            <g id="Group_4758" data-name="Group 4758" clip-path="url(#clip-path-10)">
              <path id="Path_6215" data-name="Path 6215" d="M279.953,472.141c-.022.565-.068,1.15-.154,1.771a13.7,13.7,0,0,1-1.316,3.238l-31.1-16.857s-2.172-3.57-3.546-4.251a4.874,4.874,0,0,0-4.652.3l-11.357-6.045s.728-1.864,1.792-4.574l0,0c.084-.213.18-.457.267-.68Z" fill="#fff"></path>
            </g>
          </g>
        </g>
        <path id="Path_6216" data-name="Path 6216" d="M262.114,446.764l.349-.8a21.766,21.766,0,0,1,1.7-3.364,7.462,7.462,0,0,1,2.855-2.655,2.136,2.136,0,0,1,2.091-.085,2.054,2.054,0,0,1,.759,2.075,4.8,4.8,0,0,1-2.036,3.143,16.261,16.261,0,0,1-4.858,1.529Zm6.132-6.215a2.02,2.02,0,0,0-.816.227,6.537,6.537,0,0,0-2.489,2.333,16.592,16.592,0,0,0-1.264,2.4,12.683,12.683,0,0,0,3.615-1.194,3.876,3.876,0,0,0,1.659-2.52,1.2,1.2,0,0,0-.333-1.153.7.7,0,0,0-.372-.1" fill="#007cff"></path>
        <path id="Path_6217" data-name="Path 6217" d="M263.139,446.989l-.678-.556c-.87-.718-2.957-2.512-3.519-3.681a4.8,4.8,0,0,1-.272-3.735,2.056,2.056,0,0,1,1.667-1.453,2.079,2.079,0,0,1,1.79,1.086,7.409,7.409,0,0,1,1.221,3.7,21.565,21.565,0,0,1-.127,3.77Zm-2.718-8.5a.152.152,0,0,0-.031,0c-.4.022-.707.47-.848.85a3.854,3.854,0,0,0,.24,3.005,12.629,12.629,0,0,0,2.592,2.791,16.444,16.444,0,0,0,.047-2.716,6.515,6.515,0,0,0-1.057-3.242c-.145-.21-.525-.69-.943-.69" fill="#007cff"></path>
        <path id="Path_6218" data-name="Path 6218" d="M155.812,269.663s-4.3,20.108,1.975,37.732l-24.71,89.261S68.166,509.4,70.118,509.884,103.557,529.2,103.557,529.2s62.991-97.737,72.122-110.745S222.39,305.879,222.39,305.879Z" fill="#032849"></path>
        <g id="Group_4763" data-name="Group 4763" opacity="0.3" style="mix-blend-mode: normal;isolation: isolate">
          <g id="Group_4762" data-name="Group 4762">
            <g id="Group_4761" data-name="Group 4761" clip-path="url(#clip-path-11)">
              <path id="Path_6219" data-name="Path 6219" d="M180.266,277.889c-1.205,3.612-9.988,13.505-11.317,17.643-.4,1.2-10-4.06-10.4-2.806,7.737,10.837,36.83,25.414,56.459,34.44,3.086-7.6,3.895-10.945,6.4-17.466,3.862-9.782,8.09-17.464,10.273-23.108-17.558-3.762-36.922-6.722-51.418-8.7"></path>
            </g>
          </g>
        </g>
        <path id="Path_6220" data-name="Path 6220" d="M333.328,296.105C308.966,283.659,242.3,266.49,242.3,266.49l2.784-19.865-78.356-15.45a186.538,186.538,0,0,0-9.352,27.468c-10.931,47.184,37.137,52.9,46.749,53.521l87.07,15.512-45.985,84.089,32.209,12.412s41.684-62.827,61.63-96.5c7.79-13.151.9-28.191-5.717-31.571" fill="#032849"></path>
        <g id="Group_4766" data-name="Group 4766" opacity="0.3">
          <g id="Group_4765" data-name="Group 4765">
            <g id="Group_4764" data-name="Group 4764" clip-path="url(#clip-path-12)">
              <path id="Path_6221" data-name="Path 6221" d="M227.473,250.814l-33.484-6.471,1.3-5.317,33.359,6.471Z" fill="#fff"></path>
            </g>
          </g>
        </g>
        <g id="Group_4769" data-name="Group 4769" opacity="0.3">
          <g id="Group_4768" data-name="Group 4768">
            <g id="Group_4767" data-name="Group 4767" clip-path="url(#clip-path-13)">
              <path id="Path_6222" data-name="Path 6222" d="M231.189,246l13.6,2.74-.761,5.428-13.917-2.85Z" fill="#fff"></path>
            </g>
          </g>
        </g>
        <g id="Group_4772" data-name="Group 4772" opacity="0.3">
          <g id="Group_4771" data-name="Group 4771">
            <g id="Group_4770" data-name="Group 4770" clip-path="url(#clip-path-14)">
              <path id="Path_6223" data-name="Path 6223" d="M169.709,234.059l23.025,4.465-1.354,5.292-22.95-4.44Z" fill="#fff"></path>
            </g>
          </g>
        </g>
        <g id="Group_4775" data-name="Group 4775" opacity="0.3">
          <g id="Group_4774" data-name="Group 4774">
            <g id="Group_4773" data-name="Group 4773" clip-path="url(#clip-path-15)">
              <path id="Path_6224" data-name="Path 6224" d="M166.072,238.835l-2.186-.552,1.99-5.041,1.525.275Z" fill="#fff"></path>
            </g>
          </g>
        </g>
        <g id="Group_4778" data-name="Group 4778" opacity="0.3" style="mix-blend-mode: normal;isolation: isolate">
          <g id="Group_4777" data-name="Group 4777">
            <g id="Group_4776" data-name="Group 4776" clip-path="url(#clip-path-16)">
              <path id="Path_6225" data-name="Path 6225" d="M242.347,266.289l-39.4-11.427c.8.233,25.729,5.476,39.869,8.093Z"></path>
            </g>
          </g>
        </g>
        <g id="Group_4781" data-name="Group 4781" opacity="0.3" style="mix-blend-mode: normal;isolation: isolate">
          <g id="Group_4780" data-name="Group 4780">
            <g id="Group_4779" data-name="Group 4779" clip-path="url(#clip-path-17)">
              <path id="Path_6226" data-name="Path 6226" d="M291.426,326.717l21.2-6.77S297.98,333.46,286.676,335.4Z"></path>
            </g>
          </g>
        </g>
        <path id="Path_6227" data-name="Path 6227" d="M165.681,116.726c-1.5.078-51.646,35.5-58.683,44.034s-21.113,71.655-21.113,71.655l18.825,4.7,22.923-60.453,42.7-21.812S180.6,135.277,180.892,134.4s-15.211-17.671-15.211-17.671" fill="#007cff"></path>
        <g id="Group_4784" data-name="Group 4784" opacity="0.7">
          <g id="Group_4783" data-name="Group 4783">
            <g id="Group_4782" data-name="Group 4782" clip-path="url(#clip-path-18)">
              <path id="Path_6228" data-name="Path 6228" d="M165.681,116.726c-1.5.078-51.646,35.5-58.683,44.034s-21.113,71.655-21.113,71.655l18.825,4.7,22.923-60.453,42.7-21.812S180.6,135.277,180.892,134.4s-15.211-17.671-15.211-17.671" fill="#fff"></path>
            </g>
          </g>
        </g>
        <path id="Path_6229" data-name="Path 6229" d="M347.868,224.537,289.024,183.88s-19.495-55.593-25.535-64.365c-7.856-11.41-22.82-12.158-22.82-12.158l9.085,47.493s5.271,18.966,10.316,32.607c5.175,13.993,7.2,21.6,19.934,29.173,11.05,6.568,58.249,24.119,58.249,24.119-.818-.273,9.615-16.212,9.615-16.212" fill="#007cff"></path>
        <g id="Group_4787" data-name="Group 4787" opacity="0.7">
          <g id="Group_4786" data-name="Group 4786">
            <g id="Group_4785" data-name="Group 4785" clip-path="url(#clip-path-19)">
              <path id="Path_6230" data-name="Path 6230" d="M347.868,224.537,289.024,183.88s-19.495-55.593-25.535-64.365c-7.856-11.41-22.82-12.158-22.82-12.158l9.085,47.493s5.271,18.966,10.316,32.607c5.175,13.993,7.2,21.6,19.934,29.173,11.05,6.568,58.249,24.119,58.249,24.119-.818-.273,9.615-16.212,9.615-16.212" fill="#fff"></path>
            </g>
          </g>
        </g>
        <path id="Path_6231" data-name="Path 6231" d="M162.474,230.308s-4.027-.266-2.583-3.891,5.79-6.965,5.79-6.965l3.269-23.422-3.269-79.3L180.35,113.1l16.13-3.724,6.884-6.21,18.648-.877,9.139,5.071h9.592c-.085.134,18.881,43.041,14.147,77.289s-8.107,55.9-8.91,58.085c-1.624,4.426-5.15,3.028-5.15,3.028Z" fill="#007cff"></path>
        <g id="Group_4790" data-name="Group 4790" opacity="0.7">
          <g id="Group_4789" data-name="Group 4789">
            <g id="Group_4788" data-name="Group 4788" clip-path="url(#clip-path-20)">
              <path id="Path_6232" data-name="Path 6232" d="M162.474,230.308s-4.027-.266-2.583-3.891,5.79-6.965,5.79-6.965l3.269-23.422-1.634-39.638-1.635-39.666L180.35,113.1l16.13-3.724,6.884-6.21,18.1-.877,9.683,5.071h9.592c-.085.134,18.881,43.041,14.147,77.289s-8.107,55.9-8.91,58.085c-1.624,4.426-5.15,3.028-5.15,3.028Z" fill="#fff"></path>
            </g>
          </g>
        </g>
        <g id="Group_4793" data-name="Group 4793" opacity="0.1">
          <g id="Group_4792" data-name="Group 4792">
            <g id="Group_4791" data-name="Group 4791" clip-path="url(#clip-path-21)">
              <path id="Path_6233" data-name="Path 6233" d="M212.962,238.993l-.047,0a.465.465,0,0,1-.416-.51,698.121,698.121,0,0,0,2.329-115,.468.468,0,0,1,.436-.494.456.456,0,0,1,.492.436,699.333,699.333,0,0,1-2.331,115.151.466.466,0,0,1-.463.417" fill="#1a2e35"></path>
            </g>
          </g>
        </g>
        <g id="Group_4796" data-name="Group 4796" opacity="0.2" style="mix-blend-mode: normal;isolation: isolate">
          <g id="Group_4795" data-name="Group 4795">
            <g id="Group_4794" data-name="Group 4794" clip-path="url(#clip-path-22)">
              <path id="Path_6234" data-name="Path 6234" d="M171.979,167.866l.509,12.344s32.4-23.92,38.832-31.908c8.3-10.318,8.922-16,8.922-16Z"></path>
            </g>
          </g>
        </g>
        <path id="Path_6235" data-name="Path 6235" d="M212.5,126.918l3.833,6.005s-55.074,40.68-106.462,44.108l-3.133,17.517,17.694,3.238S202.526,167.7,220.9,133.3l5.485-8.219-5.849-5.1-1.815,1.179Z" fill="#099"></path>
        <g id="Group_4799" data-name="Group 4799" opacity="0.2" style="mix-blend-mode: normal;isolation: isolate">
          <g id="Group_4798" data-name="Group 4798">
            <g id="Group_4797" data-name="Group 4797" clip-path="url(#clip-path-23)">
              <path id="Path_6236" data-name="Path 6236" d="M255.633,174.109s1.712-24.238,2.051-36.59a178.386,178.386,0,0,1,2.321,19.1c.495,8.311-2.011,25.286-2.011,25.286Z"></path>
            </g>
          </g>
        </g>
        <g id="Group_4802" data-name="Group 4802" opacity="0.2" style="mix-blend-mode: normal;isolation: isolate">
          <g id="Group_4801" data-name="Group 4801">
            <g id="Group_4800" data-name="Group 4800" clip-path="url(#clip-path-24)">
              <path id="Path_6237" data-name="Path 6237" d="M197.344,110.286c.747,1.4,12.682,16.59,12.682,16.59l9.6-6.7c.069-.088-8.349,9.173-8.4,9.261l-2.486.23Z"></path>
            </g>
          </g>
        </g>
        <g id="Group_4805" data-name="Group 4805" opacity="0.2" style="mix-blend-mode: normal;isolation: isolate">
          <g id="Group_4804" data-name="Group 4804">
            <g id="Group_4803" data-name="Group 4803" clip-path="url(#clip-path-25)">
              <path id="Path_6238" data-name="Path 6238" d="M220.537,119.983l7.177,3.132s3.134-7.258,3.3-9.237.033-5.321.033-5.321H232s.818,5.492-.6,9.555c-1.506,4.3-3.306,8.456-3.306,8.456Z"></path>
            </g>
          </g>
        </g>
        <g id="Group_4808" data-name="Group 4808" opacity="0.2" style="mix-blend-mode: normal;isolation: isolate">
          <g id="Group_4807" data-name="Group 4807">
            <g id="Group_4806" data-name="Group 4806" clip-path="url(#clip-path-26)">
              <path id="Path_6239" data-name="Path 6239" d="M289.032,183.86c.536,3.868-1.841,9.1-3.886,12.425,2.423-.9,5.185-2,6.351-4.3s2.049-2.478,1.93-5.06Z"></path>
            </g>
          </g>
        </g>
        <path id="Path_6240" data-name="Path 6240" d="M197.352,71.069S180.938,58.316,181.438,53.81s3.1-3.23,3.1-3.23-5.933-10.59-.6-12.668,5.783-.275,5.783-.275-2.5-8.738,1.677-11.567c3.18-2.178,4.732,1.828,4.732,1.828s5.834-9.922,13.3-10.086c3.7.131,5.61,2.432,5.205,5.293-.018.124-.04.248-.066.37,0,0,14.782-7.174,21.942-3.344s-1.774,8.718-1.774,8.718,14.6-2.13,17.717,3.651c2.474,4.592-3.922,8.016-3.922,8.016a13.839,13.839,0,0,1,4.4,2.4,5.805,5.805,0,0,1-3.2,10.193l-.117.009c-.778.054-2.172.28-2.759-.233,0,0,2.736,5.208-2.622,7.136s-8.194-4.257-8.194-4.257Z" fill="#032849"></path>
        <path id="Path_6241" data-name="Path 6241" d="M203.758,105.376s.571-7.684-5.631-26.048c0-.02.96-.5.96-.518-.856-2.568-1.752-4.938-2.588-6.989a.315.315,0,0,1-.02-.08L222.6,86.358c-.339,5.973,2.3,17.374,3.781,22.172l-6.145,11.445Z" fill="#f9b384"></path>
        <g id="Group_4811" data-name="Group 4811" opacity="0.2">
          <g id="Group_4810" data-name="Group 4810">
            <g id="Group_4809" data-name="Group 4809" clip-path="url(#clip-path-27)">
              <path id="Path_6242" data-name="Path 6242" d="M223.406,94.7,208.62,92.038c1.527,4.495,5.791,9.717,16,9.714a45.226,45.226,0,0,1-1.214-7.051"></path>
            </g>
          </g>
        </g>
        <path id="Path_6243" data-name="Path 6243" d="M238.277,41.633c3.251,5.755,4.876,18.654-4.616,16.364s-.972-26.257,4.616-16.364" fill="#1a2e35"></path>
        <path id="Path_6244" data-name="Path 6244" d="M195.745,59.39c2.418,16.055,3.457,25.159,12.352,32.647,13.378,11.265,32.233,2.332,34.667-14.17,2.19-14.853-2.132-38.613-18.518-43.487-16.145-4.8-30.919,8.955-28.5,25.01" fill="#f9b384"></path>
        <path id="Path_6245" data-name="Path 6245" d="M227.642,84.068c-.151-.03.053.018,0,0" fill="#1a2e35"></path>
        <path id="Path_6246" data-name="Path 6246" d="M201.1,71.682a8.377,8.377,0,0,0,3.5-3.14,7.641,7.641,0,0,0,.359-4.362,43.261,43.261,0,0,0-.842-4.531c1.467.664,3.159-.558,3.889-1.994,1.091-2.147.912-4.7.642-7.089a5.314,5.314,0,0,0,5.048-1.8,4.066,4.066,0,0,0-.148-5.16,46.151,46.151,0,0,0,17.824-1.847c-.371.758.132,1.643.673,2.29a14.1,14.1,0,0,0,8.765,4.871c.5.07,1.11.06,1.367-.371a1.277,1.277,0,0,0,.1-.782,12.537,12.537,0,0,0-4.9-8.244,28.64,28.64,0,0,0-8.761-4.392,54.008,54.008,0,0,0-15.973-3.164,32.075,32.075,0,0,0-15.805,3.407,8.112,8.112,0,0,0-2.809,2.162,8.783,8.783,0,0,0-1.3,3.113,55.506,55.506,0,0,0-1.408,20.477" fill="#032849"></path>
        <path id="Path_6247" data-name="Path 6247" d="M190.558,73.41a15.237,15.237,0,0,0,8.377,8.23c5.028,1.968,8.13-2.42,7.224-7.466-.816-4.541-4.414-11.037-9.7-10.847-5.205.187-7.8,5.461-5.9,10.083" fill="#f9b384"></path>
        <g id="Group_4814" data-name="Group 4814" opacity="0.2">
          <g id="Group_4813" data-name="Group 4813">
            <g id="Group_4812" data-name="Group 4812" clip-path="url(#clip-path-28)">
              <path id="Path_6248" data-name="Path 6248" d="M201.649,73.27a.467.467,0,0,1-.456-.372,7.626,7.626,0,0,0-1.742-3.508,4.684,4.684,0,0,0-2.657-1.625,2.487,2.487,0,0,0-2.536,1.08.465.465,0,1,1-.813-.45,3.406,3.406,0,0,1,3.49-1.549,5.584,5.584,0,0,1,3.213,1.929,8.583,8.583,0,0,1,1.957,3.937.466.466,0,0,1-.363.549.489.489,0,0,1-.093.009"></path>
            </g>
          </g>
        </g>
      </g>
    </g>
  </g>
</svg>
