<?xml version="1.0" encoding="UTF-8"?>
<svg xmlns="http://www.w3.org/2000/svg" xmlns:xlink="http://www.w3.org/1999/xlink" id="Group_4525" data-name="Group 4525" width="58.007" height="48" viewBox="0 0 58.007 48">
  <defs>
    <clipPath id="clip-path">
      <rect id="Rectangle_534" data-name="Rectangle 534" width="58.007" height="48" fill="#fff"></rect>
    </clipPath>
  </defs>
  <g id="Group_4524" data-name="Group 4524" clip-path="url(#clip-path)">
    <path id="Path_5818" data-name="Path 5818" d="M53.171,25.975a.862.862,0,0,0,.719-.985,16.531,16.531,0,1,0,.115,4.23.862.862,0,1,0-1.716-.172,14.8,14.8,0,1,1-.1-3.792A.863.863,0,0,0,53.171,25.975Z" fill="#fff"></path>
    <path id="Path_5819" data-name="Path 5819" d="M38.423,16.74V15.064a.862.862,0,1,0-1.724,0V16.74a.862.862,0,1,0,1.724,0" fill="#fff"></path>
    <path id="Path_5820" data-name="Path 5820" d="M36.7,38.324V40a.862.862,0,0,0,1.724,0V38.324a.862.862,0,0,0-1.724,0" fill="#fff"></path>
    <path id="Path_5821" data-name="Path 5821" d="M48.353,26.67a.862.862,0,0,0,0,1.724h1.676a.862.862,0,0,0,0-1.724Z" fill="#fff"></path>
    <path id="Path_5822" data-name="Path 5822" d="M25.093,26.67a.862.862,0,0,0,0,1.724h1.676a.862.862,0,1,0,0-1.724Z" fill="#fff"></path>
    <path id="Path_5823" data-name="Path 5823" d="M45.768,36.958a.862.862,0,1,0,1.219-1.219L45.8,34.554a.862.862,0,0,0-1.219,1.219Z" fill="#fff"></path>
    <path id="Path_5824" data-name="Path 5824" d="M30.54,19.292l-1.185-1.185a.862.862,0,1,0-1.219,1.219l1.185,1.185a.862.862,0,0,0,1.219-1.219" fill="#fff"></path>
    <path id="Path_5825" data-name="Path 5825" d="M29.32,34.554l-1.185,1.185a.862.862,0,0,0,1.219,1.219l1.185-1.185a.862.862,0,0,0-1.219-1.219" fill="#fff"></path>
    <path id="Path_5826" data-name="Path 5826" d="M46.987,18.107a.861.861,0,0,0-1.219,0l-1.185,1.185A.862.862,0,0,0,45.8,20.511l1.185-1.185a.861.861,0,0,0,0-1.219" fill="#fff"></path>
    <path id="Path_5827" data-name="Path 5827" d="M40.5,7.321V5.7h1.528a1.422,1.422,0,0,0,1.42-1.42V1.421A1.422,1.422,0,0,0,42.031,0H33.092a1.423,1.423,0,0,0-1.421,1.421V4.276A1.422,1.422,0,0,0,33.092,5.7H34.62V7.321a20.466,20.466,0,0,0-17.345,22.8.862.862,0,0,0,1.711-.214,18.96,18.96,0,0,1-.146-2.35,18.7,18.7,0,1,1,1.012,6.088.862.862,0,1,0-1.631.561A20.448,20.448,0,1,0,40.5,7.321ZM33.4,1.724h8.332V3.972H33.4Zm2.948,5.421V5.7h2.435V7.145a20.356,20.356,0,0,0-2.382,0Z" fill="#fff"></path>
    <path id="Path_5828" data-name="Path 5828" d="M39.974,28.417h4.57a.862.862,0,0,0,0-1.724h-4.57a2.568,2.568,0,1,0,0,1.724M37.561,28.4a.845.845,0,1,1,.844-.844.866.866,0,0,1-.844.844" fill="#fff"></path>
    <path id="Path_5829" data-name="Path 5829" d="M14.887,26.79l-14.025,0a.862.862,0,1,0,0,1.724l14.025,0a.862.862,0,1,0,0-1.724Z" fill="#fff"></path>
    <path id="Path_5830" data-name="Path 5830" d="M14.888,20.69H4.529a.862.862,0,1,0,0,1.724H14.888a.862.862,0,1,0,0-1.724Z" fill="#fff"></path>
    <path id="Path_5831" data-name="Path 5831" d="M14.886,32.891H4.527a.862.862,0,1,0,0,1.724h10.36a.862.862,0,0,0,0-1.724Z" fill="#fff"></path>
  </g>
</svg>
