<?xml version="1.0" encoding="UTF-8"?>
<svg xmlns="http://www.w3.org/2000/svg" xmlns:xlink="http://www.w3.org/1999/xlink" id="Group_4515" data-name="Group 4515" width="46.452" height="48" viewBox="0 0 46.452 48">
  <defs>
    <clipPath id="clip-path">
      <rect id="Rectangle_519" data-name="Rectangle 519" width="46.452" height="48" fill="#fff"></rect>
    </clipPath>
  </defs>
  <g id="Group_4514" data-name="Group 4514" clip-path="url(#clip-path)">
    <path id="Path_5782" data-name="Path 5782" d="M31.742,16.4a.774.774,0,0,0-.774-.775h-.98a7.049,7.049,0,0,0-.439-1.055l.695-.694a.775.775,0,0,0,0-1.1l-1.991-1.991a.775.775,0,0,0-1.095,0l-.694.7a7,7,0,0,0-1.056-.439v-.981a.774.774,0,0,0-.774-.774H21.818a.775.775,0,0,0-.774.774v.981a6.946,6.946,0,0,0-1.055.439l-.695-.7a.774.774,0,0,0-1.094,0L16.209,12.78a.774.774,0,0,0,0,1.094h0l.694.694a7.045,7.045,0,0,0-.438,1.055h-.981a.775.775,0,0,0-.774.775v2.815a.774.774,0,0,0,.774.774h.981a7.056,7.056,0,0,0,.438,1.056l-.694.694a.775.775,0,0,0,0,1.095L18.2,24.824a.774.774,0,0,0,1.094,0l.695-.695a7.049,7.049,0,0,0,1.055.439v.98a.775.775,0,0,0,.775.775h2.815a.774.774,0,0,0,.774-.775v-.98a7.1,7.1,0,0,0,1.056-.439l.694.695a.775.775,0,0,0,1.095,0l1.991-1.991a.774.774,0,0,0,0-1.094h0l-.695-.694a7.1,7.1,0,0,0,.439-1.056h.98a.773.773,0,0,0,.774-.774ZM30.194,18.44h-.269a1.477,1.477,0,0,0-1.4,1.048,5.613,5.613,0,0,1-.362.871,1.478,1.478,0,0,0,.25,1.735l.191.192-.9.9-.191-.192a1.478,1.478,0,0,0-1.735-.25,5.517,5.517,0,0,1-.871.362,1.478,1.478,0,0,0-1.048,1.4v.269H22.593V24.5a1.479,1.479,0,0,0-1.048-1.4,5.387,5.387,0,0,1-.871-.362,1.481,1.481,0,0,0-1.736.25l-.191.192-.9-.9.191-.192a1.476,1.476,0,0,0,.25-1.735,5.474,5.474,0,0,1-.361-.871,1.479,1.479,0,0,0-1.4-1.048h-.269V17.173h.269a1.479,1.479,0,0,0,1.4-1.048,5.513,5.513,0,0,1,.361-.871,1.476,1.476,0,0,0-.25-1.735l-.191-.192.9-.9.191.192a1.476,1.476,0,0,0,1.735.249,5.524,5.524,0,0,1,.872-.361,1.479,1.479,0,0,0,1.048-1.4v-.269H23.86v.269a1.478,1.478,0,0,0,1.048,1.4,5.513,5.513,0,0,1,.871.361,1.476,1.476,0,0,0,1.735-.249l.191-.192.9.9-.191.192a1.478,1.478,0,0,0-.25,1.735,5.573,5.573,0,0,1,.362.871,1.477,1.477,0,0,0,1.4,1.048h.269Z" fill="#fff"></path>
    <path id="Path_5783" data-name="Path 5783" d="M23.226,13.161a4.645,4.645,0,1,0,4.645,4.645,4.645,4.645,0,0,0-4.645-4.645m0,7.742a3.1,3.1,0,1,1,3.1-3.1,3.1,3.1,0,0,1-3.1,3.1" fill="#fff"></path>
    <path id="Path_5784" data-name="Path 5784" d="M.774,48h44.9a.775.775,0,0,0,.712-1.079L41.744,36.082a.774.774,0,0,0-.712-.469h-9.29v1.548h8.78L44.5,46.452H1.948L5.93,37.161h8.779V35.613H5.419a.772.772,0,0,0-.711.469L.063,46.921a.773.773,0,0,0,.406,1.016A.761.761,0,0,0,.774,48Z" fill="#fff"></path>
    <rect id="Rectangle_510" data-name="Rectangle 510" width="1.548" height="4.645" transform="translate(20.903 28.645)" fill="#fff"></rect>
    <rect id="Rectangle_511" data-name="Rectangle 511" width="1.548" height="1.548" transform="translate(20.903 34.839)" fill="#fff"></rect>
    <rect id="Rectangle_512" data-name="Rectangle 512" width="1.548" height="3.871" transform="translate(20.903 37.935)" fill="#fff"></rect>
    <rect id="Rectangle_513" data-name="Rectangle 513" width="1.548" height="5.419" transform="translate(24 28.645)" fill="#fff"></rect>
    <rect id="Rectangle_514" data-name="Rectangle 514" width="1.548" height="6.194" transform="translate(24 35.613)" fill="#fff"></rect>
    <rect id="Rectangle_515" data-name="Rectangle 515" width="1.548" height="6.968" transform="translate(27.097 30.194)" fill="#fff"></rect>
    <rect id="Rectangle_516" data-name="Rectangle 516" width="1.548" height="1.548" transform="translate(17.807 38.71)" fill="#fff"></rect>
    <rect id="Rectangle_517" data-name="Rectangle 517" width="1.548" height="7.742" transform="translate(17.807 29.419)" fill="#fff"></rect>
    <rect id="Rectangle_518" data-name="Rectangle 518" width="1.548" height="1.548" transform="translate(27.097 38.71)" fill="#fff"></rect>
    <path id="Path_5785" data-name="Path 5785" d="M35.613,2.323a.774.774,0,0,0-.774.774V7.742a.774.774,0,0,0,.774.774h2.323v1.549H36.387a.774.774,0,0,0-.774.774V14.71a.775.775,0,0,0,.774.774h3.871a.774.774,0,0,0,.774-.774V13.161H44.9a.774.774,0,0,0,.775-.774V6.194a.775.775,0,0,0-.775-.775H41.032V3.1a.773.773,0,0,0-.774-.774Zm.774,4.645v-3.1h3.1V5.419H38.71a.774.774,0,0,0-.774.775v.774Zm3.1,6.967H37.161V11.613h.775v.774a.773.773,0,0,0,.774.774h.774Zm4.645-2.322H39.484V6.968h4.645Z" fill="#fff"></path>
    <path id="Path_5786" data-name="Path 5786" d="M25.549,6.194a.775.775,0,0,0,.774-.775V.774A.775.775,0,0,0,25.549,0H20.9a.775.775,0,0,0-.774.774V5.419a.775.775,0,0,0,.774.775ZM21.678,1.548h3.1v3.1h-3.1Z" fill="#fff"></path>
    <path id="Path_5787" data-name="Path 5787" d="M1.549,23.226H6.194a.773.773,0,0,0,.774-.774V20.129h3.871a.773.773,0,0,0,.774-.774V13.162a.774.774,0,0,0-.774-.775H4.646a.775.775,0,0,0-.775.775v3.871H1.549a.773.773,0,0,0-.774.774v4.645a.773.773,0,0,0,.774.774m3.871-9.29h4.645v4.645H5.42Zm-3.1,4.645H3.871v.774a.774.774,0,0,0,.775.774H5.42v1.549h-3.1Z" fill="#fff"></path>
    <path id="Path_5788" data-name="Path 5788" d="M6.194,10.065h3.871a.775.775,0,0,0,.774-.775V5.419a.775.775,0,0,0-.774-.774H6.194a.774.774,0,0,0-.774.774V9.29a.774.774,0,0,0,.774.775m.774-3.871H9.291V8.517H6.968Z" fill="#fff"></path>
    <path id="Path_5789" data-name="Path 5789" d="M34.839,23.226a.773.773,0,0,0-.774.774v3.1a.774.774,0,0,0,.774.774h3.1a.775.775,0,0,0,.774-.774V24a.774.774,0,0,0-.774-.774Zm2.322,3.1H35.613V24.775h1.548Z" fill="#fff"></path>
    <path id="Path_5790" data-name="Path 5790" d="M7.5,39.484h5.657V37.936H6.968a.774.774,0,0,0-.725.5L3.92,44.632a.776.776,0,0,0,.725,1.046H41.806a.775.775,0,0,0,.775-.775.757.757,0,0,0-.05-.271l-2.322-6.194a.776.776,0,0,0-.725-.5H33.29v1.548h5.657l1.742,4.645H5.762Z" fill="#fff"></path>
  </g>
</svg>
