<svg id="GST-return" xmlns="http://www.w3.org/2000/svg" width="49.779" height="49.994" viewBox="0 0 49.779 49.994">
  <path id="Path_5317" data-name="Path 5317" d="M61.631,16H26.785a4.153,4.153,0,0,0-4.148,4.148V59.142H16.83a.83.83,0,0,0-.83.83v1.659a4.153,4.153,0,0,0,4.148,4.148h9.126V64.12H20.148a2.492,2.492,0,0,1-2.489-2.489V60.8H29.274V59.142H24.3V20.148a2.492,2.492,0,0,1,2.489-2.489H58.314a4.127,4.127,0,0,0-.832,2.489V30.934h1.659v-8.3h5.808a.83.83,0,0,0,.83-.83V20.148A4.153,4.153,0,0,0,61.631,16Zm2.489,4.978H59.142v-.83a2.489,2.489,0,0,1,4.978,0Z" transform="translate(-16 -16)" fill="#0c3761"/>
  <path id="Path_5318" data-name="Path 5318" d="M120,176h12.445v1.659H120Z" transform="translate(-109.215 -159.407)" fill="#0c3761"/>
  <path id="Path_5319" data-name="Path 5319" d="M194.2,272.7l-1.045-.232a26.839,26.839,0,0,0-13.155.392l-2.575.736a25.222,25.222,0,0,1-16.215-.829l-.067-.027a.83.83,0,0,0-1.138.77V292.59a.83.83,0,0,0,.522.77l.067.027a26.885,26.885,0,0,0,17.287.884l2.575-.736a25.172,25.172,0,0,1,12.339-.368l1.045.232a.83.83,0,0,0,1.01-.81V273.508a.83.83,0,0,0-.65-.81Zm-1.01,18.857-.036-.008A26.839,26.839,0,0,0,180,291.94l-2.575.736a25.227,25.227,0,0,1-15.761-.653V274.707a26.9,26.9,0,0,0,16.217.483l2.575-.736h0a25.172,25.172,0,0,1,12.339-.368l.4.088Z" transform="translate(-145.066 -245.3)" fill="#0c3761"/>
  <path id="Path_5320" data-name="Path 5320" d="M270.637,320A6.645,6.645,0,0,0,264,326.637h1.659a4.977,4.977,0,1,1,.892,2.844.83.83,0,0,0-1.464.748l1.448,4.148,1.567-.547-.44-1.262A6.637,6.637,0,1,0,270.637,320Z" transform="translate(-238.281 -288.473)" fill="#0c3761"/>
  <path id="Path_5321" data-name="Path 5321" d="M214.846,390.292l-.3,1.632a26.829,26.829,0,0,0,3.425.408l.089-1.657A25.2,25.2,0,0,1,214.846,390.292Z" transform="translate(-193.954 -351.476)" fill="#0c3761"/>
  <path id="Path_5322" data-name="Path 5322" d="M410.815,369.715l.108-1.656a26.847,26.847,0,0,0-3.425,0l.1,1.656A25.2,25.2,0,0,1,410.815,369.715Z" transform="translate(-366.898 -331.498)" fill="#0c3761"/>
  <path id="Path_5323" data-name="Path 5323" d="M192.32,322.827a.83.83,0,0,0-.32.655v4.7h1.659v-3.658a26.793,26.793,0,0,0,4.96.575l.036-1.659a25.141,25.141,0,0,1-5.622-.765A.831.831,0,0,0,192.32,322.827Z" transform="translate(-173.748 -290.851)" fill="#0c3761"/>
  <path id="Path_5324" data-name="Path 5324" d="M405.235,304.227a26.791,26.791,0,0,0-5.993-.1l.157,1.652a25.147,25.147,0,0,1,4.9.014v3.192h1.659v-3.931a.83.83,0,0,0-.722-.823Z" transform="translate(-359.498 -274.135)" fill="#0c3761"/>
  <path id="Path_5325" data-name="Path 5325" d="M404.3,395.437a26.791,26.791,0,0,0-5.056,0l.157,1.652a25.131,25.131,0,0,1,5.622.1.83.83,0,0,0,.937-.823V392H404.3Z" transform="translate(-359.498 -353.006)" fill="#0c3761"/>
  <path id="Path_5326" data-name="Path 5326" d="M193.659,416H192v3.594a.83.83,0,0,0,.626.8,26.789,26.789,0,0,0,5.993.816l.036-1.659a25.143,25.143,0,0,1-5-.615Z" transform="translate(-173.748 -374.518)" fill="#0c3761"/>
  <path id="Path_5327" data-name="Path 5327" d="M0,0H7.421V1.659H0Z" transform="translate(29.932 41.116) rotate(-63.435)" fill="#0c3761"/>
  <path id="Path_5328" data-name="Path 5328" d="M296,360h1.659v1.659H296Z" transform="translate(-266.962 -324.325)" fill="#0c3761"/>
  <path id="Path_5329" data-name="Path 5329" d="M336,400h1.659v1.659H336Z" transform="translate(-302.814 -360.177)" fill="#0c3761"/>
  <path id="Path_5330" data-name="Path 5330" d="M278.4,176H258.489A2.492,2.492,0,0,0,256,178.489v8.3h1.659V184.3H279.23v.83h1.659v-6.637A2.492,2.492,0,0,0,278.4,176Zm-20.741,6.637v-4.148a.831.831,0,0,1,.83-.83H278.4a.831.831,0,0,1,.83.83v4.148Z" transform="translate(-231.111 -159.407)" fill="#0c3761"/>
  <path id="Path_5331" data-name="Path 5331" d="M288,208h1.659v1.659H288Z" transform="translate(-259.792 -188.089)" fill="#0c3761"/>
  <path id="Path_5332" data-name="Path 5332" d="M320,208h1.659v1.659H320Z" transform="translate(-288.473 -188.089)" fill="#0c3761"/>
  <path id="Path_5333" data-name="Path 5333" d="M352,208h1.659v1.659H352Z" transform="translate(-317.155 -188.089)" fill="#0c3761"/>
  <path id="Path_5334" data-name="Path 5334" d="M200,56h11.615v1.659H200Z" transform="translate(-180.918 -51.852)" fill="#0c3761"/>
  <path id="Path_5335" data-name="Path 5335" d="M264,96h3.319v1.659H264Z" transform="translate(-238.281 -87.704)" fill="#0c3761"/>
  <path id="Path_5336" data-name="Path 5336" d="M312,96h3.319v1.659H312Z" transform="translate(-281.303 -87.704)" fill="#0c3761"/>
  <path id="Path_5337" data-name="Path 5337" d="M168,96h3.319v1.659H168Z" transform="translate(-152.237 -87.704)" fill="#0c3761"/>
  <path id="Path_5338" data-name="Path 5338" d="M216,96h3.319v1.659H216Z" transform="translate(-195.259 -87.704)" fill="#0c3761"/>
  <path id="Path_5339" data-name="Path 5339" d="M120,136h13.274v1.659H120Z" transform="translate(-109.215 -123.555)" fill="#0c3761"/>
  <path id="Path_5340" data-name="Path 5340" d="M264,136h13.274v1.659H264Z" transform="translate(-238.281 -123.555)" fill="#0c3761"/>
  <path id="Path_5341" data-name="Path 5341" d="M120,216h12.445v1.659H120Z" transform="translate(-109.215 -195.259)" fill="#0c3761"/>
  <path id="Path_5342" data-name="Path 5342" d="M120,256h4.148v1.659H120Z" transform="translate(-109.215 -231.111)" fill="#0c3761"/>
  <path id="Path_5343" data-name="Path 5343" d="M120,296h2.489v1.659H120Z" transform="translate(-109.215 -266.962)" fill="#0c3761"/>
  <path id="Path_5344" data-name="Path 5344" d="M120,336h2.489v1.659H120Z" transform="translate(-109.215 -302.814)" fill="#0c3761"/>
  <path id="Path_5345" data-name="Path 5345" d="M120,376h2.489v1.659H120Z" transform="translate(-109.215 -338.666)" fill="#0c3761"/>
</svg>
