<svg id="Capa_1" enable-background="new 0 0 512 512" height="512" viewBox="0 0 512 512" width="512" xmlns="http://www.w3.org/2000/svg"><g><g><path d="m256 30c41.258 0 81.624 11.366 116.633 32.461l-20.268 3.574c-8.158 1.438-13.606 9.218-12.167 17.377 1.439 8.158 9.218 13.606 17.377 12.167l55.942-9.865c8.158-1.438 13.606-9.218 12.167-17.377l-9.864-55.94c-1.439-8.158-9.219-13.606-17.377-12.167h-.001c-8.158 1.439-13.606 9.219-12.167 17.377l3.564 20.215c-40.054-24.567-86.425-37.822-133.839-37.822-68.38 0-132.667 26.629-181.02 74.98-48.352 48.353-74.98 112.64-74.98 181.02 0 8.284 6.716 15 15 15s15-6.716 15-15c0-124.617 101.383-226 226-226z" fill="#00607f"/><g><path d="m425.684 68.338-9.864-55.94c-1.439-8.158-9.219-13.606-17.377-12.167h-.001c-8.158 1.439-13.606 9.219-12.167 17.377l3.564 20.215c-40.054-24.568-86.425-37.823-133.839-37.823v30c41.258 0 81.624 11.366 116.633 32.461l-20.268 3.574c-8.158 1.438-13.606 9.218-12.167 17.377 1.439 8.158 9.218 13.606 17.377 12.167l55.942-9.865c8.158-1.438 13.605-9.218 12.167-17.376z" fill="#08475e"/></g><path d="m497 241c-8.284 0-15 6.716-15 15 0 124.617-101.383 226-226 226-41.258 0-81.623-11.366-116.633-32.462l20.267-3.574c8.158-1.438 13.606-9.218 12.167-17.377-1.439-8.158-9.218-13.606-17.377-12.167l-55.942 9.865c-8.158 1.438-13.606 9.218-12.167 17.376l9.864 55.94c1.439 8.158 9.219 13.606 17.377 12.167h.001c8.158-1.439 13.606-9.219 12.167-17.377l-3.565-20.215c40.056 24.568 86.428 37.824 133.841 37.824 68.38 0 132.667-26.629 181.02-74.98 48.352-48.353 74.98-112.64 74.98-181.02 0-8.284-6.716-15-15-15z" fill="#00607f"/><g><path d="m497 241c-8.284 0-15 6.716-15 15 0 124.617-101.383 226-226 226v30c68.38 0 132.667-26.629 181.02-74.98 48.352-48.353 74.98-112.64 74.98-181.02 0-8.284-6.716-15-15-15z" fill="#08475e"/></g></g><g><path d="m419.436 217.869-23.431-5.513c-2.632-8.452-6.027-16.639-10.152-24.483l12.676-20.477c3.664-5.919 2.775-13.58-2.147-18.502l-33.275-33.275c-4.922-4.923-12.584-5.812-18.501-2.147l-20.477 12.676c-7.845-4.125-16.032-7.521-24.483-10.152l-5.514-23.431c-1.596-6.776-7.642-11.565-14.603-11.565h-47.059c-6.961 0-13.007 4.789-14.601 11.564l-5.514 23.431c-8.451 2.632-16.638 6.027-24.483 10.152l-20.477-12.676c-5.918-3.665-13.581-2.774-18.501 2.147l-33.275 33.275c-4.922 4.922-5.812 12.583-2.147 18.502l12.676 20.477c-4.125 7.845-7.52 16.031-10.152 24.483l-23.431 5.513c-6.776 1.596-11.565 7.642-11.565 14.603v47.059c0 6.961 4.789 13.007 11.564 14.602l23.431 5.513c2.632 8.452 6.027 16.639 10.152 24.483l-12.676 20.477c-3.664 5.919-2.775 13.58 2.147 18.502l33.275 33.275c4.922 4.923 12.584 5.812 18.501 2.147l20.477-12.676c7.845 4.125 16.032 7.521 24.483 10.152l5.514 23.431c1.594 6.775 7.64 11.564 14.601 11.564h47.059c6.961 0 13.007-4.789 14.601-11.564l5.514-23.431c8.451-2.632 16.638-6.027 24.483-10.152l20.477 12.676c5.917 3.663 13.58 2.772 18.501-2.147l33.275-33.275c4.922-4.922 5.812-12.583 2.147-18.502l-12.676-20.477c4.125-7.845 7.52-16.032 10.152-24.483l23.431-5.513c6.776-1.595 11.564-7.641 11.564-14.602v-47.059c.003-6.961-4.786-13.007-11.561-14.602zm-163.436 108.131c-38.66 0-70-31.34-70-70s31.34-70 70-70 70 31.34 70 70-31.34 70-70 70z" fill="#e2dff4"/></g><g><path d="m419.436 217.869-23.431-5.513c-2.632-8.452-6.027-16.639-10.152-24.483l12.676-20.477c3.664-5.919 2.775-13.58-2.147-18.502l-33.275-33.275c-4.922-4.923-12.584-5.812-18.501-2.147l-20.477 12.676c-7.845-4.125-16.032-7.521-24.483-10.152l-5.514-23.431c-1.596-6.776-7.642-11.565-14.603-11.565h-23.529v105c38.66 0 70 31.34 70 70s-31.34 70-70 70v105h23.529c6.961 0 13.007-4.789 14.601-11.564l5.514-23.431c8.451-2.632 16.638-6.027 24.483-10.152l20.477 12.676c5.917 3.663 13.58 2.772 18.501-2.147l33.275-33.275c4.922-4.922 5.812-12.583 2.147-18.502l-12.676-20.477c4.125-7.845 7.52-16.032 10.152-24.483l23.431-5.513c6.776-1.595 11.564-7.641 11.564-14.602v-47.059c.002-6.961-4.787-13.007-11.562-14.602z" fill="#bebcdd"/></g><g><path d="m256 341c-46.869 0-85-38.131-85-85s38.131-85 85-85 85 38.131 85 85-38.131 85-85 85zm0-140c-30.327 0-55 24.673-55 55s24.673 55 55 55 55-24.673 55-55-24.673-55-55-55z" fill="#f9f9f9"/></g><path d="m256 171v30c30.327 0 55 24.673 55 55s-24.673 55-55 55v30c46.869 0 85-38.131 85-85s-38.131-85-85-85z" fill="#e2dff4"/></g></svg>