<svg clip-rule="evenodd" fill-rule="evenodd" height="512" image-rendering="optimizeQuality" shape-rendering="geometricPrecision" text-rendering="geometricPrecision" viewBox="0 0 1707 1707" width="512" xmlns="http://www.w3.org/2000/svg"><g id="Layer_x0020_1"><g id="_557056448"><g><path d="m1312 1395h-175c-16 0-28-13-28-29v-79c-10-3-20-8-27-11l-58 55c-11 12-28 12-39 0l-123-122c-11-11-11-29 0-40l56-57c-5-9-8-17-11-27h-80c-16 0-28-13-28-29v-173c0-16 12-28 28-28h80c3-10 6-19 11-27l-56-56c-11-11-11-29 0-40l123-124c4-5 12-8 19-8 8 0 14 3 19 8l57 57c8-4 17-8 27-11v-79c0-16 13-29 29-29h173c16 0 28 13 28 29v79c10 3 18 7 27 11l56-57c5-5 13-8 19-8 8 0 14 3 19 8l124 124c5 5 8 13 8 19 0 8-3 15-8 19l-57 56c5 10 8 19 11 27h80c15 0 28 13 28 29v173c0 16-13 28-28 28h-80c-3 10-8 20-11 27l57 58c5 4 8 12 8 19 0 6-3 14-8 19l-121 125c-11 12-28 12-39 0l-56-55c-8 3-17 8-27 11v79c0 16-13 29-27 29zm-87-580c-86 0-156 70-156 156 0 85 70 155 156 155 85 0 155-70 155-155 0-86-70-156-155-156z" fill="#ff4500"/><path d="m1225 1184c-118 0-212-96-212-212s96-213 212-213 211 96 211 212-94 213-211 213zm0-369c-86 0-156 70-156 156 0 85 70 155 156 155 85 0 155-70 155-155 0-86-70-156-155-156z" fill="#ba3200"/></g><g><path d="m1113 1382c-3-4-4-10-4-16v-3c2 6 3 12 4 19zm-26-104c-2-1-4-2-5-2l-58 55c-11 12-28 12-39 0l-123-122c-11-11-11-29 0-40l56-57c-5-9-8-17-11-27h-80c-16 0-28-13-28-29v-173c0-16 12-28 28-28h80c3-10 6-19 11-27l-56-56c-11-11-11-29 0-40l123-124c4-5 12-8 19-8 8 0 14 3 19 8l57 57c8-4 17-8 27-11v-79c0-16 13-29 29-29h90c15 45 24 94 24 144 0 49-7 88-19 125-2 0-4 0-6 0-86 0-156 70-156 156 0 44 19 84 49 113-17 62-26 129-31 194z" fill="#cf3800"/><path d="m1104 1146c-55-38-91-102-91-174 0-116 96-213 212-213 6 0 13 1 19 1-3 19-7 37-13 55-2 0-4 0-6 0-86 0-156 70-156 156 0 44 19 84 49 113-6 20-10 41-14 62z" fill="#962900"/></g><g><path d="m801 1707c-70 0-129-59-129-129 0-14 12-25 25-25h210c14 0 25 11 25 25-3 70-60 129-131 129z" fill="#4d4d4d"/><path d="m930 1601h-258c-33 0-61-27-61-61 0-33 28-61 61-61h258c34 0 61 28 61 61 0 34-27 61-61 61z" fill="#99a4ac"/><path d="m613 1554c-1-4-2-9-2-14 0-33 28-61 61-61h258c34 0 61 28 61 61 0 5 0 10-1 14-2 0-3 0-4 0h-369c-1 0-3 0-4 0z" fill="#8a949b"/><path d="m1030 1379h-457c-14 0-25-11-25-24 0-251-54-351-101-439-35-63-67-123-67-226 0-231 189-420 421-420 233 0 422 189 422 420 0 103-32 163-67 226-47 88-101 188-101 439-1 13-11 24-25 24z" fill="#ffd300"/><path d="m986 1528h-369c-33 0-61-28-61-63 0-33 28-61 61-61h369c33 0 61 28 61 61 0 35-27 63-61 63z" fill="#99a4ac"/><path d="m557 1477c-1-4-1-7-1-12 0-33 28-61 61-61h369c33 0 61 28 61 61 0 5-1 8-1 12-7 2-13 3-20 3h-449c-7 0-14-1-20-3z" fill="#8a949b"/><g fill="#ffbe00"><path d="m801 211c-13 0-25-11-25-25v-161c0-14 12-25 25-25 14 0 25 11 25 25v161c0 14-11 25-25 25z"/><path d="m1077 284c-4 0-8-1-12-3-11-6-15-20-10-33l81-140c8-11 22-15 34-10 11 7 15 21 10 34l-80 140c-6 8-14 12-23 12z"/><path d="m1280 487c-9 0-17-5-21-13-7-11-3-26 8-33l140-81c11-6 27-2 34 9 6 11 2 26-9 33l-140 80c-4 3-8 5-12 5z"/><path d="m526 284c-9 0-17-4-21-12l-82-140c-7-11-3-27 8-34 11-6 27-2 34 9l81 141c7 11 3 27-8 33-4 2-8 3-12 3z"/><path d="m323 487c-4 0-8-2-12-3l-139-82c-11-7-15-22-8-33s22-15 33-9l140 81c11 7 15 22 8 33-5 8-14 13-22 13z"/><path d="m248 763h-161c-13 0-25-12-25-25 0-14 12-25 25-25h161c14 0 25 11 25 25 0 13-11 25-25 25z"/></g><path d="m1026 1453h-449c-33 0-61-28-61-61s28-61 61-61h449c33 0 61 28 61 61s-28 61-61 61z" fill="#99a4ac"/></g></g></g></svg>