<svg id="Layer_1_1_" enable-background="new 0 0 64 64" height="512" viewBox="0 0 64 64" width="512" xmlns="http://www.w3.org/2000/svg"><circle cx="32" cy="32" fill="#fff" r="19"/><path d="m33 22h-2c-3.314 0-7.56 2.716-8 6v2h7c2.209 0 4-1.791 4-4l.894 1.789c.678 1.355 2.063 2.211 3.578 2.211h2.528v-2c-.307-3.025-4.894-6-8-6z" fill="#633f0e"/><path d="m59 27h-3.006c-.881 0-1.663-.576-1.909-1.422-.474-1.632-1.123-3.188-1.927-4.648-.426-.773-.282-1.734.342-2.359l2.127-2.127c.781-.781.781-2.047 0-2.828l-4.243-4.243c-.781-.781-2.047-.781-2.828 0l-2.127 2.127c-.624.624-1.585.768-2.359.342-1.46-.804-3.016-1.453-4.648-1.927-.846-.245-1.422-1.027-1.422-1.909v-3.006c0-1.105-.895-2-2-2h-6c-1.105 0-2 .895-2 2v3.006c0 .881-.576 1.663-1.422 1.909-1.632.474-3.188 1.123-4.648 1.927-.773.426-1.734.282-2.359-.342l-2.127-2.127c-.781-.781-2.047-.781-2.828 0l-4.243 4.243c-.781.781-.781 2.047 0 2.828l2.127 2.127c.624.624.768 1.585.342 2.359-.804 1.46-1.453 3.016-1.927 4.648-.245.846-1.027 1.422-1.909 1.422h-3.006c-1.105 0-2 .895-2 2v6c0 1.105.895 2 2 2h3.006c.881 0 1.663.576 1.909 1.422.474 1.632 1.123 3.188 1.927 4.648.426.773.282 1.734-.342 2.359l-2.127 2.127c-.781.781-.781 2.047 0 2.828l4.243 4.243c.781.781 2.047.781 2.828 0l2.127-2.127c.624-.624 1.585-.768 2.359-.342 1.46.804 3.016 1.453 4.648 1.927.846.245 1.422 1.027 1.422 1.909v3.006c0 1.105.895 2 2 2h6c1.105 0 2-.895 2-2v-3.006c0-.881.576-1.663 1.422-1.909 1.632-.474 3.188-1.123 4.648-1.927.773-.426 1.734-.282 2.359.342l2.127 2.127c.781.781 2.047.781 2.828 0l4.243-4.243c.781-.781.781-2.047 0-2.828l-2.127-2.127c-.624-.624-.768-1.585-.342-2.359.804-1.46 1.453-3.016 1.927-4.648.245-.846 1.027-1.422 1.909-1.422h3.006c1.105 0 2-.895 2-2v-6c0-1.105-.895-2-2-2zm-27 24c-10.493 0-19-8.507-19-19s8.507-19 19-19 19 8.507 19 19-8.507 19-19 19z" fill="#3449a3"/><g fill="#2e4191"><path d="m10.348 37.865c.396 1.366.926 2.674 1.56 3.919.605-.612.744-1.548.329-2.303-.788-1.431-1.425-2.957-1.889-4.557-.241-.83-1.007-1.395-1.871-1.395h-2.948c-1.083 0-1.961-.878-1.961-1.961v2.941c0 1.083.878 1.961 1.961 1.961h2.947c.865.001 1.631.565 1.872 1.395z"/><path d="m58.471 33.529h-2.947c-.864 0-1.631.565-1.871 1.395-.464 1.6-1.101 3.125-1.889 4.557-.416.755-.276 1.691.329 2.303.635-1.245 1.164-2.553 1.56-3.919.241-.83 1.007-1.395 1.871-1.395h2.947c1.083 0 1.961-.878 1.961-1.961v-2.941c-.001 1.084-.879 1.961-1.961 1.961z"/><path d="m27.098 52.151c0-.864-.565-1.63-1.395-1.871-1.6-.464-3.125-1.101-4.557-1.889-.758-.417-1.7-.277-2.312.335l-2.086 2.086c-.766.766-2.007.766-2.773 0l-4.075-4.076-.084.084c-.766.766-.766 2.007 0 2.773l4.159 4.159c.766.766 2.007.766 2.773 0l2.086-2.086c.612-.612 1.554-.753 2.312-.335 1.431.788 2.957 1.425 4.557 1.889.83.241 1.395 1.007 1.395 1.871z"/><path d="m54.542 47.471-4.157 4.157c-.781.781-2.047.781-2.828 0l-2.128-2.128c-.624-.624-1.585-.768-2.359-.342-1.46.804-3.016 1.453-4.648 1.927-.846.245-1.422 1.027-1.422 1.909v3c0-.881.576-1.663 1.422-1.909 1.632-.474 3.188-1.123 4.648-1.927.773-.426 1.734-.282 2.359.342l2.127 2.127c.781.781 2.047.781 2.828 0l4.243-4.243c.781-.781.781-2.047 0-2.828z"/><path d="m34.941 57.059h-5.882c-1.083 0-1.961-.878-1.961-1.961v2.941c0 1.083.878 1.961 1.961 1.961h5.882c1.083 0 1.961-.878 1.961-1.961v-2.941c0 1.083-.878 1.961-1.961 1.961z"/></g><path d="m40 36v2.723l-.736 1.227c-1.023 1.705-2.547 2.994-4.365 3.714-.376-1.528-1.757-2.664-3.399-2.664-1.93 0-3.5 1.57-3.5 3.5v.5c0 .552.448 1 1 1h4.997.003c.081 0 .163-.01.243-.03 2.838-.709 5.231-2.482 6.736-4.991l.879-1.464c.093-.156.142-.334.142-.515v-3z" fill="#545454"/><path d="m32 38.941c-.449 0-.899-.055-1.337-.164-.604-.151-.889-.854-.61-1.411l.001-.002c.213-.425.69-.621 1.153-.513.521.121 1.066.121 1.587 0 .463-.108.94.088 1.153.513l.001.002c.278.557-.006 1.26-.61 1.411-.439.11-.889.164-1.338.164z" fill="#d64528"/><path d="m28.794 34.093c-.521-.121-1.066-.121-1.587 0-.463.108-.94-.088-1.153-.513l-.001-.002c-.278-.557.006-1.26.611-1.411.876-.219 1.797-.219 2.673 0 .604.151.889.854.611 1.411l-.001.002c-.213.425-.691.621-1.153.513z" fill="#404040"/><path d="m36.794 34.093c-.521-.121-1.066-.121-1.587 0-.463.108-.94-.088-1.153-.513l-.001-.002c-.278-.557.006-1.26.611-1.411.876-.219 1.797-.219 2.673 0 .604.151.889.854.611 1.411l-.001.002c-.213.425-.691.621-1.153.513z" fill="#404040"/><path d="m42.5 30h-.5v-3c0-5.514-4.486-10-10-10s-10 4.486-10 10v3h-.5c-1.93 0-3.5 1.57-3.5 3.5s1.57 3.5 3.5 3.5h1.5c.552 0 1-.448 1-1v-9c0-4.411 3.589-8 8-8s8 3.589 8 8v9c0 .552.448 1 1 1h1.5c1.93 0 3.5-1.57 3.5-3.5s-1.57-3.5-3.5-3.5z" fill="#858585"/></svg>