<?xml version="1.0" encoding="UTF-8" standalone="no"?>
<!-- Created with Inkscape (http://www.inkscape.org/) -->

<svg
   version="1.1"
   id="svg5289"
   xml:space="preserve"
   width="682.66669"
   height="682.66669"
   viewBox="0 0 682.66669 682.66669"
   xmlns="http://www.w3.org/2000/svg"
   xmlns:svg="http://www.w3.org/2000/svg"><defs
     id="defs5293"><clipPath
       clipPathUnits="userSpaceOnUse"
       id="clipPath5303"><path
         d="M 0,512 H 512 V 0 H 0 Z"
         id="path5301" /></clipPath></defs><g
     id="g5295"
     transform="matrix(1.3333333,0,0,-1.3333333,0,682.66667)"><g
       id="g5297"><g
         id="g5299"
         clip-path="url(#clipPath5303)"><g
           id="g5305"
           transform="translate(198.853,269.3984)"><path
             d="m 0,0 h -124.228 c -1.189,0 -2.327,0.519 -3.079,1.438 -11.859,14.498 -18.966,33.036 -18.966,53.221 -0.001,46.106 36.774,83.464 82.874,84.152 C -16.33,139.513 22.046,101.568 22.046,54.66 22.046,34.475 14.939,15.937 3.081,1.439 2.328,0.52 1.189,0 0,0 Z"
             style="fill:none;stroke:#000000;stroke-width:15;stroke-linecap:round;stroke-linejoin:round;stroke-miterlimit:10;stroke-dasharray:none;stroke-opacity:1"
             id="path5307" /></g><g
           id="g5309"
           transform="translate(143.6602,326.1211)"><path
             d="m 0,0 c 6.79,-1.381 12.85,-4.74 17.57,-9.46 6.26,-6.261 10.14,-14.921 10.14,-24.48 v -22.79"
             style="fill:none;stroke:#000000;stroke-width:15;stroke-linecap:round;stroke-linejoin:round;stroke-miterlimit:10;stroke-dasharray:none;stroke-opacity:1"
             id="path5311" /></g><g
           id="g5313"
           transform="translate(102.1099,269.3906)"><path
             d="M 0,0 V 22.79 C 0,39.54 11.9,53.521 27.71,56.73"
             style="fill:none;stroke:#000000;stroke-width:15;stroke-linecap:round;stroke-linejoin:round;stroke-miterlimit:10;stroke-dasharray:none;stroke-opacity:1"
             id="path5315" /></g><g
           id="g5317"
           transform="translate(160.0195,348.3525)"><path
             d="m 0,0 c 0,-12.856 -10.423,-23.279 -23.28,-23.279 -12.857,0 -23.28,10.423 -23.28,23.279 0,12.857 10.423,23.28 23.28,23.28 C -10.423,23.28 0,12.857 0,0 Z"
             style="fill:none;stroke:#000000;stroke-width:15;stroke-linecap:round;stroke-linejoin:round;stroke-miterlimit:10;stroke-dasharray:none;stroke-opacity:1"
             id="path5319" /></g><g
           id="g5321"
           transform="translate(268.1299,113.4502)"><path
             d="M 0,0 H -51.67"
             style="fill:none;stroke:#000000;stroke-width:15;stroke-linecap:round;stroke-linejoin:round;stroke-miterlimit:10;stroke-dasharray:none;stroke-opacity:1"
             id="path5323" /></g><g
           id="g5325"
           transform="translate(7.5801,412.1104)"><path
             d="m 0,0 v 71.19 c 0,6.63 5.37,12 12,12 h 472.84 c 6.63,0 12,-5.37 12,-12 v -357.85 c 0,-6.63 -5.37,-12 -12,-12 h -33"
             style="fill:none;stroke:#000000;stroke-width:15;stroke-linecap:round;stroke-linejoin:round;stroke-miterlimit:10;stroke-dasharray:none;stroke-opacity:1"
             id="path5327" /></g><g
           id="g5329"
           transform="translate(7.5801,377.1104)"><path
             d="m 0,0 v -251.66 c 0,-6.63 5.37,-12 12,-12 h 36.37"
             style="fill:none;stroke:#000000;stroke-width:15;stroke-linecap:round;stroke-linejoin:round;stroke-miterlimit:10;stroke-dasharray:none;stroke-opacity:1"
             id="path5331" /></g><g
           id="g5333"
           transform="translate(504.4199,436.9453)"><path
             d="M 0,0 H -496.84"
             style="fill:none;stroke:#000000;stroke-width:15;stroke-linecap:round;stroke-linejoin:round;stroke-miterlimit:10;stroke-dasharray:none;stroke-opacity:1"
             id="path5335" /></g><g
           id="g5337"
           transform="translate(50.5708,466.125)"><path
             d="M 0,0 H 262.87"
             style="fill:none;stroke:#000000;stroke-width:15;stroke-linecap:round;stroke-linejoin:round;stroke-miterlimit:10;stroke-dasharray:none;stroke-opacity:1"
             id="path5339" /></g><g
           id="g5341"
           transform="translate(458.0381,466.125)"><path
             d="M 0,0 H 3.392"
             style="fill:none;stroke:#000000;stroke-width:15;stroke-linecap:round;stroke-linejoin:round;stroke-miterlimit:10;stroke-dasharray:none;stroke-opacity:1"
             id="path5343" /></g><g
           id="g5345"
           transform="translate(429.6465,466.125)"><path
             d="M 0,0 H 3.392"
             style="fill:none;stroke:#000000;stroke-width:15;stroke-linecap:round;stroke-linejoin:round;stroke-miterlimit:10;stroke-dasharray:none;stroke-opacity:1"
             id="path5347" /></g><g
           id="g5349"
           transform="translate(401.2559,466.125)"><path
             d="M 0,0 H 3.391"
             style="fill:none;stroke:#000000;stroke-width:15;stroke-linecap:round;stroke-linejoin:round;stroke-miterlimit:10;stroke-dasharray:none;stroke-opacity:1"
             id="path5351" /></g><g
           id="g5353"
           transform="translate(196.1309,194.7822)"><path
             d="m 0,0 h -118.783 c -2.209,0 -4,1.791 -4,4 v 33.087 c 0,2.209 1.791,4 4,4 H 0 c 2.209,0 4,-1.791 4,-4 V 4 C 4,1.791 2.209,0 0,0 Z"
             style="fill:none;stroke:#000000;stroke-width:15;stroke-linecap:round;stroke-linejoin:round;stroke-miterlimit:10;stroke-dasharray:none;stroke-opacity:1"
             id="path5355" /></g><g
           id="g5357"
           transform="translate(313.1309,200.9863)"><path
             d="m 0,0 v 29.957 c 0,2.209 1.79,4 4,4 h 93.289 c 2.21,0 4,-1.791 4,-4 V 0 c 0,-2.209 -1.79,-4 -4,-4 H 4 C 1.79,-4 0,-2.209 0,0 Z"
             style="fill:none;stroke:#000000;stroke-width:15;stroke-linecap:round;stroke-linejoin:round;stroke-miterlimit:10;stroke-dasharray:none;stroke-opacity:1"
             id="path5359" /></g><g
           id="g5361"
           transform="translate(128.7036,97.709)"><path
             d="m 0,0 67.746,50.798 c 0.863,0.647 2.098,0.5 2.768,-0.347 21.9,-27.689 26.171,-64.48 10.821,-94.482 -3.602,-7.041 -8.195,-13.532 -13.651,-19.298 -0.749,-0.79 -2.002,-0.815 -2.801,-0.074 L -0.16,-3.066 C -1.075,-2.218 -0.998,-0.748 0,0 Z"
             style="fill:none;stroke:#000000;stroke-width:15;stroke-linecap:round;stroke-linejoin:round;stroke-miterlimit:10;stroke-dasharray:none;stroke-opacity:1"
             id="path5363" /></g><g
           id="g5365"
           transform="translate(184.1401,43.0605)"><path
             d="m 0,0 c -19.56,-23.06 -52.1,-32.78 -82.22,-21.92 -38.77,13.97 -58.87,56.731 -44.9,95.5 13.97,38.771 56.73,58.87 95.5,44.9 12.82,-4.62 23.6,-12.4 31.79,-22.129"
             style="fill:none;stroke:#000000;stroke-width:15;stroke-linecap:round;stroke-linejoin:round;stroke-miterlimit:10;stroke-dasharray:none;stroke-opacity:1"
             id="path5367" /></g><g
           id="g5369"
           transform="translate(313.1309,161.3936)"><path
             d="M 0,0 H 14.261"
             style="fill:none;stroke:#000000;stroke-width:15;stroke-linecap:round;stroke-linejoin:round;stroke-miterlimit:10;stroke-dasharray:none;stroke-opacity:1"
             id="path5371" /></g><g
           id="g5373"
           transform="translate(354.7754,161.3936)"><path
             d="M 0,0 H 59.645"
             style="fill:none;stroke:#000000;stroke-width:15;stroke-linecap:round;stroke-linejoin:round;stroke-miterlimit:10;stroke-dasharray:none;stroke-opacity:1"
             id="path5375" /></g><g
           id="g5377"
           transform="translate(313.1309,129.3936)"><path
             d="M 0,0 H 14.261"
             style="fill:none;stroke:#000000;stroke-width:15;stroke-linecap:round;stroke-linejoin:round;stroke-miterlimit:10;stroke-dasharray:none;stroke-opacity:1"
             id="path5379" /></g><g
           id="g5381"
           transform="translate(354.7754,129.3936)"><path
             d="M 0,0 H 59.645"
             style="fill:none;stroke:#000000;stroke-width:15;stroke-linecap:round;stroke-linejoin:round;stroke-miterlimit:10;stroke-dasharray:none;stroke-opacity:1"
             id="path5383" /></g><g
           id="g5385"
           transform="translate(313.1309,97.3936)"><path
             d="M 0,0 H 14.261"
             style="fill:none;stroke:#000000;stroke-width:15;stroke-linecap:round;stroke-linejoin:round;stroke-miterlimit:10;stroke-dasharray:none;stroke-opacity:1"
             id="path5387" /></g><g
           id="g5389"
           transform="translate(354.7754,97.3936)"><path
             d="M 0,0 H 59.645"
             style="fill:none;stroke:#000000;stroke-width:15;stroke-linecap:round;stroke-linejoin:round;stroke-miterlimit:10;stroke-dasharray:none;stroke-opacity:1"
             id="path5391" /></g><g
           id="g5393"
           transform="translate(284.8262,408.2187)"><path
             d="m 0,0 v -101.844 c 0,-1.104 0.896,-2 2,-2 h 142.82"
             style="fill:none;stroke:#000000;stroke-width:15;stroke-linecap:round;stroke-linejoin:round;stroke-miterlimit:10;stroke-dasharray:none;stroke-opacity:1"
             id="path5395" /></g><g
           id="g5397"
           transform="translate(331.1299,381.3408)"><path
             d="M 0,0 -46.3,-33.7"
             style="fill:none;stroke:#000000;stroke-width:15;stroke-linecap:round;stroke-linejoin:round;stroke-miterlimit:10;stroke-dasharray:none;stroke-opacity:1"
             id="path5399" /></g><g
           id="g5401"
           transform="translate(419.9805,377.3008)"><path
             d="M 0,0 -28.591,-22.4"
             style="fill:none;stroke:#000000;stroke-width:15;stroke-linecap:round;stroke-linejoin:round;stroke-miterlimit:10;stroke-dasharray:none;stroke-opacity:1"
             id="path5403" /></g><g
           id="g5405"
           transform="translate(371.3799,357.0107)"><path
             d="M 0,0 -20.08,22.25"
             style="fill:none;stroke:#000000;stroke-width:15;stroke-linecap:round;stroke-linejoin:round;stroke-miterlimit:10;stroke-dasharray:none;stroke-opacity:1"
             id="path5407" /></g><g
           id="g5409"
           transform="translate(355.9619,389.584)"><path
             d="m 0,0 c 0,-7.614 -6.172,-13.786 -13.785,-13.786 -7.613,0 -13.785,6.172 -13.785,13.786 0,7.613 6.172,13.785 13.785,13.785 C -6.172,13.785 0,7.613 0,0 Z"
             style="fill:none;stroke:#000000;stroke-width:15;stroke-linecap:round;stroke-linejoin:round;stroke-miterlimit:10;stroke-dasharray:none;stroke-opacity:1"
             id="path5411" /></g><g
           id="g5413"
           transform="translate(394.1797,346.5947)"><path
             d="m 0,0 c 0,-7.613 -6.172,-13.785 -13.786,-13.785 -7.613,0 -13.785,6.172 -13.785,13.785 0,7.613 6.172,13.785 13.785,13.785 C -6.172,13.785 0,7.613 0,0 Z"
             style="fill:none;stroke:#000000;stroke-width:15;stroke-linecap:round;stroke-linejoin:round;stroke-miterlimit:10;stroke-dasharray:none;stroke-opacity:1"
             id="path5415" /></g><g
           id="g5417"
           transform="translate(444.3203,386.1572)"><path
             d="m 0,0 c 0,-7.613 -6.172,-13.785 -13.785,-13.785 -7.613,0 -13.785,6.172 -13.785,13.785 0,7.613 6.172,13.785 13.785,13.785 C -6.172,13.785 0,7.613 0,0 Z"
             style="fill:none;stroke:#000000;stroke-width:15;stroke-linecap:round;stroke-linejoin:round;stroke-miterlimit:10;stroke-dasharray:none;stroke-opacity:1"
             id="path5419" /></g><g
           id="g5421"
           transform="translate(459.4199,139.2002)"><path
             d="m 0,0 v -95.02 c 0,-4.419 -3.58,-8 -8,-8 h -42.39 c -2.21,0 -4,1.791 -4,4 v 19.191 c 0,2.21 -1.79,4 -4,4 h -74.51 c -2.21,0 -4,-1.79 -4,-4 V -99.02 c 0,-2.209 -1.789,-4 -4,-4 h -42.39 c -4.42,0 -8,3.581 -8,8 v 217.21 c 0,4.42 3.58,8 8,8 H -8 c 4.42,0 8,-3.58 8,-8 L 0,35"
             style="fill:none;stroke:#000000;stroke-width:15;stroke-linecap:round;stroke-linejoin:round;stroke-miterlimit:10;stroke-dasharray:none;stroke-opacity:1"
             id="path5423" /></g></g></g></g></svg>
