<svg id="Capa_1" enable-background="new 0 0 512 512" height="512" viewBox="0 0 512 512" width="512" xmlns="http://www.w3.org/2000/svg"><g><g id="Page-1_55_"><g id="_x30_56---Multiple-Code-Windows"><path id="Shape_788_" d="m281.6 51.2h68.267c4.713 0 8.533-3.821 8.533-8.533s-3.821-8.533-8.533-8.533h-68.267c-4.713 0-8.533 3.821-8.533 8.533s3.82 8.533 8.533 8.533z"/><circle id="Oval_61_" cx="42.667" cy="42.667" r="8.533"/><circle id="Oval_60_" cx="76.8" cy="42.667" r="8.533"/><circle id="Oval_59_" cx="110.933" cy="42.667" r="8.533"/><path id="Shape_787_" d="m332.8 145.067c0 4.713 3.82 8.533 8.533 8.533h68.267c4.713 0 8.533-3.821 8.533-8.533 0-4.713-3.821-8.533-8.533-8.533h-68.267c-4.712-.001-8.533 3.82-8.533 8.533z"/><circle id="Oval_58_" cx="102.4" cy="145.067" r="8.533"/><circle id="Oval_57_" cx="136.533" cy="145.067" r="8.533"/><circle id="Oval_56_" cx="170.667" cy="145.067" r="8.533"/><path id="Shape_786_" d="m477.867 204.8h-25.6v-68.267c0-18.851-15.282-34.133-34.133-34.133h-25.6v-68.267c-.001-18.851-15.283-34.133-34.134-34.133h-324.267c-18.851 0-34.133 15.282-34.133 34.133v238.933c0 18.852 15.282 34.134 34.133 34.134h25.6v68.267c0 18.851 15.282 34.133 34.133 34.133h25.6v68.267c0 18.851 15.282 34.133 34.133 34.133h324.267c18.852 0 34.134-15.282 34.134-34.133v-238.934c0-18.851-15.282-34.133-34.133-34.133zm17.066 34.133v34.133h-358.4v-34.133c0-9.426 7.641-17.067 17.067-17.067h324.267c9.425.001 17.066 7.642 17.066 17.067zm-59.733-102.4v34.133h-358.4v-34.133c0-9.426 7.641-17.067 17.067-17.067h324.267c9.425.001 17.066 7.642 17.066 17.067zm-401.067-119.466h324.267c9.426 0 17.067 7.641 17.067 17.067v34.133h-358.4v-34.134c0-9.425 7.641-17.066 17.066-17.066zm0 273.066c-9.426 0-17.067-7.641-17.067-17.067v-187.733h358.4v17.067h-281.6c-18.851 0-34.133 15.282-34.133 34.133v153.6zm59.734 102.4c-9.426 0-17.067-7.641-17.067-17.067v-187.733h358.4v17.067h-281.6c-18.851 0-34.133 15.282-34.133 34.133v153.6zm384 102.4h-324.267c-9.426 0-17.067-7.641-17.067-17.067v-187.733h358.4v187.733c0 9.426-7.641 17.067-17.066 17.067z"/><path id="Shape_785_" d="m392.533 247.467c0 4.713 3.82 8.533 8.533 8.533h68.267c4.713 0 8.533-3.82 8.533-8.533s-3.821-8.533-8.533-8.533h-68.267c-4.712-.001-8.533 3.82-8.533 8.533z"/><circle id="Oval_55_" cx="162.133" cy="247.467" r="8.533"/><circle id="Oval_54_" cx="196.267" cy="247.467" r="8.533"/><circle id="Oval_53_" cx="230.4" cy="247.467" r="8.533"/><path id="Shape_784_" d="m187.733 315.733h-17.067c-4.713 0-8.533 3.821-8.533 8.533s3.821 8.533 8.533 8.533h17.067c4.713 0 8.533-3.82 8.533-8.533s-3.82-8.533-8.533-8.533z"/><path id="Shape_783_" d="m221.867 332.8h145.067c4.713 0 8.533-3.82 8.533-8.533s-3.82-8.533-8.533-8.533h-145.067c-4.713 0-8.533 3.821-8.533 8.533s3.82 8.533 8.533 8.533z"/><path id="Shape_782_" d="m187.733 349.867h-17.067c-4.713 0-8.533 3.82-8.533 8.533s3.821 8.533 8.533 8.533h17.067c4.713 0 8.533-3.82 8.533-8.533s-3.82-8.533-8.533-8.533z"/><path id="Shape_781_" d="m221.867 366.933h76.8c4.713 0 8.533-3.82 8.533-8.533s-3.82-8.533-8.533-8.533h-76.8c-4.713 0-8.533 3.82-8.533 8.533s3.82 8.533 8.533 8.533z"/><path id="Shape_780_" d="m187.733 384h-17.067c-4.713 0-8.533 3.82-8.533 8.533s3.821 8.533 8.533 8.533h17.067c4.713 0 8.533-3.82 8.533-8.533s-3.82-8.533-8.533-8.533z"/><path id="Shape_779_" d="m221.867 401.067h102.4c4.713 0 8.533-3.82 8.533-8.533s-3.82-8.534-8.533-8.534h-102.4c-4.713 0-8.533 3.82-8.533 8.533s3.82 8.534 8.533 8.534z"/><path id="Shape_778_" d="m187.733 418.133h-17.067c-4.713 0-8.533 3.82-8.533 8.533s3.821 8.533 8.533 8.533h17.067c4.713 0 8.533-3.82 8.533-8.533s-3.82-8.533-8.533-8.533z"/><path id="Shape_777_" d="m221.867 435.2h145.067c4.713 0 8.533-3.82 8.533-8.533s-3.82-8.533-8.533-8.533h-145.067c-4.713 0-8.533 3.82-8.533 8.533s3.82 8.533 8.533 8.533z"/><path id="Shape_776_" d="m187.733 452.267h-17.067c-4.713 0-8.533 3.82-8.533 8.533s3.821 8.533 8.533 8.533h17.067c4.713 0 8.533-3.82 8.533-8.533s-3.82-8.533-8.533-8.533z"/><path id="Shape_775_" d="m452.267 452.267h-230.4c-4.713 0-8.533 3.82-8.533 8.533s3.821 8.533 8.533 8.533h230.4c4.713 0 8.533-3.82 8.533-8.533s-3.82-8.533-8.533-8.533z"/><path id="Shape_774_" d="m401.067 332.8h42.667c4.713 0 8.533-3.82 8.533-8.533s-3.821-8.533-8.533-8.533h-42.667c-4.713 0-8.533 3.821-8.533 8.533s3.82 8.533 8.533 8.533z"/><path id="Shape_773_" d="m460.8 384h-102.4c-4.713 0-8.533 3.82-8.533 8.533s3.82 8.533 8.533 8.533h102.4c4.713 0 8.533-3.82 8.533-8.533s-3.82-8.533-8.533-8.533z"/></g></g></g></svg>