<svg id="Layer_1" enable-background="new 0 0 512 512" height="512" viewBox="0 0 512 512" width="512" xmlns="http://www.w3.org/2000/svg"><path d="m198.293 75.53c0-4.418 3.582-8 8-8h128.147c4.418 0 8 3.582 8 8s-3.582 8-8 8h-128.147c-4.418 0-8-3.582-8-8zm136.147 23.029h-68.443c-4.418 0-8 3.582-8 8s3.582 8 8 8h68.443c4.418 0 8-3.582 8-8s-3.582-8-8-8zm177.57 248.028c0 59.552-48.448 108-108 108-2.271 0-4.523-.079-6.76-.218-14.797 21.393-38.737 34.018-64.996 34.018v-.001h-253.179c-43.607 0-79.085-35.478-79.085-79.085v-22.259c0-4.418 3.582-8 8-8h56.348v-347.429c0-4.418 3.582-8 8-8h331.001c4.418 0 8 3.582 8 8v207.228c56.146 3.781 100.671 50.658 100.671 107.746zm-227.401 125.799c-19.088-14.451-31.441-37.353-31.441-63.085v-14.259h-237.178v14.259c0 34.785 28.3 63.085 63.085 63.085zm94.422-20.721c-47.547-11.302-83.021-54.123-83.021-105.078 0-1.79.046-3.568.133-5.337h-155.782c-10.424 0-18.904-8.48-18.904-18.905v-156.991c0-10.424 8.48-18.904 18.904-18.904h183.175c10.424 0 18.904 8.48 18.904 18.904v92.555c15.247-10.618 33.346-17.412 52.898-18.973v-199.323h-315v339.429h180.83c4.418 0 8 3.582 8 8v22.259c0 34.785 28.3 63.085 63.086 63.085.005 0 .01.001.015.001 18.16-.005 34.929-7.581 46.762-20.722zm-52.591-180.143v-19.672h-130.039v28.7h122.212c2.444-3.153 5.057-6.166 7.827-9.028zm0-64.373h-130.039v28.7h130.039zm0-41.795c0-1.574-1.33-2.904-2.904-2.904h-127.135v28.7h130.039zm-146.039-2.905h-40.04c-1.574 0-2.904 1.33-2.904 2.904v25.796h42.944zm-42.944 73.401h42.944v-28.7h-42.944zm0 44.7h42.944v-28.7h-42.944zm0 41.795c0 1.575 1.33 2.905 2.904 2.905h40.04v-28.7h-42.944zm58.944 2.905h101.729c2.042-10.151 5.515-19.789 10.193-28.7h-111.922zm299.609 21.337c0-50.729-41.271-92-92-92s-92 41.271-92 92 41.271 92 92 92 92-41.272 92-92zm-41.325 18.852c5.084 5.08 7.885 11.837 7.888 19.024.003 7.188-2.794 13.947-7.874 19.031-5.081 5.084-11.838 7.885-19.026 7.887-.003 0-.007 0-.01 0-7.184 0-13.938-2.796-19.02-7.874-5.084-5.08-7.885-11.837-7.888-19.024-.004-14.838 12.063-26.913 26.899-26.919h.011c7.184 0 13.938 2.796 19.02 7.875zm-8.113 19.031c-.001-2.914-1.137-5.653-3.197-7.713-2.061-2.059-4.799-3.192-7.711-3.192-.001 0-.002 0-.004 0-6.015.002-10.907 4.898-10.905 10.914.001 2.913 1.137 5.652 3.197 7.712 2.061 2.058 4.798 3.191 7.711 3.191h.004c2.915-.001 5.654-1.136 7.714-3.197 2.058-2.061 3.192-4.801 3.191-7.715zm-74.217-48.861c-14.833 0-26.902-12.063-26.908-26.898-.004-14.838 12.063-26.913 26.899-26.919h.011c7.184 0 13.938 2.796 19.02 7.875 5.084 5.08 7.886 11.837 7.889 19.024.002 7.188-2.795 13.946-7.875 19.03-5.081 5.084-11.837 7.886-19.025 7.888-.003 0-.008 0-.011 0zm.001-16h.004c2.914-.001 5.653-1.136 7.713-3.197s3.193-4.801 3.192-7.716c-.001-2.913-1.137-5.652-3.198-7.712-2.06-2.059-4.798-3.192-7.711-3.192-.001 0-.002 0-.004 0-6.015.002-10.907 4.898-10.905 10.914.002 6.013 4.896 10.903 10.909 10.903zm72.329-29.214c-3.592-2.579-8.588-1.756-11.164 1.832l-70.866 98.697c-2.577 3.589-1.757 8.588 1.832 11.164 1.413 1.015 3.044 1.503 4.659 1.503 2.489 0 4.942-1.159 6.505-3.335l70.866-98.697c2.577-3.589 1.756-8.588-1.832-11.164z"/></svg>