<?xml version="1.0" encoding="UTF-8" standalone="no"?>
<!-- Created with Inkscape (http://www.inkscape.org/) -->

<svg
   version="1.1"
   id="svg5031"
   xml:space="preserve"
   width="682.66669"
   height="682.66669"
   viewBox="0 0 682.66669 682.66669"
   xmlns="http://www.w3.org/2000/svg"
   xmlns:svg="http://www.w3.org/2000/svg"><defs
     id="defs5035"><clipPath
       clipPathUnits="userSpaceOnUse"
       id="clipPath5045"><path
         d="M 0,512 H 512 V 0 H 0 Z"
         id="path5043" /></clipPath></defs><g
     id="g5037"
     transform="matrix(1.3333333,0,0,-1.3333333,0,682.66667)"><g
       id="g5039"><g
         id="g5041"
         clip-path="url(#clipPath5045)"><g
           id="g5047"
           transform="translate(504.5,305.5034)"><path
             d="m 0,0 v 0 c 0,33.679 -27.302,60.981 -60.981,60.981 h -49.693 c -13.931,0 -25.226,11.294 -25.226,25.227 V 135.9 c 0,33.679 -27.302,60.981 -60.981,60.981 h -9.793"
             style="fill:none;stroke:#000000;stroke-width:15;stroke-linecap:butt;stroke-linejoin:round;stroke-miterlimit:10;stroke-dasharray:none;stroke-opacity:1"
             id="path5049" /></g><g
           id="g5051"
           transform="translate(224.9424,502.3848)"><path
             d="m 0,0 h 98.678 c 28.8,0 56.42,-11.44 76.79,-31.81 l 72.28,-72.28 c 20.369,-20.37 31.81,-47.99 31.81,-76.79 V -446 c 0,-13.94 -11.29,-25.23 -25.231,-25.23 H -48.242"
             style="fill:none;stroke:#000000;stroke-width:15;stroke-linecap:round;stroke-linejoin:round;stroke-miterlimit:10;stroke-dasharray:none;stroke-opacity:1"
             id="path5053" /></g><g
           id="g5055"
           transform="translate(118.2695,220.1846)"><path
             d="m 0,0 v 256.97 c 0,13.94 11.301,25.23 25.23,25.23 h 12.581 38.862"
             style="fill:none;stroke:#000000;stroke-width:15;stroke-linecap:round;stroke-linejoin:round;stroke-miterlimit:10;stroke-dasharray:none;stroke-opacity:1"
             id="path5057" /></g><g
           id="g5059"
           transform="translate(238.1406,285.147)"><path
             d="M 0,0 H 202.181"
             style="fill:none;stroke:#000000;stroke-width:15;stroke-linecap:round;stroke-linejoin:round;stroke-miterlimit:10;stroke-dasharray:none;stroke-opacity:1"
             id="path5061" /></g><g
           id="g5063"
           transform="translate(185.918,238.3081)"><path
             d="M 0,0 H 254.403"
             style="fill:none;stroke:#000000;stroke-width:15;stroke-linecap:round;stroke-linejoin:round;stroke-miterlimit:10;stroke-dasharray:none;stroke-opacity:1"
             id="path5065" /></g><g
           id="g5067"
           transform="translate(185.918,191.4692)"><path
             d="M 0,0 H 254.403"
             style="fill:none;stroke:#000000;stroke-width:15;stroke-linecap:round;stroke-linejoin:round;stroke-miterlimit:10;stroke-dasharray:none;stroke-opacity:1"
             id="path5069" /></g><g
           id="g5071"
           transform="translate(268.75,144.6338)"><path
             d="M 0,0 H -54.78"
             style="fill:none;stroke:#000000;stroke-width:15;stroke-linecap:round;stroke-linejoin:round;stroke-miterlimit:10;stroke-dasharray:none;stroke-opacity:1"
             id="path5073" /></g><g
           id="g5075"
           transform="translate(440.3203,144.6338)"><path
             d="M 0,0 H -141.57"
             style="fill:none;stroke:#000000;stroke-width:15;stroke-linecap:round;stroke-linejoin:round;stroke-miterlimit:10;stroke-dasharray:none;stroke-opacity:1"
             id="path5077" /></g><g
           id="g5079"
           transform="translate(365.8496,97.7935)"><path
             d="M 0,0 H -149.04"
             style="fill:none;stroke:#000000;stroke-width:15;stroke-linecap:round;stroke-linejoin:round;stroke-miterlimit:10;stroke-dasharray:none;stroke-opacity:1"
             id="path5081" /></g><g
           id="g5083"
           transform="translate(187.3555,40.4736)"><path
             d="m 0,0 c -41.145,-41.145 -107.853,-41.145 -148.997,0 -41.145,41.145 -41.145,107.853 0,148.997 41.144,41.145 107.852,41.145 148.997,0 C 41.145,107.853 41.145,41.145 0,0 Z"
             style="fill:none;stroke:#000000;stroke-width:15;stroke-linecap:round;stroke-linejoin:round;stroke-miterlimit:10;stroke-dasharray:none;stroke-opacity:1"
             id="path5085" /></g><g
           id="g5087"
           transform="translate(138.8594,176.2783)"><path
             d="M 0,0 -50.376,-120.035"
             style="fill:none;stroke:#000000;stroke-width:15;stroke-linecap:round;stroke-linejoin:round;stroke-miterlimit:10;stroke-dasharray:none;stroke-opacity:1"
             id="path5089" /></g><g
           id="g5091"
           transform="translate(101.0986,156.0073)"><path
             d="m 0,0 c 0,-14.285 -9.966,-25.866 -22.26,-25.866 -12.293,0 -22.259,11.581 -22.259,25.866 0,14.285 9.966,25.866 22.259,25.866 C -9.966,25.866 0,14.285 0,0 Z"
             style="fill:none;stroke:#000000;stroke-width:15;stroke-linecap:round;stroke-linejoin:round;stroke-miterlimit:10;stroke-dasharray:none;stroke-opacity:1"
             id="path5093" /></g><g
           id="g5095"
           transform="translate(169.1328,73.9375)"><path
             d="m 0,0 c 0,-14.286 -9.965,-25.866 -22.259,-25.866 -12.293,0 -22.259,11.58 -22.259,25.866 0,14.285 9.966,25.866 22.259,25.866 C -9.965,25.866 0,14.285 0,0 Z"
             style="fill:none;stroke:#000000;stroke-width:15;stroke-linecap:round;stroke-linejoin:round;stroke-miterlimit:10;stroke-dasharray:none;stroke-opacity:1"
             id="path5097" /></g><g
           id="g5099"
           transform="translate(225.4131,364.1118)"><path
             d="m 0,0 27.43,72.019 c 0.56,1.37 2.5,1.372 3.063,0.002 L 57.673,0"
             style="fill:none;stroke:#000000;stroke-width:15;stroke-linecap:round;stroke-linejoin:round;stroke-miterlimit:10;stroke-dasharray:none;stroke-opacity:1"
             id="path5101" /></g><g
           id="g5103"
           transform="translate(233.9678,382.0483)"><path
             d="M 0,0 H 40.702"
             style="fill:none;stroke:#000000;stroke-width:15;stroke-linecap:round;stroke-linejoin:round;stroke-miterlimit:10;stroke-dasharray:none;stroke-opacity:1"
             id="path5105" /></g><g
           id="g5107"
           transform="translate(162.8037,437.1592)"><path
             d="m 0,0 24.975,-71.951 c 0.523,-1.472 2.611,-1.458 3.114,0.022 l 23.85,71.795"
             style="fill:none;stroke:#000000;stroke-width:15;stroke-linecap:round;stroke-linejoin:round;stroke-miterlimit:10;stroke-dasharray:none;stroke-opacity:1"
             id="path5109" /></g><g
           id="g5111"
           transform="translate(295.5645,437.1592)"><path
             d="M 0,0 H 40.341"
             style="fill:none;stroke:#000000;stroke-width:15;stroke-linecap:round;stroke-linejoin:round;stroke-miterlimit:10;stroke-dasharray:none;stroke-opacity:1"
             id="path5113" /></g><g
           id="g5115"
           transform="translate(315.6533,434.8267)"><path
             d="M 0,0 V -70.715"
             style="fill:none;stroke:#000000;stroke-width:15;stroke-linecap:round;stroke-linejoin:round;stroke-miterlimit:10;stroke-dasharray:none;stroke-opacity:1"
             id="path5117" /></g></g></g></g></svg>
