<svg xmlns="http://www.w3.org/2000/svg" xmlns:xlink="http://www.w3.org/1999/xlink" width="1147" height="573.5" viewBox="0 0 1147 573.5">
  <defs>
    <clipPath id="clip-path">
      <rect id="Rectangle_417" data-name="Rectangle 417" width="1147" height="573.5" fill="none"/>
    </clipPath>
  </defs>
  <g id="Group_1619" data-name="Group 1619" opacity="0.6">
    <g id="Group_991" data-name="Group 991" clip-path="url(#clip-path)">
      <path id="Path_896" data-name="Path 896" d="M441.5,573.5a132,132,0,0,1,264,0" fill="none" stroke="#eceef1" stroke-width="1"/>
      <path id="Path_897" data-name="Path 897" d="M442,573.5a131.5,131.5,0,0,1,263,0" fill="none" stroke="#eceef1" stroke-width="1"/>
      <path id="Path_898" data-name="Path 898" d="M362.5,573.5c0-116.532,94.468-211,211-211s211,94.468,211,211" fill="none" stroke="#eceef1" stroke-width="1"/>
      <path id="Path_899" data-name="Path 899" d="M363,573.5C363,457.244,457.244,363,573.5,363S784,457.244,784,573.5" fill="none" stroke="#eceef1" stroke-width="1"/>
      <path id="Path_900" data-name="Path 900" d="M285.5,573.5c0-159.058,128.942-288,288-288s288,128.942,288,288" fill="none" stroke="#eceef1" stroke-width="1"/>
      <path id="Path_901" data-name="Path 901" d="M286,573.5C286,414.718,414.718,286,573.5,286S861,414.718,861,573.5" fill="none" stroke="#eceef1" stroke-width="1"/>
      <path id="Path_902" data-name="Path 902" d="M200.5,573.5c0-206,167-373,373-373s373,167,373,373" fill="none" stroke="#eceef1" stroke-width="1"/>
      <path id="Path_903" data-name="Path 903" d="M201,573.5C201,367.774,367.774,201,573.5,201S946,367.774,946,573.5" fill="none" stroke="#eceef1" stroke-width="1"/>
      <path id="Path_904" data-name="Path 904" d="M98.5,573.5c0-262.335,212.665-475,475-475s475,212.665,475,475" fill="none" stroke="#eceef1" stroke-width="1"/>
      <path id="Path_905" data-name="Path 905" d="M99,573.5C99,311.441,311.441,99,573.5,99S1048,311.441,1048,573.5" fill="none" stroke="#eceef1" stroke-width="1"/>
      <path id="Path_906" data-name="Path 906" d="M.5,573.5C.5,257.041,257.041.5,573.5.5s573,256.541,573,573" fill="none" stroke="#eceef1" stroke-width="1"/>
      <path id="Path_907" data-name="Path 907" d="M1145.5,573.5a581.377,581.377,0,0,0-2.953-58.485,573.5,573.5,0,0,0-8.668-56.794c-3.771-18.428-8.513-36.871-14.095-54.817-5.519-17.745-11.991-35.426-19.234-52.552-7.177-16.968-15.281-33.79-24.087-50-8.743-16.1-18.383-31.963-28.651-47.162-10.219-15.126-21.3-29.941-32.929-44.035-11.6-14.059-24.023-27.726-36.918-40.62s-26.561-25.316-40.62-36.918c-14.094-11.631-28.909-22.71-44.035-32.929-15.2-10.268-31.067-19.908-47.162-28.651-16.21-8.806-33.032-16.91-50-24.087-17.126-7.243-34.807-13.715-52.552-19.234-17.946-5.582-36.389-10.324-54.817-14.095a573.478,573.478,0,0,0-56.794-8.668A581.373,581.373,0,0,0,573.5,1.5m0,0a581.373,581.373,0,0,0-58.485,2.953,573.476,573.476,0,0,0-56.794,8.668c-18.428,3.771-36.871,8.513-54.817,14.095-17.745,5.519-35.426,11.991-52.552,19.234-16.968,7.177-33.79,15.281-50,24.087-16.1,8.743-31.963,18.383-47.162,28.651-15.126,10.219-29.941,21.3-44.035,32.929-14.059,11.6-27.726,24.023-40.62,36.918s-25.316,26.561-36.918,40.62c-11.631,14.094-22.71,28.909-32.929,44.035-10.268,15.2-19.908,31.067-28.651,47.162-8.806,16.21-16.91,33.032-24.087,50-7.243,17.126-13.715,34.807-19.234,52.552-5.582,17.946-10.324,36.389-14.095,54.817a573.476,573.476,0,0,0-8.668,56.794A581.373,581.373,0,0,0,1.5,573.5m-1,0C.5,257.041,257.041.5,573.5.5s573,256.541,573,573" fill="none" stroke="#eceef1" stroke-width="1"/>
    </g>
  </g>
</svg>
