<svg id="Group_4216" data-name="Group 4216" xmlns="http://www.w3.org/2000/svg" width="43.273" height="43.273" viewBox="0 0 43.273 43.273">
  <path id="Path_5346" data-name="Path 5346" d="M14.875,30.426H28.4a5.077,5.077,0,0,0,5.071-5.071V7.752L25.717,0H14.875A5.077,5.077,0,0,0,9.8,5.071V25.355A5.077,5.077,0,0,0,14.875,30.426ZM26.707,5.771l.99.99h-.99Zm-13.523-.7a1.692,1.692,0,0,1,1.69-1.69h8.452v6.761h6.761V25.355a1.692,1.692,0,0,1-1.69,1.69H14.875a1.692,1.692,0,0,1-1.69-1.69Zm13.523,8.452H16.565V16.9H26.707Zm0,6.761H16.565v3.381H26.707ZM38.2,10.142h-1.69v3.381H38.2a1.692,1.692,0,0,1,1.69,1.69v16.9a1.692,1.692,0,0,1-1.69,1.69H5.071a1.692,1.692,0,0,1-1.69-1.69v-16.9a1.692,1.692,0,0,1,1.69-1.69h1.69V10.142H5.071A5.077,5.077,0,0,0,0,15.213v16.9a5.077,5.077,0,0,0,5.071,5.071H19.946v2.7H13.185v3.381h16.9V39.892H23.327v-2.7H38.2a5.077,5.077,0,0,0,5.071-5.071v-16.9A5.077,5.077,0,0,0,38.2,10.142Z" fill="#fff"/>
</svg>
