<svg id="Group_944" data-name="Group 944" xmlns="http://www.w3.org/2000/svg" xmlns:xlink="http://www.w3.org/1999/xlink" width="638.064" height="242.792" viewBox="0 0 638.064 242.792">
  <defs>
    <clipPath id="clip-path">
      <rect id="Rectangle_387" data-name="Rectangle 387" width="638.064" height="242.792" fill="#fcfcfc" stroke="#eceef1" stroke-width="2"/>
    </clipPath>
  </defs>
  <g id="Group_943" data-name="Group 943" clip-path="url(#clip-path)">
    <path id="Path_796" data-name="Path 796" d="M637.564,8.5V167.532a8,8,0,0,1-8,8H430.244a18.029,18.029,0,0,0-17.757,15.086c-5.857,34.849-30.592,51.19-31.465,51.754,23.881-23.888,14.333-47.071,6.445-58.84a18.02,18.02,0,0,0-14.971-8H8.5a8,8,0,0,1-8-8V8A7.5,7.5,0,0,1,8,.5H629.564A8,8,0,0,1,637.564,8.5Z" fill="#fcfcfc" stroke="#eceef1" stroke-width="2"/>
  </g>
</svg>
