<svg id="Group_940" data-name="Group 940" xmlns="http://www.w3.org/2000/svg" xmlns:xlink="http://www.w3.org/1999/xlink" width="264" height="292.43" viewBox="0 0 264 292.43">
  <defs>
    <clipPath id="clip-path">
      <rect id="Rectangle_385" data-name="Rectangle 385" width="264" height="292.43" fill="none"/>
    </clipPath>
  </defs>
  <g id="Group_939" data-name="Group 939" clip-path="url(#clip-path)">
    <path id="Path_778" data-name="Path 778" d="M245.936,283.431c-3.391,3.473-9.105,5.54-18.13,5.54h-9.09l-4.543,0h-4.545q-.111,1.056-.224,2.1c-.049.453-.1.906-.146,1.356H53.805c-.056-.45-.108-.9-.162-1.354-.084-.693-.166-1.392-.25-2.1H36.158c-.321,0-.638,0-.95-.008-8.45-.141-13.868-2.18-17.138-5.532-3.388-3.473-4.461-8.358-4.207-13.995s1.834-12.025,3.757-18.509,4.2-13.064,5.827-19.082c2.257-8.336,5.089-17.239,8.278-26.067s6.737-17.576,10.431-25.608a185.319,185.319,0,0,1,11.3-21.309,78.735,78.735,0,0,1,5.575-7.836,33.052,33.052,0,0,1,5.313-5.319v0c6.679-5.789,16.515-10.318,27.959-13.492q2.7-.75,5.511-1.4c.5-.116,1.011-.23,1.519-.34.229-.053.461-.1.7-.152.446-.1.9-.191,1.347-.279.309-.067.619-.127.931-.188q3.56-.705,7.235-1.246.467-.07.935-.136l1.19-.166c.793-.105,1.593-.207,2.394-.3.333-.042.671-.081,1.011-.119.063-.009.127-.017.19-.022q1.782-.2,3.584-.368c.017,0,.031,0,.045,0,.808-.071,1.618-.141,2.433-.2q.677-.054,1.358-.1c.362-.024.724-.049,1.083-.071.408-.028.818-.053,1.224-.075.756-.041,1.511-.08,2.267-.113h0q.414-.021.826-.033c.211-.012.418-.02.627-.025q1.261-.047,2.524-.072c.414-.008.825-.017,1.237-.022.429-.009.86-.011,1.289-.014s.858-.006,1.286-.006c.481,0,.959,0,1.44.006l.69.008c.539.006,1.078.014,1.618.028q.844.017,1.69.044.778.021,1.558.055.825.033,1.651.075c.256.011.511.025.767.041.072,0,.147.006.218.011h0c.46.025.922.053,1.382.083.543.036,1.088.072,1.629.114l.045,0c.362.028.72.056,1.082.086.222.017.44.036.658.055l.735.064c.215.019.428.038.644.061q1.181.111,2.354.24l.732.083c.342.039.683.08,1.022.121s.68.083,1.017.128q1.61.207,3.191.447c.468.072.931.144,1.393.221.153.022.308.047.459.075q.508.083,1.019.174c1.293.224,2.576.467,3.838.729a1.741,1.741,0,0,1,.18.039q.87.179,1.732.37a93.156,93.156,0,0,1,16.153,5.068,53.268,53.268,0,0,1,12.735,7.441v0c3.421,2.6,7.3,7.391,11.345,13.636a209.192,209.192,0,0,1,12.3,22.364c4.056,8.419,7.969,17.554,11.435,26.669s6.473,18.212,8.73,26.548c1.63,6.018,3.91,12.6,5.844,19.082s3.531,12.87,3.791,18.5-.807,10.519-4.2,13.992" fill="#099"/>
    <rect id="Rectangle_384" data-name="Rectangle 384" width="264" height="3.459" transform="translate(0 288.971)" fill="#414042"/>
    <path id="Path_779" data-name="Path 779" d="M180.712,79.509a15.047,15.047,0,0,0,.345-4.961,9.5,9.5,0,0,0-1.233-3.818,8.31,8.31,0,0,0-2.5-2.651,10.039,10.039,0,0,0-3.464-1.463,7.071,7.071,0,0,0-3.844.241,10.206,10.206,0,0,0-3.587,2.2,15.074,15.074,0,0,0-2.936,3.795,19.311,19.311,0,0,0-2.322,10.381,15.05,15.05,0,0,0,1.039,4.684,10.194,10.194,0,0,0,2.309,3.517,7.078,7.078,0,0,0,3.376,1.856,5.845,5.845,0,0,0,3.932-.634,13.114,13.114,0,0,0,3.78-3.064,22.432,22.432,0,0,0,3.129-4.66,23.3,23.3,0,0,0,1.978-5.421" fill="#deb9a3"/>
    <path id="Path_780" data-name="Path 780" d="M83.236,79.509a15.046,15.046,0,0,1-.345-4.961,9.536,9.536,0,0,1,1.233-3.818,8.31,8.31,0,0,1,2.5-2.651,10.047,10.047,0,0,1,3.464-1.463,7.071,7.071,0,0,1,3.844.241,10.206,10.206,0,0,1,3.587,2.2,15.048,15.048,0,0,1,2.935,3.795,19.3,19.3,0,0,1,2.323,10.381,15.049,15.049,0,0,1-1.039,4.684,10.194,10.194,0,0,1-2.309,3.517,7.07,7.07,0,0,1-3.375,1.856,5.844,5.844,0,0,1-3.932-.634,13.13,13.13,0,0,1-3.781-3.064,22.512,22.512,0,0,1-3.129-4.66,23.3,23.3,0,0,1-1.978-5.421" fill="#deb9a3"/>
    <path id="Path_781" data-name="Path 781" d="M208.495,279.41a22.669,22.669,0,0,1-.282,2.545,7.32,7.32,0,0,1-.661,2.083,3.418,3.418,0,0,1-1.293,1.408,4.209,4.209,0,0,1-2.18.517H59.571a4.207,4.207,0,0,1-2.18-.517,3.427,3.427,0,0,1-1.294-1.408,7.352,7.352,0,0,1-.66-2.083,22.673,22.673,0,0,1-.282-2.545L52.966,256l-2.189-23.41-2.189-23.411L46.4,185.768a6.282,6.282,0,0,1,.35-2.545,6.037,6.037,0,0,1,3.269-3.491,6.27,6.27,0,0,1,2.516-.517H211.115a6.27,6.27,0,0,1,2.516.517,6.034,6.034,0,0,1,3.27,3.491,6.3,6.3,0,0,1,.35,2.545l-2.189,23.41-2.189,23.411L210.684,256Z" fill="#0f3764"/>
    <path id="Path_782" data-name="Path 782" d="M211.078,282.427a6.763,6.763,0,0,1-.686,2.544,7.274,7.274,0,0,1-3.73,3.492,6.767,6.767,0,0,1-2.584.517H59.571a6.767,6.767,0,0,1-2.584-.517,7.274,7.274,0,0,1-3.73-3.492,6.763,6.763,0,0,1-.686-2.544l-1.543-23.411-1.543-23.41L47.942,212.2,46.4,188.785a6.263,6.263,0,0,1,.35-2.545,6.029,6.029,0,0,1,3.269-3.491,6.27,6.27,0,0,1,2.516-.517H211.115a6.27,6.27,0,0,1,2.516.517,6.029,6.029,0,0,1,3.269,3.491,6.28,6.28,0,0,1,.351,2.545l-1.543,23.41-1.544,23.411-1.543,23.41Z" fill="#ddd7eb"/>
    <path id="Path_783" data-name="Path 783" d="M133.462,254.3l-.313-.672a26.179,26.179,0,0,1,5.316-1.68,18.257,18.257,0,0,1,5.926-.367l.162.023a24.319,24.319,0,0,1,2.514.428v.769c-.8-.2-1.861-.358-2.616-.464l-.164-.023a17.511,17.511,0,0,0-5.675.36,25.828,25.828,0,0,0-5.15,1.626" fill="#0d3862"/>
    <path id="Path_784" data-name="Path 784" d="M147.071,230.623v2.76a17.053,17.053,0,0,0-19.618,16.84,11.994,11.994,0,0,0,.246,2.9,14.292,14.292,0,0,1-.818-5.083,17.607,17.607,0,0,1,17.606-17.606,17.187,17.187,0,0,1,2.584.191" fill="#0d3862"/>
    <path id="Path_785" data-name="Path 785" d="M147.071,230.623v2.76A17.042,17.042,0,0,0,130.7,237.1l.193-.243a12,12,0,0,1,2.14-2.185l.292-.246a17.548,17.548,0,0,1,11.165-3.991,17.187,17.187,0,0,1,2.584.191" fill="#34b4e1"/>
    <path id="Path_786" data-name="Path 786" d="M132.073,229.77c-.1,3.827-3.266,5.035-4.687,8.709a16.034,16.034,0,0,0,.314,14.642c-3.991-4.84-4.681-11.751-1.32-16.828,1.5-2.588,3.633-4.628,3.769-6.842l0,0c.308-3.071-4.155-3.769-5.095-1.116-.3,2.151,1.342,4.52-1.431,5.663a2.892,2.892,0,0,1-1.748.158c2.306-1.192.313-3.745,1.1-5.608,1.366-4.866,9.051-3.866,9.1,1.225" fill="#0d3862"/>
    <path id="Path_787" data-name="Path 787" d="M147.068,250.643c-8.073-1.683-15.6,3.222-23.554,3.649-9.3.273-5.125-6.179,1.275-3.682-7.606-.462-5.172,4.482,1.474,2.841,6.914-1.42,13.57-5.444,20.8-3.492Z" fill="#0d3862"/>
    <path id="Path_788" data-name="Path 788" d="M131.974,168.233a53.424,53.424,0,0,0,15.413-2.138,36.847,36.847,0,0,0,12.6-6.487,29.887,29.887,0,0,0,8.5-10.946,37.053,37.053,0,0,0,3.12-15.516c0-.152,0-.3,0-.458s0-.307-.008-.461-.007-.308-.012-.463-.01-.309-.016-.464a130.544,130.544,0,0,0-19.037-3.372,168.811,168.811,0,0,0-20.46-.875,175.357,175.357,0,0,0-20.517,1.541,145.371,145.371,0,0,0-19.209,3.876l0,.17,0,.17c0,.056,0,.112,0,.168s0,.112,0,.168a37.053,37.053,0,0,0,3.12,15.516,29.887,29.887,0,0,0,8.5,10.946,36.847,36.847,0,0,0,12.6,6.487,53.425,53.425,0,0,0,15.413,2.138" fill="#fff3f3"/>
    <path id="Path_789" data-name="Path 789" d="M131.974,162.55a49.248,49.248,0,0,0,13.316-1.706,31.5,31.5,0,0,0,10.874-5.316,24.581,24.581,0,0,0,7.332-9.22,31.77,31.77,0,0,0,2.688-13.42q0-.4-.007-.789t-.023-.785q-.015-.392-.037-.78c-.015-.26-.031-.519-.051-.777a141.349,141.349,0,0,0-16.584-2.38,170.92,170.92,0,0,0-17.463-.582c-5.874.1-11.755.492-17.5,1.167a154.744,154.744,0,0,0-16.7,2.864c-.009.171-.016.342-.023.513s-.011.343-.016.515-.008.343-.01.516,0,.345,0,.518a31.77,31.77,0,0,0,2.688,13.42,24.581,24.581,0,0,0,7.332,9.22,31.5,31.5,0,0,0,10.874,5.316,49.248,49.248,0,0,0,13.316,1.706" fill="#f3ccb3"/>
    <path id="Path_790" data-name="Path 790" d="M151.071,152.982H112.877l.964-11.009.964-11.008.964-11.009.964-11.008h30.482l.964,11.008.964,11.009.964,11.008Z" fill="#f3ccb3"/>
    <path id="Path_791" data-name="Path 791" d="M115.644,121.393a32.62,32.62,0,0,0,7.889,4.318,38.682,38.682,0,0,0,9.067,2.307,29.6,29.6,0,0,0,8.833-.122,16.45,16.45,0,0,0,7.185-2.965l-.351-4-.35-3.995-.351-4-.351-4H116.734l-.273,3.112-.272,3.111-.273,3.111Z" fill="#deb9a3"/>
    <path id="Path_792" data-name="Path 792" d="M175.121,64.749a45.857,45.857,0,0,0-3.391-18.054,34.962,34.962,0,0,0-9.246-12.816,39.325,39.325,0,0,0-13.715-7.643,56.943,56.943,0,0,0-33.589,0,39.325,39.325,0,0,0-13.715,7.643,34.976,34.976,0,0,0-9.247,12.816,45.876,45.876,0,0,0-3.39,18.054,68.932,68.932,0,0,0,3.39,20.84,72.207,72.207,0,0,0,9.247,18.945,50.922,50.922,0,0,0,13.715,13.772,29.173,29.173,0,0,0,33.589,0,50.922,50.922,0,0,0,13.715-13.772,72.173,72.173,0,0,0,9.246-18.945,68.9,68.9,0,0,0,3.391-20.84" fill="#f3ccb3"/>
    <path id="Path_793" data-name="Path 793" d="M180.926,45.182c-.659-.836-.744-4.65-1.169-9.648a66.862,66.862,0,0,0-3.205-16.755c-2.016-5.573-5.284-10.537-10.716-13.1s-13.028-2.722-23.7,1.315C132.892.151,124.665-1.137,117.5.848S104.239,8.083,99.25,14.318A95.564,95.564,0,0,0,87.663,33.673c-2.72,5.906-4.282,10.507-4.64,11.509A30.847,30.847,0,0,0,81.78,59.154a55.923,55.923,0,0,0,3.413,13.252,63.136,63.136,0,0,0,4.543,9.472c1.311,2.186,2.222,3.235,2.147,2.632a70.191,70.191,0,0,1-.556-7.938,57.1,57.1,0,0,1,.358-7.183,46.825,46.825,0,0,1,1.189-6.422,39.015,39.015,0,0,1,1.937-5.655,67.185,67.185,0,0,0,21.773,1.422A74.412,74.412,0,0,0,134.1,54.813,81.834,81.834,0,0,0,145.847,49.6c2.78-1.5,4.343-2.551,4.432-2.464a45.5,45.5,0,0,0,11.454,8.647c3.014,1.574,5.265,2.313,6.877,3.645s2.586,3.258,3.044,7.2.4,9.914-.046,19.33c-.028.608,1.329-.636,3.183-3.093a58.6,58.6,0,0,0,6.166-10.374,39.628,39.628,0,0,0,3.822-13.834,19.246,19.246,0,0,0-3.853-13.475" fill="#032849"/>
    <path id="Path_794" data-name="Path 794" d="M59.571,288.151a5.844,5.844,0,0,1-1.693-.253,6.246,6.246,0,0,1-1.549-.711,6.536,6.536,0,0,1-1.312-1.1,6.359,6.359,0,0,1-.981-1.416h90.11l2.667,0,2.628,0H151.2c5.71,0,10.9-.016,15.6-.116s8.914-.285,12.683-.623a68.084,68.084,0,0,0,10.01-1.543,29.082,29.082,0,0,0,7.576-2.879,18.458,18.458,0,0,0,5.294-4.444,21.517,21.517,0,0,0,3.533-6.58,43.951,43.951,0,0,0,1.975-9.293,110.484,110.484,0,0,0,.615-12.581l.855-15.875.855-15.876.855-15.876.855-15.876a5.386,5.386,0,0,1,.881.2,5.1,5.1,0,0,1,.823.338,5.163,5.163,0,0,1,.753.472,5.277,5.277,0,0,1,1.324,1.467,5.163,5.163,0,0,1,.458.972,5.364,5.364,0,0,1,.252,1.056,5.64,5.64,0,0,1,.036,1.113l-1.544,23.411-1.543,23.41-1.543,23.411-1.543,23.41a6,6,0,0,1-.6,2.247,6.4,6.4,0,0,1-3.287,3.077,5.987,5.987,0,0,1-2.282.455H59.571Z" fill="#cac4d8"/>
  </g>
</svg>
