<svg id="indiaFlag" xmlns="http://www.w3.org/2000/svg" xmlns:xlink="http://www.w3.org/1999/xlink" width="26.146" height="15.251" viewBox="0 0 26.146 15.251">
  <defs>
    <clipPath id="clip-path">
      <rect id="Rectangle_2475" data-name="Rectangle 2475" width="26.146" height="15.251" fill="none"/>
    </clipPath>
  </defs>
  <rect id="Rectangle_2472" data-name="Rectangle 2472" width="26.146" height="15.251" transform="translate(0 0)" fill="#fff"/>
  <rect id="Rectangle_2473" data-name="Rectangle 2473" width="26.146" height="5.085" transform="translate(0 0)" fill="#f0953e"/>
  <rect id="Rectangle_2474" data-name="Rectangle 2474" width="26.146" height="5.081" transform="translate(0 10.17)" fill="#3b8916"/>
  <g id="Group_4564" data-name="Group 4564" transform="translate(0 0)">
    <g id="Group_4563" data-name="Group 4563" clip-path="url(#clip-path)">
      <path id="Path_9300" data-name="Path 9300" d="M16.132,6.856A2.287,2.287,0,1,0,18.42,9.141a2.287,2.287,0,0,0-2.288-2.285m0,.222-.058,1.151.062.654.058-.654-.058-1.151a1.623,1.623,0,0,1,.176.009l0,.006a.1.1,0,0,0,.094.1.1.1,0,0,0,.093-.085,1.611,1.611,0,0,1,.169.04l-.354,1.1-.112.648.228-.621.243-1.123c.055.018.11.033.164.055a.106.106,0,0,0-.007.033.094.094,0,0,0,.1.094.1.1,0,0,0,.086-.058c.051.024.1.051.153.082l-.626.962-.277.6.382-.538.525-1.023c.048.028.1.058.145.089a.094.094,0,0,0-.022.061.1.1,0,0,0,.1.094.085.085,0,0,0,.075-.04c.046.04.088.079.128.118l-.852.77-.421.508.507-.42.771-.855c.04.043.079.083.115.128a.1.1,0,0,0,.06.167.093.093,0,0,0,.056-.018,1.513,1.513,0,0,1,.093.146L16.9,8.63l-.538.383.6-.273.966-.63c.032.055.058.113.083.161a.106.106,0,0,0-.058.091.1.1,0,0,0,.093.1.067.067,0,0,0,.037-.009c.018.055.035.107.049.161L17,8.846l-.616.228.648-.11,1.1-.35c.014.048.028.109.038.164a.091.091,0,0,0-.082.094.1.1,0,0,0,.1.094h.009c.005.055.005.115.005.171l-1.147-.055-.657.058.657.064,1.147-.061c0,.061,0,.119-.005.174H18.18a.1.1,0,0,0-.1.094.1.1,0,0,0,.08.094c-.01.058-.023.113-.037.167l-.39-.125-.705-.228-.648-.11h0L17,9.439l1.125.241a1.148,1.148,0,0,1-.052.161l-.012,0H18.04a.093.093,0,0,0-.1.094.071.071,0,0,0,.009.037.072.072,0,0,0,.026.037l.008,0s.006.006.009.006L18,10.02c-.024.052-.051.1-.08.153l-.964-.624h0l-.6-.274h0l.313.22.222.158,1.023.523c-.03.051-.061.1-.094.149a.108.108,0,0,0-.055-.016.092.092,0,0,0-.1.092.085.085,0,0,0,.035.072c-.037.043-.076.086-.115.125l-.771-.852-.506-.42.42.508.852.77a1.289,1.289,0,0,1-.123.113.088.088,0,0,0-.059-.021.1.1,0,0,0-.094.094.108.108,0,0,0,.007.042c-.05.03-.1.064-.152.1l-.525-1.022-.382-.541.275.6.626.968c-.05.027-.1.055-.152.079a.089.089,0,0,0-.085-.058.1.1,0,0,0-.1.094.157.157,0,0,0,.006.037,1.662,1.662,0,0,1-.164.048l-.243-1.126L16.2,9.4v0l.112.648.354,1.1a1.216,1.216,0,0,1-.169.037.1.1,0,0,0-.093-.079.092.092,0,0,0-.094.091V11.2a1.633,1.633,0,0,1-.174.009l.058-1.147L16.132,9.4l-.059.657.058,1.147a1.67,1.67,0,0,1-.177-.009v-.012a.094.094,0,0,0-.1-.091.1.1,0,0,0-.093.079,1.622,1.622,0,0,1-.164-.037l.353-1.1.11-.645-.228.612-.24,1.126c-.055-.012-.11-.03-.166-.048a.126.126,0,0,0,.007-.037.1.1,0,0,0-.093-.094.1.1,0,0,0-.09.058c-.05-.024-.1-.052-.152-.079l.625-.968.274-.6-.38.538L15.1,10.93c-.051-.033-.1-.064-.148-.1a.076.076,0,0,0,.019-.051.1.1,0,0,0-.093-.1.087.087,0,0,0-.073.037,1.53,1.53,0,0,1-.128-.116l.855-.77.42-.508-.507.42-.771.852c-.043-.04-.081-.086-.118-.125a.1.1,0,0,0,.036-.076.091.091,0,0,0-.094-.091.109.109,0,0,0-.056.015,1.448,1.448,0,0,1-.093-.146l1.025-.527.534-.375-.6.274-.964.624c-.029-.049-.051-.1-.078-.153a.088.088,0,0,0,.062-.085.1.1,0,0,0-.1-.1.085.085,0,0,0-.04.009c-.019-.052-.037-.11-.054-.167l1.126-.241.619-.228-.651.11-1.1.353c-.015-.055-.026-.11-.037-.171a.091.091,0,0,0,.082-.091.1.1,0,0,0-.094-.094h-.011c0-.055-.007-.113-.007-.174l1.148.061.656-.064-.656-.058-1.148.055c0-.055,0-.116.007-.171h.017a.094.094,0,0,0,.006-.189c.012-.055.023-.116.037-.164l1.1.35.651.11-.619-.228-1.126-.241c.017-.058.035-.113.054-.164a.122.122,0,0,0,.035.006.094.094,0,0,0,.094-.094.092.092,0,0,0-.056-.086c.024-.055.05-.106.079-.158l.964.63.6.273-.538-.383-1.025-.523c.029-.048.061-.1.094-.149a.079.079,0,0,0,.056.021.1.1,0,0,0,.094-.094.12.12,0,0,0-.034-.076c.034-.042.072-.082.114-.125l.771.855.509.42-.42-.508-.855-.77c.043-.039.083-.079.128-.115a.091.091,0,0,0,.073.037.1.1,0,0,0,.1-.1.112.112,0,0,0-.02-.058c.049-.028.1-.061.146-.089l.523,1.023.38.535-.274-.6L15.1,7.355c.05-.03.1-.058.15-.082a.1.1,0,0,0,.088.061.093.093,0,0,0,.094-.091.135.135,0,0,0-.005-.04c.053-.021.111-.037.166-.055l.243,1.123.228.621-.111-.648-.353-1.1a1.5,1.5,0,0,1,.167-.04.095.095,0,0,0,.189-.015V7.084a1.582,1.582,0,0,1,.172-.006" transform="translate(-3.059 -1.515)" fill="#16007e"/>
      <path id="Path_9301" data-name="Path 9301" d="M16.688,9.352a.342.342,0,1,1-.344.34.342.342,0,0,1,.344-.34" transform="translate(-3.612 -2.067)" fill="#fff"/>
      <path id="Path_9302" data-name="Path 9302" d="M16.709,9.453a.262.262,0,0,1,.263.262.266.266,0,1,1-.263-.262" transform="translate(-3.633 -2.089)" fill="#16007e"/>
    </g>
  </g>
</svg>
